<?xml version="1.0" encoding="utf-8" standalone="no"?>
<!DOCTYPE svg PUBLIC "-//W3C//DTD SVG 1.1//EN"
  "http://www.w3.org/Graphics/SVG/1.1/DTD/svg11.dtd">
<svg xmlns:xlink="http://www.w3.org/1999/xlink" width="572.4pt" height="589.437813pt" viewBox="0 0 572.4 589.437813" xmlns="http://www.w3.org/2000/svg" version="1.1">
 <metadata>
  <rdf:RDF xmlns:dc="http://purl.org/dc/elements/1.1/" xmlns:cc="http://creativecommons.org/ns#" xmlns:rdf="http://www.w3.org/1999/02/22-rdf-syntax-ns#">
   <cc:Work>
    <dc:type rdf:resource="http://purl.org/dc/dcmitype/StillImage"/>
    <dc:date>2026-05-26T08:38:46.224697</dc:date>
    <dc:format>image/svg+xml</dc:format>
    <dc:creator>
     <cc:Agent>
      <dc:title>Matplotlib v3.10.9, https://matplotlib.org/</dc:title>
     </cc:Agent>
    </dc:creator>
   </cc:Work>
  </rdf:RDF>
 </metadata>
 <defs>
  <style type="text/css">*{stroke-linejoin: round; stroke-linecap: butt}</style>
 </defs>
 <g id="figure_1">
  <g id="patch_1">
   <path d="M 0 589.437813 
L 572.4 589.437813 
L 572.4 0 
L 0 0 
z
" style="fill: #1a1a2e"/>
  </g>
  <g id="axes_1">
   <g id="patch_2">
    <path d="M 70.254 139.826613 
L 502.146 139.826613 
Q 510.516 139.826613 510.516 131.510612 
L 510.516 107.117013 
Q 510.516 98.801013 502.146 98.801013 
L 70.254 98.801013 
Q 61.884 98.801013 61.884 107.117013 
L 61.884 131.510612 
Q 61.884 139.826613 70.254 139.826613 
z
" clip-path="url(#pd4606adc63)" style="fill: #1565c0; stroke: #555555; stroke-width: 1.5; stroke-linejoin: miter"/>
   </g>
   <g id="patch_3">
    <path d="M 70.254 189.722613 
L 502.146 189.722613 
Q 510.516 189.722613 510.516 181.406612 
L 510.516 162.557013 
Q 510.516 154.241013 502.146 154.241013 
L 70.254 154.241013 
Q 61.884 154.241013 61.884 162.557013 
L 61.884 181.406612 
Q 61.884 189.722613 70.254 189.722613 
z
" clip-path="url(#pd4606adc63)" style="fill: #455a64; stroke: #555555; stroke-width: 1.5; stroke-linejoin: miter"/>
   </g>
   <g id="patch_4">
    <path d="M 70.254 228.530613 
L 502.146 228.530613 
Q 510.516 228.530613 510.516 220.214613 
L 510.516 201.365013 
Q 510.516 193.049013 502.146 193.049013 
L 70.254 193.049013 
Q 61.884 193.049013 61.884 201.365013 
L 61.884 220.214613 
Q 61.884 228.530613 70.254 228.530613 
z
" clip-path="url(#pd4606adc63)" style="fill: #c62828; stroke: #555555; stroke-width: 1.5; stroke-linejoin: miter"/>
   </g>
   <g id="patch_5">
    <path d="M 248.814 253.478612 
L 323.586 253.478612 
Q 331.956 253.478612 331.956 245.162612 
L 331.956 240.173013 
Q 331.956 231.857012 323.586 231.857012 
L 248.814 231.857012 
Q 240.444 231.857012 240.444 240.173013 
L 240.444 245.162612 
Q 240.444 253.478612 248.814 253.478612 
z
" clip-path="url(#pd4606adc63)" style="fill: #455a64; stroke: #555555; stroke-width: 1.5; stroke-linejoin: miter"/>
   </g>
   <g id="patch_6">
    <path d="M 70.254 261.794613 
L 502.146 261.794613 
Q 510.516 261.794613 510.516 253.478612 
L 510.516 234.629013 
Q 510.516 226.313013 502.146 226.313013 
L 70.254 226.313013 
Q 61.884 226.313013 61.884 234.629013 
L 61.884 253.478612 
Q 61.884 261.794613 70.254 261.794613 
z
" clip-path="url(#pd4606adc63)" style="fill: #ef6c00; stroke: #555555; stroke-width: 1.5; stroke-linejoin: miter"/>
   </g>
   <g id="patch_7">
    <path d="M 248.814 286.742613 
L 323.586 286.742613 
Q 331.956 286.742613 331.956 278.426613 
L 331.956 273.437013 
Q 331.956 265.121013 323.586 265.121013 
L 248.814 265.121013 
Q 240.444 265.121013 240.444 273.437013 
L 240.444 278.426613 
Q 240.444 286.742613 248.814 286.742613 
z
" clip-path="url(#pd4606adc63)" style="fill: #455a64; stroke: #555555; stroke-width: 1.5; stroke-linejoin: miter"/>
   </g>
   <g id="patch_8">
    <path d="M 70.254 300.602613 
L 502.146 300.602613 
Q 510.516 300.602613 510.516 292.286612 
L 510.516 273.437013 
Q 510.516 265.121013 502.146 265.121013 
L 70.254 265.121013 
Q 61.884 265.121013 61.884 273.437013 
L 61.884 292.286612 
Q 61.884 300.602613 70.254 300.602613 
z
" clip-path="url(#pd4606adc63)" style="fill: #c62828; stroke: #555555; stroke-width: 1.5; stroke-linejoin: miter"/>
   </g>
   <g id="patch_9">
    <path d="M 248.814 325.550612 
L 323.586 325.550612 
Q 331.956 325.550612 331.956 317.234612 
L 331.956 312.245013 
Q 331.956 303.929012 323.586 303.929012 
L 248.814 303.929012 
Q 240.444 303.929012 240.444 312.245013 
L 240.444 317.234612 
Q 240.444 325.550612 248.814 325.550612 
z
" clip-path="url(#pd4606adc63)" style="fill: #455a64; stroke: #555555; stroke-width: 1.5; stroke-linejoin: miter"/>
   </g>
   <g id="patch_10">
    <path d="M 70.254 333.866612 
L 502.146 333.866612 
Q 510.516 333.866612 510.516 325.550612 
L 510.516 306.701013 
Q 510.516 298.385013 502.146 298.385013 
L 70.254 298.385013 
Q 61.884 298.385013 61.884 306.701013 
L 61.884 325.550612 
Q 61.884 333.866612 70.254 333.866612 
z
" clip-path="url(#pd4606adc63)" style="fill: #ef6c00; stroke: #555555; stroke-width: 1.5; stroke-linejoin: miter"/>
   </g>
   <g id="patch_11">
    <path d="M 248.814 358.814613 
L 323.586 358.814613 
Q 331.956 358.814613 331.956 350.498613 
L 331.956 345.509013 
Q 331.956 337.193013 323.586 337.193013 
L 248.814 337.193013 
Q 240.444 337.193013 240.444 345.509013 
L 240.444 350.498613 
Q 240.444 358.814613 248.814 358.814613 
z
" clip-path="url(#pd4606adc63)" style="fill: #455a64; stroke: #555555; stroke-width: 1.5; stroke-linejoin: miter"/>
   </g>
   <g id="patch_12">
    <path d="M 70.254 372.674613 
L 502.146 372.674613 
Q 510.516 372.674613 510.516 364.358613 
L 510.516 345.509013 
Q 510.516 337.193013 502.146 337.193013 
L 70.254 337.193013 
Q 61.884 337.193013 61.884 345.509013 
L 61.884 364.358613 
Q 61.884 372.674613 70.254 372.674613 
z
" clip-path="url(#pd4606adc63)" style="fill: #c62828; stroke: #555555; stroke-width: 1.5; stroke-linejoin: miter"/>
   </g>
   <g id="patch_13">
    <path d="M 248.814 397.622613 
L 323.586 397.622613 
Q 331.956 397.622613 331.956 389.306613 
L 331.956 384.317013 
Q 331.956 376.001013 323.586 376.001013 
L 248.814 376.001013 
Q 240.444 376.001013 240.444 384.317013 
L 240.444 389.306613 
Q 240.444 397.622613 248.814 397.622613 
z
" clip-path="url(#pd4606adc63)" style="fill: #455a64; stroke: #555555; stroke-width: 1.5; stroke-linejoin: miter"/>
   </g>
   <g id="patch_14">
    <path d="M 70.254 405.938613 
L 502.146 405.938613 
Q 510.516 405.938613 510.516 397.622613 
L 510.516 378.773013 
Q 510.516 370.457013 502.146 370.457013 
L 70.254 370.457013 
Q 61.884 370.457013 61.884 378.773013 
L 61.884 397.622613 
Q 61.884 405.938613 70.254 405.938613 
z
" clip-path="url(#pd4606adc63)" style="fill: #ef6c00; stroke: #555555; stroke-width: 1.5; stroke-linejoin: miter"/>
   </g>
   <g id="patch_15">
    <path d="M 248.814 430.886613 
L 323.586 430.886613 
Q 331.956 430.886613 331.956 422.570613 
L 331.956 417.581013 
Q 331.956 409.265013 323.586 409.265013 
L 248.814 409.265013 
Q 240.444 409.265013 240.444 417.581013 
L 240.444 422.570613 
Q 240.444 430.886613 248.814 430.886613 
z
" clip-path="url(#pd4606adc63)" style="fill: #455a64; stroke: #555555; stroke-width: 1.5; stroke-linejoin: miter"/>
   </g>
   <g id="patch_16">
    <path d="M 70.254 444.746613 
L 502.146 444.746613 
Q 510.516 444.746613 510.516 436.430613 
L 510.516 417.581013 
Q 510.516 409.265013 502.146 409.265013 
L 70.254 409.265013 
Q 61.884 409.265013 61.884 417.581013 
L 61.884 436.430613 
Q 61.884 444.746613 70.254 444.746613 
z
" clip-path="url(#pd4606adc63)" style="fill: #c62828; stroke: #555555; stroke-width: 1.5; stroke-linejoin: miter"/>
   </g>
   <g id="patch_17">
    <path d="M 248.814 469.694613 
L 323.586 469.694613 
Q 331.956 469.694613 331.956 461.378613 
L 331.956 456.389013 
Q 331.956 448.073013 323.586 448.073013 
L 248.814 448.073013 
Q 240.444 448.073013 240.444 456.389013 
L 240.444 461.378613 
Q 240.444 469.694613 248.814 469.694613 
z
" clip-path="url(#pd4606adc63)" style="fill: #455a64; stroke: #555555; stroke-width: 1.5; stroke-linejoin: miter"/>
   </g>
   <g id="patch_18">
    <path d="M 70.254 478.010613 
L 502.146 478.010613 
Q 510.516 478.010613 510.516 469.694613 
L 510.516 450.845013 
Q 510.516 442.529013 502.146 442.529013 
L 70.254 442.529013 
Q 61.884 442.529013 61.884 450.845013 
L 61.884 469.694613 
Q 61.884 478.010613 70.254 478.010613 
z
" clip-path="url(#pd4606adc63)" style="fill: #ef6c00; stroke: #555555; stroke-width: 1.5; stroke-linejoin: miter"/>
   </g>
   <g id="patch_19">
    <path d="M 248.814 502.958613 
L 323.586 502.958613 
Q 331.956 502.958613 331.956 494.642613 
L 331.956 489.653013 
Q 331.956 481.337013 323.586 481.337013 
L 248.814 481.337013 
Q 240.444 481.337013 240.444 489.653013 
L 240.444 494.642613 
Q 240.444 502.958613 248.814 502.958613 
z
" clip-path="url(#pd4606adc63)" style="fill: #455a64; stroke: #555555; stroke-width: 1.5; stroke-linejoin: miter"/>
   </g>
   <g id="patch_20">
    <path d="M 42.354 527.906613 
L 223.146 527.906613 
Q 231.516 527.906613 231.516 519.590613 
L 231.516 495.197013 
Q 231.516 486.881012 223.146 486.881012 
L 42.354 486.881012 
Q 33.984 486.881012 33.984 495.197013 
L 33.984 519.590613 
Q 33.984 527.906613 42.354 527.906613 
z
" clip-path="url(#pd4606adc63)" style="fill: #2e7d32; stroke: #555555; stroke-width: 1.5; stroke-linejoin: miter"/>
   </g>
   <g id="patch_21">
    <path d="M 349.254 527.906613 
L 530.046 527.906613 
Q 538.416 527.906613 538.416 519.590613 
L 538.416 495.197013 
Q 538.416 486.881012 530.046 486.881012 
L 349.254 486.881012 
Q 340.884 486.881012 340.884 495.197013 
L 340.884 519.590613 
Q 340.884 527.906613 349.254 527.906613 
z
" clip-path="url(#pd4606adc63)" style="fill: #2e7d32; stroke: #555555; stroke-width: 1.5; stroke-linejoin: miter"/>
   </g>
   <g id="text_1">
    <!-- [CLS] tok1 tok2 [MASK] tok4 ... [SEP] -->
    <g style="fill: #eaeaea" transform="translate(191.522812 121.79725) scale(0.09 -0.09)">
     <defs>
      <path id="DejaVuSans-Bold-5b" d="M 550 4863 
L 2491 4863 
L 2491 4159 
L 1613 4159 
L 1613 -141 
L 2491 -141 
L 2491 -844 
L 550 -844 
L 550 4863 
z
" transform="scale(0.015625)"/>
      <path id="DejaVuSans-Bold-43" d="M 4288 256 
Q 3956 84 3597 -3 
Q 3238 -91 2847 -91 
Q 1681 -91 1000 561 
Q 319 1213 319 2328 
Q 319 3447 1000 4098 
Q 1681 4750 2847 4750 
Q 3238 4750 3597 4662 
Q 3956 4575 4288 4403 
L 4288 3438 
Q 3953 3666 3628 3772 
Q 3303 3878 2944 3878 
Q 2300 3878 1931 3465 
Q 1563 3053 1563 2328 
Q 1563 1606 1931 1193 
Q 2300 781 2944 781 
Q 3303 781 3628 887 
Q 3953 994 4288 1222 
L 4288 256 
z
" transform="scale(0.015625)"/>
      <path id="DejaVuSans-Bold-4c" d="M 588 4666 
L 1791 4666 
L 1791 909 
L 3903 909 
L 3903 0 
L 588 0 
L 588 4666 
z
" transform="scale(0.015625)"/>
      <path id="DejaVuSans-Bold-53" d="M 3834 4519 
L 3834 3531 
Q 3450 3703 3084 3790 
Q 2719 3878 2394 3878 
Q 1963 3878 1756 3759 
Q 1550 3641 1550 3391 
Q 1550 3203 1689 3098 
Q 1828 2994 2194 2919 
L 2706 2816 
Q 3484 2659 3812 2340 
Q 4141 2022 4141 1434 
Q 4141 663 3683 286 
Q 3225 -91 2284 -91 
Q 1841 -91 1394 -6 
Q 947 78 500 244 
L 500 1259 
Q 947 1022 1364 901 
Q 1781 781 2169 781 
Q 2563 781 2772 912 
Q 2981 1044 2981 1288 
Q 2981 1506 2839 1625 
Q 2697 1744 2272 1838 
L 1806 1941 
Q 1106 2091 782 2419 
Q 459 2747 459 3303 
Q 459 4000 909 4375 
Q 1359 4750 2203 4750 
Q 2588 4750 2994 4692 
Q 3400 4634 3834 4519 
z
" transform="scale(0.015625)"/>
      <path id="DejaVuSans-Bold-5d" d="M 2375 -844 
L 434 -844 
L 434 -141 
L 1313 -141 
L 1313 4159 
L 434 4159 
L 434 4863 
L 2375 4863 
L 2375 -844 
z
" transform="scale(0.015625)"/>
      <path id="DejaVuSans-Bold-20" transform="scale(0.015625)"/>
      <path id="DejaVuSans-Bold-74" d="M 1759 4494 
L 1759 3500 
L 2913 3500 
L 2913 2700 
L 1759 2700 
L 1759 1216 
Q 1759 972 1856 886 
Q 1953 800 2241 800 
L 2816 800 
L 2816 0 
L 1856 0 
Q 1194 0 917 276 
Q 641 553 641 1216 
L 641 2700 
L 84 2700 
L 84 3500 
L 641 3500 
L 641 4494 
L 1759 4494 
z
" transform="scale(0.015625)"/>
      <path id="DejaVuSans-Bold-6f" d="M 2203 2784 
Q 1831 2784 1636 2517 
Q 1441 2250 1441 1747 
Q 1441 1244 1636 976 
Q 1831 709 2203 709 
Q 2569 709 2762 976 
Q 2956 1244 2956 1747 
Q 2956 2250 2762 2517 
Q 2569 2784 2203 2784 
z
M 2203 3584 
Q 3106 3584 3614 3096 
Q 4122 2609 4122 1747 
Q 4122 884 3614 396 
Q 3106 -91 2203 -91 
Q 1297 -91 786 396 
Q 275 884 275 1747 
Q 275 2609 786 3096 
Q 1297 3584 2203 3584 
z
" transform="scale(0.015625)"/>
      <path id="DejaVuSans-Bold-6b" d="M 538 4863 
L 1656 4863 
L 1656 2216 
L 2944 3500 
L 4244 3500 
L 2534 1894 
L 4378 0 
L 3022 0 
L 1656 1459 
L 1656 0 
L 538 0 
L 538 4863 
z
" transform="scale(0.015625)"/>
      <path id="DejaVuSans-Bold-31" d="M 750 831 
L 1813 831 
L 1813 3847 
L 722 3622 
L 722 4441 
L 1806 4666 
L 2950 4666 
L 2950 831 
L 4013 831 
L 4013 0 
L 750 0 
L 750 831 
z
" transform="scale(0.015625)"/>
      <path id="DejaVuSans-Bold-32" d="M 1844 884 
L 3897 884 
L 3897 0 
L 506 0 
L 506 884 
L 2209 2388 
Q 2438 2594 2547 2791 
Q 2656 2988 2656 3200 
Q 2656 3528 2436 3728 
Q 2216 3928 1850 3928 
Q 1569 3928 1234 3808 
Q 900 3688 519 3450 
L 519 4475 
Q 925 4609 1322 4679 
Q 1719 4750 2100 4750 
Q 2938 4750 3402 4381 
Q 3866 4013 3866 3353 
Q 3866 2972 3669 2642 
Q 3472 2313 2841 1759 
L 1844 884 
z
" transform="scale(0.015625)"/>
      <path id="DejaVuSans-Bold-4d" d="M 588 4666 
L 2119 4666 
L 3181 2169 
L 4250 4666 
L 5778 4666 
L 5778 0 
L 4641 0 
L 4641 3413 
L 3566 897 
L 2803 897 
L 1728 3413 
L 1728 0 
L 588 0 
L 588 4666 
z
" transform="scale(0.015625)"/>
      <path id="DejaVuSans-Bold-41" d="M 3419 850 
L 1538 850 
L 1241 0 
L 31 0 
L 1759 4666 
L 3194 4666 
L 4922 0 
L 3713 0 
L 3419 850 
z
M 1838 1716 
L 3116 1716 
L 2478 3572 
L 1838 1716 
z
" transform="scale(0.015625)"/>
      <path id="DejaVuSans-Bold-4b" d="M 588 4666 
L 1791 4666 
L 1791 2963 
L 3525 4666 
L 4922 4666 
L 2675 2456 
L 5153 0 
L 3647 0 
L 1791 1838 
L 1791 0 
L 588 0 
L 588 4666 
z
" transform="scale(0.015625)"/>
      <path id="DejaVuSans-Bold-34" d="M 2356 3675 
L 1038 1722 
L 2356 1722 
L 2356 3675 
z
M 2156 4666 
L 3494 4666 
L 3494 1722 
L 4159 1722 
L 4159 850 
L 3494 850 
L 3494 0 
L 2356 0 
L 2356 850 
L 288 850 
L 288 1881 
L 2156 4666 
z
" transform="scale(0.015625)"/>
      <path id="DejaVuSans-Bold-2e" d="M 653 1209 
L 1778 1209 
L 1778 0 
L 653 0 
L 653 1209 
z
" transform="scale(0.015625)"/>
      <path id="DejaVuSans-Bold-45" d="M 588 4666 
L 3834 4666 
L 3834 3756 
L 1791 3756 
L 1791 2888 
L 3713 2888 
L 3713 1978 
L 1791 1978 
L 1791 909 
L 3903 909 
L 3903 0 
L 588 0 
L 588 4666 
z
" transform="scale(0.015625)"/>
      <path id="DejaVuSans-Bold-50" d="M 588 4666 
L 2584 4666 
Q 3475 4666 3951 4270 
Q 4428 3875 4428 3144 
Q 4428 2409 3951 2014 
Q 3475 1619 2584 1619 
L 1791 1619 
L 1791 0 
L 588 0 
L 588 4666 
z
M 1791 3794 
L 1791 2491 
L 2456 2491 
Q 2806 2491 2997 2661 
Q 3188 2831 3188 3144 
Q 3188 3456 2997 3625 
Q 2806 3794 2456 3794 
L 1791 3794 
z
" transform="scale(0.015625)"/>
     </defs>
     <use xlink:href="#DejaVuSans-Bold-5b"/>
     <use xlink:href="#DejaVuSans-Bold-43" transform="translate(45.703125 0)"/>
     <use xlink:href="#DejaVuSans-Bold-4c" transform="translate(119.091797 0)"/>
     <use xlink:href="#DejaVuSans-Bold-53" transform="translate(182.8125 0)"/>
     <use xlink:href="#DejaVuSans-Bold-5d" transform="translate(254.833984 0)"/>
     <use xlink:href="#DejaVuSans-Bold-20" transform="translate(300.537109 0)"/>
     <use xlink:href="#DejaVuSans-Bold-74" transform="translate(335.351562 0)"/>
     <use xlink:href="#DejaVuSans-Bold-6f" transform="translate(383.154297 0)"/>
     <use xlink:href="#DejaVuSans-Bold-6b" transform="translate(451.855469 0)"/>
     <use xlink:href="#DejaVuSans-Bold-31" transform="translate(518.359375 0)"/>
     <use xlink:href="#DejaVuSans-Bold-20" transform="translate(587.939453 0)"/>
     <use xlink:href="#DejaVuSans-Bold-74" transform="translate(622.753906 0)"/>
     <use xlink:href="#DejaVuSans-Bold-6f" transform="translate(670.556641 0)"/>
     <use xlink:href="#DejaVuSans-Bold-6b" transform="translate(739.257812 0)"/>
     <use xlink:href="#DejaVuSans-Bold-32" transform="translate(805.761719 0)"/>
     <use xlink:href="#DejaVuSans-Bold-20" transform="translate(875.341797 0)"/>
     <use xlink:href="#DejaVuSans-Bold-5b" transform="translate(910.15625 0)"/>
     <use xlink:href="#DejaVuSans-Bold-4d" transform="translate(955.859375 0)"/>
     <use xlink:href="#DejaVuSans-Bold-41" transform="translate(1055.371094 0)"/>
     <use xlink:href="#DejaVuSans-Bold-53" transform="translate(1132.763672 0)"/>
     <use xlink:href="#DejaVuSans-Bold-4b" transform="translate(1204.785156 0)"/>
     <use xlink:href="#DejaVuSans-Bold-5d" transform="translate(1282.275391 0)"/>
     <use xlink:href="#DejaVuSans-Bold-20" transform="translate(1327.978516 0)"/>
     <use xlink:href="#DejaVuSans-Bold-74" transform="translate(1362.792969 0)"/>
     <use xlink:href="#DejaVuSans-Bold-6f" transform="translate(1410.595703 0)"/>
     <use xlink:href="#DejaVuSans-Bold-6b" transform="translate(1479.296875 0)"/>
     <use xlink:href="#DejaVuSans-Bold-34" transform="translate(1545.800781 0)"/>
     <use xlink:href="#DejaVuSans-Bold-20" transform="translate(1615.380859 0)"/>
     <use xlink:href="#DejaVuSans-Bold-2e" transform="translate(1650.195312 0)"/>
     <use xlink:href="#DejaVuSans-Bold-2e" transform="translate(1688.183594 0)"/>
     <use xlink:href="#DejaVuSans-Bold-2e" transform="translate(1726.171875 0)"/>
     <use xlink:href="#DejaVuSans-Bold-20" transform="translate(1764.160156 0)"/>
     <use xlink:href="#DejaVuSans-Bold-5b" transform="translate(1798.974609 0)"/>
     <use xlink:href="#DejaVuSans-Bold-53" transform="translate(1844.677734 0)"/>
     <use xlink:href="#DejaVuSans-Bold-45" transform="translate(1916.699219 0)"/>
     <use xlink:href="#DejaVuSans-Bold-50" transform="translate(1985.009766 0)"/>
     <use xlink:href="#DejaVuSans-Bold-5d" transform="translate(2058.300781 0)"/>
    </g>
   </g>
   <g id="text_2">
    <!-- Token Embeddings + Segment Embeddings + Position Embeddings -->
    <g style="fill: #eaeaea" transform="translate(135.28125 174.158063) scale(0.08 -0.08)">
     <defs>
      <path id="DejaVuSans-Bold-54" d="M 31 4666 
L 4331 4666 
L 4331 3756 
L 2784 3756 
L 2784 0 
L 1581 0 
L 1581 3756 
L 31 3756 
L 31 4666 
z
" transform="scale(0.015625)"/>
      <path id="DejaVuSans-Bold-65" d="M 4031 1759 
L 4031 1441 
L 1416 1441 
Q 1456 1047 1700 850 
Q 1944 653 2381 653 
Q 2734 653 3104 758 
Q 3475 863 3866 1075 
L 3866 213 
Q 3469 63 3072 -14 
Q 2675 -91 2278 -91 
Q 1328 -91 801 392 
Q 275 875 275 1747 
Q 275 2603 792 3093 
Q 1309 3584 2216 3584 
Q 3041 3584 3536 3087 
Q 4031 2591 4031 1759 
z
M 2881 2131 
Q 2881 2450 2695 2645 
Q 2509 2841 2209 2841 
Q 1884 2841 1681 2658 
Q 1478 2475 1428 2131 
L 2881 2131 
z
" transform="scale(0.015625)"/>
      <path id="DejaVuSans-Bold-6e" d="M 4056 2131 
L 4056 0 
L 2931 0 
L 2931 347 
L 2931 1631 
Q 2931 2084 2911 2256 
Q 2891 2428 2841 2509 
Q 2775 2619 2662 2680 
Q 2550 2741 2406 2741 
Q 2056 2741 1856 2470 
Q 1656 2200 1656 1722 
L 1656 0 
L 538 0 
L 538 3500 
L 1656 3500 
L 1656 2988 
Q 1909 3294 2193 3439 
Q 2478 3584 2822 3584 
Q 3428 3584 3742 3212 
Q 4056 2841 4056 2131 
z
" transform="scale(0.015625)"/>
      <path id="DejaVuSans-Bold-6d" d="M 3781 2919 
Q 3994 3244 4286 3414 
Q 4578 3584 4928 3584 
Q 5531 3584 5847 3212 
Q 6163 2841 6163 2131 
L 6163 0 
L 5038 0 
L 5038 1825 
Q 5041 1866 5042 1909 
Q 5044 1953 5044 2034 
Q 5044 2406 4934 2573 
Q 4825 2741 4581 2741 
Q 4263 2741 4089 2478 
Q 3916 2216 3909 1719 
L 3909 0 
L 2784 0 
L 2784 1825 
Q 2784 2406 2684 2573 
Q 2584 2741 2328 2741 
Q 2006 2741 1831 2477 
Q 1656 2213 1656 1722 
L 1656 0 
L 531 0 
L 531 3500 
L 1656 3500 
L 1656 2988 
Q 1863 3284 2130 3434 
Q 2397 3584 2719 3584 
Q 3081 3584 3359 3409 
Q 3638 3234 3781 2919 
z
" transform="scale(0.015625)"/>
      <path id="DejaVuSans-Bold-62" d="M 2400 722 
Q 2759 722 2948 984 
Q 3138 1247 3138 1747 
Q 3138 2247 2948 2509 
Q 2759 2772 2400 2772 
Q 2041 2772 1848 2508 
Q 1656 2244 1656 1747 
Q 1656 1250 1848 986 
Q 2041 722 2400 722 
z
M 1656 2988 
Q 1888 3294 2169 3439 
Q 2450 3584 2816 3584 
Q 3463 3584 3878 3070 
Q 4294 2556 4294 1747 
Q 4294 938 3878 423 
Q 3463 -91 2816 -91 
Q 2450 -91 2169 54 
Q 1888 200 1656 506 
L 1656 0 
L 538 0 
L 538 4863 
L 1656 4863 
L 1656 2988 
z
" transform="scale(0.015625)"/>
      <path id="DejaVuSans-Bold-64" d="M 2919 2988 
L 2919 4863 
L 4044 4863 
L 4044 0 
L 2919 0 
L 2919 506 
Q 2688 197 2409 53 
Q 2131 -91 1766 -91 
Q 1119 -91 703 423 
Q 288 938 288 1747 
Q 288 2556 703 3070 
Q 1119 3584 1766 3584 
Q 2128 3584 2408 3439 
Q 2688 3294 2919 2988 
z
M 2181 722 
Q 2541 722 2730 984 
Q 2919 1247 2919 1747 
Q 2919 2247 2730 2509 
Q 2541 2772 2181 2772 
Q 1825 2772 1636 2509 
Q 1447 2247 1447 1747 
Q 1447 1247 1636 984 
Q 1825 722 2181 722 
z
" transform="scale(0.015625)"/>
      <path id="DejaVuSans-Bold-69" d="M 538 3500 
L 1656 3500 
L 1656 0 
L 538 0 
L 538 3500 
z
M 538 4863 
L 1656 4863 
L 1656 3950 
L 538 3950 
L 538 4863 
z
" transform="scale(0.015625)"/>
      <path id="DejaVuSans-Bold-67" d="M 2919 594 
Q 2688 288 2409 144 
Q 2131 0 1766 0 
Q 1125 0 706 504 
Q 288 1009 288 1791 
Q 288 2575 706 3076 
Q 1125 3578 1766 3578 
Q 2131 3578 2409 3434 
Q 2688 3291 2919 2981 
L 2919 3500 
L 4044 3500 
L 4044 353 
Q 4044 -491 3511 -936 
Q 2978 -1381 1966 -1381 
Q 1638 -1381 1331 -1331 
Q 1025 -1281 716 -1178 
L 716 -306 
Q 1009 -475 1290 -558 
Q 1572 -641 1856 -641 
Q 2406 -641 2662 -400 
Q 2919 -159 2919 353 
L 2919 594 
z
M 2181 2772 
Q 1834 2772 1640 2515 
Q 1447 2259 1447 1791 
Q 1447 1309 1634 1061 
Q 1822 813 2181 813 
Q 2531 813 2725 1069 
Q 2919 1325 2919 1791 
Q 2919 2259 2725 2515 
Q 2531 2772 2181 2772 
z
" transform="scale(0.015625)"/>
      <path id="DejaVuSans-Bold-73" d="M 3272 3391 
L 3272 2541 
Q 2913 2691 2578 2766 
Q 2244 2841 1947 2841 
Q 1628 2841 1473 2761 
Q 1319 2681 1319 2516 
Q 1319 2381 1436 2309 
Q 1553 2238 1856 2203 
L 2053 2175 
Q 2913 2066 3209 1816 
Q 3506 1566 3506 1031 
Q 3506 472 3093 190 
Q 2681 -91 1863 -91 
Q 1516 -91 1145 -36 
Q 775 19 384 128 
L 384 978 
Q 719 816 1070 734 
Q 1422 653 1784 653 
Q 2113 653 2278 743 
Q 2444 834 2444 1013 
Q 2444 1163 2330 1236 
Q 2216 1309 1875 1350 
L 1678 1375 
Q 931 1469 631 1722 
Q 331 1975 331 2491 
Q 331 3047 712 3315 
Q 1094 3584 1881 3584 
Q 2191 3584 2531 3537 
Q 2872 3491 3272 3391 
z
" transform="scale(0.015625)"/>
      <path id="DejaVuSans-Bold-2b" d="M 3053 4013 
L 3053 2375 
L 4684 2375 
L 4684 1638 
L 3053 1638 
L 3053 0 
L 2309 0 
L 2309 1638 
L 678 1638 
L 678 2375 
L 2309 2375 
L 2309 4013 
L 3053 4013 
z
" transform="scale(0.015625)"/>
     </defs>
     <use xlink:href="#DejaVuSans-Bold-54"/>
     <use xlink:href="#DejaVuSans-Bold-6f" transform="translate(54.962891 0)"/>
     <use xlink:href="#DejaVuSans-Bold-6b" transform="translate(123.664062 0)"/>
     <use xlink:href="#DejaVuSans-Bold-65" transform="translate(187.542969 0)"/>
     <use xlink:href="#DejaVuSans-Bold-6e" transform="translate(255.365234 0)"/>
     <use xlink:href="#DejaVuSans-Bold-20" transform="translate(326.556641 0)"/>
     <use xlink:href="#DejaVuSans-Bold-45" transform="translate(361.371094 0)"/>
     <use xlink:href="#DejaVuSans-Bold-6d" transform="translate(429.681641 0)"/>
     <use xlink:href="#DejaVuSans-Bold-62" transform="translate(533.880859 0)"/>
     <use xlink:href="#DejaVuSans-Bold-65" transform="translate(605.462891 0)"/>
     <use xlink:href="#DejaVuSans-Bold-64" transform="translate(673.285156 0)"/>
     <use xlink:href="#DejaVuSans-Bold-64" transform="translate(744.867188 0)"/>
     <use xlink:href="#DejaVuSans-Bold-69" transform="translate(816.449219 0)"/>
     <use xlink:href="#DejaVuSans-Bold-6e" transform="translate(850.726562 0)"/>
     <use xlink:href="#DejaVuSans-Bold-67" transform="translate(921.917969 0)"/>
     <use xlink:href="#DejaVuSans-Bold-73" transform="translate(993.5 0)"/>
     <use xlink:href="#DejaVuSans-Bold-20" transform="translate(1053.021484 0)"/>
     <use xlink:href="#DejaVuSans-Bold-2b" transform="translate(1087.835938 0)"/>
     <use xlink:href="#DejaVuSans-Bold-20" transform="translate(1171.625 0)"/>
     <use xlink:href="#DejaVuSans-Bold-53" transform="translate(1206.439453 0)"/>
     <use xlink:href="#DejaVuSans-Bold-65" transform="translate(1278.460938 0)"/>
     <use xlink:href="#DejaVuSans-Bold-67" transform="translate(1346.283203 0)"/>
     <use xlink:href="#DejaVuSans-Bold-6d" transform="translate(1417.865234 0)"/>
     <use xlink:href="#DejaVuSans-Bold-65" transform="translate(1522.064453 0)"/>
     <use xlink:href="#DejaVuSans-Bold-6e" transform="translate(1589.886719 0)"/>
     <use xlink:href="#DejaVuSans-Bold-74" transform="translate(1661.078125 0)"/>
     <use xlink:href="#DejaVuSans-Bold-20" transform="translate(1708.880859 0)"/>
     <use xlink:href="#DejaVuSans-Bold-45" transform="translate(1743.695312 0)"/>
     <use xlink:href="#DejaVuSans-Bold-6d" transform="translate(1812.005859 0)"/>
     <use xlink:href="#DejaVuSans-Bold-62" transform="translate(1916.205078 0)"/>
     <use xlink:href="#DejaVuSans-Bold-65" transform="translate(1987.787109 0)"/>
     <use xlink:href="#DejaVuSans-Bold-64" transform="translate(2055.609375 0)"/>
     <use xlink:href="#DejaVuSans-Bold-64" transform="translate(2127.191406 0)"/>
     <use xlink:href="#DejaVuSans-Bold-69" transform="translate(2198.773438 0)"/>
     <use xlink:href="#DejaVuSans-Bold-6e" transform="translate(2233.050781 0)"/>
     <use xlink:href="#DejaVuSans-Bold-67" transform="translate(2304.242188 0)"/>
     <use xlink:href="#DejaVuSans-Bold-73" transform="translate(2375.824219 0)"/>
     <use xlink:href="#DejaVuSans-Bold-20" transform="translate(2435.345703 0)"/>
     <use xlink:href="#DejaVuSans-Bold-2b" transform="translate(2470.160156 0)"/>
     <use xlink:href="#DejaVuSans-Bold-20" transform="translate(2553.949219 0)"/>
     <use xlink:href="#DejaVuSans-Bold-50" transform="translate(2588.763672 0)"/>
     <use xlink:href="#DejaVuSans-Bold-6f" transform="translate(2662.054688 0)"/>
     <use xlink:href="#DejaVuSans-Bold-73" transform="translate(2730.755859 0)"/>
     <use xlink:href="#DejaVuSans-Bold-69" transform="translate(2790.277344 0)"/>
     <use xlink:href="#DejaVuSans-Bold-74" transform="translate(2824.554688 0)"/>
     <use xlink:href="#DejaVuSans-Bold-69" transform="translate(2872.357422 0)"/>
     <use xlink:href="#DejaVuSans-Bold-6f" transform="translate(2906.634766 0)"/>
     <use xlink:href="#DejaVuSans-Bold-6e" transform="translate(2975.335938 0)"/>
     <use xlink:href="#DejaVuSans-Bold-20" transform="translate(3046.527344 0)"/>
     <use xlink:href="#DejaVuSans-Bold-45" transform="translate(3081.341797 0)"/>
     <use xlink:href="#DejaVuSans-Bold-6d" transform="translate(3149.652344 0)"/>
     <use xlink:href="#DejaVuSans-Bold-62" transform="translate(3253.851562 0)"/>
     <use xlink:href="#DejaVuSans-Bold-65" transform="translate(3325.433594 0)"/>
     <use xlink:href="#DejaVuSans-Bold-64" transform="translate(3393.255859 0)"/>
     <use xlink:href="#DejaVuSans-Bold-64" transform="translate(3464.837891 0)"/>
     <use xlink:href="#DejaVuSans-Bold-69" transform="translate(3536.419922 0)"/>
     <use xlink:href="#DejaVuSans-Bold-6e" transform="translate(3570.697266 0)"/>
     <use xlink:href="#DejaVuSans-Bold-67" transform="translate(3641.888672 0)"/>
     <use xlink:href="#DejaVuSans-Bold-73" transform="translate(3713.470703 0)"/>
    </g>
   </g>
   <g id="text_3">
    <!-- Multi-Head Attention (Bidirectional) -->
    <g style="fill: #eaeaea" transform="translate(194.820469 213.27325) scale(0.09 -0.09)">
     <defs>
      <path id="DejaVuSans-Bold-75" d="M 500 1363 
L 500 3500 
L 1625 3500 
L 1625 3150 
Q 1625 2866 1622 2436 
Q 1619 2006 1619 1863 
Q 1619 1441 1641 1255 
Q 1663 1069 1716 984 
Q 1784 875 1895 815 
Q 2006 756 2150 756 
Q 2500 756 2700 1025 
Q 2900 1294 2900 1772 
L 2900 3500 
L 4019 3500 
L 4019 0 
L 2900 0 
L 2900 506 
Q 2647 200 2364 54 
Q 2081 -91 1741 -91 
Q 1134 -91 817 281 
Q 500 653 500 1363 
z
" transform="scale(0.015625)"/>
      <path id="DejaVuSans-Bold-6c" d="M 538 4863 
L 1656 4863 
L 1656 0 
L 538 0 
L 538 4863 
z
" transform="scale(0.015625)"/>
      <path id="DejaVuSans-Bold-2d" d="M 347 2297 
L 2309 2297 
L 2309 1388 
L 347 1388 
L 347 2297 
z
" transform="scale(0.015625)"/>
      <path id="DejaVuSans-Bold-48" d="M 588 4666 
L 1791 4666 
L 1791 2888 
L 3566 2888 
L 3566 4666 
L 4769 4666 
L 4769 0 
L 3566 0 
L 3566 1978 
L 1791 1978 
L 1791 0 
L 588 0 
L 588 4666 
z
" transform="scale(0.015625)"/>
      <path id="DejaVuSans-Bold-61" d="M 2106 1575 
Q 1756 1575 1579 1456 
Q 1403 1338 1403 1106 
Q 1403 894 1545 773 
Q 1688 653 1941 653 
Q 2256 653 2472 879 
Q 2688 1106 2688 1447 
L 2688 1575 
L 2106 1575 
z
M 3816 1997 
L 3816 0 
L 2688 0 
L 2688 519 
Q 2463 200 2181 54 
Q 1900 -91 1497 -91 
Q 953 -91 614 226 
Q 275 544 275 1050 
Q 275 1666 698 1953 
Q 1122 2241 2028 2241 
L 2688 2241 
L 2688 2328 
Q 2688 2594 2478 2717 
Q 2269 2841 1825 2841 
Q 1466 2841 1156 2769 
Q 847 2697 581 2553 
L 581 3406 
Q 941 3494 1303 3539 
Q 1666 3584 2028 3584 
Q 2975 3584 3395 3211 
Q 3816 2838 3816 1997 
z
" transform="scale(0.015625)"/>
      <path id="DejaVuSans-Bold-28" d="M 2413 -844 
L 1484 -844 
Q 1006 -72 778 623 
Q 550 1319 550 2003 
Q 550 2688 779 3389 
Q 1009 4091 1484 4856 
L 2413 4856 
Q 2013 4116 1813 3408 
Q 1613 2700 1613 2009 
Q 1613 1319 1811 609 
Q 2009 -100 2413 -844 
z
" transform="scale(0.015625)"/>
      <path id="DejaVuSans-Bold-42" d="M 2456 2859 
Q 2741 2859 2887 2984 
Q 3034 3109 3034 3353 
Q 3034 3594 2887 3720 
Q 2741 3847 2456 3847 
L 1791 3847 
L 1791 2859 
L 2456 2859 
z
M 2497 819 
Q 2859 819 3042 972 
Q 3225 1125 3225 1434 
Q 3225 1738 3044 1889 
Q 2863 2041 2497 2041 
L 1791 2041 
L 1791 819 
L 2497 819 
z
M 3616 2497 
Q 4003 2384 4215 2081 
Q 4428 1778 4428 1338 
Q 4428 663 3972 331 
Q 3516 0 2584 0 
L 588 0 
L 588 4666 
L 2394 4666 
Q 3366 4666 3802 4372 
Q 4238 4078 4238 3431 
Q 4238 3091 4078 2852 
Q 3919 2613 3616 2497 
z
" transform="scale(0.015625)"/>
      <path id="DejaVuSans-Bold-72" d="M 3138 2547 
Q 2991 2616 2845 2648 
Q 2700 2681 2553 2681 
Q 2122 2681 1889 2404 
Q 1656 2128 1656 1613 
L 1656 0 
L 538 0 
L 538 3500 
L 1656 3500 
L 1656 2925 
Q 1872 3269 2151 3426 
Q 2431 3584 2822 3584 
Q 2878 3584 2943 3579 
Q 3009 3575 3134 3559 
L 3138 2547 
z
" transform="scale(0.015625)"/>
      <path id="DejaVuSans-Bold-63" d="M 3366 3391 
L 3366 2478 
Q 3138 2634 2908 2709 
Q 2678 2784 2431 2784 
Q 1963 2784 1702 2511 
Q 1441 2238 1441 1747 
Q 1441 1256 1702 982 
Q 1963 709 2431 709 
Q 2694 709 2930 787 
Q 3166 866 3366 1019 
L 3366 103 
Q 3103 6 2833 -42 
Q 2563 -91 2291 -91 
Q 1344 -91 809 395 
Q 275 881 275 1747 
Q 275 2613 809 3098 
Q 1344 3584 2291 3584 
Q 2566 3584 2833 3536 
Q 3100 3488 3366 3391 
z
" transform="scale(0.015625)"/>
      <path id="DejaVuSans-Bold-29" d="M 513 -844 
Q 913 -100 1113 609 
Q 1313 1319 1313 2009 
Q 1313 2700 1113 3408 
Q 913 4116 513 4856 
L 1441 4856 
Q 1916 4091 2145 3389 
Q 2375 2688 2375 2003 
Q 2375 1319 2147 623 
Q 1919 -72 1441 -844 
L 513 -844 
z
" transform="scale(0.015625)"/>
     </defs>
     <use xlink:href="#DejaVuSans-Bold-4d"/>
     <use xlink:href="#DejaVuSans-Bold-75" transform="translate(99.511719 0)"/>
     <use xlink:href="#DejaVuSans-Bold-6c" transform="translate(170.703125 0)"/>
     <use xlink:href="#DejaVuSans-Bold-74" transform="translate(204.980469 0)"/>
     <use xlink:href="#DejaVuSans-Bold-69" transform="translate(252.783203 0)"/>
     <use xlink:href="#DejaVuSans-Bold-2d" transform="translate(287.060547 0)"/>
     <use xlink:href="#DejaVuSans-Bold-48" transform="translate(328.564453 0)"/>
     <use xlink:href="#DejaVuSans-Bold-65" transform="translate(412.255859 0)"/>
     <use xlink:href="#DejaVuSans-Bold-61" transform="translate(480.078125 0)"/>
     <use xlink:href="#DejaVuSans-Bold-64" transform="translate(547.558594 0)"/>
     <use xlink:href="#DejaVuSans-Bold-20" transform="translate(619.140625 0)"/>
     <use xlink:href="#DejaVuSans-Bold-41" transform="translate(653.955078 0)"/>
     <use xlink:href="#DejaVuSans-Bold-74" transform="translate(731.347656 0)"/>
     <use xlink:href="#DejaVuSans-Bold-74" transform="translate(779.150391 0)"/>
     <use xlink:href="#DejaVuSans-Bold-65" transform="translate(826.953125 0)"/>
     <use xlink:href="#DejaVuSans-Bold-6e" transform="translate(894.775391 0)"/>
     <use xlink:href="#DejaVuSans-Bold-74" transform="translate(965.966797 0)"/>
     <use xlink:href="#DejaVuSans-Bold-69" transform="translate(1013.769531 0)"/>
     <use xlink:href="#DejaVuSans-Bold-6f" transform="translate(1048.046875 0)"/>
     <use xlink:href="#DejaVuSans-Bold-6e" transform="translate(1116.748047 0)"/>
     <use xlink:href="#DejaVuSans-Bold-20" transform="translate(1187.939453 0)"/>
     <use xlink:href="#DejaVuSans-Bold-28" transform="translate(1222.753906 0)"/>
     <use xlink:href="#DejaVuSans-Bold-42" transform="translate(1268.457031 0)"/>
     <use xlink:href="#DejaVuSans-Bold-69" transform="translate(1344.677734 0)"/>
     <use xlink:href="#DejaVuSans-Bold-64" transform="translate(1378.955078 0)"/>
     <use xlink:href="#DejaVuSans-Bold-69" transform="translate(1450.537109 0)"/>
     <use xlink:href="#DejaVuSans-Bold-72" transform="translate(1484.814453 0)"/>
     <use xlink:href="#DejaVuSans-Bold-65" transform="translate(1534.130859 0)"/>
     <use xlink:href="#DejaVuSans-Bold-63" transform="translate(1601.953125 0)"/>
     <use xlink:href="#DejaVuSans-Bold-74" transform="translate(1661.230469 0)"/>
     <use xlink:href="#DejaVuSans-Bold-69" transform="translate(1709.033203 0)"/>
     <use xlink:href="#DejaVuSans-Bold-6f" transform="translate(1743.310547 0)"/>
     <use xlink:href="#DejaVuSans-Bold-6e" transform="translate(1812.011719 0)"/>
     <use xlink:href="#DejaVuSans-Bold-61" transform="translate(1883.203125 0)"/>
     <use xlink:href="#DejaVuSans-Bold-6c" transform="translate(1950.683594 0)"/>
     <use xlink:href="#DejaVuSans-Bold-29" transform="translate(1984.960938 0)"/>
    </g>
   </g>
   <g id="text_4">
    <!-- Add &amp; Norm -->
    <g style="fill: #eaeaea" transform="translate(258.86875 244.875313) scale(0.08 -0.08)">
     <defs>
      <path id="DejaVuSans-Bold-26" d="M 2497 3097 
L 3775 1691 
Q 3941 1909 4027 2181 
Q 4113 2453 4128 2797 
L 5100 2797 
Q 5053 2228 4879 1784 
Q 4706 1341 4397 1006 
L 5313 0 
L 3988 0 
L 3681 341 
Q 3353 122 2990 15 
Q 2628 -91 2222 -91 
Q 1400 -91 892 342 
Q 384 775 384 1459 
Q 384 1916 607 2267 
Q 831 2619 1338 2950 
Q 1206 3116 1143 3281 
Q 1081 3447 1081 3628 
Q 1081 4138 1478 4444 
Q 1875 4750 2534 4750 
Q 2819 4750 3126 4704 
Q 3434 4659 3769 4569 
L 3769 3700 
Q 3475 3850 3212 3922 
Q 2950 3994 2700 3994 
Q 2459 3994 2326 3901 
Q 2194 3809 2194 3641 
Q 2194 3534 2270 3398 
Q 2347 3263 2497 3097 
z
M 1875 2322 
Q 1672 2175 1569 1989 
Q 1466 1803 1466 1581 
Q 1466 1222 1731 969 
Q 1997 716 2369 716 
Q 2578 716 2759 780 
Q 2941 844 3097 972 
L 1875 2322 
z
" transform="scale(0.015625)"/>
      <path id="DejaVuSans-Bold-4e" d="M 588 4666 
L 1931 4666 
L 3628 1466 
L 3628 4666 
L 4769 4666 
L 4769 0 
L 3425 0 
L 1728 3200 
L 1728 0 
L 588 0 
L 588 4666 
z
" transform="scale(0.015625)"/>
     </defs>
     <use xlink:href="#DejaVuSans-Bold-41"/>
     <use xlink:href="#DejaVuSans-Bold-64" transform="translate(77.392578 0)"/>
     <use xlink:href="#DejaVuSans-Bold-64" transform="translate(148.974609 0)"/>
     <use xlink:href="#DejaVuSans-Bold-20" transform="translate(220.556641 0)"/>
     <use xlink:href="#DejaVuSans-Bold-26" transform="translate(255.371094 0)"/>
     <use xlink:href="#DejaVuSans-Bold-20" transform="translate(342.578125 0)"/>
     <use xlink:href="#DejaVuSans-Bold-4e" transform="translate(377.392578 0)"/>
     <use xlink:href="#DejaVuSans-Bold-6f" transform="translate(461.083984 0)"/>
     <use xlink:href="#DejaVuSans-Bold-72" transform="translate(529.785156 0)"/>
     <use xlink:href="#DejaVuSans-Bold-6d" transform="translate(579.101562 0)"/>
    </g>
   </g>
   <g id="text_5">
    <!-- Feed Forward Network -->
    <g style="fill: #eaeaea" transform="translate(228.578203 246.53725) scale(0.09 -0.09)">
     <defs>
      <path id="DejaVuSans-Bold-46" d="M 588 4666 
L 3834 4666 
L 3834 3756 
L 1791 3756 
L 1791 2888 
L 3713 2888 
L 3713 1978 
L 1791 1978 
L 1791 0 
L 588 0 
L 588 4666 
z
" transform="scale(0.015625)"/>
      <path id="DejaVuSans-Bold-77" d="M 225 3500 
L 1313 3500 
L 1900 1088 
L 2491 3500 
L 3425 3500 
L 4013 1113 
L 4603 3500 
L 5691 3500 
L 4769 0 
L 3547 0 
L 2956 2406 
L 2369 0 
L 1147 0 
L 225 3500 
z
" transform="scale(0.015625)"/>
     </defs>
     <use xlink:href="#DejaVuSans-Bold-46"/>
     <use xlink:href="#DejaVuSans-Bold-65" transform="translate(64.310547 0)"/>
     <use xlink:href="#DejaVuSans-Bold-65" transform="translate(132.132812 0)"/>
     <use xlink:href="#DejaVuSans-Bold-64" transform="translate(199.955078 0)"/>
     <use xlink:href="#DejaVuSans-Bold-20" transform="translate(271.537109 0)"/>
     <use xlink:href="#DejaVuSans-Bold-46" transform="translate(306.351562 0)"/>
     <use xlink:href="#DejaVuSans-Bold-6f" transform="translate(370.662109 0)"/>
     <use xlink:href="#DejaVuSans-Bold-72" transform="translate(439.363281 0)"/>
     <use xlink:href="#DejaVuSans-Bold-77" transform="translate(488.679688 0)"/>
     <use xlink:href="#DejaVuSans-Bold-61" transform="translate(581.0625 0)"/>
     <use xlink:href="#DejaVuSans-Bold-72" transform="translate(648.542969 0)"/>
     <use xlink:href="#DejaVuSans-Bold-64" transform="translate(697.859375 0)"/>
     <use xlink:href="#DejaVuSans-Bold-20" transform="translate(769.441406 0)"/>
     <use xlink:href="#DejaVuSans-Bold-4e" transform="translate(804.255859 0)"/>
     <use xlink:href="#DejaVuSans-Bold-65" transform="translate(887.947266 0)"/>
     <use xlink:href="#DejaVuSans-Bold-74" transform="translate(955.769531 0)"/>
     <use xlink:href="#DejaVuSans-Bold-77" transform="translate(1003.572266 0)"/>
     <use xlink:href="#DejaVuSans-Bold-6f" transform="translate(1095.955078 0)"/>
     <use xlink:href="#DejaVuSans-Bold-72" transform="translate(1164.65625 0)"/>
     <use xlink:href="#DejaVuSans-Bold-6b" transform="translate(1213.972656 0)"/>
    </g>
   </g>
   <g id="text_6">
    <!-- Add &amp; Norm -->
    <g style="fill: #eaeaea" transform="translate(258.86875 278.139313) scale(0.08 -0.08)">
     <use xlink:href="#DejaVuSans-Bold-41"/>
     <use xlink:href="#DejaVuSans-Bold-64" transform="translate(77.392578 0)"/>
     <use xlink:href="#DejaVuSans-Bold-64" transform="translate(148.974609 0)"/>
     <use xlink:href="#DejaVuSans-Bold-20" transform="translate(220.556641 0)"/>
     <use xlink:href="#DejaVuSans-Bold-26" transform="translate(255.371094 0)"/>
     <use xlink:href="#DejaVuSans-Bold-20" transform="translate(342.578125 0)"/>
     <use xlink:href="#DejaVuSans-Bold-4e" transform="translate(377.392578 0)"/>
     <use xlink:href="#DejaVuSans-Bold-6f" transform="translate(461.083984 0)"/>
     <use xlink:href="#DejaVuSans-Bold-72" transform="translate(529.785156 0)"/>
     <use xlink:href="#DejaVuSans-Bold-6d" transform="translate(579.101562 0)"/>
    </g>
   </g>
   <g id="patch_22">
    <path d="M 286.2 190.612363 
Q 286.2 237.124098 286.2 282.517799 
" style="fill: none; stroke: #888888; stroke-linecap: round"/>
    <path d="M 288.2 278.517799 
L 286.2 282.517799 
L 284.2 278.517799 
" style="fill: none; stroke: #888888; stroke-linecap: round"/>
   </g>
   <g id="text_7">
    <!-- Multi-Head Attention (Bidirectional) -->
    <g style="fill: #eaeaea" transform="translate(194.820469 285.34525) scale(0.09 -0.09)">
     <use xlink:href="#DejaVuSans-Bold-4d"/>
     <use xlink:href="#DejaVuSans-Bold-75" transform="translate(99.511719 0)"/>
     <use xlink:href="#DejaVuSans-Bold-6c" transform="translate(170.703125 0)"/>
     <use xlink:href="#DejaVuSans-Bold-74" transform="translate(204.980469 0)"/>
     <use xlink:href="#DejaVuSans-Bold-69" transform="translate(252.783203 0)"/>
     <use xlink:href="#DejaVuSans-Bold-2d" transform="translate(287.060547 0)"/>
     <use xlink:href="#DejaVuSans-Bold-48" transform="translate(328.564453 0)"/>
     <use xlink:href="#DejaVuSans-Bold-65" transform="translate(412.255859 0)"/>
     <use xlink:href="#DejaVuSans-Bold-61" transform="translate(480.078125 0)"/>
     <use xlink:href="#DejaVuSans-Bold-64" transform="translate(547.558594 0)"/>
     <use xlink:href="#DejaVuSans-Bold-20" transform="translate(619.140625 0)"/>
     <use xlink:href="#DejaVuSans-Bold-41" transform="translate(653.955078 0)"/>
     <use xlink:href="#DejaVuSans-Bold-74" transform="translate(731.347656 0)"/>
     <use xlink:href="#DejaVuSans-Bold-74" transform="translate(779.150391 0)"/>
     <use xlink:href="#DejaVuSans-Bold-65" transform="translate(826.953125 0)"/>
     <use xlink:href="#DejaVuSans-Bold-6e" transform="translate(894.775391 0)"/>
     <use xlink:href="#DejaVuSans-Bold-74" transform="translate(965.966797 0)"/>
     <use xlink:href="#DejaVuSans-Bold-69" transform="translate(1013.769531 0)"/>
     <use xlink:href="#DejaVuSans-Bold-6f" transform="translate(1048.046875 0)"/>
     <use xlink:href="#DejaVuSans-Bold-6e" transform="translate(1116.748047 0)"/>
     <use xlink:href="#DejaVuSans-Bold-20" transform="translate(1187.939453 0)"/>
     <use xlink:href="#DejaVuSans-Bold-28" transform="translate(1222.753906 0)"/>
     <use xlink:href="#DejaVuSans-Bold-42" transform="translate(1268.457031 0)"/>
     <use xlink:href="#DejaVuSans-Bold-69" transform="translate(1344.677734 0)"/>
     <use xlink:href="#DejaVuSans-Bold-64" transform="translate(1378.955078 0)"/>
     <use xlink:href="#DejaVuSans-Bold-69" transform="translate(1450.537109 0)"/>
     <use xlink:href="#DejaVuSans-Bold-72" transform="translate(1484.814453 0)"/>
     <use xlink:href="#DejaVuSans-Bold-65" transform="translate(1534.130859 0)"/>
     <use xlink:href="#DejaVuSans-Bold-63" transform="translate(1601.953125 0)"/>
     <use xlink:href="#DejaVuSans-Bold-74" transform="translate(1661.230469 0)"/>
     <use xlink:href="#DejaVuSans-Bold-69" transform="translate(1709.033203 0)"/>
     <use xlink:href="#DejaVuSans-Bold-6f" transform="translate(1743.310547 0)"/>
     <use xlink:href="#DejaVuSans-Bold-6e" transform="translate(1812.011719 0)"/>
     <use xlink:href="#DejaVuSans-Bold-61" transform="translate(1883.203125 0)"/>
     <use xlink:href="#DejaVuSans-Bold-6c" transform="translate(1950.683594 0)"/>
     <use xlink:href="#DejaVuSans-Bold-29" transform="translate(1984.960938 0)"/>
    </g>
   </g>
   <g id="text_8">
    <!-- Add &amp; Norm -->
    <g style="fill: #eaeaea" transform="translate(258.86875 316.947313) scale(0.08 -0.08)">
     <use xlink:href="#DejaVuSans-Bold-41"/>
     <use xlink:href="#DejaVuSans-Bold-64" transform="translate(77.392578 0)"/>
     <use xlink:href="#DejaVuSans-Bold-64" transform="translate(148.974609 0)"/>
     <use xlink:href="#DejaVuSans-Bold-20" transform="translate(220.556641 0)"/>
     <use xlink:href="#DejaVuSans-Bold-26" transform="translate(255.371094 0)"/>
     <use xlink:href="#DejaVuSans-Bold-20" transform="translate(342.578125 0)"/>
     <use xlink:href="#DejaVuSans-Bold-4e" transform="translate(377.392578 0)"/>
     <use xlink:href="#DejaVuSans-Bold-6f" transform="translate(461.083984 0)"/>
     <use xlink:href="#DejaVuSans-Bold-72" transform="translate(529.785156 0)"/>
     <use xlink:href="#DejaVuSans-Bold-6d" transform="translate(579.101562 0)"/>
    </g>
   </g>
   <g id="text_9">
    <!-- Feed Forward Network -->
    <g style="fill: #eaeaea" transform="translate(228.578203 318.60925) scale(0.09 -0.09)">
     <use xlink:href="#DejaVuSans-Bold-46"/>
     <use xlink:href="#DejaVuSans-Bold-65" transform="translate(64.310547 0)"/>
     <use xlink:href="#DejaVuSans-Bold-65" transform="translate(132.132812 0)"/>
     <use xlink:href="#DejaVuSans-Bold-64" transform="translate(199.955078 0)"/>
     <use xlink:href="#DejaVuSans-Bold-20" transform="translate(271.537109 0)"/>
     <use xlink:href="#DejaVuSans-Bold-46" transform="translate(306.351562 0)"/>
     <use xlink:href="#DejaVuSans-Bold-6f" transform="translate(370.662109 0)"/>
     <use xlink:href="#DejaVuSans-Bold-72" transform="translate(439.363281 0)"/>
     <use xlink:href="#DejaVuSans-Bold-77" transform="translate(488.679688 0)"/>
     <use xlink:href="#DejaVuSans-Bold-61" transform="translate(581.0625 0)"/>
     <use xlink:href="#DejaVuSans-Bold-72" transform="translate(648.542969 0)"/>
     <use xlink:href="#DejaVuSans-Bold-64" transform="translate(697.859375 0)"/>
     <use xlink:href="#DejaVuSans-Bold-20" transform="translate(769.441406 0)"/>
     <use xlink:href="#DejaVuSans-Bold-4e" transform="translate(804.255859 0)"/>
     <use xlink:href="#DejaVuSans-Bold-65" transform="translate(887.947266 0)"/>
     <use xlink:href="#DejaVuSans-Bold-74" transform="translate(955.769531 0)"/>
     <use xlink:href="#DejaVuSans-Bold-77" transform="translate(1003.572266 0)"/>
     <use xlink:href="#DejaVuSans-Bold-6f" transform="translate(1095.955078 0)"/>
     <use xlink:href="#DejaVuSans-Bold-72" transform="translate(1164.65625 0)"/>
     <use xlink:href="#DejaVuSans-Bold-6b" transform="translate(1213.972656 0)"/>
    </g>
   </g>
   <g id="text_10">
    <!-- Add &amp; Norm -->
    <g style="fill: #eaeaea" transform="translate(258.86875 350.211313) scale(0.08 -0.08)">
     <use xlink:href="#DejaVuSans-Bold-41"/>
     <use xlink:href="#DejaVuSans-Bold-64" transform="translate(77.392578 0)"/>
     <use xlink:href="#DejaVuSans-Bold-64" transform="translate(148.974609 0)"/>
     <use xlink:href="#DejaVuSans-Bold-20" transform="translate(220.556641 0)"/>
     <use xlink:href="#DejaVuSans-Bold-26" transform="translate(255.371094 0)"/>
     <use xlink:href="#DejaVuSans-Bold-20" transform="translate(342.578125 0)"/>
     <use xlink:href="#DejaVuSans-Bold-4e" transform="translate(377.392578 0)"/>
     <use xlink:href="#DejaVuSans-Bold-6f" transform="translate(461.083984 0)"/>
     <use xlink:href="#DejaVuSans-Bold-72" transform="translate(529.785156 0)"/>
     <use xlink:href="#DejaVuSans-Bold-6d" transform="translate(579.101562 0)"/>
    </g>
   </g>
   <g id="patch_23">
    <path d="M 286.2 262.684363 
Q 286.2 309.196098 286.2 354.589799 
" style="fill: none; stroke: #888888; stroke-linecap: round"/>
    <path d="M 288.2 350.589799 
L 286.2 354.589799 
L 284.2 350.589799 
" style="fill: none; stroke: #888888; stroke-linecap: round"/>
   </g>
   <g id="text_11">
    <!-- Multi-Head Attention (Bidirectional) -->
    <g style="fill: #eaeaea" transform="translate(194.820469 357.41725) scale(0.09 -0.09)">
     <use xlink:href="#DejaVuSans-Bold-4d"/>
     <use xlink:href="#DejaVuSans-Bold-75" transform="translate(99.511719 0)"/>
     <use xlink:href="#DejaVuSans-Bold-6c" transform="translate(170.703125 0)"/>
     <use xlink:href="#DejaVuSans-Bold-74" transform="translate(204.980469 0)"/>
     <use xlink:href="#DejaVuSans-Bold-69" transform="translate(252.783203 0)"/>
     <use xlink:href="#DejaVuSans-Bold-2d" transform="translate(287.060547 0)"/>
     <use xlink:href="#DejaVuSans-Bold-48" transform="translate(328.564453 0)"/>
     <use xlink:href="#DejaVuSans-Bold-65" transform="translate(412.255859 0)"/>
     <use xlink:href="#DejaVuSans-Bold-61" transform="translate(480.078125 0)"/>
     <use xlink:href="#DejaVuSans-Bold-64" transform="translate(547.558594 0)"/>
     <use xlink:href="#DejaVuSans-Bold-20" transform="translate(619.140625 0)"/>
     <use xlink:href="#DejaVuSans-Bold-41" transform="translate(653.955078 0)"/>
     <use xlink:href="#DejaVuSans-Bold-74" transform="translate(731.347656 0)"/>
     <use xlink:href="#DejaVuSans-Bold-74" transform="translate(779.150391 0)"/>
     <use xlink:href="#DejaVuSans-Bold-65" transform="translate(826.953125 0)"/>
     <use xlink:href="#DejaVuSans-Bold-6e" transform="translate(894.775391 0)"/>
     <use xlink:href="#DejaVuSans-Bold-74" transform="translate(965.966797 0)"/>
     <use xlink:href="#DejaVuSans-Bold-69" transform="translate(1013.769531 0)"/>
     <use xlink:href="#DejaVuSans-Bold-6f" transform="translate(1048.046875 0)"/>
     <use xlink:href="#DejaVuSans-Bold-6e" transform="translate(1116.748047 0)"/>
     <use xlink:href="#DejaVuSans-Bold-20" transform="translate(1187.939453 0)"/>
     <use xlink:href="#DejaVuSans-Bold-28" transform="translate(1222.753906 0)"/>
     <use xlink:href="#DejaVuSans-Bold-42" transform="translate(1268.457031 0)"/>
     <use xlink:href="#DejaVuSans-Bold-69" transform="translate(1344.677734 0)"/>
     <use xlink:href="#DejaVuSans-Bold-64" transform="translate(1378.955078 0)"/>
     <use xlink:href="#DejaVuSans-Bold-69" transform="translate(1450.537109 0)"/>
     <use xlink:href="#DejaVuSans-Bold-72" transform="translate(1484.814453 0)"/>
     <use xlink:href="#DejaVuSans-Bold-65" transform="translate(1534.130859 0)"/>
     <use xlink:href="#DejaVuSans-Bold-63" transform="translate(1601.953125 0)"/>
     <use xlink:href="#DejaVuSans-Bold-74" transform="translate(1661.230469 0)"/>
     <use xlink:href="#DejaVuSans-Bold-69" transform="translate(1709.033203 0)"/>
     <use xlink:href="#DejaVuSans-Bold-6f" transform="translate(1743.310547 0)"/>
     <use xlink:href="#DejaVuSans-Bold-6e" transform="translate(1812.011719 0)"/>
     <use xlink:href="#DejaVuSans-Bold-61" transform="translate(1883.203125 0)"/>
     <use xlink:href="#DejaVuSans-Bold-6c" transform="translate(1950.683594 0)"/>
     <use xlink:href="#DejaVuSans-Bold-29" transform="translate(1984.960938 0)"/>
    </g>
   </g>
   <g id="text_12">
    <!-- Add &amp; Norm -->
    <g style="fill: #eaeaea" transform="translate(258.86875 389.019313) scale(0.08 -0.08)">
     <use xlink:href="#DejaVuSans-Bold-41"/>
     <use xlink:href="#DejaVuSans-Bold-64" transform="translate(77.392578 0)"/>
     <use xlink:href="#DejaVuSans-Bold-64" transform="translate(148.974609 0)"/>
     <use xlink:href="#DejaVuSans-Bold-20" transform="translate(220.556641 0)"/>
     <use xlink:href="#DejaVuSans-Bold-26" transform="translate(255.371094 0)"/>
     <use xlink:href="#DejaVuSans-Bold-20" transform="translate(342.578125 0)"/>
     <use xlink:href="#DejaVuSans-Bold-4e" transform="translate(377.392578 0)"/>
     <use xlink:href="#DejaVuSans-Bold-6f" transform="translate(461.083984 0)"/>
     <use xlink:href="#DejaVuSans-Bold-72" transform="translate(529.785156 0)"/>
     <use xlink:href="#DejaVuSans-Bold-6d" transform="translate(579.101562 0)"/>
    </g>
   </g>
   <g id="text_13">
    <!-- Feed Forward Network -->
    <g style="fill: #eaeaea" transform="translate(228.578203 390.68125) scale(0.09 -0.09)">
     <use xlink:href="#DejaVuSans-Bold-46"/>
     <use xlink:href="#DejaVuSans-Bold-65" transform="translate(64.310547 0)"/>
     <use xlink:href="#DejaVuSans-Bold-65" transform="translate(132.132812 0)"/>
     <use xlink:href="#DejaVuSans-Bold-64" transform="translate(199.955078 0)"/>
     <use xlink:href="#DejaVuSans-Bold-20" transform="translate(271.537109 0)"/>
     <use xlink:href="#DejaVuSans-Bold-46" transform="translate(306.351562 0)"/>
     <use xlink:href="#DejaVuSans-Bold-6f" transform="translate(370.662109 0)"/>
     <use xlink:href="#DejaVuSans-Bold-72" transform="translate(439.363281 0)"/>
     <use xlink:href="#DejaVuSans-Bold-77" transform="translate(488.679688 0)"/>
     <use xlink:href="#DejaVuSans-Bold-61" transform="translate(581.0625 0)"/>
     <use xlink:href="#DejaVuSans-Bold-72" transform="translate(648.542969 0)"/>
     <use xlink:href="#DejaVuSans-Bold-64" transform="translate(697.859375 0)"/>
     <use xlink:href="#DejaVuSans-Bold-20" transform="translate(769.441406 0)"/>
     <use xlink:href="#DejaVuSans-Bold-4e" transform="translate(804.255859 0)"/>
     <use xlink:href="#DejaVuSans-Bold-65" transform="translate(887.947266 0)"/>
     <use xlink:href="#DejaVuSans-Bold-74" transform="translate(955.769531 0)"/>
     <use xlink:href="#DejaVuSans-Bold-77" transform="translate(1003.572266 0)"/>
     <use xlink:href="#DejaVuSans-Bold-6f" transform="translate(1095.955078 0)"/>
     <use xlink:href="#DejaVuSans-Bold-72" transform="translate(1164.65625 0)"/>
     <use xlink:href="#DejaVuSans-Bold-6b" transform="translate(1213.972656 0)"/>
    </g>
   </g>
   <g id="text_14">
    <!-- Add &amp; Norm -->
    <g style="fill: #eaeaea" transform="translate(258.86875 422.283313) scale(0.08 -0.08)">
     <use xlink:href="#DejaVuSans-Bold-41"/>
     <use xlink:href="#DejaVuSans-Bold-64" transform="translate(77.392578 0)"/>
     <use xlink:href="#DejaVuSans-Bold-64" transform="translate(148.974609 0)"/>
     <use xlink:href="#DejaVuSans-Bold-20" transform="translate(220.556641 0)"/>
     <use xlink:href="#DejaVuSans-Bold-26" transform="translate(255.371094 0)"/>
     <use xlink:href="#DejaVuSans-Bold-20" transform="translate(342.578125 0)"/>
     <use xlink:href="#DejaVuSans-Bold-4e" transform="translate(377.392578 0)"/>
     <use xlink:href="#DejaVuSans-Bold-6f" transform="translate(461.083984 0)"/>
     <use xlink:href="#DejaVuSans-Bold-72" transform="translate(529.785156 0)"/>
     <use xlink:href="#DejaVuSans-Bold-6d" transform="translate(579.101562 0)"/>
    </g>
   </g>
   <g id="patch_24">
    <path d="M 286.2 334.756363 
Q 286.2 381.268098 286.2 426.661799 
" style="fill: none; stroke: #888888; stroke-linecap: round"/>
    <path d="M 288.2 422.661799 
L 286.2 426.661799 
L 284.2 422.661799 
" style="fill: none; stroke: #888888; stroke-linecap: round"/>
   </g>
   <g id="text_15">
    <!-- Multi-Head Attention (Bidirectional) -->
    <g style="fill: #eaeaea" transform="translate(194.820469 429.48925) scale(0.09 -0.09)">
     <use xlink:href="#DejaVuSans-Bold-4d"/>
     <use xlink:href="#DejaVuSans-Bold-75" transform="translate(99.511719 0)"/>
     <use xlink:href="#DejaVuSans-Bold-6c" transform="translate(170.703125 0)"/>
     <use xlink:href="#DejaVuSans-Bold-74" transform="translate(204.980469 0)"/>
     <use xlink:href="#DejaVuSans-Bold-69" transform="translate(252.783203 0)"/>
     <use xlink:href="#DejaVuSans-Bold-2d" transform="translate(287.060547 0)"/>
     <use xlink:href="#DejaVuSans-Bold-48" transform="translate(328.564453 0)"/>
     <use xlink:href="#DejaVuSans-Bold-65" transform="translate(412.255859 0)"/>
     <use xlink:href="#DejaVuSans-Bold-61" transform="translate(480.078125 0)"/>
     <use xlink:href="#DejaVuSans-Bold-64" transform="translate(547.558594 0)"/>
     <use xlink:href="#DejaVuSans-Bold-20" transform="translate(619.140625 0)"/>
     <use xlink:href="#DejaVuSans-Bold-41" transform="translate(653.955078 0)"/>
     <use xlink:href="#DejaVuSans-Bold-74" transform="translate(731.347656 0)"/>
     <use xlink:href="#DejaVuSans-Bold-74" transform="translate(779.150391 0)"/>
     <use xlink:href="#DejaVuSans-Bold-65" transform="translate(826.953125 0)"/>
     <use xlink:href="#DejaVuSans-Bold-6e" transform="translate(894.775391 0)"/>
     <use xlink:href="#DejaVuSans-Bold-74" transform="translate(965.966797 0)"/>
     <use xlink:href="#DejaVuSans-Bold-69" transform="translate(1013.769531 0)"/>
     <use xlink:href="#DejaVuSans-Bold-6f" transform="translate(1048.046875 0)"/>
     <use xlink:href="#DejaVuSans-Bold-6e" transform="translate(1116.748047 0)"/>
     <use xlink:href="#DejaVuSans-Bold-20" transform="translate(1187.939453 0)"/>
     <use xlink:href="#DejaVuSans-Bold-28" transform="translate(1222.753906 0)"/>
     <use xlink:href="#DejaVuSans-Bold-42" transform="translate(1268.457031 0)"/>
     <use xlink:href="#DejaVuSans-Bold-69" transform="translate(1344.677734 0)"/>
     <use xlink:href="#DejaVuSans-Bold-64" transform="translate(1378.955078 0)"/>
     <use xlink:href="#DejaVuSans-Bold-69" transform="translate(1450.537109 0)"/>
     <use xlink:href="#DejaVuSans-Bold-72" transform="translate(1484.814453 0)"/>
     <use xlink:href="#DejaVuSans-Bold-65" transform="translate(1534.130859 0)"/>
     <use xlink:href="#DejaVuSans-Bold-63" transform="translate(1601.953125 0)"/>
     <use xlink:href="#DejaVuSans-Bold-74" transform="translate(1661.230469 0)"/>
     <use xlink:href="#DejaVuSans-Bold-69" transform="translate(1709.033203 0)"/>
     <use xlink:href="#DejaVuSans-Bold-6f" transform="translate(1743.310547 0)"/>
     <use xlink:href="#DejaVuSans-Bold-6e" transform="translate(1812.011719 0)"/>
     <use xlink:href="#DejaVuSans-Bold-61" transform="translate(1883.203125 0)"/>
     <use xlink:href="#DejaVuSans-Bold-6c" transform="translate(1950.683594 0)"/>
     <use xlink:href="#DejaVuSans-Bold-29" transform="translate(1984.960938 0)"/>
    </g>
   </g>
   <g id="text_16">
    <!-- Add &amp; Norm -->
    <g style="fill: #eaeaea" transform="translate(258.86875 461.091313) scale(0.08 -0.08)">
     <use xlink:href="#DejaVuSans-Bold-41"/>
     <use xlink:href="#DejaVuSans-Bold-64" transform="translate(77.392578 0)"/>
     <use xlink:href="#DejaVuSans-Bold-64" transform="translate(148.974609 0)"/>
     <use xlink:href="#DejaVuSans-Bold-20" transform="translate(220.556641 0)"/>
     <use xlink:href="#DejaVuSans-Bold-26" transform="translate(255.371094 0)"/>
     <use xlink:href="#DejaVuSans-Bold-20" transform="translate(342.578125 0)"/>
     <use xlink:href="#DejaVuSans-Bold-4e" transform="translate(377.392578 0)"/>
     <use xlink:href="#DejaVuSans-Bold-6f" transform="translate(461.083984 0)"/>
     <use xlink:href="#DejaVuSans-Bold-72" transform="translate(529.785156 0)"/>
     <use xlink:href="#DejaVuSans-Bold-6d" transform="translate(579.101562 0)"/>
    </g>
   </g>
   <g id="text_17">
    <!-- Feed Forward Network -->
    <g style="fill: #eaeaea" transform="translate(228.578203 462.75325) scale(0.09 -0.09)">
     <use xlink:href="#DejaVuSans-Bold-46"/>
     <use xlink:href="#DejaVuSans-Bold-65" transform="translate(64.310547 0)"/>
     <use xlink:href="#DejaVuSans-Bold-65" transform="translate(132.132812 0)"/>
     <use xlink:href="#DejaVuSans-Bold-64" transform="translate(199.955078 0)"/>
     <use xlink:href="#DejaVuSans-Bold-20" transform="translate(271.537109 0)"/>
     <use xlink:href="#DejaVuSans-Bold-46" transform="translate(306.351562 0)"/>
     <use xlink:href="#DejaVuSans-Bold-6f" transform="translate(370.662109 0)"/>
     <use xlink:href="#DejaVuSans-Bold-72" transform="translate(439.363281 0)"/>
     <use xlink:href="#DejaVuSans-Bold-77" transform="translate(488.679688 0)"/>
     <use xlink:href="#DejaVuSans-Bold-61" transform="translate(581.0625 0)"/>
     <use xlink:href="#DejaVuSans-Bold-72" transform="translate(648.542969 0)"/>
     <use xlink:href="#DejaVuSans-Bold-64" transform="translate(697.859375 0)"/>
     <use xlink:href="#DejaVuSans-Bold-20" transform="translate(769.441406 0)"/>
     <use xlink:href="#DejaVuSans-Bold-4e" transform="translate(804.255859 0)"/>
     <use xlink:href="#DejaVuSans-Bold-65" transform="translate(887.947266 0)"/>
     <use xlink:href="#DejaVuSans-Bold-74" transform="translate(955.769531 0)"/>
     <use xlink:href="#DejaVuSans-Bold-77" transform="translate(1003.572266 0)"/>
     <use xlink:href="#DejaVuSans-Bold-6f" transform="translate(1095.955078 0)"/>
     <use xlink:href="#DejaVuSans-Bold-72" transform="translate(1164.65625 0)"/>
     <use xlink:href="#DejaVuSans-Bold-6b" transform="translate(1213.972656 0)"/>
    </g>
   </g>
   <g id="text_18">
    <!-- Add &amp; Norm -->
    <g style="fill: #eaeaea" transform="translate(258.86875 494.355313) scale(0.08 -0.08)">
     <use xlink:href="#DejaVuSans-Bold-41"/>
     <use xlink:href="#DejaVuSans-Bold-64" transform="translate(77.392578 0)"/>
     <use xlink:href="#DejaVuSans-Bold-64" transform="translate(148.974609 0)"/>
     <use xlink:href="#DejaVuSans-Bold-20" transform="translate(220.556641 0)"/>
     <use xlink:href="#DejaVuSans-Bold-26" transform="translate(255.371094 0)"/>
     <use xlink:href="#DejaVuSans-Bold-20" transform="translate(342.578125 0)"/>
     <use xlink:href="#DejaVuSans-Bold-4e" transform="translate(377.392578 0)"/>
     <use xlink:href="#DejaVuSans-Bold-6f" transform="translate(461.083984 0)"/>
     <use xlink:href="#DejaVuSans-Bold-72" transform="translate(529.785156 0)"/>
     <use xlink:href="#DejaVuSans-Bold-6d" transform="translate(579.101562 0)"/>
    </g>
   </g>
   <g id="text_19">
    <!-- x12 (BERT-Base) -->
    <g style="fill: #888888" transform="translate(245.002344 346.605188) scale(0.1 -0.1)">
     <defs>
      <path id="DejaVuSans-Oblique-78" d="M 3841 3500 
L 2234 1784 
L 3219 0 
L 2559 0 
L 1819 1388 
L 531 0 
L -166 0 
L 1556 1844 
L 641 3500 
L 1300 3500 
L 1972 2234 
L 3144 3500 
L 3841 3500 
z
" transform="scale(0.015625)"/>
      <path id="DejaVuSans-Oblique-31" d="M 416 531 
L 1447 531 
L 2144 4122 
L 978 3897 
L 1088 4441 
L 2247 4666 
L 2881 4666 
L 2075 531 
L 3103 531 
L 3003 0 
L 313 0 
L 416 531 
z
" transform="scale(0.015625)"/>
      <path id="DejaVuSans-Oblique-32" d="M 2950 2253 
L 934 525 
L 3163 525 
L 3053 0 
L 25 0 
L 128 531 
L 2234 2338 
Q 2656 2703 2832 2979 
Q 3009 3256 3009 3547 
Q 3009 3850 2796 4040 
Q 2584 4231 2241 4231 
Q 1944 4231 1581 4125 
Q 1219 4019 806 3816 
L 922 4441 
Q 1309 4594 1662 4672 
Q 2016 4750 2316 4750 
Q 2928 4750 3301 4425 
Q 3675 4100 3675 3572 
Q 3675 3216 3497 2892 
Q 3319 2569 2950 2253 
z
" transform="scale(0.015625)"/>
      <path id="DejaVuSans-Oblique-20" transform="scale(0.015625)"/>
      <path id="DejaVuSans-Oblique-28" d="M 2731 4856 
Q 1903 3822 1495 2892 
Q 1088 1963 1088 1100 
Q 1088 606 1206 120 
Q 1325 -366 1563 -844 
L 1063 -844 
Q 775 -306 634 201 
Q 494 709 494 1197 
Q 494 2125 923 3036 
Q 1353 3947 2222 4856 
L 2731 4856 
z
" transform="scale(0.015625)"/>
      <path id="DejaVuSans-Oblique-42" d="M 1081 4666 
L 2694 4666 
Q 3350 4666 3675 4422 
Q 4000 4178 4000 3688 
Q 4000 3238 3720 2911 
Q 3441 2584 2988 2516 
Q 3375 2428 3569 2181 
Q 3763 1934 3763 1522 
Q 3763 819 3242 409 
Q 2722 0 1819 0 
L 172 0 
L 1081 4666 
z
M 1234 2228 
L 903 519 
L 1919 519 
Q 2491 519 2800 781 
Q 3109 1044 3109 1522 
Q 3109 1891 2904 2059 
Q 2700 2228 2247 2228 
L 1234 2228 
z
M 1606 4147 
L 1331 2741 
L 2272 2741 
Q 2775 2741 3058 2959 
Q 3341 3178 3341 3566 
Q 3341 3869 3150 4008 
Q 2959 4147 2541 4147 
L 1606 4147 
z
" transform="scale(0.015625)"/>
      <path id="DejaVuSans-Oblique-45" d="M 1081 4666 
L 4031 4666 
L 3928 4134 
L 1606 4134 
L 1338 2753 
L 3566 2753 
L 3463 2222 
L 1234 2222 
L 909 531 
L 3284 531 
L 3181 0 
L 172 0 
L 1081 4666 
z
" transform="scale(0.015625)"/>
      <path id="DejaVuSans-Oblique-52" d="M 1613 4147 
L 1294 2491 
L 2106 2491 
Q 2584 2491 2879 2755 
Q 3175 3019 3175 3444 
Q 3175 3784 2976 3965 
Q 2778 4147 2406 4147 
L 1613 4147 
z
M 2772 2241 
Q 2972 2194 3105 2009 
Q 3238 1825 3413 1275 
L 3809 0 
L 3144 0 
L 2778 1197 
Q 2638 1659 2453 1815 
Q 2269 1972 1888 1972 
L 1191 1972 
L 806 0 
L 172 0 
L 1081 4666 
L 2503 4666 
Q 3150 4666 3495 4373 
Q 3841 4081 3841 3531 
Q 3841 3044 3547 2687 
Q 3253 2331 2772 2241 
z
" transform="scale(0.015625)"/>
      <path id="DejaVuSans-Oblique-54" d="M 378 4666 
L 4325 4666 
L 4225 4134 
L 2559 4134 
L 1759 0 
L 1125 0 
L 1925 4134 
L 275 4134 
L 378 4666 
z
" transform="scale(0.015625)"/>
      <path id="DejaVuSans-Oblique-2d" d="M 391 2009 
L 2075 2009 
L 1978 1497 
L 288 1497 
L 391 2009 
z
" transform="scale(0.015625)"/>
      <path id="DejaVuSans-Oblique-61" d="M 3438 1997 
L 3047 0 
L 2472 0 
L 2578 531 
Q 2325 219 2001 64 
Q 1678 -91 1281 -91 
Q 834 -91 548 182 
Q 263 456 263 884 
Q 263 1497 752 1853 
Q 1241 2209 2100 2209 
L 2900 2209 
L 2931 2363 
Q 2938 2388 2941 2417 
Q 2944 2447 2944 2509 
Q 2944 2788 2717 2942 
Q 2491 3097 2081 3097 
Q 1800 3097 1504 3025 
Q 1209 2953 897 2809 
L 997 3341 
Q 1322 3463 1633 3523 
Q 1944 3584 2234 3584 
Q 2853 3584 3176 3315 
Q 3500 3047 3500 2534 
Q 3500 2431 3484 2292 
Q 3469 2153 3438 1997 
z
M 2816 1759 
L 2241 1759 
Q 1534 1759 1195 1570 
Q 856 1381 856 984 
Q 856 709 1029 553 
Q 1203 397 1509 397 
Q 1978 397 2328 733 
Q 2678 1069 2791 1631 
L 2816 1759 
z
" transform="scale(0.015625)"/>
      <path id="DejaVuSans-Oblique-73" d="M 3200 3397 
L 3091 2853 
Q 2863 2978 2609 3040 
Q 2356 3103 2088 3103 
Q 1634 3103 1373 2948 
Q 1113 2794 1113 2528 
Q 1113 2219 1719 2053 
Q 1766 2041 1788 2034 
L 1972 1978 
Q 2547 1819 2739 1644 
Q 2931 1469 2931 1166 
Q 2931 609 2489 259 
Q 2047 -91 1331 -91 
Q 1053 -91 747 -37 
Q 441 16 72 128 
L 184 722 
Q 500 559 806 475 
Q 1113 391 1394 391 
Q 1816 391 2080 572 
Q 2344 753 2344 1031 
Q 2344 1331 1650 1516 
L 1591 1531 
L 1394 1581 
Q 956 1697 753 1886 
Q 550 2075 550 2369 
Q 550 2928 970 3256 
Q 1391 3584 2113 3584 
Q 2397 3584 2667 3537 
Q 2938 3491 3200 3397 
z
" transform="scale(0.015625)"/>
      <path id="DejaVuSans-Oblique-65" d="M 3078 2063 
Q 3088 2113 3092 2166 
Q 3097 2219 3097 2272 
Q 3097 2653 2873 2875 
Q 2650 3097 2266 3097 
Q 1838 3097 1509 2826 
Q 1181 2556 1013 2059 
L 3078 2063 
z
M 3578 1613 
L 903 1613 
Q 884 1494 878 1425 
Q 872 1356 872 1306 
Q 872 872 1139 634 
Q 1406 397 1894 397 
Q 2269 397 2603 481 
Q 2938 566 3225 728 
L 3116 159 
Q 2806 34 2476 -28 
Q 2147 -91 1806 -91 
Q 1078 -91 686 257 
Q 294 606 294 1247 
Q 294 1794 489 2264 
Q 684 2734 1063 3103 
Q 1306 3334 1642 3459 
Q 1978 3584 2356 3584 
Q 2950 3584 3301 3228 
Q 3653 2872 3653 2272 
Q 3653 2128 3634 1964 
Q 3616 1800 3578 1613 
z
" transform="scale(0.015625)"/>
      <path id="DejaVuSans-Oblique-29" d="M -397 -844 
Q 434 191 840 1120 
Q 1247 2050 1247 2913 
Q 1247 3406 1130 3892 
Q 1013 4378 775 4856 
L 1275 4856 
Q 1563 4316 1703 3812 
Q 1844 3309 1844 2822 
Q 1844 1891 1411 973 
Q 978 56 116 -844 
L -397 -844 
z
" transform="scale(0.015625)"/>
     </defs>
     <use xlink:href="#DejaVuSans-Oblique-78"/>
     <use xlink:href="#DejaVuSans-Oblique-31" transform="translate(59.179688 0)"/>
     <use xlink:href="#DejaVuSans-Oblique-32" transform="translate(122.802734 0)"/>
     <use xlink:href="#DejaVuSans-Oblique-20" transform="translate(186.425781 0)"/>
     <use xlink:href="#DejaVuSans-Oblique-28" transform="translate(218.212891 0)"/>
     <use xlink:href="#DejaVuSans-Oblique-42" transform="translate(257.226562 0)"/>
     <use xlink:href="#DejaVuSans-Oblique-45" transform="translate(325.830078 0)"/>
     <use xlink:href="#DejaVuSans-Oblique-52" transform="translate(389.013672 0)"/>
     <use xlink:href="#DejaVuSans-Oblique-54" transform="translate(458.496094 0)"/>
     <use xlink:href="#DejaVuSans-Oblique-2d" transform="translate(505.330078 0)"/>
     <use xlink:href="#DejaVuSans-Oblique-42" transform="translate(541.414062 0)"/>
     <use xlink:href="#DejaVuSans-Oblique-61" transform="translate(610.017578 0)"/>
     <use xlink:href="#DejaVuSans-Oblique-73" transform="translate(671.296875 0)"/>
     <use xlink:href="#DejaVuSans-Oblique-65" transform="translate(723.396484 0)"/>
     <use xlink:href="#DejaVuSans-Oblique-29" transform="translate(784.919922 0)"/>
    </g>
   </g>
   <g id="text_20">
    <!-- MLM Head -->
    <g style="fill: #eaeaea" transform="translate(106.283672 504.838234) scale(0.09 -0.09)">
     <use xlink:href="#DejaVuSans-Bold-4d"/>
     <use xlink:href="#DejaVuSans-Bold-4c" transform="translate(99.511719 0)"/>
     <use xlink:href="#DejaVuSans-Bold-4d" transform="translate(163.232422 0)"/>
     <use xlink:href="#DejaVuSans-Bold-20" transform="translate(262.744141 0)"/>
     <use xlink:href="#DejaVuSans-Bold-48" transform="translate(297.558594 0)"/>
     <use xlink:href="#DejaVuSans-Bold-65" transform="translate(381.25 0)"/>
     <use xlink:href="#DejaVuSans-Bold-61" transform="translate(449.072266 0)"/>
     <use xlink:href="#DejaVuSans-Bold-64" transform="translate(516.552734 0)"/>
    </g>
    <!-- (Predict [MASK]) -->
    <g style="fill: #eaeaea" transform="translate(90.116719 514.916266) scale(0.09 -0.09)">
     <use xlink:href="#DejaVuSans-Bold-28"/>
     <use xlink:href="#DejaVuSans-Bold-50" transform="translate(45.703125 0)"/>
     <use xlink:href="#DejaVuSans-Bold-72" transform="translate(118.994141 0)"/>
     <use xlink:href="#DejaVuSans-Bold-65" transform="translate(168.310547 0)"/>
     <use xlink:href="#DejaVuSans-Bold-64" transform="translate(236.132812 0)"/>
     <use xlink:href="#DejaVuSans-Bold-69" transform="translate(307.714844 0)"/>
     <use xlink:href="#DejaVuSans-Bold-63" transform="translate(341.992188 0)"/>
     <use xlink:href="#DejaVuSans-Bold-74" transform="translate(401.269531 0)"/>
     <use xlink:href="#DejaVuSans-Bold-20" transform="translate(449.072266 0)"/>
     <use xlink:href="#DejaVuSans-Bold-5b" transform="translate(483.886719 0)"/>
     <use xlink:href="#DejaVuSans-Bold-4d" transform="translate(529.589844 0)"/>
     <use xlink:href="#DejaVuSans-Bold-41" transform="translate(629.101562 0)"/>
     <use xlink:href="#DejaVuSans-Bold-53" transform="translate(706.494141 0)"/>
     <use xlink:href="#DejaVuSans-Bold-4b" transform="translate(778.515625 0)"/>
     <use xlink:href="#DejaVuSans-Bold-5d" transform="translate(856.005859 0)"/>
     <use xlink:href="#DejaVuSans-Bold-29" transform="translate(901.708984 0)"/>
    </g>
   </g>
   <g id="text_21">
    <!-- NSP Head -->
    <g style="fill: #eaeaea" transform="translate(414.702422 504.838234) scale(0.09 -0.09)">
     <use xlink:href="#DejaVuSans-Bold-4e"/>
     <use xlink:href="#DejaVuSans-Bold-53" transform="translate(83.691406 0)"/>
     <use xlink:href="#DejaVuSans-Bold-50" transform="translate(155.712891 0)"/>
     <use xlink:href="#DejaVuSans-Bold-20" transform="translate(229.003906 0)"/>
     <use xlink:href="#DejaVuSans-Bold-48" transform="translate(263.818359 0)"/>
     <use xlink:href="#DejaVuSans-Bold-65" transform="translate(347.509766 0)"/>
     <use xlink:href="#DejaVuSans-Bold-61" transform="translate(415.332031 0)"/>
     <use xlink:href="#DejaVuSans-Bold-64" transform="translate(482.8125 0)"/>
    </g>
    <!-- (Next Sentence?) -->
    <g style="fill: #eaeaea" transform="translate(395.865 514.916266) scale(0.09 -0.09)">
     <defs>
      <path id="DejaVuSans-Bold-78" d="M 1422 1791 
L 159 3500 
L 1344 3500 
L 2059 2463 
L 2784 3500 
L 3969 3500 
L 2706 1797 
L 4031 0 
L 2847 0 
L 2059 1106 
L 1281 0 
L 97 0 
L 1422 1791 
z
" transform="scale(0.015625)"/>
      <path id="DejaVuSans-Bold-3f" d="M 2216 1575 
L 1088 1575 
L 1088 1728 
Q 1088 1984 1191 2182 
Q 1294 2381 1625 2688 
L 1825 2869 
Q 2003 3031 2086 3175 
Q 2169 3319 2169 3463 
Q 2169 3681 2019 3804 
Q 1869 3928 1600 3928 
Q 1347 3928 1053 3823 
Q 759 3719 441 3513 
L 441 4494 
Q 819 4625 1131 4687 
Q 1444 4750 1734 4750 
Q 2497 4750 2897 4439 
Q 3297 4128 3297 3531 
Q 3297 3225 3175 2983 
Q 3053 2741 2759 2463 
L 2559 2284 
Q 2347 2091 2281 1973 
Q 2216 1856 2216 1716 
L 2216 1575 
z
M 1088 1113 
L 2216 1113 
L 2216 0 
L 1088 0 
L 1088 1113 
z
" transform="scale(0.015625)"/>
     </defs>
     <use xlink:href="#DejaVuSans-Bold-28"/>
     <use xlink:href="#DejaVuSans-Bold-4e" transform="translate(45.703125 0)"/>
     <use xlink:href="#DejaVuSans-Bold-65" transform="translate(129.394531 0)"/>
     <use xlink:href="#DejaVuSans-Bold-78" transform="translate(197.216797 0)"/>
     <use xlink:href="#DejaVuSans-Bold-74" transform="translate(261.71875 0)"/>
     <use xlink:href="#DejaVuSans-Bold-20" transform="translate(309.521484 0)"/>
     <use xlink:href="#DejaVuSans-Bold-53" transform="translate(344.335938 0)"/>
     <use xlink:href="#DejaVuSans-Bold-65" transform="translate(416.357422 0)"/>
     <use xlink:href="#DejaVuSans-Bold-6e" transform="translate(484.179688 0)"/>
     <use xlink:href="#DejaVuSans-Bold-74" transform="translate(555.371094 0)"/>
     <use xlink:href="#DejaVuSans-Bold-65" transform="translate(603.173828 0)"/>
     <use xlink:href="#DejaVuSans-Bold-6e" transform="translate(670.996094 0)"/>
     <use xlink:href="#DejaVuSans-Bold-63" transform="translate(742.1875 0)"/>
     <use xlink:href="#DejaVuSans-Bold-65" transform="translate(801.464844 0)"/>
     <use xlink:href="#DejaVuSans-Bold-3f" transform="translate(869.287109 0)"/>
     <use xlink:href="#DejaVuSans-Bold-29" transform="translate(927.294922 0)"/>
    </g>
   </g>
   <g id="patch_25">
    <path d="M 173.034201 486.745255 
Q 153.675213 471.357982 135.629081 457.014218 
" style="fill: none; stroke: #00d4aa; stroke-width: 1.5; stroke-linecap: round"/>
    <path d="M 137.515968 461.068802 
L 135.629081 457.014218 
L 140.004881 457.937459 
" style="fill: none; stroke: #00d4aa; stroke-width: 1.5; stroke-linecap: round"/>
   </g>
   <g id="patch_26">
    <path d="M 399.365799 486.745255 
Q 418.724787 471.357982 436.770919 457.014218 
" style="fill: none; stroke: #00d4aa; stroke-width: 1.5; stroke-linecap: round"/>
    <path d="M 432.395119 457.937459 
L 436.770919 457.014218 
L 434.884032 461.068802 
" style="fill: none; stroke: #00d4aa; stroke-width: 1.5; stroke-linecap: round"/>
   </g>
   <g id="text_22">
    <!-- BERT: Bidirectional Encoder (Devlin et al., 2018) -->
    <g style="fill: #00d4aa" transform="translate(95.786875 17.837813) scale(0.14 -0.14)">
     <defs>
      <path id="DejaVuSans-Bold-52" d="M 2297 2597 
Q 2675 2597 2839 2737 
Q 3003 2878 3003 3200 
Q 3003 3519 2839 3656 
Q 2675 3794 2297 3794 
L 1791 3794 
L 1791 2597 
L 2297 2597 
z
M 1791 1766 
L 1791 0 
L 588 0 
L 588 4666 
L 2425 4666 
Q 3347 4666 3776 4356 
Q 4206 4047 4206 3378 
Q 4206 2916 3982 2619 
Q 3759 2322 3309 2181 
Q 3556 2125 3751 1926 
Q 3947 1728 4147 1325 
L 4800 0 
L 3519 0 
L 2950 1159 
Q 2778 1509 2601 1637 
Q 2425 1766 2131 1766 
L 1791 1766 
z
" transform="scale(0.015625)"/>
      <path id="DejaVuSans-Bold-3a" d="M 716 3500 
L 1844 3500 
L 1844 2291 
L 716 2291 
L 716 3500 
z
M 716 1209 
L 1844 1209 
L 1844 0 
L 716 0 
L 716 1209 
z
" transform="scale(0.015625)"/>
      <path id="DejaVuSans-Bold-44" d="M 1791 3756 
L 1791 909 
L 2222 909 
Q 2959 909 3348 1275 
Q 3738 1641 3738 2338 
Q 3738 3031 3350 3393 
Q 2963 3756 2222 3756 
L 1791 3756 
z
M 588 4666 
L 1856 4666 
Q 2919 4666 3439 4514 
Q 3959 4363 4331 4000 
Q 4659 3684 4818 3271 
Q 4978 2859 4978 2338 
Q 4978 1809 4818 1395 
Q 4659 981 4331 666 
Q 3956 303 3431 151 
Q 2906 0 1856 0 
L 588 0 
L 588 4666 
z
" transform="scale(0.015625)"/>
      <path id="DejaVuSans-Bold-76" d="M 97 3500 
L 1216 3500 
L 2088 1081 
L 2956 3500 
L 4078 3500 
L 2700 0 
L 1472 0 
L 97 3500 
z
" transform="scale(0.015625)"/>
      <path id="DejaVuSans-Bold-2c" d="M 653 1209 
L 1778 1209 
L 1778 256 
L 1006 -909 
L 341 -909 
L 653 256 
L 653 1209 
z
" transform="scale(0.015625)"/>
      <path id="DejaVuSans-Bold-30" d="M 2944 2338 
Q 2944 3213 2780 3570 
Q 2616 3928 2228 3928 
Q 1841 3928 1675 3570 
Q 1509 3213 1509 2338 
Q 1509 1453 1675 1090 
Q 1841 728 2228 728 
Q 2613 728 2778 1090 
Q 2944 1453 2944 2338 
z
M 4147 2328 
Q 4147 1169 3647 539 
Q 3147 -91 2228 -91 
Q 1306 -91 806 539 
Q 306 1169 306 2328 
Q 306 3491 806 4120 
Q 1306 4750 2228 4750 
Q 3147 4750 3647 4120 
Q 4147 3491 4147 2328 
z
" transform="scale(0.015625)"/>
      <path id="DejaVuSans-Bold-38" d="M 2228 2088 
Q 1891 2088 1709 1903 
Q 1528 1719 1528 1375 
Q 1528 1031 1709 848 
Q 1891 666 2228 666 
Q 2563 666 2741 848 
Q 2919 1031 2919 1375 
Q 2919 1722 2741 1905 
Q 2563 2088 2228 2088 
z
M 1350 2484 
Q 925 2613 709 2878 
Q 494 3144 494 3541 
Q 494 4131 934 4440 
Q 1375 4750 2228 4750 
Q 3075 4750 3515 4442 
Q 3956 4134 3956 3541 
Q 3956 3144 3739 2878 
Q 3522 2613 3097 2484 
Q 3572 2353 3814 2058 
Q 4056 1763 4056 1313 
Q 4056 619 3595 264 
Q 3134 -91 2228 -91 
Q 1319 -91 855 264 
Q 391 619 391 1313 
Q 391 1763 633 2058 
Q 875 2353 1350 2484 
z
M 1631 3419 
Q 1631 3141 1786 2991 
Q 1941 2841 2228 2841 
Q 2509 2841 2662 2991 
Q 2816 3141 2816 3419 
Q 2816 3697 2662 3845 
Q 2509 3994 2228 3994 
Q 1941 3994 1786 3844 
Q 1631 3694 1631 3419 
z
" transform="scale(0.015625)"/>
     </defs>
     <use xlink:href="#DejaVuSans-Bold-42"/>
     <use xlink:href="#DejaVuSans-Bold-45" transform="translate(76.220703 0)"/>
     <use xlink:href="#DejaVuSans-Bold-52" transform="translate(144.53125 0)"/>
     <use xlink:href="#DejaVuSans-Bold-54" transform="translate(217.033203 0)"/>
     <use xlink:href="#DejaVuSans-Bold-3a" transform="translate(279.746094 0)"/>
     <use xlink:href="#DejaVuSans-Bold-20" transform="translate(319.736328 0)"/>
     <use xlink:href="#DejaVuSans-Bold-42" transform="translate(354.550781 0)"/>
     <use xlink:href="#DejaVuSans-Bold-69" transform="translate(430.771484 0)"/>
     <use xlink:href="#DejaVuSans-Bold-64" transform="translate(465.048828 0)"/>
     <use xlink:href="#DejaVuSans-Bold-69" transform="translate(536.630859 0)"/>
     <use xlink:href="#DejaVuSans-Bold-72" transform="translate(570.908203 0)"/>
     <use xlink:href="#DejaVuSans-Bold-65" transform="translate(620.224609 0)"/>
     <use xlink:href="#DejaVuSans-Bold-63" transform="translate(688.046875 0)"/>
     <use xlink:href="#DejaVuSans-Bold-74" transform="translate(747.324219 0)"/>
     <use xlink:href="#DejaVuSans-Bold-69" transform="translate(795.126953 0)"/>
     <use xlink:href="#DejaVuSans-Bold-6f" transform="translate(829.404297 0)"/>
     <use xlink:href="#DejaVuSans-Bold-6e" transform="translate(898.105469 0)"/>
     <use xlink:href="#DejaVuSans-Bold-61" transform="translate(969.296875 0)"/>
     <use xlink:href="#DejaVuSans-Bold-6c" transform="translate(1036.777344 0)"/>
     <use xlink:href="#DejaVuSans-Bold-20" transform="translate(1071.054688 0)"/>
     <use xlink:href="#DejaVuSans-Bold-45" transform="translate(1105.869141 0)"/>
     <use xlink:href="#DejaVuSans-Bold-6e" transform="translate(1174.179688 0)"/>
     <use xlink:href="#DejaVuSans-Bold-63" transform="translate(1245.371094 0)"/>
     <use xlink:href="#DejaVuSans-Bold-6f" transform="translate(1304.648438 0)"/>
     <use xlink:href="#DejaVuSans-Bold-64" transform="translate(1373.349609 0)"/>
     <use xlink:href="#DejaVuSans-Bold-65" transform="translate(1444.931641 0)"/>
     <use xlink:href="#DejaVuSans-Bold-72" transform="translate(1512.753906 0)"/>
     <use xlink:href="#DejaVuSans-Bold-20" transform="translate(1562.070312 0)"/>
     <use xlink:href="#DejaVuSans-Bold-28" transform="translate(1596.884766 0)"/>
     <use xlink:href="#DejaVuSans-Bold-44" transform="translate(1642.587891 0)"/>
     <use xlink:href="#DejaVuSans-Bold-65" transform="translate(1725.595703 0)"/>
     <use xlink:href="#DejaVuSans-Bold-76" transform="translate(1793.417969 0)"/>
     <use xlink:href="#DejaVuSans-Bold-6c" transform="translate(1858.603516 0)"/>
     <use xlink:href="#DejaVuSans-Bold-69" transform="translate(1892.880859 0)"/>
     <use xlink:href="#DejaVuSans-Bold-6e" transform="translate(1927.158203 0)"/>
     <use xlink:href="#DejaVuSans-Bold-20" transform="translate(1998.349609 0)"/>
     <use xlink:href="#DejaVuSans-Bold-65" transform="translate(2033.164062 0)"/>
     <use xlink:href="#DejaVuSans-Bold-74" transform="translate(2100.986328 0)"/>
     <use xlink:href="#DejaVuSans-Bold-20" transform="translate(2148.789062 0)"/>
     <use xlink:href="#DejaVuSans-Bold-61" transform="translate(2183.603516 0)"/>
     <use xlink:href="#DejaVuSans-Bold-6c" transform="translate(2251.083984 0)"/>
     <use xlink:href="#DejaVuSans-Bold-2e" transform="translate(2285.361328 0)"/>
     <use xlink:href="#DejaVuSans-Bold-2c" transform="translate(2323.349609 0)"/>
     <use xlink:href="#DejaVuSans-Bold-20" transform="translate(2361.337891 0)"/>
     <use xlink:href="#DejaVuSans-Bold-32" transform="translate(2396.152344 0)"/>
     <use xlink:href="#DejaVuSans-Bold-30" transform="translate(2465.732422 0)"/>
     <use xlink:href="#DejaVuSans-Bold-31" transform="translate(2535.3125 0)"/>
     <use xlink:href="#DejaVuSans-Bold-38" transform="translate(2604.892578 0)"/>
     <use xlink:href="#DejaVuSans-Bold-29" transform="translate(2674.472656 0)"/>
    </g>
   </g>
  </g>
 </g>
 <defs>
  <clipPath id="pd4606adc63">
   <rect x="7.2" y="27.837813" width="558" height="554.4"/>
  </clipPath>
 </defs>
</svg>
