<?xml version="1.0" encoding="utf-8" standalone="no"?>
<!DOCTYPE svg PUBLIC "-//W3C//DTD SVG 1.1//EN"
  "http://www.w3.org/Graphics/SVG/1.1/DTD/svg11.dtd">
<svg xmlns:xlink="http://www.w3.org/1999/xlink" width="902.635312pt" height="312.237813pt" viewBox="0 0 902.635312 312.237813" xmlns="http://www.w3.org/2000/svg" version="1.1">
 <metadata>
  <rdf:RDF xmlns:dc="http://purl.org/dc/elements/1.1/" xmlns:cc="http://creativecommons.org/ns#" xmlns:rdf="http://www.w3.org/1999/02/22-rdf-syntax-ns#">
   <cc:Work>
    <dc:type rdf:resource="http://purl.org/dc/dcmitype/StillImage"/>
    <dc:date>2026-05-26T08:38:47.242145</dc:date>
    <dc:format>image/svg+xml</dc:format>
    <dc:creator>
     <cc:Agent>
      <dc:title>Matplotlib v3.10.9, https://matplotlib.org/</dc:title>
     </cc:Agent>
    </dc:creator>
   </cc:Work>
  </rdf:RDF>
 </metadata>
 <defs>
  <style type="text/css">*{stroke-linejoin: round; stroke-linecap: butt}</style>
 </defs>
 <g id="figure_1">
  <g id="patch_1">
   <path d="M 0 312.237813 
L 902.635312 312.237813 
L 902.635312 0 
L 0 0 
z
" style="fill: #1a1a2e"/>
  </g>
  <g id="axes_1">
   <g id="patch_2">
    <path d="M 49.3848 250.152213 
L 98.9352 250.152213 
Q 108.9792 250.152213 108.9792 245.994213 
L 108.9792 211.621413 
Q 108.9792 207.463413 98.9352 207.463413 
L 49.3848 207.463413 
Q 39.3408 207.463413 39.3408 211.621413 
L 39.3408 245.994213 
Q 39.3408 250.152213 49.3848 250.152213 
z
" clip-path="url(#pd894c030b9)" style="fill: #1565c0; stroke: #555555; stroke-width: 1.5; stroke-linejoin: miter"/>
   </g>
   <g id="patch_3">
    <path d="M 149.8248 250.152213 
L 212.7672 250.152213 
Q 222.8112 250.152213 222.8112 245.994213 
L 222.8112 211.621413 
Q 222.8112 207.463413 212.7672 207.463413 
L 149.8248 207.463413 
Q 139.7808 207.463413 139.7808 211.621413 
L 139.7808 245.994213 
Q 139.7808 250.152213 149.8248 250.152213 
z
" clip-path="url(#pd894c030b9)" style="fill: #c62828; stroke: #555555; stroke-width: 1.5; stroke-linejoin: miter"/>
   </g>
   <g id="patch_4">
    <path d="M 263.6568 250.152213 
L 299.8152 250.152213 
Q 309.8592 250.152213 309.8592 245.994213 
L 309.8592 211.621413 
Q 309.8592 207.463413 299.8152 207.463413 
L 263.6568 207.463413 
Q 253.6128 207.463413 253.6128 211.621413 
L 253.6128 245.994213 
Q 253.6128 250.152213 263.6568 250.152213 
z
" clip-path="url(#pd894c030b9)" style="fill: #455a64; stroke: #555555; stroke-width: 1.5; stroke-linejoin: miter"/>
   </g>
   <g id="patch_5">
    <path d="M 350.7048 250.152213 
L 413.6472 250.152213 
Q 423.6912 250.152213 423.6912 245.994213 
L 423.6912 211.621413 
Q 423.6912 207.463413 413.6472 207.463413 
L 350.7048 207.463413 
Q 340.6608 207.463413 340.6608 211.621413 
L 340.6608 245.994213 
Q 340.6608 250.152213 350.7048 250.152213 
z
" clip-path="url(#pd894c030b9)" style="fill: #c62828; stroke: #555555; stroke-width: 1.5; stroke-linejoin: miter"/>
   </g>
   <g id="patch_6">
    <path d="M 464.5368 250.152213 
L 500.6952 250.152213 
Q 510.7392 250.152213 510.7392 245.994213 
L 510.7392 211.621413 
Q 510.7392 207.463413 500.6952 207.463413 
L 464.5368 207.463413 
Q 454.4928 207.463413 454.4928 211.621413 
L 454.4928 245.994213 
Q 454.4928 250.152213 464.5368 250.152213 
z
" clip-path="url(#pd894c030b9)" style="fill: #455a64; stroke: #555555; stroke-width: 1.5; stroke-linejoin: miter"/>
   </g>
   <g id="patch_7">
    <path d="M 551.5848 250.152213 
L 614.5272 250.152213 
Q 624.5712 250.152213 624.5712 245.994213 
L 624.5712 211.621413 
Q 624.5712 207.463413 614.5272 207.463413 
L 551.5848 207.463413 
Q 541.5408 207.463413 541.5408 211.621413 
L 541.5408 245.994213 
Q 541.5408 250.152213 551.5848 250.152213 
z
" clip-path="url(#pd894c030b9)" style="fill: #c62828; stroke: #555555; stroke-width: 1.5; stroke-linejoin: miter"/>
   </g>
   <g id="patch_8">
    <path d="M 665.4168 250.152213 
L 701.5752 250.152213 
Q 711.6192 250.152213 711.6192 245.994213 
L 711.6192 211.621413 
Q 711.6192 207.463413 701.5752 207.463413 
L 665.4168 207.463413 
Q 655.3728 207.463413 655.3728 211.621413 
L 655.3728 245.994213 
Q 655.3728 250.152213 665.4168 250.152213 
z
" clip-path="url(#pd894c030b9)" style="fill: #6a1b9a; stroke: #555555; stroke-width: 1.5; stroke-linejoin: miter"/>
   </g>
   <g id="patch_9">
    <path d="M 752.4648 250.152213 
L 802.0152 250.152213 
Q 812.0592 250.152213 812.0592 245.994213 
L 812.0592 211.621413 
Q 812.0592 207.463413 802.0152 207.463413 
L 752.4648 207.463413 
Q 742.4208 207.463413 742.4208 211.621413 
L 742.4208 245.994213 
Q 742.4208 250.152213 752.4648 250.152213 
z
" clip-path="url(#pd894c030b9)" style="fill: #ef6c00; stroke: #555555; stroke-width: 1.5; stroke-linejoin: miter"/>
   </g>
   <g id="patch_10">
    <path d="M 852.9048 250.152213 
L 902.4552 250.152213 
Q 912.4992 250.152213 912.4992 245.994213 
L 912.4992 211.621413 
Q 912.4992 207.463413 902.4552 207.463413 
L 852.9048 207.463413 
Q 842.8608 207.463413 842.8608 211.621413 
L 842.8608 245.994213 
Q 842.8608 250.152213 852.9048 250.152213 
z
" clip-path="url(#pd894c030b9)" style="fill: #2e7d32; stroke: #555555; stroke-width: 1.5; stroke-linejoin: miter"/>
   </g>
   <g id="text_1">
    <!-- Input -->
    <g style="fill: #eaeaea" transform="translate(60.707109 226.217078) scale(0.09 -0.09)">
     <defs>
      <path id="DejaVuSans-Bold-49" d="M 588 4666 
L 1791 4666 
L 1791 0 
L 588 0 
L 588 4666 
z
" transform="scale(0.015625)"/>
      <path id="DejaVuSans-Bold-6e" d="M 4056 2131 
L 4056 0 
L 2931 0 
L 2931 347 
L 2931 1631 
Q 2931 2084 2911 2256 
Q 2891 2428 2841 2509 
Q 2775 2619 2662 2680 
Q 2550 2741 2406 2741 
Q 2056 2741 1856 2470 
Q 1656 2200 1656 1722 
L 1656 0 
L 538 0 
L 538 3500 
L 1656 3500 
L 1656 2988 
Q 1909 3294 2193 3439 
Q 2478 3584 2822 3584 
Q 3428 3584 3742 3212 
Q 4056 2841 4056 2131 
z
" transform="scale(0.015625)"/>
      <path id="DejaVuSans-Bold-70" d="M 1656 506 
L 1656 -1331 
L 538 -1331 
L 538 3500 
L 1656 3500 
L 1656 2988 
Q 1888 3294 2169 3439 
Q 2450 3584 2816 3584 
Q 3463 3584 3878 3070 
Q 4294 2556 4294 1747 
Q 4294 938 3878 423 
Q 3463 -91 2816 -91 
Q 2450 -91 2169 54 
Q 1888 200 1656 506 
z
M 2400 2772 
Q 2041 2772 1848 2508 
Q 1656 2244 1656 1747 
Q 1656 1250 1848 986 
Q 2041 722 2400 722 
Q 2759 722 2948 984 
Q 3138 1247 3138 1747 
Q 3138 2247 2948 2509 
Q 2759 2772 2400 2772 
z
" transform="scale(0.015625)"/>
      <path id="DejaVuSans-Bold-75" d="M 500 1363 
L 500 3500 
L 1625 3500 
L 1625 3150 
Q 1625 2866 1622 2436 
Q 1619 2006 1619 1863 
Q 1619 1441 1641 1255 
Q 1663 1069 1716 984 
Q 1784 875 1895 815 
Q 2006 756 2150 756 
Q 2500 756 2700 1025 
Q 2900 1294 2900 1772 
L 2900 3500 
L 4019 3500 
L 4019 0 
L 2900 0 
L 2900 506 
Q 2647 200 2364 54 
Q 2081 -91 1741 -91 
Q 1134 -91 817 281 
Q 500 653 500 1363 
z
" transform="scale(0.015625)"/>
      <path id="DejaVuSans-Bold-74" d="M 1759 4494 
L 1759 3500 
L 2913 3500 
L 2913 2700 
L 1759 2700 
L 1759 1216 
Q 1759 972 1856 886 
Q 1953 800 2241 800 
L 2816 800 
L 2816 0 
L 1856 0 
Q 1194 0 917 276 
Q 641 553 641 1216 
L 641 2700 
L 84 2700 
L 84 3500 
L 641 3500 
L 641 4494 
L 1759 4494 
z
" transform="scale(0.015625)"/>
     </defs>
     <use xlink:href="#DejaVuSans-Bold-49"/>
     <use xlink:href="#DejaVuSans-Bold-6e" transform="translate(37.207031 0)"/>
     <use xlink:href="#DejaVuSans-Bold-70" transform="translate(108.398438 0)"/>
     <use xlink:href="#DejaVuSans-Bold-75" transform="translate(179.980469 0)"/>
     <use xlink:href="#DejaVuSans-Bold-74" transform="translate(251.171875 0)"/>
    </g>
    <!-- Image -->
    <g style="fill: #eaeaea" transform="translate(58.486641 236.295109) scale(0.09 -0.09)">
     <defs>
      <path id="DejaVuSans-Bold-6d" d="M 3781 2919 
Q 3994 3244 4286 3414 
Q 4578 3584 4928 3584 
Q 5531 3584 5847 3212 
Q 6163 2841 6163 2131 
L 6163 0 
L 5038 0 
L 5038 1825 
Q 5041 1866 5042 1909 
Q 5044 1953 5044 2034 
Q 5044 2406 4934 2573 
Q 4825 2741 4581 2741 
Q 4263 2741 4089 2478 
Q 3916 2216 3909 1719 
L 3909 0 
L 2784 0 
L 2784 1825 
Q 2784 2406 2684 2573 
Q 2584 2741 2328 2741 
Q 2006 2741 1831 2477 
Q 1656 2213 1656 1722 
L 1656 0 
L 531 0 
L 531 3500 
L 1656 3500 
L 1656 2988 
Q 1863 3284 2130 3434 
Q 2397 3584 2719 3584 
Q 3081 3584 3359 3409 
Q 3638 3234 3781 2919 
z
" transform="scale(0.015625)"/>
      <path id="DejaVuSans-Bold-61" d="M 2106 1575 
Q 1756 1575 1579 1456 
Q 1403 1338 1403 1106 
Q 1403 894 1545 773 
Q 1688 653 1941 653 
Q 2256 653 2472 879 
Q 2688 1106 2688 1447 
L 2688 1575 
L 2106 1575 
z
M 3816 1997 
L 3816 0 
L 2688 0 
L 2688 519 
Q 2463 200 2181 54 
Q 1900 -91 1497 -91 
Q 953 -91 614 226 
Q 275 544 275 1050 
Q 275 1666 698 1953 
Q 1122 2241 2028 2241 
L 2688 2241 
L 2688 2328 
Q 2688 2594 2478 2717 
Q 2269 2841 1825 2841 
Q 1466 2841 1156 2769 
Q 847 2697 581 2553 
L 581 3406 
Q 941 3494 1303 3539 
Q 1666 3584 2028 3584 
Q 2975 3584 3395 3211 
Q 3816 2838 3816 1997 
z
" transform="scale(0.015625)"/>
      <path id="DejaVuSans-Bold-67" d="M 2919 594 
Q 2688 288 2409 144 
Q 2131 0 1766 0 
Q 1125 0 706 504 
Q 288 1009 288 1791 
Q 288 2575 706 3076 
Q 1125 3578 1766 3578 
Q 2131 3578 2409 3434 
Q 2688 3291 2919 2981 
L 2919 3500 
L 4044 3500 
L 4044 353 
Q 4044 -491 3511 -936 
Q 2978 -1381 1966 -1381 
Q 1638 -1381 1331 -1331 
Q 1025 -1281 716 -1178 
L 716 -306 
Q 1009 -475 1290 -558 
Q 1572 -641 1856 -641 
Q 2406 -641 2662 -400 
Q 2919 -159 2919 353 
L 2919 594 
z
M 2181 2772 
Q 1834 2772 1640 2515 
Q 1447 2259 1447 1791 
Q 1447 1309 1634 1061 
Q 1822 813 2181 813 
Q 2531 813 2725 1069 
Q 2919 1325 2919 1791 
Q 2919 2259 2725 2515 
Q 2531 2772 2181 2772 
z
" transform="scale(0.015625)"/>
      <path id="DejaVuSans-Bold-65" d="M 4031 1759 
L 4031 1441 
L 1416 1441 
Q 1456 1047 1700 850 
Q 1944 653 2381 653 
Q 2734 653 3104 758 
Q 3475 863 3866 1075 
L 3866 213 
Q 3469 63 3072 -14 
Q 2675 -91 2278 -91 
Q 1328 -91 801 392 
Q 275 875 275 1747 
Q 275 2603 792 3093 
Q 1309 3584 2216 3584 
Q 3041 3584 3536 3087 
Q 4031 2591 4031 1759 
z
M 2881 2131 
Q 2881 2450 2695 2645 
Q 2509 2841 2209 2841 
Q 1884 2841 1681 2658 
Q 1478 2475 1428 2131 
L 2881 2131 
z
" transform="scale(0.015625)"/>
     </defs>
     <use xlink:href="#DejaVuSans-Bold-49"/>
     <use xlink:href="#DejaVuSans-Bold-6d" transform="translate(37.207031 0)"/>
     <use xlink:href="#DejaVuSans-Bold-61" transform="translate(141.40625 0)"/>
     <use xlink:href="#DejaVuSans-Bold-67" transform="translate(208.886719 0)"/>
     <use xlink:href="#DejaVuSans-Bold-65" transform="translate(280.46875 0)"/>
    </g>
   </g>
   <g id="patch_11">
    <path d="M 109.638501 228.807813 
Q 124.37816 228.807813 137.440769 228.807813 
" style="fill: none; stroke: #00d4aa; stroke-width: 1.5; stroke-linecap: round"/>
    <path d="M 133.440769 226.807813 
L 137.440769 228.807813 
L 133.440769 230.807813 
" style="fill: none; stroke: #00d4aa; stroke-width: 1.5; stroke-linecap: round"/>
   </g>
   <g id="text_2">
    <!-- Conv -->
    <g style="fill: #eaeaea" transform="translate(168.764906 226.252234) scale(0.09 -0.09)">
     <defs>
      <path id="DejaVuSans-Bold-43" d="M 4288 256 
Q 3956 84 3597 -3 
Q 3238 -91 2847 -91 
Q 1681 -91 1000 561 
Q 319 1213 319 2328 
Q 319 3447 1000 4098 
Q 1681 4750 2847 4750 
Q 3238 4750 3597 4662 
Q 3956 4575 4288 4403 
L 4288 3438 
Q 3953 3666 3628 3772 
Q 3303 3878 2944 3878 
Q 2300 3878 1931 3465 
Q 1563 3053 1563 2328 
Q 1563 1606 1931 1193 
Q 2300 781 2944 781 
Q 3303 781 3628 887 
Q 3953 994 4288 1222 
L 4288 256 
z
" transform="scale(0.015625)"/>
      <path id="DejaVuSans-Bold-6f" d="M 2203 2784 
Q 1831 2784 1636 2517 
Q 1441 2250 1441 1747 
Q 1441 1244 1636 976 
Q 1831 709 2203 709 
Q 2569 709 2762 976 
Q 2956 1244 2956 1747 
Q 2956 2250 2762 2517 
Q 2569 2784 2203 2784 
z
M 2203 3584 
Q 3106 3584 3614 3096 
Q 4122 2609 4122 1747 
Q 4122 884 3614 396 
Q 3106 -91 2203 -91 
Q 1297 -91 786 396 
Q 275 884 275 1747 
Q 275 2609 786 3096 
Q 1297 3584 2203 3584 
z
" transform="scale(0.015625)"/>
      <path id="DejaVuSans-Bold-76" d="M 97 3500 
L 1216 3500 
L 2088 1081 
L 2956 3500 
L 4078 3500 
L 2700 0 
L 1472 0 
L 97 3500 
z
" transform="scale(0.015625)"/>
     </defs>
     <use xlink:href="#DejaVuSans-Bold-43"/>
     <use xlink:href="#DejaVuSans-Bold-6f" transform="translate(73.388672 0)"/>
     <use xlink:href="#DejaVuSans-Bold-6e" transform="translate(142.089844 0)"/>
     <use xlink:href="#DejaVuSans-Bold-76" transform="translate(213.28125 0)"/>
    </g>
    <!-- + ReLU -->
    <g style="fill: #eaeaea" transform="translate(163.082953 236.330266) scale(0.09 -0.09)">
     <defs>
      <path id="DejaVuSans-Bold-2b" d="M 3053 4013 
L 3053 2375 
L 4684 2375 
L 4684 1638 
L 3053 1638 
L 3053 0 
L 2309 0 
L 2309 1638 
L 678 1638 
L 678 2375 
L 2309 2375 
L 2309 4013 
L 3053 4013 
z
" transform="scale(0.015625)"/>
      <path id="DejaVuSans-Bold-20" transform="scale(0.015625)"/>
      <path id="DejaVuSans-Bold-52" d="M 2297 2597 
Q 2675 2597 2839 2737 
Q 3003 2878 3003 3200 
Q 3003 3519 2839 3656 
Q 2675 3794 2297 3794 
L 1791 3794 
L 1791 2597 
L 2297 2597 
z
M 1791 1766 
L 1791 0 
L 588 0 
L 588 4666 
L 2425 4666 
Q 3347 4666 3776 4356 
Q 4206 4047 4206 3378 
Q 4206 2916 3982 2619 
Q 3759 2322 3309 2181 
Q 3556 2125 3751 1926 
Q 3947 1728 4147 1325 
L 4800 0 
L 3519 0 
L 2950 1159 
Q 2778 1509 2601 1637 
Q 2425 1766 2131 1766 
L 1791 1766 
z
" transform="scale(0.015625)"/>
      <path id="DejaVuSans-Bold-4c" d="M 588 4666 
L 1791 4666 
L 1791 909 
L 3903 909 
L 3903 0 
L 588 0 
L 588 4666 
z
" transform="scale(0.015625)"/>
      <path id="DejaVuSans-Bold-55" d="M 588 4666 
L 1791 4666 
L 1791 1869 
Q 1791 1291 1980 1042 
Q 2169 794 2597 794 
Q 3028 794 3217 1042 
Q 3406 1291 3406 1869 
L 3406 4666 
L 4609 4666 
L 4609 1869 
Q 4609 878 4112 393 
Q 3616 -91 2597 -91 
Q 1581 -91 1084 393 
Q 588 878 588 1869 
L 588 4666 
z
" transform="scale(0.015625)"/>
     </defs>
     <use xlink:href="#DejaVuSans-Bold-2b"/>
     <use xlink:href="#DejaVuSans-Bold-20" transform="translate(83.789062 0)"/>
     <use xlink:href="#DejaVuSans-Bold-52" transform="translate(118.603516 0)"/>
     <use xlink:href="#DejaVuSans-Bold-65" transform="translate(195.605469 0)"/>
     <use xlink:href="#DejaVuSans-Bold-4c" transform="translate(263.427734 0)"/>
     <use xlink:href="#DejaVuSans-Bold-55" transform="translate(323.523438 0)"/>
    </g>
   </g>
   <g id="patch_12">
    <path d="M 223.470501 228.807813 
Q 238.21016 228.807813 251.272769 228.807813 
" style="fill: none; stroke: #00d4aa; stroke-width: 1.5; stroke-linecap: round"/>
    <path d="M 247.272769 226.807813 
L 251.272769 228.807813 
L 247.272769 230.807813 
" style="fill: none; stroke: #00d4aa; stroke-width: 1.5; stroke-linecap: round"/>
   </g>
   <g id="text_3">
    <!-- Pool -->
    <g style="fill: #eaeaea" transform="translate(270.711703 231.29125) scale(0.09 -0.09)">
     <defs>
      <path id="DejaVuSans-Bold-50" d="M 588 4666 
L 2584 4666 
Q 3475 4666 3951 4270 
Q 4428 3875 4428 3144 
Q 4428 2409 3951 2014 
Q 3475 1619 2584 1619 
L 1791 1619 
L 1791 0 
L 588 0 
L 588 4666 
z
M 1791 3794 
L 1791 2491 
L 2456 2491 
Q 2806 2491 2997 2661 
Q 3188 2831 3188 3144 
Q 3188 3456 2997 3625 
Q 2806 3794 2456 3794 
L 1791 3794 
z
" transform="scale(0.015625)"/>
      <path id="DejaVuSans-Bold-6c" d="M 538 4863 
L 1656 4863 
L 1656 0 
L 538 0 
L 538 4863 
z
" transform="scale(0.015625)"/>
     </defs>
     <use xlink:href="#DejaVuSans-Bold-50"/>
     <use xlink:href="#DejaVuSans-Bold-6f" transform="translate(73.291016 0)"/>
     <use xlink:href="#DejaVuSans-Bold-6f" transform="translate(141.992188 0)"/>
     <use xlink:href="#DejaVuSans-Bold-6c" transform="translate(210.693359 0)"/>
    </g>
   </g>
   <g id="patch_13">
    <path d="M 310.518501 228.807813 
Q 325.25816 228.807813 338.320769 228.807813 
" style="fill: none; stroke: #00d4aa; stroke-width: 1.5; stroke-linecap: round"/>
    <path d="M 334.320769 226.807813 
L 338.320769 228.807813 
L 334.320769 230.807813 
" style="fill: none; stroke: #00d4aa; stroke-width: 1.5; stroke-linecap: round"/>
   </g>
   <g id="text_4">
    <!-- Conv -->
    <g style="fill: #eaeaea" transform="translate(369.644906 226.252234) scale(0.09 -0.09)">
     <use xlink:href="#DejaVuSans-Bold-43"/>
     <use xlink:href="#DejaVuSans-Bold-6f" transform="translate(73.388672 0)"/>
     <use xlink:href="#DejaVuSans-Bold-6e" transform="translate(142.089844 0)"/>
     <use xlink:href="#DejaVuSans-Bold-76" transform="translate(213.28125 0)"/>
    </g>
    <!-- + ReLU -->
    <g style="fill: #eaeaea" transform="translate(363.962953 236.330266) scale(0.09 -0.09)">
     <use xlink:href="#DejaVuSans-Bold-2b"/>
     <use xlink:href="#DejaVuSans-Bold-20" transform="translate(83.789062 0)"/>
     <use xlink:href="#DejaVuSans-Bold-52" transform="translate(118.603516 0)"/>
     <use xlink:href="#DejaVuSans-Bold-65" transform="translate(195.605469 0)"/>
     <use xlink:href="#DejaVuSans-Bold-4c" transform="translate(263.427734 0)"/>
     <use xlink:href="#DejaVuSans-Bold-55" transform="translate(323.523438 0)"/>
    </g>
   </g>
   <g id="patch_14">
    <path d="M 424.350501 228.807813 
Q 439.09016 228.807813 452.152769 228.807813 
" style="fill: none; stroke: #00d4aa; stroke-width: 1.5; stroke-linecap: round"/>
    <path d="M 448.152769 226.807813 
L 452.152769 228.807813 
L 448.152769 230.807813 
" style="fill: none; stroke: #00d4aa; stroke-width: 1.5; stroke-linecap: round"/>
   </g>
   <g id="text_5">
    <!-- Pool -->
    <g style="fill: #eaeaea" transform="translate(471.591703 231.29125) scale(0.09 -0.09)">
     <use xlink:href="#DejaVuSans-Bold-50"/>
     <use xlink:href="#DejaVuSans-Bold-6f" transform="translate(73.291016 0)"/>
     <use xlink:href="#DejaVuSans-Bold-6f" transform="translate(141.992188 0)"/>
     <use xlink:href="#DejaVuSans-Bold-6c" transform="translate(210.693359 0)"/>
    </g>
   </g>
   <g id="patch_15">
    <path d="M 511.398501 228.807813 
Q 526.13816 228.807813 539.200769 228.807813 
" style="fill: none; stroke: #00d4aa; stroke-width: 1.5; stroke-linecap: round"/>
    <path d="M 535.200769 226.807813 
L 539.200769 228.807813 
L 535.200769 230.807813 
" style="fill: none; stroke: #00d4aa; stroke-width: 1.5; stroke-linecap: round"/>
   </g>
   <g id="text_6">
    <!-- Conv -->
    <g style="fill: #eaeaea" transform="translate(570.524906 226.252234) scale(0.09 -0.09)">
     <use xlink:href="#DejaVuSans-Bold-43"/>
     <use xlink:href="#DejaVuSans-Bold-6f" transform="translate(73.388672 0)"/>
     <use xlink:href="#DejaVuSans-Bold-6e" transform="translate(142.089844 0)"/>
     <use xlink:href="#DejaVuSans-Bold-76" transform="translate(213.28125 0)"/>
    </g>
    <!-- + ReLU -->
    <g style="fill: #eaeaea" transform="translate(564.842953 236.330266) scale(0.09 -0.09)">
     <use xlink:href="#DejaVuSans-Bold-2b"/>
     <use xlink:href="#DejaVuSans-Bold-20" transform="translate(83.789062 0)"/>
     <use xlink:href="#DejaVuSans-Bold-52" transform="translate(118.603516 0)"/>
     <use xlink:href="#DejaVuSans-Bold-65" transform="translate(195.605469 0)"/>
     <use xlink:href="#DejaVuSans-Bold-4c" transform="translate(263.427734 0)"/>
     <use xlink:href="#DejaVuSans-Bold-55" transform="translate(323.523438 0)"/>
    </g>
   </g>
   <g id="patch_16">
    <path d="M 625.230501 228.807813 
Q 639.97016 228.807813 653.032769 228.807813 
" style="fill: none; stroke: #00d4aa; stroke-width: 1.5; stroke-linecap: round"/>
    <path d="M 649.032769 226.807813 
L 653.032769 228.807813 
L 649.032769 230.807813 
" style="fill: none; stroke: #00d4aa; stroke-width: 1.5; stroke-linecap: round"/>
   </g>
   <g id="text_7">
    <!-- Flatten -->
    <g style="fill: #eaeaea" transform="translate(665.285063 231.29125) scale(0.09 -0.09)">
     <defs>
      <path id="DejaVuSans-Bold-46" d="M 588 4666 
L 3834 4666 
L 3834 3756 
L 1791 3756 
L 1791 2888 
L 3713 2888 
L 3713 1978 
L 1791 1978 
L 1791 0 
L 588 0 
L 588 4666 
z
" transform="scale(0.015625)"/>
     </defs>
     <use xlink:href="#DejaVuSans-Bold-46"/>
     <use xlink:href="#DejaVuSans-Bold-6c" transform="translate(68.310547 0)"/>
     <use xlink:href="#DejaVuSans-Bold-61" transform="translate(102.587891 0)"/>
     <use xlink:href="#DejaVuSans-Bold-74" transform="translate(170.068359 0)"/>
     <use xlink:href="#DejaVuSans-Bold-74" transform="translate(217.871094 0)"/>
     <use xlink:href="#DejaVuSans-Bold-65" transform="translate(265.673828 0)"/>
     <use xlink:href="#DejaVuSans-Bold-6e" transform="translate(333.496094 0)"/>
    </g>
   </g>
   <g id="text_8">
    <!-- FC -->
    <g style="fill: #eaeaea" transform="translate(770.863359 231.29125) scale(0.09 -0.09)">
     <use xlink:href="#DejaVuSans-Bold-46"/>
     <use xlink:href="#DejaVuSans-Bold-43" transform="translate(68.310547 0)"/>
    </g>
   </g>
   <g id="text_9">
    <!-- Output -->
    <g style="fill: #eaeaea" transform="translate(859.924688 231.29125) scale(0.09 -0.09)">
     <defs>
      <path id="DejaVuSans-Bold-4f" d="M 2719 3878 
Q 2169 3878 1866 3472 
Q 1563 3066 1563 2328 
Q 1563 1594 1866 1187 
Q 2169 781 2719 781 
Q 3272 781 3575 1187 
Q 3878 1594 3878 2328 
Q 3878 3066 3575 3472 
Q 3272 3878 2719 3878 
z
M 2719 4750 
Q 3844 4750 4481 4106 
Q 5119 3463 5119 2328 
Q 5119 1197 4481 553 
Q 3844 -91 2719 -91 
Q 1597 -91 958 553 
Q 319 1197 319 2328 
Q 319 3463 958 4106 
Q 1597 4750 2719 4750 
z
" transform="scale(0.015625)"/>
     </defs>
     <use xlink:href="#DejaVuSans-Bold-4f"/>
     <use xlink:href="#DejaVuSans-Bold-75" transform="translate(85.009766 0)"/>
     <use xlink:href="#DejaVuSans-Bold-74" transform="translate(156.201172 0)"/>
     <use xlink:href="#DejaVuSans-Bold-70" transform="translate(204.003906 0)"/>
     <use xlink:href="#DejaVuSans-Bold-75" transform="translate(275.585938 0)"/>
     <use xlink:href="#DejaVuSans-Bold-74" transform="translate(346.777344 0)"/>
    </g>
   </g>
   <g id="text_10">
    <!-- CNN: Convolutional Neural Network (LeNet/AlexNet Style) -->
    <g style="fill: #00d4aa" transform="translate(113.071562 17.837812) scale(0.14 -0.14)">
     <defs>
      <path id="DejaVuSans-Bold-4e" d="M 588 4666 
L 1931 4666 
L 3628 1466 
L 3628 4666 
L 4769 4666 
L 4769 0 
L 3425 0 
L 1728 3200 
L 1728 0 
L 588 0 
L 588 4666 
z
" transform="scale(0.015625)"/>
      <path id="DejaVuSans-Bold-3a" d="M 716 3500 
L 1844 3500 
L 1844 2291 
L 716 2291 
L 716 3500 
z
M 716 1209 
L 1844 1209 
L 1844 0 
L 716 0 
L 716 1209 
z
" transform="scale(0.015625)"/>
      <path id="DejaVuSans-Bold-69" d="M 538 3500 
L 1656 3500 
L 1656 0 
L 538 0 
L 538 3500 
z
M 538 4863 
L 1656 4863 
L 1656 3950 
L 538 3950 
L 538 4863 
z
" transform="scale(0.015625)"/>
      <path id="DejaVuSans-Bold-72" d="M 3138 2547 
Q 2991 2616 2845 2648 
Q 2700 2681 2553 2681 
Q 2122 2681 1889 2404 
Q 1656 2128 1656 1613 
L 1656 0 
L 538 0 
L 538 3500 
L 1656 3500 
L 1656 2925 
Q 1872 3269 2151 3426 
Q 2431 3584 2822 3584 
Q 2878 3584 2943 3579 
Q 3009 3575 3134 3559 
L 3138 2547 
z
" transform="scale(0.015625)"/>
      <path id="DejaVuSans-Bold-77" d="M 225 3500 
L 1313 3500 
L 1900 1088 
L 2491 3500 
L 3425 3500 
L 4013 1113 
L 4603 3500 
L 5691 3500 
L 4769 0 
L 3547 0 
L 2956 2406 
L 2369 0 
L 1147 0 
L 225 3500 
z
" transform="scale(0.015625)"/>
      <path id="DejaVuSans-Bold-6b" d="M 538 4863 
L 1656 4863 
L 1656 2216 
L 2944 3500 
L 4244 3500 
L 2534 1894 
L 4378 0 
L 3022 0 
L 1656 1459 
L 1656 0 
L 538 0 
L 538 4863 
z
" transform="scale(0.015625)"/>
      <path id="DejaVuSans-Bold-28" d="M 2413 -844 
L 1484 -844 
Q 1006 -72 778 623 
Q 550 1319 550 2003 
Q 550 2688 779 3389 
Q 1009 4091 1484 4856 
L 2413 4856 
Q 2013 4116 1813 3408 
Q 1613 2700 1613 2009 
Q 1613 1319 1811 609 
Q 2009 -100 2413 -844 
z
" transform="scale(0.015625)"/>
      <path id="DejaVuSans-Bold-2f" d="M 1644 4666 
L 2338 4666 
L 691 -594 
L 0 -594 
L 1644 4666 
z
" transform="scale(0.015625)"/>
      <path id="DejaVuSans-Bold-41" d="M 3419 850 
L 1538 850 
L 1241 0 
L 31 0 
L 1759 4666 
L 3194 4666 
L 4922 0 
L 3713 0 
L 3419 850 
z
M 1838 1716 
L 3116 1716 
L 2478 3572 
L 1838 1716 
z
" transform="scale(0.015625)"/>
      <path id="DejaVuSans-Bold-78" d="M 1422 1791 
L 159 3500 
L 1344 3500 
L 2059 2463 
L 2784 3500 
L 3969 3500 
L 2706 1797 
L 4031 0 
L 2847 0 
L 2059 1106 
L 1281 0 
L 97 0 
L 1422 1791 
z
" transform="scale(0.015625)"/>
      <path id="DejaVuSans-Bold-53" d="M 3834 4519 
L 3834 3531 
Q 3450 3703 3084 3790 
Q 2719 3878 2394 3878 
Q 1963 3878 1756 3759 
Q 1550 3641 1550 3391 
Q 1550 3203 1689 3098 
Q 1828 2994 2194 2919 
L 2706 2816 
Q 3484 2659 3812 2340 
Q 4141 2022 4141 1434 
Q 4141 663 3683 286 
Q 3225 -91 2284 -91 
Q 1841 -91 1394 -6 
Q 947 78 500 244 
L 500 1259 
Q 947 1022 1364 901 
Q 1781 781 2169 781 
Q 2563 781 2772 912 
Q 2981 1044 2981 1288 
Q 2981 1506 2839 1625 
Q 2697 1744 2272 1838 
L 1806 1941 
Q 1106 2091 782 2419 
Q 459 2747 459 3303 
Q 459 4000 909 4375 
Q 1359 4750 2203 4750 
Q 2588 4750 2994 4692 
Q 3400 4634 3834 4519 
z
" transform="scale(0.015625)"/>
      <path id="DejaVuSans-Bold-79" d="M 78 3500 
L 1197 3500 
L 2138 1125 
L 2938 3500 
L 4056 3500 
L 2584 -331 
Q 2363 -916 2067 -1148 
Q 1772 -1381 1288 -1381 
L 641 -1381 
L 641 -647 
L 991 -647 
Q 1275 -647 1404 -556 
Q 1534 -466 1606 -231 
L 1638 -134 
L 78 3500 
z
" transform="scale(0.015625)"/>
      <path id="DejaVuSans-Bold-29" d="M 513 -844 
Q 913 -100 1113 609 
Q 1313 1319 1313 2009 
Q 1313 2700 1113 3408 
Q 913 4116 513 4856 
L 1441 4856 
Q 1916 4091 2145 3389 
Q 2375 2688 2375 2003 
Q 2375 1319 2147 623 
Q 1919 -72 1441 -844 
L 513 -844 
z
" transform="scale(0.015625)"/>
     </defs>
     <use xlink:href="#DejaVuSans-Bold-43"/>
     <use xlink:href="#DejaVuSans-Bold-4e" transform="translate(73.388672 0)"/>
     <use xlink:href="#DejaVuSans-Bold-4e" transform="translate(157.080078 0)"/>
     <use xlink:href="#DejaVuSans-Bold-3a" transform="translate(240.771484 0)"/>
     <use xlink:href="#DejaVuSans-Bold-20" transform="translate(280.761719 0)"/>
     <use xlink:href="#DejaVuSans-Bold-43" transform="translate(315.576172 0)"/>
     <use xlink:href="#DejaVuSans-Bold-6f" transform="translate(388.964844 0)"/>
     <use xlink:href="#DejaVuSans-Bold-6e" transform="translate(457.666016 0)"/>
     <use xlink:href="#DejaVuSans-Bold-76" transform="translate(528.857422 0)"/>
     <use xlink:href="#DejaVuSans-Bold-6f" transform="translate(594.042969 0)"/>
     <use xlink:href="#DejaVuSans-Bold-6c" transform="translate(662.744141 0)"/>
     <use xlink:href="#DejaVuSans-Bold-75" transform="translate(697.021484 0)"/>
     <use xlink:href="#DejaVuSans-Bold-74" transform="translate(768.212891 0)"/>
     <use xlink:href="#DejaVuSans-Bold-69" transform="translate(816.015625 0)"/>
     <use xlink:href="#DejaVuSans-Bold-6f" transform="translate(850.292969 0)"/>
     <use xlink:href="#DejaVuSans-Bold-6e" transform="translate(918.994141 0)"/>
     <use xlink:href="#DejaVuSans-Bold-61" transform="translate(990.185547 0)"/>
     <use xlink:href="#DejaVuSans-Bold-6c" transform="translate(1057.666016 0)"/>
     <use xlink:href="#DejaVuSans-Bold-20" transform="translate(1091.943359 0)"/>
     <use xlink:href="#DejaVuSans-Bold-4e" transform="translate(1126.757812 0)"/>
     <use xlink:href="#DejaVuSans-Bold-65" transform="translate(1210.449219 0)"/>
     <use xlink:href="#DejaVuSans-Bold-75" transform="translate(1278.271484 0)"/>
     <use xlink:href="#DejaVuSans-Bold-72" transform="translate(1349.462891 0)"/>
     <use xlink:href="#DejaVuSans-Bold-61" transform="translate(1398.779297 0)"/>
     <use xlink:href="#DejaVuSans-Bold-6c" transform="translate(1466.259766 0)"/>
     <use xlink:href="#DejaVuSans-Bold-20" transform="translate(1500.537109 0)"/>
     <use xlink:href="#DejaVuSans-Bold-4e" transform="translate(1535.351562 0)"/>
     <use xlink:href="#DejaVuSans-Bold-65" transform="translate(1619.042969 0)"/>
     <use xlink:href="#DejaVuSans-Bold-74" transform="translate(1686.865234 0)"/>
     <use xlink:href="#DejaVuSans-Bold-77" transform="translate(1734.667969 0)"/>
     <use xlink:href="#DejaVuSans-Bold-6f" transform="translate(1827.050781 0)"/>
     <use xlink:href="#DejaVuSans-Bold-72" transform="translate(1895.751953 0)"/>
     <use xlink:href="#DejaVuSans-Bold-6b" transform="translate(1945.068359 0)"/>
     <use xlink:href="#DejaVuSans-Bold-20" transform="translate(2011.572266 0)"/>
     <use xlink:href="#DejaVuSans-Bold-28" transform="translate(2046.386719 0)"/>
     <use xlink:href="#DejaVuSans-Bold-4c" transform="translate(2092.089844 0)"/>
     <use xlink:href="#DejaVuSans-Bold-65" transform="translate(2155.810547 0)"/>
     <use xlink:href="#DejaVuSans-Bold-4e" transform="translate(2223.632812 0)"/>
     <use xlink:href="#DejaVuSans-Bold-65" transform="translate(2307.324219 0)"/>
     <use xlink:href="#DejaVuSans-Bold-74" transform="translate(2375.146484 0)"/>
     <use xlink:href="#DejaVuSans-Bold-2f" transform="translate(2422.949219 0)"/>
     <use xlink:href="#DejaVuSans-Bold-41" transform="translate(2459.472656 0)"/>
     <use xlink:href="#DejaVuSans-Bold-6c" transform="translate(2536.865234 0)"/>
     <use xlink:href="#DejaVuSans-Bold-65" transform="translate(2571.142578 0)"/>
     <use xlink:href="#DejaVuSans-Bold-78" transform="translate(2638.964844 0)"/>
     <use xlink:href="#DejaVuSans-Bold-4e" transform="translate(2703.466797 0)"/>
     <use xlink:href="#DejaVuSans-Bold-65" transform="translate(2787.158203 0)"/>
     <use xlink:href="#DejaVuSans-Bold-74" transform="translate(2854.980469 0)"/>
     <use xlink:href="#DejaVuSans-Bold-20" transform="translate(2902.783203 0)"/>
     <use xlink:href="#DejaVuSans-Bold-53" transform="translate(2937.597656 0)"/>
     <use xlink:href="#DejaVuSans-Bold-74" transform="translate(3009.619141 0)"/>
     <use xlink:href="#DejaVuSans-Bold-79" transform="translate(3057.421875 0)"/>
     <use xlink:href="#DejaVuSans-Bold-6c" transform="translate(3122.607422 0)"/>
     <use xlink:href="#DejaVuSans-Bold-65" transform="translate(3156.884766 0)"/>
     <use xlink:href="#DejaVuSans-Bold-29" transform="translate(3224.707031 0)"/>
    </g>
   </g>
  </g>
 </g>
 <defs>
  <clipPath id="pd894c030b9">
   <rect x="7.2" y="27.837812" width="669.6" height="277.2"/>
  </clipPath>
 </defs>
</svg>
