<?xml version="1.0" encoding="utf-8" standalone="no"?>
<!DOCTYPE svg PUBLIC "-//W3C//DTD SVG 1.1//EN"
  "http://www.w3.org/Graphics/SVG/1.1/DTD/svg11.dtd">
<svg xmlns:xlink="http://www.w3.org/1999/xlink" width="572.4pt" height="367.677813pt" viewBox="0 0 572.4 367.677813" xmlns="http://www.w3.org/2000/svg" version="1.1">
 <metadata>
  <rdf:RDF xmlns:dc="http://purl.org/dc/elements/1.1/" xmlns:cc="http://creativecommons.org/ns#" xmlns:rdf="http://www.w3.org/1999/02/22-rdf-syntax-ns#">
   <cc:Work>
    <dc:type rdf:resource="http://purl.org/dc/dcmitype/StillImage"/>
    <dc:date>2026-05-26T08:38:46.819483</dc:date>
    <dc:format>image/svg+xml</dc:format>
    <dc:creator>
     <cc:Agent>
      <dc:title>Matplotlib v3.10.9, https://matplotlib.org/</dc:title>
     </cc:Agent>
    </dc:creator>
   </cc:Work>
  </rdf:RDF>
 </metadata>
 <defs>
  <style type="text/css">*{stroke-linejoin: round; stroke-linecap: butt}</style>
 </defs>
 <g id="figure_1">
  <g id="patch_1">
   <path d="M 0 367.677813 
L 572.4 367.677813 
L 572.4 0 
L 0 0 
z
" style="fill: #1a1a2e"/>
  </g>
  <g id="axes_1">
   <g id="patch_2">
    <path d="M 70.254 244.719093 
L 139.446 244.719093 
Q 147.816 244.719093 147.816 239.729493 
L 147.816 208.461333 
Q 147.816 203.471733 139.446 203.471733 
L 70.254 203.471733 
Q 61.884 203.471733 61.884 208.461333 
L 61.884 239.729493 
Q 61.884 244.719093 70.254 244.719093 
z
" clip-path="url(#pa2e91055ce)" style="fill: #e5e5e5; stroke: #555555; stroke-width: 1.5; stroke-linejoin: miter"/>
   </g>
   <g id="patch_3">
    <path d="M 181.854 244.719093 
L 251.046 244.719093 
Q 259.416 244.719093 259.416 239.729493 
L 259.416 208.461333 
Q 259.416 203.471733 251.046 203.471733 
L 181.854 203.471733 
Q 173.484 203.471733 173.484 208.461333 
L 173.484 239.729493 
Q 173.484 244.719093 181.854 244.719093 
z
" clip-path="url(#pa2e91055ce)" style="fill: #a5a5a5; stroke: #555555; stroke-width: 1.5; stroke-linejoin: miter"/>
   </g>
   <g id="patch_4">
    <path d="M 293.454 244.719093 
L 362.646 244.719093 
Q 371.016 244.719093 371.016 239.729493 
L 371.016 208.461333 
Q 371.016 203.471733 362.646 203.471733 
L 293.454 203.471733 
Q 285.084 203.471733 285.084 208.461333 
L 285.084 239.729493 
Q 285.084 244.719093 293.454 244.719093 
z
" clip-path="url(#pa2e91055ce)" style="fill: #666666; stroke: #555555; stroke-width: 1.5; stroke-linejoin: miter"/>
   </g>
   <g id="patch_5">
    <path d="M 405.054 244.719093 
L 474.246 244.719093 
Q 482.616 244.719093 482.616 239.729493 
L 482.616 208.461333 
Q 482.616 203.471733 474.246 203.471733 
L 405.054 203.471733 
Q 396.684 203.471733 396.684 208.461333 
L 396.684 239.729493 
Q 396.684 244.719093 405.054 244.719093 
z
" clip-path="url(#pa2e91055ce)" style="fill: #262626; stroke: #555555; stroke-width: 1.5; stroke-linejoin: miter"/>
   </g>
   <g id="patch_6">
    <path d="M 488.754 344.511093 
L 557.946 344.511093 
Q 566.316 344.511093 566.316 339.521493 
L 566.316 308.253332 
Q 566.316 303.263733 557.946 303.263733 
L 488.754 303.263733 
Q 480.384 303.263733 480.384 308.253332 
L 480.384 339.521493 
Q 480.384 344.511093 488.754 344.511093 
z
" clip-path="url(#pa2e91055ce)" style="fill: #262626; stroke: #555555; stroke-width: 1.5; stroke-linejoin: miter"/>
   </g>
   <g id="patch_7">
    <path d="M 388.314 344.511093 
L 457.506 344.511093 
Q 465.876 344.511093 465.876 339.521493 
L 465.876 308.253332 
Q 465.876 303.263733 457.506 303.263733 
L 388.314 303.263733 
Q 379.944 303.263733 379.944 308.253332 
L 379.944 339.521493 
Q 379.944 344.511093 388.314 344.511093 
z
" clip-path="url(#pa2e91055ce)" style="fill: #666666; stroke: #555555; stroke-width: 1.5; stroke-linejoin: miter"/>
   </g>
   <g id="patch_8">
    <path d="M 287.874 344.511093 
L 357.066 344.511093 
Q 365.436 344.511093 365.436 339.521493 
L 365.436 308.253332 
Q 365.436 303.263733 357.066 303.263733 
L 287.874 303.263733 
Q 279.504 303.263733 279.504 308.253332 
L 279.504 339.521493 
Q 279.504 344.511093 287.874 344.511093 
z
" clip-path="url(#pa2e91055ce)" style="fill: #a5a5a5; stroke: #555555; stroke-width: 1.5; stroke-linejoin: miter"/>
   </g>
   <g id="patch_9">
    <path d="M 187.434 344.511093 
L 256.626 344.511093 
Q 264.996 344.511093 264.996 339.521493 
L 264.996 308.253332 
Q 264.996 303.263733 256.626 303.263733 
L 187.434 303.263733 
Q 179.064 303.263733 179.064 308.253332 
L 179.064 339.521493 
Q 179.064 344.511093 187.434 344.511093 
z
" clip-path="url(#pa2e91055ce)" style="fill: #e5e5e5; stroke: #555555; stroke-width: 1.5; stroke-linejoin: miter"/>
   </g>
   <g id="text_1">
    <!-- Forward Process q(x_t | x_{t-1}) -->
    <g style="fill: #4fc3f7" transform="translate(46.745234 180.432219) scale(0.11 -0.11)">
     <defs>
      <path id="DejaVuSans-Bold-46" d="M 588 4666 
L 3834 4666 
L 3834 3756 
L 1791 3756 
L 1791 2888 
L 3713 2888 
L 3713 1978 
L 1791 1978 
L 1791 0 
L 588 0 
L 588 4666 
z
" transform="scale(0.015625)"/>
      <path id="DejaVuSans-Bold-6f" d="M 2203 2784 
Q 1831 2784 1636 2517 
Q 1441 2250 1441 1747 
Q 1441 1244 1636 976 
Q 1831 709 2203 709 
Q 2569 709 2762 976 
Q 2956 1244 2956 1747 
Q 2956 2250 2762 2517 
Q 2569 2784 2203 2784 
z
M 2203 3584 
Q 3106 3584 3614 3096 
Q 4122 2609 4122 1747 
Q 4122 884 3614 396 
Q 3106 -91 2203 -91 
Q 1297 -91 786 396 
Q 275 884 275 1747 
Q 275 2609 786 3096 
Q 1297 3584 2203 3584 
z
" transform="scale(0.015625)"/>
      <path id="DejaVuSans-Bold-72" d="M 3138 2547 
Q 2991 2616 2845 2648 
Q 2700 2681 2553 2681 
Q 2122 2681 1889 2404 
Q 1656 2128 1656 1613 
L 1656 0 
L 538 0 
L 538 3500 
L 1656 3500 
L 1656 2925 
Q 1872 3269 2151 3426 
Q 2431 3584 2822 3584 
Q 2878 3584 2943 3579 
Q 3009 3575 3134 3559 
L 3138 2547 
z
" transform="scale(0.015625)"/>
      <path id="DejaVuSans-Bold-77" d="M 225 3500 
L 1313 3500 
L 1900 1088 
L 2491 3500 
L 3425 3500 
L 4013 1113 
L 4603 3500 
L 5691 3500 
L 4769 0 
L 3547 0 
L 2956 2406 
L 2369 0 
L 1147 0 
L 225 3500 
z
" transform="scale(0.015625)"/>
      <path id="DejaVuSans-Bold-61" d="M 2106 1575 
Q 1756 1575 1579 1456 
Q 1403 1338 1403 1106 
Q 1403 894 1545 773 
Q 1688 653 1941 653 
Q 2256 653 2472 879 
Q 2688 1106 2688 1447 
L 2688 1575 
L 2106 1575 
z
M 3816 1997 
L 3816 0 
L 2688 0 
L 2688 519 
Q 2463 200 2181 54 
Q 1900 -91 1497 -91 
Q 953 -91 614 226 
Q 275 544 275 1050 
Q 275 1666 698 1953 
Q 1122 2241 2028 2241 
L 2688 2241 
L 2688 2328 
Q 2688 2594 2478 2717 
Q 2269 2841 1825 2841 
Q 1466 2841 1156 2769 
Q 847 2697 581 2553 
L 581 3406 
Q 941 3494 1303 3539 
Q 1666 3584 2028 3584 
Q 2975 3584 3395 3211 
Q 3816 2838 3816 1997 
z
" transform="scale(0.015625)"/>
      <path id="DejaVuSans-Bold-64" d="M 2919 2988 
L 2919 4863 
L 4044 4863 
L 4044 0 
L 2919 0 
L 2919 506 
Q 2688 197 2409 53 
Q 2131 -91 1766 -91 
Q 1119 -91 703 423 
Q 288 938 288 1747 
Q 288 2556 703 3070 
Q 1119 3584 1766 3584 
Q 2128 3584 2408 3439 
Q 2688 3294 2919 2988 
z
M 2181 722 
Q 2541 722 2730 984 
Q 2919 1247 2919 1747 
Q 2919 2247 2730 2509 
Q 2541 2772 2181 2772 
Q 1825 2772 1636 2509 
Q 1447 2247 1447 1747 
Q 1447 1247 1636 984 
Q 1825 722 2181 722 
z
" transform="scale(0.015625)"/>
      <path id="DejaVuSans-Bold-20" transform="scale(0.015625)"/>
      <path id="DejaVuSans-Bold-50" d="M 588 4666 
L 2584 4666 
Q 3475 4666 3951 4270 
Q 4428 3875 4428 3144 
Q 4428 2409 3951 2014 
Q 3475 1619 2584 1619 
L 1791 1619 
L 1791 0 
L 588 0 
L 588 4666 
z
M 1791 3794 
L 1791 2491 
L 2456 2491 
Q 2806 2491 2997 2661 
Q 3188 2831 3188 3144 
Q 3188 3456 2997 3625 
Q 2806 3794 2456 3794 
L 1791 3794 
z
" transform="scale(0.015625)"/>
      <path id="DejaVuSans-Bold-63" d="M 3366 3391 
L 3366 2478 
Q 3138 2634 2908 2709 
Q 2678 2784 2431 2784 
Q 1963 2784 1702 2511 
Q 1441 2238 1441 1747 
Q 1441 1256 1702 982 
Q 1963 709 2431 709 
Q 2694 709 2930 787 
Q 3166 866 3366 1019 
L 3366 103 
Q 3103 6 2833 -42 
Q 2563 -91 2291 -91 
Q 1344 -91 809 395 
Q 275 881 275 1747 
Q 275 2613 809 3098 
Q 1344 3584 2291 3584 
Q 2566 3584 2833 3536 
Q 3100 3488 3366 3391 
z
" transform="scale(0.015625)"/>
      <path id="DejaVuSans-Bold-65" d="M 4031 1759 
L 4031 1441 
L 1416 1441 
Q 1456 1047 1700 850 
Q 1944 653 2381 653 
Q 2734 653 3104 758 
Q 3475 863 3866 1075 
L 3866 213 
Q 3469 63 3072 -14 
Q 2675 -91 2278 -91 
Q 1328 -91 801 392 
Q 275 875 275 1747 
Q 275 2603 792 3093 
Q 1309 3584 2216 3584 
Q 3041 3584 3536 3087 
Q 4031 2591 4031 1759 
z
M 2881 2131 
Q 2881 2450 2695 2645 
Q 2509 2841 2209 2841 
Q 1884 2841 1681 2658 
Q 1478 2475 1428 2131 
L 2881 2131 
z
" transform="scale(0.015625)"/>
      <path id="DejaVuSans-Bold-73" d="M 3272 3391 
L 3272 2541 
Q 2913 2691 2578 2766 
Q 2244 2841 1947 2841 
Q 1628 2841 1473 2761 
Q 1319 2681 1319 2516 
Q 1319 2381 1436 2309 
Q 1553 2238 1856 2203 
L 2053 2175 
Q 2913 2066 3209 1816 
Q 3506 1566 3506 1031 
Q 3506 472 3093 190 
Q 2681 -91 1863 -91 
Q 1516 -91 1145 -36 
Q 775 19 384 128 
L 384 978 
Q 719 816 1070 734 
Q 1422 653 1784 653 
Q 2113 653 2278 743 
Q 2444 834 2444 1013 
Q 2444 1163 2330 1236 
Q 2216 1309 1875 1350 
L 1678 1375 
Q 931 1469 631 1722 
Q 331 1975 331 2491 
Q 331 3047 712 3315 
Q 1094 3584 1881 3584 
Q 2191 3584 2531 3537 
Q 2872 3491 3272 3391 
z
" transform="scale(0.015625)"/>
      <path id="DejaVuSans-Bold-71" d="M 2181 2772 
Q 1825 2772 1636 2509 
Q 1447 2247 1447 1747 
Q 1447 1247 1636 984 
Q 1825 722 2181 722 
Q 2541 722 2730 984 
Q 2919 1247 2919 1747 
Q 2919 2247 2730 2509 
Q 2541 2772 2181 2772 
z
M 2919 506 
Q 2688 197 2409 53 
Q 2131 -91 1766 -91 
Q 1119 -91 703 423 
Q 288 938 288 1747 
Q 288 2556 703 3067 
Q 1119 3578 1766 3578 
Q 2131 3578 2409 3434 
Q 2688 3291 2919 2981 
L 2919 3500 
L 4044 3500 
L 4044 -1331 
L 2919 -1331 
L 2919 506 
z
" transform="scale(0.015625)"/>
      <path id="DejaVuSans-Bold-28" d="M 2413 -844 
L 1484 -844 
Q 1006 -72 778 623 
Q 550 1319 550 2003 
Q 550 2688 779 3389 
Q 1009 4091 1484 4856 
L 2413 4856 
Q 2013 4116 1813 3408 
Q 1613 2700 1613 2009 
Q 1613 1319 1811 609 
Q 2009 -100 2413 -844 
z
" transform="scale(0.015625)"/>
      <path id="DejaVuSans-Bold-78" d="M 1422 1791 
L 159 3500 
L 1344 3500 
L 2059 2463 
L 2784 3500 
L 3969 3500 
L 2706 1797 
L 4031 0 
L 2847 0 
L 2059 1106 
L 1281 0 
L 97 0 
L 1422 1791 
z
" transform="scale(0.015625)"/>
      <path id="DejaVuSans-Bold-5f" d="M 3200 -916 
L 3200 -1509 
L 0 -1509 
L 0 -916 
L 3200 -916 
z
" transform="scale(0.015625)"/>
      <path id="DejaVuSans-Bold-74" d="M 1759 4494 
L 1759 3500 
L 2913 3500 
L 2913 2700 
L 1759 2700 
L 1759 1216 
Q 1759 972 1856 886 
Q 1953 800 2241 800 
L 2816 800 
L 2816 0 
L 1856 0 
Q 1194 0 917 276 
Q 641 553 641 1216 
L 641 2700 
L 84 2700 
L 84 3500 
L 641 3500 
L 641 4494 
L 1759 4494 
z
" transform="scale(0.015625)"/>
      <path id="DejaVuSans-Bold-7c" d="M 1522 4891 
L 1522 -1509 
L 813 -1509 
L 813 4891 
L 1522 4891 
z
" transform="scale(0.015625)"/>
      <path id="DejaVuSans-Bold-7b" d="M 3756 -341 
L 3756 -1044 
L 3078 -1044 
Q 2397 -1044 2084 -769 
Q 1772 -494 1772 109 
L 1772 709 
Q 1772 1178 1603 1361 
Q 1434 1544 991 1544 
L 800 1544 
L 800 2241 
L 991 2241 
Q 1434 2241 1603 2422 
Q 1772 2603 1772 3072 
L 1772 3713 
Q 1772 4316 2084 4589 
Q 2397 4863 3078 4863 
L 3756 4863 
L 3756 4159 
L 3541 4159 
Q 3100 4159 2967 4023 
Q 2834 3888 2834 3444 
L 2834 2925 
Q 2834 2434 2693 2212 
Q 2553 1991 2209 1913 
Q 2556 1828 2695 1606 
Q 2834 1384 2834 897 
L 2834 378 
Q 2834 -69 2967 -205 
Q 3100 -341 3541 -341 
L 3756 -341 
z
" transform="scale(0.015625)"/>
      <path id="DejaVuSans-Bold-2d" d="M 347 2297 
L 2309 2297 
L 2309 1388 
L 347 1388 
L 347 2297 
z
" transform="scale(0.015625)"/>
      <path id="DejaVuSans-Bold-31" d="M 750 831 
L 1813 831 
L 1813 3847 
L 722 3622 
L 722 4441 
L 1806 4666 
L 2950 4666 
L 2950 831 
L 4013 831 
L 4013 0 
L 750 0 
L 750 831 
z
" transform="scale(0.015625)"/>
      <path id="DejaVuSans-Bold-7d" d="M 800 -341 
L 1019 -341 
Q 1456 -341 1589 -205 
Q 1722 -69 1722 378 
L 1722 897 
Q 1722 1384 1862 1606 
Q 2003 1828 2350 1913 
Q 2003 1991 1862 2212 
Q 1722 2434 1722 2925 
L 1722 3444 
Q 1722 3888 1589 4023 
Q 1456 4159 1019 4159 
L 800 4159 
L 800 4863 
L 1478 4863 
Q 2159 4863 2471 4589 
Q 2784 4316 2784 3713 
L 2784 3072 
Q 2784 2603 2953 2422 
Q 3122 2241 3566 2241 
L 3756 2241 
L 3756 1544 
L 3566 1544 
Q 3122 1544 2953 1361 
Q 2784 1178 2784 709 
L 2784 109 
Q 2784 -494 2471 -769 
Q 2159 -1044 1478 -1044 
L 800 -1044 
L 800 -341 
z
" transform="scale(0.015625)"/>
      <path id="DejaVuSans-Bold-29" d="M 513 -844 
Q 913 -100 1113 609 
Q 1313 1319 1313 2009 
Q 1313 2700 1113 3408 
Q 913 4116 513 4856 
L 1441 4856 
Q 1916 4091 2145 3389 
Q 2375 2688 2375 2003 
Q 2375 1319 2147 623 
Q 1919 -72 1441 -844 
L 513 -844 
z
" transform="scale(0.015625)"/>
     </defs>
     <use xlink:href="#DejaVuSans-Bold-46"/>
     <use xlink:href="#DejaVuSans-Bold-6f" transform="translate(64.310547 0)"/>
     <use xlink:href="#DejaVuSans-Bold-72" transform="translate(133.011719 0)"/>
     <use xlink:href="#DejaVuSans-Bold-77" transform="translate(182.328125 0)"/>
     <use xlink:href="#DejaVuSans-Bold-61" transform="translate(274.710938 0)"/>
     <use xlink:href="#DejaVuSans-Bold-72" transform="translate(342.191406 0)"/>
     <use xlink:href="#DejaVuSans-Bold-64" transform="translate(391.507812 0)"/>
     <use xlink:href="#DejaVuSans-Bold-20" transform="translate(463.089844 0)"/>
     <use xlink:href="#DejaVuSans-Bold-50" transform="translate(497.904297 0)"/>
     <use xlink:href="#DejaVuSans-Bold-72" transform="translate(571.195312 0)"/>
     <use xlink:href="#DejaVuSans-Bold-6f" transform="translate(620.511719 0)"/>
     <use xlink:href="#DejaVuSans-Bold-63" transform="translate(689.212891 0)"/>
     <use xlink:href="#DejaVuSans-Bold-65" transform="translate(748.490234 0)"/>
     <use xlink:href="#DejaVuSans-Bold-73" transform="translate(816.3125 0)"/>
     <use xlink:href="#DejaVuSans-Bold-73" transform="translate(875.833984 0)"/>
     <use xlink:href="#DejaVuSans-Bold-20" transform="translate(935.355469 0)"/>
     <use xlink:href="#DejaVuSans-Bold-71" transform="translate(970.169922 0)"/>
     <use xlink:href="#DejaVuSans-Bold-28" transform="translate(1041.751953 0)"/>
     <use xlink:href="#DejaVuSans-Bold-78" transform="translate(1087.455078 0)"/>
     <use xlink:href="#DejaVuSans-Bold-5f" transform="translate(1151.957031 0)"/>
     <use xlink:href="#DejaVuSans-Bold-74" transform="translate(1201.957031 0)"/>
     <use xlink:href="#DejaVuSans-Bold-20" transform="translate(1249.759766 0)"/>
     <use xlink:href="#DejaVuSans-Bold-7c" transform="translate(1284.574219 0)"/>
     <use xlink:href="#DejaVuSans-Bold-20" transform="translate(1321.097656 0)"/>
     <use xlink:href="#DejaVuSans-Bold-78" transform="translate(1355.912109 0)"/>
     <use xlink:href="#DejaVuSans-Bold-5f" transform="translate(1420.414062 0)"/>
     <use xlink:href="#DejaVuSans-Bold-7b" transform="translate(1470.414062 0)"/>
     <use xlink:href="#DejaVuSans-Bold-74" transform="translate(1541.605469 0)"/>
     <use xlink:href="#DejaVuSans-Bold-2d" transform="translate(1589.408203 0)"/>
     <use xlink:href="#DejaVuSans-Bold-31" transform="translate(1630.912109 0)"/>
     <use xlink:href="#DejaVuSans-Bold-7d" transform="translate(1700.492188 0)"/>
     <use xlink:href="#DejaVuSans-Bold-29" transform="translate(1771.683594 0)"/>
    </g>
   </g>
   <g id="text_2">
    <!-- x_0 -->
    <g style="fill: #111111" transform="translate(96.566484 221.335225) scale(0.09 -0.09)">
     <defs>
      <path id="DejaVuSans-Bold-30" d="M 2944 2338 
Q 2944 3213 2780 3570 
Q 2616 3928 2228 3928 
Q 1841 3928 1675 3570 
Q 1509 3213 1509 2338 
Q 1509 1453 1675 1090 
Q 1841 728 2228 728 
Q 2613 728 2778 1090 
Q 2944 1453 2944 2338 
z
M 4147 2328 
Q 4147 1169 3647 539 
Q 3147 -91 2228 -91 
Q 1306 -91 806 539 
Q 306 1169 306 2328 
Q 306 3491 806 4120 
Q 1306 4750 2228 4750 
Q 3147 4750 3647 4120 
Q 4147 3491 4147 2328 
z
" transform="scale(0.015625)"/>
     </defs>
     <use xlink:href="#DejaVuSans-Bold-78"/>
     <use xlink:href="#DejaVuSans-Bold-5f" transform="translate(64.501953 0)"/>
     <use xlink:href="#DejaVuSans-Bold-30" transform="translate(114.501953 0)"/>
    </g>
    <!-- (Data) -->
    <g style="fill: #111111" transform="translate(88.776563 231.663569) scale(0.09 -0.09)">
     <defs>
      <path id="DejaVuSans-Bold-44" d="M 1791 3756 
L 1791 909 
L 2222 909 
Q 2959 909 3348 1275 
Q 3738 1641 3738 2338 
Q 3738 3031 3350 3393 
Q 2963 3756 2222 3756 
L 1791 3756 
z
M 588 4666 
L 1856 4666 
Q 2919 4666 3439 4514 
Q 3959 4363 4331 4000 
Q 4659 3684 4818 3271 
Q 4978 2859 4978 2338 
Q 4978 1809 4818 1395 
Q 4659 981 4331 666 
Q 3956 303 3431 151 
Q 2906 0 1856 0 
L 588 0 
L 588 4666 
z
" transform="scale(0.015625)"/>
     </defs>
     <use xlink:href="#DejaVuSans-Bold-28"/>
     <use xlink:href="#DejaVuSans-Bold-44" transform="translate(45.703125 0)"/>
     <use xlink:href="#DejaVuSans-Bold-61" transform="translate(128.710938 0)"/>
     <use xlink:href="#DejaVuSans-Bold-74" transform="translate(196.191406 0)"/>
     <use xlink:href="#DejaVuSans-Bold-61" transform="translate(243.994141 0)"/>
     <use xlink:href="#DejaVuSans-Bold-29" transform="translate(311.474609 0)"/>
    </g>
   </g>
   <g id="patch_10">
    <path d="M 146.7 224.095413 
Q 146.7 224.095413 146.7 224.095413 
" style="fill: none; stroke: #00d4aa; stroke-width: 1.5; stroke-linecap: round"/>
   </g>
   <g id="text_3">
    <!-- +N(0,β) -->
    <g style="fill: #888888" transform="translate(130.865625 213.022312) scale(0.08 -0.08)">
     <defs>
      <path id="DejaVuSans-2b" d="M 2944 4013 
L 2944 2272 
L 4684 2272 
L 4684 1741 
L 2944 1741 
L 2944 0 
L 2419 0 
L 2419 1741 
L 678 1741 
L 678 2272 
L 2419 2272 
L 2419 4013 
L 2944 4013 
z
" transform="scale(0.015625)"/>
      <path id="DejaVuSans-4e" d="M 628 4666 
L 1478 4666 
L 3547 763 
L 3547 4666 
L 4159 4666 
L 4159 0 
L 3309 0 
L 1241 3903 
L 1241 0 
L 628 0 
L 628 4666 
z
" transform="scale(0.015625)"/>
      <path id="DejaVuSans-28" d="M 1984 4856 
Q 1566 4138 1362 3434 
Q 1159 2731 1159 2009 
Q 1159 1288 1364 580 
Q 1569 -128 1984 -844 
L 1484 -844 
Q 1016 -109 783 600 
Q 550 1309 550 2009 
Q 550 2706 781 3412 
Q 1013 4119 1484 4856 
L 1984 4856 
z
" transform="scale(0.015625)"/>
      <path id="DejaVuSans-30" d="M 2034 4250 
Q 1547 4250 1301 3770 
Q 1056 3291 1056 2328 
Q 1056 1369 1301 889 
Q 1547 409 2034 409 
Q 2525 409 2770 889 
Q 3016 1369 3016 2328 
Q 3016 3291 2770 3770 
Q 2525 4250 2034 4250 
z
M 2034 4750 
Q 2819 4750 3233 4129 
Q 3647 3509 3647 2328 
Q 3647 1150 3233 529 
Q 2819 -91 2034 -91 
Q 1250 -91 836 529 
Q 422 1150 422 2328 
Q 422 3509 836 4129 
Q 1250 4750 2034 4750 
z
" transform="scale(0.015625)"/>
      <path id="DejaVuSans-2c" d="M 750 794 
L 1409 794 
L 1409 256 
L 897 -744 
L 494 -744 
L 750 256 
L 750 794 
z
" transform="scale(0.015625)"/>
      <path id="DejaVuSans-3b2" d="M 1178 216 
L 1178 -1331 
L 600 -1331 
L 600 3478 
Q 600 4903 1931 4903 
Q 3288 4903 3288 3700 
Q 3288 2844 2750 2531 
Q 3625 2250 3625 1416 
Q 3625 -66 2119 -66 
Q 1456 -66 1178 216 
z
M 1178 966 
Q 1525 425 2141 425 
Q 3041 425 3041 1406 
Q 3041 2288 1591 2219 
L 1591 2750 
Q 2725 2750 2725 3750 
Q 2725 4434 1994 4434 
Q 1178 4434 1178 3459 
L 1178 966 
z
" transform="scale(0.015625)"/>
      <path id="DejaVuSans-29" d="M 513 4856 
L 1013 4856 
Q 1481 4119 1714 3412 
Q 1947 2706 1947 2009 
Q 1947 1309 1714 600 
Q 1481 -109 1013 -844 
L 513 -844 
Q 928 -128 1133 580 
Q 1338 1288 1338 2009 
Q 1338 2731 1133 3434 
Q 928 4138 513 4856 
z
" transform="scale(0.015625)"/>
     </defs>
     <use xlink:href="#DejaVuSans-2b"/>
     <use xlink:href="#DejaVuSans-4e" transform="translate(83.789062 0)"/>
     <use xlink:href="#DejaVuSans-28" transform="translate(158.59375 0)"/>
     <use xlink:href="#DejaVuSans-30" transform="translate(197.607422 0)"/>
     <use xlink:href="#DejaVuSans-2c" transform="translate(261.230469 0)"/>
     <use xlink:href="#DejaVuSans-3b2" transform="translate(293.017578 0)"/>
     <use xlink:href="#DejaVuSans-29" transform="translate(356.835938 0)"/>
    </g>
   </g>
   <g id="text_4">
    <!-- x_1 -->
    <g style="fill: #111111" transform="translate(208.166484 226.328538) scale(0.09 -0.09)">
     <use xlink:href="#DejaVuSans-Bold-78"/>
     <use xlink:href="#DejaVuSans-Bold-5f" transform="translate(64.501953 0)"/>
     <use xlink:href="#DejaVuSans-Bold-31" transform="translate(114.501953 0)"/>
    </g>
   </g>
   <g id="patch_11">
    <path d="M 258.3 224.095413 
Q 258.3 224.095413 258.3 224.095413 
" style="fill: none; stroke: #00d4aa; stroke-width: 1.5; stroke-linecap: round"/>
   </g>
   <g id="text_5">
    <!-- +N(0,β) -->
    <g style="fill: #888888" transform="translate(242.465625 213.022312) scale(0.08 -0.08)">
     <use xlink:href="#DejaVuSans-2b"/>
     <use xlink:href="#DejaVuSans-4e" transform="translate(83.789062 0)"/>
     <use xlink:href="#DejaVuSans-28" transform="translate(158.59375 0)"/>
     <use xlink:href="#DejaVuSans-30" transform="translate(197.607422 0)"/>
     <use xlink:href="#DejaVuSans-2c" transform="translate(261.230469 0)"/>
     <use xlink:href="#DejaVuSans-3b2" transform="translate(293.017578 0)"/>
     <use xlink:href="#DejaVuSans-29" transform="translate(356.835938 0)"/>
    </g>
   </g>
   <g id="text_6">
    <!-- x_t -->
    <g style="fill: #ffffff" transform="translate(320.746641 226.328538) scale(0.09 -0.09)">
     <use xlink:href="#DejaVuSans-Bold-78"/>
     <use xlink:href="#DejaVuSans-Bold-5f" transform="translate(64.501953 0)"/>
     <use xlink:href="#DejaVuSans-Bold-74" transform="translate(114.501953 0)"/>
    </g>
   </g>
   <g id="patch_12">
    <path d="M 369.9 224.095413 
Q 369.9 224.095413 369.9 224.095413 
" style="fill: none; stroke: #00d4aa; stroke-width: 1.5; stroke-linecap: round"/>
   </g>
   <g id="text_7">
    <!-- +N(0,β) -->
    <g style="fill: #888888" transform="translate(354.065625 213.022312) scale(0.08 -0.08)">
     <use xlink:href="#DejaVuSans-2b"/>
     <use xlink:href="#DejaVuSans-4e" transform="translate(83.789062 0)"/>
     <use xlink:href="#DejaVuSans-28" transform="translate(158.59375 0)"/>
     <use xlink:href="#DejaVuSans-30" transform="translate(197.607422 0)"/>
     <use xlink:href="#DejaVuSans-2c" transform="translate(261.230469 0)"/>
     <use xlink:href="#DejaVuSans-3b2" transform="translate(293.017578 0)"/>
     <use xlink:href="#DejaVuSans-29" transform="translate(356.835938 0)"/>
    </g>
   </g>
   <g id="text_8">
    <!-- x_T -->
    <g style="fill: #ffffff" transform="translate(431.427656 221.289522) scale(0.09 -0.09)">
     <defs>
      <path id="DejaVuSans-Bold-54" d="M 31 4666 
L 4331 4666 
L 4331 3756 
L 2784 3756 
L 2784 0 
L 1581 0 
L 1581 3756 
L 31 3756 
L 31 4666 
z
" transform="scale(0.015625)"/>
     </defs>
     <use xlink:href="#DejaVuSans-Bold-78"/>
     <use xlink:href="#DejaVuSans-Bold-5f" transform="translate(64.501953 0)"/>
     <use xlink:href="#DejaVuSans-Bold-54" transform="translate(114.501953 0)"/>
    </g>
    <!-- (Pure Noise) -->
    <g style="fill: #ffffff" transform="translate(408.066328 231.617866) scale(0.09 -0.09)">
     <defs>
      <path id="DejaVuSans-Bold-75" d="M 500 1363 
L 500 3500 
L 1625 3500 
L 1625 3150 
Q 1625 2866 1622 2436 
Q 1619 2006 1619 1863 
Q 1619 1441 1641 1255 
Q 1663 1069 1716 984 
Q 1784 875 1895 815 
Q 2006 756 2150 756 
Q 2500 756 2700 1025 
Q 2900 1294 2900 1772 
L 2900 3500 
L 4019 3500 
L 4019 0 
L 2900 0 
L 2900 506 
Q 2647 200 2364 54 
Q 2081 -91 1741 -91 
Q 1134 -91 817 281 
Q 500 653 500 1363 
z
" transform="scale(0.015625)"/>
      <path id="DejaVuSans-Bold-4e" d="M 588 4666 
L 1931 4666 
L 3628 1466 
L 3628 4666 
L 4769 4666 
L 4769 0 
L 3425 0 
L 1728 3200 
L 1728 0 
L 588 0 
L 588 4666 
z
" transform="scale(0.015625)"/>
      <path id="DejaVuSans-Bold-69" d="M 538 3500 
L 1656 3500 
L 1656 0 
L 538 0 
L 538 3500 
z
M 538 4863 
L 1656 4863 
L 1656 3950 
L 538 3950 
L 538 4863 
z
" transform="scale(0.015625)"/>
     </defs>
     <use xlink:href="#DejaVuSans-Bold-28"/>
     <use xlink:href="#DejaVuSans-Bold-50" transform="translate(45.703125 0)"/>
     <use xlink:href="#DejaVuSans-Bold-75" transform="translate(118.994141 0)"/>
     <use xlink:href="#DejaVuSans-Bold-72" transform="translate(190.185547 0)"/>
     <use xlink:href="#DejaVuSans-Bold-65" transform="translate(239.501953 0)"/>
     <use xlink:href="#DejaVuSans-Bold-20" transform="translate(307.324219 0)"/>
     <use xlink:href="#DejaVuSans-Bold-4e" transform="translate(342.138672 0)"/>
     <use xlink:href="#DejaVuSans-Bold-6f" transform="translate(425.830078 0)"/>
     <use xlink:href="#DejaVuSans-Bold-69" transform="translate(494.53125 0)"/>
     <use xlink:href="#DejaVuSans-Bold-73" transform="translate(528.808594 0)"/>
     <use xlink:href="#DejaVuSans-Bold-65" transform="translate(588.330078 0)"/>
     <use xlink:href="#DejaVuSans-Bold-29" transform="translate(656.152344 0)"/>
    </g>
   </g>
   <g id="text_9">
    <!-- Reverse Process p_θ(x_{t-1} | x_t) -->
    <g style="fill: #ff8a65" transform="translate(319.689219 280.243125) scale(0.11 -0.11)">
     <defs>
      <path id="DejaVuSans-Bold-52" d="M 2297 2597 
Q 2675 2597 2839 2737 
Q 3003 2878 3003 3200 
Q 3003 3519 2839 3656 
Q 2675 3794 2297 3794 
L 1791 3794 
L 1791 2597 
L 2297 2597 
z
M 1791 1766 
L 1791 0 
L 588 0 
L 588 4666 
L 2425 4666 
Q 3347 4666 3776 4356 
Q 4206 4047 4206 3378 
Q 4206 2916 3982 2619 
Q 3759 2322 3309 2181 
Q 3556 2125 3751 1926 
Q 3947 1728 4147 1325 
L 4800 0 
L 3519 0 
L 2950 1159 
Q 2778 1509 2601 1637 
Q 2425 1766 2131 1766 
L 1791 1766 
z
" transform="scale(0.015625)"/>
      <path id="DejaVuSans-Bold-76" d="M 97 3500 
L 1216 3500 
L 2088 1081 
L 2956 3500 
L 4078 3500 
L 2700 0 
L 1472 0 
L 97 3500 
z
" transform="scale(0.015625)"/>
      <path id="DejaVuSans-Bold-70" d="M 1656 506 
L 1656 -1331 
L 538 -1331 
L 538 3500 
L 1656 3500 
L 1656 2988 
Q 1888 3294 2169 3439 
Q 2450 3584 2816 3584 
Q 3463 3584 3878 3070 
Q 4294 2556 4294 1747 
Q 4294 938 3878 423 
Q 3463 -91 2816 -91 
Q 2450 -91 2169 54 
Q 1888 200 1656 506 
z
M 2400 2772 
Q 2041 2772 1848 2508 
Q 1656 2244 1656 1747 
Q 1656 1250 1848 986 
Q 2041 722 2400 722 
Q 2759 722 2948 984 
Q 3138 1247 3138 1747 
Q 3138 2247 2948 2509 
Q 2759 2772 2400 2772 
z
" transform="scale(0.015625)"/>
      <path id="DejaVuSans-Bold-3b8" d="M 1447 2081 
Q 1469 1444 1638 1181 
Q 1922 728 2197 725 
Q 2475 722 2763 1181 
Q 2931 1453 2953 2081 
L 1447 2081 
z
M 2950 2881 
Q 2913 3394 2759 3688 
Q 2522 4144 2200 4144 
Q 1875 4144 1641 3688 
Q 1484 3384 1450 2881 
L 2950 2881 
z
M 2200 4913 
Q 3247 4913 3686 4231 
Q 4125 3550 4125 2403 
Q 4125 1256 3673 592 
Q 3222 -72 2200 -72 
Q 1178 -72 726 592 
Q 275 1256 275 2403 
Q 275 3550 714 4231 
Q 1153 4913 2200 4913 
z
" transform="scale(0.015625)"/>
     </defs>
     <use xlink:href="#DejaVuSans-Bold-52"/>
     <use xlink:href="#DejaVuSans-Bold-65" transform="translate(77.001953 0)"/>
     <use xlink:href="#DejaVuSans-Bold-76" transform="translate(144.824219 0)"/>
     <use xlink:href="#DejaVuSans-Bold-65" transform="translate(210.009766 0)"/>
     <use xlink:href="#DejaVuSans-Bold-72" transform="translate(277.832031 0)"/>
     <use xlink:href="#DejaVuSans-Bold-73" transform="translate(327.148438 0)"/>
     <use xlink:href="#DejaVuSans-Bold-65" transform="translate(386.669922 0)"/>
     <use xlink:href="#DejaVuSans-Bold-20" transform="translate(454.492188 0)"/>
     <use xlink:href="#DejaVuSans-Bold-50" transform="translate(489.306641 0)"/>
     <use xlink:href="#DejaVuSans-Bold-72" transform="translate(562.597656 0)"/>
     <use xlink:href="#DejaVuSans-Bold-6f" transform="translate(611.914062 0)"/>
     <use xlink:href="#DejaVuSans-Bold-63" transform="translate(680.615234 0)"/>
     <use xlink:href="#DejaVuSans-Bold-65" transform="translate(739.892578 0)"/>
     <use xlink:href="#DejaVuSans-Bold-73" transform="translate(807.714844 0)"/>
     <use xlink:href="#DejaVuSans-Bold-73" transform="translate(867.236328 0)"/>
     <use xlink:href="#DejaVuSans-Bold-20" transform="translate(926.757812 0)"/>
     <use xlink:href="#DejaVuSans-Bold-70" transform="translate(961.572266 0)"/>
     <use xlink:href="#DejaVuSans-Bold-5f" transform="translate(1033.154297 0)"/>
     <use xlink:href="#DejaVuSans-Bold-3b8" transform="translate(1083.154297 0)"/>
     <use xlink:href="#DejaVuSans-Bold-28" transform="translate(1151.855469 0)"/>
     <use xlink:href="#DejaVuSans-Bold-78" transform="translate(1197.558594 0)"/>
     <use xlink:href="#DejaVuSans-Bold-5f" transform="translate(1262.060547 0)"/>
     <use xlink:href="#DejaVuSans-Bold-7b" transform="translate(1312.060547 0)"/>
     <use xlink:href="#DejaVuSans-Bold-74" transform="translate(1383.251953 0)"/>
     <use xlink:href="#DejaVuSans-Bold-2d" transform="translate(1431.054688 0)"/>
     <use xlink:href="#DejaVuSans-Bold-31" transform="translate(1472.558594 0)"/>
     <use xlink:href="#DejaVuSans-Bold-7d" transform="translate(1542.138672 0)"/>
     <use xlink:href="#DejaVuSans-Bold-20" transform="translate(1613.330078 0)"/>
     <use xlink:href="#DejaVuSans-Bold-7c" transform="translate(1648.144531 0)"/>
     <use xlink:href="#DejaVuSans-Bold-20" transform="translate(1684.667969 0)"/>
     <use xlink:href="#DejaVuSans-Bold-78" transform="translate(1719.482422 0)"/>
     <use xlink:href="#DejaVuSans-Bold-5f" transform="translate(1783.984375 0)"/>
     <use xlink:href="#DejaVuSans-Bold-74" transform="translate(1833.984375 0)"/>
     <use xlink:href="#DejaVuSans-Bold-29" transform="translate(1881.787109 0)"/>
    </g>
   </g>
   <g id="patch_13">
    <path d="M 479.501499 323.887412 
Q 473.129472 323.887412 468.434495 323.887412 
" style="fill: none; stroke: #00d4aa; stroke-width: 1.5; stroke-linecap: round"/>
    <path d="M 472.434495 325.887412 
L 468.434495 323.887412 
L 472.434495 321.887412 
" style="fill: none; stroke: #00d4aa; stroke-width: 1.5; stroke-linecap: round"/>
   </g>
   <g id="text_10">
    <!-- Denoise -->
    <g style="fill: #888888" transform="translate(415.1 312.789312) scale(0.08 -0.08)">
     <defs>
      <path id="DejaVuSans-44" d="M 1259 4147 
L 1259 519 
L 2022 519 
Q 2988 519 3436 956 
Q 3884 1394 3884 2338 
Q 3884 3275 3436 3711 
Q 2988 4147 2022 4147 
L 1259 4147 
z
M 628 4666 
L 1925 4666 
Q 3281 4666 3915 4102 
Q 4550 3538 4550 2338 
Q 4550 1131 3912 565 
Q 3275 0 1925 0 
L 628 0 
L 628 4666 
z
" transform="scale(0.015625)"/>
      <path id="DejaVuSans-65" d="M 3597 1894 
L 3597 1613 
L 953 1613 
Q 991 1019 1311 708 
Q 1631 397 2203 397 
Q 2534 397 2845 478 
Q 3156 559 3463 722 
L 3463 178 
Q 3153 47 2828 -22 
Q 2503 -91 2169 -91 
Q 1331 -91 842 396 
Q 353 884 353 1716 
Q 353 2575 817 3079 
Q 1281 3584 2069 3584 
Q 2775 3584 3186 3129 
Q 3597 2675 3597 1894 
z
M 3022 2063 
Q 3016 2534 2758 2815 
Q 2500 3097 2075 3097 
Q 1594 3097 1305 2825 
Q 1016 2553 972 2059 
L 3022 2063 
z
" transform="scale(0.015625)"/>
      <path id="DejaVuSans-6e" d="M 3513 2113 
L 3513 0 
L 2938 0 
L 2938 2094 
Q 2938 2591 2744 2837 
Q 2550 3084 2163 3084 
Q 1697 3084 1428 2787 
Q 1159 2491 1159 1978 
L 1159 0 
L 581 0 
L 581 3500 
L 1159 3500 
L 1159 2956 
Q 1366 3272 1645 3428 
Q 1925 3584 2291 3584 
Q 2894 3584 3203 3211 
Q 3513 2838 3513 2113 
z
" transform="scale(0.015625)"/>
      <path id="DejaVuSans-6f" d="M 1959 3097 
Q 1497 3097 1228 2736 
Q 959 2375 959 1747 
Q 959 1119 1226 758 
Q 1494 397 1959 397 
Q 2419 397 2687 759 
Q 2956 1122 2956 1747 
Q 2956 2369 2687 2733 
Q 2419 3097 1959 3097 
z
M 1959 3584 
Q 2709 3584 3137 3096 
Q 3566 2609 3566 1747 
Q 3566 888 3137 398 
Q 2709 -91 1959 -91 
Q 1206 -91 779 398 
Q 353 888 353 1747 
Q 353 2609 779 3096 
Q 1206 3584 1959 3584 
z
" transform="scale(0.015625)"/>
      <path id="DejaVuSans-69" d="M 603 3500 
L 1178 3500 
L 1178 0 
L 603 0 
L 603 3500 
z
M 603 4863 
L 1178 4863 
L 1178 4134 
L 603 4134 
L 603 4863 
z
" transform="scale(0.015625)"/>
      <path id="DejaVuSans-73" d="M 2834 3397 
L 2834 2853 
Q 2591 2978 2328 3040 
Q 2066 3103 1784 3103 
Q 1356 3103 1142 2972 
Q 928 2841 928 2578 
Q 928 2378 1081 2264 
Q 1234 2150 1697 2047 
L 1894 2003 
Q 2506 1872 2764 1633 
Q 3022 1394 3022 966 
Q 3022 478 2636 193 
Q 2250 -91 1575 -91 
Q 1294 -91 989 -36 
Q 684 19 347 128 
L 347 722 
Q 666 556 975 473 
Q 1284 391 1588 391 
Q 1994 391 2212 530 
Q 2431 669 2431 922 
Q 2431 1156 2273 1281 
Q 2116 1406 1581 1522 
L 1381 1569 
Q 847 1681 609 1914 
Q 372 2147 372 2553 
Q 372 3047 722 3315 
Q 1072 3584 1716 3584 
Q 2034 3584 2315 3537 
Q 2597 3491 2834 3397 
z
" transform="scale(0.015625)"/>
     </defs>
     <use xlink:href="#DejaVuSans-44"/>
     <use xlink:href="#DejaVuSans-65" transform="translate(77.001953 0)"/>
     <use xlink:href="#DejaVuSans-6e" transform="translate(138.525391 0)"/>
     <use xlink:href="#DejaVuSans-6f" transform="translate(201.904297 0)"/>
     <use xlink:href="#DejaVuSans-69" transform="translate(263.085938 0)"/>
     <use xlink:href="#DejaVuSans-73" transform="translate(290.869141 0)"/>
     <use xlink:href="#DejaVuSans-65" transform="translate(342.96875 0)"/>
    </g>
   </g>
   <g id="patch_14">
    <path d="M 379.061499 323.887412 
Q 372.689472 323.887412 367.994495 323.887412 
" style="fill: none; stroke: #00d4aa; stroke-width: 1.5; stroke-linecap: round"/>
    <path d="M 371.994495 325.887412 
L 367.994495 323.887412 
L 371.994495 321.887412 
" style="fill: none; stroke: #00d4aa; stroke-width: 1.5; stroke-linecap: round"/>
   </g>
   <g id="text_11">
    <!-- Denoise -->
    <g style="fill: #888888" transform="translate(314.66 312.789312) scale(0.08 -0.08)">
     <use xlink:href="#DejaVuSans-44"/>
     <use xlink:href="#DejaVuSans-65" transform="translate(77.001953 0)"/>
     <use xlink:href="#DejaVuSans-6e" transform="translate(138.525391 0)"/>
     <use xlink:href="#DejaVuSans-6f" transform="translate(201.904297 0)"/>
     <use xlink:href="#DejaVuSans-69" transform="translate(263.085938 0)"/>
     <use xlink:href="#DejaVuSans-73" transform="translate(290.869141 0)"/>
     <use xlink:href="#DejaVuSans-65" transform="translate(342.96875 0)"/>
    </g>
   </g>
   <g id="patch_15">
    <path d="M 278.621499 323.887412 
Q 272.249472 323.887412 267.554495 323.887412 
" style="fill: none; stroke: #00d4aa; stroke-width: 1.5; stroke-linecap: round"/>
    <path d="M 271.554495 325.887412 
L 267.554495 323.887412 
L 271.554495 321.887412 
" style="fill: none; stroke: #00d4aa; stroke-width: 1.5; stroke-linecap: round"/>
   </g>
   <g id="text_12">
    <!-- Denoise -->
    <g style="fill: #888888" transform="translate(214.22 312.789312) scale(0.08 -0.08)">
     <use xlink:href="#DejaVuSans-44"/>
     <use xlink:href="#DejaVuSans-65" transform="translate(77.001953 0)"/>
     <use xlink:href="#DejaVuSans-6e" transform="translate(138.525391 0)"/>
     <use xlink:href="#DejaVuSans-6f" transform="translate(201.904297 0)"/>
     <use xlink:href="#DejaVuSans-69" transform="translate(263.085938 0)"/>
     <use xlink:href="#DejaVuSans-73" transform="translate(290.869141 0)"/>
     <use xlink:href="#DejaVuSans-65" transform="translate(342.96875 0)"/>
    </g>
   </g>
   <g id="text_13">
    <!-- x_T -->
    <g style="fill: #ffffff" transform="translate(457.098047 326.120538) scale(0.09 -0.09)">
     <defs>
      <path id="DejaVuSans-78" d="M 3513 3500 
L 2247 1797 
L 3578 0 
L 2900 0 
L 1881 1375 
L 863 0 
L 184 0 
L 1544 1831 
L 300 3500 
L 978 3500 
L 1906 2253 
L 2834 3500 
L 3513 3500 
z
" transform="scale(0.015625)"/>
      <path id="DejaVuSans-5f" d="M 3263 -1063 
L 3263 -1509 
L -63 -1509 
L -63 -1063 
L 3263 -1063 
z
" transform="scale(0.015625)"/>
      <path id="DejaVuSans-54" d="M -19 4666 
L 3928 4666 
L 3928 4134 
L 2272 4134 
L 2272 0 
L 1638 0 
L 1638 4134 
L -19 4134 
L -19 4666 
z
" transform="scale(0.015625)"/>
     </defs>
     <use xlink:href="#DejaVuSans-78"/>
     <use xlink:href="#DejaVuSans-5f" transform="translate(59.179688 0)"/>
     <use xlink:href="#DejaVuSans-54" transform="translate(109.179688 0)"/>
    </g>
   </g>
   <g id="text_14">
    <!-- ... -->
    <g style="fill: #ffffff" transform="translate(360.029531 326.37085) scale(0.09 -0.09)">
     <defs>
      <path id="DejaVuSans-2e" d="M 684 794 
L 1344 794 
L 1344 0 
L 684 0 
L 684 794 
z
" transform="scale(0.015625)"/>
     </defs>
     <use xlink:href="#DejaVuSans-2e"/>
     <use xlink:href="#DejaVuSans-2e" transform="translate(31.787109 0)"/>
     <use xlink:href="#DejaVuSans-2e" transform="translate(63.574219 0)"/>
    </g>
   </g>
   <g id="text_15">
    <!-- x_1 -->
    <g style="fill: #111111" transform="translate(256.103437 326.120538) scale(0.09 -0.09)">
     <defs>
      <path id="DejaVuSans-31" d="M 794 531 
L 1825 531 
L 1825 4091 
L 703 3866 
L 703 4441 
L 1819 4666 
L 2450 4666 
L 2450 531 
L 3481 531 
L 3481 0 
L 794 0 
L 794 531 
z
" transform="scale(0.015625)"/>
     </defs>
     <use xlink:href="#DejaVuSans-78"/>
     <use xlink:href="#DejaVuSans-5f" transform="translate(59.179688 0)"/>
     <use xlink:href="#DejaVuSans-31" transform="translate(109.179688 0)"/>
    </g>
   </g>
   <g id="text_16">
    <!-- x_0 -->
    <g style="fill: #111111" transform="translate(155.663437 326.166241) scale(0.09 -0.09)">
     <use xlink:href="#DejaVuSans-78"/>
     <use xlink:href="#DejaVuSans-5f" transform="translate(59.179688 0)"/>
     <use xlink:href="#DejaVuSans-30" transform="translate(109.179688 0)"/>
    </g>
   </g>
   <g id="text_17">
    <!-- Diffusion Forward &amp; Reverse Process -->
    <g style="fill: #00d4aa" transform="translate(139.852969 17.837812) scale(0.14 -0.14)">
     <defs>
      <path id="DejaVuSans-Bold-66" d="M 2841 4863 
L 2841 4128 
L 2222 4128 
Q 1984 4128 1890 4042 
Q 1797 3956 1797 3744 
L 1797 3500 
L 2753 3500 
L 2753 2700 
L 1797 2700 
L 1797 0 
L 678 0 
L 678 2700 
L 122 2700 
L 122 3500 
L 678 3500 
L 678 3744 
Q 678 4316 997 4589 
Q 1316 4863 1984 4863 
L 2841 4863 
z
" transform="scale(0.015625)"/>
      <path id="DejaVuSans-Bold-6e" d="M 4056 2131 
L 4056 0 
L 2931 0 
L 2931 347 
L 2931 1631 
Q 2931 2084 2911 2256 
Q 2891 2428 2841 2509 
Q 2775 2619 2662 2680 
Q 2550 2741 2406 2741 
Q 2056 2741 1856 2470 
Q 1656 2200 1656 1722 
L 1656 0 
L 538 0 
L 538 3500 
L 1656 3500 
L 1656 2988 
Q 1909 3294 2193 3439 
Q 2478 3584 2822 3584 
Q 3428 3584 3742 3212 
Q 4056 2841 4056 2131 
z
" transform="scale(0.015625)"/>
      <path id="DejaVuSans-Bold-26" d="M 2497 3097 
L 3775 1691 
Q 3941 1909 4027 2181 
Q 4113 2453 4128 2797 
L 5100 2797 
Q 5053 2228 4879 1784 
Q 4706 1341 4397 1006 
L 5313 0 
L 3988 0 
L 3681 341 
Q 3353 122 2990 15 
Q 2628 -91 2222 -91 
Q 1400 -91 892 342 
Q 384 775 384 1459 
Q 384 1916 607 2267 
Q 831 2619 1338 2950 
Q 1206 3116 1143 3281 
Q 1081 3447 1081 3628 
Q 1081 4138 1478 4444 
Q 1875 4750 2534 4750 
Q 2819 4750 3126 4704 
Q 3434 4659 3769 4569 
L 3769 3700 
Q 3475 3850 3212 3922 
Q 2950 3994 2700 3994 
Q 2459 3994 2326 3901 
Q 2194 3809 2194 3641 
Q 2194 3534 2270 3398 
Q 2347 3263 2497 3097 
z
M 1875 2322 
Q 1672 2175 1569 1989 
Q 1466 1803 1466 1581 
Q 1466 1222 1731 969 
Q 1997 716 2369 716 
Q 2578 716 2759 780 
Q 2941 844 3097 972 
L 1875 2322 
z
" transform="scale(0.015625)"/>
     </defs>
     <use xlink:href="#DejaVuSans-Bold-44"/>
     <use xlink:href="#DejaVuSans-Bold-69" transform="translate(83.007812 0)"/>
     <use xlink:href="#DejaVuSans-Bold-66" transform="translate(117.285156 0)"/>
     <use xlink:href="#DejaVuSans-Bold-66" transform="translate(160.791016 0)"/>
     <use xlink:href="#DejaVuSans-Bold-75" transform="translate(204.296875 0)"/>
     <use xlink:href="#DejaVuSans-Bold-73" transform="translate(275.488281 0)"/>
     <use xlink:href="#DejaVuSans-Bold-69" transform="translate(335.009766 0)"/>
     <use xlink:href="#DejaVuSans-Bold-6f" transform="translate(369.287109 0)"/>
     <use xlink:href="#DejaVuSans-Bold-6e" transform="translate(437.988281 0)"/>
     <use xlink:href="#DejaVuSans-Bold-20" transform="translate(509.179688 0)"/>
     <use xlink:href="#DejaVuSans-Bold-46" transform="translate(543.994141 0)"/>
     <use xlink:href="#DejaVuSans-Bold-6f" transform="translate(608.304688 0)"/>
     <use xlink:href="#DejaVuSans-Bold-72" transform="translate(677.005859 0)"/>
     <use xlink:href="#DejaVuSans-Bold-77" transform="translate(726.322266 0)"/>
     <use xlink:href="#DejaVuSans-Bold-61" transform="translate(818.705078 0)"/>
     <use xlink:href="#DejaVuSans-Bold-72" transform="translate(886.185547 0)"/>
     <use xlink:href="#DejaVuSans-Bold-64" transform="translate(935.501953 0)"/>
     <use xlink:href="#DejaVuSans-Bold-20" transform="translate(1007.083984 0)"/>
     <use xlink:href="#DejaVuSans-Bold-26" transform="translate(1041.898438 0)"/>
     <use xlink:href="#DejaVuSans-Bold-20" transform="translate(1129.105469 0)"/>
     <use xlink:href="#DejaVuSans-Bold-52" transform="translate(1163.919922 0)"/>
     <use xlink:href="#DejaVuSans-Bold-65" transform="translate(1240.921875 0)"/>
     <use xlink:href="#DejaVuSans-Bold-76" transform="translate(1308.744141 0)"/>
     <use xlink:href="#DejaVuSans-Bold-65" transform="translate(1373.929688 0)"/>
     <use xlink:href="#DejaVuSans-Bold-72" transform="translate(1441.751953 0)"/>
     <use xlink:href="#DejaVuSans-Bold-73" transform="translate(1491.068359 0)"/>
     <use xlink:href="#DejaVuSans-Bold-65" transform="translate(1550.589844 0)"/>
     <use xlink:href="#DejaVuSans-Bold-20" transform="translate(1618.412109 0)"/>
     <use xlink:href="#DejaVuSans-Bold-50" transform="translate(1653.226562 0)"/>
     <use xlink:href="#DejaVuSans-Bold-72" transform="translate(1726.517578 0)"/>
     <use xlink:href="#DejaVuSans-Bold-6f" transform="translate(1775.833984 0)"/>
     <use xlink:href="#DejaVuSans-Bold-63" transform="translate(1844.535156 0)"/>
     <use xlink:href="#DejaVuSans-Bold-65" transform="translate(1903.8125 0)"/>
     <use xlink:href="#DejaVuSans-Bold-73" transform="translate(1971.634766 0)"/>
     <use xlink:href="#DejaVuSans-Bold-73" transform="translate(2031.15625 0)"/>
    </g>
   </g>
  </g>
 </g>
 <defs>
  <clipPath id="pa2e91055ce">
   <rect x="7.2" y="27.837812" width="558" height="332.64"/>
  </clipPath>
 </defs>
</svg>
