<?xml version="1.0" encoding="utf-8" standalone="no"?>
<!DOCTYPE svg PUBLIC "-//W3C//DTD SVG 1.1//EN"
  "http://www.w3.org/Graphics/SVG/1.1/DTD/svg11.dtd">
<svg xmlns:xlink="http://www.w3.org/1999/xlink" width="600.174141pt" height="312.237813pt" viewBox="0 0 600.174141 312.237813" xmlns="http://www.w3.org/2000/svg" version="1.1">
 <metadata>
  <rdf:RDF xmlns:dc="http://purl.org/dc/elements/1.1/" xmlns:cc="http://creativecommons.org/ns#" xmlns:rdf="http://www.w3.org/1999/02/22-rdf-syntax-ns#">
   <cc:Work>
    <dc:type rdf:resource="http://purl.org/dc/dcmitype/StillImage"/>
    <dc:date>2026-05-26T08:38:47.690249</dc:date>
    <dc:format>image/svg+xml</dc:format>
    <dc:creator>
     <cc:Agent>
      <dc:title>Matplotlib v3.10.9, https://matplotlib.org/</dc:title>
     </cc:Agent>
    </dc:creator>
   </cc:Work>
  </rdf:RDF>
 </metadata>
 <defs>
  <style type="text/css">*{stroke-linejoin: round; stroke-linecap: butt}</style>
 </defs>
 <g id="figure_1">
  <g id="patch_1">
   <path d="M 0 312.237813 
L 600.174141 312.237813 
L 600.174141 0 
L 0 0 
z
" style="fill: #1a1a2e"/>
  </g>
  <g id="axes_1">
   <g id="patch_2">
    <path d="M 42.354 208.572213 
L 167.346 208.572213 
Q 175.716 208.572213 175.716 204.414213 
L 175.716 192.217413 
Q 175.716 188.059413 167.346 188.059413 
L 42.354 188.059413 
Q 33.984 188.059413 33.984 192.217413 
L 33.984 204.414213 
Q 33.984 208.572213 42.354 208.572213 
z
" clip-path="url(#pcdfe0c4067)" style="fill: #1565c0; stroke: #555555; stroke-width: 1.5; stroke-linejoin: miter"/>
   </g>
   <g id="patch_3">
    <path d="M 42.354 250.152213 
L 167.346 250.152213 
Q 175.716 250.152213 175.716 245.994213 
L 175.716 233.797413 
Q 175.716 229.639413 167.346 229.639413 
L 42.354 229.639413 
Q 33.984 229.639413 33.984 233.797413 
L 33.984 245.994213 
Q 33.984 250.152213 42.354 250.152213 
z
" clip-path="url(#pcdfe0c4067)" style="fill: #c62828; stroke: #555555; stroke-width: 1.5; stroke-linejoin: miter"/>
   </g>
   <g id="patch_4">
    <path d="M 209.754 250.152213 
L 306.846 250.152213 
Q 315.216 250.152213 315.216 245.994213 
L 315.216 233.797413 
Q 315.216 229.639413 306.846 229.639413 
L 209.754 229.639413 
Q 201.384 229.639413 201.384 233.797413 
L 201.384 245.994213 
Q 201.384 250.152213 209.754 250.152213 
z
" clip-path="url(#pcdfe0c4067)" style="fill: #2e7d32; stroke: #555555; stroke-width: 1.5; stroke-linejoin: miter"/>
   </g>
   <g id="patch_5">
    <path d="M 209.754 291.732213 
L 306.846 291.732213 
Q 315.216 291.732213 315.216 287.574213 
L 315.216 275.377412 
Q 315.216 271.219413 306.846 271.219413 
L 209.754 271.219413 
Q 201.384 271.219413 201.384 275.377412 
L 201.384 287.574213 
Q 201.384 291.732213 209.754 291.732213 
z
" clip-path="url(#pcdfe0c4067)" style="fill: #ff8a65; stroke: #555555; stroke-width: 1.5; stroke-linejoin: miter"/>
   </g>
   <g id="patch_6">
    <path d="M 349.254 270.942213 
L 474.246 270.942213 
Q 482.616 270.942213 482.616 266.784213 
L 482.616 246.271412 
Q 482.616 242.113413 474.246 242.113413 
L 349.254 242.113413 
Q 340.884 242.113413 340.884 246.271412 
L 340.884 266.784213 
Q 340.884 270.942213 349.254 270.942213 
z
" clip-path="url(#pcdfe0c4067)" style="fill: #6a1b9a; stroke: #555555; stroke-width: 1.5; stroke-linejoin: miter"/>
   </g>
   <g id="patch_7">
    <path d="M 516.654 270.942213 
L 613.746 270.942213 
Q 622.116 270.942213 622.116 266.784213 
L 622.116 249.043413 
Q 622.116 244.885413 613.746 244.885413 
L 516.654 244.885413 
Q 508.284 244.885413 508.284 249.043413 
L 508.284 266.784213 
Q 508.284 270.942213 516.654 270.942213 
z
" clip-path="url(#pcdfe0c4067)" style="fill: #2e7d32; stroke: #555555; stroke-width: 1.5; stroke-linejoin: miter"/>
   </g>
   <g id="text_1">
    <!-- Prompt x -->
    <g style="fill: #eaeaea" transform="translate(81.710859 200.79925) scale(0.09 -0.09)">
     <defs>
      <path id="DejaVuSans-Bold-50" d="M 588 4666 
L 2584 4666 
Q 3475 4666 3951 4270 
Q 4428 3875 4428 3144 
Q 4428 2409 3951 2014 
Q 3475 1619 2584 1619 
L 1791 1619 
L 1791 0 
L 588 0 
L 588 4666 
z
M 1791 3794 
L 1791 2491 
L 2456 2491 
Q 2806 2491 2997 2661 
Q 3188 2831 3188 3144 
Q 3188 3456 2997 3625 
Q 2806 3794 2456 3794 
L 1791 3794 
z
" transform="scale(0.015625)"/>
      <path id="DejaVuSans-Bold-72" d="M 3138 2547 
Q 2991 2616 2845 2648 
Q 2700 2681 2553 2681 
Q 2122 2681 1889 2404 
Q 1656 2128 1656 1613 
L 1656 0 
L 538 0 
L 538 3500 
L 1656 3500 
L 1656 2925 
Q 1872 3269 2151 3426 
Q 2431 3584 2822 3584 
Q 2878 3584 2943 3579 
Q 3009 3575 3134 3559 
L 3138 2547 
z
" transform="scale(0.015625)"/>
      <path id="DejaVuSans-Bold-6f" d="M 2203 2784 
Q 1831 2784 1636 2517 
Q 1441 2250 1441 1747 
Q 1441 1244 1636 976 
Q 1831 709 2203 709 
Q 2569 709 2762 976 
Q 2956 1244 2956 1747 
Q 2956 2250 2762 2517 
Q 2569 2784 2203 2784 
z
M 2203 3584 
Q 3106 3584 3614 3096 
Q 4122 2609 4122 1747 
Q 4122 884 3614 396 
Q 3106 -91 2203 -91 
Q 1297 -91 786 396 
Q 275 884 275 1747 
Q 275 2609 786 3096 
Q 1297 3584 2203 3584 
z
" transform="scale(0.015625)"/>
      <path id="DejaVuSans-Bold-6d" d="M 3781 2919 
Q 3994 3244 4286 3414 
Q 4578 3584 4928 3584 
Q 5531 3584 5847 3212 
Q 6163 2841 6163 2131 
L 6163 0 
L 5038 0 
L 5038 1825 
Q 5041 1866 5042 1909 
Q 5044 1953 5044 2034 
Q 5044 2406 4934 2573 
Q 4825 2741 4581 2741 
Q 4263 2741 4089 2478 
Q 3916 2216 3909 1719 
L 3909 0 
L 2784 0 
L 2784 1825 
Q 2784 2406 2684 2573 
Q 2584 2741 2328 2741 
Q 2006 2741 1831 2477 
Q 1656 2213 1656 1722 
L 1656 0 
L 531 0 
L 531 3500 
L 1656 3500 
L 1656 2988 
Q 1863 3284 2130 3434 
Q 2397 3584 2719 3584 
Q 3081 3584 3359 3409 
Q 3638 3234 3781 2919 
z
" transform="scale(0.015625)"/>
      <path id="DejaVuSans-Bold-70" d="M 1656 506 
L 1656 -1331 
L 538 -1331 
L 538 3500 
L 1656 3500 
L 1656 2988 
Q 1888 3294 2169 3439 
Q 2450 3584 2816 3584 
Q 3463 3584 3878 3070 
Q 4294 2556 4294 1747 
Q 4294 938 3878 423 
Q 3463 -91 2816 -91 
Q 2450 -91 2169 54 
Q 1888 200 1656 506 
z
M 2400 2772 
Q 2041 2772 1848 2508 
Q 1656 2244 1656 1747 
Q 1656 1250 1848 986 
Q 2041 722 2400 722 
Q 2759 722 2948 984 
Q 3138 1247 3138 1747 
Q 3138 2247 2948 2509 
Q 2759 2772 2400 2772 
z
" transform="scale(0.015625)"/>
      <path id="DejaVuSans-Bold-74" d="M 1759 4494 
L 1759 3500 
L 2913 3500 
L 2913 2700 
L 1759 2700 
L 1759 1216 
Q 1759 972 1856 886 
Q 1953 800 2241 800 
L 2816 800 
L 2816 0 
L 1856 0 
Q 1194 0 917 276 
Q 641 553 641 1216 
L 641 2700 
L 84 2700 
L 84 3500 
L 641 3500 
L 641 4494 
L 1759 4494 
z
" transform="scale(0.015625)"/>
      <path id="DejaVuSans-Bold-20" transform="scale(0.015625)"/>
      <path id="DejaVuSans-Bold-78" d="M 1422 1791 
L 159 3500 
L 1344 3500 
L 2059 2463 
L 2784 3500 
L 3969 3500 
L 2706 1797 
L 4031 0 
L 2847 0 
L 2059 1106 
L 1281 0 
L 97 0 
L 1422 1791 
z
" transform="scale(0.015625)"/>
     </defs>
     <use xlink:href="#DejaVuSans-Bold-50"/>
     <use xlink:href="#DejaVuSans-Bold-72" transform="translate(73.291016 0)"/>
     <use xlink:href="#DejaVuSans-Bold-6f" transform="translate(122.607422 0)"/>
     <use xlink:href="#DejaVuSans-Bold-6d" transform="translate(191.308594 0)"/>
     <use xlink:href="#DejaVuSans-Bold-70" transform="translate(295.507812 0)"/>
     <use xlink:href="#DejaVuSans-Bold-74" transform="translate(367.089844 0)"/>
     <use xlink:href="#DejaVuSans-Bold-20" transform="translate(414.892578 0)"/>
     <use xlink:href="#DejaVuSans-Bold-78" transform="translate(449.707031 0)"/>
    </g>
   </g>
   <g id="patch_8">
    <path d="M 104.85 210.021692 
Q 104.85 217.72133 104.85 223.743918 
" style="fill: none; stroke: #00d4aa; stroke-width: 1.5; stroke-linecap: round"/>
    <path d="M 106.85 219.743918 
L 104.85 223.743918 
L 102.85 219.743918 
" style="fill: none; stroke: #00d4aa; stroke-width: 1.5; stroke-linecap: round"/>
   </g>
   <g id="text_2">
    <!-- Policy π_θ -->
    <g style="fill: #eaeaea" transform="translate(79.305469 242.28925) scale(0.09 -0.09)">
     <defs>
      <path id="DejaVuSans-Bold-6c" d="M 538 4863 
L 1656 4863 
L 1656 0 
L 538 0 
L 538 4863 
z
" transform="scale(0.015625)"/>
      <path id="DejaVuSans-Bold-69" d="M 538 3500 
L 1656 3500 
L 1656 0 
L 538 0 
L 538 3500 
z
M 538 4863 
L 1656 4863 
L 1656 3950 
L 538 3950 
L 538 4863 
z
" transform="scale(0.015625)"/>
      <path id="DejaVuSans-Bold-63" d="M 3366 3391 
L 3366 2478 
Q 3138 2634 2908 2709 
Q 2678 2784 2431 2784 
Q 1963 2784 1702 2511 
Q 1441 2238 1441 1747 
Q 1441 1256 1702 982 
Q 1963 709 2431 709 
Q 2694 709 2930 787 
Q 3166 866 3366 1019 
L 3366 103 
Q 3103 6 2833 -42 
Q 2563 -91 2291 -91 
Q 1344 -91 809 395 
Q 275 881 275 1747 
Q 275 2613 809 3098 
Q 1344 3584 2291 3584 
Q 2566 3584 2833 3536 
Q 3100 3488 3366 3391 
z
" transform="scale(0.015625)"/>
      <path id="DejaVuSans-Bold-79" d="M 78 3500 
L 1197 3500 
L 2138 1125 
L 2938 3500 
L 4056 3500 
L 2584 -331 
Q 2363 -916 2067 -1148 
Q 1772 -1381 1288 -1381 
L 641 -1381 
L 641 -647 
L 991 -647 
Q 1275 -647 1404 -556 
Q 1534 -466 1606 -231 
L 1638 -134 
L 78 3500 
z
" transform="scale(0.015625)"/>
      <path id="DejaVuSans-Bold-3c0" d="M 269 3500 
L 4684 3500 
L 4684 2700 
L 4072 2700 
L 4072 1131 
Q 4072 728 4148 629 
Q 4225 531 4400 531 
Q 4578 531 4678 544 
L 4678 -44 
Q 4484 -122 3822 -122 
Q 3613 -122 3409 -63 
Q 3084 34 2994 319 
Q 2953 453 2953 728 
L 2953 2700 
L 2000 2700 
L 2000 0 
L 881 0 
L 881 2700 
L 269 2700 
L 269 3500 
z
" transform="scale(0.015625)"/>
      <path id="DejaVuSans-Bold-5f" d="M 3200 -916 
L 3200 -1509 
L 0 -1509 
L 0 -916 
L 3200 -916 
z
" transform="scale(0.015625)"/>
      <path id="DejaVuSans-Bold-3b8" d="M 1447 2081 
Q 1469 1444 1638 1181 
Q 1922 728 2197 725 
Q 2475 722 2763 1181 
Q 2931 1453 2953 2081 
L 1447 2081 
z
M 2950 2881 
Q 2913 3394 2759 3688 
Q 2522 4144 2200 4144 
Q 1875 4144 1641 3688 
Q 1484 3384 1450 2881 
L 2950 2881 
z
M 2200 4913 
Q 3247 4913 3686 4231 
Q 4125 3550 4125 2403 
Q 4125 1256 3673 592 
Q 3222 -72 2200 -72 
Q 1178 -72 726 592 
Q 275 1256 275 2403 
Q 275 3550 714 4231 
Q 1153 4913 2200 4913 
z
" transform="scale(0.015625)"/>
     </defs>
     <use xlink:href="#DejaVuSans-Bold-50"/>
     <use xlink:href="#DejaVuSans-Bold-6f" transform="translate(73.291016 0)"/>
     <use xlink:href="#DejaVuSans-Bold-6c" transform="translate(141.992188 0)"/>
     <use xlink:href="#DejaVuSans-Bold-69" transform="translate(176.269531 0)"/>
     <use xlink:href="#DejaVuSans-Bold-63" transform="translate(210.546875 0)"/>
     <use xlink:href="#DejaVuSans-Bold-79" transform="translate(269.824219 0)"/>
     <use xlink:href="#DejaVuSans-Bold-20" transform="translate(335.009766 0)"/>
     <use xlink:href="#DejaVuSans-Bold-3c0" transform="translate(369.824219 0)"/>
     <use xlink:href="#DejaVuSans-Bold-5f" transform="translate(448.925781 0)"/>
     <use xlink:href="#DejaVuSans-Bold-3b8" transform="translate(498.925781 0)"/>
    </g>
   </g>
   <g id="patch_9">
    <path d="M 176.599182 239.895813 
Q 188.548906 239.895813 198.82158 239.895813 
" style="fill: none; stroke: #00d4aa; stroke-width: 1.5; stroke-linecap: round"/>
    <path d="M 194.82158 237.895813 
L 198.82158 239.895813 
L 194.82158 241.895813 
" style="fill: none; stroke: #00d4aa; stroke-width: 1.5; stroke-linecap: round"/>
   </g>
   <g id="text_3">
    <!-- y_w (win) -->
    <g style="fill: #eaeaea" transform="translate(234.375469 242.254094) scale(0.09 -0.09)">
     <defs>
      <path id="DejaVuSans-Bold-77" d="M 225 3500 
L 1313 3500 
L 1900 1088 
L 2491 3500 
L 3425 3500 
L 4013 1113 
L 4603 3500 
L 5691 3500 
L 4769 0 
L 3547 0 
L 2956 2406 
L 2369 0 
L 1147 0 
L 225 3500 
z
" transform="scale(0.015625)"/>
      <path id="DejaVuSans-Bold-28" d="M 2413 -844 
L 1484 -844 
Q 1006 -72 778 623 
Q 550 1319 550 2003 
Q 550 2688 779 3389 
Q 1009 4091 1484 4856 
L 2413 4856 
Q 2013 4116 1813 3408 
Q 1613 2700 1613 2009 
Q 1613 1319 1811 609 
Q 2009 -100 2413 -844 
z
" transform="scale(0.015625)"/>
      <path id="DejaVuSans-Bold-6e" d="M 4056 2131 
L 4056 0 
L 2931 0 
L 2931 347 
L 2931 1631 
Q 2931 2084 2911 2256 
Q 2891 2428 2841 2509 
Q 2775 2619 2662 2680 
Q 2550 2741 2406 2741 
Q 2056 2741 1856 2470 
Q 1656 2200 1656 1722 
L 1656 0 
L 538 0 
L 538 3500 
L 1656 3500 
L 1656 2988 
Q 1909 3294 2193 3439 
Q 2478 3584 2822 3584 
Q 3428 3584 3742 3212 
Q 4056 2841 4056 2131 
z
" transform="scale(0.015625)"/>
      <path id="DejaVuSans-Bold-29" d="M 513 -844 
Q 913 -100 1113 609 
Q 1313 1319 1313 2009 
Q 1313 2700 1113 3408 
Q 913 4116 513 4856 
L 1441 4856 
Q 1916 4091 2145 3389 
Q 2375 2688 2375 2003 
Q 2375 1319 2147 623 
Q 1919 -72 1441 -844 
L 513 -844 
z
" transform="scale(0.015625)"/>
     </defs>
     <use xlink:href="#DejaVuSans-Bold-79"/>
     <use xlink:href="#DejaVuSans-Bold-5f" transform="translate(65.185547 0)"/>
     <use xlink:href="#DejaVuSans-Bold-77" transform="translate(115.185547 0)"/>
     <use xlink:href="#DejaVuSans-Bold-20" transform="translate(207.568359 0)"/>
     <use xlink:href="#DejaVuSans-Bold-28" transform="translate(242.382812 0)"/>
     <use xlink:href="#DejaVuSans-Bold-77" transform="translate(288.085938 0)"/>
     <use xlink:href="#DejaVuSans-Bold-69" transform="translate(380.46875 0)"/>
     <use xlink:href="#DejaVuSans-Bold-6e" transform="translate(414.746094 0)"/>
     <use xlink:href="#DejaVuSans-Bold-29" transform="translate(485.9375 0)"/>
    </g>
   </g>
   <g id="patch_10">
    <path d="M 176.163245 249.45434 
Q 188.548785 259.298847 199.621471 268.099846 
" style="fill: none; stroke: #00d4aa; stroke-width: 1.5; stroke-linecap: round"/>
    <path d="M 197.734584 264.045261 
L 199.621471 268.099846 
L 195.245671 267.176605 
" style="fill: none; stroke: #00d4aa; stroke-width: 1.5; stroke-linecap: round"/>
   </g>
   <g id="text_4">
    <!-- y_l (lose) -->
    <g style="fill: #eaeaea" transform="translate(235.529297 283.834094) scale(0.09 -0.09)">
     <defs>
      <path id="DejaVuSans-Bold-73" d="M 3272 3391 
L 3272 2541 
Q 2913 2691 2578 2766 
Q 2244 2841 1947 2841 
Q 1628 2841 1473 2761 
Q 1319 2681 1319 2516 
Q 1319 2381 1436 2309 
Q 1553 2238 1856 2203 
L 2053 2175 
Q 2913 2066 3209 1816 
Q 3506 1566 3506 1031 
Q 3506 472 3093 190 
Q 2681 -91 1863 -91 
Q 1516 -91 1145 -36 
Q 775 19 384 128 
L 384 978 
Q 719 816 1070 734 
Q 1422 653 1784 653 
Q 2113 653 2278 743 
Q 2444 834 2444 1013 
Q 2444 1163 2330 1236 
Q 2216 1309 1875 1350 
L 1678 1375 
Q 931 1469 631 1722 
Q 331 1975 331 2491 
Q 331 3047 712 3315 
Q 1094 3584 1881 3584 
Q 2191 3584 2531 3537 
Q 2872 3491 3272 3391 
z
" transform="scale(0.015625)"/>
      <path id="DejaVuSans-Bold-65" d="M 4031 1759 
L 4031 1441 
L 1416 1441 
Q 1456 1047 1700 850 
Q 1944 653 2381 653 
Q 2734 653 3104 758 
Q 3475 863 3866 1075 
L 3866 213 
Q 3469 63 3072 -14 
Q 2675 -91 2278 -91 
Q 1328 -91 801 392 
Q 275 875 275 1747 
Q 275 2603 792 3093 
Q 1309 3584 2216 3584 
Q 3041 3584 3536 3087 
Q 4031 2591 4031 1759 
z
M 2881 2131 
Q 2881 2450 2695 2645 
Q 2509 2841 2209 2841 
Q 1884 2841 1681 2658 
Q 1478 2475 1428 2131 
L 2881 2131 
z
" transform="scale(0.015625)"/>
     </defs>
     <use xlink:href="#DejaVuSans-Bold-79"/>
     <use xlink:href="#DejaVuSans-Bold-5f" transform="translate(65.185547 0)"/>
     <use xlink:href="#DejaVuSans-Bold-6c" transform="translate(115.185547 0)"/>
     <use xlink:href="#DejaVuSans-Bold-20" transform="translate(149.462891 0)"/>
     <use xlink:href="#DejaVuSans-Bold-28" transform="translate(184.277344 0)"/>
     <use xlink:href="#DejaVuSans-Bold-6c" transform="translate(229.980469 0)"/>
     <use xlink:href="#DejaVuSans-Bold-6f" transform="translate(264.257812 0)"/>
     <use xlink:href="#DejaVuSans-Bold-73" transform="translate(332.958984 0)"/>
     <use xlink:href="#DejaVuSans-Bold-65" transform="translate(392.480469 0)"/>
     <use xlink:href="#DejaVuSans-Bold-29" transform="translate(460.302734 0)"/>
    </g>
   </g>
   <g id="text_5">
    <!-- Log Ratio -->
    <g style="fill: #eaeaea" transform="translate(390.386875 249.523313) scale(0.08 -0.08)">
     <defs>
      <path id="DejaVuSans-Bold-4c" d="M 588 4666 
L 1791 4666 
L 1791 909 
L 3903 909 
L 3903 0 
L 588 0 
L 588 4666 
z
" transform="scale(0.015625)"/>
      <path id="DejaVuSans-Bold-67" d="M 2919 594 
Q 2688 288 2409 144 
Q 2131 0 1766 0 
Q 1125 0 706 504 
Q 288 1009 288 1791 
Q 288 2575 706 3076 
Q 1125 3578 1766 3578 
Q 2131 3578 2409 3434 
Q 2688 3291 2919 2981 
L 2919 3500 
L 4044 3500 
L 4044 353 
Q 4044 -491 3511 -936 
Q 2978 -1381 1966 -1381 
Q 1638 -1381 1331 -1331 
Q 1025 -1281 716 -1178 
L 716 -306 
Q 1009 -475 1290 -558 
Q 1572 -641 1856 -641 
Q 2406 -641 2662 -400 
Q 2919 -159 2919 353 
L 2919 594 
z
M 2181 2772 
Q 1834 2772 1640 2515 
Q 1447 2259 1447 1791 
Q 1447 1309 1634 1061 
Q 1822 813 2181 813 
Q 2531 813 2725 1069 
Q 2919 1325 2919 1791 
Q 2919 2259 2725 2515 
Q 2531 2772 2181 2772 
z
" transform="scale(0.015625)"/>
      <path id="DejaVuSans-Bold-52" d="M 2297 2597 
Q 2675 2597 2839 2737 
Q 3003 2878 3003 3200 
Q 3003 3519 2839 3656 
Q 2675 3794 2297 3794 
L 1791 3794 
L 1791 2597 
L 2297 2597 
z
M 1791 1766 
L 1791 0 
L 588 0 
L 588 4666 
L 2425 4666 
Q 3347 4666 3776 4356 
Q 4206 4047 4206 3378 
Q 4206 2916 3982 2619 
Q 3759 2322 3309 2181 
Q 3556 2125 3751 1926 
Q 3947 1728 4147 1325 
L 4800 0 
L 3519 0 
L 2950 1159 
Q 2778 1509 2601 1637 
Q 2425 1766 2131 1766 
L 1791 1766 
z
" transform="scale(0.015625)"/>
      <path id="DejaVuSans-Bold-61" d="M 2106 1575 
Q 1756 1575 1579 1456 
Q 1403 1338 1403 1106 
Q 1403 894 1545 773 
Q 1688 653 1941 653 
Q 2256 653 2472 879 
Q 2688 1106 2688 1447 
L 2688 1575 
L 2106 1575 
z
M 3816 1997 
L 3816 0 
L 2688 0 
L 2688 519 
Q 2463 200 2181 54 
Q 1900 -91 1497 -91 
Q 953 -91 614 226 
Q 275 544 275 1050 
Q 275 1666 698 1953 
Q 1122 2241 2028 2241 
L 2688 2241 
L 2688 2328 
Q 2688 2594 2478 2717 
Q 2269 2841 1825 2841 
Q 1466 2841 1156 2769 
Q 847 2697 581 2553 
L 581 3406 
Q 941 3494 1303 3539 
Q 1666 3584 2028 3584 
Q 2975 3584 3395 3211 
Q 3816 2838 3816 1997 
z
" transform="scale(0.015625)"/>
     </defs>
     <use xlink:href="#DejaVuSans-Bold-4c"/>
     <use xlink:href="#DejaVuSans-Bold-6f" transform="translate(63.720703 0)"/>
     <use xlink:href="#DejaVuSans-Bold-67" transform="translate(132.421875 0)"/>
     <use xlink:href="#DejaVuSans-Bold-20" transform="translate(204.003906 0)"/>
     <use xlink:href="#DejaVuSans-Bold-52" transform="translate(238.818359 0)"/>
     <use xlink:href="#DejaVuSans-Bold-61" transform="translate(315.820312 0)"/>
     <use xlink:href="#DejaVuSans-Bold-74" transform="translate(383.300781 0)"/>
     <use xlink:href="#DejaVuSans-Bold-69" transform="translate(431.103516 0)"/>
     <use xlink:href="#DejaVuSans-Bold-6f" transform="translate(465.380859 0)"/>
    </g>
    <!-- log[π(y_w)/π_ref(y_w)] -->
    <g style="fill: #eaeaea" transform="translate(360.976875 258.544062) scale(0.08 -0.08)">
     <defs>
      <path id="DejaVuSans-Bold-5b" d="M 550 4863 
L 2491 4863 
L 2491 4159 
L 1613 4159 
L 1613 -141 
L 2491 -141 
L 2491 -844 
L 550 -844 
L 550 4863 
z
" transform="scale(0.015625)"/>
      <path id="DejaVuSans-Bold-2f" d="M 1644 4666 
L 2338 4666 
L 691 -594 
L 0 -594 
L 1644 4666 
z
" transform="scale(0.015625)"/>
      <path id="DejaVuSans-Bold-66" d="M 2841 4863 
L 2841 4128 
L 2222 4128 
Q 1984 4128 1890 4042 
Q 1797 3956 1797 3744 
L 1797 3500 
L 2753 3500 
L 2753 2700 
L 1797 2700 
L 1797 0 
L 678 0 
L 678 2700 
L 122 2700 
L 122 3500 
L 678 3500 
L 678 3744 
Q 678 4316 997 4589 
Q 1316 4863 1984 4863 
L 2841 4863 
z
" transform="scale(0.015625)"/>
      <path id="DejaVuSans-Bold-5d" d="M 2375 -844 
L 434 -844 
L 434 -141 
L 1313 -141 
L 1313 4159 
L 434 4159 
L 434 4863 
L 2375 4863 
L 2375 -844 
z
" transform="scale(0.015625)"/>
     </defs>
     <use xlink:href="#DejaVuSans-Bold-6c"/>
     <use xlink:href="#DejaVuSans-Bold-6f" transform="translate(34.277344 0)"/>
     <use xlink:href="#DejaVuSans-Bold-67" transform="translate(102.978516 0)"/>
     <use xlink:href="#DejaVuSans-Bold-5b" transform="translate(174.560547 0)"/>
     <use xlink:href="#DejaVuSans-Bold-3c0" transform="translate(220.263672 0)"/>
     <use xlink:href="#DejaVuSans-Bold-28" transform="translate(299.365234 0)"/>
     <use xlink:href="#DejaVuSans-Bold-79" transform="translate(345.068359 0)"/>
     <use xlink:href="#DejaVuSans-Bold-5f" transform="translate(410.253906 0)"/>
     <use xlink:href="#DejaVuSans-Bold-77" transform="translate(460.253906 0)"/>
     <use xlink:href="#DejaVuSans-Bold-29" transform="translate(552.636719 0)"/>
     <use xlink:href="#DejaVuSans-Bold-2f" transform="translate(598.339844 0)"/>
     <use xlink:href="#DejaVuSans-Bold-3c0" transform="translate(634.863281 0)"/>
     <use xlink:href="#DejaVuSans-Bold-5f" transform="translate(713.964844 0)"/>
     <use xlink:href="#DejaVuSans-Bold-72" transform="translate(763.964844 0)"/>
     <use xlink:href="#DejaVuSans-Bold-65" transform="translate(813.28125 0)"/>
     <use xlink:href="#DejaVuSans-Bold-66" transform="translate(881.103516 0)"/>
     <use xlink:href="#DejaVuSans-Bold-28" transform="translate(924.609375 0)"/>
     <use xlink:href="#DejaVuSans-Bold-79" transform="translate(970.3125 0)"/>
     <use xlink:href="#DejaVuSans-Bold-5f" transform="translate(1035.498047 0)"/>
     <use xlink:href="#DejaVuSans-Bold-77" transform="translate(1085.498047 0)"/>
     <use xlink:href="#DejaVuSans-Bold-29" transform="translate(1177.880859 0)"/>
     <use xlink:href="#DejaVuSans-Bold-5d" transform="translate(1223.583984 0)"/>
    </g>
    <!-- - log[π(y_l)/π_ref(y_l)] -->
    <g style="fill: #eaeaea" transform="translate(362.573125 267.724812) scale(0.08 -0.08)">
     <defs>
      <path id="DejaVuSans-Bold-2d" d="M 347 2297 
L 2309 2297 
L 2309 1388 
L 347 1388 
L 347 2297 
z
" transform="scale(0.015625)"/>
     </defs>
     <use xlink:href="#DejaVuSans-Bold-2d"/>
     <use xlink:href="#DejaVuSans-Bold-20" transform="translate(41.503906 0)"/>
     <use xlink:href="#DejaVuSans-Bold-6c" transform="translate(76.318359 0)"/>
     <use xlink:href="#DejaVuSans-Bold-6f" transform="translate(110.595703 0)"/>
     <use xlink:href="#DejaVuSans-Bold-67" transform="translate(179.296875 0)"/>
     <use xlink:href="#DejaVuSans-Bold-5b" transform="translate(250.878906 0)"/>
     <use xlink:href="#DejaVuSans-Bold-3c0" transform="translate(296.582031 0)"/>
     <use xlink:href="#DejaVuSans-Bold-28" transform="translate(375.683594 0)"/>
     <use xlink:href="#DejaVuSans-Bold-79" transform="translate(421.386719 0)"/>
     <use xlink:href="#DejaVuSans-Bold-5f" transform="translate(486.572266 0)"/>
     <use xlink:href="#DejaVuSans-Bold-6c" transform="translate(536.572266 0)"/>
     <use xlink:href="#DejaVuSans-Bold-29" transform="translate(570.849609 0)"/>
     <use xlink:href="#DejaVuSans-Bold-2f" transform="translate(616.552734 0)"/>
     <use xlink:href="#DejaVuSans-Bold-3c0" transform="translate(653.076172 0)"/>
     <use xlink:href="#DejaVuSans-Bold-5f" transform="translate(732.177734 0)"/>
     <use xlink:href="#DejaVuSans-Bold-72" transform="translate(782.177734 0)"/>
     <use xlink:href="#DejaVuSans-Bold-65" transform="translate(831.494141 0)"/>
     <use xlink:href="#DejaVuSans-Bold-66" transform="translate(899.316406 0)"/>
     <use xlink:href="#DejaVuSans-Bold-28" transform="translate(942.822266 0)"/>
     <use xlink:href="#DejaVuSans-Bold-79" transform="translate(988.525391 0)"/>
     <use xlink:href="#DejaVuSans-Bold-5f" transform="translate(1053.710938 0)"/>
     <use xlink:href="#DejaVuSans-Bold-6c" transform="translate(1103.710938 0)"/>
     <use xlink:href="#DejaVuSans-Bold-29" transform="translate(1137.988281 0)"/>
     <use xlink:href="#DejaVuSans-Bold-5d" transform="translate(1183.691406 0)"/>
    </g>
   </g>
   <g id="patch_11">
    <path d="M 315.81991 240.921101 
Q 328.051879 248.212933 338.843335 254.646033 
" style="fill: none; stroke: #00d4aa; stroke-width: 1.5; stroke-linecap: round"/>
    <path d="M 336.431608 250.879925 
L 338.843335 254.646033 
L 334.383412 254.315751 
" style="fill: none; stroke: #00d4aa; stroke-width: 1.5; stroke-linecap: round"/>
   </g>
   <g id="patch_12">
    <path d="M 315.95614 280.738146 
Q 328.048159 275.932544 338.581693 271.746314 
" style="fill: none; stroke: #00d4aa; stroke-width: 1.5; stroke-linecap: round"/>
    <path d="M 334.125843 271.365001 
L 338.581693 271.746314 
L 335.603132 275.082206 
" style="fill: none; stroke: #00d4aa; stroke-width: 1.5; stroke-linecap: round"/>
   </g>
   <g id="patch_13">
    <path d="M 483.499182 256.527812 
Q 495.448906 256.527812 505.72158 256.527812 
" style="fill: none; stroke: #00d4aa; stroke-width: 1.5; stroke-linecap: round"/>
    <path d="M 501.72158 254.527813 
L 505.72158 256.527812 
L 501.72158 258.527812 
" style="fill: none; stroke: #00d4aa; stroke-width: 1.5; stroke-linecap: round"/>
   </g>
   <g id="text_6">
    <!-- Maximize -->
    <g style="fill: #eaeaea" transform="translate(541.336641 255.358234) scale(0.09 -0.09)">
     <defs>
      <path id="DejaVuSans-Bold-4d" d="M 588 4666 
L 2119 4666 
L 3181 2169 
L 4250 4666 
L 5778 4666 
L 5778 0 
L 4641 0 
L 4641 3413 
L 3566 897 
L 2803 897 
L 1728 3413 
L 1728 0 
L 588 0 
L 588 4666 
z
" transform="scale(0.015625)"/>
      <path id="DejaVuSans-Bold-7a" d="M 366 3500 
L 3419 3500 
L 3419 2719 
L 1575 800 
L 3419 800 
L 3419 0 
L 288 0 
L 288 781 
L 2131 2700 
L 366 2700 
L 366 3500 
z
" transform="scale(0.015625)"/>
     </defs>
     <use xlink:href="#DejaVuSans-Bold-4d"/>
     <use xlink:href="#DejaVuSans-Bold-61" transform="translate(99.511719 0)"/>
     <use xlink:href="#DejaVuSans-Bold-78" transform="translate(166.992188 0)"/>
     <use xlink:href="#DejaVuSans-Bold-69" transform="translate(231.494141 0)"/>
     <use xlink:href="#DejaVuSans-Bold-6d" transform="translate(265.771484 0)"/>
     <use xlink:href="#DejaVuSans-Bold-69" transform="translate(369.970703 0)"/>
     <use xlink:href="#DejaVuSans-Bold-7a" transform="translate(404.248047 0)"/>
     <use xlink:href="#DejaVuSans-Bold-65" transform="translate(462.451172 0)"/>
    </g>
    <!-- Preference -->
    <g style="fill: #eaeaea" transform="translate(537.425859 265.436266) scale(0.09 -0.09)">
     <use xlink:href="#DejaVuSans-Bold-50"/>
     <use xlink:href="#DejaVuSans-Bold-72" transform="translate(73.291016 0)"/>
     <use xlink:href="#DejaVuSans-Bold-65" transform="translate(122.607422 0)"/>
     <use xlink:href="#DejaVuSans-Bold-66" transform="translate(190.429688 0)"/>
     <use xlink:href="#DejaVuSans-Bold-65" transform="translate(233.935547 0)"/>
     <use xlink:href="#DejaVuSans-Bold-72" transform="translate(301.757812 0)"/>
     <use xlink:href="#DejaVuSans-Bold-65" transform="translate(351.074219 0)"/>
     <use xlink:href="#DejaVuSans-Bold-6e" transform="translate(418.896484 0)"/>
     <use xlink:href="#DejaVuSans-Bold-63" transform="translate(490.087891 0)"/>
     <use xlink:href="#DejaVuSans-Bold-65" transform="translate(549.365234 0)"/>
    </g>
   </g>
   <g id="text_7">
    <!-- DPO: Direct Preference Optimization -->
    <g style="fill: #00d4aa" transform="translate(141.350312 17.837812) scale(0.14 -0.14)">
     <defs>
      <path id="DejaVuSans-Bold-44" d="M 1791 3756 
L 1791 909 
L 2222 909 
Q 2959 909 3348 1275 
Q 3738 1641 3738 2338 
Q 3738 3031 3350 3393 
Q 2963 3756 2222 3756 
L 1791 3756 
z
M 588 4666 
L 1856 4666 
Q 2919 4666 3439 4514 
Q 3959 4363 4331 4000 
Q 4659 3684 4818 3271 
Q 4978 2859 4978 2338 
Q 4978 1809 4818 1395 
Q 4659 981 4331 666 
Q 3956 303 3431 151 
Q 2906 0 1856 0 
L 588 0 
L 588 4666 
z
" transform="scale(0.015625)"/>
      <path id="DejaVuSans-Bold-4f" d="M 2719 3878 
Q 2169 3878 1866 3472 
Q 1563 3066 1563 2328 
Q 1563 1594 1866 1187 
Q 2169 781 2719 781 
Q 3272 781 3575 1187 
Q 3878 1594 3878 2328 
Q 3878 3066 3575 3472 
Q 3272 3878 2719 3878 
z
M 2719 4750 
Q 3844 4750 4481 4106 
Q 5119 3463 5119 2328 
Q 5119 1197 4481 553 
Q 3844 -91 2719 -91 
Q 1597 -91 958 553 
Q 319 1197 319 2328 
Q 319 3463 958 4106 
Q 1597 4750 2719 4750 
z
" transform="scale(0.015625)"/>
      <path id="DejaVuSans-Bold-3a" d="M 716 3500 
L 1844 3500 
L 1844 2291 
L 716 2291 
L 716 3500 
z
M 716 1209 
L 1844 1209 
L 1844 0 
L 716 0 
L 716 1209 
z
" transform="scale(0.015625)"/>
     </defs>
     <use xlink:href="#DejaVuSans-Bold-44"/>
     <use xlink:href="#DejaVuSans-Bold-50" transform="translate(83.007812 0)"/>
     <use xlink:href="#DejaVuSans-Bold-4f" transform="translate(156.298828 0)"/>
     <use xlink:href="#DejaVuSans-Bold-3a" transform="translate(241.308594 0)"/>
     <use xlink:href="#DejaVuSans-Bold-20" transform="translate(281.298828 0)"/>
     <use xlink:href="#DejaVuSans-Bold-44" transform="translate(316.113281 0)"/>
     <use xlink:href="#DejaVuSans-Bold-69" transform="translate(399.121094 0)"/>
     <use xlink:href="#DejaVuSans-Bold-72" transform="translate(433.398438 0)"/>
     <use xlink:href="#DejaVuSans-Bold-65" transform="translate(482.714844 0)"/>
     <use xlink:href="#DejaVuSans-Bold-63" transform="translate(550.537109 0)"/>
     <use xlink:href="#DejaVuSans-Bold-74" transform="translate(609.814453 0)"/>
     <use xlink:href="#DejaVuSans-Bold-20" transform="translate(657.617188 0)"/>
     <use xlink:href="#DejaVuSans-Bold-50" transform="translate(692.431641 0)"/>
     <use xlink:href="#DejaVuSans-Bold-72" transform="translate(765.722656 0)"/>
     <use xlink:href="#DejaVuSans-Bold-65" transform="translate(815.039062 0)"/>
     <use xlink:href="#DejaVuSans-Bold-66" transform="translate(882.861328 0)"/>
     <use xlink:href="#DejaVuSans-Bold-65" transform="translate(926.367188 0)"/>
     <use xlink:href="#DejaVuSans-Bold-72" transform="translate(994.189453 0)"/>
     <use xlink:href="#DejaVuSans-Bold-65" transform="translate(1043.505859 0)"/>
     <use xlink:href="#DejaVuSans-Bold-6e" transform="translate(1111.328125 0)"/>
     <use xlink:href="#DejaVuSans-Bold-63" transform="translate(1182.519531 0)"/>
     <use xlink:href="#DejaVuSans-Bold-65" transform="translate(1241.796875 0)"/>
     <use xlink:href="#DejaVuSans-Bold-20" transform="translate(1309.619141 0)"/>
     <use xlink:href="#DejaVuSans-Bold-4f" transform="translate(1344.433594 0)"/>
     <use xlink:href="#DejaVuSans-Bold-70" transform="translate(1429.443359 0)"/>
     <use xlink:href="#DejaVuSans-Bold-74" transform="translate(1501.025391 0)"/>
     <use xlink:href="#DejaVuSans-Bold-69" transform="translate(1548.828125 0)"/>
     <use xlink:href="#DejaVuSans-Bold-6d" transform="translate(1583.105469 0)"/>
     <use xlink:href="#DejaVuSans-Bold-69" transform="translate(1687.304688 0)"/>
     <use xlink:href="#DejaVuSans-Bold-7a" transform="translate(1721.582031 0)"/>
     <use xlink:href="#DejaVuSans-Bold-61" transform="translate(1779.785156 0)"/>
     <use xlink:href="#DejaVuSans-Bold-74" transform="translate(1847.265625 0)"/>
     <use xlink:href="#DejaVuSans-Bold-69" transform="translate(1895.068359 0)"/>
     <use xlink:href="#DejaVuSans-Bold-6f" transform="translate(1929.345703 0)"/>
     <use xlink:href="#DejaVuSans-Bold-6e" transform="translate(1998.046875 0)"/>
    </g>
   </g>
  </g>
 </g>
 <defs>
  <clipPath id="pcdfe0c4067">
   <rect x="7.2" y="27.837812" width="558" height="277.2"/>
  </clipPath>
 </defs>
</svg>
