<?xml version="1.0" encoding="utf-8" standalone="no"?>
<!DOCTYPE svg PUBLIC "-//W3C//DTD SVG 1.1//EN"
  "http://www.w3.org/Graphics/SVG/1.1/DTD/svg11.dtd">
<svg xmlns:xlink="http://www.w3.org/1999/xlink" width="572.4pt" height="367.677813pt" viewBox="0 0 572.4 367.677813" xmlns="http://www.w3.org/2000/svg" version="1.1">
 <metadata>
  <rdf:RDF xmlns:dc="http://purl.org/dc/elements/1.1/" xmlns:cc="http://creativecommons.org/ns#" xmlns:rdf="http://www.w3.org/1999/02/22-rdf-syntax-ns#">
   <cc:Work>
    <dc:type rdf:resource="http://purl.org/dc/dcmitype/StillImage"/>
    <dc:date>2026-05-26T08:38:47.307750</dc:date>
    <dc:format>image/svg+xml</dc:format>
    <dc:creator>
     <cc:Agent>
      <dc:title>Matplotlib v3.10.9, https://matplotlib.org/</dc:title>
     </cc:Agent>
    </dc:creator>
   </cc:Work>
  </rdf:RDF>
 </metadata>
 <defs>
  <style type="text/css">*{stroke-linejoin: round; stroke-linecap: butt}</style>
 </defs>
 <g id="figure_1">
  <g id="patch_1">
   <path d="M 0 367.677813 
L 572.4 367.677813 
L 572.4 0 
L 0 0 
z
" style="fill: #1a1a2e"/>
  </g>
  <g id="axes_1">
   <g id="patch_2">
    <path d="M 42.354 211.455093 
L 167.346 211.455093 
Q 175.716 211.455093 175.716 206.465492 
L 175.716 188.502933 
Q 175.716 183.513332 167.346 183.513332 
L 42.354 183.513332 
Q 33.984 183.513332 33.984 188.502933 
L 33.984 206.465492 
Q 33.984 211.455093 42.354 211.455093 
z
" clip-path="url(#p793e3c0034)" style="fill: #1565c0; stroke: #555555; stroke-width: 1.5; stroke-linejoin: miter"/>
   </g>
   <g id="patch_3">
    <path d="M 42.354 261.351093 
L 167.346 261.351093 
Q 175.716 261.351093 175.716 256.361493 
L 175.716 241.725333 
Q 175.716 236.735733 167.346 236.735733 
L 42.354 236.735733 
Q 33.984 236.735733 33.984 241.725333 
L 33.984 256.361493 
Q 33.984 261.351093 42.354 261.351093 
z
" clip-path="url(#p793e3c0034)" style="fill: #c62828; stroke: #555555; stroke-width: 1.5; stroke-linejoin: miter"/>
   </g>
   <g id="patch_4">
    <path d="M 42.354 311.247093 
L 167.346 311.247093 
Q 175.716 311.247093 175.716 306.257493 
L 175.716 291.621332 
Q 175.716 286.631732 167.346 286.631732 
L 42.354 286.631732 
Q 33.984 286.631732 33.984 291.621332 
L 33.984 306.257493 
Q 33.984 311.247093 42.354 311.247093 
z
" clip-path="url(#p793e3c0034)" style="fill: #6a1b9a; stroke: #555555; stroke-width: 1.5; stroke-linejoin: miter"/>
   </g>
   <g id="patch_5">
    <path d="M 405.054 178.191092 
L 530.046 178.191092 
Q 538.416 178.191092 538.416 173.201492 
L 538.416 161.891733 
Q 538.416 156.902132 530.046 156.902132 
L 405.054 156.902132 
Q 396.684 156.902132 396.684 161.891733 
L 396.684 173.201492 
Q 396.684 178.191092 405.054 178.191092 
z
" clip-path="url(#p793e3c0034)" style="fill: #1565c0; stroke: #555555; stroke-width: 1.5; stroke-linejoin: miter"/>
   </g>
   <g id="patch_6">
    <path d="M 405.054 277.983092 
L 530.046 277.983092 
Q 538.416 277.983092 538.416 272.993493 
L 538.416 248.378133 
Q 538.416 243.388532 530.046 243.388532 
L 405.054 243.388532 
Q 396.684 243.388532 396.684 248.378133 
L 396.684 272.993493 
Q 396.684 277.983092 405.054 277.983092 
z
" clip-path="url(#p793e3c0034)" style="fill: #c62828; stroke: #555555; stroke-width: 1.5; stroke-linejoin: miter"/>
   </g>
   <g id="patch_7">
    <path d="M 405.054 344.511093 
L 530.046 344.511093 
Q 538.416 344.511093 538.416 339.521493 
L 538.416 318.232533 
Q 538.416 313.242933 530.046 313.242933 
L 405.054 313.242933 
Q 396.684 313.242933 396.684 318.232533 
L 396.684 339.521493 
Q 396.684 344.511093 405.054 344.511093 
z
" clip-path="url(#p793e3c0034)" style="fill: #2e7d32; stroke: #555555; stroke-width: 1.5; stroke-linejoin: miter"/>
   </g>
   <g id="text_1">
    <!-- Noise z ~ p(z) -->
    <g style="fill: #eaeaea" transform="translate(69.676172 199.96765) scale(0.09 -0.09)">
     <defs>
      <path id="DejaVuSans-Bold-4e" d="M 588 4666 
L 1931 4666 
L 3628 1466 
L 3628 4666 
L 4769 4666 
L 4769 0 
L 3425 0 
L 1728 3200 
L 1728 0 
L 588 0 
L 588 4666 
z
" transform="scale(0.015625)"/>
      <path id="DejaVuSans-Bold-6f" d="M 2203 2784 
Q 1831 2784 1636 2517 
Q 1441 2250 1441 1747 
Q 1441 1244 1636 976 
Q 1831 709 2203 709 
Q 2569 709 2762 976 
Q 2956 1244 2956 1747 
Q 2956 2250 2762 2517 
Q 2569 2784 2203 2784 
z
M 2203 3584 
Q 3106 3584 3614 3096 
Q 4122 2609 4122 1747 
Q 4122 884 3614 396 
Q 3106 -91 2203 -91 
Q 1297 -91 786 396 
Q 275 884 275 1747 
Q 275 2609 786 3096 
Q 1297 3584 2203 3584 
z
" transform="scale(0.015625)"/>
      <path id="DejaVuSans-Bold-69" d="M 538 3500 
L 1656 3500 
L 1656 0 
L 538 0 
L 538 3500 
z
M 538 4863 
L 1656 4863 
L 1656 3950 
L 538 3950 
L 538 4863 
z
" transform="scale(0.015625)"/>
      <path id="DejaVuSans-Bold-73" d="M 3272 3391 
L 3272 2541 
Q 2913 2691 2578 2766 
Q 2244 2841 1947 2841 
Q 1628 2841 1473 2761 
Q 1319 2681 1319 2516 
Q 1319 2381 1436 2309 
Q 1553 2238 1856 2203 
L 2053 2175 
Q 2913 2066 3209 1816 
Q 3506 1566 3506 1031 
Q 3506 472 3093 190 
Q 2681 -91 1863 -91 
Q 1516 -91 1145 -36 
Q 775 19 384 128 
L 384 978 
Q 719 816 1070 734 
Q 1422 653 1784 653 
Q 2113 653 2278 743 
Q 2444 834 2444 1013 
Q 2444 1163 2330 1236 
Q 2216 1309 1875 1350 
L 1678 1375 
Q 931 1469 631 1722 
Q 331 1975 331 2491 
Q 331 3047 712 3315 
Q 1094 3584 1881 3584 
Q 2191 3584 2531 3537 
Q 2872 3491 3272 3391 
z
" transform="scale(0.015625)"/>
      <path id="DejaVuSans-Bold-65" d="M 4031 1759 
L 4031 1441 
L 1416 1441 
Q 1456 1047 1700 850 
Q 1944 653 2381 653 
Q 2734 653 3104 758 
Q 3475 863 3866 1075 
L 3866 213 
Q 3469 63 3072 -14 
Q 2675 -91 2278 -91 
Q 1328 -91 801 392 
Q 275 875 275 1747 
Q 275 2603 792 3093 
Q 1309 3584 2216 3584 
Q 3041 3584 3536 3087 
Q 4031 2591 4031 1759 
z
M 2881 2131 
Q 2881 2450 2695 2645 
Q 2509 2841 2209 2841 
Q 1884 2841 1681 2658 
Q 1478 2475 1428 2131 
L 2881 2131 
z
" transform="scale(0.015625)"/>
      <path id="DejaVuSans-Bold-20" transform="scale(0.015625)"/>
      <path id="DejaVuSans-Bold-7a" d="M 366 3500 
L 3419 3500 
L 3419 2719 
L 1575 800 
L 3419 800 
L 3419 0 
L 288 0 
L 288 781 
L 2131 2700 
L 366 2700 
L 366 3500 
z
" transform="scale(0.015625)"/>
      <path id="DejaVuSans-Bold-7e" d="M 4684 2656 
L 4684 1894 
Q 4353 1644 4073 1536 
Q 3794 1428 3494 1428 
Q 3159 1428 2713 1609 
Q 2669 1628 2644 1638 
Q 2622 1647 2575 1666 
Q 2091 1856 1797 1856 
Q 1522 1856 1253 1736 
Q 984 1616 678 1356 
L 678 2119 
Q 1013 2369 1291 2476 
Q 1569 2584 1869 2584 
Q 2203 2584 2650 2403 
Q 2697 2384 2719 2375 
Q 2741 2366 2788 2347 
Q 3272 2156 3566 2156 
Q 3834 2156 4098 2273 
Q 4363 2391 4684 2656 
z
" transform="scale(0.015625)"/>
      <path id="DejaVuSans-Bold-70" d="M 1656 506 
L 1656 -1331 
L 538 -1331 
L 538 3500 
L 1656 3500 
L 1656 2988 
Q 1888 3294 2169 3439 
Q 2450 3584 2816 3584 
Q 3463 3584 3878 3070 
Q 4294 2556 4294 1747 
Q 4294 938 3878 423 
Q 3463 -91 2816 -91 
Q 2450 -91 2169 54 
Q 1888 200 1656 506 
z
M 2400 2772 
Q 2041 2772 1848 2508 
Q 1656 2244 1656 1747 
Q 1656 1250 1848 986 
Q 2041 722 2400 722 
Q 2759 722 2948 984 
Q 3138 1247 3138 1747 
Q 3138 2247 2948 2509 
Q 2759 2772 2400 2772 
z
" transform="scale(0.015625)"/>
      <path id="DejaVuSans-Bold-28" d="M 2413 -844 
L 1484 -844 
Q 1006 -72 778 623 
Q 550 1319 550 2003 
Q 550 2688 779 3389 
Q 1009 4091 1484 4856 
L 2413 4856 
Q 2013 4116 1813 3408 
Q 1613 2700 1613 2009 
Q 1613 1319 1811 609 
Q 2009 -100 2413 -844 
z
" transform="scale(0.015625)"/>
      <path id="DejaVuSans-Bold-29" d="M 513 -844 
Q 913 -100 1113 609 
Q 1313 1319 1313 2009 
Q 1313 2700 1113 3408 
Q 913 4116 513 4856 
L 1441 4856 
Q 1916 4091 2145 3389 
Q 2375 2688 2375 2003 
Q 2375 1319 2147 623 
Q 1919 -72 1441 -844 
L 513 -844 
z
" transform="scale(0.015625)"/>
     </defs>
     <use xlink:href="#DejaVuSans-Bold-4e"/>
     <use xlink:href="#DejaVuSans-Bold-6f" transform="translate(83.691406 0)"/>
     <use xlink:href="#DejaVuSans-Bold-69" transform="translate(152.392578 0)"/>
     <use xlink:href="#DejaVuSans-Bold-73" transform="translate(186.669922 0)"/>
     <use xlink:href="#DejaVuSans-Bold-65" transform="translate(246.191406 0)"/>
     <use xlink:href="#DejaVuSans-Bold-20" transform="translate(314.013672 0)"/>
     <use xlink:href="#DejaVuSans-Bold-7a" transform="translate(348.828125 0)"/>
     <use xlink:href="#DejaVuSans-Bold-20" transform="translate(407.03125 0)"/>
     <use xlink:href="#DejaVuSans-Bold-7e" transform="translate(441.845703 0)"/>
     <use xlink:href="#DejaVuSans-Bold-20" transform="translate(525.634766 0)"/>
     <use xlink:href="#DejaVuSans-Bold-70" transform="translate(560.449219 0)"/>
     <use xlink:href="#DejaVuSans-Bold-28" transform="translate(632.03125 0)"/>
     <use xlink:href="#DejaVuSans-Bold-7a" transform="translate(677.734375 0)"/>
     <use xlink:href="#DejaVuSans-Bold-29" transform="translate(735.9375 0)"/>
    </g>
   </g>
   <g id="patch_8">
    <path d="M 104.85 212.788008 
Q 104.85 222.432201 104.85 230.399344 
" style="fill: none; stroke: #00d4aa; stroke-width: 1.5; stroke-linecap: round"/>
    <path d="M 106.85 226.399344 
L 104.85 230.399344 
L 102.85 226.399344 
" style="fill: none; stroke: #00d4aa; stroke-width: 1.5; stroke-linecap: round"/>
   </g>
   <g id="text_2">
    <!-- Generator G -->
    <g style="fill: #eaeaea" transform="translate(73.871016 251.52685) scale(0.09 -0.09)">
     <defs>
      <path id="DejaVuSans-Bold-47" d="M 4781 347 
Q 4331 128 3847 18 
Q 3363 -91 2847 -91 
Q 1681 -91 1000 561 
Q 319 1213 319 2328 
Q 319 3456 1012 4103 
Q 1706 4750 2913 4750 
Q 3378 4750 3804 4662 
Q 4231 4575 4609 4403 
L 4609 3438 
Q 4219 3659 3833 3768 
Q 3447 3878 3059 3878 
Q 2341 3878 1952 3476 
Q 1563 3075 1563 2328 
Q 1563 1588 1938 1184 
Q 2313 781 3003 781 
Q 3191 781 3352 804 
Q 3513 828 3641 878 
L 3641 1784 
L 2906 1784 
L 2906 2591 
L 4781 2591 
L 4781 347 
z
" transform="scale(0.015625)"/>
      <path id="DejaVuSans-Bold-6e" d="M 4056 2131 
L 4056 0 
L 2931 0 
L 2931 347 
L 2931 1631 
Q 2931 2084 2911 2256 
Q 2891 2428 2841 2509 
Q 2775 2619 2662 2680 
Q 2550 2741 2406 2741 
Q 2056 2741 1856 2470 
Q 1656 2200 1656 1722 
L 1656 0 
L 538 0 
L 538 3500 
L 1656 3500 
L 1656 2988 
Q 1909 3294 2193 3439 
Q 2478 3584 2822 3584 
Q 3428 3584 3742 3212 
Q 4056 2841 4056 2131 
z
" transform="scale(0.015625)"/>
      <path id="DejaVuSans-Bold-72" d="M 3138 2547 
Q 2991 2616 2845 2648 
Q 2700 2681 2553 2681 
Q 2122 2681 1889 2404 
Q 1656 2128 1656 1613 
L 1656 0 
L 538 0 
L 538 3500 
L 1656 3500 
L 1656 2925 
Q 1872 3269 2151 3426 
Q 2431 3584 2822 3584 
Q 2878 3584 2943 3579 
Q 3009 3575 3134 3559 
L 3138 2547 
z
" transform="scale(0.015625)"/>
      <path id="DejaVuSans-Bold-61" d="M 2106 1575 
Q 1756 1575 1579 1456 
Q 1403 1338 1403 1106 
Q 1403 894 1545 773 
Q 1688 653 1941 653 
Q 2256 653 2472 879 
Q 2688 1106 2688 1447 
L 2688 1575 
L 2106 1575 
z
M 3816 1997 
L 3816 0 
L 2688 0 
L 2688 519 
Q 2463 200 2181 54 
Q 1900 -91 1497 -91 
Q 953 -91 614 226 
Q 275 544 275 1050 
Q 275 1666 698 1953 
Q 1122 2241 2028 2241 
L 2688 2241 
L 2688 2328 
Q 2688 2594 2478 2717 
Q 2269 2841 1825 2841 
Q 1466 2841 1156 2769 
Q 847 2697 581 2553 
L 581 3406 
Q 941 3494 1303 3539 
Q 1666 3584 2028 3584 
Q 2975 3584 3395 3211 
Q 3816 2838 3816 1997 
z
" transform="scale(0.015625)"/>
      <path id="DejaVuSans-Bold-74" d="M 1759 4494 
L 1759 3500 
L 2913 3500 
L 2913 2700 
L 1759 2700 
L 1759 1216 
Q 1759 972 1856 886 
Q 1953 800 2241 800 
L 2816 800 
L 2816 0 
L 1856 0 
Q 1194 0 917 276 
Q 641 553 641 1216 
L 641 2700 
L 84 2700 
L 84 3500 
L 641 3500 
L 641 4494 
L 1759 4494 
z
" transform="scale(0.015625)"/>
     </defs>
     <use xlink:href="#DejaVuSans-Bold-47"/>
     <use xlink:href="#DejaVuSans-Bold-65" transform="translate(82.080078 0)"/>
     <use xlink:href="#DejaVuSans-Bold-6e" transform="translate(149.902344 0)"/>
     <use xlink:href="#DejaVuSans-Bold-65" transform="translate(221.09375 0)"/>
     <use xlink:href="#DejaVuSans-Bold-72" transform="translate(288.916016 0)"/>
     <use xlink:href="#DejaVuSans-Bold-61" transform="translate(338.232422 0)"/>
     <use xlink:href="#DejaVuSans-Bold-74" transform="translate(405.712891 0)"/>
     <use xlink:href="#DejaVuSans-Bold-6f" transform="translate(453.515625 0)"/>
     <use xlink:href="#DejaVuSans-Bold-72" transform="translate(522.216797 0)"/>
     <use xlink:href="#DejaVuSans-Bold-20" transform="translate(571.533203 0)"/>
     <use xlink:href="#DejaVuSans-Bold-47" transform="translate(606.347656 0)"/>
    </g>
   </g>
   <g id="patch_9">
    <path d="M 104.85 262.684008 
Q 104.85 272.328201 104.85 280.295344 
" style="fill: none; stroke: #00d4aa; stroke-width: 1.5; stroke-linecap: round"/>
    <path d="M 106.85 276.295344 
L 104.85 280.295344 
L 102.85 276.295344 
" style="fill: none; stroke: #00d4aa; stroke-width: 1.5; stroke-linecap: round"/>
   </g>
   <g id="text_3">
    <!-- Fake Data G(z) -->
    <g style="fill: #eaeaea" transform="translate(67.557656 301.42285) scale(0.09 -0.09)">
     <defs>
      <path id="DejaVuSans-Bold-46" d="M 588 4666 
L 3834 4666 
L 3834 3756 
L 1791 3756 
L 1791 2888 
L 3713 2888 
L 3713 1978 
L 1791 1978 
L 1791 0 
L 588 0 
L 588 4666 
z
" transform="scale(0.015625)"/>
      <path id="DejaVuSans-Bold-6b" d="M 538 4863 
L 1656 4863 
L 1656 2216 
L 2944 3500 
L 4244 3500 
L 2534 1894 
L 4378 0 
L 3022 0 
L 1656 1459 
L 1656 0 
L 538 0 
L 538 4863 
z
" transform="scale(0.015625)"/>
      <path id="DejaVuSans-Bold-44" d="M 1791 3756 
L 1791 909 
L 2222 909 
Q 2959 909 3348 1275 
Q 3738 1641 3738 2338 
Q 3738 3031 3350 3393 
Q 2963 3756 2222 3756 
L 1791 3756 
z
M 588 4666 
L 1856 4666 
Q 2919 4666 3439 4514 
Q 3959 4363 4331 4000 
Q 4659 3684 4818 3271 
Q 4978 2859 4978 2338 
Q 4978 1809 4818 1395 
Q 4659 981 4331 666 
Q 3956 303 3431 151 
Q 2906 0 1856 0 
L 588 0 
L 588 4666 
z
" transform="scale(0.015625)"/>
     </defs>
     <use xlink:href="#DejaVuSans-Bold-46"/>
     <use xlink:href="#DejaVuSans-Bold-61" transform="translate(62.435547 0)"/>
     <use xlink:href="#DejaVuSans-Bold-6b" transform="translate(129.916016 0)"/>
     <use xlink:href="#DejaVuSans-Bold-65" transform="translate(193.794922 0)"/>
     <use xlink:href="#DejaVuSans-Bold-20" transform="translate(261.617188 0)"/>
     <use xlink:href="#DejaVuSans-Bold-44" transform="translate(296.431641 0)"/>
     <use xlink:href="#DejaVuSans-Bold-61" transform="translate(379.439453 0)"/>
     <use xlink:href="#DejaVuSans-Bold-74" transform="translate(446.919922 0)"/>
     <use xlink:href="#DejaVuSans-Bold-61" transform="translate(494.722656 0)"/>
     <use xlink:href="#DejaVuSans-Bold-20" transform="translate(562.203125 0)"/>
     <use xlink:href="#DejaVuSans-Bold-47" transform="translate(597.017578 0)"/>
     <use xlink:href="#DejaVuSans-Bold-28" transform="translate(679.097656 0)"/>
     <use xlink:href="#DejaVuSans-Bold-7a" transform="translate(724.800781 0)"/>
     <use xlink:href="#DejaVuSans-Bold-29" transform="translate(783.003906 0)"/>
    </g>
   </g>
   <g id="text_4">
    <!-- Real Data x -->
    <g style="fill: #eaeaea" transform="translate(438.4575 170.03005) scale(0.09 -0.09)">
     <defs>
      <path id="DejaVuSans-Bold-52" d="M 2297 2597 
Q 2675 2597 2839 2737 
Q 3003 2878 3003 3200 
Q 3003 3519 2839 3656 
Q 2675 3794 2297 3794 
L 1791 3794 
L 1791 2597 
L 2297 2597 
z
M 1791 1766 
L 1791 0 
L 588 0 
L 588 4666 
L 2425 4666 
Q 3347 4666 3776 4356 
Q 4206 4047 4206 3378 
Q 4206 2916 3982 2619 
Q 3759 2322 3309 2181 
Q 3556 2125 3751 1926 
Q 3947 1728 4147 1325 
L 4800 0 
L 3519 0 
L 2950 1159 
Q 2778 1509 2601 1637 
Q 2425 1766 2131 1766 
L 1791 1766 
z
" transform="scale(0.015625)"/>
      <path id="DejaVuSans-Bold-6c" d="M 538 4863 
L 1656 4863 
L 1656 0 
L 538 0 
L 538 4863 
z
" transform="scale(0.015625)"/>
      <path id="DejaVuSans-Bold-78" d="M 1422 1791 
L 159 3500 
L 1344 3500 
L 2059 2463 
L 2784 3500 
L 3969 3500 
L 2706 1797 
L 4031 0 
L 2847 0 
L 2059 1106 
L 1281 0 
L 97 0 
L 1422 1791 
z
" transform="scale(0.015625)"/>
     </defs>
     <use xlink:href="#DejaVuSans-Bold-52"/>
     <use xlink:href="#DejaVuSans-Bold-65" transform="translate(77.001953 0)"/>
     <use xlink:href="#DejaVuSans-Bold-61" transform="translate(144.824219 0)"/>
     <use xlink:href="#DejaVuSans-Bold-6c" transform="translate(212.304688 0)"/>
     <use xlink:href="#DejaVuSans-Bold-20" transform="translate(246.582031 0)"/>
     <use xlink:href="#DejaVuSans-Bold-44" transform="translate(281.396484 0)"/>
     <use xlink:href="#DejaVuSans-Bold-61" transform="translate(364.404297 0)"/>
     <use xlink:href="#DejaVuSans-Bold-74" transform="translate(431.884766 0)"/>
     <use xlink:href="#DejaVuSans-Bold-61" transform="translate(479.6875 0)"/>
     <use xlink:href="#DejaVuSans-Bold-20" transform="translate(547.167969 0)"/>
     <use xlink:href="#DejaVuSans-Bold-78" transform="translate(581.982422 0)"/>
    </g>
   </g>
   <g id="patch_10">
    <path d="M 467.55 179.528474 
Q 467.55 197.48354 467.55 213.761555 
" style="fill: none; stroke: #00d4aa; stroke-width: 1.5; stroke-linecap: round"/>
    <path d="M 469.55 209.761555 
L 467.55 213.761555 
L 465.55 209.761555 
" style="fill: none; stroke: #00d4aa; stroke-width: 1.5; stroke-linecap: round"/>
   </g>
   <g id="patch_11">
    <path d="M 176.571936 300.249954 
Q 286.20196 280.643862 394.181124 261.333008 
" style="fill: none; stroke: #00d4aa; stroke-width: 1.5; stroke-linecap: round"/>
    <path d="M 389.891505 260.068426 
L 394.181124 261.333008 
L 390.595687 264.005954 
" style="fill: none; stroke: #00d4aa; stroke-width: 1.5; stroke-linecap: round"/>
   </g>
   <g id="text_5">
    <!-- Discriminator D -->
    <g style="fill: #eaeaea" transform="translate(427.928203 263.16925) scale(0.09 -0.09)">
     <defs>
      <path id="DejaVuSans-Bold-63" d="M 3366 3391 
L 3366 2478 
Q 3138 2634 2908 2709 
Q 2678 2784 2431 2784 
Q 1963 2784 1702 2511 
Q 1441 2238 1441 1747 
Q 1441 1256 1702 982 
Q 1963 709 2431 709 
Q 2694 709 2930 787 
Q 3166 866 3366 1019 
L 3366 103 
Q 3103 6 2833 -42 
Q 2563 -91 2291 -91 
Q 1344 -91 809 395 
Q 275 881 275 1747 
Q 275 2613 809 3098 
Q 1344 3584 2291 3584 
Q 2566 3584 2833 3536 
Q 3100 3488 3366 3391 
z
" transform="scale(0.015625)"/>
      <path id="DejaVuSans-Bold-6d" d="M 3781 2919 
Q 3994 3244 4286 3414 
Q 4578 3584 4928 3584 
Q 5531 3584 5847 3212 
Q 6163 2841 6163 2131 
L 6163 0 
L 5038 0 
L 5038 1825 
Q 5041 1866 5042 1909 
Q 5044 1953 5044 2034 
Q 5044 2406 4934 2573 
Q 4825 2741 4581 2741 
Q 4263 2741 4089 2478 
Q 3916 2216 3909 1719 
L 3909 0 
L 2784 0 
L 2784 1825 
Q 2784 2406 2684 2573 
Q 2584 2741 2328 2741 
Q 2006 2741 1831 2477 
Q 1656 2213 1656 1722 
L 1656 0 
L 531 0 
L 531 3500 
L 1656 3500 
L 1656 2988 
Q 1863 3284 2130 3434 
Q 2397 3584 2719 3584 
Q 3081 3584 3359 3409 
Q 3638 3234 3781 2919 
z
" transform="scale(0.015625)"/>
     </defs>
     <use xlink:href="#DejaVuSans-Bold-44"/>
     <use xlink:href="#DejaVuSans-Bold-69" transform="translate(83.007812 0)"/>
     <use xlink:href="#DejaVuSans-Bold-73" transform="translate(117.285156 0)"/>
     <use xlink:href="#DejaVuSans-Bold-63" transform="translate(176.806641 0)"/>
     <use xlink:href="#DejaVuSans-Bold-72" transform="translate(236.083984 0)"/>
     <use xlink:href="#DejaVuSans-Bold-69" transform="translate(285.400391 0)"/>
     <use xlink:href="#DejaVuSans-Bold-6d" transform="translate(319.677734 0)"/>
     <use xlink:href="#DejaVuSans-Bold-69" transform="translate(423.876953 0)"/>
     <use xlink:href="#DejaVuSans-Bold-6e" transform="translate(458.154297 0)"/>
     <use xlink:href="#DejaVuSans-Bold-61" transform="translate(529.345703 0)"/>
     <use xlink:href="#DejaVuSans-Bold-74" transform="translate(596.826172 0)"/>
     <use xlink:href="#DejaVuSans-Bold-6f" transform="translate(644.628906 0)"/>
     <use xlink:href="#DejaVuSans-Bold-72" transform="translate(713.330078 0)"/>
     <use xlink:href="#DejaVuSans-Bold-20" transform="translate(762.646484 0)"/>
     <use xlink:href="#DejaVuSans-Bold-44" transform="translate(797.460938 0)"/>
    </g>
   </g>
   <g id="patch_12">
    <path d="M 467.55 279.319662 
Q 467.55 293.94899 467.55 306.901267 
" style="fill: none; stroke: #00d4aa; stroke-width: 1.5; stroke-linecap: round"/>
    <path d="M 469.55 302.901267 
L 467.55 306.901267 
L 465.55 302.901267 
" style="fill: none; stroke: #00d4aa; stroke-width: 1.5; stroke-linecap: round"/>
   </g>
   <g id="text_6">
    <!-- Real / Fake -->
    <g style="fill: #eaeaea" transform="translate(439.903125 331.36045) scale(0.09 -0.09)">
     <defs>
      <path id="DejaVuSans-Bold-2f" d="M 1644 4666 
L 2338 4666 
L 691 -594 
L 0 -594 
L 1644 4666 
z
" transform="scale(0.015625)"/>
     </defs>
     <use xlink:href="#DejaVuSans-Bold-52"/>
     <use xlink:href="#DejaVuSans-Bold-65" transform="translate(77.001953 0)"/>
     <use xlink:href="#DejaVuSans-Bold-61" transform="translate(144.824219 0)"/>
     <use xlink:href="#DejaVuSans-Bold-6c" transform="translate(212.304688 0)"/>
     <use xlink:href="#DejaVuSans-Bold-20" transform="translate(246.582031 0)"/>
     <use xlink:href="#DejaVuSans-Bold-2f" transform="translate(281.396484 0)"/>
     <use xlink:href="#DejaVuSans-Bold-20" transform="translate(317.919922 0)"/>
     <use xlink:href="#DejaVuSans-Bold-46" transform="translate(352.734375 0)"/>
     <use xlink:href="#DejaVuSans-Bold-61" transform="translate(415.169922 0)"/>
     <use xlink:href="#DejaVuSans-Bold-6b" transform="translate(482.650391 0)"/>
     <use xlink:href="#DejaVuSans-Bold-65" transform="translate(546.529297 0)"/>
    </g>
   </g>
   <g id="patch_13">
    <path d="M 395.94386 249.970331 
Q 286.202414 206.803844 178.021636 249.354575 
" style="fill: none; stroke: #ff8a65; stroke-width: 1.5; stroke-linecap: round"/>
    <path d="M 182.476109 249.751644 
L 178.021636 249.354575 
L 181.011975 246.029237 
" style="fill: none; stroke: #ff8a65; stroke-width: 1.5; stroke-linecap: round"/>
   </g>
   <g id="text_7">
    <!-- Train D -->
    <g style="fill: #ff8a65" transform="translate(270.510469 229.90525) scale(0.09 -0.09)">
     <defs>
      <path id="DejaVuSans-54" d="M -19 4666 
L 3928 4666 
L 3928 4134 
L 2272 4134 
L 2272 0 
L 1638 0 
L 1638 4134 
L -19 4134 
L -19 4666 
z
" transform="scale(0.015625)"/>
      <path id="DejaVuSans-72" d="M 2631 2963 
Q 2534 3019 2420 3045 
Q 2306 3072 2169 3072 
Q 1681 3072 1420 2755 
Q 1159 2438 1159 1844 
L 1159 0 
L 581 0 
L 581 3500 
L 1159 3500 
L 1159 2956 
Q 1341 3275 1631 3429 
Q 1922 3584 2338 3584 
Q 2397 3584 2469 3576 
Q 2541 3569 2628 3553 
L 2631 2963 
z
" transform="scale(0.015625)"/>
      <path id="DejaVuSans-61" d="M 2194 1759 
Q 1497 1759 1228 1600 
Q 959 1441 959 1056 
Q 959 750 1161 570 
Q 1363 391 1709 391 
Q 2188 391 2477 730 
Q 2766 1069 2766 1631 
L 2766 1759 
L 2194 1759 
z
M 3341 1997 
L 3341 0 
L 2766 0 
L 2766 531 
Q 2569 213 2275 61 
Q 1981 -91 1556 -91 
Q 1019 -91 701 211 
Q 384 513 384 1019 
Q 384 1609 779 1909 
Q 1175 2209 1959 2209 
L 2766 2209 
L 2766 2266 
Q 2766 2663 2505 2880 
Q 2244 3097 1772 3097 
Q 1472 3097 1187 3025 
Q 903 2953 641 2809 
L 641 3341 
Q 956 3463 1253 3523 
Q 1550 3584 1831 3584 
Q 2591 3584 2966 3190 
Q 3341 2797 3341 1997 
z
" transform="scale(0.015625)"/>
      <path id="DejaVuSans-69" d="M 603 3500 
L 1178 3500 
L 1178 0 
L 603 0 
L 603 3500 
z
M 603 4863 
L 1178 4863 
L 1178 4134 
L 603 4134 
L 603 4863 
z
" transform="scale(0.015625)"/>
      <path id="DejaVuSans-6e" d="M 3513 2113 
L 3513 0 
L 2938 0 
L 2938 2094 
Q 2938 2591 2744 2837 
Q 2550 3084 2163 3084 
Q 1697 3084 1428 2787 
Q 1159 2491 1159 1978 
L 1159 0 
L 581 0 
L 581 3500 
L 1159 3500 
L 1159 2956 
Q 1366 3272 1645 3428 
Q 1925 3584 2291 3584 
Q 2894 3584 3203 3211 
Q 3513 2838 3513 2113 
z
" transform="scale(0.015625)"/>
      <path id="DejaVuSans-20" transform="scale(0.015625)"/>
      <path id="DejaVuSans-44" d="M 1259 4147 
L 1259 519 
L 2022 519 
Q 2988 519 3436 956 
Q 3884 1394 3884 2338 
Q 3884 3275 3436 3711 
Q 2988 4147 2022 4147 
L 1259 4147 
z
M 628 4666 
L 1925 4666 
Q 3281 4666 3915 4102 
Q 4550 3538 4550 2338 
Q 4550 1131 3912 565 
Q 3275 0 1925 0 
L 628 0 
L 628 4666 
z
" transform="scale(0.015625)"/>
     </defs>
     <use xlink:href="#DejaVuSans-54"/>
     <use xlink:href="#DejaVuSans-72" transform="translate(46.333984 0)"/>
     <use xlink:href="#DejaVuSans-61" transform="translate(87.447266 0)"/>
     <use xlink:href="#DejaVuSans-69" transform="translate(148.726562 0)"/>
     <use xlink:href="#DejaVuSans-6e" transform="translate(176.509766 0)"/>
     <use xlink:href="#DejaVuSans-20" transform="translate(239.888672 0)"/>
     <use xlink:href="#DejaVuSans-44" transform="translate(271.675781 0)"/>
    </g>
   </g>
   <g id="patch_14">
    <path d="M 395.94386 271.401294 
Q 286.202414 314.567781 178.021636 272.01705 
" style="fill: none; stroke: #00d4aa; stroke-width: 1.5; stroke-linecap: round"/>
    <path d="M 181.011975 275.342388 
L 178.021636 272.01705 
L 182.476109 271.619981 
" style="fill: none; stroke: #00d4aa; stroke-width: 1.5; stroke-linecap: round"/>
   </g>
   <g id="text_8">
    <!-- Train G -->
    <g style="fill: #00d4aa" transform="translate(270.488672 303.08605) scale(0.09 -0.09)">
     <defs>
      <path id="DejaVuSans-47" d="M 3809 666 
L 3809 1919 
L 2778 1919 
L 2778 2438 
L 4434 2438 
L 4434 434 
Q 4069 175 3628 42 
Q 3188 -91 2688 -91 
Q 1594 -91 976 548 
Q 359 1188 359 2328 
Q 359 3472 976 4111 
Q 1594 4750 2688 4750 
Q 3144 4750 3555 4637 
Q 3966 4525 4313 4306 
L 4313 3634 
Q 3963 3931 3569 4081 
Q 3175 4231 2741 4231 
Q 1884 4231 1454 3753 
Q 1025 3275 1025 2328 
Q 1025 1384 1454 906 
Q 1884 428 2741 428 
Q 3075 428 3337 486 
Q 3600 544 3809 666 
z
" transform="scale(0.015625)"/>
     </defs>
     <use xlink:href="#DejaVuSans-54"/>
     <use xlink:href="#DejaVuSans-72" transform="translate(46.333984 0)"/>
     <use xlink:href="#DejaVuSans-61" transform="translate(87.447266 0)"/>
     <use xlink:href="#DejaVuSans-69" transform="translate(148.726562 0)"/>
     <use xlink:href="#DejaVuSans-6e" transform="translate(176.509766 0)"/>
     <use xlink:href="#DejaVuSans-20" transform="translate(239.888672 0)"/>
     <use xlink:href="#DejaVuSans-47" transform="translate(271.675781 0)"/>
    </g>
   </g>
   <g id="text_9">
    <!-- GAN: Generative Adversarial Network -->
    <g style="fill: #00d4aa" transform="translate(137.221406 17.837812) scale(0.14 -0.14)">
     <defs>
      <path id="DejaVuSans-Bold-41" d="M 3419 850 
L 1538 850 
L 1241 0 
L 31 0 
L 1759 4666 
L 3194 4666 
L 4922 0 
L 3713 0 
L 3419 850 
z
M 1838 1716 
L 3116 1716 
L 2478 3572 
L 1838 1716 
z
" transform="scale(0.015625)"/>
      <path id="DejaVuSans-Bold-3a" d="M 716 3500 
L 1844 3500 
L 1844 2291 
L 716 2291 
L 716 3500 
z
M 716 1209 
L 1844 1209 
L 1844 0 
L 716 0 
L 716 1209 
z
" transform="scale(0.015625)"/>
      <path id="DejaVuSans-Bold-76" d="M 97 3500 
L 1216 3500 
L 2088 1081 
L 2956 3500 
L 4078 3500 
L 2700 0 
L 1472 0 
L 97 3500 
z
" transform="scale(0.015625)"/>
      <path id="DejaVuSans-Bold-64" d="M 2919 2988 
L 2919 4863 
L 4044 4863 
L 4044 0 
L 2919 0 
L 2919 506 
Q 2688 197 2409 53 
Q 2131 -91 1766 -91 
Q 1119 -91 703 423 
Q 288 938 288 1747 
Q 288 2556 703 3070 
Q 1119 3584 1766 3584 
Q 2128 3584 2408 3439 
Q 2688 3294 2919 2988 
z
M 2181 722 
Q 2541 722 2730 984 
Q 2919 1247 2919 1747 
Q 2919 2247 2730 2509 
Q 2541 2772 2181 2772 
Q 1825 2772 1636 2509 
Q 1447 2247 1447 1747 
Q 1447 1247 1636 984 
Q 1825 722 2181 722 
z
" transform="scale(0.015625)"/>
      <path id="DejaVuSans-Bold-77" d="M 225 3500 
L 1313 3500 
L 1900 1088 
L 2491 3500 
L 3425 3500 
L 4013 1113 
L 4603 3500 
L 5691 3500 
L 4769 0 
L 3547 0 
L 2956 2406 
L 2369 0 
L 1147 0 
L 225 3500 
z
" transform="scale(0.015625)"/>
     </defs>
     <use xlink:href="#DejaVuSans-Bold-47"/>
     <use xlink:href="#DejaVuSans-Bold-41" transform="translate(82.080078 0)"/>
     <use xlink:href="#DejaVuSans-Bold-4e" transform="translate(159.472656 0)"/>
     <use xlink:href="#DejaVuSans-Bold-3a" transform="translate(243.164062 0)"/>
     <use xlink:href="#DejaVuSans-Bold-20" transform="translate(283.154297 0)"/>
     <use xlink:href="#DejaVuSans-Bold-47" transform="translate(317.96875 0)"/>
     <use xlink:href="#DejaVuSans-Bold-65" transform="translate(400.048828 0)"/>
     <use xlink:href="#DejaVuSans-Bold-6e" transform="translate(467.871094 0)"/>
     <use xlink:href="#DejaVuSans-Bold-65" transform="translate(539.0625 0)"/>
     <use xlink:href="#DejaVuSans-Bold-72" transform="translate(606.884766 0)"/>
     <use xlink:href="#DejaVuSans-Bold-61" transform="translate(656.201172 0)"/>
     <use xlink:href="#DejaVuSans-Bold-74" transform="translate(723.681641 0)"/>
     <use xlink:href="#DejaVuSans-Bold-69" transform="translate(771.484375 0)"/>
     <use xlink:href="#DejaVuSans-Bold-76" transform="translate(805.761719 0)"/>
     <use xlink:href="#DejaVuSans-Bold-65" transform="translate(870.947266 0)"/>
     <use xlink:href="#DejaVuSans-Bold-20" transform="translate(938.769531 0)"/>
     <use xlink:href="#DejaVuSans-Bold-41" transform="translate(973.583984 0)"/>
     <use xlink:href="#DejaVuSans-Bold-64" transform="translate(1050.976562 0)"/>
     <use xlink:href="#DejaVuSans-Bold-76" transform="translate(1122.558594 0)"/>
     <use xlink:href="#DejaVuSans-Bold-65" transform="translate(1187.744141 0)"/>
     <use xlink:href="#DejaVuSans-Bold-72" transform="translate(1255.566406 0)"/>
     <use xlink:href="#DejaVuSans-Bold-73" transform="translate(1304.882812 0)"/>
     <use xlink:href="#DejaVuSans-Bold-61" transform="translate(1364.404297 0)"/>
     <use xlink:href="#DejaVuSans-Bold-72" transform="translate(1431.884766 0)"/>
     <use xlink:href="#DejaVuSans-Bold-69" transform="translate(1481.201172 0)"/>
     <use xlink:href="#DejaVuSans-Bold-61" transform="translate(1515.478516 0)"/>
     <use xlink:href="#DejaVuSans-Bold-6c" transform="translate(1582.958984 0)"/>
     <use xlink:href="#DejaVuSans-Bold-20" transform="translate(1617.236328 0)"/>
     <use xlink:href="#DejaVuSans-Bold-4e" transform="translate(1652.050781 0)"/>
     <use xlink:href="#DejaVuSans-Bold-65" transform="translate(1735.742188 0)"/>
     <use xlink:href="#DejaVuSans-Bold-74" transform="translate(1803.564453 0)"/>
     <use xlink:href="#DejaVuSans-Bold-77" transform="translate(1851.367188 0)"/>
     <use xlink:href="#DejaVuSans-Bold-6f" transform="translate(1943.75 0)"/>
     <use xlink:href="#DejaVuSans-Bold-72" transform="translate(2012.451172 0)"/>
     <use xlink:href="#DejaVuSans-Bold-6b" transform="translate(2061.767578 0)"/>
    </g>
   </g>
  </g>
 </g>
 <defs>
  <clipPath id="p793e3c0034">
   <rect x="7.2" y="27.837812" width="558" height="332.64"/>
  </clipPath>
 </defs>
</svg>
