<?xml version="1.0" encoding="utf-8" standalone="no"?>
<!DOCTYPE svg PUBLIC "-//W3C//DTD SVG 1.1//EN"
  "http://www.w3.org/Graphics/SVG/1.1/DTD/svg11.dtd">
<svg xmlns:xlink="http://www.w3.org/1999/xlink" width="460.8pt" height="596.564969pt" viewBox="0 0 460.8 596.564969" xmlns="http://www.w3.org/2000/svg" version="1.1">
 <metadata>
  <rdf:RDF xmlns:dc="http://purl.org/dc/elements/1.1/" xmlns:cc="http://creativecommons.org/ns#" xmlns:rdf="http://www.w3.org/1999/02/22-rdf-syntax-ns#">
   <cc:Work>
    <dc:type rdf:resource="http://purl.org/dc/dcmitype/StillImage"/>
    <dc:date>2026-05-26T08:38:47.546067</dc:date>
    <dc:format>image/svg+xml</dc:format>
    <dc:creator>
     <cc:Agent>
      <dc:title>Matplotlib v3.10.9, https://matplotlib.org/</dc:title>
     </cc:Agent>
    </dc:creator>
   </cc:Work>
  </rdf:RDF>
 </metadata>
 <defs>
  <style type="text/css">*{stroke-linejoin: round; stroke-linecap: butt}</style>
 </defs>
 <g id="figure_1">
  <g id="patch_1">
   <path d="M 0 596.564969 
L 460.8 596.564969 
L 460.8 0 
L 0 0 
z
" style="fill: #1a1a2e"/>
  </g>
  <g id="axes_1">
   <g id="patch_2">
    <path d="M 79.9632 112.106613 
L 380.8368 112.106613 
Q 387.5328 112.106613 387.5328 103.790613 
L 387.5328 79.397013 
Q 387.5328 71.081012 380.8368 71.081012 
L 79.9632 71.081012 
Q 73.2672 71.081012 73.2672 79.397013 
L 73.2672 103.790613 
Q 73.2672 112.106613 79.9632 112.106613 
z
" clip-path="url(#p6bdfc21da3)" style="fill: #1565c0; stroke: #555555; stroke-width: 1.5; stroke-linejoin: miter"/>
   </g>
   <g id="patch_3">
    <path d="M 79.9632 162.002613 
L 380.8368 162.002613 
Q 387.5328 162.002613 387.5328 153.686613 
L 387.5328 134.837013 
Q 387.5328 126.521012 380.8368 126.521012 
L 79.9632 126.521012 
Q 73.2672 126.521012 73.2672 134.837013 
L 73.2672 153.686613 
Q 73.2672 162.002613 79.9632 162.002613 
z
" clip-path="url(#p6bdfc21da3)" style="fill: #455a64; stroke: #555555; stroke-width: 1.5; stroke-linejoin: miter"/>
   </g>
   <g id="patch_4">
    <path d="M 79.9632 206.354613 
L 380.8368 206.354613 
Q 387.5328 206.354613 387.5328 198.038612 
L 387.5328 179.189013 
Q 387.5328 170.873013 380.8368 170.873013 
L 79.9632 170.873013 
Q 73.2672 170.873013 73.2672 179.189013 
L 73.2672 198.038612 
Q 73.2672 206.354613 79.9632 206.354613 
z
" clip-path="url(#p6bdfc21da3)" style="fill: #455a64; stroke: #555555; stroke-width: 1.5; stroke-linejoin: miter"/>
   </g>
   <g id="patch_5">
    <path d="M 79.9632 234.074613 
L 380.8368 234.074613 
Q 387.5328 234.074613 387.5328 225.758613 
L 387.5328 206.909013 
Q 387.5328 198.593013 380.8368 198.593013 
L 79.9632 198.593013 
Q 73.2672 198.593013 73.2672 206.909013 
L 73.2672 225.758613 
Q 73.2672 234.074613 79.9632 234.074613 
z
" clip-path="url(#p6bdfc21da3)" style="fill: #c62828; stroke: #555555; stroke-width: 1.5; stroke-linejoin: miter"/>
   </g>
   <g id="patch_6">
    <path d="M 200.4912 259.022613 
L 260.3088 259.022613 
Q 267.0048 259.022613 267.0048 250.706613 
L 267.0048 248.489013 
Q 267.0048 240.173013 260.3088 240.173013 
L 200.4912 240.173013 
Q 193.7952 240.173013 193.7952 248.489013 
L 193.7952 250.706613 
Q 193.7952 259.022613 200.4912 259.022613 
z
" clip-path="url(#p6bdfc21da3)" style="fill: #455a64; stroke: #555555; stroke-width: 1.5; stroke-linejoin: miter"/>
   </g>
   <g id="patch_7">
    <path d="M 79.9632 289.514612 
L 380.8368 289.514612 
Q 387.5328 289.514612 387.5328 281.198613 
L 387.5328 262.349013 
Q 387.5328 254.033013 380.8368 254.033013 
L 79.9632 254.033013 
Q 73.2672 254.033013 73.2672 262.349013 
L 73.2672 281.198613 
Q 73.2672 289.514612 79.9632 289.514612 
z
" clip-path="url(#p6bdfc21da3)" style="fill: #ef6c00; stroke: #555555; stroke-width: 1.5; stroke-linejoin: miter"/>
   </g>
   <g id="patch_8">
    <path d="M 200.4912 314.462613 
L 260.3088 314.462613 
Q 267.0048 314.462613 267.0048 306.146613 
L 267.0048 303.929013 
Q 267.0048 295.613013 260.3088 295.613013 
L 200.4912 295.613013 
Q 193.7952 295.613013 193.7952 303.929013 
L 193.7952 306.146613 
Q 193.7952 314.462613 200.4912 314.462613 
z
" clip-path="url(#p6bdfc21da3)" style="fill: #455a64; stroke: #555555; stroke-width: 1.5; stroke-linejoin: miter"/>
   </g>
   <g id="patch_9">
    <path d="M 79.9632 322.778613 
L 380.8368 322.778613 
Q 387.5328 322.778613 387.5328 314.462613 
L 387.5328 295.613013 
Q 387.5328 287.297013 380.8368 287.297013 
L 79.9632 287.297013 
Q 73.2672 287.297013 73.2672 295.613013 
L 73.2672 314.462613 
Q 73.2672 322.778613 79.9632 322.778613 
z
" clip-path="url(#p6bdfc21da3)" style="fill: #c62828; stroke: #555555; stroke-width: 1.5; stroke-linejoin: miter"/>
   </g>
   <g id="patch_10">
    <path d="M 200.4912 347.726613 
L 260.3088 347.726613 
Q 267.0048 347.726613 267.0048 339.410613 
L 267.0048 337.193013 
Q 267.0048 328.877013 260.3088 328.877013 
L 200.4912 328.877013 
Q 193.7952 328.877013 193.7952 337.193013 
L 193.7952 339.410613 
Q 193.7952 347.726613 200.4912 347.726613 
z
" clip-path="url(#p6bdfc21da3)" style="fill: #455a64; stroke: #555555; stroke-width: 1.5; stroke-linejoin: miter"/>
   </g>
   <g id="patch_11">
    <path d="M 79.9632 378.218613 
L 380.8368 378.218613 
Q 387.5328 378.218613 387.5328 369.902613 
L 387.5328 351.053013 
Q 387.5328 342.737013 380.8368 342.737013 
L 79.9632 342.737013 
Q 73.2672 342.737013 73.2672 351.053013 
L 73.2672 369.902613 
Q 73.2672 378.218613 79.9632 378.218613 
z
" clip-path="url(#p6bdfc21da3)" style="fill: #ef6c00; stroke: #555555; stroke-width: 1.5; stroke-linejoin: miter"/>
   </g>
   <g id="patch_12">
    <path d="M 200.4912 403.166613 
L 260.3088 403.166613 
Q 267.0048 403.166613 267.0048 394.850613 
L 267.0048 392.633013 
Q 267.0048 384.317013 260.3088 384.317013 
L 200.4912 384.317013 
Q 193.7952 384.317013 193.7952 392.633013 
L 193.7952 394.850613 
Q 193.7952 403.166613 200.4912 403.166613 
z
" clip-path="url(#p6bdfc21da3)" style="fill: #455a64; stroke: #555555; stroke-width: 1.5; stroke-linejoin: miter"/>
   </g>
   <g id="patch_13">
    <path d="M 79.9632 411.482613 
L 380.8368 411.482613 
Q 387.5328 411.482613 387.5328 403.166613 
L 387.5328 384.317013 
Q 387.5328 376.001013 380.8368 376.001013 
L 79.9632 376.001013 
Q 73.2672 376.001013 73.2672 384.317013 
L 73.2672 403.166613 
Q 73.2672 411.482613 79.9632 411.482613 
z
" clip-path="url(#p6bdfc21da3)" style="fill: #c62828; stroke: #555555; stroke-width: 1.5; stroke-linejoin: miter"/>
   </g>
   <g id="patch_14">
    <path d="M 200.4912 436.430613 
L 260.3088 436.430613 
Q 267.0048 436.430613 267.0048 428.114613 
L 267.0048 425.897013 
Q 267.0048 417.581013 260.3088 417.581013 
L 200.4912 417.581013 
Q 193.7952 417.581013 193.7952 425.897013 
L 193.7952 428.114613 
Q 193.7952 436.430613 200.4912 436.430613 
z
" clip-path="url(#p6bdfc21da3)" style="fill: #455a64; stroke: #555555; stroke-width: 1.5; stroke-linejoin: miter"/>
   </g>
   <g id="patch_15">
    <path d="M 79.9632 466.922613 
L 380.8368 466.922613 
Q 387.5328 466.922613 387.5328 458.606613 
L 387.5328 439.757013 
Q 387.5328 431.441013 380.8368 431.441013 
L 79.9632 431.441013 
Q 73.2672 431.441013 73.2672 439.757013 
L 73.2672 458.606613 
Q 73.2672 466.922613 79.9632 466.922613 
z
" clip-path="url(#p6bdfc21da3)" style="fill: #ef6c00; stroke: #555555; stroke-width: 1.5; stroke-linejoin: miter"/>
   </g>
   <g id="patch_16">
    <path d="M 200.4912 491.870613 
L 260.3088 491.870613 
Q 267.0048 491.870613 267.0048 483.554613 
L 267.0048 481.337013 
Q 267.0048 473.021013 260.3088 473.021013 
L 200.4912 473.021013 
Q 193.7952 473.021013 193.7952 481.337013 
L 193.7952 483.554613 
Q 193.7952 491.870613 200.4912 491.870613 
z
" clip-path="url(#p6bdfc21da3)" style="fill: #455a64; stroke: #555555; stroke-width: 1.5; stroke-linejoin: miter"/>
   </g>
   <g id="patch_17">
    <path d="M 79.9632 555.626612 
L 380.8368 555.626612 
Q 387.5328 555.626612 387.5328 547.310613 
L 387.5328 522.917013 
Q 387.5328 514.601013 380.8368 514.601013 
L 79.9632 514.601013 
Q 73.2672 514.601013 73.2672 522.917013 
L 73.2672 547.310613 
Q 73.2672 555.626612 79.9632 555.626612 
z
" clip-path="url(#p6bdfc21da3)" style="fill: #2e7d32; stroke: #555555; stroke-width: 1.5; stroke-linejoin: miter"/>
   </g>
   <g id="patch_18">
    <path d="M 79.9632 605.522613 
L 380.8368 605.522613 
Q 387.5328 605.522613 387.5328 597.206613 
L 387.5328 572.813013 
Q 387.5328 564.497012 380.8368 564.497012 
L 79.9632 564.497012 
Q 73.2672 564.497012 73.2672 572.813013 
L 73.2672 597.206613 
Q 73.2672 605.522613 79.9632 605.522613 
z
" clip-path="url(#p6bdfc21da3)" style="fill: #2e7d32; stroke: #555555; stroke-width: 1.5; stroke-linejoin: miter"/>
   </g>
   <g id="text_1">
    <!-- Input Tokens -->
    <g style="fill: #eaeaea" transform="translate(198.007031 94.07725) scale(0.09 -0.09)">
     <defs>
      <path id="DejaVuSans-Bold-49" d="M 588 4666 
L 1791 4666 
L 1791 0 
L 588 0 
L 588 4666 
z
" transform="scale(0.015625)"/>
      <path id="DejaVuSans-Bold-6e" d="M 4056 2131 
L 4056 0 
L 2931 0 
L 2931 347 
L 2931 1631 
Q 2931 2084 2911 2256 
Q 2891 2428 2841 2509 
Q 2775 2619 2662 2680 
Q 2550 2741 2406 2741 
Q 2056 2741 1856 2470 
Q 1656 2200 1656 1722 
L 1656 0 
L 538 0 
L 538 3500 
L 1656 3500 
L 1656 2988 
Q 1909 3294 2193 3439 
Q 2478 3584 2822 3584 
Q 3428 3584 3742 3212 
Q 4056 2841 4056 2131 
z
" transform="scale(0.015625)"/>
      <path id="DejaVuSans-Bold-70" d="M 1656 506 
L 1656 -1331 
L 538 -1331 
L 538 3500 
L 1656 3500 
L 1656 2988 
Q 1888 3294 2169 3439 
Q 2450 3584 2816 3584 
Q 3463 3584 3878 3070 
Q 4294 2556 4294 1747 
Q 4294 938 3878 423 
Q 3463 -91 2816 -91 
Q 2450 -91 2169 54 
Q 1888 200 1656 506 
z
M 2400 2772 
Q 2041 2772 1848 2508 
Q 1656 2244 1656 1747 
Q 1656 1250 1848 986 
Q 2041 722 2400 722 
Q 2759 722 2948 984 
Q 3138 1247 3138 1747 
Q 3138 2247 2948 2509 
Q 2759 2772 2400 2772 
z
" transform="scale(0.015625)"/>
      <path id="DejaVuSans-Bold-75" d="M 500 1363 
L 500 3500 
L 1625 3500 
L 1625 3150 
Q 1625 2866 1622 2436 
Q 1619 2006 1619 1863 
Q 1619 1441 1641 1255 
Q 1663 1069 1716 984 
Q 1784 875 1895 815 
Q 2006 756 2150 756 
Q 2500 756 2700 1025 
Q 2900 1294 2900 1772 
L 2900 3500 
L 4019 3500 
L 4019 0 
L 2900 0 
L 2900 506 
Q 2647 200 2364 54 
Q 2081 -91 1741 -91 
Q 1134 -91 817 281 
Q 500 653 500 1363 
z
" transform="scale(0.015625)"/>
      <path id="DejaVuSans-Bold-74" d="M 1759 4494 
L 1759 3500 
L 2913 3500 
L 2913 2700 
L 1759 2700 
L 1759 1216 
Q 1759 972 1856 886 
Q 1953 800 2241 800 
L 2816 800 
L 2816 0 
L 1856 0 
Q 1194 0 917 276 
Q 641 553 641 1216 
L 641 2700 
L 84 2700 
L 84 3500 
L 641 3500 
L 641 4494 
L 1759 4494 
z
" transform="scale(0.015625)"/>
      <path id="DejaVuSans-Bold-20" transform="scale(0.015625)"/>
      <path id="DejaVuSans-Bold-54" d="M 31 4666 
L 4331 4666 
L 4331 3756 
L 2784 3756 
L 2784 0 
L 1581 0 
L 1581 3756 
L 31 3756 
L 31 4666 
z
" transform="scale(0.015625)"/>
      <path id="DejaVuSans-Bold-6f" d="M 2203 2784 
Q 1831 2784 1636 2517 
Q 1441 2250 1441 1747 
Q 1441 1244 1636 976 
Q 1831 709 2203 709 
Q 2569 709 2762 976 
Q 2956 1244 2956 1747 
Q 2956 2250 2762 2517 
Q 2569 2784 2203 2784 
z
M 2203 3584 
Q 3106 3584 3614 3096 
Q 4122 2609 4122 1747 
Q 4122 884 3614 396 
Q 3106 -91 2203 -91 
Q 1297 -91 786 396 
Q 275 884 275 1747 
Q 275 2609 786 3096 
Q 1297 3584 2203 3584 
z
" transform="scale(0.015625)"/>
      <path id="DejaVuSans-Bold-6b" d="M 538 4863 
L 1656 4863 
L 1656 2216 
L 2944 3500 
L 4244 3500 
L 2534 1894 
L 4378 0 
L 3022 0 
L 1656 1459 
L 1656 0 
L 538 0 
L 538 4863 
z
" transform="scale(0.015625)"/>
      <path id="DejaVuSans-Bold-65" d="M 4031 1759 
L 4031 1441 
L 1416 1441 
Q 1456 1047 1700 850 
Q 1944 653 2381 653 
Q 2734 653 3104 758 
Q 3475 863 3866 1075 
L 3866 213 
Q 3469 63 3072 -14 
Q 2675 -91 2278 -91 
Q 1328 -91 801 392 
Q 275 875 275 1747 
Q 275 2603 792 3093 
Q 1309 3584 2216 3584 
Q 3041 3584 3536 3087 
Q 4031 2591 4031 1759 
z
M 2881 2131 
Q 2881 2450 2695 2645 
Q 2509 2841 2209 2841 
Q 1884 2841 1681 2658 
Q 1478 2475 1428 2131 
L 2881 2131 
z
" transform="scale(0.015625)"/>
      <path id="DejaVuSans-Bold-73" d="M 3272 3391 
L 3272 2541 
Q 2913 2691 2578 2766 
Q 2244 2841 1947 2841 
Q 1628 2841 1473 2761 
Q 1319 2681 1319 2516 
Q 1319 2381 1436 2309 
Q 1553 2238 1856 2203 
L 2053 2175 
Q 2913 2066 3209 1816 
Q 3506 1566 3506 1031 
Q 3506 472 3093 190 
Q 2681 -91 1863 -91 
Q 1516 -91 1145 -36 
Q 775 19 384 128 
L 384 978 
Q 719 816 1070 734 
Q 1422 653 1784 653 
Q 2113 653 2278 743 
Q 2444 834 2444 1013 
Q 2444 1163 2330 1236 
Q 2216 1309 1875 1350 
L 1678 1375 
Q 931 1469 631 1722 
Q 331 1975 331 2491 
Q 331 3047 712 3315 
Q 1094 3584 1881 3584 
Q 2191 3584 2531 3537 
Q 2872 3491 3272 3391 
z
" transform="scale(0.015625)"/>
     </defs>
     <use xlink:href="#DejaVuSans-Bold-49"/>
     <use xlink:href="#DejaVuSans-Bold-6e" transform="translate(37.207031 0)"/>
     <use xlink:href="#DejaVuSans-Bold-70" transform="translate(108.398438 0)"/>
     <use xlink:href="#DejaVuSans-Bold-75" transform="translate(179.980469 0)"/>
     <use xlink:href="#DejaVuSans-Bold-74" transform="translate(251.171875 0)"/>
     <use xlink:href="#DejaVuSans-Bold-20" transform="translate(298.974609 0)"/>
     <use xlink:href="#DejaVuSans-Bold-54" transform="translate(333.789062 0)"/>
     <use xlink:href="#DejaVuSans-Bold-6f" transform="translate(388.751953 0)"/>
     <use xlink:href="#DejaVuSans-Bold-6b" transform="translate(457.453125 0)"/>
     <use xlink:href="#DejaVuSans-Bold-65" transform="translate(521.332031 0)"/>
     <use xlink:href="#DejaVuSans-Bold-6e" transform="translate(589.154297 0)"/>
     <use xlink:href="#DejaVuSans-Bold-73" transform="translate(660.345703 0)"/>
    </g>
   </g>
   <g id="text_2">
    <!-- Token Embedding -->
    <g style="fill: #eaeaea" transform="translate(185.6925 146.710094) scale(0.09 -0.09)">
     <defs>
      <path id="DejaVuSans-Bold-45" d="M 588 4666 
L 3834 4666 
L 3834 3756 
L 1791 3756 
L 1791 2888 
L 3713 2888 
L 3713 1978 
L 1791 1978 
L 1791 909 
L 3903 909 
L 3903 0 
L 588 0 
L 588 4666 
z
" transform="scale(0.015625)"/>
      <path id="DejaVuSans-Bold-6d" d="M 3781 2919 
Q 3994 3244 4286 3414 
Q 4578 3584 4928 3584 
Q 5531 3584 5847 3212 
Q 6163 2841 6163 2131 
L 6163 0 
L 5038 0 
L 5038 1825 
Q 5041 1866 5042 1909 
Q 5044 1953 5044 2034 
Q 5044 2406 4934 2573 
Q 4825 2741 4581 2741 
Q 4263 2741 4089 2478 
Q 3916 2216 3909 1719 
L 3909 0 
L 2784 0 
L 2784 1825 
Q 2784 2406 2684 2573 
Q 2584 2741 2328 2741 
Q 2006 2741 1831 2477 
Q 1656 2213 1656 1722 
L 1656 0 
L 531 0 
L 531 3500 
L 1656 3500 
L 1656 2988 
Q 1863 3284 2130 3434 
Q 2397 3584 2719 3584 
Q 3081 3584 3359 3409 
Q 3638 3234 3781 2919 
z
" transform="scale(0.015625)"/>
      <path id="DejaVuSans-Bold-62" d="M 2400 722 
Q 2759 722 2948 984 
Q 3138 1247 3138 1747 
Q 3138 2247 2948 2509 
Q 2759 2772 2400 2772 
Q 2041 2772 1848 2508 
Q 1656 2244 1656 1747 
Q 1656 1250 1848 986 
Q 2041 722 2400 722 
z
M 1656 2988 
Q 1888 3294 2169 3439 
Q 2450 3584 2816 3584 
Q 3463 3584 3878 3070 
Q 4294 2556 4294 1747 
Q 4294 938 3878 423 
Q 3463 -91 2816 -91 
Q 2450 -91 2169 54 
Q 1888 200 1656 506 
L 1656 0 
L 538 0 
L 538 4863 
L 1656 4863 
L 1656 2988 
z
" transform="scale(0.015625)"/>
      <path id="DejaVuSans-Bold-64" d="M 2919 2988 
L 2919 4863 
L 4044 4863 
L 4044 0 
L 2919 0 
L 2919 506 
Q 2688 197 2409 53 
Q 2131 -91 1766 -91 
Q 1119 -91 703 423 
Q 288 938 288 1747 
Q 288 2556 703 3070 
Q 1119 3584 1766 3584 
Q 2128 3584 2408 3439 
Q 2688 3294 2919 2988 
z
M 2181 722 
Q 2541 722 2730 984 
Q 2919 1247 2919 1747 
Q 2919 2247 2730 2509 
Q 2541 2772 2181 2772 
Q 1825 2772 1636 2509 
Q 1447 2247 1447 1747 
Q 1447 1247 1636 984 
Q 1825 722 2181 722 
z
" transform="scale(0.015625)"/>
      <path id="DejaVuSans-Bold-69" d="M 538 3500 
L 1656 3500 
L 1656 0 
L 538 0 
L 538 3500 
z
M 538 4863 
L 1656 4863 
L 1656 3950 
L 538 3950 
L 538 4863 
z
" transform="scale(0.015625)"/>
      <path id="DejaVuSans-Bold-67" d="M 2919 594 
Q 2688 288 2409 144 
Q 2131 0 1766 0 
Q 1125 0 706 504 
Q 288 1009 288 1791 
Q 288 2575 706 3076 
Q 1125 3578 1766 3578 
Q 2131 3578 2409 3434 
Q 2688 3291 2919 2981 
L 2919 3500 
L 4044 3500 
L 4044 353 
Q 4044 -491 3511 -936 
Q 2978 -1381 1966 -1381 
Q 1638 -1381 1331 -1331 
Q 1025 -1281 716 -1178 
L 716 -306 
Q 1009 -475 1290 -558 
Q 1572 -641 1856 -641 
Q 2406 -641 2662 -400 
Q 2919 -159 2919 353 
L 2919 594 
z
M 2181 2772 
Q 1834 2772 1640 2515 
Q 1447 2259 1447 1791 
Q 1447 1309 1634 1061 
Q 1822 813 2181 813 
Q 2531 813 2725 1069 
Q 2919 1325 2919 1791 
Q 2919 2259 2725 2515 
Q 2531 2772 2181 2772 
z
" transform="scale(0.015625)"/>
     </defs>
     <use xlink:href="#DejaVuSans-Bold-54"/>
     <use xlink:href="#DejaVuSans-Bold-6f" transform="translate(54.962891 0)"/>
     <use xlink:href="#DejaVuSans-Bold-6b" transform="translate(123.664062 0)"/>
     <use xlink:href="#DejaVuSans-Bold-65" transform="translate(187.542969 0)"/>
     <use xlink:href="#DejaVuSans-Bold-6e" transform="translate(255.365234 0)"/>
     <use xlink:href="#DejaVuSans-Bold-20" transform="translate(326.556641 0)"/>
     <use xlink:href="#DejaVuSans-Bold-45" transform="translate(361.371094 0)"/>
     <use xlink:href="#DejaVuSans-Bold-6d" transform="translate(429.681641 0)"/>
     <use xlink:href="#DejaVuSans-Bold-62" transform="translate(533.880859 0)"/>
     <use xlink:href="#DejaVuSans-Bold-65" transform="translate(605.462891 0)"/>
     <use xlink:href="#DejaVuSans-Bold-64" transform="translate(673.285156 0)"/>
     <use xlink:href="#DejaVuSans-Bold-64" transform="translate(744.867188 0)"/>
     <use xlink:href="#DejaVuSans-Bold-69" transform="translate(816.449219 0)"/>
     <use xlink:href="#DejaVuSans-Bold-6e" transform="translate(850.726562 0)"/>
     <use xlink:href="#DejaVuSans-Bold-67" transform="translate(921.917969 0)"/>
    </g>
   </g>
   <g id="text_3">
    <!-- RMSNorm -->
    <g style="fill: #eaeaea" transform="translate(205.450312 191.09725) scale(0.09 -0.09)">
     <defs>
      <path id="DejaVuSans-Bold-52" d="M 2297 2597 
Q 2675 2597 2839 2737 
Q 3003 2878 3003 3200 
Q 3003 3519 2839 3656 
Q 2675 3794 2297 3794 
L 1791 3794 
L 1791 2597 
L 2297 2597 
z
M 1791 1766 
L 1791 0 
L 588 0 
L 588 4666 
L 2425 4666 
Q 3347 4666 3776 4356 
Q 4206 4047 4206 3378 
Q 4206 2916 3982 2619 
Q 3759 2322 3309 2181 
Q 3556 2125 3751 1926 
Q 3947 1728 4147 1325 
L 4800 0 
L 3519 0 
L 2950 1159 
Q 2778 1509 2601 1637 
Q 2425 1766 2131 1766 
L 1791 1766 
z
" transform="scale(0.015625)"/>
      <path id="DejaVuSans-Bold-4d" d="M 588 4666 
L 2119 4666 
L 3181 2169 
L 4250 4666 
L 5778 4666 
L 5778 0 
L 4641 0 
L 4641 3413 
L 3566 897 
L 2803 897 
L 1728 3413 
L 1728 0 
L 588 0 
L 588 4666 
z
" transform="scale(0.015625)"/>
      <path id="DejaVuSans-Bold-53" d="M 3834 4519 
L 3834 3531 
Q 3450 3703 3084 3790 
Q 2719 3878 2394 3878 
Q 1963 3878 1756 3759 
Q 1550 3641 1550 3391 
Q 1550 3203 1689 3098 
Q 1828 2994 2194 2919 
L 2706 2816 
Q 3484 2659 3812 2340 
Q 4141 2022 4141 1434 
Q 4141 663 3683 286 
Q 3225 -91 2284 -91 
Q 1841 -91 1394 -6 
Q 947 78 500 244 
L 500 1259 
Q 947 1022 1364 901 
Q 1781 781 2169 781 
Q 2563 781 2772 912 
Q 2981 1044 2981 1288 
Q 2981 1506 2839 1625 
Q 2697 1744 2272 1838 
L 1806 1941 
Q 1106 2091 782 2419 
Q 459 2747 459 3303 
Q 459 4000 909 4375 
Q 1359 4750 2203 4750 
Q 2588 4750 2994 4692 
Q 3400 4634 3834 4519 
z
" transform="scale(0.015625)"/>
      <path id="DejaVuSans-Bold-4e" d="M 588 4666 
L 1931 4666 
L 3628 1466 
L 3628 4666 
L 4769 4666 
L 4769 0 
L 3425 0 
L 1728 3200 
L 1728 0 
L 588 0 
L 588 4666 
z
" transform="scale(0.015625)"/>
      <path id="DejaVuSans-Bold-72" d="M 3138 2547 
Q 2991 2616 2845 2648 
Q 2700 2681 2553 2681 
Q 2122 2681 1889 2404 
Q 1656 2128 1656 1613 
L 1656 0 
L 538 0 
L 538 3500 
L 1656 3500 
L 1656 2925 
Q 1872 3269 2151 3426 
Q 2431 3584 2822 3584 
Q 2878 3584 2943 3579 
Q 3009 3575 3134 3559 
L 3138 2547 
z
" transform="scale(0.015625)"/>
     </defs>
     <use xlink:href="#DejaVuSans-Bold-52"/>
     <use xlink:href="#DejaVuSans-Bold-4d" transform="translate(77.001953 0)"/>
     <use xlink:href="#DejaVuSans-Bold-53" transform="translate(176.513672 0)"/>
     <use xlink:href="#DejaVuSans-Bold-4e" transform="translate(248.535156 0)"/>
     <use xlink:href="#DejaVuSans-Bold-6f" transform="translate(332.226562 0)"/>
     <use xlink:href="#DejaVuSans-Bold-72" transform="translate(400.927734 0)"/>
     <use xlink:href="#DejaVuSans-Bold-6d" transform="translate(450.244141 0)"/>
    </g>
   </g>
   <g id="text_4">
    <!-- Grouped Query Attention + RoPE -->
    <g style="fill: #eaeaea" transform="translate(146.469375 218.782094) scale(0.09 -0.09)">
     <defs>
      <path id="DejaVuSans-Bold-47" d="M 4781 347 
Q 4331 128 3847 18 
Q 3363 -91 2847 -91 
Q 1681 -91 1000 561 
Q 319 1213 319 2328 
Q 319 3456 1012 4103 
Q 1706 4750 2913 4750 
Q 3378 4750 3804 4662 
Q 4231 4575 4609 4403 
L 4609 3438 
Q 4219 3659 3833 3768 
Q 3447 3878 3059 3878 
Q 2341 3878 1952 3476 
Q 1563 3075 1563 2328 
Q 1563 1588 1938 1184 
Q 2313 781 3003 781 
Q 3191 781 3352 804 
Q 3513 828 3641 878 
L 3641 1784 
L 2906 1784 
L 2906 2591 
L 4781 2591 
L 4781 347 
z
" transform="scale(0.015625)"/>
      <path id="DejaVuSans-Bold-51" d="M 2847 -84 
L 2753 -84 
Q 1600 -84 959 553 
Q 319 1191 319 2328 
Q 319 3463 958 4106 
Q 1597 4750 2719 4750 
Q 3853 4750 4486 4112 
Q 5119 3475 5119 2328 
Q 5119 1541 4783 972 
Q 4447 403 3816 116 
L 4756 -934 
L 3609 -934 
L 2847 -84 
z
M 2719 3878 
Q 2169 3878 1866 3472 
Q 1563 3066 1563 2328 
Q 1563 1578 1859 1179 
Q 2156 781 2719 781 
Q 3272 781 3575 1187 
Q 3878 1594 3878 2328 
Q 3878 3066 3575 3472 
Q 3272 3878 2719 3878 
z
" transform="scale(0.015625)"/>
      <path id="DejaVuSans-Bold-79" d="M 78 3500 
L 1197 3500 
L 2138 1125 
L 2938 3500 
L 4056 3500 
L 2584 -331 
Q 2363 -916 2067 -1148 
Q 1772 -1381 1288 -1381 
L 641 -1381 
L 641 -647 
L 991 -647 
Q 1275 -647 1404 -556 
Q 1534 -466 1606 -231 
L 1638 -134 
L 78 3500 
z
" transform="scale(0.015625)"/>
      <path id="DejaVuSans-Bold-41" d="M 3419 850 
L 1538 850 
L 1241 0 
L 31 0 
L 1759 4666 
L 3194 4666 
L 4922 0 
L 3713 0 
L 3419 850 
z
M 1838 1716 
L 3116 1716 
L 2478 3572 
L 1838 1716 
z
" transform="scale(0.015625)"/>
      <path id="DejaVuSans-Bold-2b" d="M 3053 4013 
L 3053 2375 
L 4684 2375 
L 4684 1638 
L 3053 1638 
L 3053 0 
L 2309 0 
L 2309 1638 
L 678 1638 
L 678 2375 
L 2309 2375 
L 2309 4013 
L 3053 4013 
z
" transform="scale(0.015625)"/>
      <path id="DejaVuSans-Bold-50" d="M 588 4666 
L 2584 4666 
Q 3475 4666 3951 4270 
Q 4428 3875 4428 3144 
Q 4428 2409 3951 2014 
Q 3475 1619 2584 1619 
L 1791 1619 
L 1791 0 
L 588 0 
L 588 4666 
z
M 1791 3794 
L 1791 2491 
L 2456 2491 
Q 2806 2491 2997 2661 
Q 3188 2831 3188 3144 
Q 3188 3456 2997 3625 
Q 2806 3794 2456 3794 
L 1791 3794 
z
" transform="scale(0.015625)"/>
     </defs>
     <use xlink:href="#DejaVuSans-Bold-47"/>
     <use xlink:href="#DejaVuSans-Bold-72" transform="translate(82.080078 0)"/>
     <use xlink:href="#DejaVuSans-Bold-6f" transform="translate(131.396484 0)"/>
     <use xlink:href="#DejaVuSans-Bold-75" transform="translate(200.097656 0)"/>
     <use xlink:href="#DejaVuSans-Bold-70" transform="translate(271.289062 0)"/>
     <use xlink:href="#DejaVuSans-Bold-65" transform="translate(342.871094 0)"/>
     <use xlink:href="#DejaVuSans-Bold-64" transform="translate(410.693359 0)"/>
     <use xlink:href="#DejaVuSans-Bold-20" transform="translate(482.275391 0)"/>
     <use xlink:href="#DejaVuSans-Bold-51" transform="translate(517.089844 0)"/>
     <use xlink:href="#DejaVuSans-Bold-75" transform="translate(602.099609 0)"/>
     <use xlink:href="#DejaVuSans-Bold-65" transform="translate(673.291016 0)"/>
     <use xlink:href="#DejaVuSans-Bold-72" transform="translate(741.113281 0)"/>
     <use xlink:href="#DejaVuSans-Bold-79" transform="translate(790.429688 0)"/>
     <use xlink:href="#DejaVuSans-Bold-20" transform="translate(855.615234 0)"/>
     <use xlink:href="#DejaVuSans-Bold-41" transform="translate(890.429688 0)"/>
     <use xlink:href="#DejaVuSans-Bold-74" transform="translate(967.822266 0)"/>
     <use xlink:href="#DejaVuSans-Bold-74" transform="translate(1015.625 0)"/>
     <use xlink:href="#DejaVuSans-Bold-65" transform="translate(1063.427734 0)"/>
     <use xlink:href="#DejaVuSans-Bold-6e" transform="translate(1131.25 0)"/>
     <use xlink:href="#DejaVuSans-Bold-74" transform="translate(1202.441406 0)"/>
     <use xlink:href="#DejaVuSans-Bold-69" transform="translate(1250.244141 0)"/>
     <use xlink:href="#DejaVuSans-Bold-6f" transform="translate(1284.521484 0)"/>
     <use xlink:href="#DejaVuSans-Bold-6e" transform="translate(1353.222656 0)"/>
     <use xlink:href="#DejaVuSans-Bold-20" transform="translate(1424.414062 0)"/>
     <use xlink:href="#DejaVuSans-Bold-2b" transform="translate(1459.228516 0)"/>
     <use xlink:href="#DejaVuSans-Bold-20" transform="translate(1543.017578 0)"/>
     <use xlink:href="#DejaVuSans-Bold-52" transform="translate(1577.832031 0)"/>
     <use xlink:href="#DejaVuSans-Bold-6f" transform="translate(1654.833984 0)"/>
     <use xlink:href="#DejaVuSans-Bold-50" transform="translate(1723.535156 0)"/>
     <use xlink:href="#DejaVuSans-Bold-45" transform="translate(1796.826172 0)"/>
    </g>
   </g>
   <g id="text_5">
    <!-- RMSNorm -->
    <g style="fill: #eaeaea" transform="translate(208.2225 251.805313) scale(0.08 -0.08)">
     <use xlink:href="#DejaVuSans-Bold-52"/>
     <use xlink:href="#DejaVuSans-Bold-4d" transform="translate(77.001953 0)"/>
     <use xlink:href="#DejaVuSans-Bold-53" transform="translate(176.513672 0)"/>
     <use xlink:href="#DejaVuSans-Bold-4e" transform="translate(248.535156 0)"/>
     <use xlink:href="#DejaVuSans-Bold-6f" transform="translate(332.226562 0)"/>
     <use xlink:href="#DejaVuSans-Bold-72" transform="translate(400.927734 0)"/>
     <use xlink:href="#DejaVuSans-Bold-6d" transform="translate(450.244141 0)"/>
    </g>
   </g>
   <g id="text_6">
    <!-- SwiGLU FFN -->
    <g style="fill: #eaeaea" transform="translate(199.926562 274.25725) scale(0.09 -0.09)">
     <defs>
      <path id="DejaVuSans-Bold-77" d="M 225 3500 
L 1313 3500 
L 1900 1088 
L 2491 3500 
L 3425 3500 
L 4013 1113 
L 4603 3500 
L 5691 3500 
L 4769 0 
L 3547 0 
L 2956 2406 
L 2369 0 
L 1147 0 
L 225 3500 
z
" transform="scale(0.015625)"/>
      <path id="DejaVuSans-Bold-4c" d="M 588 4666 
L 1791 4666 
L 1791 909 
L 3903 909 
L 3903 0 
L 588 0 
L 588 4666 
z
" transform="scale(0.015625)"/>
      <path id="DejaVuSans-Bold-55" d="M 588 4666 
L 1791 4666 
L 1791 1869 
Q 1791 1291 1980 1042 
Q 2169 794 2597 794 
Q 3028 794 3217 1042 
Q 3406 1291 3406 1869 
L 3406 4666 
L 4609 4666 
L 4609 1869 
Q 4609 878 4112 393 
Q 3616 -91 2597 -91 
Q 1581 -91 1084 393 
Q 588 878 588 1869 
L 588 4666 
z
" transform="scale(0.015625)"/>
      <path id="DejaVuSans-Bold-46" d="M 588 4666 
L 3834 4666 
L 3834 3756 
L 1791 3756 
L 1791 2888 
L 3713 2888 
L 3713 1978 
L 1791 1978 
L 1791 0 
L 588 0 
L 588 4666 
z
" transform="scale(0.015625)"/>
     </defs>
     <use xlink:href="#DejaVuSans-Bold-53"/>
     <use xlink:href="#DejaVuSans-Bold-77" transform="translate(72.021484 0)"/>
     <use xlink:href="#DejaVuSans-Bold-69" transform="translate(164.404297 0)"/>
     <use xlink:href="#DejaVuSans-Bold-47" transform="translate(198.681641 0)"/>
     <use xlink:href="#DejaVuSans-Bold-4c" transform="translate(280.761719 0)"/>
     <use xlink:href="#DejaVuSans-Bold-55" transform="translate(340.857422 0)"/>
     <use xlink:href="#DejaVuSans-Bold-20" transform="translate(422.058594 0)"/>
     <use xlink:href="#DejaVuSans-Bold-46" transform="translate(456.873047 0)"/>
     <use xlink:href="#DejaVuSans-Bold-46" transform="translate(525.183594 0)"/>
     <use xlink:href="#DejaVuSans-Bold-4e" transform="translate(593.494141 0)"/>
    </g>
   </g>
   <g id="text_7">
    <!-- RMSNorm -->
    <g style="fill: #eaeaea" transform="translate(208.2225 307.245313) scale(0.08 -0.08)">
     <use xlink:href="#DejaVuSans-Bold-52"/>
     <use xlink:href="#DejaVuSans-Bold-4d" transform="translate(77.001953 0)"/>
     <use xlink:href="#DejaVuSans-Bold-53" transform="translate(176.513672 0)"/>
     <use xlink:href="#DejaVuSans-Bold-4e" transform="translate(248.535156 0)"/>
     <use xlink:href="#DejaVuSans-Bold-6f" transform="translate(332.226562 0)"/>
     <use xlink:href="#DejaVuSans-Bold-72" transform="translate(400.927734 0)"/>
     <use xlink:href="#DejaVuSans-Bold-6d" transform="translate(450.244141 0)"/>
    </g>
   </g>
   <g id="patch_19">
    <path d="M 230.4 196.15484 
Q 230.4 253.754659 230.4 310.236443 
" style="fill: none; stroke: #888888; stroke-linecap: round"/>
    <path d="M 232.4 306.236443 
L 230.4 310.236443 
L 228.4 306.236443 
" style="fill: none; stroke: #888888; stroke-linecap: round"/>
   </g>
   <g id="text_8">
    <!-- Grouped Query Attention + RoPE -->
    <g style="fill: #eaeaea" transform="translate(146.469375 307.486094) scale(0.09 -0.09)">
     <use xlink:href="#DejaVuSans-Bold-47"/>
     <use xlink:href="#DejaVuSans-Bold-72" transform="translate(82.080078 0)"/>
     <use xlink:href="#DejaVuSans-Bold-6f" transform="translate(131.396484 0)"/>
     <use xlink:href="#DejaVuSans-Bold-75" transform="translate(200.097656 0)"/>
     <use xlink:href="#DejaVuSans-Bold-70" transform="translate(271.289062 0)"/>
     <use xlink:href="#DejaVuSans-Bold-65" transform="translate(342.871094 0)"/>
     <use xlink:href="#DejaVuSans-Bold-64" transform="translate(410.693359 0)"/>
     <use xlink:href="#DejaVuSans-Bold-20" transform="translate(482.275391 0)"/>
     <use xlink:href="#DejaVuSans-Bold-51" transform="translate(517.089844 0)"/>
     <use xlink:href="#DejaVuSans-Bold-75" transform="translate(602.099609 0)"/>
     <use xlink:href="#DejaVuSans-Bold-65" transform="translate(673.291016 0)"/>
     <use xlink:href="#DejaVuSans-Bold-72" transform="translate(741.113281 0)"/>
     <use xlink:href="#DejaVuSans-Bold-79" transform="translate(790.429688 0)"/>
     <use xlink:href="#DejaVuSans-Bold-20" transform="translate(855.615234 0)"/>
     <use xlink:href="#DejaVuSans-Bold-41" transform="translate(890.429688 0)"/>
     <use xlink:href="#DejaVuSans-Bold-74" transform="translate(967.822266 0)"/>
     <use xlink:href="#DejaVuSans-Bold-74" transform="translate(1015.625 0)"/>
     <use xlink:href="#DejaVuSans-Bold-65" transform="translate(1063.427734 0)"/>
     <use xlink:href="#DejaVuSans-Bold-6e" transform="translate(1131.25 0)"/>
     <use xlink:href="#DejaVuSans-Bold-74" transform="translate(1202.441406 0)"/>
     <use xlink:href="#DejaVuSans-Bold-69" transform="translate(1250.244141 0)"/>
     <use xlink:href="#DejaVuSans-Bold-6f" transform="translate(1284.521484 0)"/>
     <use xlink:href="#DejaVuSans-Bold-6e" transform="translate(1353.222656 0)"/>
     <use xlink:href="#DejaVuSans-Bold-20" transform="translate(1424.414062 0)"/>
     <use xlink:href="#DejaVuSans-Bold-2b" transform="translate(1459.228516 0)"/>
     <use xlink:href="#DejaVuSans-Bold-20" transform="translate(1543.017578 0)"/>
     <use xlink:href="#DejaVuSans-Bold-52" transform="translate(1577.832031 0)"/>
     <use xlink:href="#DejaVuSans-Bold-6f" transform="translate(1654.833984 0)"/>
     <use xlink:href="#DejaVuSans-Bold-50" transform="translate(1723.535156 0)"/>
     <use xlink:href="#DejaVuSans-Bold-45" transform="translate(1796.826172 0)"/>
    </g>
   </g>
   <g id="text_9">
    <!-- RMSNorm -->
    <g style="fill: #eaeaea" transform="translate(208.2225 340.509313) scale(0.08 -0.08)">
     <use xlink:href="#DejaVuSans-Bold-52"/>
     <use xlink:href="#DejaVuSans-Bold-4d" transform="translate(77.001953 0)"/>
     <use xlink:href="#DejaVuSans-Bold-53" transform="translate(176.513672 0)"/>
     <use xlink:href="#DejaVuSans-Bold-4e" transform="translate(248.535156 0)"/>
     <use xlink:href="#DejaVuSans-Bold-6f" transform="translate(332.226562 0)"/>
     <use xlink:href="#DejaVuSans-Bold-72" transform="translate(400.927734 0)"/>
     <use xlink:href="#DejaVuSans-Bold-6d" transform="translate(450.244141 0)"/>
    </g>
   </g>
   <g id="text_10">
    <!-- SwiGLU FFN -->
    <g style="fill: #eaeaea" transform="translate(199.926562 362.96125) scale(0.09 -0.09)">
     <use xlink:href="#DejaVuSans-Bold-53"/>
     <use xlink:href="#DejaVuSans-Bold-77" transform="translate(72.021484 0)"/>
     <use xlink:href="#DejaVuSans-Bold-69" transform="translate(164.404297 0)"/>
     <use xlink:href="#DejaVuSans-Bold-47" transform="translate(198.681641 0)"/>
     <use xlink:href="#DejaVuSans-Bold-4c" transform="translate(280.761719 0)"/>
     <use xlink:href="#DejaVuSans-Bold-55" transform="translate(340.857422 0)"/>
     <use xlink:href="#DejaVuSans-Bold-20" transform="translate(422.058594 0)"/>
     <use xlink:href="#DejaVuSans-Bold-46" transform="translate(456.873047 0)"/>
     <use xlink:href="#DejaVuSans-Bold-46" transform="translate(525.183594 0)"/>
     <use xlink:href="#DejaVuSans-Bold-4e" transform="translate(593.494141 0)"/>
    </g>
   </g>
   <g id="text_11">
    <!-- RMSNorm -->
    <g style="fill: #eaeaea" transform="translate(208.2225 395.949313) scale(0.08 -0.08)">
     <use xlink:href="#DejaVuSans-Bold-52"/>
     <use xlink:href="#DejaVuSans-Bold-4d" transform="translate(77.001953 0)"/>
     <use xlink:href="#DejaVuSans-Bold-53" transform="translate(176.513672 0)"/>
     <use xlink:href="#DejaVuSans-Bold-4e" transform="translate(248.535156 0)"/>
     <use xlink:href="#DejaVuSans-Bold-6f" transform="translate(332.226562 0)"/>
     <use xlink:href="#DejaVuSans-Bold-72" transform="translate(400.927734 0)"/>
     <use xlink:href="#DejaVuSans-Bold-6d" transform="translate(450.244141 0)"/>
    </g>
   </g>
   <g id="patch_20">
    <path d="M 230.4 284.85884 
Q 230.4 342.458659 230.4 398.940443 
" style="fill: none; stroke: #888888; stroke-linecap: round"/>
    <path d="M 232.4 394.940443 
L 230.4 398.940443 
L 228.4 394.940443 
" style="fill: none; stroke: #888888; stroke-linecap: round"/>
   </g>
   <g id="text_12">
    <!-- Grouped Query Attention + RoPE -->
    <g style="fill: #eaeaea" transform="translate(146.469375 396.190094) scale(0.09 -0.09)">
     <use xlink:href="#DejaVuSans-Bold-47"/>
     <use xlink:href="#DejaVuSans-Bold-72" transform="translate(82.080078 0)"/>
     <use xlink:href="#DejaVuSans-Bold-6f" transform="translate(131.396484 0)"/>
     <use xlink:href="#DejaVuSans-Bold-75" transform="translate(200.097656 0)"/>
     <use xlink:href="#DejaVuSans-Bold-70" transform="translate(271.289062 0)"/>
     <use xlink:href="#DejaVuSans-Bold-65" transform="translate(342.871094 0)"/>
     <use xlink:href="#DejaVuSans-Bold-64" transform="translate(410.693359 0)"/>
     <use xlink:href="#DejaVuSans-Bold-20" transform="translate(482.275391 0)"/>
     <use xlink:href="#DejaVuSans-Bold-51" transform="translate(517.089844 0)"/>
     <use xlink:href="#DejaVuSans-Bold-75" transform="translate(602.099609 0)"/>
     <use xlink:href="#DejaVuSans-Bold-65" transform="translate(673.291016 0)"/>
     <use xlink:href="#DejaVuSans-Bold-72" transform="translate(741.113281 0)"/>
     <use xlink:href="#DejaVuSans-Bold-79" transform="translate(790.429688 0)"/>
     <use xlink:href="#DejaVuSans-Bold-20" transform="translate(855.615234 0)"/>
     <use xlink:href="#DejaVuSans-Bold-41" transform="translate(890.429688 0)"/>
     <use xlink:href="#DejaVuSans-Bold-74" transform="translate(967.822266 0)"/>
     <use xlink:href="#DejaVuSans-Bold-74" transform="translate(1015.625 0)"/>
     <use xlink:href="#DejaVuSans-Bold-65" transform="translate(1063.427734 0)"/>
     <use xlink:href="#DejaVuSans-Bold-6e" transform="translate(1131.25 0)"/>
     <use xlink:href="#DejaVuSans-Bold-74" transform="translate(1202.441406 0)"/>
     <use xlink:href="#DejaVuSans-Bold-69" transform="translate(1250.244141 0)"/>
     <use xlink:href="#DejaVuSans-Bold-6f" transform="translate(1284.521484 0)"/>
     <use xlink:href="#DejaVuSans-Bold-6e" transform="translate(1353.222656 0)"/>
     <use xlink:href="#DejaVuSans-Bold-20" transform="translate(1424.414062 0)"/>
     <use xlink:href="#DejaVuSans-Bold-2b" transform="translate(1459.228516 0)"/>
     <use xlink:href="#DejaVuSans-Bold-20" transform="translate(1543.017578 0)"/>
     <use xlink:href="#DejaVuSans-Bold-52" transform="translate(1577.832031 0)"/>
     <use xlink:href="#DejaVuSans-Bold-6f" transform="translate(1654.833984 0)"/>
     <use xlink:href="#DejaVuSans-Bold-50" transform="translate(1723.535156 0)"/>
     <use xlink:href="#DejaVuSans-Bold-45" transform="translate(1796.826172 0)"/>
    </g>
   </g>
   <g id="text_13">
    <!-- RMSNorm -->
    <g style="fill: #eaeaea" transform="translate(208.2225 429.213313) scale(0.08 -0.08)">
     <use xlink:href="#DejaVuSans-Bold-52"/>
     <use xlink:href="#DejaVuSans-Bold-4d" transform="translate(77.001953 0)"/>
     <use xlink:href="#DejaVuSans-Bold-53" transform="translate(176.513672 0)"/>
     <use xlink:href="#DejaVuSans-Bold-4e" transform="translate(248.535156 0)"/>
     <use xlink:href="#DejaVuSans-Bold-6f" transform="translate(332.226562 0)"/>
     <use xlink:href="#DejaVuSans-Bold-72" transform="translate(400.927734 0)"/>
     <use xlink:href="#DejaVuSans-Bold-6d" transform="translate(450.244141 0)"/>
    </g>
   </g>
   <g id="text_14">
    <!-- SwiGLU FFN -->
    <g style="fill: #eaeaea" transform="translate(199.926562 451.66525) scale(0.09 -0.09)">
     <use xlink:href="#DejaVuSans-Bold-53"/>
     <use xlink:href="#DejaVuSans-Bold-77" transform="translate(72.021484 0)"/>
     <use xlink:href="#DejaVuSans-Bold-69" transform="translate(164.404297 0)"/>
     <use xlink:href="#DejaVuSans-Bold-47" transform="translate(198.681641 0)"/>
     <use xlink:href="#DejaVuSans-Bold-4c" transform="translate(280.761719 0)"/>
     <use xlink:href="#DejaVuSans-Bold-55" transform="translate(340.857422 0)"/>
     <use xlink:href="#DejaVuSans-Bold-20" transform="translate(422.058594 0)"/>
     <use xlink:href="#DejaVuSans-Bold-46" transform="translate(456.873047 0)"/>
     <use xlink:href="#DejaVuSans-Bold-46" transform="translate(525.183594 0)"/>
     <use xlink:href="#DejaVuSans-Bold-4e" transform="translate(593.494141 0)"/>
    </g>
   </g>
   <g id="text_15">
    <!-- RMSNorm -->
    <g style="fill: #eaeaea" transform="translate(208.2225 484.653313) scale(0.08 -0.08)">
     <use xlink:href="#DejaVuSans-Bold-52"/>
     <use xlink:href="#DejaVuSans-Bold-4d" transform="translate(77.001953 0)"/>
     <use xlink:href="#DejaVuSans-Bold-53" transform="translate(176.513672 0)"/>
     <use xlink:href="#DejaVuSans-Bold-4e" transform="translate(248.535156 0)"/>
     <use xlink:href="#DejaVuSans-Bold-6f" transform="translate(332.226562 0)"/>
     <use xlink:href="#DejaVuSans-Bold-72" transform="translate(400.927734 0)"/>
     <use xlink:href="#DejaVuSans-Bold-6d" transform="translate(450.244141 0)"/>
    </g>
   </g>
   <g id="text_16">
    <!-- x32-80 layers -->
    <g style="fill: #888888" transform="translate(196.173437 363.237188) scale(0.1 -0.1)">
     <defs>
      <path id="DejaVuSans-Oblique-78" d="M 3841 3500 
L 2234 1784 
L 3219 0 
L 2559 0 
L 1819 1388 
L 531 0 
L -166 0 
L 1556 1844 
L 641 3500 
L 1300 3500 
L 1972 2234 
L 3144 3500 
L 3841 3500 
z
" transform="scale(0.015625)"/>
      <path id="DejaVuSans-Oblique-33" d="M 1013 4550 
Q 1356 4650 1679 4700 
Q 2003 4750 2316 4750 
Q 2934 4750 3296 4475 
Q 3659 4200 3659 3738 
Q 3659 3284 3373 2959 
Q 3088 2634 2584 2516 
Q 2978 2403 3162 2165 
Q 3347 1928 3347 1538 
Q 3347 1163 3167 834 
Q 2988 506 2650 269 
Q 2394 88 2037 -1 
Q 1681 -91 1216 -91 
Q 922 -91 622 -33 
Q 322 25 13 141 
L 128 738 
Q 422 575 720 495 
Q 1019 416 1331 416 
Q 1947 416 2330 733 
Q 2713 1050 2713 1556 
Q 2713 1881 2469 2057 
Q 2225 2234 1772 2234 
L 1228 2234 
L 1325 2747 
L 1900 2747 
Q 2419 2747 2717 2984 
Q 3016 3222 3016 3628 
Q 3016 3922 2797 4083 
Q 2578 4244 2181 4244 
Q 1881 4244 1567 4180 
Q 1253 4116 916 3988 
L 1013 4550 
z
" transform="scale(0.015625)"/>
      <path id="DejaVuSans-Oblique-32" d="M 2950 2253 
L 934 525 
L 3163 525 
L 3053 0 
L 25 0 
L 128 531 
L 2234 2338 
Q 2656 2703 2832 2979 
Q 3009 3256 3009 3547 
Q 3009 3850 2796 4040 
Q 2584 4231 2241 4231 
Q 1944 4231 1581 4125 
Q 1219 4019 806 3816 
L 922 4441 
Q 1309 4594 1662 4672 
Q 2016 4750 2316 4750 
Q 2928 4750 3301 4425 
Q 3675 4100 3675 3572 
Q 3675 3216 3497 2892 
Q 3319 2569 2950 2253 
z
" transform="scale(0.015625)"/>
      <path id="DejaVuSans-Oblique-2d" d="M 391 2009 
L 2075 2009 
L 1978 1497 
L 288 1497 
L 391 2009 
z
" transform="scale(0.015625)"/>
      <path id="DejaVuSans-Oblique-38" d="M 2847 1416 
Q 2847 1769 2600 1992 
Q 2353 2216 1953 2216 
Q 1466 2216 1148 1923 
Q 831 1631 831 1184 
Q 831 828 1073 618 
Q 1316 409 1728 409 
Q 2219 409 2533 693 
Q 2847 978 2847 1416 
z
M 3169 3591 
Q 3169 3888 2950 4069 
Q 2731 4250 2369 4250 
Q 1941 4250 1664 4009 
Q 1388 3769 1388 3406 
Q 1388 3094 1605 2903 
Q 1822 2713 2181 2713 
Q 2613 2713 2891 2961 
Q 3169 3209 3169 3591 
z
M 2741 2456 
Q 3094 2322 3281 2050 
Q 3469 1778 3469 1394 
Q 3469 747 2969 328 
Q 2469 -91 1678 -91 
Q 1006 -91 609 239 
Q 213 569 213 1119 
Q 213 1619 553 2008 
Q 894 2397 1441 2503 
Q 1113 2616 941 2852 
Q 769 3088 769 3425 
Q 769 3991 1239 4370 
Q 1709 4750 2431 4750 
Q 3034 4750 3414 4442 
Q 3794 4134 3794 3659 
Q 3794 3247 3511 2923 
Q 3228 2600 2741 2456 
z
" transform="scale(0.015625)"/>
      <path id="DejaVuSans-Oblique-30" d="M 2444 4750 
Q 3078 4750 3414 4328 
Q 3750 3906 3750 3116 
Q 3750 2516 3592 1923 
Q 3434 1331 3150 863 
Q 2859 394 2467 151 
Q 2075 -91 1600 -91 
Q 988 -91 653 334 
Q 319 759 319 1544 
Q 319 2138 480 2733 
Q 641 3328 928 3794 
Q 1216 4263 1602 4506 
Q 1988 4750 2444 4750 
z
M 2406 4250 
Q 2169 4250 1955 4123 
Q 1741 3997 1569 3750 
Q 1281 3338 1111 2720 
Q 941 2103 941 1453 
Q 941 938 1123 673 
Q 1306 409 1663 409 
Q 1913 409 2125 536 
Q 2338 663 2509 909 
Q 2794 1319 2961 1936 
Q 3128 2553 3128 3206 
Q 3128 3722 2945 3986 
Q 2763 4250 2406 4250 
z
" transform="scale(0.015625)"/>
      <path id="DejaVuSans-Oblique-20" transform="scale(0.015625)"/>
      <path id="DejaVuSans-Oblique-6c" d="M 1172 4863 
L 1747 4863 
L 800 0 
L 225 0 
L 1172 4863 
z
" transform="scale(0.015625)"/>
      <path id="DejaVuSans-Oblique-61" d="M 3438 1997 
L 3047 0 
L 2472 0 
L 2578 531 
Q 2325 219 2001 64 
Q 1678 -91 1281 -91 
Q 834 -91 548 182 
Q 263 456 263 884 
Q 263 1497 752 1853 
Q 1241 2209 2100 2209 
L 2900 2209 
L 2931 2363 
Q 2938 2388 2941 2417 
Q 2944 2447 2944 2509 
Q 2944 2788 2717 2942 
Q 2491 3097 2081 3097 
Q 1800 3097 1504 3025 
Q 1209 2953 897 2809 
L 997 3341 
Q 1322 3463 1633 3523 
Q 1944 3584 2234 3584 
Q 2853 3584 3176 3315 
Q 3500 3047 3500 2534 
Q 3500 2431 3484 2292 
Q 3469 2153 3438 1997 
z
M 2816 1759 
L 2241 1759 
Q 1534 1759 1195 1570 
Q 856 1381 856 984 
Q 856 709 1029 553 
Q 1203 397 1509 397 
Q 1978 397 2328 733 
Q 2678 1069 2791 1631 
L 2816 1759 
z
" transform="scale(0.015625)"/>
      <path id="DejaVuSans-Oblique-79" d="M 1588 -325 
Q 1188 -997 936 -1164 
Q 684 -1331 294 -1331 
L -159 -1331 
L -63 -850 
L 269 -850 
Q 509 -850 678 -719 
Q 847 -588 1056 -206 
L 1234 128 
L 459 3500 
L 1069 3500 
L 1650 819 
L 3256 3500 
L 3859 3500 
L 1588 -325 
z
" transform="scale(0.015625)"/>
      <path id="DejaVuSans-Oblique-65" d="M 3078 2063 
Q 3088 2113 3092 2166 
Q 3097 2219 3097 2272 
Q 3097 2653 2873 2875 
Q 2650 3097 2266 3097 
Q 1838 3097 1509 2826 
Q 1181 2556 1013 2059 
L 3078 2063 
z
M 3578 1613 
L 903 1613 
Q 884 1494 878 1425 
Q 872 1356 872 1306 
Q 872 872 1139 634 
Q 1406 397 1894 397 
Q 2269 397 2603 481 
Q 2938 566 3225 728 
L 3116 159 
Q 2806 34 2476 -28 
Q 2147 -91 1806 -91 
Q 1078 -91 686 257 
Q 294 606 294 1247 
Q 294 1794 489 2264 
Q 684 2734 1063 3103 
Q 1306 3334 1642 3459 
Q 1978 3584 2356 3584 
Q 2950 3584 3301 3228 
Q 3653 2872 3653 2272 
Q 3653 2128 3634 1964 
Q 3616 1800 3578 1613 
z
" transform="scale(0.015625)"/>
      <path id="DejaVuSans-Oblique-72" d="M 2853 2969 
Q 2766 3016 2653 3041 
Q 2541 3066 2413 3066 
Q 1953 3066 1609 2717 
Q 1266 2369 1153 1784 
L 800 0 
L 225 0 
L 909 3500 
L 1484 3500 
L 1375 2956 
Q 1603 3259 1920 3421 
Q 2238 3584 2597 3584 
Q 2691 3584 2781 3573 
Q 2872 3563 2963 3538 
L 2853 2969 
z
" transform="scale(0.015625)"/>
      <path id="DejaVuSans-Oblique-73" d="M 3200 3397 
L 3091 2853 
Q 2863 2978 2609 3040 
Q 2356 3103 2088 3103 
Q 1634 3103 1373 2948 
Q 1113 2794 1113 2528 
Q 1113 2219 1719 2053 
Q 1766 2041 1788 2034 
L 1972 1978 
Q 2547 1819 2739 1644 
Q 2931 1469 2931 1166 
Q 2931 609 2489 259 
Q 2047 -91 1331 -91 
Q 1053 -91 747 -37 
Q 441 16 72 128 
L 184 722 
Q 500 559 806 475 
Q 1113 391 1394 391 
Q 1816 391 2080 572 
Q 2344 753 2344 1031 
Q 2344 1331 1650 1516 
L 1591 1531 
L 1394 1581 
Q 956 1697 753 1886 
Q 550 2075 550 2369 
Q 550 2928 970 3256 
Q 1391 3584 2113 3584 
Q 2397 3584 2667 3537 
Q 2938 3491 3200 3397 
z
" transform="scale(0.015625)"/>
     </defs>
     <use xlink:href="#DejaVuSans-Oblique-78"/>
     <use xlink:href="#DejaVuSans-Oblique-33" transform="translate(59.179688 0)"/>
     <use xlink:href="#DejaVuSans-Oblique-32" transform="translate(122.802734 0)"/>
     <use xlink:href="#DejaVuSans-Oblique-2d" transform="translate(186.425781 0)"/>
     <use xlink:href="#DejaVuSans-Oblique-38" transform="translate(222.509766 0)"/>
     <use xlink:href="#DejaVuSans-Oblique-30" transform="translate(286.132812 0)"/>
     <use xlink:href="#DejaVuSans-Oblique-20" transform="translate(349.755859 0)"/>
     <use xlink:href="#DejaVuSans-Oblique-6c" transform="translate(381.542969 0)"/>
     <use xlink:href="#DejaVuSans-Oblique-61" transform="translate(409.326172 0)"/>
     <use xlink:href="#DejaVuSans-Oblique-79" transform="translate(470.605469 0)"/>
     <use xlink:href="#DejaVuSans-Oblique-65" transform="translate(529.785156 0)"/>
     <use xlink:href="#DejaVuSans-Oblique-72" transform="translate(591.308594 0)"/>
     <use xlink:href="#DejaVuSans-Oblique-73" transform="translate(632.421875 0)"/>
    </g>
   </g>
   <g id="text_17">
    <!-- RMSNorm + LM Head -->
    <g style="fill: #eaeaea" transform="translate(176.558203 537.59725) scale(0.09 -0.09)">
     <defs>
      <path id="DejaVuSans-Bold-48" d="M 588 4666 
L 1791 4666 
L 1791 2888 
L 3566 2888 
L 3566 4666 
L 4769 4666 
L 4769 0 
L 3566 0 
L 3566 1978 
L 1791 1978 
L 1791 0 
L 588 0 
L 588 4666 
z
" transform="scale(0.015625)"/>
      <path id="DejaVuSans-Bold-61" d="M 2106 1575 
Q 1756 1575 1579 1456 
Q 1403 1338 1403 1106 
Q 1403 894 1545 773 
Q 1688 653 1941 653 
Q 2256 653 2472 879 
Q 2688 1106 2688 1447 
L 2688 1575 
L 2106 1575 
z
M 3816 1997 
L 3816 0 
L 2688 0 
L 2688 519 
Q 2463 200 2181 54 
Q 1900 -91 1497 -91 
Q 953 -91 614 226 
Q 275 544 275 1050 
Q 275 1666 698 1953 
Q 1122 2241 2028 2241 
L 2688 2241 
L 2688 2328 
Q 2688 2594 2478 2717 
Q 2269 2841 1825 2841 
Q 1466 2841 1156 2769 
Q 847 2697 581 2553 
L 581 3406 
Q 941 3494 1303 3539 
Q 1666 3584 2028 3584 
Q 2975 3584 3395 3211 
Q 3816 2838 3816 1997 
z
" transform="scale(0.015625)"/>
     </defs>
     <use xlink:href="#DejaVuSans-Bold-52"/>
     <use xlink:href="#DejaVuSans-Bold-4d" transform="translate(77.001953 0)"/>
     <use xlink:href="#DejaVuSans-Bold-53" transform="translate(176.513672 0)"/>
     <use xlink:href="#DejaVuSans-Bold-4e" transform="translate(248.535156 0)"/>
     <use xlink:href="#DejaVuSans-Bold-6f" transform="translate(332.226562 0)"/>
     <use xlink:href="#DejaVuSans-Bold-72" transform="translate(400.927734 0)"/>
     <use xlink:href="#DejaVuSans-Bold-6d" transform="translate(450.244141 0)"/>
     <use xlink:href="#DejaVuSans-Bold-20" transform="translate(554.443359 0)"/>
     <use xlink:href="#DejaVuSans-Bold-2b" transform="translate(589.257812 0)"/>
     <use xlink:href="#DejaVuSans-Bold-20" transform="translate(673.046875 0)"/>
     <use xlink:href="#DejaVuSans-Bold-4c" transform="translate(707.861328 0)"/>
     <use xlink:href="#DejaVuSans-Bold-4d" transform="translate(771.582031 0)"/>
     <use xlink:href="#DejaVuSans-Bold-20" transform="translate(871.09375 0)"/>
     <use xlink:href="#DejaVuSans-Bold-48" transform="translate(905.908203 0)"/>
     <use xlink:href="#DejaVuSans-Bold-65" transform="translate(989.599609 0)"/>
     <use xlink:href="#DejaVuSans-Bold-61" transform="translate(1057.421875 0)"/>
     <use xlink:href="#DejaVuSans-Bold-64" transform="translate(1124.902344 0)"/>
    </g>
   </g>
   <g id="patch_21">
    <path d="M 230.4 513.707963 
Q 230.4 499.078635 230.4 486.126358 
" style="fill: none; stroke: #00d4aa; stroke-width: 1.5; stroke-linecap: round"/>
    <path d="M 228.4 490.126358 
L 230.4 486.126358 
L 232.4 490.126358 
" style="fill: none; stroke: #00d4aa; stroke-width: 1.5; stroke-linecap: round"/>
   </g>
   <g id="text_18">
    <!-- Next Token Distribution -->
    <g style="fill: #eaeaea" transform="translate(170.417812 587.49325) scale(0.09 -0.09)">
     <defs>
      <path id="DejaVuSans-Bold-78" d="M 1422 1791 
L 159 3500 
L 1344 3500 
L 2059 2463 
L 2784 3500 
L 3969 3500 
L 2706 1797 
L 4031 0 
L 2847 0 
L 2059 1106 
L 1281 0 
L 97 0 
L 1422 1791 
z
" transform="scale(0.015625)"/>
      <path id="DejaVuSans-Bold-44" d="M 1791 3756 
L 1791 909 
L 2222 909 
Q 2959 909 3348 1275 
Q 3738 1641 3738 2338 
Q 3738 3031 3350 3393 
Q 2963 3756 2222 3756 
L 1791 3756 
z
M 588 4666 
L 1856 4666 
Q 2919 4666 3439 4514 
Q 3959 4363 4331 4000 
Q 4659 3684 4818 3271 
Q 4978 2859 4978 2338 
Q 4978 1809 4818 1395 
Q 4659 981 4331 666 
Q 3956 303 3431 151 
Q 2906 0 1856 0 
L 588 0 
L 588 4666 
z
" transform="scale(0.015625)"/>
     </defs>
     <use xlink:href="#DejaVuSans-Bold-4e"/>
     <use xlink:href="#DejaVuSans-Bold-65" transform="translate(83.691406 0)"/>
     <use xlink:href="#DejaVuSans-Bold-78" transform="translate(151.513672 0)"/>
     <use xlink:href="#DejaVuSans-Bold-74" transform="translate(216.015625 0)"/>
     <use xlink:href="#DejaVuSans-Bold-20" transform="translate(263.818359 0)"/>
     <use xlink:href="#DejaVuSans-Bold-54" transform="translate(298.632812 0)"/>
     <use xlink:href="#DejaVuSans-Bold-6f" transform="translate(353.595703 0)"/>
     <use xlink:href="#DejaVuSans-Bold-6b" transform="translate(422.296875 0)"/>
     <use xlink:href="#DejaVuSans-Bold-65" transform="translate(486.175781 0)"/>
     <use xlink:href="#DejaVuSans-Bold-6e" transform="translate(553.998047 0)"/>
     <use xlink:href="#DejaVuSans-Bold-20" transform="translate(625.189453 0)"/>
     <use xlink:href="#DejaVuSans-Bold-44" transform="translate(660.003906 0)"/>
     <use xlink:href="#DejaVuSans-Bold-69" transform="translate(743.011719 0)"/>
     <use xlink:href="#DejaVuSans-Bold-73" transform="translate(777.289062 0)"/>
     <use xlink:href="#DejaVuSans-Bold-74" transform="translate(836.810547 0)"/>
     <use xlink:href="#DejaVuSans-Bold-72" transform="translate(884.613281 0)"/>
     <use xlink:href="#DejaVuSans-Bold-69" transform="translate(933.929688 0)"/>
     <use xlink:href="#DejaVuSans-Bold-62" transform="translate(968.207031 0)"/>
     <use xlink:href="#DejaVuSans-Bold-75" transform="translate(1039.789062 0)"/>
     <use xlink:href="#DejaVuSans-Bold-74" transform="translate(1110.980469 0)"/>
     <use xlink:href="#DejaVuSans-Bold-69" transform="translate(1158.783203 0)"/>
     <use xlink:href="#DejaVuSans-Bold-6f" transform="translate(1193.060547 0)"/>
     <use xlink:href="#DejaVuSans-Bold-6e" transform="translate(1261.761719 0)"/>
    </g>
   </g>
   <g id="text_19">
    <!-- LLaMA Architecture -->
    <g style="fill: #00d4aa" transform="translate(152.76125 17.837813) scale(0.14 -0.14)">
     <defs>
      <path id="DejaVuSans-Bold-63" d="M 3366 3391 
L 3366 2478 
Q 3138 2634 2908 2709 
Q 2678 2784 2431 2784 
Q 1963 2784 1702 2511 
Q 1441 2238 1441 1747 
Q 1441 1256 1702 982 
Q 1963 709 2431 709 
Q 2694 709 2930 787 
Q 3166 866 3366 1019 
L 3366 103 
Q 3103 6 2833 -42 
Q 2563 -91 2291 -91 
Q 1344 -91 809 395 
Q 275 881 275 1747 
Q 275 2613 809 3098 
Q 1344 3584 2291 3584 
Q 2566 3584 2833 3536 
Q 3100 3488 3366 3391 
z
" transform="scale(0.015625)"/>
      <path id="DejaVuSans-Bold-68" d="M 4056 2131 
L 4056 0 
L 2931 0 
L 2931 347 
L 2931 1625 
Q 2931 2084 2911 2256 
Q 2891 2428 2841 2509 
Q 2775 2619 2662 2680 
Q 2550 2741 2406 2741 
Q 2056 2741 1856 2470 
Q 1656 2200 1656 1722 
L 1656 0 
L 538 0 
L 538 4863 
L 1656 4863 
L 1656 2988 
Q 1909 3294 2193 3439 
Q 2478 3584 2822 3584 
Q 3428 3584 3742 3212 
Q 4056 2841 4056 2131 
z
" transform="scale(0.015625)"/>
     </defs>
     <use xlink:href="#DejaVuSans-Bold-4c"/>
     <use xlink:href="#DejaVuSans-Bold-4c" transform="translate(63.720703 0)"/>
     <use xlink:href="#DejaVuSans-Bold-61" transform="translate(127.441406 0)"/>
     <use xlink:href="#DejaVuSans-Bold-4d" transform="translate(194.921875 0)"/>
     <use xlink:href="#DejaVuSans-Bold-41" transform="translate(294.433594 0)"/>
     <use xlink:href="#DejaVuSans-Bold-20" transform="translate(371.826172 0)"/>
     <use xlink:href="#DejaVuSans-Bold-41" transform="translate(406.640625 0)"/>
     <use xlink:href="#DejaVuSans-Bold-72" transform="translate(484.033203 0)"/>
     <use xlink:href="#DejaVuSans-Bold-63" transform="translate(533.349609 0)"/>
     <use xlink:href="#DejaVuSans-Bold-68" transform="translate(592.626953 0)"/>
     <use xlink:href="#DejaVuSans-Bold-69" transform="translate(663.818359 0)"/>
     <use xlink:href="#DejaVuSans-Bold-74" transform="translate(698.095703 0)"/>
     <use xlink:href="#DejaVuSans-Bold-65" transform="translate(745.898438 0)"/>
     <use xlink:href="#DejaVuSans-Bold-63" transform="translate(813.720703 0)"/>
     <use xlink:href="#DejaVuSans-Bold-74" transform="translate(872.998047 0)"/>
     <use xlink:href="#DejaVuSans-Bold-75" transform="translate(920.800781 0)"/>
     <use xlink:href="#DejaVuSans-Bold-72" transform="translate(991.992188 0)"/>
     <use xlink:href="#DejaVuSans-Bold-65" transform="translate(1041.308594 0)"/>
    </g>
   </g>
  </g>
 </g>
 <defs>
  <clipPath id="p6bdfc21da3">
   <rect x="7.2" y="27.837813" width="446.4" height="554.4"/>
  </clipPath>
 </defs>
</svg>
