<?xml version="1.0" encoding="utf-8" standalone="no"?>
<!DOCTYPE svg PUBLIC "-//W3C//DTD SVG 1.1//EN"
  "http://www.w3.org/Graphics/SVG/1.1/DTD/svg11.dtd">
<svg xmlns:xlink="http://www.w3.org/1999/xlink" width="649.754297pt" height="478.557812pt" viewBox="0 0 649.754297 478.557812" xmlns="http://www.w3.org/2000/svg" version="1.1">
 <metadata>
  <rdf:RDF xmlns:dc="http://purl.org/dc/elements/1.1/" xmlns:cc="http://creativecommons.org/ns#" xmlns:rdf="http://www.w3.org/1999/02/22-rdf-syntax-ns#">
   <cc:Work>
    <dc:type rdf:resource="http://purl.org/dc/dcmitype/StillImage"/>
    <dc:date>2026-05-26T08:38:47.165372</dc:date>
    <dc:format>image/svg+xml</dc:format>
    <dc:creator>
     <cc:Agent>
      <dc:title>Matplotlib v3.10.9, https://matplotlib.org/</dc:title>
     </cc:Agent>
    </dc:creator>
   </cc:Work>
  </rdf:RDF>
 </metadata>
 <defs>
  <style type="text/css">*{stroke-linejoin: round; stroke-linecap: butt}</style>
 </defs>
 <g id="figure_1">
  <g id="patch_1">
   <path d="M 0 478.557812 
L 649.754297 478.557812 
L 649.754297 0 
L 0 0 
z
" style="fill: #1a1a2e"/>
  </g>
  <g id="axes_1">
   <g id="patch_2">
    <path d="M 31.194 183.956852 
L 100.386 183.956852 
Q 108.756 183.956852 108.756 177.304052 
L 108.756 162.224372 
Q 108.756 155.571572 100.386 155.571572 
L 31.194 155.571572 
Q 22.824 155.571572 22.824 162.224372 
L 22.824 177.304052 
Q 22.824 183.956852 31.194 183.956852 
z
" clip-path="url(#p708d8c1a9a)" style="fill: #1565c0; stroke: #555555; stroke-width: 1.5; stroke-linejoin: miter"/>
   </g>
   <g id="patch_3">
    <path d="M 31.194 250.484852 
L 100.386 250.484852 
Q 108.756 250.484852 108.756 243.832052 
L 108.756 228.752372 
Q 108.756 222.099572 100.386 222.099572 
L 31.194 222.099572 
Q 22.824 222.099572 22.824 228.752372 
L 22.824 243.832052 
Q 22.824 250.484852 31.194 250.484852 
z
" clip-path="url(#p708d8c1a9a)" style="fill: #1565c0; stroke: #555555; stroke-width: 1.5; stroke-linejoin: miter"/>
   </g>
   <g id="patch_4">
    <path d="M 31.194 317.012852 
L 100.386 317.012852 
Q 108.756 317.012852 108.756 310.360052 
L 108.756 295.280372 
Q 108.756 288.627572 100.386 288.627572 
L 31.194 288.627572 
Q 22.824 288.627572 22.824 295.280372 
L 22.824 310.360052 
Q 22.824 317.012852 31.194 317.012852 
z
" clip-path="url(#p708d8c1a9a)" style="fill: #1565c0; stroke: #555555; stroke-width: 1.5; stroke-linejoin: miter"/>
   </g>
   <g id="patch_5">
    <path d="M 181.854 183.956852 
L 362.646 183.956852 
Q 371.016 183.956852 371.016 177.304052 
L 371.016 148.918772 
Q 371.016 142.265972 362.646 142.265972 
L 181.854 142.265972 
Q 173.484 142.265972 173.484 148.918772 
L 173.484 177.304052 
Q 173.484 183.956852 181.854 183.956852 
z
" clip-path="url(#p708d8c1a9a)" style="fill: #c62828; stroke: #555555; stroke-width: 1.5; stroke-linejoin: miter"/>
   </g>
   <g id="patch_6">
    <path d="M 181.854 250.484852 
L 362.646 250.484852 
Q 371.016 250.484852 371.016 243.832052 
L 371.016 215.446772 
Q 371.016 208.793972 362.646 208.793972 
L 181.854 208.793972 
Q 173.484 208.793972 173.484 215.446772 
L 173.484 243.832052 
Q 173.484 250.484852 181.854 250.484852 
z
" clip-path="url(#p708d8c1a9a)" style="fill: #c62828; stroke: #555555; stroke-width: 1.5; stroke-linejoin: miter"/>
   </g>
   <g id="patch_7">
    <path d="M 181.854 317.012852 
L 362.646 317.012852 
Q 371.016 317.012852 371.016 310.360052 
L 371.016 281.974772 
Q 371.016 275.321972 362.646 275.321972 
L 181.854 275.321972 
Q 173.484 275.321972 173.484 281.974772 
L 173.484 310.360052 
Q 173.484 317.012852 181.854 317.012852 
z
" clip-path="url(#p708d8c1a9a)" style="fill: #c62828; stroke: #555555; stroke-width: 1.5; stroke-linejoin: miter"/>
   </g>
   <g id="patch_8">
    <path d="M 181.854 383.540852 
L 362.646 383.540852 
Q 371.016 383.540852 371.016 376.888052 
L 371.016 348.502772 
Q 371.016 341.849972 362.646 341.849972 
L 181.854 341.849972 
Q 173.484 341.849972 173.484 348.502772 
L 173.484 376.888052 
Q 173.484 383.540852 181.854 383.540852 
z
" clip-path="url(#p708d8c1a9a)" style="fill: #c62828; stroke: #555555; stroke-width: 1.5; stroke-linejoin: miter"/>
   </g>
   <g id="patch_9">
    <path d="M 432.954 250.484852 
L 530.046 250.484852 
Q 538.416 250.484852 538.416 243.832052 
L 538.416 219.881972 
Q 538.416 213.229172 530.046 213.229172 
L 432.954 213.229172 
Q 424.584 213.229172 424.584 219.881972 
L 424.584 243.832052 
Q 424.584 250.484852 432.954 250.484852 
z
" clip-path="url(#p708d8c1a9a)" style="fill: #6a1b9a; stroke: #555555; stroke-width: 1.5; stroke-linejoin: miter"/>
   </g>
   <g id="patch_10">
    <path d="M 432.954 317.012852 
L 530.046 317.012852 
Q 538.416 317.012852 538.416 310.360052 
L 538.416 286.409972 
Q 538.416 279.757172 530.046 279.757172 
L 432.954 279.757172 
Q 424.584 279.757172 424.584 286.409972 
L 424.584 310.360052 
Q 424.584 317.012852 432.954 317.012852 
z
" clip-path="url(#p708d8c1a9a)" style="fill: #6a1b9a; stroke: #555555; stroke-width: 1.5; stroke-linejoin: miter"/>
   </g>
   <g id="patch_11">
    <path d="M 600.354 317.012852 
L 669.546 317.012852 
Q 677.916 317.012852 677.916 310.360052 
L 677.916 295.280372 
Q 677.916 288.627572 669.546 288.627572 
L 600.354 288.627572 
Q 591.984 288.627572 591.984 295.280372 
L 591.984 310.360052 
Q 591.984 317.012852 600.354 317.012852 
z
" clip-path="url(#p708d8c1a9a)" style="fill: #2e7d32; stroke: #555555; stroke-width: 1.5; stroke-linejoin: miter"/>
   </g>
   <g id="patch_12">
    <path d="M 600.354 383.540852 
L 669.546 383.540852 
Q 677.916 383.540852 677.916 376.888052 
L 677.916 361.808372 
Q 677.916 355.155572 669.546 355.155572 
L 600.354 355.155572 
Q 591.984 355.155572 591.984 361.808372 
L 591.984 376.888052 
Q 591.984 383.540852 600.354 383.540852 
z
" clip-path="url(#p708d8c1a9a)" style="fill: #2e7d32; stroke: #555555; stroke-width: 1.5; stroke-linejoin: miter"/>
   </g>
   <g id="text_1">
    <!-- x_t -->
    <g style="fill: #eaeaea" transform="translate(58.486641 171.997337) scale(0.09 -0.09)">
     <defs>
      <path id="DejaVuSans-Bold-78" d="M 1422 1791 
L 159 3500 
L 1344 3500 
L 2059 2463 
L 2784 3500 
L 3969 3500 
L 2706 1797 
L 4031 0 
L 2847 0 
L 2059 1106 
L 1281 0 
L 97 0 
L 1422 1791 
z
" transform="scale(0.015625)"/>
      <path id="DejaVuSans-Bold-5f" d="M 3200 -916 
L 3200 -1509 
L 0 -1509 
L 0 -916 
L 3200 -916 
z
" transform="scale(0.015625)"/>
      <path id="DejaVuSans-Bold-74" d="M 1759 4494 
L 1759 3500 
L 2913 3500 
L 2913 2700 
L 1759 2700 
L 1759 1216 
Q 1759 972 1856 886 
Q 1953 800 2241 800 
L 2816 800 
L 2816 0 
L 1856 0 
Q 1194 0 917 276 
Q 641 553 641 1216 
L 641 2700 
L 84 2700 
L 84 3500 
L 641 3500 
L 641 4494 
L 1759 4494 
z
" transform="scale(0.015625)"/>
     </defs>
     <use xlink:href="#DejaVuSans-Bold-78"/>
     <use xlink:href="#DejaVuSans-Bold-5f" transform="translate(64.501953 0)"/>
     <use xlink:href="#DejaVuSans-Bold-74" transform="translate(114.501953 0)"/>
    </g>
   </g>
   <g id="text_2">
    <!-- h_{t-1} -->
    <g style="fill: #eaeaea" transform="translate(46.780313 238.650494) scale(0.09 -0.09)">
     <defs>
      <path id="DejaVuSans-Bold-68" d="M 4056 2131 
L 4056 0 
L 2931 0 
L 2931 347 
L 2931 1625 
Q 2931 2084 2911 2256 
Q 2891 2428 2841 2509 
Q 2775 2619 2662 2680 
Q 2550 2741 2406 2741 
Q 2056 2741 1856 2470 
Q 1656 2200 1656 1722 
L 1656 0 
L 538 0 
L 538 4863 
L 1656 4863 
L 1656 2988 
Q 1909 3294 2193 3439 
Q 2478 3584 2822 3584 
Q 3428 3584 3742 3212 
Q 4056 2841 4056 2131 
z
" transform="scale(0.015625)"/>
      <path id="DejaVuSans-Bold-7b" d="M 3756 -341 
L 3756 -1044 
L 3078 -1044 
Q 2397 -1044 2084 -769 
Q 1772 -494 1772 109 
L 1772 709 
Q 1772 1178 1603 1361 
Q 1434 1544 991 1544 
L 800 1544 
L 800 2241 
L 991 2241 
Q 1434 2241 1603 2422 
Q 1772 2603 1772 3072 
L 1772 3713 
Q 1772 4316 2084 4589 
Q 2397 4863 3078 4863 
L 3756 4863 
L 3756 4159 
L 3541 4159 
Q 3100 4159 2967 4023 
Q 2834 3888 2834 3444 
L 2834 2925 
Q 2834 2434 2693 2212 
Q 2553 1991 2209 1913 
Q 2556 1828 2695 1606 
Q 2834 1384 2834 897 
L 2834 378 
Q 2834 -69 2967 -205 
Q 3100 -341 3541 -341 
L 3756 -341 
z
" transform="scale(0.015625)"/>
      <path id="DejaVuSans-Bold-2d" d="M 347 2297 
L 2309 2297 
L 2309 1388 
L 347 1388 
L 347 2297 
z
" transform="scale(0.015625)"/>
      <path id="DejaVuSans-Bold-31" d="M 750 831 
L 1813 831 
L 1813 3847 
L 722 3622 
L 722 4441 
L 1806 4666 
L 2950 4666 
L 2950 831 
L 4013 831 
L 4013 0 
L 750 0 
L 750 831 
z
" transform="scale(0.015625)"/>
      <path id="DejaVuSans-Bold-7d" d="M 800 -341 
L 1019 -341 
Q 1456 -341 1589 -205 
Q 1722 -69 1722 378 
L 1722 897 
Q 1722 1384 1862 1606 
Q 2003 1828 2350 1913 
Q 2003 1991 1862 2212 
Q 1722 2434 1722 2925 
L 1722 3444 
Q 1722 3888 1589 4023 
Q 1456 4159 1019 4159 
L 800 4159 
L 800 4863 
L 1478 4863 
Q 2159 4863 2471 4589 
Q 2784 4316 2784 3713 
L 2784 3072 
Q 2784 2603 2953 2422 
Q 3122 2241 3566 2241 
L 3756 2241 
L 3756 1544 
L 3566 1544 
Q 3122 1544 2953 1361 
Q 2784 1178 2784 709 
L 2784 109 
Q 2784 -494 2471 -769 
Q 2159 -1044 1478 -1044 
L 800 -1044 
L 800 -341 
z
" transform="scale(0.015625)"/>
     </defs>
     <use xlink:href="#DejaVuSans-Bold-68"/>
     <use xlink:href="#DejaVuSans-Bold-5f" transform="translate(71.191406 0)"/>
     <use xlink:href="#DejaVuSans-Bold-7b" transform="translate(121.191406 0)"/>
     <use xlink:href="#DejaVuSans-Bold-74" transform="translate(192.382812 0)"/>
     <use xlink:href="#DejaVuSans-Bold-2d" transform="translate(240.185547 0)"/>
     <use xlink:href="#DejaVuSans-Bold-31" transform="translate(281.689453 0)"/>
     <use xlink:href="#DejaVuSans-Bold-7d" transform="translate(351.269531 0)"/>
    </g>
   </g>
   <g id="text_3">
    <!-- c_{t-1} -->
    <g style="fill: #eaeaea" transform="translate(47.316094 305.178494) scale(0.09 -0.09)">
     <defs>
      <path id="DejaVuSans-Bold-63" d="M 3366 3391 
L 3366 2478 
Q 3138 2634 2908 2709 
Q 2678 2784 2431 2784 
Q 1963 2784 1702 2511 
Q 1441 2238 1441 1747 
Q 1441 1256 1702 982 
Q 1963 709 2431 709 
Q 2694 709 2930 787 
Q 3166 866 3366 1019 
L 3366 103 
Q 3103 6 2833 -42 
Q 2563 -91 2291 -91 
Q 1344 -91 809 395 
Q 275 881 275 1747 
Q 275 2613 809 3098 
Q 1344 3584 2291 3584 
Q 2566 3584 2833 3536 
Q 3100 3488 3366 3391 
z
" transform="scale(0.015625)"/>
     </defs>
     <use xlink:href="#DejaVuSans-Bold-63"/>
     <use xlink:href="#DejaVuSans-Bold-5f" transform="translate(59.277344 0)"/>
     <use xlink:href="#DejaVuSans-Bold-7b" transform="translate(109.277344 0)"/>
     <use xlink:href="#DejaVuSans-Bold-74" transform="translate(180.46875 0)"/>
     <use xlink:href="#DejaVuSans-Bold-2d" transform="translate(228.271484 0)"/>
     <use xlink:href="#DejaVuSans-Bold-31" transform="translate(269.775391 0)"/>
     <use xlink:href="#DejaVuSans-Bold-7d" transform="translate(339.355469 0)"/>
    </g>
   </g>
   <g id="text_4">
    <!-- Forget Gate -->
    <g style="fill: #eaeaea" transform="translate(245.46875 160.666037) scale(0.08 -0.08)">
     <defs>
      <path id="DejaVuSans-Bold-46" d="M 588 4666 
L 3834 4666 
L 3834 3756 
L 1791 3756 
L 1791 2888 
L 3713 2888 
L 3713 1978 
L 1791 1978 
L 1791 0 
L 588 0 
L 588 4666 
z
" transform="scale(0.015625)"/>
      <path id="DejaVuSans-Bold-6f" d="M 2203 2784 
Q 1831 2784 1636 2517 
Q 1441 2250 1441 1747 
Q 1441 1244 1636 976 
Q 1831 709 2203 709 
Q 2569 709 2762 976 
Q 2956 1244 2956 1747 
Q 2956 2250 2762 2517 
Q 2569 2784 2203 2784 
z
M 2203 3584 
Q 3106 3584 3614 3096 
Q 4122 2609 4122 1747 
Q 4122 884 3614 396 
Q 3106 -91 2203 -91 
Q 1297 -91 786 396 
Q 275 884 275 1747 
Q 275 2609 786 3096 
Q 1297 3584 2203 3584 
z
" transform="scale(0.015625)"/>
      <path id="DejaVuSans-Bold-72" d="M 3138 2547 
Q 2991 2616 2845 2648 
Q 2700 2681 2553 2681 
Q 2122 2681 1889 2404 
Q 1656 2128 1656 1613 
L 1656 0 
L 538 0 
L 538 3500 
L 1656 3500 
L 1656 2925 
Q 1872 3269 2151 3426 
Q 2431 3584 2822 3584 
Q 2878 3584 2943 3579 
Q 3009 3575 3134 3559 
L 3138 2547 
z
" transform="scale(0.015625)"/>
      <path id="DejaVuSans-Bold-67" d="M 2919 594 
Q 2688 288 2409 144 
Q 2131 0 1766 0 
Q 1125 0 706 504 
Q 288 1009 288 1791 
Q 288 2575 706 3076 
Q 1125 3578 1766 3578 
Q 2131 3578 2409 3434 
Q 2688 3291 2919 2981 
L 2919 3500 
L 4044 3500 
L 4044 353 
Q 4044 -491 3511 -936 
Q 2978 -1381 1966 -1381 
Q 1638 -1381 1331 -1331 
Q 1025 -1281 716 -1178 
L 716 -306 
Q 1009 -475 1290 -558 
Q 1572 -641 1856 -641 
Q 2406 -641 2662 -400 
Q 2919 -159 2919 353 
L 2919 594 
z
M 2181 2772 
Q 1834 2772 1640 2515 
Q 1447 2259 1447 1791 
Q 1447 1309 1634 1061 
Q 1822 813 2181 813 
Q 2531 813 2725 1069 
Q 2919 1325 2919 1791 
Q 2919 2259 2725 2515 
Q 2531 2772 2181 2772 
z
" transform="scale(0.015625)"/>
      <path id="DejaVuSans-Bold-65" d="M 4031 1759 
L 4031 1441 
L 1416 1441 
Q 1456 1047 1700 850 
Q 1944 653 2381 653 
Q 2734 653 3104 758 
Q 3475 863 3866 1075 
L 3866 213 
Q 3469 63 3072 -14 
Q 2675 -91 2278 -91 
Q 1328 -91 801 392 
Q 275 875 275 1747 
Q 275 2603 792 3093 
Q 1309 3584 2216 3584 
Q 3041 3584 3536 3087 
Q 4031 2591 4031 1759 
z
M 2881 2131 
Q 2881 2450 2695 2645 
Q 2509 2841 2209 2841 
Q 1884 2841 1681 2658 
Q 1478 2475 1428 2131 
L 2881 2131 
z
" transform="scale(0.015625)"/>
      <path id="DejaVuSans-Bold-20" transform="scale(0.015625)"/>
      <path id="DejaVuSans-Bold-47" d="M 4781 347 
Q 4331 128 3847 18 
Q 3363 -91 2847 -91 
Q 1681 -91 1000 561 
Q 319 1213 319 2328 
Q 319 3456 1012 4103 
Q 1706 4750 2913 4750 
Q 3378 4750 3804 4662 
Q 4231 4575 4609 4403 
L 4609 3438 
Q 4219 3659 3833 3768 
Q 3447 3878 3059 3878 
Q 2341 3878 1952 3476 
Q 1563 3075 1563 2328 
Q 1563 1588 1938 1184 
Q 2313 781 3003 781 
Q 3191 781 3352 804 
Q 3513 828 3641 878 
L 3641 1784 
L 2906 1784 
L 2906 2591 
L 4781 2591 
L 4781 347 
z
" transform="scale(0.015625)"/>
      <path id="DejaVuSans-Bold-61" d="M 2106 1575 
Q 1756 1575 1579 1456 
Q 1403 1338 1403 1106 
Q 1403 894 1545 773 
Q 1688 653 1941 653 
Q 2256 653 2472 879 
Q 2688 1106 2688 1447 
L 2688 1575 
L 2106 1575 
z
M 3816 1997 
L 3816 0 
L 2688 0 
L 2688 519 
Q 2463 200 2181 54 
Q 1900 -91 1497 -91 
Q 953 -91 614 226 
Q 275 544 275 1050 
Q 275 1666 698 1953 
Q 1122 2241 2028 2241 
L 2688 2241 
L 2688 2328 
Q 2688 2594 2478 2717 
Q 2269 2841 1825 2841 
Q 1466 2841 1156 2769 
Q 847 2697 581 2553 
L 581 3406 
Q 941 3494 1303 3539 
Q 1666 3584 2028 3584 
Q 2975 3584 3395 3211 
Q 3816 2838 3816 1997 
z
" transform="scale(0.015625)"/>
     </defs>
     <use xlink:href="#DejaVuSans-Bold-46"/>
     <use xlink:href="#DejaVuSans-Bold-6f" transform="translate(64.310547 0)"/>
     <use xlink:href="#DejaVuSans-Bold-72" transform="translate(133.011719 0)"/>
     <use xlink:href="#DejaVuSans-Bold-67" transform="translate(182.328125 0)"/>
     <use xlink:href="#DejaVuSans-Bold-65" transform="translate(253.910156 0)"/>
     <use xlink:href="#DejaVuSans-Bold-74" transform="translate(321.732422 0)"/>
     <use xlink:href="#DejaVuSans-Bold-20" transform="translate(369.535156 0)"/>
     <use xlink:href="#DejaVuSans-Bold-47" transform="translate(404.349609 0)"/>
     <use xlink:href="#DejaVuSans-Bold-61" transform="translate(486.429688 0)"/>
     <use xlink:href="#DejaVuSans-Bold-74" transform="translate(553.910156 0)"/>
     <use xlink:href="#DejaVuSans-Bold-65" transform="translate(601.712891 0)"/>
    </g>
    <!-- f_t = σ(W_f·[h,x]+b) -->
    <g style="fill: #eaeaea" transform="translate(227.200625 169.686787) scale(0.08 -0.08)">
     <defs>
      <path id="DejaVuSans-Bold-66" d="M 2841 4863 
L 2841 4128 
L 2222 4128 
Q 1984 4128 1890 4042 
Q 1797 3956 1797 3744 
L 1797 3500 
L 2753 3500 
L 2753 2700 
L 1797 2700 
L 1797 0 
L 678 0 
L 678 2700 
L 122 2700 
L 122 3500 
L 678 3500 
L 678 3744 
Q 678 4316 997 4589 
Q 1316 4863 1984 4863 
L 2841 4863 
z
" transform="scale(0.015625)"/>
      <path id="DejaVuSans-Bold-3d" d="M 678 3084 
L 4684 3084 
L 4684 2350 
L 678 2350 
L 678 3084 
z
M 678 1663 
L 4684 1663 
L 4684 922 
L 678 922 
L 678 1663 
z
" transform="scale(0.015625)"/>
      <path id="DejaVuSans-Bold-3c3" d="M 2200 2784 
Q 1831 2784 1636 2517 
Q 1441 2250 1441 1747 
Q 1441 1244 1636 976 
Q 1831 709 2200 709 
Q 2569 709 2762 976 
Q 2956 1244 2956 1747 
Q 2956 2250 2762 2517 
Q 2569 2784 2200 2784 
z
M 4650 2700 
L 3916 2700 
Q 4122 2291 4122 1747 
Q 4122 884 3614 396 
Q 3106 -91 2203 -91 
Q 1297 -91 786 396 
Q 275 884 275 1747 
Q 275 2609 788 3097 
Q 1209 3500 2203 3500 
L 4650 3500 
L 4650 2700 
z
" transform="scale(0.015625)"/>
      <path id="DejaVuSans-Bold-28" d="M 2413 -844 
L 1484 -844 
Q 1006 -72 778 623 
Q 550 1319 550 2003 
Q 550 2688 779 3389 
Q 1009 4091 1484 4856 
L 2413 4856 
Q 2013 4116 1813 3408 
Q 1613 2700 1613 2009 
Q 1613 1319 1811 609 
Q 2009 -100 2413 -844 
z
" transform="scale(0.015625)"/>
      <path id="DejaVuSans-Bold-57" d="M 191 4666 
L 1344 4666 
L 2150 1275 
L 2950 4666 
L 4109 4666 
L 4909 1275 
L 5716 4666 
L 6859 4666 
L 5759 0 
L 4372 0 
L 3525 3547 
L 2688 0 
L 1300 0 
L 191 4666 
z
" transform="scale(0.015625)"/>
      <path id="DejaVuSans-Bold-b7" d="M 653 2828 
L 1778 2828 
L 1778 1619 
L 653 1619 
L 653 2828 
z
" transform="scale(0.015625)"/>
      <path id="DejaVuSans-Bold-5b" d="M 550 4863 
L 2491 4863 
L 2491 4159 
L 1613 4159 
L 1613 -141 
L 2491 -141 
L 2491 -844 
L 550 -844 
L 550 4863 
z
" transform="scale(0.015625)"/>
      <path id="DejaVuSans-Bold-2c" d="M 653 1209 
L 1778 1209 
L 1778 256 
L 1006 -909 
L 341 -909 
L 653 256 
L 653 1209 
z
" transform="scale(0.015625)"/>
      <path id="DejaVuSans-Bold-5d" d="M 2375 -844 
L 434 -844 
L 434 -141 
L 1313 -141 
L 1313 4159 
L 434 4159 
L 434 4863 
L 2375 4863 
L 2375 -844 
z
" transform="scale(0.015625)"/>
      <path id="DejaVuSans-Bold-2b" d="M 3053 4013 
L 3053 2375 
L 4684 2375 
L 4684 1638 
L 3053 1638 
L 3053 0 
L 2309 0 
L 2309 1638 
L 678 1638 
L 678 2375 
L 2309 2375 
L 2309 4013 
L 3053 4013 
z
" transform="scale(0.015625)"/>
      <path id="DejaVuSans-Bold-62" d="M 2400 722 
Q 2759 722 2948 984 
Q 3138 1247 3138 1747 
Q 3138 2247 2948 2509 
Q 2759 2772 2400 2772 
Q 2041 2772 1848 2508 
Q 1656 2244 1656 1747 
Q 1656 1250 1848 986 
Q 2041 722 2400 722 
z
M 1656 2988 
Q 1888 3294 2169 3439 
Q 2450 3584 2816 3584 
Q 3463 3584 3878 3070 
Q 4294 2556 4294 1747 
Q 4294 938 3878 423 
Q 3463 -91 2816 -91 
Q 2450 -91 2169 54 
Q 1888 200 1656 506 
L 1656 0 
L 538 0 
L 538 4863 
L 1656 4863 
L 1656 2988 
z
" transform="scale(0.015625)"/>
      <path id="DejaVuSans-Bold-29" d="M 513 -844 
Q 913 -100 1113 609 
Q 1313 1319 1313 2009 
Q 1313 2700 1113 3408 
Q 913 4116 513 4856 
L 1441 4856 
Q 1916 4091 2145 3389 
Q 2375 2688 2375 2003 
Q 2375 1319 2147 623 
Q 1919 -72 1441 -844 
L 513 -844 
z
" transform="scale(0.015625)"/>
     </defs>
     <use xlink:href="#DejaVuSans-Bold-66"/>
     <use xlink:href="#DejaVuSans-Bold-5f" transform="translate(43.505859 0)"/>
     <use xlink:href="#DejaVuSans-Bold-74" transform="translate(93.505859 0)"/>
     <use xlink:href="#DejaVuSans-Bold-20" transform="translate(141.308594 0)"/>
     <use xlink:href="#DejaVuSans-Bold-3d" transform="translate(176.123047 0)"/>
     <use xlink:href="#DejaVuSans-Bold-20" transform="translate(259.912109 0)"/>
     <use xlink:href="#DejaVuSans-Bold-3c3" transform="translate(294.726562 0)"/>
     <use xlink:href="#DejaVuSans-Bold-28" transform="translate(372.607422 0)"/>
     <use xlink:href="#DejaVuSans-Bold-57" transform="translate(418.310547 0)"/>
     <use xlink:href="#DejaVuSans-Bold-5f" transform="translate(528.613281 0)"/>
     <use xlink:href="#DejaVuSans-Bold-66" transform="translate(578.613281 0)"/>
     <use xlink:href="#DejaVuSans-Bold-b7" transform="translate(622.119141 0)"/>
     <use xlink:href="#DejaVuSans-Bold-5b" transform="translate(660.107422 0)"/>
     <use xlink:href="#DejaVuSans-Bold-68" transform="translate(705.810547 0)"/>
     <use xlink:href="#DejaVuSans-Bold-2c" transform="translate(777.001953 0)"/>
     <use xlink:href="#DejaVuSans-Bold-78" transform="translate(814.990234 0)"/>
     <use xlink:href="#DejaVuSans-Bold-5d" transform="translate(879.492188 0)"/>
     <use xlink:href="#DejaVuSans-Bold-2b" transform="translate(925.195312 0)"/>
     <use xlink:href="#DejaVuSans-Bold-62" transform="translate(1008.984375 0)"/>
     <use xlink:href="#DejaVuSans-Bold-29" transform="translate(1080.566406 0)"/>
    </g>
   </g>
   <g id="text_5">
    <!-- Input Gate -->
    <g style="fill: #eaeaea" transform="translate(248.291875 227.256537) scale(0.08 -0.08)">
     <defs>
      <path id="DejaVuSans-Bold-49" d="M 588 4666 
L 1791 4666 
L 1791 0 
L 588 0 
L 588 4666 
z
" transform="scale(0.015625)"/>
      <path id="DejaVuSans-Bold-6e" d="M 4056 2131 
L 4056 0 
L 2931 0 
L 2931 347 
L 2931 1631 
Q 2931 2084 2911 2256 
Q 2891 2428 2841 2509 
Q 2775 2619 2662 2680 
Q 2550 2741 2406 2741 
Q 2056 2741 1856 2470 
Q 1656 2200 1656 1722 
L 1656 0 
L 538 0 
L 538 3500 
L 1656 3500 
L 1656 2988 
Q 1909 3294 2193 3439 
Q 2478 3584 2822 3584 
Q 3428 3584 3742 3212 
Q 4056 2841 4056 2131 
z
" transform="scale(0.015625)"/>
      <path id="DejaVuSans-Bold-70" d="M 1656 506 
L 1656 -1331 
L 538 -1331 
L 538 3500 
L 1656 3500 
L 1656 2988 
Q 1888 3294 2169 3439 
Q 2450 3584 2816 3584 
Q 3463 3584 3878 3070 
Q 4294 2556 4294 1747 
Q 4294 938 3878 423 
Q 3463 -91 2816 -91 
Q 2450 -91 2169 54 
Q 1888 200 1656 506 
z
M 2400 2772 
Q 2041 2772 1848 2508 
Q 1656 2244 1656 1747 
Q 1656 1250 1848 986 
Q 2041 722 2400 722 
Q 2759 722 2948 984 
Q 3138 1247 3138 1747 
Q 3138 2247 2948 2509 
Q 2759 2772 2400 2772 
z
" transform="scale(0.015625)"/>
      <path id="DejaVuSans-Bold-75" d="M 500 1363 
L 500 3500 
L 1625 3500 
L 1625 3150 
Q 1625 2866 1622 2436 
Q 1619 2006 1619 1863 
Q 1619 1441 1641 1255 
Q 1663 1069 1716 984 
Q 1784 875 1895 815 
Q 2006 756 2150 756 
Q 2500 756 2700 1025 
Q 2900 1294 2900 1772 
L 2900 3500 
L 4019 3500 
L 4019 0 
L 2900 0 
L 2900 506 
Q 2647 200 2364 54 
Q 2081 -91 1741 -91 
Q 1134 -91 817 281 
Q 500 653 500 1363 
z
" transform="scale(0.015625)"/>
     </defs>
     <use xlink:href="#DejaVuSans-Bold-49"/>
     <use xlink:href="#DejaVuSans-Bold-6e" transform="translate(37.207031 0)"/>
     <use xlink:href="#DejaVuSans-Bold-70" transform="translate(108.398438 0)"/>
     <use xlink:href="#DejaVuSans-Bold-75" transform="translate(179.980469 0)"/>
     <use xlink:href="#DejaVuSans-Bold-74" transform="translate(251.171875 0)"/>
     <use xlink:href="#DejaVuSans-Bold-20" transform="translate(298.974609 0)"/>
     <use xlink:href="#DejaVuSans-Bold-47" transform="translate(333.789062 0)"/>
     <use xlink:href="#DejaVuSans-Bold-61" transform="translate(415.869141 0)"/>
     <use xlink:href="#DejaVuSans-Bold-74" transform="translate(483.349609 0)"/>
     <use xlink:href="#DejaVuSans-Bold-65" transform="translate(531.152344 0)"/>
    </g>
    <!-- i_t = σ(W_i·[h,x]+b) -->
    <g style="fill: #eaeaea" transform="translate(227.938125 236.214787) scale(0.08 -0.08)">
     <defs>
      <path id="DejaVuSans-Bold-69" d="M 538 3500 
L 1656 3500 
L 1656 0 
L 538 0 
L 538 3500 
z
M 538 4863 
L 1656 4863 
L 1656 3950 
L 538 3950 
L 538 4863 
z
" transform="scale(0.015625)"/>
     </defs>
     <use xlink:href="#DejaVuSans-Bold-69"/>
     <use xlink:href="#DejaVuSans-Bold-5f" transform="translate(34.277344 0)"/>
     <use xlink:href="#DejaVuSans-Bold-74" transform="translate(84.277344 0)"/>
     <use xlink:href="#DejaVuSans-Bold-20" transform="translate(132.080078 0)"/>
     <use xlink:href="#DejaVuSans-Bold-3d" transform="translate(166.894531 0)"/>
     <use xlink:href="#DejaVuSans-Bold-20" transform="translate(250.683594 0)"/>
     <use xlink:href="#DejaVuSans-Bold-3c3" transform="translate(285.498047 0)"/>
     <use xlink:href="#DejaVuSans-Bold-28" transform="translate(363.378906 0)"/>
     <use xlink:href="#DejaVuSans-Bold-57" transform="translate(409.082031 0)"/>
     <use xlink:href="#DejaVuSans-Bold-5f" transform="translate(519.384766 0)"/>
     <use xlink:href="#DejaVuSans-Bold-69" transform="translate(569.384766 0)"/>
     <use xlink:href="#DejaVuSans-Bold-b7" transform="translate(603.662109 0)"/>
     <use xlink:href="#DejaVuSans-Bold-5b" transform="translate(641.650391 0)"/>
     <use xlink:href="#DejaVuSans-Bold-68" transform="translate(687.353516 0)"/>
     <use xlink:href="#DejaVuSans-Bold-2c" transform="translate(758.544922 0)"/>
     <use xlink:href="#DejaVuSans-Bold-78" transform="translate(796.533203 0)"/>
     <use xlink:href="#DejaVuSans-Bold-5d" transform="translate(861.035156 0)"/>
     <use xlink:href="#DejaVuSans-Bold-2b" transform="translate(906.738281 0)"/>
     <use xlink:href="#DejaVuSans-Bold-62" transform="translate(990.527344 0)"/>
     <use xlink:href="#DejaVuSans-Bold-29" transform="translate(1062.109375 0)"/>
    </g>
   </g>
   <g id="text_6">
    <!-- Candidate -->
    <g style="fill: #eaeaea" transform="translate(249.345625 293.784537) scale(0.08 -0.08)">
     <defs>
      <path id="DejaVuSans-Bold-43" d="M 4288 256 
Q 3956 84 3597 -3 
Q 3238 -91 2847 -91 
Q 1681 -91 1000 561 
Q 319 1213 319 2328 
Q 319 3447 1000 4098 
Q 1681 4750 2847 4750 
Q 3238 4750 3597 4662 
Q 3956 4575 4288 4403 
L 4288 3438 
Q 3953 3666 3628 3772 
Q 3303 3878 2944 3878 
Q 2300 3878 1931 3465 
Q 1563 3053 1563 2328 
Q 1563 1606 1931 1193 
Q 2300 781 2944 781 
Q 3303 781 3628 887 
Q 3953 994 4288 1222 
L 4288 256 
z
" transform="scale(0.015625)"/>
      <path id="DejaVuSans-Bold-64" d="M 2919 2988 
L 2919 4863 
L 4044 4863 
L 4044 0 
L 2919 0 
L 2919 506 
Q 2688 197 2409 53 
Q 2131 -91 1766 -91 
Q 1119 -91 703 423 
Q 288 938 288 1747 
Q 288 2556 703 3070 
Q 1119 3584 1766 3584 
Q 2128 3584 2408 3439 
Q 2688 3294 2919 2988 
z
M 2181 722 
Q 2541 722 2730 984 
Q 2919 1247 2919 1747 
Q 2919 2247 2730 2509 
Q 2541 2772 2181 2772 
Q 1825 2772 1636 2509 
Q 1447 2247 1447 1747 
Q 1447 1247 1636 984 
Q 1825 722 2181 722 
z
" transform="scale(0.015625)"/>
     </defs>
     <use xlink:href="#DejaVuSans-Bold-43"/>
     <use xlink:href="#DejaVuSans-Bold-61" transform="translate(73.388672 0)"/>
     <use xlink:href="#DejaVuSans-Bold-6e" transform="translate(140.869141 0)"/>
     <use xlink:href="#DejaVuSans-Bold-64" transform="translate(212.060547 0)"/>
     <use xlink:href="#DejaVuSans-Bold-69" transform="translate(283.642578 0)"/>
     <use xlink:href="#DejaVuSans-Bold-64" transform="translate(317.919922 0)"/>
     <use xlink:href="#DejaVuSans-Bold-61" transform="translate(389.501953 0)"/>
     <use xlink:href="#DejaVuSans-Bold-74" transform="translate(456.982422 0)"/>
     <use xlink:href="#DejaVuSans-Bold-65" transform="translate(504.785156 0)"/>
    </g>
    <!-- C_t = tanh(W_C·[h,x]+b) -->
    <g style="fill: #eaeaea" transform="translate(217.618125 302.742787) scale(0.08 -0.08)">
     <use xlink:href="#DejaVuSans-Bold-43"/>
     <use xlink:href="#DejaVuSans-Bold-5f" transform="translate(73.388672 0)"/>
     <use xlink:href="#DejaVuSans-Bold-74" transform="translate(123.388672 0)"/>
     <use xlink:href="#DejaVuSans-Bold-20" transform="translate(171.191406 0)"/>
     <use xlink:href="#DejaVuSans-Bold-3d" transform="translate(206.005859 0)"/>
     <use xlink:href="#DejaVuSans-Bold-20" transform="translate(289.794922 0)"/>
     <use xlink:href="#DejaVuSans-Bold-74" transform="translate(324.609375 0)"/>
     <use xlink:href="#DejaVuSans-Bold-61" transform="translate(372.412109 0)"/>
     <use xlink:href="#DejaVuSans-Bold-6e" transform="translate(439.892578 0)"/>
     <use xlink:href="#DejaVuSans-Bold-68" transform="translate(511.083984 0)"/>
     <use xlink:href="#DejaVuSans-Bold-28" transform="translate(582.275391 0)"/>
     <use xlink:href="#DejaVuSans-Bold-57" transform="translate(627.978516 0)"/>
     <use xlink:href="#DejaVuSans-Bold-5f" transform="translate(738.28125 0)"/>
     <use xlink:href="#DejaVuSans-Bold-43" transform="translate(788.28125 0)"/>
     <use xlink:href="#DejaVuSans-Bold-b7" transform="translate(861.669922 0)"/>
     <use xlink:href="#DejaVuSans-Bold-5b" transform="translate(899.658203 0)"/>
     <use xlink:href="#DejaVuSans-Bold-68" transform="translate(945.361328 0)"/>
     <use xlink:href="#DejaVuSans-Bold-2c" transform="translate(1016.552734 0)"/>
     <use xlink:href="#DejaVuSans-Bold-78" transform="translate(1054.541016 0)"/>
     <use xlink:href="#DejaVuSans-Bold-5d" transform="translate(1119.042969 0)"/>
     <use xlink:href="#DejaVuSans-Bold-2b" transform="translate(1164.746094 0)"/>
     <use xlink:href="#DejaVuSans-Bold-62" transform="translate(1248.535156 0)"/>
     <use xlink:href="#DejaVuSans-Bold-29" transform="translate(1320.117188 0)"/>
    </g>
   </g>
   <g id="text_7">
    <!-- Output Gate -->
    <g style="fill: #eaeaea" transform="translate(244.4675 360.312537) scale(0.08 -0.08)">
     <defs>
      <path id="DejaVuSans-Bold-4f" d="M 2719 3878 
Q 2169 3878 1866 3472 
Q 1563 3066 1563 2328 
Q 1563 1594 1866 1187 
Q 2169 781 2719 781 
Q 3272 781 3575 1187 
Q 3878 1594 3878 2328 
Q 3878 3066 3575 3472 
Q 3272 3878 2719 3878 
z
M 2719 4750 
Q 3844 4750 4481 4106 
Q 5119 3463 5119 2328 
Q 5119 1197 4481 553 
Q 3844 -91 2719 -91 
Q 1597 -91 958 553 
Q 319 1197 319 2328 
Q 319 3463 958 4106 
Q 1597 4750 2719 4750 
z
" transform="scale(0.015625)"/>
     </defs>
     <use xlink:href="#DejaVuSans-Bold-4f"/>
     <use xlink:href="#DejaVuSans-Bold-75" transform="translate(85.009766 0)"/>
     <use xlink:href="#DejaVuSans-Bold-74" transform="translate(156.201172 0)"/>
     <use xlink:href="#DejaVuSans-Bold-70" transform="translate(204.003906 0)"/>
     <use xlink:href="#DejaVuSans-Bold-75" transform="translate(275.585938 0)"/>
     <use xlink:href="#DejaVuSans-Bold-74" transform="translate(346.777344 0)"/>
     <use xlink:href="#DejaVuSans-Bold-20" transform="translate(394.580078 0)"/>
     <use xlink:href="#DejaVuSans-Bold-47" transform="translate(429.394531 0)"/>
     <use xlink:href="#DejaVuSans-Bold-61" transform="translate(511.474609 0)"/>
     <use xlink:href="#DejaVuSans-Bold-74" transform="translate(578.955078 0)"/>
     <use xlink:href="#DejaVuSans-Bold-65" transform="translate(626.757812 0)"/>
    </g>
    <!-- o_t = σ(W_o·[h,x]+b) -->
    <g style="fill: #eaeaea" transform="translate(225.184375 369.270787) scale(0.08 -0.08)">
     <use xlink:href="#DejaVuSans-Bold-6f"/>
     <use xlink:href="#DejaVuSans-Bold-5f" transform="translate(68.701172 0)"/>
     <use xlink:href="#DejaVuSans-Bold-74" transform="translate(118.701172 0)"/>
     <use xlink:href="#DejaVuSans-Bold-20" transform="translate(166.503906 0)"/>
     <use xlink:href="#DejaVuSans-Bold-3d" transform="translate(201.318359 0)"/>
     <use xlink:href="#DejaVuSans-Bold-20" transform="translate(285.107422 0)"/>
     <use xlink:href="#DejaVuSans-Bold-3c3" transform="translate(319.921875 0)"/>
     <use xlink:href="#DejaVuSans-Bold-28" transform="translate(397.802734 0)"/>
     <use xlink:href="#DejaVuSans-Bold-57" transform="translate(443.505859 0)"/>
     <use xlink:href="#DejaVuSans-Bold-5f" transform="translate(553.808594 0)"/>
     <use xlink:href="#DejaVuSans-Bold-6f" transform="translate(603.808594 0)"/>
     <use xlink:href="#DejaVuSans-Bold-b7" transform="translate(672.509766 0)"/>
     <use xlink:href="#DejaVuSans-Bold-5b" transform="translate(710.498047 0)"/>
     <use xlink:href="#DejaVuSans-Bold-68" transform="translate(756.201172 0)"/>
     <use xlink:href="#DejaVuSans-Bold-2c" transform="translate(827.392578 0)"/>
     <use xlink:href="#DejaVuSans-Bold-78" transform="translate(865.380859 0)"/>
     <use xlink:href="#DejaVuSans-Bold-5d" transform="translate(929.882812 0)"/>
     <use xlink:href="#DejaVuSans-Bold-2b" transform="translate(975.585938 0)"/>
     <use xlink:href="#DejaVuSans-Bold-62" transform="translate(1059.375 0)"/>
     <use xlink:href="#DejaVuSans-Bold-29" transform="translate(1130.957031 0)"/>
    </g>
   </g>
   <g id="text_8">
    <!-- x (element) -->
    <g style="fill: #eaeaea" transform="translate(452.174766 234.34045) scale(0.09 -0.09)">
     <defs>
      <path id="DejaVuSans-Bold-6c" d="M 538 4863 
L 1656 4863 
L 1656 0 
L 538 0 
L 538 4863 
z
" transform="scale(0.015625)"/>
      <path id="DejaVuSans-Bold-6d" d="M 3781 2919 
Q 3994 3244 4286 3414 
Q 4578 3584 4928 3584 
Q 5531 3584 5847 3212 
Q 6163 2841 6163 2131 
L 6163 0 
L 5038 0 
L 5038 1825 
Q 5041 1866 5042 1909 
Q 5044 1953 5044 2034 
Q 5044 2406 4934 2573 
Q 4825 2741 4581 2741 
Q 4263 2741 4089 2478 
Q 3916 2216 3909 1719 
L 3909 0 
L 2784 0 
L 2784 1825 
Q 2784 2406 2684 2573 
Q 2584 2741 2328 2741 
Q 2006 2741 1831 2477 
Q 1656 2213 1656 1722 
L 1656 0 
L 531 0 
L 531 3500 
L 1656 3500 
L 1656 2988 
Q 1863 3284 2130 3434 
Q 2397 3584 2719 3584 
Q 3081 3584 3359 3409 
Q 3638 3234 3781 2919 
z
" transform="scale(0.015625)"/>
     </defs>
     <use xlink:href="#DejaVuSans-Bold-78"/>
     <use xlink:href="#DejaVuSans-Bold-20" transform="translate(64.501953 0)"/>
     <use xlink:href="#DejaVuSans-Bold-28" transform="translate(99.316406 0)"/>
     <use xlink:href="#DejaVuSans-Bold-65" transform="translate(145.019531 0)"/>
     <use xlink:href="#DejaVuSans-Bold-6c" transform="translate(212.841797 0)"/>
     <use xlink:href="#DejaVuSans-Bold-65" transform="translate(247.119141 0)"/>
     <use xlink:href="#DejaVuSans-Bold-6d" transform="translate(314.941406 0)"/>
     <use xlink:href="#DejaVuSans-Bold-65" transform="translate(419.140625 0)"/>
     <use xlink:href="#DejaVuSans-Bold-6e" transform="translate(486.962891 0)"/>
     <use xlink:href="#DejaVuSans-Bold-74" transform="translate(558.154297 0)"/>
     <use xlink:href="#DejaVuSans-Bold-29" transform="translate(605.957031 0)"/>
    </g>
   </g>
   <g id="text_9">
    <!-- + (element) -->
    <g style="fill: #eaeaea" transform="translate(451.306406 300.86845) scale(0.09 -0.09)">
     <use xlink:href="#DejaVuSans-Bold-2b"/>
     <use xlink:href="#DejaVuSans-Bold-20" transform="translate(83.789062 0)"/>
     <use xlink:href="#DejaVuSans-Bold-28" transform="translate(118.603516 0)"/>
     <use xlink:href="#DejaVuSans-Bold-65" transform="translate(164.306641 0)"/>
     <use xlink:href="#DejaVuSans-Bold-6c" transform="translate(232.128906 0)"/>
     <use xlink:href="#DejaVuSans-Bold-65" transform="translate(266.40625 0)"/>
     <use xlink:href="#DejaVuSans-Bold-6d" transform="translate(334.228516 0)"/>
     <use xlink:href="#DejaVuSans-Bold-65" transform="translate(438.427734 0)"/>
     <use xlink:href="#DejaVuSans-Bold-6e" transform="translate(506.25 0)"/>
     <use xlink:href="#DejaVuSans-Bold-74" transform="translate(577.441406 0)"/>
     <use xlink:href="#DejaVuSans-Bold-29" transform="translate(625.244141 0)"/>
    </g>
   </g>
   <g id="text_10">
    <!-- c_t -->
    <g style="fill: #eaeaea" transform="translate(627.881484 305.053337) scale(0.09 -0.09)">
     <use xlink:href="#DejaVuSans-Bold-63"/>
     <use xlink:href="#DejaVuSans-Bold-5f" transform="translate(59.277344 0)"/>
     <use xlink:href="#DejaVuSans-Bold-74" transform="translate(109.277344 0)"/>
    </g>
   </g>
   <g id="text_11">
    <!-- h_t -->
    <g style="fill: #eaeaea" transform="translate(627.345703 371.706494) scale(0.09 -0.09)">
     <use xlink:href="#DejaVuSans-Bold-68"/>
     <use xlink:href="#DejaVuSans-Bold-5f" transform="translate(71.191406 0)"/>
     <use xlink:href="#DejaVuSans-Bold-74" transform="translate(121.191406 0)"/>
    </g>
   </g>
   <g id="patch_13">
    <path d="M 109.638501 169.764212 
Q 141.118104 169.764212 170.920657 169.764212 
" style="fill: none; stroke: #00d4aa; stroke-width: 1.5; stroke-linecap: round"/>
    <path d="M 166.920657 167.764212 
L 170.920657 169.764212 
L 166.920657 171.764212 
" style="fill: none; stroke: #00d4aa; stroke-width: 1.5; stroke-linecap: round"/>
   </g>
   <g id="patch_14">
    <path d="M 109.638501 236.292212 
Q 141.118104 236.292212 170.920657 236.292212 
" style="fill: none; stroke: #00d4aa; stroke-width: 1.5; stroke-linecap: round"/>
    <path d="M 166.920657 234.292212 
L 170.920657 236.292212 
L 166.920657 238.292212 
" style="fill: none; stroke: #00d4aa; stroke-width: 1.5; stroke-linecap: round"/>
   </g>
   <g id="patch_15">
    <path d="M 109.638501 302.820212 
Q 141.118104 302.820212 170.920657 302.820212 
" style="fill: none; stroke: #00d4aa; stroke-width: 1.5; stroke-linecap: round"/>
    <path d="M 166.920657 300.820212 
L 170.920657 302.820212 
L 166.920657 304.820212 
" style="fill: none; stroke: #00d4aa; stroke-width: 1.5; stroke-linecap: round"/>
   </g>
   <g id="patch_16">
    <path d="M 371.899182 231.857012 
Q 397.799692 231.857012 422.023151 231.857012 
" style="fill: none; stroke: #00d4aa; stroke-width: 1.5; stroke-linecap: round"/>
    <path d="M 418.023151 229.857012 
L 422.023151 231.857012 
L 418.023151 233.857012 
" style="fill: none; stroke: #00d4aa; stroke-width: 1.5; stroke-linecap: round"/>
   </g>
   <g id="patch_17">
    <path d="M 371.899182 298.385012 
Q 397.799692 298.385012 422.023151 298.385012 
" style="fill: none; stroke: #00d4aa; stroke-width: 1.5; stroke-linecap: round"/>
    <path d="M 418.023151 296.385012 
L 422.023151 298.385012 
L 418.023151 300.385012 
" style="fill: none; stroke: #00d4aa; stroke-width: 1.5; stroke-linecap: round"/>
   </g>
   <g id="patch_18">
    <path d="M 371.899182 364.913012 
Q 397.799692 364.913012 422.023151 364.913012 
" style="fill: none; stroke: #00d4aa; stroke-width: 1.5; stroke-linecap: round"/>
    <path d="M 418.023151 362.913012 
L 422.023151 364.913012 
L 418.023151 366.913012 
" style="fill: none; stroke: #00d4aa; stroke-width: 1.5; stroke-linecap: round"/>
   </g>
   <g id="patch_19">
    <path d="M 537.3 251.595602 
Q 537.3 276.20899 537.3 299.145327 
" style="fill: none; stroke: #00d4aa; stroke-width: 1.5; stroke-linecap: round"/>
    <path d="M 539.3 295.145327 
L 537.3 299.145327 
L 535.3 295.145327 
" style="fill: none; stroke: #00d4aa; stroke-width: 1.5; stroke-linecap: round"/>
   </g>
   <g id="patch_20">
    <path d="M 537.3 318.123602 
Q 537.3 342.73699 537.3 365.673327 
" style="fill: none; stroke: #00d4aa; stroke-width: 1.5; stroke-linecap: round"/>
    <path d="M 539.3 361.673327 
L 537.3 365.673327 
L 535.3 361.673327 
" style="fill: none; stroke: #00d4aa; stroke-width: 1.5; stroke-linecap: round"/>
   </g>
   <g id="text_12">
    <!-- LSTM Cell (Hochreiter &amp; Schmidhuber, 1997) -->
    <g style="fill: #00d4aa" transform="translate(110.477031 17.837812) scale(0.14 -0.14)">
     <defs>
      <path id="DejaVuSans-Bold-4c" d="M 588 4666 
L 1791 4666 
L 1791 909 
L 3903 909 
L 3903 0 
L 588 0 
L 588 4666 
z
" transform="scale(0.015625)"/>
      <path id="DejaVuSans-Bold-53" d="M 3834 4519 
L 3834 3531 
Q 3450 3703 3084 3790 
Q 2719 3878 2394 3878 
Q 1963 3878 1756 3759 
Q 1550 3641 1550 3391 
Q 1550 3203 1689 3098 
Q 1828 2994 2194 2919 
L 2706 2816 
Q 3484 2659 3812 2340 
Q 4141 2022 4141 1434 
Q 4141 663 3683 286 
Q 3225 -91 2284 -91 
Q 1841 -91 1394 -6 
Q 947 78 500 244 
L 500 1259 
Q 947 1022 1364 901 
Q 1781 781 2169 781 
Q 2563 781 2772 912 
Q 2981 1044 2981 1288 
Q 2981 1506 2839 1625 
Q 2697 1744 2272 1838 
L 1806 1941 
Q 1106 2091 782 2419 
Q 459 2747 459 3303 
Q 459 4000 909 4375 
Q 1359 4750 2203 4750 
Q 2588 4750 2994 4692 
Q 3400 4634 3834 4519 
z
" transform="scale(0.015625)"/>
      <path id="DejaVuSans-Bold-54" d="M 31 4666 
L 4331 4666 
L 4331 3756 
L 2784 3756 
L 2784 0 
L 1581 0 
L 1581 3756 
L 31 3756 
L 31 4666 
z
" transform="scale(0.015625)"/>
      <path id="DejaVuSans-Bold-4d" d="M 588 4666 
L 2119 4666 
L 3181 2169 
L 4250 4666 
L 5778 4666 
L 5778 0 
L 4641 0 
L 4641 3413 
L 3566 897 
L 2803 897 
L 1728 3413 
L 1728 0 
L 588 0 
L 588 4666 
z
" transform="scale(0.015625)"/>
      <path id="DejaVuSans-Bold-48" d="M 588 4666 
L 1791 4666 
L 1791 2888 
L 3566 2888 
L 3566 4666 
L 4769 4666 
L 4769 0 
L 3566 0 
L 3566 1978 
L 1791 1978 
L 1791 0 
L 588 0 
L 588 4666 
z
" transform="scale(0.015625)"/>
      <path id="DejaVuSans-Bold-26" d="M 2497 3097 
L 3775 1691 
Q 3941 1909 4027 2181 
Q 4113 2453 4128 2797 
L 5100 2797 
Q 5053 2228 4879 1784 
Q 4706 1341 4397 1006 
L 5313 0 
L 3988 0 
L 3681 341 
Q 3353 122 2990 15 
Q 2628 -91 2222 -91 
Q 1400 -91 892 342 
Q 384 775 384 1459 
Q 384 1916 607 2267 
Q 831 2619 1338 2950 
Q 1206 3116 1143 3281 
Q 1081 3447 1081 3628 
Q 1081 4138 1478 4444 
Q 1875 4750 2534 4750 
Q 2819 4750 3126 4704 
Q 3434 4659 3769 4569 
L 3769 3700 
Q 3475 3850 3212 3922 
Q 2950 3994 2700 3994 
Q 2459 3994 2326 3901 
Q 2194 3809 2194 3641 
Q 2194 3534 2270 3398 
Q 2347 3263 2497 3097 
z
M 1875 2322 
Q 1672 2175 1569 1989 
Q 1466 1803 1466 1581 
Q 1466 1222 1731 969 
Q 1997 716 2369 716 
Q 2578 716 2759 780 
Q 2941 844 3097 972 
L 1875 2322 
z
" transform="scale(0.015625)"/>
      <path id="DejaVuSans-Bold-39" d="M 641 103 
L 641 966 
Q 928 831 1190 764 
Q 1453 697 1709 697 
Q 2247 697 2547 995 
Q 2847 1294 2900 1881 
Q 2688 1725 2447 1647 
Q 2206 1569 1925 1569 
Q 1209 1569 770 1986 
Q 331 2403 331 3084 
Q 331 3838 820 4291 
Q 1309 4744 2131 4744 
Q 3044 4744 3544 4128 
Q 4044 3513 4044 2388 
Q 4044 1231 3459 570 
Q 2875 -91 1856 -91 
Q 1528 -91 1228 -42 
Q 928 6 641 103 
z
M 2125 2350 
Q 2441 2350 2600 2554 
Q 2759 2759 2759 3169 
Q 2759 3575 2600 3781 
Q 2441 3988 2125 3988 
Q 1809 3988 1650 3781 
Q 1491 3575 1491 3169 
Q 1491 2759 1650 2554 
Q 1809 2350 2125 2350 
z
" transform="scale(0.015625)"/>
      <path id="DejaVuSans-Bold-37" d="M 428 4666 
L 3944 4666 
L 3944 3988 
L 2125 0 
L 953 0 
L 2675 3781 
L 428 3781 
L 428 4666 
z
" transform="scale(0.015625)"/>
     </defs>
     <use xlink:href="#DejaVuSans-Bold-4c"/>
     <use xlink:href="#DejaVuSans-Bold-53" transform="translate(63.720703 0)"/>
     <use xlink:href="#DejaVuSans-Bold-54" transform="translate(135.742188 0)"/>
     <use xlink:href="#DejaVuSans-Bold-4d" transform="translate(203.955078 0)"/>
     <use xlink:href="#DejaVuSans-Bold-20" transform="translate(303.466797 0)"/>
     <use xlink:href="#DejaVuSans-Bold-43" transform="translate(338.28125 0)"/>
     <use xlink:href="#DejaVuSans-Bold-65" transform="translate(411.669922 0)"/>
     <use xlink:href="#DejaVuSans-Bold-6c" transform="translate(479.492188 0)"/>
     <use xlink:href="#DejaVuSans-Bold-6c" transform="translate(513.769531 0)"/>
     <use xlink:href="#DejaVuSans-Bold-20" transform="translate(548.046875 0)"/>
     <use xlink:href="#DejaVuSans-Bold-28" transform="translate(582.861328 0)"/>
     <use xlink:href="#DejaVuSans-Bold-48" transform="translate(628.564453 0)"/>
     <use xlink:href="#DejaVuSans-Bold-6f" transform="translate(712.255859 0)"/>
     <use xlink:href="#DejaVuSans-Bold-63" transform="translate(780.957031 0)"/>
     <use xlink:href="#DejaVuSans-Bold-68" transform="translate(840.234375 0)"/>
     <use xlink:href="#DejaVuSans-Bold-72" transform="translate(911.425781 0)"/>
     <use xlink:href="#DejaVuSans-Bold-65" transform="translate(960.742188 0)"/>
     <use xlink:href="#DejaVuSans-Bold-69" transform="translate(1028.564453 0)"/>
     <use xlink:href="#DejaVuSans-Bold-74" transform="translate(1062.841797 0)"/>
     <use xlink:href="#DejaVuSans-Bold-65" transform="translate(1110.644531 0)"/>
     <use xlink:href="#DejaVuSans-Bold-72" transform="translate(1178.466797 0)"/>
     <use xlink:href="#DejaVuSans-Bold-20" transform="translate(1227.783203 0)"/>
     <use xlink:href="#DejaVuSans-Bold-26" transform="translate(1262.597656 0)"/>
     <use xlink:href="#DejaVuSans-Bold-20" transform="translate(1349.804688 0)"/>
     <use xlink:href="#DejaVuSans-Bold-53" transform="translate(1384.619141 0)"/>
     <use xlink:href="#DejaVuSans-Bold-63" transform="translate(1456.640625 0)"/>
     <use xlink:href="#DejaVuSans-Bold-68" transform="translate(1515.917969 0)"/>
     <use xlink:href="#DejaVuSans-Bold-6d" transform="translate(1587.109375 0)"/>
     <use xlink:href="#DejaVuSans-Bold-69" transform="translate(1691.308594 0)"/>
     <use xlink:href="#DejaVuSans-Bold-64" transform="translate(1725.585938 0)"/>
     <use xlink:href="#DejaVuSans-Bold-68" transform="translate(1797.167969 0)"/>
     <use xlink:href="#DejaVuSans-Bold-75" transform="translate(1868.359375 0)"/>
     <use xlink:href="#DejaVuSans-Bold-62" transform="translate(1939.550781 0)"/>
     <use xlink:href="#DejaVuSans-Bold-65" transform="translate(2011.132812 0)"/>
     <use xlink:href="#DejaVuSans-Bold-72" transform="translate(2078.955078 0)"/>
     <use xlink:href="#DejaVuSans-Bold-2c" transform="translate(2113.521484 0)"/>
     <use xlink:href="#DejaVuSans-Bold-20" transform="translate(2151.509766 0)"/>
     <use xlink:href="#DejaVuSans-Bold-31" transform="translate(2186.324219 0)"/>
     <use xlink:href="#DejaVuSans-Bold-39" transform="translate(2255.904297 0)"/>
     <use xlink:href="#DejaVuSans-Bold-39" transform="translate(2325.484375 0)"/>
     <use xlink:href="#DejaVuSans-Bold-37" transform="translate(2395.064453 0)"/>
     <use xlink:href="#DejaVuSans-Bold-29" transform="translate(2464.644531 0)"/>
    </g>
   </g>
  </g>
 </g>
 <defs>
  <clipPath id="p708d8c1a9a">
   <rect x="7.2" y="27.837812" width="558" height="443.52"/>
  </clipPath>
 </defs>
</svg>
