<?xml version="1.0" encoding="utf-8" standalone="no"?>
<!DOCTYPE svg PUBLIC "-//W3C//DTD SVG 1.1//EN"
  "http://www.w3.org/Graphics/SVG/1.1/DTD/svg11.dtd">
<svg xmlns:xlink="http://www.w3.org/1999/xlink" width="572.4pt" height="367.7997pt" viewBox="0 0 572.4 367.7997" xmlns="http://www.w3.org/2000/svg" version="1.1">
 <metadata>
  <rdf:RDF xmlns:dc="http://purl.org/dc/elements/1.1/" xmlns:cc="http://creativecommons.org/ns#" xmlns:rdf="http://www.w3.org/1999/02/22-rdf-syntax-ns#">
   <cc:Work>
    <dc:type rdf:resource="http://purl.org/dc/dcmitype/StillImage"/>
    <dc:date>2026-05-26T08:38:47.444767</dc:date>
    <dc:format>image/svg+xml</dc:format>
    <dc:creator>
     <cc:Agent>
      <dc:title>Matplotlib v3.10.9, https://matplotlib.org/</dc:title>
     </cc:Agent>
    </dc:creator>
   </cc:Work>
  </rdf:RDF>
 </metadata>
 <defs>
  <style type="text/css">*{stroke-linejoin: round; stroke-linecap: butt}</style>
 </defs>
 <g id="figure_1">
  <g id="patch_1">
   <path d="M 0 367.7997 
L 572.4 367.7997 
L 572.4 0 
L 0 0 
z
" style="fill: #1a1a2e"/>
  </g>
  <g id="axes_1">
   <g id="patch_2">
    <path d="M 42.354 211.455092 
L 139.446 211.455092 
Q 147.816 211.455092 147.816 206.465492 
L 147.816 191.829332 
Q 147.816 186.839732 139.446 186.839732 
L 42.354 186.839732 
Q 33.984 186.839732 33.984 191.829332 
L 33.984 206.465492 
Q 33.984 211.455092 42.354 211.455092 
z
" clip-path="url(#p9276a7ddab)" style="fill: #1565c0; stroke: #555555; stroke-width: 1.5; stroke-linejoin: miter"/>
   </g>
   <g id="patch_3">
    <path d="M 42.354 261.351092 
L 139.446 261.351092 
Q 147.816 261.351092 147.816 256.361492 
L 147.816 241.725332 
Q 147.816 236.735732 139.446 236.735732 
L 42.354 236.735732 
Q 33.984 236.735732 33.984 241.725332 
L 33.984 256.361492 
Q 33.984 261.351092 42.354 261.351092 
z
" clip-path="url(#p9276a7ddab)" style="fill: #455a64; stroke: #555555; stroke-width: 1.5; stroke-linejoin: miter"/>
   </g>
   <g id="patch_4">
    <path d="M 31.194 311.247092 
L 72.486 311.247092 
Q 80.856 311.247092 80.856 306.257492 
L 80.856 294.947732 
Q 80.856 289.958132 72.486 289.958132 
L 31.194 289.958132 
Q 22.824 289.958132 22.824 294.947732 
L 22.824 306.257492 
Q 22.824 311.247092 31.194 311.247092 
z
" clip-path="url(#p9276a7ddab)" style="fill: #c62828; stroke: #555555; stroke-width: 1.5; stroke-linejoin: miter"/>
   </g>
   <g id="patch_5">
    <path d="M 98.154 311.247092 
L 139.446 311.247092 
Q 147.816 311.247092 147.816 306.257492 
L 147.816 294.947732 
Q 147.816 289.958132 139.446 289.958132 
L 98.154 289.958132 
Q 89.784 289.958132 89.784 294.947732 
L 89.784 306.257492 
Q 89.784 311.247092 98.154 311.247092 
z
" clip-path="url(#p9276a7ddab)" style="fill: #c62828; stroke: #555555; stroke-width: 1.5; stroke-linejoin: miter"/>
   </g>
   <g id="patch_6">
    <path d="M 165.114 311.247092 
L 206.406 311.247092 
Q 214.776 311.247092 214.776 306.257492 
L 214.776 294.947732 
Q 214.776 289.958132 206.406 289.958132 
L 165.114 289.958132 
Q 156.744 289.958132 156.744 294.947732 
L 156.744 306.257492 
Q 156.744 311.247092 165.114 311.247092 
z
" clip-path="url(#p9276a7ddab)" style="fill: #c62828; stroke: #555555; stroke-width: 1.5; stroke-linejoin: miter"/>
   </g>
   <g id="patch_7">
    <path d="M 237.654 317.899892 
L 362.646 317.899892 
Q 371.016 317.899892 371.016 312.910292 
L 371.016 291.621332 
Q 371.016 286.631732 362.646 286.631732 
L 237.654 286.631732 
Q 229.284 286.631732 229.284 291.621332 
L 229.284 312.910292 
Q 229.284 317.899892 237.654 317.899892 
z
" clip-path="url(#p9276a7ddab)" style="fill: #6a1b9a; stroke: #555555; stroke-width: 1.5; stroke-linejoin: miter"/>
   </g>
   <g id="patch_8">
    <path d="M 237.654 364.469492 
L 362.646 364.469492 
Q 371.016 364.469492 371.016 359.479892 
L 371.016 348.170132 
Q 371.016 343.180532 362.646 343.180532 
L 237.654 343.180532 
Q 229.284 343.180532 229.284 348.170132 
L 229.284 359.479892 
Q 229.284 364.469492 237.654 364.469492 
z
" clip-path="url(#p9276a7ddab)" style="fill: #2e7d32; stroke: #555555; stroke-width: 1.5; stroke-linejoin: miter"/>
   </g>
   <g id="patch_9">
    <path d="M 293.454 364.469492 
L 362.646 364.469492 
Q 371.016 364.469492 371.016 359.479892 
L 371.016 348.170132 
Q 371.016 343.180532 362.646 343.180532 
L 293.454 343.180532 
Q 285.084 343.180532 285.084 348.170132 
L 285.084 359.479892 
Q 285.084 364.469492 293.454 364.469492 
z
" clip-path="url(#p9276a7ddab)" style="fill: #455a64; stroke: #555555; stroke-width: 1.5; stroke-linejoin: miter"/>
   </g>
   <g id="patch_10">
    <path d="M 432.954 371.122292 
L 530.046 371.122292 
Q 538.416 371.122292 538.416 366.132692 
L 538.416 344.843732 
Q 538.416 339.854132 530.046 339.854132 
L 432.954 339.854132 
Q 424.584 339.854132 424.584 344.843732 
L 424.584 366.132692 
Q 424.584 371.122292 432.954 371.122292 
z
" clip-path="url(#p9276a7ddab)" style="fill: #2e7d32; stroke: #555555; stroke-width: 1.5; stroke-linejoin: miter"/>
   </g>
   <g id="text_1">
    <!-- Input x_t -->
    <g style="fill: #eaeaea" transform="translate(68.577188 201.380537) scale(0.09 -0.09)">
     <defs>
      <path id="DejaVuSans-Bold-49" d="M 588 4666 
L 1791 4666 
L 1791 0 
L 588 0 
L 588 4666 
z
" transform="scale(0.015625)"/>
      <path id="DejaVuSans-Bold-6e" d="M 4056 2131 
L 4056 0 
L 2931 0 
L 2931 347 
L 2931 1631 
Q 2931 2084 2911 2256 
Q 2891 2428 2841 2509 
Q 2775 2619 2662 2680 
Q 2550 2741 2406 2741 
Q 2056 2741 1856 2470 
Q 1656 2200 1656 1722 
L 1656 0 
L 538 0 
L 538 3500 
L 1656 3500 
L 1656 2988 
Q 1909 3294 2193 3439 
Q 2478 3584 2822 3584 
Q 3428 3584 3742 3212 
Q 4056 2841 4056 2131 
z
" transform="scale(0.015625)"/>
      <path id="DejaVuSans-Bold-70" d="M 1656 506 
L 1656 -1331 
L 538 -1331 
L 538 3500 
L 1656 3500 
L 1656 2988 
Q 1888 3294 2169 3439 
Q 2450 3584 2816 3584 
Q 3463 3584 3878 3070 
Q 4294 2556 4294 1747 
Q 4294 938 3878 423 
Q 3463 -91 2816 -91 
Q 2450 -91 2169 54 
Q 1888 200 1656 506 
z
M 2400 2772 
Q 2041 2772 1848 2508 
Q 1656 2244 1656 1747 
Q 1656 1250 1848 986 
Q 2041 722 2400 722 
Q 2759 722 2948 984 
Q 3138 1247 3138 1747 
Q 3138 2247 2948 2509 
Q 2759 2772 2400 2772 
z
" transform="scale(0.015625)"/>
      <path id="DejaVuSans-Bold-75" d="M 500 1363 
L 500 3500 
L 1625 3500 
L 1625 3150 
Q 1625 2866 1622 2436 
Q 1619 2006 1619 1863 
Q 1619 1441 1641 1255 
Q 1663 1069 1716 984 
Q 1784 875 1895 815 
Q 2006 756 2150 756 
Q 2500 756 2700 1025 
Q 2900 1294 2900 1772 
L 2900 3500 
L 4019 3500 
L 4019 0 
L 2900 0 
L 2900 506 
Q 2647 200 2364 54 
Q 2081 -91 1741 -91 
Q 1134 -91 817 281 
Q 500 653 500 1363 
z
" transform="scale(0.015625)"/>
      <path id="DejaVuSans-Bold-74" d="M 1759 4494 
L 1759 3500 
L 2913 3500 
L 2913 2700 
L 1759 2700 
L 1759 1216 
Q 1759 972 1856 886 
Q 1953 800 2241 800 
L 2816 800 
L 2816 0 
L 1856 0 
Q 1194 0 917 276 
Q 641 553 641 1216 
L 641 2700 
L 84 2700 
L 84 3500 
L 641 3500 
L 641 4494 
L 1759 4494 
z
" transform="scale(0.015625)"/>
      <path id="DejaVuSans-Bold-20" transform="scale(0.015625)"/>
      <path id="DejaVuSans-Bold-78" d="M 1422 1791 
L 159 3500 
L 1344 3500 
L 2059 2463 
L 2784 3500 
L 3969 3500 
L 2706 1797 
L 4031 0 
L 2847 0 
L 2059 1106 
L 1281 0 
L 97 0 
L 1422 1791 
z
" transform="scale(0.015625)"/>
      <path id="DejaVuSans-Bold-5f" d="M 3200 -916 
L 3200 -1509 
L 0 -1509 
L 0 -916 
L 3200 -916 
z
" transform="scale(0.015625)"/>
     </defs>
     <use xlink:href="#DejaVuSans-Bold-49"/>
     <use xlink:href="#DejaVuSans-Bold-6e" transform="translate(37.207031 0)"/>
     <use xlink:href="#DejaVuSans-Bold-70" transform="translate(108.398438 0)"/>
     <use xlink:href="#DejaVuSans-Bold-75" transform="translate(179.980469 0)"/>
     <use xlink:href="#DejaVuSans-Bold-74" transform="translate(251.171875 0)"/>
     <use xlink:href="#DejaVuSans-Bold-20" transform="translate(298.974609 0)"/>
     <use xlink:href="#DejaVuSans-Bold-78" transform="translate(333.789062 0)"/>
     <use xlink:href="#DejaVuSans-Bold-5f" transform="translate(398.291016 0)"/>
     <use xlink:href="#DejaVuSans-Bold-74" transform="translate(448.291016 0)"/>
    </g>
   </g>
   <g id="patch_11">
    <path d="M 90.9 212.788008 
Q 90.9 222.432201 90.9 230.399344 
" style="fill: none; stroke: #00d4aa; stroke-width: 1.5; stroke-linecap: round"/>
    <path d="M 92.9 226.399344 
L 90.9 230.399344 
L 88.9 226.399344 
" style="fill: none; stroke: #00d4aa; stroke-width: 1.5; stroke-linecap: round"/>
   </g>
   <g id="text_2">
    <!-- Linear -->
    <g style="fill: #eaeaea" transform="translate(74.978438 251.52685) scale(0.09 -0.09)">
     <defs>
      <path id="DejaVuSans-Bold-4c" d="M 588 4666 
L 1791 4666 
L 1791 909 
L 3903 909 
L 3903 0 
L 588 0 
L 588 4666 
z
" transform="scale(0.015625)"/>
      <path id="DejaVuSans-Bold-69" d="M 538 3500 
L 1656 3500 
L 1656 0 
L 538 0 
L 538 3500 
z
M 538 4863 
L 1656 4863 
L 1656 3950 
L 538 3950 
L 538 4863 
z
" transform="scale(0.015625)"/>
      <path id="DejaVuSans-Bold-65" d="M 4031 1759 
L 4031 1441 
L 1416 1441 
Q 1456 1047 1700 850 
Q 1944 653 2381 653 
Q 2734 653 3104 758 
Q 3475 863 3866 1075 
L 3866 213 
Q 3469 63 3072 -14 
Q 2675 -91 2278 -91 
Q 1328 -91 801 392 
Q 275 875 275 1747 
Q 275 2603 792 3093 
Q 1309 3584 2216 3584 
Q 3041 3584 3536 3087 
Q 4031 2591 4031 1759 
z
M 2881 2131 
Q 2881 2450 2695 2645 
Q 2509 2841 2209 2841 
Q 1884 2841 1681 2658 
Q 1478 2475 1428 2131 
L 2881 2131 
z
" transform="scale(0.015625)"/>
      <path id="DejaVuSans-Bold-61" d="M 2106 1575 
Q 1756 1575 1579 1456 
Q 1403 1338 1403 1106 
Q 1403 894 1545 773 
Q 1688 653 1941 653 
Q 2256 653 2472 879 
Q 2688 1106 2688 1447 
L 2688 1575 
L 2106 1575 
z
M 3816 1997 
L 3816 0 
L 2688 0 
L 2688 519 
Q 2463 200 2181 54 
Q 1900 -91 1497 -91 
Q 953 -91 614 226 
Q 275 544 275 1050 
Q 275 1666 698 1953 
Q 1122 2241 2028 2241 
L 2688 2241 
L 2688 2328 
Q 2688 2594 2478 2717 
Q 2269 2841 1825 2841 
Q 1466 2841 1156 2769 
Q 847 2697 581 2553 
L 581 3406 
Q 941 3494 1303 3539 
Q 1666 3584 2028 3584 
Q 2975 3584 3395 3211 
Q 3816 2838 3816 1997 
z
" transform="scale(0.015625)"/>
      <path id="DejaVuSans-Bold-72" d="M 3138 2547 
Q 2991 2616 2845 2648 
Q 2700 2681 2553 2681 
Q 2122 2681 1889 2404 
Q 1656 2128 1656 1613 
L 1656 0 
L 538 0 
L 538 3500 
L 1656 3500 
L 1656 2925 
Q 1872 3269 2151 3426 
Q 2431 3584 2822 3584 
Q 2878 3584 2943 3579 
Q 3009 3575 3134 3559 
L 3138 2547 
z
" transform="scale(0.015625)"/>
     </defs>
     <use xlink:href="#DejaVuSans-Bold-4c"/>
     <use xlink:href="#DejaVuSans-Bold-69" transform="translate(63.720703 0)"/>
     <use xlink:href="#DejaVuSans-Bold-6e" transform="translate(97.998047 0)"/>
     <use xlink:href="#DejaVuSans-Bold-65" transform="translate(169.189453 0)"/>
     <use xlink:href="#DejaVuSans-Bold-61" transform="translate(237.011719 0)"/>
     <use xlink:href="#DejaVuSans-Bold-72" transform="translate(304.492188 0)"/>
    </g>
   </g>
   <g id="patch_12">
    <path d="M 90.9 262.684008 
Q 90.9 272.328201 90.9 280.295344 
" style="fill: none; stroke: #00d4aa; stroke-width: 1.5; stroke-linecap: round"/>
    <path d="M 92.9 276.295344 
L 90.9 280.295344 
L 88.9 276.295344 
" style="fill: none; stroke: #00d4aa; stroke-width: 1.5; stroke-linecap: round"/>
   </g>
   <g id="text_3">
    <!-- Δ_t -->
    <g style="fill: #eaeaea" transform="translate(43.080625 303.083862) scale(0.1 -0.1)">
     <defs>
      <path id="DejaVuSans-Bold-394" d="M 4922 0 
L 31 0 
L 1759 4666 
L 3194 4666 
L 4922 0 
z
M 1559 909 
L 3384 909 
L 2478 3572 
L 1559 909 
z
" transform="scale(0.015625)"/>
     </defs>
     <use xlink:href="#DejaVuSans-Bold-394"/>
     <use xlink:href="#DejaVuSans-Bold-5f" transform="translate(77.392578 0)"/>
     <use xlink:href="#DejaVuSans-Bold-74" transform="translate(127.392578 0)"/>
    </g>
   </g>
   <g id="text_4">
    <!-- B_t -->
    <g style="fill: #eaeaea" transform="translate(110.099219 303.083862) scale(0.1 -0.1)">
     <defs>
      <path id="DejaVuSans-Bold-42" d="M 2456 2859 
Q 2741 2859 2887 2984 
Q 3034 3109 3034 3353 
Q 3034 3594 2887 3720 
Q 2741 3847 2456 3847 
L 1791 3847 
L 1791 2859 
L 2456 2859 
z
M 2497 819 
Q 2859 819 3042 972 
Q 3225 1125 3225 1434 
Q 3225 1738 3044 1889 
Q 2863 2041 2497 2041 
L 1791 2041 
L 1791 819 
L 2497 819 
z
M 3616 2497 
Q 4003 2384 4215 2081 
Q 4428 1778 4428 1338 
Q 4428 663 3972 331 
Q 3516 0 2584 0 
L 588 0 
L 588 4666 
L 2394 4666 
Q 3366 4666 3802 4372 
Q 4238 4078 4238 3431 
Q 4238 3091 4078 2852 
Q 3919 2613 3616 2497 
z
" transform="scale(0.015625)"/>
     </defs>
     <use xlink:href="#DejaVuSans-Bold-42"/>
     <use xlink:href="#DejaVuSans-Bold-5f" transform="translate(76.220703 0)"/>
     <use xlink:href="#DejaVuSans-Bold-74" transform="translate(126.220703 0)"/>
    </g>
   </g>
   <g id="text_5">
    <!-- C_t -->
    <g style="fill: #eaeaea" transform="translate(177.200625 303.134644) scale(0.1 -0.1)">
     <defs>
      <path id="DejaVuSans-Bold-43" d="M 4288 256 
Q 3956 84 3597 -3 
Q 3238 -91 2847 -91 
Q 1681 -91 1000 561 
Q 319 1213 319 2328 
Q 319 3447 1000 4098 
Q 1681 4750 2847 4750 
Q 3238 4750 3597 4662 
Q 3956 4575 4288 4403 
L 4288 3438 
Q 3953 3666 3628 3772 
Q 3303 3878 2944 3878 
Q 2300 3878 1931 3465 
Q 1563 3053 1563 2328 
Q 1563 1606 1931 1193 
Q 2300 781 2944 781 
Q 3303 781 3628 887 
Q 3953 994 4288 1222 
L 4288 256 
z
" transform="scale(0.015625)"/>
     </defs>
     <use xlink:href="#DejaVuSans-Bold-43"/>
     <use xlink:href="#DejaVuSans-Bold-5f" transform="translate(73.388672 0)"/>
     <use xlink:href="#DejaVuSans-Bold-74" transform="translate(123.388672 0)"/>
    </g>
   </g>
   <g id="text_6">
    <!-- Input-dependent parameters -->
    <g style="fill: #ff8a65" transform="translate(25.747734 289.78045) scale(0.09 -0.09)">
     <defs>
      <path id="DejaVuSans-49" d="M 628 4666 
L 1259 4666 
L 1259 0 
L 628 0 
L 628 4666 
z
" transform="scale(0.015625)"/>
      <path id="DejaVuSans-6e" d="M 3513 2113 
L 3513 0 
L 2938 0 
L 2938 2094 
Q 2938 2591 2744 2837 
Q 2550 3084 2163 3084 
Q 1697 3084 1428 2787 
Q 1159 2491 1159 1978 
L 1159 0 
L 581 0 
L 581 3500 
L 1159 3500 
L 1159 2956 
Q 1366 3272 1645 3428 
Q 1925 3584 2291 3584 
Q 2894 3584 3203 3211 
Q 3513 2838 3513 2113 
z
" transform="scale(0.015625)"/>
      <path id="DejaVuSans-70" d="M 1159 525 
L 1159 -1331 
L 581 -1331 
L 581 3500 
L 1159 3500 
L 1159 2969 
Q 1341 3281 1617 3432 
Q 1894 3584 2278 3584 
Q 2916 3584 3314 3078 
Q 3713 2572 3713 1747 
Q 3713 922 3314 415 
Q 2916 -91 2278 -91 
Q 1894 -91 1617 61 
Q 1341 213 1159 525 
z
M 3116 1747 
Q 3116 2381 2855 2742 
Q 2594 3103 2138 3103 
Q 1681 3103 1420 2742 
Q 1159 2381 1159 1747 
Q 1159 1113 1420 752 
Q 1681 391 2138 391 
Q 2594 391 2855 752 
Q 3116 1113 3116 1747 
z
" transform="scale(0.015625)"/>
      <path id="DejaVuSans-75" d="M 544 1381 
L 544 3500 
L 1119 3500 
L 1119 1403 
Q 1119 906 1312 657 
Q 1506 409 1894 409 
Q 2359 409 2629 706 
Q 2900 1003 2900 1516 
L 2900 3500 
L 3475 3500 
L 3475 0 
L 2900 0 
L 2900 538 
Q 2691 219 2414 64 
Q 2138 -91 1772 -91 
Q 1169 -91 856 284 
Q 544 659 544 1381 
z
M 1991 3584 
L 1991 3584 
z
" transform="scale(0.015625)"/>
      <path id="DejaVuSans-74" d="M 1172 4494 
L 1172 3500 
L 2356 3500 
L 2356 3053 
L 1172 3053 
L 1172 1153 
Q 1172 725 1289 603 
Q 1406 481 1766 481 
L 2356 481 
L 2356 0 
L 1766 0 
Q 1100 0 847 248 
Q 594 497 594 1153 
L 594 3053 
L 172 3053 
L 172 3500 
L 594 3500 
L 594 4494 
L 1172 4494 
z
" transform="scale(0.015625)"/>
      <path id="DejaVuSans-2d" d="M 313 2009 
L 1997 2009 
L 1997 1497 
L 313 1497 
L 313 2009 
z
" transform="scale(0.015625)"/>
      <path id="DejaVuSans-64" d="M 2906 2969 
L 2906 4863 
L 3481 4863 
L 3481 0 
L 2906 0 
L 2906 525 
Q 2725 213 2448 61 
Q 2172 -91 1784 -91 
Q 1150 -91 751 415 
Q 353 922 353 1747 
Q 353 2572 751 3078 
Q 1150 3584 1784 3584 
Q 2172 3584 2448 3432 
Q 2725 3281 2906 2969 
z
M 947 1747 
Q 947 1113 1208 752 
Q 1469 391 1925 391 
Q 2381 391 2643 752 
Q 2906 1113 2906 1747 
Q 2906 2381 2643 2742 
Q 2381 3103 1925 3103 
Q 1469 3103 1208 2742 
Q 947 2381 947 1747 
z
" transform="scale(0.015625)"/>
      <path id="DejaVuSans-65" d="M 3597 1894 
L 3597 1613 
L 953 1613 
Q 991 1019 1311 708 
Q 1631 397 2203 397 
Q 2534 397 2845 478 
Q 3156 559 3463 722 
L 3463 178 
Q 3153 47 2828 -22 
Q 2503 -91 2169 -91 
Q 1331 -91 842 396 
Q 353 884 353 1716 
Q 353 2575 817 3079 
Q 1281 3584 2069 3584 
Q 2775 3584 3186 3129 
Q 3597 2675 3597 1894 
z
M 3022 2063 
Q 3016 2534 2758 2815 
Q 2500 3097 2075 3097 
Q 1594 3097 1305 2825 
Q 1016 2553 972 2059 
L 3022 2063 
z
" transform="scale(0.015625)"/>
      <path id="DejaVuSans-20" transform="scale(0.015625)"/>
      <path id="DejaVuSans-61" d="M 2194 1759 
Q 1497 1759 1228 1600 
Q 959 1441 959 1056 
Q 959 750 1161 570 
Q 1363 391 1709 391 
Q 2188 391 2477 730 
Q 2766 1069 2766 1631 
L 2766 1759 
L 2194 1759 
z
M 3341 1997 
L 3341 0 
L 2766 0 
L 2766 531 
Q 2569 213 2275 61 
Q 1981 -91 1556 -91 
Q 1019 -91 701 211 
Q 384 513 384 1019 
Q 384 1609 779 1909 
Q 1175 2209 1959 2209 
L 2766 2209 
L 2766 2266 
Q 2766 2663 2505 2880 
Q 2244 3097 1772 3097 
Q 1472 3097 1187 3025 
Q 903 2953 641 2809 
L 641 3341 
Q 956 3463 1253 3523 
Q 1550 3584 1831 3584 
Q 2591 3584 2966 3190 
Q 3341 2797 3341 1997 
z
" transform="scale(0.015625)"/>
      <path id="DejaVuSans-72" d="M 2631 2963 
Q 2534 3019 2420 3045 
Q 2306 3072 2169 3072 
Q 1681 3072 1420 2755 
Q 1159 2438 1159 1844 
L 1159 0 
L 581 0 
L 581 3500 
L 1159 3500 
L 1159 2956 
Q 1341 3275 1631 3429 
Q 1922 3584 2338 3584 
Q 2397 3584 2469 3576 
Q 2541 3569 2628 3553 
L 2631 2963 
z
" transform="scale(0.015625)"/>
      <path id="DejaVuSans-6d" d="M 3328 2828 
Q 3544 3216 3844 3400 
Q 4144 3584 4550 3584 
Q 5097 3584 5394 3201 
Q 5691 2819 5691 2113 
L 5691 0 
L 5113 0 
L 5113 2094 
Q 5113 2597 4934 2840 
Q 4756 3084 4391 3084 
Q 3944 3084 3684 2787 
Q 3425 2491 3425 1978 
L 3425 0 
L 2847 0 
L 2847 2094 
Q 2847 2600 2669 2842 
Q 2491 3084 2119 3084 
Q 1678 3084 1418 2786 
Q 1159 2488 1159 1978 
L 1159 0 
L 581 0 
L 581 3500 
L 1159 3500 
L 1159 2956 
Q 1356 3278 1631 3431 
Q 1906 3584 2284 3584 
Q 2666 3584 2933 3390 
Q 3200 3197 3328 2828 
z
" transform="scale(0.015625)"/>
      <path id="DejaVuSans-73" d="M 2834 3397 
L 2834 2853 
Q 2591 2978 2328 3040 
Q 2066 3103 1784 3103 
Q 1356 3103 1142 2972 
Q 928 2841 928 2578 
Q 928 2378 1081 2264 
Q 1234 2150 1697 2047 
L 1894 2003 
Q 2506 1872 2764 1633 
Q 3022 1394 3022 966 
Q 3022 478 2636 193 
Q 2250 -91 1575 -91 
Q 1294 -91 989 -36 
Q 684 19 347 128 
L 347 722 
Q 666 556 975 473 
Q 1284 391 1588 391 
Q 1994 391 2212 530 
Q 2431 669 2431 922 
Q 2431 1156 2273 1281 
Q 2116 1406 1581 1522 
L 1381 1569 
Q 847 1681 609 1914 
Q 372 2147 372 2553 
Q 372 3047 722 3315 
Q 1072 3584 1716 3584 
Q 2034 3584 2315 3537 
Q 2597 3491 2834 3397 
z
" transform="scale(0.015625)"/>
     </defs>
     <use xlink:href="#DejaVuSans-49"/>
     <use xlink:href="#DejaVuSans-6e" transform="translate(29.492188 0)"/>
     <use xlink:href="#DejaVuSans-70" transform="translate(92.871094 0)"/>
     <use xlink:href="#DejaVuSans-75" transform="translate(156.347656 0)"/>
     <use xlink:href="#DejaVuSans-74" transform="translate(219.726562 0)"/>
     <use xlink:href="#DejaVuSans-2d" transform="translate(258.935547 0)"/>
     <use xlink:href="#DejaVuSans-64" transform="translate(295.019531 0)"/>
     <use xlink:href="#DejaVuSans-65" transform="translate(358.496094 0)"/>
     <use xlink:href="#DejaVuSans-70" transform="translate(420.019531 0)"/>
     <use xlink:href="#DejaVuSans-65" transform="translate(483.496094 0)"/>
     <use xlink:href="#DejaVuSans-6e" transform="translate(545.019531 0)"/>
     <use xlink:href="#DejaVuSans-64" transform="translate(608.398438 0)"/>
     <use xlink:href="#DejaVuSans-65" transform="translate(671.875 0)"/>
     <use xlink:href="#DejaVuSans-6e" transform="translate(733.398438 0)"/>
     <use xlink:href="#DejaVuSans-74" transform="translate(796.777344 0)"/>
     <use xlink:href="#DejaVuSans-20" transform="translate(835.986328 0)"/>
     <use xlink:href="#DejaVuSans-70" transform="translate(867.773438 0)"/>
     <use xlink:href="#DejaVuSans-61" transform="translate(931.25 0)"/>
     <use xlink:href="#DejaVuSans-72" transform="translate(992.529297 0)"/>
     <use xlink:href="#DejaVuSans-61" transform="translate(1033.642578 0)"/>
     <use xlink:href="#DejaVuSans-6d" transform="translate(1094.921875 0)"/>
     <use xlink:href="#DejaVuSans-65" transform="translate(1192.333984 0)"/>
     <use xlink:href="#DejaVuSans-74" transform="translate(1253.857422 0)"/>
     <use xlink:href="#DejaVuSans-65" transform="translate(1293.066406 0)"/>
     <use xlink:href="#DejaVuSans-72" transform="translate(1354.589844 0)"/>
     <use xlink:href="#DejaVuSans-73" transform="translate(1395.703125 0)"/>
    </g>
   </g>
   <g id="patch_13">
    <path d="M 120.792371 310.403656 
Q 174.60106 305.592118 226.739363 300.929944 
" style="fill: none; stroke: #00d4aa; stroke-width: 1.5; stroke-linecap: round"/>
    <path d="M 222.577131 299.294148 
L 226.739363 300.929944 
L 222.933387 303.278252 
" style="fill: none; stroke: #00d4aa; stroke-width: 1.5; stroke-linecap: round"/>
   </g>
   <g id="text_7">
    <!-- SSM Core -->
    <g style="fill: #eaeaea" transform="translate(276.160781 298.775078) scale(0.09 -0.09)">
     <defs>
      <path id="DejaVuSans-Bold-53" d="M 3834 4519 
L 3834 3531 
Q 3450 3703 3084 3790 
Q 2719 3878 2394 3878 
Q 1963 3878 1756 3759 
Q 1550 3641 1550 3391 
Q 1550 3203 1689 3098 
Q 1828 2994 2194 2919 
L 2706 2816 
Q 3484 2659 3812 2340 
Q 4141 2022 4141 1434 
Q 4141 663 3683 286 
Q 3225 -91 2284 -91 
Q 1841 -91 1394 -6 
Q 947 78 500 244 
L 500 1259 
Q 947 1022 1364 901 
Q 1781 781 2169 781 
Q 2563 781 2772 912 
Q 2981 1044 2981 1288 
Q 2981 1506 2839 1625 
Q 2697 1744 2272 1838 
L 1806 1941 
Q 1106 2091 782 2419 
Q 459 2747 459 3303 
Q 459 4000 909 4375 
Q 1359 4750 2203 4750 
Q 2588 4750 2994 4692 
Q 3400 4634 3834 4519 
z
" transform="scale(0.015625)"/>
      <path id="DejaVuSans-Bold-4d" d="M 588 4666 
L 2119 4666 
L 3181 2169 
L 4250 4666 
L 5778 4666 
L 5778 0 
L 4641 0 
L 4641 3413 
L 3566 897 
L 2803 897 
L 1728 3413 
L 1728 0 
L 588 0 
L 588 4666 
z
" transform="scale(0.015625)"/>
      <path id="DejaVuSans-Bold-6f" d="M 2203 2784 
Q 1831 2784 1636 2517 
Q 1441 2250 1441 1747 
Q 1441 1244 1636 976 
Q 1831 709 2203 709 
Q 2569 709 2762 976 
Q 2956 1244 2956 1747 
Q 2956 2250 2762 2517 
Q 2569 2784 2203 2784 
z
M 2203 3584 
Q 3106 3584 3614 3096 
Q 4122 2609 4122 1747 
Q 4122 884 3614 396 
Q 3106 -91 2203 -91 
Q 1297 -91 786 396 
Q 275 884 275 1747 
Q 275 2609 786 3096 
Q 1297 3584 2203 3584 
z
" transform="scale(0.015625)"/>
     </defs>
     <use xlink:href="#DejaVuSans-Bold-53"/>
     <use xlink:href="#DejaVuSans-Bold-53" transform="translate(67.521484 0)"/>
     <use xlink:href="#DejaVuSans-Bold-4d" transform="translate(139.542969 0)"/>
     <use xlink:href="#DejaVuSans-Bold-20" transform="translate(239.054688 0)"/>
     <use xlink:href="#DejaVuSans-Bold-43" transform="translate(273.869141 0)"/>
     <use xlink:href="#DejaVuSans-Bold-6f" transform="translate(347.257812 0)"/>
     <use xlink:href="#DejaVuSans-Bold-72" transform="translate(415.958984 0)"/>
     <use xlink:href="#DejaVuSans-Bold-65" transform="translate(465.275391 0)"/>
    </g>
    <!-- h_t = Ā h_{t-1} + B̄ x_t -->
    <g style="fill: #eaeaea" transform="translate(242.379141 310.473109) scale(0.09 -0.09)">
     <defs>
      <path id="DejaVuSans-Bold-68" d="M 4056 2131 
L 4056 0 
L 2931 0 
L 2931 347 
L 2931 1625 
Q 2931 2084 2911 2256 
Q 2891 2428 2841 2509 
Q 2775 2619 2662 2680 
Q 2550 2741 2406 2741 
Q 2056 2741 1856 2470 
Q 1656 2200 1656 1722 
L 1656 0 
L 538 0 
L 538 4863 
L 1656 4863 
L 1656 2988 
Q 1909 3294 2193 3439 
Q 2478 3584 2822 3584 
Q 3428 3584 3742 3212 
Q 4056 2841 4056 2131 
z
" transform="scale(0.015625)"/>
      <path id="DejaVuSans-Bold-3d" d="M 678 3084 
L 4684 3084 
L 4684 2350 
L 678 2350 
L 678 3084 
z
M 678 1663 
L 4684 1663 
L 4684 922 
L 678 922 
L 678 1663 
z
" transform="scale(0.015625)"/>
      <path id="DejaVuSans-Bold-100" d="M 1488 5823 
L 3456 5823 
L 3456 5235 
L 1488 5235 
L 1488 5823 
z
M 3419 850 
L 1538 850 
L 1241 0 
L 31 0 
L 1759 4666 
L 3194 4666 
L 4922 0 
L 3713 0 
L 3419 850 
z
M 1838 1716 
L 3116 1716 
L 2478 3572 
L 1838 1716 
z
" transform="scale(0.015625)"/>
      <path id="DejaVuSans-Bold-7b" d="M 3756 -341 
L 3756 -1044 
L 3078 -1044 
Q 2397 -1044 2084 -769 
Q 1772 -494 1772 109 
L 1772 709 
Q 1772 1178 1603 1361 
Q 1434 1544 991 1544 
L 800 1544 
L 800 2241 
L 991 2241 
Q 1434 2241 1603 2422 
Q 1772 2603 1772 3072 
L 1772 3713 
Q 1772 4316 2084 4589 
Q 2397 4863 3078 4863 
L 3756 4863 
L 3756 4159 
L 3541 4159 
Q 3100 4159 2967 4023 
Q 2834 3888 2834 3444 
L 2834 2925 
Q 2834 2434 2693 2212 
Q 2553 1991 2209 1913 
Q 2556 1828 2695 1606 
Q 2834 1384 2834 897 
L 2834 378 
Q 2834 -69 2967 -205 
Q 3100 -341 3541 -341 
L 3756 -341 
z
" transform="scale(0.015625)"/>
      <path id="DejaVuSans-Bold-2d" d="M 347 2297 
L 2309 2297 
L 2309 1388 
L 347 1388 
L 347 2297 
z
" transform="scale(0.015625)"/>
      <path id="DejaVuSans-Bold-31" d="M 750 831 
L 1813 831 
L 1813 3847 
L 722 3622 
L 722 4441 
L 1806 4666 
L 2950 4666 
L 2950 831 
L 4013 831 
L 4013 0 
L 750 0 
L 750 831 
z
" transform="scale(0.015625)"/>
      <path id="DejaVuSans-Bold-7d" d="M 800 -341 
L 1019 -341 
Q 1456 -341 1589 -205 
Q 1722 -69 1722 378 
L 1722 897 
Q 1722 1384 1862 1606 
Q 2003 1828 2350 1913 
Q 2003 1991 1862 2212 
Q 1722 2434 1722 2925 
L 1722 3444 
Q 1722 3888 1589 4023 
Q 1456 4159 1019 4159 
L 800 4159 
L 800 4863 
L 1478 4863 
Q 2159 4863 2471 4589 
Q 2784 4316 2784 3713 
L 2784 3072 
Q 2784 2603 2953 2422 
Q 3122 2241 3566 2241 
L 3756 2241 
L 3756 1544 
L 3566 1544 
Q 3122 1544 2953 1361 
Q 2784 1178 2784 709 
L 2784 109 
Q 2784 -494 2471 -769 
Q 2159 -1044 1478 -1044 
L 800 -1044 
L 800 -341 
z
" transform="scale(0.015625)"/>
      <path id="DejaVuSans-Bold-2b" d="M 3053 4013 
L 3053 2375 
L 4684 2375 
L 4684 1638 
L 3053 1638 
L 3053 0 
L 2309 0 
L 2309 1638 
L 678 1638 
L 678 2375 
L 2309 2375 
L 2309 4013 
L 3053 4013 
z
" transform="scale(0.015625)"/>
      <path id="DejaVuSans-Bold-304" d="M -2592 4863 
L -624 4863 
L -624 4275 
L -2592 4275 
L -2592 4863 
z
" transform="scale(0.015625)"/>
     </defs>
     <use xlink:href="#DejaVuSans-Bold-68"/>
     <use xlink:href="#DejaVuSans-Bold-5f" transform="translate(71.191406 0)"/>
     <use xlink:href="#DejaVuSans-Bold-74" transform="translate(121.191406 0)"/>
     <use xlink:href="#DejaVuSans-Bold-20" transform="translate(168.994141 0)"/>
     <use xlink:href="#DejaVuSans-Bold-3d" transform="translate(203.808594 0)"/>
     <use xlink:href="#DejaVuSans-Bold-20" transform="translate(287.597656 0)"/>
     <use xlink:href="#DejaVuSans-Bold-100" transform="translate(322.412109 0)"/>
     <use xlink:href="#DejaVuSans-Bold-20" transform="translate(399.804688 0)"/>
     <use xlink:href="#DejaVuSans-Bold-68" transform="translate(434.619141 0)"/>
     <use xlink:href="#DejaVuSans-Bold-5f" transform="translate(505.810547 0)"/>
     <use xlink:href="#DejaVuSans-Bold-7b" transform="translate(555.810547 0)"/>
     <use xlink:href="#DejaVuSans-Bold-74" transform="translate(627.001953 0)"/>
     <use xlink:href="#DejaVuSans-Bold-2d" transform="translate(674.804688 0)"/>
     <use xlink:href="#DejaVuSans-Bold-31" transform="translate(716.308594 0)"/>
     <use xlink:href="#DejaVuSans-Bold-7d" transform="translate(785.888672 0)"/>
     <use xlink:href="#DejaVuSans-Bold-20" transform="translate(857.080078 0)"/>
     <use xlink:href="#DejaVuSans-Bold-2b" transform="translate(891.894531 0)"/>
     <use xlink:href="#DejaVuSans-Bold-20" transform="translate(975.683594 0)"/>
     <use xlink:href="#DejaVuSans-Bold-42" transform="translate(1010.498047 0)"/>
     <use xlink:href="#DejaVuSans-Bold-304" transform="translate(1086.71875 0)"/>
     <use xlink:href="#DejaVuSans-Bold-20" transform="translate(1086.71875 0)"/>
     <use xlink:href="#DejaVuSans-Bold-78" transform="translate(1121.533203 0)"/>
     <use xlink:href="#DejaVuSans-Bold-5f" transform="translate(1186.035156 0)"/>
     <use xlink:href="#DejaVuSans-Bold-74" transform="translate(1236.035156 0)"/>
    </g>
   </g>
   <g id="patch_14">
    <path d="M 300.15 319.232808 
Q 300.15 328.877001 300.15 336.844144 
" style="fill: none; stroke: #00d4aa; stroke-width: 1.5; stroke-linecap: round"/>
    <path d="M 302.15 332.844144 
L 300.15 336.844144 
L 298.15 332.844144 
" style="fill: none; stroke: #00d4aa; stroke-width: 1.5; stroke-linecap: round"/>
   </g>
   <g id="text_8">
    <!-- y_t = C h_t -->
    <g style="fill: #eaeaea" transform="translate(273.438281 356.183294) scale(0.09 -0.09)">
     <defs>
      <path id="DejaVuSans-Bold-79" d="M 78 3500 
L 1197 3500 
L 2138 1125 
L 2938 3500 
L 4056 3500 
L 2584 -331 
Q 2363 -916 2067 -1148 
Q 1772 -1381 1288 -1381 
L 641 -1381 
L 641 -647 
L 991 -647 
Q 1275 -647 1404 -556 
Q 1534 -466 1606 -231 
L 1638 -134 
L 78 3500 
z
" transform="scale(0.015625)"/>
     </defs>
     <use xlink:href="#DejaVuSans-Bold-79"/>
     <use xlink:href="#DejaVuSans-Bold-5f" transform="translate(65.185547 0)"/>
     <use xlink:href="#DejaVuSans-Bold-74" transform="translate(115.185547 0)"/>
     <use xlink:href="#DejaVuSans-Bold-20" transform="translate(162.988281 0)"/>
     <use xlink:href="#DejaVuSans-Bold-3d" transform="translate(197.802734 0)"/>
     <use xlink:href="#DejaVuSans-Bold-20" transform="translate(281.591797 0)"/>
     <use xlink:href="#DejaVuSans-Bold-43" transform="translate(316.40625 0)"/>
     <use xlink:href="#DejaVuSans-Bold-20" transform="translate(389.794922 0)"/>
     <use xlink:href="#DejaVuSans-Bold-68" transform="translate(424.609375 0)"/>
     <use xlink:href="#DejaVuSans-Bold-5f" transform="translate(495.800781 0)"/>
     <use xlink:href="#DejaVuSans-Bold-74" transform="translate(545.800781 0)"/>
    </g>
   </g>
   <g id="patch_15">
    <path d="M 148.696628 200.810612 
Q 216.447504 200.810612 282.521328 200.810612 
" style="fill: none; stroke: #00d4aa; stroke-width: 1.5; stroke-linecap: round"/>
    <path d="M 278.521328 198.810612 
L 282.521328 200.810612 
L 278.521328 202.810612 
" style="fill: none; stroke: #00d4aa; stroke-width: 1.5; stroke-linecap: round"/>
   </g>
   <g id="patch_16">
    <path d="M 286.2 202.806879 
Q 286.2 275.654402 286.2 346.824875 
" style="fill: none; stroke: #00d4aa; stroke-width: 1.5; stroke-linecap: round"/>
    <path d="M 288.2 342.824875 
L 286.2 346.824875 
L 284.2 342.824875 
" style="fill: none; stroke: #00d4aa; stroke-width: 1.5; stroke-linecap: round"/>
   </g>
   <g id="text_9">
    <!-- + -->
    <g style="fill: #eaeaea" transform="translate(322.184219 357.688137) scale(0.14 -0.14)">
     <use xlink:href="#DejaVuSans-Bold-2b"/>
    </g>
   </g>
   <g id="patch_17">
    <path d="M 371.899182 353.825012 
Q 397.799692 353.825012 422.023151 353.825012 
" style="fill: none; stroke: #00d4aa; stroke-width: 1.5; stroke-linecap: round"/>
    <path d="M 418.023151 351.825012 
L 422.023151 353.825012 
L 418.023151 355.825012 
" style="fill: none; stroke: #00d4aa; stroke-width: 1.5; stroke-linecap: round"/>
   </g>
   <g id="text_10">
    <!-- Output y_t -->
    <g style="fill: #eaeaea" transform="translate(454.843828 357.767041) scale(0.09 -0.09)">
     <defs>
      <path id="DejaVuSans-Bold-4f" d="M 2719 3878 
Q 2169 3878 1866 3472 
Q 1563 3066 1563 2328 
Q 1563 1594 1866 1187 
Q 2169 781 2719 781 
Q 3272 781 3575 1187 
Q 3878 1594 3878 2328 
Q 3878 3066 3575 3472 
Q 3272 3878 2719 3878 
z
M 2719 4750 
Q 3844 4750 4481 4106 
Q 5119 3463 5119 2328 
Q 5119 1197 4481 553 
Q 3844 -91 2719 -91 
Q 1597 -91 958 553 
Q 319 1197 319 2328 
Q 319 3463 958 4106 
Q 1597 4750 2719 4750 
z
" transform="scale(0.015625)"/>
     </defs>
     <use xlink:href="#DejaVuSans-Bold-4f"/>
     <use xlink:href="#DejaVuSans-Bold-75" transform="translate(85.009766 0)"/>
     <use xlink:href="#DejaVuSans-Bold-74" transform="translate(156.201172 0)"/>
     <use xlink:href="#DejaVuSans-Bold-70" transform="translate(204.003906 0)"/>
     <use xlink:href="#DejaVuSans-Bold-75" transform="translate(275.585938 0)"/>
     <use xlink:href="#DejaVuSans-Bold-74" transform="translate(346.777344 0)"/>
     <use xlink:href="#DejaVuSans-Bold-20" transform="translate(394.580078 0)"/>
     <use xlink:href="#DejaVuSans-Bold-79" transform="translate(429.394531 0)"/>
     <use xlink:href="#DejaVuSans-Bold-5f" transform="translate(494.580078 0)"/>
     <use xlink:href="#DejaVuSans-Bold-74" transform="translate(544.580078 0)"/>
    </g>
   </g>
   <g id="text_11">
    <!-- Mamba: Selective State Space Model -->
    <g style="fill: #00d4aa" transform="translate(139.980937 17.837812) scale(0.14 -0.14)">
     <defs>
      <path id="DejaVuSans-Bold-6d" d="M 3781 2919 
Q 3994 3244 4286 3414 
Q 4578 3584 4928 3584 
Q 5531 3584 5847 3212 
Q 6163 2841 6163 2131 
L 6163 0 
L 5038 0 
L 5038 1825 
Q 5041 1866 5042 1909 
Q 5044 1953 5044 2034 
Q 5044 2406 4934 2573 
Q 4825 2741 4581 2741 
Q 4263 2741 4089 2478 
Q 3916 2216 3909 1719 
L 3909 0 
L 2784 0 
L 2784 1825 
Q 2784 2406 2684 2573 
Q 2584 2741 2328 2741 
Q 2006 2741 1831 2477 
Q 1656 2213 1656 1722 
L 1656 0 
L 531 0 
L 531 3500 
L 1656 3500 
L 1656 2988 
Q 1863 3284 2130 3434 
Q 2397 3584 2719 3584 
Q 3081 3584 3359 3409 
Q 3638 3234 3781 2919 
z
" transform="scale(0.015625)"/>
      <path id="DejaVuSans-Bold-62" d="M 2400 722 
Q 2759 722 2948 984 
Q 3138 1247 3138 1747 
Q 3138 2247 2948 2509 
Q 2759 2772 2400 2772 
Q 2041 2772 1848 2508 
Q 1656 2244 1656 1747 
Q 1656 1250 1848 986 
Q 2041 722 2400 722 
z
M 1656 2988 
Q 1888 3294 2169 3439 
Q 2450 3584 2816 3584 
Q 3463 3584 3878 3070 
Q 4294 2556 4294 1747 
Q 4294 938 3878 423 
Q 3463 -91 2816 -91 
Q 2450 -91 2169 54 
Q 1888 200 1656 506 
L 1656 0 
L 538 0 
L 538 4863 
L 1656 4863 
L 1656 2988 
z
" transform="scale(0.015625)"/>
      <path id="DejaVuSans-Bold-3a" d="M 716 3500 
L 1844 3500 
L 1844 2291 
L 716 2291 
L 716 3500 
z
M 716 1209 
L 1844 1209 
L 1844 0 
L 716 0 
L 716 1209 
z
" transform="scale(0.015625)"/>
      <path id="DejaVuSans-Bold-6c" d="M 538 4863 
L 1656 4863 
L 1656 0 
L 538 0 
L 538 4863 
z
" transform="scale(0.015625)"/>
      <path id="DejaVuSans-Bold-63" d="M 3366 3391 
L 3366 2478 
Q 3138 2634 2908 2709 
Q 2678 2784 2431 2784 
Q 1963 2784 1702 2511 
Q 1441 2238 1441 1747 
Q 1441 1256 1702 982 
Q 1963 709 2431 709 
Q 2694 709 2930 787 
Q 3166 866 3366 1019 
L 3366 103 
Q 3103 6 2833 -42 
Q 2563 -91 2291 -91 
Q 1344 -91 809 395 
Q 275 881 275 1747 
Q 275 2613 809 3098 
Q 1344 3584 2291 3584 
Q 2566 3584 2833 3536 
Q 3100 3488 3366 3391 
z
" transform="scale(0.015625)"/>
      <path id="DejaVuSans-Bold-76" d="M 97 3500 
L 1216 3500 
L 2088 1081 
L 2956 3500 
L 4078 3500 
L 2700 0 
L 1472 0 
L 97 3500 
z
" transform="scale(0.015625)"/>
      <path id="DejaVuSans-Bold-64" d="M 2919 2988 
L 2919 4863 
L 4044 4863 
L 4044 0 
L 2919 0 
L 2919 506 
Q 2688 197 2409 53 
Q 2131 -91 1766 -91 
Q 1119 -91 703 423 
Q 288 938 288 1747 
Q 288 2556 703 3070 
Q 1119 3584 1766 3584 
Q 2128 3584 2408 3439 
Q 2688 3294 2919 2988 
z
M 2181 722 
Q 2541 722 2730 984 
Q 2919 1247 2919 1747 
Q 2919 2247 2730 2509 
Q 2541 2772 2181 2772 
Q 1825 2772 1636 2509 
Q 1447 2247 1447 1747 
Q 1447 1247 1636 984 
Q 1825 722 2181 722 
z
" transform="scale(0.015625)"/>
     </defs>
     <use xlink:href="#DejaVuSans-Bold-4d"/>
     <use xlink:href="#DejaVuSans-Bold-61" transform="translate(99.511719 0)"/>
     <use xlink:href="#DejaVuSans-Bold-6d" transform="translate(166.992188 0)"/>
     <use xlink:href="#DejaVuSans-Bold-62" transform="translate(271.191406 0)"/>
     <use xlink:href="#DejaVuSans-Bold-61" transform="translate(342.773438 0)"/>
     <use xlink:href="#DejaVuSans-Bold-3a" transform="translate(410.253906 0)"/>
     <use xlink:href="#DejaVuSans-Bold-20" transform="translate(450.244141 0)"/>
     <use xlink:href="#DejaVuSans-Bold-53" transform="translate(485.058594 0)"/>
     <use xlink:href="#DejaVuSans-Bold-65" transform="translate(557.080078 0)"/>
     <use xlink:href="#DejaVuSans-Bold-6c" transform="translate(624.902344 0)"/>
     <use xlink:href="#DejaVuSans-Bold-65" transform="translate(659.179688 0)"/>
     <use xlink:href="#DejaVuSans-Bold-63" transform="translate(727.001953 0)"/>
     <use xlink:href="#DejaVuSans-Bold-74" transform="translate(786.279297 0)"/>
     <use xlink:href="#DejaVuSans-Bold-69" transform="translate(834.082031 0)"/>
     <use xlink:href="#DejaVuSans-Bold-76" transform="translate(868.359375 0)"/>
     <use xlink:href="#DejaVuSans-Bold-65" transform="translate(933.544922 0)"/>
     <use xlink:href="#DejaVuSans-Bold-20" transform="translate(1001.367188 0)"/>
     <use xlink:href="#DejaVuSans-Bold-53" transform="translate(1036.181641 0)"/>
     <use xlink:href="#DejaVuSans-Bold-74" transform="translate(1108.203125 0)"/>
     <use xlink:href="#DejaVuSans-Bold-61" transform="translate(1156.005859 0)"/>
     <use xlink:href="#DejaVuSans-Bold-74" transform="translate(1223.486328 0)"/>
     <use xlink:href="#DejaVuSans-Bold-65" transform="translate(1271.289062 0)"/>
     <use xlink:href="#DejaVuSans-Bold-20" transform="translate(1339.111328 0)"/>
     <use xlink:href="#DejaVuSans-Bold-53" transform="translate(1373.925781 0)"/>
     <use xlink:href="#DejaVuSans-Bold-70" transform="translate(1445.947266 0)"/>
     <use xlink:href="#DejaVuSans-Bold-61" transform="translate(1517.529297 0)"/>
     <use xlink:href="#DejaVuSans-Bold-63" transform="translate(1585.009766 0)"/>
     <use xlink:href="#DejaVuSans-Bold-65" transform="translate(1644.287109 0)"/>
     <use xlink:href="#DejaVuSans-Bold-20" transform="translate(1712.109375 0)"/>
     <use xlink:href="#DejaVuSans-Bold-4d" transform="translate(1746.923828 0)"/>
     <use xlink:href="#DejaVuSans-Bold-6f" transform="translate(1846.435547 0)"/>
     <use xlink:href="#DejaVuSans-Bold-64" transform="translate(1915.136719 0)"/>
     <use xlink:href="#DejaVuSans-Bold-65" transform="translate(1986.71875 0)"/>
     <use xlink:href="#DejaVuSans-Bold-6c" transform="translate(2054.541016 0)"/>
    </g>
   </g>
  </g>
 </g>
 <defs>
  <clipPath id="p9276a7ddab">
   <rect x="7.2" y="27.837812" width="558" height="332.64"/>
  </clipPath>
 </defs>
</svg>
