<?xml version="1.0" encoding="utf-8" standalone="no"?>
<!DOCTYPE svg PUBLIC "-//W3C//DTD SVG 1.1//EN"
  "http://www.w3.org/Graphics/SVG/1.1/DTD/svg11.dtd">
<svg xmlns:xlink="http://www.w3.org/1999/xlink" width="572.4pt" height="500.653769pt" viewBox="0 0 572.4 500.653769" xmlns="http://www.w3.org/2000/svg" version="1.1">
 <metadata>
  <rdf:RDF xmlns:dc="http://purl.org/dc/elements/1.1/" xmlns:cc="http://creativecommons.org/ns#" xmlns:rdf="http://www.w3.org/1999/02/22-rdf-syntax-ns#">
   <cc:Work>
    <dc:type rdf:resource="http://purl.org/dc/dcmitype/StillImage"/>
    <dc:date>2026-05-26T08:38:46.116182</dc:date>
    <dc:format>image/svg+xml</dc:format>
    <dc:creator>
     <cc:Agent>
      <dc:title>Matplotlib v3.10.9, https://matplotlib.org/</dc:title>
     </cc:Agent>
    </dc:creator>
   </cc:Work>
  </rdf:RDF>
 </metadata>
 <defs>
  <style type="text/css">*{stroke-linejoin: round; stroke-linecap: butt}</style>
 </defs>
 <g id="figure_1">
  <g id="patch_1">
   <path d="M 0 500.653769 
L 572.4 500.653769 
L 572.4 0 
L 0 0 
z
" style="fill: #1a1a2e"/>
  </g>
  <g id="axes_1">
   <g id="patch_2">
    <path d="M 31.194 294.836852 
L 100.386 294.836852 
Q 108.756 294.836852 108.756 288.184052 
L 108.756 255.363572 
Q 108.756 248.710772 100.386 248.710772 
L 31.194 248.710772 
Q 22.824 248.710772 22.824 255.363572 
L 22.824 288.184052 
Q 22.824 294.836852 31.194 294.836852 
z
" clip-path="url(#pa4e9c742c7)" style="fill: #1565c0; stroke: #555555; stroke-width: 1.5; stroke-linejoin: miter"/>
   </g>
   <g id="patch_3">
    <path d="M 137.214 241.614452 
L 150.606 241.614452 
Q 158.976 241.614452 158.976 234.961652 
L 158.976 219.881972 
Q 158.976 213.229172 150.606 213.229172 
L 137.214 213.229172 
Q 128.844 213.229172 128.844 219.881972 
L 128.844 234.961652 
Q 128.844 241.614452 137.214 241.614452 
z
" clip-path="url(#pa4e9c742c7)" style="fill: #455a64; stroke: #555555; stroke-width: 1.5; stroke-linejoin: miter"/>
   </g>
   <g id="patch_4">
    <path d="M 137.214 330.318452 
L 150.606 330.318452 
Q 158.976 330.318452 158.976 323.665652 
L 158.976 308.585972 
Q 158.976 301.933172 150.606 301.933172 
L 137.214 301.933172 
Q 128.844 301.933172 128.844 308.585972 
L 128.844 323.665652 
Q 128.844 330.318452 137.214 330.318452 
z
" clip-path="url(#pa4e9c742c7)" style="fill: #455a64; stroke: #555555; stroke-width: 1.5; stroke-linejoin: miter"/>
   </g>
   <g id="patch_5">
    <path d="M 137.214 285.966452 
L 150.606 285.966452 
Q 158.976 285.966452 158.976 279.313652 
L 158.976 264.233972 
Q 158.976 257.581172 150.606 257.581172 
L 137.214 257.581172 
Q 128.844 257.581172 128.844 264.233972 
L 128.844 279.313652 
Q 128.844 285.966452 137.214 285.966452 
z
" clip-path="url(#pa4e9c742c7)" style="fill: #455a64; stroke: #555555; stroke-width: 1.5; stroke-linejoin: miter"/>
   </g>
   <g id="patch_6">
    <path d="M 176.274 241.614452 
L 189.666 241.614452 
Q 198.036 241.614452 198.036 234.961652 
L 198.036 219.881972 
Q 198.036 213.229172 189.666 213.229172 
L 176.274 213.229172 
Q 167.904 213.229172 167.904 219.881972 
L 167.904 234.961652 
Q 167.904 241.614452 176.274 241.614452 
z
" clip-path="url(#pa4e9c742c7)" style="fill: #455a64; stroke: #555555; stroke-width: 1.5; stroke-linejoin: miter"/>
   </g>
   <g id="patch_7">
    <path d="M 176.274 330.318452 
L 189.666 330.318452 
Q 198.036 330.318452 198.036 323.665652 
L 198.036 308.585972 
Q 198.036 301.933172 189.666 301.933172 
L 176.274 301.933172 
Q 167.904 301.933172 167.904 308.585972 
L 167.904 323.665652 
Q 167.904 330.318452 176.274 330.318452 
z
" clip-path="url(#pa4e9c742c7)" style="fill: #455a64; stroke: #555555; stroke-width: 1.5; stroke-linejoin: miter"/>
   </g>
   <g id="patch_8">
    <path d="M 176.274 285.966452 
L 189.666 285.966452 
Q 198.036 285.966452 198.036 279.313652 
L 198.036 264.233972 
Q 198.036 257.581172 189.666 257.581172 
L 176.274 257.581172 
Q 167.904 257.581172 167.904 264.233972 
L 167.904 279.313652 
Q 167.904 285.966452 176.274 285.966452 
z
" clip-path="url(#pa4e9c742c7)" style="fill: #455a64; stroke: #555555; stroke-width: 1.5; stroke-linejoin: miter"/>
   </g>
   <g id="patch_9">
    <path d="M 215.334 241.614452 
L 228.726 241.614452 
Q 237.096 241.614452 237.096 234.961652 
L 237.096 219.881972 
Q 237.096 213.229172 228.726 213.229172 
L 215.334 213.229172 
Q 206.964 213.229172 206.964 219.881972 
L 206.964 234.961652 
Q 206.964 241.614452 215.334 241.614452 
z
" clip-path="url(#pa4e9c742c7)" style="fill: #455a64; stroke: #555555; stroke-width: 1.5; stroke-linejoin: miter"/>
   </g>
   <g id="patch_10">
    <path d="M 215.334 330.318452 
L 228.726 330.318452 
Q 237.096 330.318452 237.096 323.665652 
L 237.096 308.585972 
Q 237.096 301.933172 228.726 301.933172 
L 215.334 301.933172 
Q 206.964 301.933172 206.964 308.585972 
L 206.964 323.665652 
Q 206.964 330.318452 215.334 330.318452 
z
" clip-path="url(#pa4e9c742c7)" style="fill: #455a64; stroke: #555555; stroke-width: 1.5; stroke-linejoin: miter"/>
   </g>
   <g id="patch_11">
    <path d="M 215.334 285.966452 
L 228.726 285.966452 
Q 237.096 285.966452 237.096 279.313652 
L 237.096 264.233972 
Q 237.096 257.581172 228.726 257.581172 
L 215.334 257.581172 
Q 206.964 257.581172 206.964 264.233972 
L 206.964 279.313652 
Q 206.964 285.966452 215.334 285.966452 
z
" clip-path="url(#pa4e9c742c7)" style="fill: #455a64; stroke: #555555; stroke-width: 1.5; stroke-linejoin: miter"/>
   </g>
   <g id="patch_12">
    <path d="M 293.454 294.836852 
L 318.006 294.836852 
Q 326.376 294.836852 326.376 288.184052 
L 326.376 255.363572 
Q 326.376 248.710772 318.006 248.710772 
L 293.454 248.710772 
Q 285.084 248.710772 285.084 255.363572 
L 285.084 288.184052 
Q 285.084 294.836852 293.454 294.836852 
z
" clip-path="url(#pa4e9c742c7)" style="fill: #c62828; stroke: #555555; stroke-width: 1.5; stroke-linejoin: miter"/>
   </g>
   <g id="patch_13">
    <path d="M 343.674 294.836852 
L 368.226 294.836852 
Q 376.596 294.836852 376.596 288.184052 
L 376.596 255.363572 
Q 376.596 248.710772 368.226 248.710772 
L 343.674 248.710772 
Q 335.304 248.710772 335.304 255.363572 
L 335.304 288.184052 
Q 335.304 294.836852 343.674 294.836852 
z
" clip-path="url(#pa4e9c742c7)" style="fill: #c62828; stroke: #555555; stroke-width: 1.5; stroke-linejoin: miter"/>
   </g>
   <g id="patch_14">
    <path d="M 393.894 294.836852 
L 418.446 294.836852 
Q 426.816 294.836852 426.816 288.184052 
L 426.816 255.363572 
Q 426.816 248.710772 418.446 248.710772 
L 393.894 248.710772 
Q 385.524 248.710772 385.524 255.363572 
L 385.524 288.184052 
Q 385.524 294.836852 393.894 294.836852 
z
" clip-path="url(#pa4e9c742c7)" style="fill: #c62828; stroke: #555555; stroke-width: 1.5; stroke-linejoin: miter"/>
   </g>
   <g id="patch_15">
    <path d="M 444.114 294.836852 
L 468.666 294.836852 
Q 477.036 294.836852 477.036 288.184052 
L 477.036 255.363572 
Q 477.036 248.710772 468.666 248.710772 
L 444.114 248.710772 
Q 435.744 248.710772 435.744 255.363572 
L 435.744 288.184052 
Q 435.744 294.836852 444.114 294.836852 
z
" clip-path="url(#pa4e9c742c7)" style="fill: #c62828; stroke: #555555; stroke-width: 1.5; stroke-linejoin: miter"/>
   </g>
   <g id="patch_16">
    <path d="M 293.454 370.235252 
L 468.666 370.235252 
Q 477.036 370.235252 477.036 363.582452 
L 477.036 348.502772 
Q 477.036 341.849972 468.666 341.849972 
L 293.454 341.849972 
Q 285.084 341.849972 285.084 348.502772 
L 285.084 363.582452 
Q 285.084 370.235252 293.454 370.235252 
z
" clip-path="url(#pa4e9c742c7)" style="fill: #6a1b9a; stroke: #555555; stroke-width: 1.5; stroke-linejoin: miter"/>
   </g>
   <g id="patch_17">
    <path d="M 338.094 436.763252 
L 424.026 436.763252 
Q 432.396 436.763252 432.396 430.110452 
L 432.396 410.595572 
Q 432.396 403.942772 424.026 403.942772 
L 338.094 403.942772 
Q 329.724 403.942772 329.724 410.595572 
L 329.724 430.110452 
Q 329.724 436.763252 338.094 436.763252 
z
" clip-path="url(#pa4e9c742c7)" style="fill: #6a1b9a; stroke: #555555; stroke-width: 1.5; stroke-linejoin: miter"/>
   </g>
   <g id="patch_18">
    <path d="M 321.354 507.726452 
L 440.766 507.726452 
Q 449.136 507.726452 449.136 501.073652 
L 449.136 477.123572 
Q 449.136 470.470772 440.766 470.470772 
L 321.354 470.470772 
Q 312.984 470.470772 312.984 477.123572 
L 312.984 501.073652 
Q 312.984 507.726452 321.354 507.726452 
z
" clip-path="url(#pa4e9c742c7)" style="fill: #2e7d32; stroke: #555555; stroke-width: 1.5; stroke-linejoin: miter"/>
   </g>
   <g id="text_1">
    <!-- Input -->
    <g style="fill: #eaeaea" transform="translate(52.337109 274.25725) scale(0.09 -0.09)">
     <defs>
      <path id="DejaVuSans-Bold-49" d="M 588 4666 
L 1791 4666 
L 1791 0 
L 588 0 
L 588 4666 
z
" transform="scale(0.015625)"/>
      <path id="DejaVuSans-Bold-6e" d="M 4056 2131 
L 4056 0 
L 2931 0 
L 2931 347 
L 2931 1631 
Q 2931 2084 2911 2256 
Q 2891 2428 2841 2509 
Q 2775 2619 2662 2680 
Q 2550 2741 2406 2741 
Q 2056 2741 1856 2470 
Q 1656 2200 1656 1722 
L 1656 0 
L 538 0 
L 538 3500 
L 1656 3500 
L 1656 2988 
Q 1909 3294 2193 3439 
Q 2478 3584 2822 3584 
Q 3428 3584 3742 3212 
Q 4056 2841 4056 2131 
z
" transform="scale(0.015625)"/>
      <path id="DejaVuSans-Bold-70" d="M 1656 506 
L 1656 -1331 
L 538 -1331 
L 538 3500 
L 1656 3500 
L 1656 2988 
Q 1888 3294 2169 3439 
Q 2450 3584 2816 3584 
Q 3463 3584 3878 3070 
Q 4294 2556 4294 1747 
Q 4294 938 3878 423 
Q 3463 -91 2816 -91 
Q 2450 -91 2169 54 
Q 1888 200 1656 506 
z
M 2400 2772 
Q 2041 2772 1848 2508 
Q 1656 2244 1656 1747 
Q 1656 1250 1848 986 
Q 2041 722 2400 722 
Q 2759 722 2948 984 
Q 3138 1247 3138 1747 
Q 3138 2247 2948 2509 
Q 2759 2772 2400 2772 
z
" transform="scale(0.015625)"/>
      <path id="DejaVuSans-Bold-75" d="M 500 1363 
L 500 3500 
L 1625 3500 
L 1625 3150 
Q 1625 2866 1622 2436 
Q 1619 2006 1619 1863 
Q 1619 1441 1641 1255 
Q 1663 1069 1716 984 
Q 1784 875 1895 815 
Q 2006 756 2150 756 
Q 2500 756 2700 1025 
Q 2900 1294 2900 1772 
L 2900 3500 
L 4019 3500 
L 4019 0 
L 2900 0 
L 2900 506 
Q 2647 200 2364 54 
Q 2081 -91 1741 -91 
Q 1134 -91 817 281 
Q 500 653 500 1363 
z
" transform="scale(0.015625)"/>
      <path id="DejaVuSans-Bold-74" d="M 1759 4494 
L 1759 3500 
L 2913 3500 
L 2913 2700 
L 1759 2700 
L 1759 1216 
Q 1759 972 1856 886 
Q 1953 800 2241 800 
L 2816 800 
L 2816 0 
L 1856 0 
Q 1194 0 917 276 
Q 641 553 641 1216 
L 641 2700 
L 84 2700 
L 84 3500 
L 641 3500 
L 641 4494 
L 1759 4494 
z
" transform="scale(0.015625)"/>
     </defs>
     <use xlink:href="#DejaVuSans-Bold-49"/>
     <use xlink:href="#DejaVuSans-Bold-6e" transform="translate(37.207031 0)"/>
     <use xlink:href="#DejaVuSans-Bold-70" transform="translate(108.398438 0)"/>
     <use xlink:href="#DejaVuSans-Bold-75" transform="translate(179.980469 0)"/>
     <use xlink:href="#DejaVuSans-Bold-74" transform="translate(251.171875 0)"/>
    </g>
   </g>
   <g id="text_2">
    <!-- W^Q -->
    <g style="fill: #eaeaea" transform="translate(132.745625 229.629312) scale(0.08 -0.08)">
     <defs>
      <path id="DejaVuSans-Bold-57" d="M 191 4666 
L 1344 4666 
L 2150 1275 
L 2950 4666 
L 4109 4666 
L 4909 1275 
L 5716 4666 
L 6859 4666 
L 5759 0 
L 4372 0 
L 3525 3547 
L 2688 0 
L 1300 0 
L 191 4666 
z
" transform="scale(0.015625)"/>
      <path id="DejaVuSans-Bold-5e" d="M 3066 4666 
L 4716 2925 
L 3963 2925 
L 2681 3866 
L 1403 2925 
L 647 2925 
L 2297 4666 
L 3066 4666 
z
" transform="scale(0.015625)"/>
      <path id="DejaVuSans-Bold-51" d="M 2847 -84 
L 2753 -84 
Q 1600 -84 959 553 
Q 319 1191 319 2328 
Q 319 3463 958 4106 
Q 1597 4750 2719 4750 
Q 3853 4750 4486 4112 
Q 5119 3475 5119 2328 
Q 5119 1541 4783 972 
Q 4447 403 3816 116 
L 4756 -934 
L 3609 -934 
L 2847 -84 
z
M 2719 3878 
Q 2169 3878 1866 3472 
Q 1563 3066 1563 2328 
Q 1563 1578 1859 1179 
Q 2156 781 2719 781 
Q 3272 781 3575 1187 
Q 3878 1594 3878 2328 
Q 3878 3066 3575 3472 
Q 3272 3878 2719 3878 
z
" transform="scale(0.015625)"/>
     </defs>
     <use xlink:href="#DejaVuSans-Bold-57"/>
     <use xlink:href="#DejaVuSans-Bold-5e" transform="translate(110.302734 0)"/>
     <use xlink:href="#DejaVuSans-Bold-51" transform="translate(194.091797 0)"/>
    </g>
   </g>
   <g id="text_3">
    <!-- W^Q -->
    <g style="fill: #eaeaea" transform="translate(132.745625 318.333312) scale(0.08 -0.08)">
     <use xlink:href="#DejaVuSans-Bold-57"/>
     <use xlink:href="#DejaVuSans-Bold-5e" transform="translate(110.302734 0)"/>
     <use xlink:href="#DejaVuSans-Bold-51" transform="translate(194.091797 0)"/>
    </g>
   </g>
   <g id="text_4">
    <!-- W^Q -->
    <g style="fill: #eaeaea" transform="translate(132.745625 273.981312) scale(0.08 -0.08)">
     <use xlink:href="#DejaVuSans-Bold-57"/>
     <use xlink:href="#DejaVuSans-Bold-5e" transform="translate(110.302734 0)"/>
     <use xlink:href="#DejaVuSans-Bold-51" transform="translate(194.091797 0)"/>
    </g>
   </g>
   <g id="patch_19">
    <path d="M 109.160843 270.472001 
Q 125.775072 256.250551 141.115256 243.119657 
" style="fill: none; stroke: #00d4aa; stroke-width: 1.5; stroke-linecap: round"/>
    <path d="M 136.775921 244.2014 
L 141.115256 243.119657 
L 139.377049 247.240171 
" style="fill: none; stroke: #00d4aa; stroke-width: 1.5; stroke-linecap: round"/>
   </g>
   <g id="patch_20">
    <path d="M 109.636798 271.773812 
Q 125.771393 271.773812 140.228937 271.773812 
" style="fill: none; stroke: #00d4aa; stroke-width: 1.5; stroke-linecap: round"/>
    <path d="M 136.228937 269.773812 
L 140.228937 271.773812 
L 136.228937 273.773812 
" style="fill: none; stroke: #00d4aa; stroke-width: 1.5; stroke-linecap: round"/>
   </g>
   <g id="patch_21">
    <path d="M 108.904048 273.319527 
Q 125.773524 293.948008 141.581343 313.278264 
" style="fill: none; stroke: #00d4aa; stroke-width: 1.5; stroke-linecap: round"/>
    <path d="M 140.597368 308.91572 
L 141.581343 313.278264 
L 137.500923 311.447918 
" style="fill: none; stroke: #00d4aa; stroke-width: 1.5; stroke-linecap: round"/>
   </g>
   <g id="text_5">
    <!-- W^K -->
    <g style="fill: #eaeaea" transform="translate(172.106875 229.629312) scale(0.08 -0.08)">
     <defs>
      <path id="DejaVuSans-Bold-4b" d="M 588 4666 
L 1791 4666 
L 1791 2963 
L 3525 4666 
L 4922 4666 
L 2675 2456 
L 5153 0 
L 3647 0 
L 1791 1838 
L 1791 0 
L 588 0 
L 588 4666 
z
" transform="scale(0.015625)"/>
     </defs>
     <use xlink:href="#DejaVuSans-Bold-57"/>
     <use xlink:href="#DejaVuSans-Bold-5e" transform="translate(110.302734 0)"/>
     <use xlink:href="#DejaVuSans-Bold-4b" transform="translate(194.091797 0)"/>
    </g>
   </g>
   <g id="text_6">
    <!-- W^K -->
    <g style="fill: #eaeaea" transform="translate(172.106875 318.333312) scale(0.08 -0.08)">
     <use xlink:href="#DejaVuSans-Bold-57"/>
     <use xlink:href="#DejaVuSans-Bold-5e" transform="translate(110.302734 0)"/>
     <use xlink:href="#DejaVuSans-Bold-4b" transform="translate(194.091797 0)"/>
    </g>
   </g>
   <g id="text_7">
    <!-- W^K -->
    <g style="fill: #eaeaea" transform="translate(172.106875 273.981312) scale(0.08 -0.08)">
     <use xlink:href="#DejaVuSans-Bold-57"/>
     <use xlink:href="#DejaVuSans-Bold-5e" transform="translate(110.302734 0)"/>
     <use xlink:href="#DejaVuSans-Bold-4b" transform="translate(194.091797 0)"/>
    </g>
   </g>
   <g id="patch_22">
    <path d="M 109.492905 271.010159 
Q 145.305365 256.250462 179.567297 242.129798 
" style="fill: none; stroke: #00d4aa; stroke-width: 1.5; stroke-linecap: round"/>
    <path d="M 175.10698 241.804867 
L 179.567297 242.129798 
L 176.631162 245.503092 
" style="fill: none; stroke: #00d4aa; stroke-width: 1.5; stroke-linecap: round"/>
   </g>
   <g id="patch_23">
    <path d="M 109.640034 271.773812 
Q 145.304697 271.773812 179.292308 271.773812 
" style="fill: none; stroke: #00d4aa; stroke-width: 1.5; stroke-linecap: round"/>
    <path d="M 175.292308 269.773812 
L 179.292308 271.773812 
L 175.292308 273.773812 
" style="fill: none; stroke: #00d4aa; stroke-width: 1.5; stroke-linecap: round"/>
   </g>
   <g id="patch_24">
    <path d="M 109.361868 272.787596 
Q 145.304462 293.949496 179.801886 314.260524 
" style="fill: none; stroke: #00d4aa; stroke-width: 1.5; stroke-linecap: round"/>
    <path d="M 177.369678 310.507609 
L 179.801886 314.260524 
L 175.340229 313.954541 
" style="fill: none; stroke: #00d4aa; stroke-width: 1.5; stroke-linecap: round"/>
   </g>
   <g id="text_8">
    <!-- W^V -->
    <g style="fill: #eaeaea" transform="translate(211.170625 229.629312) scale(0.08 -0.08)">
     <defs>
      <path id="DejaVuSans-Bold-56" d="M 31 4666 
L 1241 4666 
L 2478 1222 
L 3713 4666 
L 4922 4666 
L 3194 0 
L 1759 0 
L 31 4666 
z
" transform="scale(0.015625)"/>
     </defs>
     <use xlink:href="#DejaVuSans-Bold-57"/>
     <use xlink:href="#DejaVuSans-Bold-5e" transform="translate(110.302734 0)"/>
     <use xlink:href="#DejaVuSans-Bold-56" transform="translate(194.091797 0)"/>
    </g>
   </g>
   <g id="text_9">
    <!-- W^V -->
    <g style="fill: #eaeaea" transform="translate(211.170625 318.333312) scale(0.08 -0.08)">
     <use xlink:href="#DejaVuSans-Bold-57"/>
     <use xlink:href="#DejaVuSans-Bold-5e" transform="translate(110.302734 0)"/>
     <use xlink:href="#DejaVuSans-Bold-56" transform="translate(194.091797 0)"/>
    </g>
   </g>
   <g id="text_10">
    <!-- W^V -->
    <g style="fill: #eaeaea" transform="translate(211.170625 273.981312) scale(0.08 -0.08)">
     <use xlink:href="#DejaVuSans-Bold-57"/>
     <use xlink:href="#DejaVuSans-Bold-5e" transform="translate(110.302734 0)"/>
     <use xlink:href="#DejaVuSans-Bold-56" transform="translate(194.091797 0)"/>
    </g>
   </g>
   <g id="patch_25">
    <path d="M 109.570471 271.249867 
Q 164.83413 256.250849 218.479289 241.691105 
" style="fill: none; stroke: #00d4aa; stroke-width: 1.5; stroke-linecap: round"/>
    <path d="M 214.09508 240.808662 
L 218.479289 241.691105 
L 215.14281 244.669007 
" style="fill: none; stroke: #00d4aa; stroke-width: 1.5; stroke-linecap: round"/>
   </g>
   <g id="patch_26">
    <path d="M 109.640289 271.773812 
Q 164.83534 271.773812 218.35334 271.773812 
" style="fill: none; stroke: #00d4aa; stroke-width: 1.5; stroke-linecap: round"/>
    <path d="M 214.35334 269.773812 
L 218.35334 271.773812 
L 214.35334 273.773812 
" style="fill: none; stroke: #00d4aa; stroke-width: 1.5; stroke-linecap: round"/>
   </g>
   <g id="patch_27">
    <path d="M 109.507635 272.497943 
Q 164.836511 293.950398 218.601754 314.796592 
" style="fill: none; stroke: #00d4aa; stroke-width: 1.5; stroke-linecap: round"/>
    <path d="M 215.595281 311.485833 
L 218.601754 314.796592 
L 214.149264 315.215315 
" style="fill: none; stroke: #00d4aa; stroke-width: 1.5; stroke-linecap: round"/>
   </g>
   <g id="text_11">
    <!-- h1 -->
    <g style="fill: #eaeaea" transform="translate(299.395547 274.25725) scale(0.09 -0.09)">
     <defs>
      <path id="DejaVuSans-Bold-68" d="M 4056 2131 
L 4056 0 
L 2931 0 
L 2931 347 
L 2931 1625 
Q 2931 2084 2911 2256 
Q 2891 2428 2841 2509 
Q 2775 2619 2662 2680 
Q 2550 2741 2406 2741 
Q 2056 2741 1856 2470 
Q 1656 2200 1656 1722 
L 1656 0 
L 538 0 
L 538 4863 
L 1656 4863 
L 1656 2988 
Q 1909 3294 2193 3439 
Q 2478 3584 2822 3584 
Q 3428 3584 3742 3212 
Q 4056 2841 4056 2131 
z
" transform="scale(0.015625)"/>
      <path id="DejaVuSans-Bold-31" d="M 750 831 
L 1813 831 
L 1813 3847 
L 722 3622 
L 722 4441 
L 1806 4666 
L 2950 4666 
L 2950 831 
L 4013 831 
L 4013 0 
L 750 0 
L 750 831 
z
" transform="scale(0.015625)"/>
     </defs>
     <use xlink:href="#DejaVuSans-Bold-68"/>
     <use xlink:href="#DejaVuSans-Bold-31" transform="translate(71.191406 0)"/>
    </g>
   </g>
   <g id="patch_28">
    <path d="M 260.265635 249.965427 
Q 282.014107 254.032845 302.114109 257.791965 
" style="fill: none; stroke: #00d4aa; stroke-width: 1.5; stroke-linecap: round"/>
    <path d="M 298.549946 255.090716 
L 302.114109 257.791965 
L 297.814612 259.022546 
" style="fill: none; stroke: #00d4aa; stroke-width: 1.5; stroke-linecap: round"/>
   </g>
   <g id="patch_29">
    <path d="M 260.300374 271.773812 
Q 282.015591 271.773812 302.053757 271.773812 
" style="fill: none; stroke: #00d4aa; stroke-width: 1.5; stroke-linecap: round"/>
    <path d="M 298.053757 269.773812 
L 302.053757 271.773812 
L 298.053757 273.773812 
" style="fill: none; stroke: #00d4aa; stroke-width: 1.5; stroke-linecap: round"/>
   </g>
   <g id="patch_30">
    <path d="M 260.265635 293.582198 
Q 282.014107 289.51478 302.114109 285.75566 
" style="fill: none; stroke: #00d4aa; stroke-width: 1.5; stroke-linecap: round"/>
    <path d="M 297.814612 284.525079 
L 302.114109 285.75566 
L 298.549946 288.456909 
" style="fill: none; stroke: #00d4aa; stroke-width: 1.5; stroke-linecap: round"/>
   </g>
   <g id="text_12">
    <!-- h2 -->
    <g style="fill: #eaeaea" transform="translate(349.615547 274.25725) scale(0.09 -0.09)">
     <defs>
      <path id="DejaVuSans-Bold-32" d="M 1844 884 
L 3897 884 
L 3897 0 
L 506 0 
L 506 884 
L 2209 2388 
Q 2438 2594 2547 2791 
Q 2656 2988 2656 3200 
Q 2656 3528 2436 3728 
Q 2216 3928 1850 3928 
Q 1569 3928 1234 3808 
Q 900 3688 519 3450 
L 519 4475 
Q 925 4609 1322 4679 
Q 1719 4750 2100 4750 
Q 2938 4750 3402 4381 
Q 3866 4013 3866 3353 
Q 3866 2972 3669 2642 
Q 3472 2313 2841 1759 
L 1844 884 
z
" transform="scale(0.015625)"/>
     </defs>
     <use xlink:href="#DejaVuSans-Bold-68"/>
     <use xlink:href="#DejaVuSans-Bold-32" transform="translate(71.191406 0)"/>
    </g>
   </g>
   <g id="patch_31">
    <path d="M 260.293648 249.778913 
Q 307.124917 254.033005 352.286012 258.135381 
" style="fill: none; stroke: #00d4aa; stroke-width: 1.5; stroke-linecap: round"/>
    <path d="M 348.483346 255.781717 
L 352.286012 258.135381 
L 348.121481 259.765315 
" style="fill: none; stroke: #00d4aa; stroke-width: 1.5; stroke-linecap: round"/>
   </g>
   <g id="patch_32">
    <path d="M 260.299608 271.773812 
Q 307.12504 271.773812 352.273421 271.773812 
" style="fill: none; stroke: #00d4aa; stroke-width: 1.5; stroke-linecap: round"/>
    <path d="M 348.273421 269.773812 
L 352.273421 271.773812 
L 348.273421 273.773812 
" style="fill: none; stroke: #00d4aa; stroke-width: 1.5; stroke-linecap: round"/>
   </g>
   <g id="patch_33">
    <path d="M 260.293648 293.768712 
Q 307.124917 289.51462 352.286012 285.412244 
" style="fill: none; stroke: #00d4aa; stroke-width: 1.5; stroke-linecap: round"/>
    <path d="M 348.121481 283.78231 
L 352.286012 285.412244 
L 348.483346 287.765908 
" style="fill: none; stroke: #00d4aa; stroke-width: 1.5; stroke-linecap: round"/>
   </g>
   <g id="text_13">
    <!-- h3 -->
    <g style="fill: #eaeaea" transform="translate(399.835547 274.25725) scale(0.09 -0.09)">
     <defs>
      <path id="DejaVuSans-Bold-33" d="M 2981 2516 
Q 3453 2394 3698 2092 
Q 3944 1791 3944 1325 
Q 3944 631 3412 270 
Q 2881 -91 1863 -91 
Q 1503 -91 1142 -33 
Q 781 25 428 141 
L 428 1069 
Q 766 900 1098 814 
Q 1431 728 1753 728 
Q 2231 728 2486 893 
Q 2741 1059 2741 1369 
Q 2741 1688 2480 1852 
Q 2219 2016 1709 2016 
L 1228 2016 
L 1228 2791 
L 1734 2791 
Q 2188 2791 2409 2933 
Q 2631 3075 2631 3366 
Q 2631 3634 2415 3781 
Q 2200 3928 1806 3928 
Q 1516 3928 1219 3862 
Q 922 3797 628 3669 
L 628 4550 
Q 984 4650 1334 4700 
Q 1684 4750 2022 4750 
Q 2931 4750 3382 4451 
Q 3834 4153 3834 3553 
Q 3834 3144 3618 2883 
Q 3403 2622 2981 2516 
z
" transform="scale(0.015625)"/>
     </defs>
     <use xlink:href="#DejaVuSans-Bold-68"/>
     <use xlink:href="#DejaVuSans-Bold-33" transform="translate(71.191406 0)"/>
    </g>
   </g>
   <g id="patch_34">
    <path d="M 260.299097 249.717734 
Q 332.235158 254.033022 402.497178 258.247888 
" style="fill: none; stroke: #00d4aa; stroke-width: 1.5; stroke-linecap: round"/>
    <path d="M 398.624116 256.011956 
L 402.497178 258.247888 
L 398.384595 260.004778 
" style="fill: none; stroke: #00d4aa; stroke-width: 1.5; stroke-linecap: round"/>
   </g>
   <g id="patch_35">
    <path d="M 260.299097 271.773812 
Q 332.235158 271.773812 402.494169 271.773812 
" style="fill: none; stroke: #00d4aa; stroke-width: 1.5; stroke-linecap: round"/>
    <path d="M 398.494169 269.773812 
L 402.494169 271.773812 
L 398.494169 273.773812 
" style="fill: none; stroke: #00d4aa; stroke-width: 1.5; stroke-linecap: round"/>
   </g>
   <g id="patch_36">
    <path d="M 260.299097 293.829891 
Q 332.235158 289.514603 402.497178 285.299737 
" style="fill: none; stroke: #00d4aa; stroke-width: 1.5; stroke-linecap: round"/>
    <path d="M 398.384595 283.542847 
L 402.497178 285.299737 
L 398.624116 287.535669 
" style="fill: none; stroke: #00d4aa; stroke-width: 1.5; stroke-linecap: round"/>
   </g>
   <g id="text_14">
    <!-- h4 -->
    <g style="fill: #eaeaea" transform="translate(450.055547 274.25725) scale(0.09 -0.09)">
     <defs>
      <path id="DejaVuSans-Bold-34" d="M 2356 3675 
L 1038 1722 
L 2356 1722 
L 2356 3675 
z
M 2156 4666 
L 3494 4666 
L 3494 1722 
L 4159 1722 
L 4159 850 
L 3494 850 
L 3494 0 
L 2356 0 
L 2356 850 
L 288 850 
L 288 1881 
L 2156 4666 
z
" transform="scale(0.015625)"/>
     </defs>
     <use xlink:href="#DejaVuSans-Bold-68"/>
     <use xlink:href="#DejaVuSans-Bold-34" transform="translate(71.191406 0)"/>
    </g>
   </g>
   <g id="patch_37">
    <path d="M 260.297948 249.68728 
Q 357.346099 254.033062 452.718879 258.303821 
" style="fill: none; stroke: #00d4aa; stroke-width: 1.5; stroke-linecap: round"/>
    <path d="M 448.812353 256.126884 
L 452.718879 258.303821 
L 448.633414 260.12288 
" style="fill: none; stroke: #00d4aa; stroke-width: 1.5; stroke-linecap: round"/>
   </g>
   <g id="patch_38">
    <path d="M 260.297948 271.773812 
Q 357.343107 271.773812 452.711216 271.773812 
" style="fill: none; stroke: #00d4aa; stroke-width: 1.5; stroke-linecap: round"/>
    <path d="M 448.711216 269.773812 
L 452.711216 271.773812 
L 448.711216 273.773812 
" style="fill: none; stroke: #00d4aa; stroke-width: 1.5; stroke-linecap: round"/>
   </g>
   <g id="patch_39">
    <path d="M 260.297948 293.860345 
Q 357.346099 289.514563 452.718879 285.243804 
" style="fill: none; stroke: #00d4aa; stroke-width: 1.5; stroke-linecap: round"/>
    <path d="M 448.633414 283.424745 
L 452.718879 285.243804 
L 448.812353 287.420741 
" style="fill: none; stroke: #00d4aa; stroke-width: 1.5; stroke-linecap: round"/>
   </g>
   <g id="text_15">
    <!-- Concat -->
    <g style="fill: #eaeaea" transform="translate(363.607031 358.52605) scale(0.09 -0.09)">
     <defs>
      <path id="DejaVuSans-Bold-43" d="M 4288 256 
Q 3956 84 3597 -3 
Q 3238 -91 2847 -91 
Q 1681 -91 1000 561 
Q 319 1213 319 2328 
Q 319 3447 1000 4098 
Q 1681 4750 2847 4750 
Q 3238 4750 3597 4662 
Q 3956 4575 4288 4403 
L 4288 3438 
Q 3953 3666 3628 3772 
Q 3303 3878 2944 3878 
Q 2300 3878 1931 3465 
Q 1563 3053 1563 2328 
Q 1563 1606 1931 1193 
Q 2300 781 2944 781 
Q 3303 781 3628 887 
Q 3953 994 4288 1222 
L 4288 256 
z
" transform="scale(0.015625)"/>
      <path id="DejaVuSans-Bold-6f" d="M 2203 2784 
Q 1831 2784 1636 2517 
Q 1441 2250 1441 1747 
Q 1441 1244 1636 976 
Q 1831 709 2203 709 
Q 2569 709 2762 976 
Q 2956 1244 2956 1747 
Q 2956 2250 2762 2517 
Q 2569 2784 2203 2784 
z
M 2203 3584 
Q 3106 3584 3614 3096 
Q 4122 2609 4122 1747 
Q 4122 884 3614 396 
Q 3106 -91 2203 -91 
Q 1297 -91 786 396 
Q 275 884 275 1747 
Q 275 2609 786 3096 
Q 1297 3584 2203 3584 
z
" transform="scale(0.015625)"/>
      <path id="DejaVuSans-Bold-63" d="M 3366 3391 
L 3366 2478 
Q 3138 2634 2908 2709 
Q 2678 2784 2431 2784 
Q 1963 2784 1702 2511 
Q 1441 2238 1441 1747 
Q 1441 1256 1702 982 
Q 1963 709 2431 709 
Q 2694 709 2930 787 
Q 3166 866 3366 1019 
L 3366 103 
Q 3103 6 2833 -42 
Q 2563 -91 2291 -91 
Q 1344 -91 809 395 
Q 275 881 275 1747 
Q 275 2613 809 3098 
Q 1344 3584 2291 3584 
Q 2566 3584 2833 3536 
Q 3100 3488 3366 3391 
z
" transform="scale(0.015625)"/>
      <path id="DejaVuSans-Bold-61" d="M 2106 1575 
Q 1756 1575 1579 1456 
Q 1403 1338 1403 1106 
Q 1403 894 1545 773 
Q 1688 653 1941 653 
Q 2256 653 2472 879 
Q 2688 1106 2688 1447 
L 2688 1575 
L 2106 1575 
z
M 3816 1997 
L 3816 0 
L 2688 0 
L 2688 519 
Q 2463 200 2181 54 
Q 1900 -91 1497 -91 
Q 953 -91 614 226 
Q 275 544 275 1050 
Q 275 1666 698 1953 
Q 1122 2241 2028 2241 
L 2688 2241 
L 2688 2328 
Q 2688 2594 2478 2717 
Q 2269 2841 1825 2841 
Q 1466 2841 1156 2769 
Q 847 2697 581 2553 
L 581 3406 
Q 941 3494 1303 3539 
Q 1666 3584 2028 3584 
Q 2975 3584 3395 3211 
Q 3816 2838 3816 1997 
z
" transform="scale(0.015625)"/>
     </defs>
     <use xlink:href="#DejaVuSans-Bold-43"/>
     <use xlink:href="#DejaVuSans-Bold-6f" transform="translate(73.388672 0)"/>
     <use xlink:href="#DejaVuSans-Bold-6e" transform="translate(142.089844 0)"/>
     <use xlink:href="#DejaVuSans-Bold-63" transform="translate(213.28125 0)"/>
     <use xlink:href="#DejaVuSans-Bold-61" transform="translate(272.558594 0)"/>
     <use xlink:href="#DejaVuSans-Bold-74" transform="translate(340.039062 0)"/>
    </g>
   </g>
   <g id="patch_40">
    <path d="M 305.73 295.947872 
Q 305.73 318.341491 305.73 339.058058 
" style="fill: none; stroke: #00d4aa; stroke-width: 1.5; stroke-linecap: round"/>
    <path d="M 307.73 335.058058 
L 305.73 339.058058 
L 303.73 335.058058 
" style="fill: none; stroke: #00d4aa; stroke-width: 1.5; stroke-linecap: round"/>
   </g>
   <g id="patch_41">
    <path d="M 355.95 295.947872 
Q 355.95 318.341491 355.95 339.058058 
" style="fill: none; stroke: #00d4aa; stroke-width: 1.5; stroke-linecap: round"/>
    <path d="M 357.95 335.058058 
L 355.95 339.058058 
L 353.95 335.058058 
" style="fill: none; stroke: #00d4aa; stroke-width: 1.5; stroke-linecap: round"/>
   </g>
   <g id="patch_42">
    <path d="M 406.17 295.947872 
Q 406.17 318.341491 406.17 339.058058 
" style="fill: none; stroke: #00d4aa; stroke-width: 1.5; stroke-linecap: round"/>
    <path d="M 408.17 335.058058 
L 406.17 339.058058 
L 404.17 335.058058 
" style="fill: none; stroke: #00d4aa; stroke-width: 1.5; stroke-linecap: round"/>
   </g>
   <g id="patch_43">
    <path d="M 456.39 295.947872 
Q 456.39 318.341491 456.39 339.058058 
" style="fill: none; stroke: #00d4aa; stroke-width: 1.5; stroke-linecap: round"/>
    <path d="M 458.39 335.058058 
L 456.39 339.058058 
L 454.39 335.058058 
" style="fill: none; stroke: #00d4aa; stroke-width: 1.5; stroke-linecap: round"/>
   </g>
   <g id="patch_44">
    <path d="M 381.06 371.34546 
Q 381.06 384.86828 381.06 396.714049 
" style="fill: none; stroke: #00d4aa; stroke-width: 1.5; stroke-linecap: round"/>
    <path d="M 383.06 392.714049 
L 381.06 396.714049 
L 379.06 392.714049 
" style="fill: none; stroke: #00d4aa; stroke-width: 1.5; stroke-linecap: round"/>
   </g>
   <g id="text_16">
    <!-- W^O -->
    <g style="fill: #eaeaea" transform="translate(368.500078 422.83645) scale(0.09 -0.09)">
     <defs>
      <path id="DejaVuSans-Bold-4f" d="M 2719 3878 
Q 2169 3878 1866 3472 
Q 1563 3066 1563 2328 
Q 1563 1594 1866 1187 
Q 2169 781 2719 781 
Q 3272 781 3575 1187 
Q 3878 1594 3878 2328 
Q 3878 3066 3575 3472 
Q 3272 3878 2719 3878 
z
M 2719 4750 
Q 3844 4750 4481 4106 
Q 5119 3463 5119 2328 
Q 5119 1197 4481 553 
Q 3844 -91 2719 -91 
Q 1597 -91 958 553 
Q 319 1197 319 2328 
Q 319 3463 958 4106 
Q 1597 4750 2719 4750 
z
" transform="scale(0.015625)"/>
     </defs>
     <use xlink:href="#DejaVuSans-Bold-57"/>
     <use xlink:href="#DejaVuSans-Bold-5e" transform="translate(110.302734 0)"/>
     <use xlink:href="#DejaVuSans-Bold-4f" transform="translate(194.091797 0)"/>
    </g>
   </g>
   <g id="patch_45">
    <path d="M 381.06 437.874002 
Q 381.06 449.181689 381.06 458.812325 
" style="fill: none; stroke: #00d4aa; stroke-width: 1.5; stroke-linecap: round"/>
    <path d="M 383.06 454.812325 
L 381.06 458.812325 
L 379.06 454.812325 
" style="fill: none; stroke: #00d4aa; stroke-width: 1.5; stroke-linecap: round"/>
   </g>
   <g id="text_17">
    <!-- Output -->
    <g style="fill: #eaeaea" transform="translate(363.304688 491.58205) scale(0.09 -0.09)">
     <use xlink:href="#DejaVuSans-Bold-4f"/>
     <use xlink:href="#DejaVuSans-Bold-75" transform="translate(85.009766 0)"/>
     <use xlink:href="#DejaVuSans-Bold-74" transform="translate(156.201172 0)"/>
     <use xlink:href="#DejaVuSans-Bold-70" transform="translate(204.003906 0)"/>
     <use xlink:href="#DejaVuSans-Bold-75" transform="translate(275.585938 0)"/>
     <use xlink:href="#DejaVuSans-Bold-74" transform="translate(346.777344 0)"/>
    </g>
   </g>
   <g id="text_18">
    <!-- Multi-Head Attention -->
    <g style="fill: #00d4aa" transform="translate(203.045469 17.837812) scale(0.14 -0.14)">
     <defs>
      <path id="DejaVuSans-Bold-4d" d="M 588 4666 
L 2119 4666 
L 3181 2169 
L 4250 4666 
L 5778 4666 
L 5778 0 
L 4641 0 
L 4641 3413 
L 3566 897 
L 2803 897 
L 1728 3413 
L 1728 0 
L 588 0 
L 588 4666 
z
" transform="scale(0.015625)"/>
      <path id="DejaVuSans-Bold-6c" d="M 538 4863 
L 1656 4863 
L 1656 0 
L 538 0 
L 538 4863 
z
" transform="scale(0.015625)"/>
      <path id="DejaVuSans-Bold-69" d="M 538 3500 
L 1656 3500 
L 1656 0 
L 538 0 
L 538 3500 
z
M 538 4863 
L 1656 4863 
L 1656 3950 
L 538 3950 
L 538 4863 
z
" transform="scale(0.015625)"/>
      <path id="DejaVuSans-Bold-2d" d="M 347 2297 
L 2309 2297 
L 2309 1388 
L 347 1388 
L 347 2297 
z
" transform="scale(0.015625)"/>
      <path id="DejaVuSans-Bold-48" d="M 588 4666 
L 1791 4666 
L 1791 2888 
L 3566 2888 
L 3566 4666 
L 4769 4666 
L 4769 0 
L 3566 0 
L 3566 1978 
L 1791 1978 
L 1791 0 
L 588 0 
L 588 4666 
z
" transform="scale(0.015625)"/>
      <path id="DejaVuSans-Bold-65" d="M 4031 1759 
L 4031 1441 
L 1416 1441 
Q 1456 1047 1700 850 
Q 1944 653 2381 653 
Q 2734 653 3104 758 
Q 3475 863 3866 1075 
L 3866 213 
Q 3469 63 3072 -14 
Q 2675 -91 2278 -91 
Q 1328 -91 801 392 
Q 275 875 275 1747 
Q 275 2603 792 3093 
Q 1309 3584 2216 3584 
Q 3041 3584 3536 3087 
Q 4031 2591 4031 1759 
z
M 2881 2131 
Q 2881 2450 2695 2645 
Q 2509 2841 2209 2841 
Q 1884 2841 1681 2658 
Q 1478 2475 1428 2131 
L 2881 2131 
z
" transform="scale(0.015625)"/>
      <path id="DejaVuSans-Bold-64" d="M 2919 2988 
L 2919 4863 
L 4044 4863 
L 4044 0 
L 2919 0 
L 2919 506 
Q 2688 197 2409 53 
Q 2131 -91 1766 -91 
Q 1119 -91 703 423 
Q 288 938 288 1747 
Q 288 2556 703 3070 
Q 1119 3584 1766 3584 
Q 2128 3584 2408 3439 
Q 2688 3294 2919 2988 
z
M 2181 722 
Q 2541 722 2730 984 
Q 2919 1247 2919 1747 
Q 2919 2247 2730 2509 
Q 2541 2772 2181 2772 
Q 1825 2772 1636 2509 
Q 1447 2247 1447 1747 
Q 1447 1247 1636 984 
Q 1825 722 2181 722 
z
" transform="scale(0.015625)"/>
      <path id="DejaVuSans-Bold-20" transform="scale(0.015625)"/>
      <path id="DejaVuSans-Bold-41" d="M 3419 850 
L 1538 850 
L 1241 0 
L 31 0 
L 1759 4666 
L 3194 4666 
L 4922 0 
L 3713 0 
L 3419 850 
z
M 1838 1716 
L 3116 1716 
L 2478 3572 
L 1838 1716 
z
" transform="scale(0.015625)"/>
     </defs>
     <use xlink:href="#DejaVuSans-Bold-4d"/>
     <use xlink:href="#DejaVuSans-Bold-75" transform="translate(99.511719 0)"/>
     <use xlink:href="#DejaVuSans-Bold-6c" transform="translate(170.703125 0)"/>
     <use xlink:href="#DejaVuSans-Bold-74" transform="translate(204.980469 0)"/>
     <use xlink:href="#DejaVuSans-Bold-69" transform="translate(252.783203 0)"/>
     <use xlink:href="#DejaVuSans-Bold-2d" transform="translate(287.060547 0)"/>
     <use xlink:href="#DejaVuSans-Bold-48" transform="translate(328.564453 0)"/>
     <use xlink:href="#DejaVuSans-Bold-65" transform="translate(412.255859 0)"/>
     <use xlink:href="#DejaVuSans-Bold-61" transform="translate(480.078125 0)"/>
     <use xlink:href="#DejaVuSans-Bold-64" transform="translate(547.558594 0)"/>
     <use xlink:href="#DejaVuSans-Bold-20" transform="translate(619.140625 0)"/>
     <use xlink:href="#DejaVuSans-Bold-41" transform="translate(653.955078 0)"/>
     <use xlink:href="#DejaVuSans-Bold-74" transform="translate(731.347656 0)"/>
     <use xlink:href="#DejaVuSans-Bold-74" transform="translate(779.150391 0)"/>
     <use xlink:href="#DejaVuSans-Bold-65" transform="translate(826.953125 0)"/>
     <use xlink:href="#DejaVuSans-Bold-6e" transform="translate(894.775391 0)"/>
     <use xlink:href="#DejaVuSans-Bold-74" transform="translate(965.966797 0)"/>
     <use xlink:href="#DejaVuSans-Bold-69" transform="translate(1013.769531 0)"/>
     <use xlink:href="#DejaVuSans-Bold-6f" transform="translate(1048.046875 0)"/>
     <use xlink:href="#DejaVuSans-Bold-6e" transform="translate(1116.748047 0)"/>
    </g>
   </g>
  </g>
 </g>
 <defs>
  <clipPath id="pa4e9c742c7">
   <rect x="7.2" y="27.837812" width="558" height="443.52"/>
  </clipPath>
 </defs>
</svg>
