<?xml version="1.0" encoding="utf-8" standalone="no"?>
<!DOCTYPE svg PUBLIC "-//W3C//DTD SVG 1.1//EN"
  "http://www.w3.org/Graphics/SVG/1.1/DTD/svg11.dtd">
<svg xmlns:xlink="http://www.w3.org/1999/xlink" width="572.4pt" height="367.677813pt" viewBox="0 0 572.4 367.677813" xmlns="http://www.w3.org/2000/svg" version="1.1">
 <metadata>
  <rdf:RDF xmlns:dc="http://purl.org/dc/elements/1.1/" xmlns:cc="http://creativecommons.org/ns#" xmlns:rdf="http://www.w3.org/1999/02/22-rdf-syntax-ns#">
   <cc:Work>
    <dc:type rdf:resource="http://purl.org/dc/dcmitype/StillImage"/>
    <dc:date>2026-05-26T08:38:47.031290</dc:date>
    <dc:format>image/svg+xml</dc:format>
    <dc:creator>
     <cc:Agent>
      <dc:title>Matplotlib v3.10.9, https://matplotlib.org/</dc:title>
     </cc:Agent>
    </dc:creator>
   </cc:Work>
  </rdf:RDF>
 </metadata>
 <defs>
  <style type="text/css">*{stroke-linejoin: round; stroke-linecap: butt}</style>
 </defs>
 <g id="figure_1">
  <g id="patch_1">
   <path d="M 0 367.677813 
L 572.4 367.677813 
L 572.4 0 
L 0 0 
z
" style="fill: #1a1a2e"/>
  </g>
  <g id="axes_1">
   <g id="patch_2">
    <path d="M 70.254 211.455093 
L 167.346 211.455093 
Q 175.716 211.455093 175.716 206.465492 
L 175.716 191.829332 
Q 175.716 186.839732 167.346 186.839732 
L 70.254 186.839732 
Q 61.884 186.839732 61.884 191.829332 
L 61.884 206.465492 
Q 61.884 211.455093 70.254 211.455093 
z
" clip-path="url(#p92f28d77c6)" style="fill: #6a1b9a; stroke: #555555; stroke-width: 1.5; stroke-linejoin: miter"/>
   </g>
   <g id="patch_3">
    <path d="M 209.754 211.455093 
L 306.846 211.455093 
Q 315.216 211.455093 315.216 206.465492 
L 315.216 191.829332 
Q 315.216 186.839732 306.846 186.839732 
L 209.754 186.839732 
Q 201.384 186.839732 201.384 191.829332 
L 201.384 206.465492 
Q 201.384 211.455093 209.754 211.455093 
z
" clip-path="url(#p92f28d77c6)" style="fill: #c62828; stroke: #555555; stroke-width: 1.5; stroke-linejoin: miter"/>
   </g>
   <g id="patch_4">
    <path d="M 349.254 211.455093 
L 446.346 211.455093 
Q 454.716 211.455093 454.716 206.465492 
L 454.716 191.829332 
Q 454.716 186.839732 446.346 186.839732 
L 349.254 186.839732 
Q 340.884 186.839732 340.884 191.829332 
L 340.884 206.465492 
Q 340.884 211.455093 349.254 211.455093 
z
" clip-path="url(#p92f28d77c6)" style="fill: #1565c0; stroke: #555555; stroke-width: 1.5; stroke-linejoin: miter"/>
   </g>
   <g id="patch_5">
    <path d="M 70.254 277.983092 
L 167.346 277.983092 
Q 175.716 277.983092 175.716 272.993493 
L 175.716 258.357333 
Q 175.716 253.367733 167.346 253.367733 
L 70.254 253.367733 
Q 61.884 253.367733 61.884 258.357333 
L 61.884 272.993493 
Q 61.884 277.983092 70.254 277.983092 
z
" clip-path="url(#p92f28d77c6)" style="fill: #6a1b9a; stroke: #555555; stroke-width: 1.5; stroke-linejoin: miter"/>
   </g>
   <g id="patch_6">
    <path d="M 209.754 277.983092 
L 306.846 277.983092 
Q 315.216 277.983092 315.216 272.993493 
L 315.216 258.357333 
Q 315.216 253.367733 306.846 253.367733 
L 209.754 253.367733 
Q 201.384 253.367733 201.384 258.357333 
L 201.384 272.993493 
Q 201.384 277.983092 209.754 277.983092 
z
" clip-path="url(#p92f28d77c6)" style="fill: #c62828; stroke: #555555; stroke-width: 1.5; stroke-linejoin: miter"/>
   </g>
   <g id="patch_7">
    <path d="M 349.254 277.983092 
L 446.346 277.983092 
Q 454.716 277.983092 454.716 272.993493 
L 454.716 258.357333 
Q 454.716 253.367733 446.346 253.367733 
L 349.254 253.367733 
Q 340.884 253.367733 340.884 258.357333 
L 340.884 272.993493 
Q 340.884 277.983092 349.254 277.983092 
z
" clip-path="url(#p92f28d77c6)" style="fill: #1565c0; stroke: #555555; stroke-width: 1.5; stroke-linejoin: miter"/>
   </g>
   <g id="patch_8">
    <path d="M 42.354 344.511093 
L 167.346 344.511093 
Q 175.716 344.511093 175.716 339.521493 
L 175.716 324.885333 
Q 175.716 319.895733 167.346 319.895733 
L 42.354 319.895733 
Q 33.984 319.895733 33.984 324.885333 
L 33.984 339.521493 
Q 33.984 344.511093 42.354 344.511093 
z
" clip-path="url(#p92f28d77c6)" style="fill: #2e7d32; stroke: #555555; stroke-width: 1.5; stroke-linejoin: miter"/>
   </g>
   <g id="text_1">
    <!-- Thought 1 -->
    <g style="fill: #eaeaea" transform="translate(92.95875 201.595694) scale(0.09 -0.09)">
     <defs>
      <path id="DejaVuSans-Bold-54" d="M 31 4666 
L 4331 4666 
L 4331 3756 
L 2784 3756 
L 2784 0 
L 1581 0 
L 1581 3756 
L 31 3756 
L 31 4666 
z
" transform="scale(0.015625)"/>
      <path id="DejaVuSans-Bold-68" d="M 4056 2131 
L 4056 0 
L 2931 0 
L 2931 347 
L 2931 1625 
Q 2931 2084 2911 2256 
Q 2891 2428 2841 2509 
Q 2775 2619 2662 2680 
Q 2550 2741 2406 2741 
Q 2056 2741 1856 2470 
Q 1656 2200 1656 1722 
L 1656 0 
L 538 0 
L 538 4863 
L 1656 4863 
L 1656 2988 
Q 1909 3294 2193 3439 
Q 2478 3584 2822 3584 
Q 3428 3584 3742 3212 
Q 4056 2841 4056 2131 
z
" transform="scale(0.015625)"/>
      <path id="DejaVuSans-Bold-6f" d="M 2203 2784 
Q 1831 2784 1636 2517 
Q 1441 2250 1441 1747 
Q 1441 1244 1636 976 
Q 1831 709 2203 709 
Q 2569 709 2762 976 
Q 2956 1244 2956 1747 
Q 2956 2250 2762 2517 
Q 2569 2784 2203 2784 
z
M 2203 3584 
Q 3106 3584 3614 3096 
Q 4122 2609 4122 1747 
Q 4122 884 3614 396 
Q 3106 -91 2203 -91 
Q 1297 -91 786 396 
Q 275 884 275 1747 
Q 275 2609 786 3096 
Q 1297 3584 2203 3584 
z
" transform="scale(0.015625)"/>
      <path id="DejaVuSans-Bold-75" d="M 500 1363 
L 500 3500 
L 1625 3500 
L 1625 3150 
Q 1625 2866 1622 2436 
Q 1619 2006 1619 1863 
Q 1619 1441 1641 1255 
Q 1663 1069 1716 984 
Q 1784 875 1895 815 
Q 2006 756 2150 756 
Q 2500 756 2700 1025 
Q 2900 1294 2900 1772 
L 2900 3500 
L 4019 3500 
L 4019 0 
L 2900 0 
L 2900 506 
Q 2647 200 2364 54 
Q 2081 -91 1741 -91 
Q 1134 -91 817 281 
Q 500 653 500 1363 
z
" transform="scale(0.015625)"/>
      <path id="DejaVuSans-Bold-67" d="M 2919 594 
Q 2688 288 2409 144 
Q 2131 0 1766 0 
Q 1125 0 706 504 
Q 288 1009 288 1791 
Q 288 2575 706 3076 
Q 1125 3578 1766 3578 
Q 2131 3578 2409 3434 
Q 2688 3291 2919 2981 
L 2919 3500 
L 4044 3500 
L 4044 353 
Q 4044 -491 3511 -936 
Q 2978 -1381 1966 -1381 
Q 1638 -1381 1331 -1331 
Q 1025 -1281 716 -1178 
L 716 -306 
Q 1009 -475 1290 -558 
Q 1572 -641 1856 -641 
Q 2406 -641 2662 -400 
Q 2919 -159 2919 353 
L 2919 594 
z
M 2181 2772 
Q 1834 2772 1640 2515 
Q 1447 2259 1447 1791 
Q 1447 1309 1634 1061 
Q 1822 813 2181 813 
Q 2531 813 2725 1069 
Q 2919 1325 2919 1791 
Q 2919 2259 2725 2515 
Q 2531 2772 2181 2772 
z
" transform="scale(0.015625)"/>
      <path id="DejaVuSans-Bold-74" d="M 1759 4494 
L 1759 3500 
L 2913 3500 
L 2913 2700 
L 1759 2700 
L 1759 1216 
Q 1759 972 1856 886 
Q 1953 800 2241 800 
L 2816 800 
L 2816 0 
L 1856 0 
Q 1194 0 917 276 
Q 641 553 641 1216 
L 641 2700 
L 84 2700 
L 84 3500 
L 641 3500 
L 641 4494 
L 1759 4494 
z
" transform="scale(0.015625)"/>
      <path id="DejaVuSans-Bold-20" transform="scale(0.015625)"/>
      <path id="DejaVuSans-Bold-31" d="M 750 831 
L 1813 831 
L 1813 3847 
L 722 3622 
L 722 4441 
L 1806 4666 
L 2950 4666 
L 2950 831 
L 4013 831 
L 4013 0 
L 750 0 
L 750 831 
z
" transform="scale(0.015625)"/>
     </defs>
     <use xlink:href="#DejaVuSans-Bold-54"/>
     <use xlink:href="#DejaVuSans-Bold-68" transform="translate(68.212891 0)"/>
     <use xlink:href="#DejaVuSans-Bold-6f" transform="translate(139.404297 0)"/>
     <use xlink:href="#DejaVuSans-Bold-75" transform="translate(208.105469 0)"/>
     <use xlink:href="#DejaVuSans-Bold-67" transform="translate(279.296875 0)"/>
     <use xlink:href="#DejaVuSans-Bold-68" transform="translate(350.878906 0)"/>
     <use xlink:href="#DejaVuSans-Bold-74" transform="translate(422.070312 0)"/>
     <use xlink:href="#DejaVuSans-Bold-20" transform="translate(469.873047 0)"/>
     <use xlink:href="#DejaVuSans-Bold-31" transform="translate(504.6875 0)"/>
    </g>
   </g>
   <g id="text_2">
    <!-- Action 1 -->
    <g style="fill: #eaeaea" transform="translate(237.463594 201.63085) scale(0.09 -0.09)">
     <defs>
      <path id="DejaVuSans-Bold-41" d="M 3419 850 
L 1538 850 
L 1241 0 
L 31 0 
L 1759 4666 
L 3194 4666 
L 4922 0 
L 3713 0 
L 3419 850 
z
M 1838 1716 
L 3116 1716 
L 2478 3572 
L 1838 1716 
z
" transform="scale(0.015625)"/>
      <path id="DejaVuSans-Bold-63" d="M 3366 3391 
L 3366 2478 
Q 3138 2634 2908 2709 
Q 2678 2784 2431 2784 
Q 1963 2784 1702 2511 
Q 1441 2238 1441 1747 
Q 1441 1256 1702 982 
Q 1963 709 2431 709 
Q 2694 709 2930 787 
Q 3166 866 3366 1019 
L 3366 103 
Q 3103 6 2833 -42 
Q 2563 -91 2291 -91 
Q 1344 -91 809 395 
Q 275 881 275 1747 
Q 275 2613 809 3098 
Q 1344 3584 2291 3584 
Q 2566 3584 2833 3536 
Q 3100 3488 3366 3391 
z
" transform="scale(0.015625)"/>
      <path id="DejaVuSans-Bold-69" d="M 538 3500 
L 1656 3500 
L 1656 0 
L 538 0 
L 538 3500 
z
M 538 4863 
L 1656 4863 
L 1656 3950 
L 538 3950 
L 538 4863 
z
" transform="scale(0.015625)"/>
      <path id="DejaVuSans-Bold-6e" d="M 4056 2131 
L 4056 0 
L 2931 0 
L 2931 347 
L 2931 1631 
Q 2931 2084 2911 2256 
Q 2891 2428 2841 2509 
Q 2775 2619 2662 2680 
Q 2550 2741 2406 2741 
Q 2056 2741 1856 2470 
Q 1656 2200 1656 1722 
L 1656 0 
L 538 0 
L 538 3500 
L 1656 3500 
L 1656 2988 
Q 1909 3294 2193 3439 
Q 2478 3584 2822 3584 
Q 3428 3584 3742 3212 
Q 4056 2841 4056 2131 
z
" transform="scale(0.015625)"/>
     </defs>
     <use xlink:href="#DejaVuSans-Bold-41"/>
     <use xlink:href="#DejaVuSans-Bold-63" transform="translate(77.392578 0)"/>
     <use xlink:href="#DejaVuSans-Bold-74" transform="translate(136.669922 0)"/>
     <use xlink:href="#DejaVuSans-Bold-69" transform="translate(184.472656 0)"/>
     <use xlink:href="#DejaVuSans-Bold-6f" transform="translate(218.75 0)"/>
     <use xlink:href="#DejaVuSans-Bold-6e" transform="translate(287.451172 0)"/>
     <use xlink:href="#DejaVuSans-Bold-20" transform="translate(358.642578 0)"/>
     <use xlink:href="#DejaVuSans-Bold-31" transform="translate(393.457031 0)"/>
    </g>
   </g>
   <g id="text_3">
    <!-- Observation 1 -->
    <g style="fill: #eaeaea" transform="translate(362.147344 201.63085) scale(0.09 -0.09)">
     <defs>
      <path id="DejaVuSans-Bold-4f" d="M 2719 3878 
Q 2169 3878 1866 3472 
Q 1563 3066 1563 2328 
Q 1563 1594 1866 1187 
Q 2169 781 2719 781 
Q 3272 781 3575 1187 
Q 3878 1594 3878 2328 
Q 3878 3066 3575 3472 
Q 3272 3878 2719 3878 
z
M 2719 4750 
Q 3844 4750 4481 4106 
Q 5119 3463 5119 2328 
Q 5119 1197 4481 553 
Q 3844 -91 2719 -91 
Q 1597 -91 958 553 
Q 319 1197 319 2328 
Q 319 3463 958 4106 
Q 1597 4750 2719 4750 
z
" transform="scale(0.015625)"/>
      <path id="DejaVuSans-Bold-62" d="M 2400 722 
Q 2759 722 2948 984 
Q 3138 1247 3138 1747 
Q 3138 2247 2948 2509 
Q 2759 2772 2400 2772 
Q 2041 2772 1848 2508 
Q 1656 2244 1656 1747 
Q 1656 1250 1848 986 
Q 2041 722 2400 722 
z
M 1656 2988 
Q 1888 3294 2169 3439 
Q 2450 3584 2816 3584 
Q 3463 3584 3878 3070 
Q 4294 2556 4294 1747 
Q 4294 938 3878 423 
Q 3463 -91 2816 -91 
Q 2450 -91 2169 54 
Q 1888 200 1656 506 
L 1656 0 
L 538 0 
L 538 4863 
L 1656 4863 
L 1656 2988 
z
" transform="scale(0.015625)"/>
      <path id="DejaVuSans-Bold-73" d="M 3272 3391 
L 3272 2541 
Q 2913 2691 2578 2766 
Q 2244 2841 1947 2841 
Q 1628 2841 1473 2761 
Q 1319 2681 1319 2516 
Q 1319 2381 1436 2309 
Q 1553 2238 1856 2203 
L 2053 2175 
Q 2913 2066 3209 1816 
Q 3506 1566 3506 1031 
Q 3506 472 3093 190 
Q 2681 -91 1863 -91 
Q 1516 -91 1145 -36 
Q 775 19 384 128 
L 384 978 
Q 719 816 1070 734 
Q 1422 653 1784 653 
Q 2113 653 2278 743 
Q 2444 834 2444 1013 
Q 2444 1163 2330 1236 
Q 2216 1309 1875 1350 
L 1678 1375 
Q 931 1469 631 1722 
Q 331 1975 331 2491 
Q 331 3047 712 3315 
Q 1094 3584 1881 3584 
Q 2191 3584 2531 3537 
Q 2872 3491 3272 3391 
z
" transform="scale(0.015625)"/>
      <path id="DejaVuSans-Bold-65" d="M 4031 1759 
L 4031 1441 
L 1416 1441 
Q 1456 1047 1700 850 
Q 1944 653 2381 653 
Q 2734 653 3104 758 
Q 3475 863 3866 1075 
L 3866 213 
Q 3469 63 3072 -14 
Q 2675 -91 2278 -91 
Q 1328 -91 801 392 
Q 275 875 275 1747 
Q 275 2603 792 3093 
Q 1309 3584 2216 3584 
Q 3041 3584 3536 3087 
Q 4031 2591 4031 1759 
z
M 2881 2131 
Q 2881 2450 2695 2645 
Q 2509 2841 2209 2841 
Q 1884 2841 1681 2658 
Q 1478 2475 1428 2131 
L 2881 2131 
z
" transform="scale(0.015625)"/>
      <path id="DejaVuSans-Bold-72" d="M 3138 2547 
Q 2991 2616 2845 2648 
Q 2700 2681 2553 2681 
Q 2122 2681 1889 2404 
Q 1656 2128 1656 1613 
L 1656 0 
L 538 0 
L 538 3500 
L 1656 3500 
L 1656 2925 
Q 1872 3269 2151 3426 
Q 2431 3584 2822 3584 
Q 2878 3584 2943 3579 
Q 3009 3575 3134 3559 
L 3138 2547 
z
" transform="scale(0.015625)"/>
      <path id="DejaVuSans-Bold-76" d="M 97 3500 
L 1216 3500 
L 2088 1081 
L 2956 3500 
L 4078 3500 
L 2700 0 
L 1472 0 
L 97 3500 
z
" transform="scale(0.015625)"/>
      <path id="DejaVuSans-Bold-61" d="M 2106 1575 
Q 1756 1575 1579 1456 
Q 1403 1338 1403 1106 
Q 1403 894 1545 773 
Q 1688 653 1941 653 
Q 2256 653 2472 879 
Q 2688 1106 2688 1447 
L 2688 1575 
L 2106 1575 
z
M 3816 1997 
L 3816 0 
L 2688 0 
L 2688 519 
Q 2463 200 2181 54 
Q 1900 -91 1497 -91 
Q 953 -91 614 226 
Q 275 544 275 1050 
Q 275 1666 698 1953 
Q 1122 2241 2028 2241 
L 2688 2241 
L 2688 2328 
Q 2688 2594 2478 2717 
Q 2269 2841 1825 2841 
Q 1466 2841 1156 2769 
Q 847 2697 581 2553 
L 581 3406 
Q 941 3494 1303 3539 
Q 1666 3584 2028 3584 
Q 2975 3584 3395 3211 
Q 3816 2838 3816 1997 
z
" transform="scale(0.015625)"/>
     </defs>
     <use xlink:href="#DejaVuSans-Bold-4f"/>
     <use xlink:href="#DejaVuSans-Bold-62" transform="translate(85.009766 0)"/>
     <use xlink:href="#DejaVuSans-Bold-73" transform="translate(156.591797 0)"/>
     <use xlink:href="#DejaVuSans-Bold-65" transform="translate(216.113281 0)"/>
     <use xlink:href="#DejaVuSans-Bold-72" transform="translate(283.935547 0)"/>
     <use xlink:href="#DejaVuSans-Bold-76" transform="translate(333.251953 0)"/>
     <use xlink:href="#DejaVuSans-Bold-61" transform="translate(398.4375 0)"/>
     <use xlink:href="#DejaVuSans-Bold-74" transform="translate(465.917969 0)"/>
     <use xlink:href="#DejaVuSans-Bold-69" transform="translate(513.720703 0)"/>
     <use xlink:href="#DejaVuSans-Bold-6f" transform="translate(547.998047 0)"/>
     <use xlink:href="#DejaVuSans-Bold-6e" transform="translate(616.699219 0)"/>
     <use xlink:href="#DejaVuSans-Bold-20" transform="translate(687.890625 0)"/>
     <use xlink:href="#DejaVuSans-Bold-31" transform="translate(722.705078 0)"/>
    </g>
   </g>
   <g id="text_4">
    <!-- Thought 2 -->
    <g style="fill: #eaeaea" transform="translate(92.95875 268.123694) scale(0.09 -0.09)">
     <defs>
      <path id="DejaVuSans-Bold-32" d="M 1844 884 
L 3897 884 
L 3897 0 
L 506 0 
L 506 884 
L 2209 2388 
Q 2438 2594 2547 2791 
Q 2656 2988 2656 3200 
Q 2656 3528 2436 3728 
Q 2216 3928 1850 3928 
Q 1569 3928 1234 3808 
Q 900 3688 519 3450 
L 519 4475 
Q 925 4609 1322 4679 
Q 1719 4750 2100 4750 
Q 2938 4750 3402 4381 
Q 3866 4013 3866 3353 
Q 3866 2972 3669 2642 
Q 3472 2313 2841 1759 
L 1844 884 
z
" transform="scale(0.015625)"/>
     </defs>
     <use xlink:href="#DejaVuSans-Bold-54"/>
     <use xlink:href="#DejaVuSans-Bold-68" transform="translate(68.212891 0)"/>
     <use xlink:href="#DejaVuSans-Bold-6f" transform="translate(139.404297 0)"/>
     <use xlink:href="#DejaVuSans-Bold-75" transform="translate(208.105469 0)"/>
     <use xlink:href="#DejaVuSans-Bold-67" transform="translate(279.296875 0)"/>
     <use xlink:href="#DejaVuSans-Bold-68" transform="translate(350.878906 0)"/>
     <use xlink:href="#DejaVuSans-Bold-74" transform="translate(422.070312 0)"/>
     <use xlink:href="#DejaVuSans-Bold-20" transform="translate(469.873047 0)"/>
     <use xlink:href="#DejaVuSans-Bold-32" transform="translate(504.6875 0)"/>
    </g>
   </g>
   <g id="text_5">
    <!-- Action 2 -->
    <g style="fill: #eaeaea" transform="translate(237.463594 268.15885) scale(0.09 -0.09)">
     <use xlink:href="#DejaVuSans-Bold-41"/>
     <use xlink:href="#DejaVuSans-Bold-63" transform="translate(77.392578 0)"/>
     <use xlink:href="#DejaVuSans-Bold-74" transform="translate(136.669922 0)"/>
     <use xlink:href="#DejaVuSans-Bold-69" transform="translate(184.472656 0)"/>
     <use xlink:href="#DejaVuSans-Bold-6f" transform="translate(218.75 0)"/>
     <use xlink:href="#DejaVuSans-Bold-6e" transform="translate(287.451172 0)"/>
     <use xlink:href="#DejaVuSans-Bold-20" transform="translate(358.642578 0)"/>
     <use xlink:href="#DejaVuSans-Bold-32" transform="translate(393.457031 0)"/>
    </g>
   </g>
   <g id="text_6">
    <!-- Observation 2 -->
    <g style="fill: #eaeaea" transform="translate(362.147344 268.15885) scale(0.09 -0.09)">
     <use xlink:href="#DejaVuSans-Bold-4f"/>
     <use xlink:href="#DejaVuSans-Bold-62" transform="translate(85.009766 0)"/>
     <use xlink:href="#DejaVuSans-Bold-73" transform="translate(156.591797 0)"/>
     <use xlink:href="#DejaVuSans-Bold-65" transform="translate(216.113281 0)"/>
     <use xlink:href="#DejaVuSans-Bold-72" transform="translate(283.935547 0)"/>
     <use xlink:href="#DejaVuSans-Bold-76" transform="translate(333.251953 0)"/>
     <use xlink:href="#DejaVuSans-Bold-61" transform="translate(398.4375 0)"/>
     <use xlink:href="#DejaVuSans-Bold-74" transform="translate(465.917969 0)"/>
     <use xlink:href="#DejaVuSans-Bold-69" transform="translate(513.720703 0)"/>
     <use xlink:href="#DejaVuSans-Bold-6f" transform="translate(547.998047 0)"/>
     <use xlink:href="#DejaVuSans-Bold-6e" transform="translate(616.699219 0)"/>
     <use xlink:href="#DejaVuSans-Bold-20" transform="translate(687.890625 0)"/>
     <use xlink:href="#DejaVuSans-Bold-32" transform="translate(722.705078 0)"/>
    </g>
   </g>
   <g id="patch_9">
    <path d="M 176.599182 199.147413 
Q 188.548906 199.147413 198.82158 199.147413 
" style="fill: none; stroke: #00d4aa; stroke-width: 1.5; stroke-linecap: round"/>
    <path d="M 194.82158 197.147413 
L 198.82158 199.147413 
L 194.82158 201.147413 
" style="fill: none; stroke: #00d4aa; stroke-width: 1.5; stroke-linecap: round"/>
   </g>
   <g id="patch_10">
    <path d="M 316.099182 199.147413 
Q 328.048906 199.147413 338.32158 199.147413 
" style="fill: none; stroke: #00d4aa; stroke-width: 1.5; stroke-linecap: round"/>
    <path d="M 334.32158 197.147413 
L 338.32158 199.147413 
L 334.32158 201.147413 
" style="fill: none; stroke: #00d4aa; stroke-width: 1.5; stroke-linecap: round"/>
   </g>
   <g id="patch_11">
    <path d="M 399.085675 212.322669 
Q 411.750384 227.42227 423.337372 241.236951 
" style="fill: none; stroke: #00d4aa; stroke-width: 1.5; stroke-linecap: round"/>
    <path d="M 422.299217 236.886981 
L 423.337372 241.236951 
L 419.234504 239.457493 
" style="fill: none; stroke: #00d4aa; stroke-width: 1.5; stroke-linecap: round"/>
   </g>
   <g id="patch_12">
    <path d="M 423.703798 244.225701 
Q 300.149667 254.864641 178.266405 265.359707 
" style="fill: none; stroke: #00d4aa; stroke-width: 1.5; stroke-linecap: round"/>
    <path d="M 182.423238 267.009174 
L 178.266405 265.359707 
L 182.080078 263.023921 
" style="fill: none; stroke: #00d4aa; stroke-width: 1.5; stroke-linecap: round"/>
   </g>
   <g id="patch_13">
    <path d="M 176.599182 265.675412 
Q 188.548906 265.675412 198.82158 265.675412 
" style="fill: none; stroke: #00d4aa; stroke-width: 1.5; stroke-linecap: round"/>
    <path d="M 194.82158 263.675412 
L 198.82158 265.675412 
L 194.82158 267.675412 
" style="fill: none; stroke: #00d4aa; stroke-width: 1.5; stroke-linecap: round"/>
   </g>
   <g id="patch_14">
    <path d="M 316.099182 265.675412 
Q 328.048906 265.675412 338.32158 265.675412 
" style="fill: none; stroke: #00d4aa; stroke-width: 1.5; stroke-linecap: round"/>
    <path d="M 334.32158 263.675412 
L 338.32158 265.675412 
L 334.32158 267.675412 
" style="fill: none; stroke: #00d4aa; stroke-width: 1.5; stroke-linecap: round"/>
   </g>
   <g id="patch_15">
    <path d="M 399.085675 278.850669 
Q 411.750384 293.95027 423.337372 307.764951 
" style="fill: none; stroke: #00d4aa; stroke-width: 1.5; stroke-linecap: round"/>
    <path d="M 422.299217 303.414981 
L 423.337372 307.764951 
L 419.234504 305.985493 
" style="fill: none; stroke: #00d4aa; stroke-width: 1.5; stroke-linecap: round"/>
   </g>
   <g id="patch_16">
    <path d="M 423.700392 310.581813 
Q 272.248138 310.581813 122.472935 310.581813 
" style="fill: none; stroke: #00d4aa; stroke-width: 1.5; stroke-linecap: round"/>
    <path d="M 126.472935 312.581813 
L 122.472935 310.581813 
L 126.472935 308.581813 
" style="fill: none; stroke: #00d4aa; stroke-width: 1.5; stroke-linecap: round"/>
   </g>
   <g id="text_7">
    <!-- Final Answer -->
    <g style="fill: #eaeaea" transform="translate(72.090703 334.68685) scale(0.09 -0.09)">
     <defs>
      <path id="DejaVuSans-Bold-46" d="M 588 4666 
L 3834 4666 
L 3834 3756 
L 1791 3756 
L 1791 2888 
L 3713 2888 
L 3713 1978 
L 1791 1978 
L 1791 0 
L 588 0 
L 588 4666 
z
" transform="scale(0.015625)"/>
      <path id="DejaVuSans-Bold-6c" d="M 538 4863 
L 1656 4863 
L 1656 0 
L 538 0 
L 538 4863 
z
" transform="scale(0.015625)"/>
      <path id="DejaVuSans-Bold-77" d="M 225 3500 
L 1313 3500 
L 1900 1088 
L 2491 3500 
L 3425 3500 
L 4013 1113 
L 4603 3500 
L 5691 3500 
L 4769 0 
L 3547 0 
L 2956 2406 
L 2369 0 
L 1147 0 
L 225 3500 
z
" transform="scale(0.015625)"/>
     </defs>
     <use xlink:href="#DejaVuSans-Bold-46"/>
     <use xlink:href="#DejaVuSans-Bold-69" transform="translate(68.310547 0)"/>
     <use xlink:href="#DejaVuSans-Bold-6e" transform="translate(102.587891 0)"/>
     <use xlink:href="#DejaVuSans-Bold-61" transform="translate(173.779297 0)"/>
     <use xlink:href="#DejaVuSans-Bold-6c" transform="translate(241.259766 0)"/>
     <use xlink:href="#DejaVuSans-Bold-20" transform="translate(275.537109 0)"/>
     <use xlink:href="#DejaVuSans-Bold-41" transform="translate(310.351562 0)"/>
     <use xlink:href="#DejaVuSans-Bold-6e" transform="translate(387.744141 0)"/>
     <use xlink:href="#DejaVuSans-Bold-73" transform="translate(458.935547 0)"/>
     <use xlink:href="#DejaVuSans-Bold-77" transform="translate(518.457031 0)"/>
     <use xlink:href="#DejaVuSans-Bold-65" transform="translate(610.839844 0)"/>
     <use xlink:href="#DejaVuSans-Bold-72" transform="translate(678.662109 0)"/>
    </g>
   </g>
   <g id="patch_17">
    <path d="M 118.8 312.584474 
Q 118.8 315.573729 118.8 316.885932 
" style="fill: none; stroke: #00d4aa; stroke-width: 1.5; stroke-linecap: round"/>
    <path d="M 120.8 312.885932 
L 118.8 316.885932 
L 116.8 312.885932 
" style="fill: none; stroke: #00d4aa; stroke-width: 1.5; stroke-linecap: round"/>
   </g>
   <g id="text_8">
    <!-- ReAct: Reasoning + Acting -->
    <g style="fill: #00d4aa" transform="translate(180.654219 17.837812) scale(0.14 -0.14)">
     <defs>
      <path id="DejaVuSans-Bold-52" d="M 2297 2597 
Q 2675 2597 2839 2737 
Q 3003 2878 3003 3200 
Q 3003 3519 2839 3656 
Q 2675 3794 2297 3794 
L 1791 3794 
L 1791 2597 
L 2297 2597 
z
M 1791 1766 
L 1791 0 
L 588 0 
L 588 4666 
L 2425 4666 
Q 3347 4666 3776 4356 
Q 4206 4047 4206 3378 
Q 4206 2916 3982 2619 
Q 3759 2322 3309 2181 
Q 3556 2125 3751 1926 
Q 3947 1728 4147 1325 
L 4800 0 
L 3519 0 
L 2950 1159 
Q 2778 1509 2601 1637 
Q 2425 1766 2131 1766 
L 1791 1766 
z
" transform="scale(0.015625)"/>
      <path id="DejaVuSans-Bold-3a" d="M 716 3500 
L 1844 3500 
L 1844 2291 
L 716 2291 
L 716 3500 
z
M 716 1209 
L 1844 1209 
L 1844 0 
L 716 0 
L 716 1209 
z
" transform="scale(0.015625)"/>
      <path id="DejaVuSans-Bold-2b" d="M 3053 4013 
L 3053 2375 
L 4684 2375 
L 4684 1638 
L 3053 1638 
L 3053 0 
L 2309 0 
L 2309 1638 
L 678 1638 
L 678 2375 
L 2309 2375 
L 2309 4013 
L 3053 4013 
z
" transform="scale(0.015625)"/>
     </defs>
     <use xlink:href="#DejaVuSans-Bold-52"/>
     <use xlink:href="#DejaVuSans-Bold-65" transform="translate(77.001953 0)"/>
     <use xlink:href="#DejaVuSans-Bold-41" transform="translate(144.824219 0)"/>
     <use xlink:href="#DejaVuSans-Bold-63" transform="translate(222.216797 0)"/>
     <use xlink:href="#DejaVuSans-Bold-74" transform="translate(281.494141 0)"/>
     <use xlink:href="#DejaVuSans-Bold-3a" transform="translate(329.296875 0)"/>
     <use xlink:href="#DejaVuSans-Bold-20" transform="translate(369.287109 0)"/>
     <use xlink:href="#DejaVuSans-Bold-52" transform="translate(404.101562 0)"/>
     <use xlink:href="#DejaVuSans-Bold-65" transform="translate(481.103516 0)"/>
     <use xlink:href="#DejaVuSans-Bold-61" transform="translate(548.925781 0)"/>
     <use xlink:href="#DejaVuSans-Bold-73" transform="translate(616.40625 0)"/>
     <use xlink:href="#DejaVuSans-Bold-6f" transform="translate(675.927734 0)"/>
     <use xlink:href="#DejaVuSans-Bold-6e" transform="translate(744.628906 0)"/>
     <use xlink:href="#DejaVuSans-Bold-69" transform="translate(815.820312 0)"/>
     <use xlink:href="#DejaVuSans-Bold-6e" transform="translate(850.097656 0)"/>
     <use xlink:href="#DejaVuSans-Bold-67" transform="translate(921.289062 0)"/>
     <use xlink:href="#DejaVuSans-Bold-20" transform="translate(992.871094 0)"/>
     <use xlink:href="#DejaVuSans-Bold-2b" transform="translate(1027.685547 0)"/>
     <use xlink:href="#DejaVuSans-Bold-20" transform="translate(1111.474609 0)"/>
     <use xlink:href="#DejaVuSans-Bold-41" transform="translate(1146.289062 0)"/>
     <use xlink:href="#DejaVuSans-Bold-63" transform="translate(1223.681641 0)"/>
     <use xlink:href="#DejaVuSans-Bold-74" transform="translate(1282.958984 0)"/>
     <use xlink:href="#DejaVuSans-Bold-69" transform="translate(1330.761719 0)"/>
     <use xlink:href="#DejaVuSans-Bold-6e" transform="translate(1365.039062 0)"/>
     <use xlink:href="#DejaVuSans-Bold-67" transform="translate(1436.230469 0)"/>
    </g>
   </g>
  </g>
 </g>
 <defs>
  <clipPath id="p92f28d77c6">
   <rect x="7.2" y="27.837812" width="558" height="332.64"/>
  </clipPath>
 </defs>
</svg>
