<?xml version="1.0" encoding="utf-8" standalone="no"?>
<!DOCTYPE svg PUBLIC "-//W3C//DTD SVG 1.1//EN"
  "http://www.w3.org/Graphics/SVG/1.1/DTD/svg11.dtd">
<svg xmlns:xlink="http://www.w3.org/1999/xlink" width="752.675625pt" height="312.237813pt" viewBox="0 0 752.675625 312.237813" xmlns="http://www.w3.org/2000/svg" version="1.1">
 <metadata>
  <rdf:RDF xmlns:dc="http://purl.org/dc/elements/1.1/" xmlns:cc="http://creativecommons.org/ns#" xmlns:rdf="http://www.w3.org/1999/02/22-rdf-syntax-ns#">
   <cc:Work>
    <dc:type rdf:resource="http://purl.org/dc/dcmitype/StillImage"/>
    <dc:date>2026-05-26T08:38:47.096132</dc:date>
    <dc:format>image/svg+xml</dc:format>
    <dc:creator>
     <cc:Agent>
      <dc:title>Matplotlib v3.10.9, https://matplotlib.org/</dc:title>
     </cc:Agent>
    </dc:creator>
   </cc:Work>
  </rdf:RDF>
 </metadata>
 <defs>
  <style type="text/css">*{stroke-linejoin: round; stroke-linecap: butt}</style>
 </defs>
 <g id="figure_1">
  <g id="patch_1">
   <path d="M 0 312.237813 
L 752.675625 312.237813 
L 752.675625 0 
L 0 0 
z
" style="fill: #1a1a2e"/>
  </g>
  <g id="axes_1">
   <g id="patch_2">
    <path d="M 42.354 236.292213 
L 111.546 236.292213 
Q 119.916 236.292213 119.916 232.134213 
L 119.916 217.165413 
Q 119.916 213.007412 111.546 213.007412 
L 42.354 213.007412 
Q 33.984 213.007412 33.984 217.165413 
L 33.984 232.134213 
Q 33.984 236.292213 42.354 236.292213 
z
" clip-path="url(#pe0337c9528)" style="fill: #1565c0; stroke: #555555; stroke-width: 1.5; stroke-linejoin: miter"/>
   </g>
   <g id="patch_3">
    <path d="M 153.954 236.292213 
L 251.046 236.292213 
Q 259.416 236.292213 259.416 232.134213 
L 259.416 217.165413 
Q 259.416 213.007412 251.046 213.007412 
L 153.954 213.007412 
Q 145.584 213.007412 145.584 217.165413 
L 145.584 232.134213 
Q 145.584 236.292213 153.954 236.292213 
z
" clip-path="url(#pe0337c9528)" style="fill: #c62828; stroke: #555555; stroke-width: 1.5; stroke-linejoin: miter"/>
   </g>
   <g id="patch_4">
    <path d="M 293.454 236.292213 
L 362.646 236.292213 
Q 371.016 236.292213 371.016 232.134213 
L 371.016 217.165413 
Q 371.016 213.007412 362.646 213.007412 
L 293.454 213.007412 
Q 285.084 213.007412 285.084 217.165413 
L 285.084 232.134213 
Q 285.084 236.292213 293.454 236.292213 
z
" clip-path="url(#pe0337c9528)" style="fill: #455a64; stroke: #555555; stroke-width: 1.5; stroke-linejoin: miter"/>
   </g>
   <g id="patch_5">
    <path d="M 405.054 236.292213 
L 474.246 236.292213 
Q 482.616 236.292213 482.616 232.134213 
L 482.616 217.165413 
Q 482.616 213.007412 474.246 213.007412 
L 405.054 213.007412 
Q 396.684 213.007412 396.684 217.165413 
L 396.684 232.134213 
Q 396.684 236.292213 405.054 236.292213 
z
" clip-path="url(#pe0337c9528)" style="fill: #ef6c00; stroke: #555555; stroke-width: 1.5; stroke-linejoin: miter"/>
   </g>
   <g id="patch_6">
    <path d="M 516.654 236.292213 
L 613.746 236.292213 
Q 622.116 236.292213 622.116 232.134213 
L 622.116 217.165413 
Q 622.116 213.007412 613.746 213.007412 
L 516.654 213.007412 
Q 508.284 213.007412 508.284 217.165413 
L 508.284 232.134213 
Q 508.284 236.292213 516.654 236.292213 
z
" clip-path="url(#pe0337c9528)" style="fill: #c62828; stroke: #555555; stroke-width: 1.5; stroke-linejoin: miter"/>
   </g>
   <g id="patch_7">
    <path d="M 656.154 236.292213 
L 725.346 236.292213 
Q 733.716 236.292213 733.716 232.134213 
L 733.716 217.165413 
Q 733.716 213.007412 725.346 213.007412 
L 656.154 213.007412 
Q 647.784 213.007412 647.784 217.165413 
L 647.784 232.134213 
Q 647.784 236.292213 656.154 236.292213 
z
" clip-path="url(#pe0337c9528)" style="fill: #455a64; stroke: #555555; stroke-width: 1.5; stroke-linejoin: miter"/>
   </g>
   <g id="patch_8">
    <path d="M 684.054 283.416213 
L 781.146 283.416213 
Q 789.516 283.416213 789.516 279.258213 
L 789.516 261.517413 
Q 789.516 257.359413 781.146 257.359413 
L 684.054 257.359413 
Q 675.684 257.359413 675.684 261.517413 
L 675.684 279.258213 
Q 675.684 283.416213 684.054 283.416213 
z
" clip-path="url(#pe0337c9528)" style="fill: #ef6c00; stroke: #555555; stroke-width: 1.5; stroke-linejoin: miter"/>
   </g>
   <g id="text_1">
    <!-- x -->
    <g style="fill: #eaeaea" transform="translate(74.0475 227.13325) scale(0.09 -0.09)">
     <defs>
      <path id="DejaVuSans-Bold-78" d="M 1422 1791 
L 159 3500 
L 1344 3500 
L 2059 2463 
L 2784 3500 
L 3969 3500 
L 2706 1797 
L 4031 0 
L 2847 0 
L 2059 1106 
L 1281 0 
L 97 0 
L 1422 1791 
z
" transform="scale(0.015625)"/>
     </defs>
     <use xlink:href="#DejaVuSans-Bold-78"/>
    </g>
   </g>
   <g id="patch_9">
    <path d="M 120.799182 224.649812 
Q 132.748906 224.649812 143.02158 224.649812 
" style="fill: none; stroke: #00d4aa; stroke-width: 1.5; stroke-linecap: round"/>
    <path d="M 139.02158 222.649812 
L 143.02158 224.649812 
L 139.02158 226.649812 
" style="fill: none; stroke: #00d4aa; stroke-width: 1.5; stroke-linecap: round"/>
   </g>
   <g id="text_2">
    <!-- Conv 3x3 -->
    <g style="fill: #eaeaea" transform="translate(179.237812 227.13325) scale(0.09 -0.09)">
     <defs>
      <path id="DejaVuSans-Bold-43" d="M 4288 256 
Q 3956 84 3597 -3 
Q 3238 -91 2847 -91 
Q 1681 -91 1000 561 
Q 319 1213 319 2328 
Q 319 3447 1000 4098 
Q 1681 4750 2847 4750 
Q 3238 4750 3597 4662 
Q 3956 4575 4288 4403 
L 4288 3438 
Q 3953 3666 3628 3772 
Q 3303 3878 2944 3878 
Q 2300 3878 1931 3465 
Q 1563 3053 1563 2328 
Q 1563 1606 1931 1193 
Q 2300 781 2944 781 
Q 3303 781 3628 887 
Q 3953 994 4288 1222 
L 4288 256 
z
" transform="scale(0.015625)"/>
      <path id="DejaVuSans-Bold-6f" d="M 2203 2784 
Q 1831 2784 1636 2517 
Q 1441 2250 1441 1747 
Q 1441 1244 1636 976 
Q 1831 709 2203 709 
Q 2569 709 2762 976 
Q 2956 1244 2956 1747 
Q 2956 2250 2762 2517 
Q 2569 2784 2203 2784 
z
M 2203 3584 
Q 3106 3584 3614 3096 
Q 4122 2609 4122 1747 
Q 4122 884 3614 396 
Q 3106 -91 2203 -91 
Q 1297 -91 786 396 
Q 275 884 275 1747 
Q 275 2609 786 3096 
Q 1297 3584 2203 3584 
z
" transform="scale(0.015625)"/>
      <path id="DejaVuSans-Bold-6e" d="M 4056 2131 
L 4056 0 
L 2931 0 
L 2931 347 
L 2931 1631 
Q 2931 2084 2911 2256 
Q 2891 2428 2841 2509 
Q 2775 2619 2662 2680 
Q 2550 2741 2406 2741 
Q 2056 2741 1856 2470 
Q 1656 2200 1656 1722 
L 1656 0 
L 538 0 
L 538 3500 
L 1656 3500 
L 1656 2988 
Q 1909 3294 2193 3439 
Q 2478 3584 2822 3584 
Q 3428 3584 3742 3212 
Q 4056 2841 4056 2131 
z
" transform="scale(0.015625)"/>
      <path id="DejaVuSans-Bold-76" d="M 97 3500 
L 1216 3500 
L 2088 1081 
L 2956 3500 
L 4078 3500 
L 2700 0 
L 1472 0 
L 97 3500 
z
" transform="scale(0.015625)"/>
      <path id="DejaVuSans-Bold-20" transform="scale(0.015625)"/>
      <path id="DejaVuSans-Bold-33" d="M 2981 2516 
Q 3453 2394 3698 2092 
Q 3944 1791 3944 1325 
Q 3944 631 3412 270 
Q 2881 -91 1863 -91 
Q 1503 -91 1142 -33 
Q 781 25 428 141 
L 428 1069 
Q 766 900 1098 814 
Q 1431 728 1753 728 
Q 2231 728 2486 893 
Q 2741 1059 2741 1369 
Q 2741 1688 2480 1852 
Q 2219 2016 1709 2016 
L 1228 2016 
L 1228 2791 
L 1734 2791 
Q 2188 2791 2409 2933 
Q 2631 3075 2631 3366 
Q 2631 3634 2415 3781 
Q 2200 3928 1806 3928 
Q 1516 3928 1219 3862 
Q 922 3797 628 3669 
L 628 4550 
Q 984 4650 1334 4700 
Q 1684 4750 2022 4750 
Q 2931 4750 3382 4451 
Q 3834 4153 3834 3553 
Q 3834 3144 3618 2883 
Q 3403 2622 2981 2516 
z
" transform="scale(0.015625)"/>
     </defs>
     <use xlink:href="#DejaVuSans-Bold-43"/>
     <use xlink:href="#DejaVuSans-Bold-6f" transform="translate(73.388672 0)"/>
     <use xlink:href="#DejaVuSans-Bold-6e" transform="translate(142.089844 0)"/>
     <use xlink:href="#DejaVuSans-Bold-76" transform="translate(213.28125 0)"/>
     <use xlink:href="#DejaVuSans-Bold-20" transform="translate(278.466797 0)"/>
     <use xlink:href="#DejaVuSans-Bold-33" transform="translate(313.28125 0)"/>
     <use xlink:href="#DejaVuSans-Bold-78" transform="translate(382.861328 0)"/>
     <use xlink:href="#DejaVuSans-Bold-33" transform="translate(447.363281 0)"/>
    </g>
   </g>
   <g id="patch_10">
    <path d="M 260.299182 224.649812 
Q 272.248906 224.649812 282.52158 224.649812 
" style="fill: none; stroke: #00d4aa; stroke-width: 1.5; stroke-linecap: round"/>
    <path d="M 278.52158 222.649812 
L 282.52158 224.649812 
L 278.52158 226.649812 
" style="fill: none; stroke: #00d4aa; stroke-width: 1.5; stroke-linecap: round"/>
   </g>
   <g id="text_3">
    <!-- BN -->
    <g style="fill: #eaeaea" transform="translate(320.854219 227.13325) scale(0.09 -0.09)">
     <defs>
      <path id="DejaVuSans-Bold-42" d="M 2456 2859 
Q 2741 2859 2887 2984 
Q 3034 3109 3034 3353 
Q 3034 3594 2887 3720 
Q 2741 3847 2456 3847 
L 1791 3847 
L 1791 2859 
L 2456 2859 
z
M 2497 819 
Q 2859 819 3042 972 
Q 3225 1125 3225 1434 
Q 3225 1738 3044 1889 
Q 2863 2041 2497 2041 
L 1791 2041 
L 1791 819 
L 2497 819 
z
M 3616 2497 
Q 4003 2384 4215 2081 
Q 4428 1778 4428 1338 
Q 4428 663 3972 331 
Q 3516 0 2584 0 
L 588 0 
L 588 4666 
L 2394 4666 
Q 3366 4666 3802 4372 
Q 4238 4078 4238 3431 
Q 4238 3091 4078 2852 
Q 3919 2613 3616 2497 
z
" transform="scale(0.015625)"/>
      <path id="DejaVuSans-Bold-4e" d="M 588 4666 
L 1931 4666 
L 3628 1466 
L 3628 4666 
L 4769 4666 
L 4769 0 
L 3425 0 
L 1728 3200 
L 1728 0 
L 588 0 
L 588 4666 
z
" transform="scale(0.015625)"/>
     </defs>
     <use xlink:href="#DejaVuSans-Bold-42"/>
     <use xlink:href="#DejaVuSans-Bold-4e" transform="translate(76.220703 0)"/>
    </g>
   </g>
   <g id="patch_11">
    <path d="M 371.899182 224.649812 
Q 383.848906 224.649812 394.12158 224.649812 
" style="fill: none; stroke: #00d4aa; stroke-width: 1.5; stroke-linecap: round"/>
    <path d="M 390.12158 222.649812 
L 394.12158 224.649812 
L 390.12158 226.649812 
" style="fill: none; stroke: #00d4aa; stroke-width: 1.5; stroke-linecap: round"/>
   </g>
   <g id="text_4">
    <!-- ReLU -->
    <g style="fill: #eaeaea" transform="translate(426.774375 227.13325) scale(0.09 -0.09)">
     <defs>
      <path id="DejaVuSans-Bold-52" d="M 2297 2597 
Q 2675 2597 2839 2737 
Q 3003 2878 3003 3200 
Q 3003 3519 2839 3656 
Q 2675 3794 2297 3794 
L 1791 3794 
L 1791 2597 
L 2297 2597 
z
M 1791 1766 
L 1791 0 
L 588 0 
L 588 4666 
L 2425 4666 
Q 3347 4666 3776 4356 
Q 4206 4047 4206 3378 
Q 4206 2916 3982 2619 
Q 3759 2322 3309 2181 
Q 3556 2125 3751 1926 
Q 3947 1728 4147 1325 
L 4800 0 
L 3519 0 
L 2950 1159 
Q 2778 1509 2601 1637 
Q 2425 1766 2131 1766 
L 1791 1766 
z
" transform="scale(0.015625)"/>
      <path id="DejaVuSans-Bold-65" d="M 4031 1759 
L 4031 1441 
L 1416 1441 
Q 1456 1047 1700 850 
Q 1944 653 2381 653 
Q 2734 653 3104 758 
Q 3475 863 3866 1075 
L 3866 213 
Q 3469 63 3072 -14 
Q 2675 -91 2278 -91 
Q 1328 -91 801 392 
Q 275 875 275 1747 
Q 275 2603 792 3093 
Q 1309 3584 2216 3584 
Q 3041 3584 3536 3087 
Q 4031 2591 4031 1759 
z
M 2881 2131 
Q 2881 2450 2695 2645 
Q 2509 2841 2209 2841 
Q 1884 2841 1681 2658 
Q 1478 2475 1428 2131 
L 2881 2131 
z
" transform="scale(0.015625)"/>
      <path id="DejaVuSans-Bold-4c" d="M 588 4666 
L 1791 4666 
L 1791 909 
L 3903 909 
L 3903 0 
L 588 0 
L 588 4666 
z
" transform="scale(0.015625)"/>
      <path id="DejaVuSans-Bold-55" d="M 588 4666 
L 1791 4666 
L 1791 1869 
Q 1791 1291 1980 1042 
Q 2169 794 2597 794 
Q 3028 794 3217 1042 
Q 3406 1291 3406 1869 
L 3406 4666 
L 4609 4666 
L 4609 1869 
Q 4609 878 4112 393 
Q 3616 -91 2597 -91 
Q 1581 -91 1084 393 
Q 588 878 588 1869 
L 588 4666 
z
" transform="scale(0.015625)"/>
     </defs>
     <use xlink:href="#DejaVuSans-Bold-52"/>
     <use xlink:href="#DejaVuSans-Bold-65" transform="translate(77.001953 0)"/>
     <use xlink:href="#DejaVuSans-Bold-4c" transform="translate(144.824219 0)"/>
     <use xlink:href="#DejaVuSans-Bold-55" transform="translate(204.919922 0)"/>
    </g>
   </g>
   <g id="patch_12">
    <path d="M 483.499182 224.649812 
Q 495.448906 224.649812 505.72158 224.649812 
" style="fill: none; stroke: #00d4aa; stroke-width: 1.5; stroke-linecap: round"/>
    <path d="M 501.72158 222.649812 
L 505.72158 224.649812 
L 501.72158 226.649812 
" style="fill: none; stroke: #00d4aa; stroke-width: 1.5; stroke-linecap: round"/>
   </g>
   <g id="text_5">
    <!-- Conv 3x3 -->
    <g style="fill: #eaeaea" transform="translate(541.937813 227.13325) scale(0.09 -0.09)">
     <use xlink:href="#DejaVuSans-Bold-43"/>
     <use xlink:href="#DejaVuSans-Bold-6f" transform="translate(73.388672 0)"/>
     <use xlink:href="#DejaVuSans-Bold-6e" transform="translate(142.089844 0)"/>
     <use xlink:href="#DejaVuSans-Bold-76" transform="translate(213.28125 0)"/>
     <use xlink:href="#DejaVuSans-Bold-20" transform="translate(278.466797 0)"/>
     <use xlink:href="#DejaVuSans-Bold-33" transform="translate(313.28125 0)"/>
     <use xlink:href="#DejaVuSans-Bold-78" transform="translate(382.861328 0)"/>
     <use xlink:href="#DejaVuSans-Bold-33" transform="translate(447.363281 0)"/>
    </g>
   </g>
   <g id="text_6">
    <!-- BN -->
    <g style="fill: #eaeaea" transform="translate(683.554219 227.13325) scale(0.09 -0.09)">
     <use xlink:href="#DejaVuSans-Bold-42"/>
     <use xlink:href="#DejaVuSans-Bold-4e" transform="translate(76.220703 0)"/>
    </g>
   </g>
   <g id="text_7">
    <!-- Skip Connection: F(x) + x -->
    <g style="fill: #00d4aa" transform="translate(354.216406 266.217188) scale(0.1 -0.1)">
     <defs>
      <path id="DejaVuSans-Bold-53" d="M 3834 4519 
L 3834 3531 
Q 3450 3703 3084 3790 
Q 2719 3878 2394 3878 
Q 1963 3878 1756 3759 
Q 1550 3641 1550 3391 
Q 1550 3203 1689 3098 
Q 1828 2994 2194 2919 
L 2706 2816 
Q 3484 2659 3812 2340 
Q 4141 2022 4141 1434 
Q 4141 663 3683 286 
Q 3225 -91 2284 -91 
Q 1841 -91 1394 -6 
Q 947 78 500 244 
L 500 1259 
Q 947 1022 1364 901 
Q 1781 781 2169 781 
Q 2563 781 2772 912 
Q 2981 1044 2981 1288 
Q 2981 1506 2839 1625 
Q 2697 1744 2272 1838 
L 1806 1941 
Q 1106 2091 782 2419 
Q 459 2747 459 3303 
Q 459 4000 909 4375 
Q 1359 4750 2203 4750 
Q 2588 4750 2994 4692 
Q 3400 4634 3834 4519 
z
" transform="scale(0.015625)"/>
      <path id="DejaVuSans-Bold-6b" d="M 538 4863 
L 1656 4863 
L 1656 2216 
L 2944 3500 
L 4244 3500 
L 2534 1894 
L 4378 0 
L 3022 0 
L 1656 1459 
L 1656 0 
L 538 0 
L 538 4863 
z
" transform="scale(0.015625)"/>
      <path id="DejaVuSans-Bold-69" d="M 538 3500 
L 1656 3500 
L 1656 0 
L 538 0 
L 538 3500 
z
M 538 4863 
L 1656 4863 
L 1656 3950 
L 538 3950 
L 538 4863 
z
" transform="scale(0.015625)"/>
      <path id="DejaVuSans-Bold-70" d="M 1656 506 
L 1656 -1331 
L 538 -1331 
L 538 3500 
L 1656 3500 
L 1656 2988 
Q 1888 3294 2169 3439 
Q 2450 3584 2816 3584 
Q 3463 3584 3878 3070 
Q 4294 2556 4294 1747 
Q 4294 938 3878 423 
Q 3463 -91 2816 -91 
Q 2450 -91 2169 54 
Q 1888 200 1656 506 
z
M 2400 2772 
Q 2041 2772 1848 2508 
Q 1656 2244 1656 1747 
Q 1656 1250 1848 986 
Q 2041 722 2400 722 
Q 2759 722 2948 984 
Q 3138 1247 3138 1747 
Q 3138 2247 2948 2509 
Q 2759 2772 2400 2772 
z
" transform="scale(0.015625)"/>
      <path id="DejaVuSans-Bold-63" d="M 3366 3391 
L 3366 2478 
Q 3138 2634 2908 2709 
Q 2678 2784 2431 2784 
Q 1963 2784 1702 2511 
Q 1441 2238 1441 1747 
Q 1441 1256 1702 982 
Q 1963 709 2431 709 
Q 2694 709 2930 787 
Q 3166 866 3366 1019 
L 3366 103 
Q 3103 6 2833 -42 
Q 2563 -91 2291 -91 
Q 1344 -91 809 395 
Q 275 881 275 1747 
Q 275 2613 809 3098 
Q 1344 3584 2291 3584 
Q 2566 3584 2833 3536 
Q 3100 3488 3366 3391 
z
" transform="scale(0.015625)"/>
      <path id="DejaVuSans-Bold-74" d="M 1759 4494 
L 1759 3500 
L 2913 3500 
L 2913 2700 
L 1759 2700 
L 1759 1216 
Q 1759 972 1856 886 
Q 1953 800 2241 800 
L 2816 800 
L 2816 0 
L 1856 0 
Q 1194 0 917 276 
Q 641 553 641 1216 
L 641 2700 
L 84 2700 
L 84 3500 
L 641 3500 
L 641 4494 
L 1759 4494 
z
" transform="scale(0.015625)"/>
      <path id="DejaVuSans-Bold-3a" d="M 716 3500 
L 1844 3500 
L 1844 2291 
L 716 2291 
L 716 3500 
z
M 716 1209 
L 1844 1209 
L 1844 0 
L 716 0 
L 716 1209 
z
" transform="scale(0.015625)"/>
      <path id="DejaVuSans-Bold-46" d="M 588 4666 
L 3834 4666 
L 3834 3756 
L 1791 3756 
L 1791 2888 
L 3713 2888 
L 3713 1978 
L 1791 1978 
L 1791 0 
L 588 0 
L 588 4666 
z
" transform="scale(0.015625)"/>
      <path id="DejaVuSans-Bold-28" d="M 2413 -844 
L 1484 -844 
Q 1006 -72 778 623 
Q 550 1319 550 2003 
Q 550 2688 779 3389 
Q 1009 4091 1484 4856 
L 2413 4856 
Q 2013 4116 1813 3408 
Q 1613 2700 1613 2009 
Q 1613 1319 1811 609 
Q 2009 -100 2413 -844 
z
" transform="scale(0.015625)"/>
      <path id="DejaVuSans-Bold-29" d="M 513 -844 
Q 913 -100 1113 609 
Q 1313 1319 1313 2009 
Q 1313 2700 1113 3408 
Q 913 4116 513 4856 
L 1441 4856 
Q 1916 4091 2145 3389 
Q 2375 2688 2375 2003 
Q 2375 1319 2147 623 
Q 1919 -72 1441 -844 
L 513 -844 
z
" transform="scale(0.015625)"/>
      <path id="DejaVuSans-Bold-2b" d="M 3053 4013 
L 3053 2375 
L 4684 2375 
L 4684 1638 
L 3053 1638 
L 3053 0 
L 2309 0 
L 2309 1638 
L 678 1638 
L 678 2375 
L 2309 2375 
L 2309 4013 
L 3053 4013 
z
" transform="scale(0.015625)"/>
     </defs>
     <use xlink:href="#DejaVuSans-Bold-53"/>
     <use xlink:href="#DejaVuSans-Bold-6b" transform="translate(72.021484 0)"/>
     <use xlink:href="#DejaVuSans-Bold-69" transform="translate(138.525391 0)"/>
     <use xlink:href="#DejaVuSans-Bold-70" transform="translate(172.802734 0)"/>
     <use xlink:href="#DejaVuSans-Bold-20" transform="translate(244.384766 0)"/>
     <use xlink:href="#DejaVuSans-Bold-43" transform="translate(279.199219 0)"/>
     <use xlink:href="#DejaVuSans-Bold-6f" transform="translate(352.587891 0)"/>
     <use xlink:href="#DejaVuSans-Bold-6e" transform="translate(421.289062 0)"/>
     <use xlink:href="#DejaVuSans-Bold-6e" transform="translate(492.480469 0)"/>
     <use xlink:href="#DejaVuSans-Bold-65" transform="translate(563.671875 0)"/>
     <use xlink:href="#DejaVuSans-Bold-63" transform="translate(631.494141 0)"/>
     <use xlink:href="#DejaVuSans-Bold-74" transform="translate(690.771484 0)"/>
     <use xlink:href="#DejaVuSans-Bold-69" transform="translate(738.574219 0)"/>
     <use xlink:href="#DejaVuSans-Bold-6f" transform="translate(772.851562 0)"/>
     <use xlink:href="#DejaVuSans-Bold-6e" transform="translate(841.552734 0)"/>
     <use xlink:href="#DejaVuSans-Bold-3a" transform="translate(912.744141 0)"/>
     <use xlink:href="#DejaVuSans-Bold-20" transform="translate(952.734375 0)"/>
     <use xlink:href="#DejaVuSans-Bold-46" transform="translate(987.548828 0)"/>
     <use xlink:href="#DejaVuSans-Bold-28" transform="translate(1055.859375 0)"/>
     <use xlink:href="#DejaVuSans-Bold-78" transform="translate(1101.5625 0)"/>
     <use xlink:href="#DejaVuSans-Bold-29" transform="translate(1166.064453 0)"/>
     <use xlink:href="#DejaVuSans-Bold-20" transform="translate(1211.767578 0)"/>
     <use xlink:href="#DejaVuSans-Bold-2b" transform="translate(1246.582031 0)"/>
     <use xlink:href="#DejaVuSans-Bold-20" transform="translate(1330.371094 0)"/>
     <use xlink:href="#DejaVuSans-Bold-78" transform="translate(1365.185547 0)"/>
    </g>
   </g>
   <g id="text_8">
    <!-- ReLU -->
    <g style="fill: #eaeaea" transform="translate(719.724375 272.87125) scale(0.09 -0.09)">
     <use xlink:href="#DejaVuSans-Bold-52"/>
     <use xlink:href="#DejaVuSans-Bold-65" transform="translate(77.001953 0)"/>
     <use xlink:href="#DejaVuSans-Bold-4c" transform="translate(144.824219 0)"/>
     <use xlink:href="#DejaVuSans-Bold-55" transform="translate(204.919922 0)"/>
    </g>
   </g>
   <g id="text_9">
    <!-- ResNet: Residual Learning Block -->
    <g style="fill: #00d4aa" transform="translate(157.904219 17.837812) scale(0.14 -0.14)">
     <defs>
      <path id="DejaVuSans-Bold-73" d="M 3272 3391 
L 3272 2541 
Q 2913 2691 2578 2766 
Q 2244 2841 1947 2841 
Q 1628 2841 1473 2761 
Q 1319 2681 1319 2516 
Q 1319 2381 1436 2309 
Q 1553 2238 1856 2203 
L 2053 2175 
Q 2913 2066 3209 1816 
Q 3506 1566 3506 1031 
Q 3506 472 3093 190 
Q 2681 -91 1863 -91 
Q 1516 -91 1145 -36 
Q 775 19 384 128 
L 384 978 
Q 719 816 1070 734 
Q 1422 653 1784 653 
Q 2113 653 2278 743 
Q 2444 834 2444 1013 
Q 2444 1163 2330 1236 
Q 2216 1309 1875 1350 
L 1678 1375 
Q 931 1469 631 1722 
Q 331 1975 331 2491 
Q 331 3047 712 3315 
Q 1094 3584 1881 3584 
Q 2191 3584 2531 3537 
Q 2872 3491 3272 3391 
z
" transform="scale(0.015625)"/>
      <path id="DejaVuSans-Bold-64" d="M 2919 2988 
L 2919 4863 
L 4044 4863 
L 4044 0 
L 2919 0 
L 2919 506 
Q 2688 197 2409 53 
Q 2131 -91 1766 -91 
Q 1119 -91 703 423 
Q 288 938 288 1747 
Q 288 2556 703 3070 
Q 1119 3584 1766 3584 
Q 2128 3584 2408 3439 
Q 2688 3294 2919 2988 
z
M 2181 722 
Q 2541 722 2730 984 
Q 2919 1247 2919 1747 
Q 2919 2247 2730 2509 
Q 2541 2772 2181 2772 
Q 1825 2772 1636 2509 
Q 1447 2247 1447 1747 
Q 1447 1247 1636 984 
Q 1825 722 2181 722 
z
" transform="scale(0.015625)"/>
      <path id="DejaVuSans-Bold-75" d="M 500 1363 
L 500 3500 
L 1625 3500 
L 1625 3150 
Q 1625 2866 1622 2436 
Q 1619 2006 1619 1863 
Q 1619 1441 1641 1255 
Q 1663 1069 1716 984 
Q 1784 875 1895 815 
Q 2006 756 2150 756 
Q 2500 756 2700 1025 
Q 2900 1294 2900 1772 
L 2900 3500 
L 4019 3500 
L 4019 0 
L 2900 0 
L 2900 506 
Q 2647 200 2364 54 
Q 2081 -91 1741 -91 
Q 1134 -91 817 281 
Q 500 653 500 1363 
z
" transform="scale(0.015625)"/>
      <path id="DejaVuSans-Bold-61" d="M 2106 1575 
Q 1756 1575 1579 1456 
Q 1403 1338 1403 1106 
Q 1403 894 1545 773 
Q 1688 653 1941 653 
Q 2256 653 2472 879 
Q 2688 1106 2688 1447 
L 2688 1575 
L 2106 1575 
z
M 3816 1997 
L 3816 0 
L 2688 0 
L 2688 519 
Q 2463 200 2181 54 
Q 1900 -91 1497 -91 
Q 953 -91 614 226 
Q 275 544 275 1050 
Q 275 1666 698 1953 
Q 1122 2241 2028 2241 
L 2688 2241 
L 2688 2328 
Q 2688 2594 2478 2717 
Q 2269 2841 1825 2841 
Q 1466 2841 1156 2769 
Q 847 2697 581 2553 
L 581 3406 
Q 941 3494 1303 3539 
Q 1666 3584 2028 3584 
Q 2975 3584 3395 3211 
Q 3816 2838 3816 1997 
z
" transform="scale(0.015625)"/>
      <path id="DejaVuSans-Bold-6c" d="M 538 4863 
L 1656 4863 
L 1656 0 
L 538 0 
L 538 4863 
z
" transform="scale(0.015625)"/>
      <path id="DejaVuSans-Bold-72" d="M 3138 2547 
Q 2991 2616 2845 2648 
Q 2700 2681 2553 2681 
Q 2122 2681 1889 2404 
Q 1656 2128 1656 1613 
L 1656 0 
L 538 0 
L 538 3500 
L 1656 3500 
L 1656 2925 
Q 1872 3269 2151 3426 
Q 2431 3584 2822 3584 
Q 2878 3584 2943 3579 
Q 3009 3575 3134 3559 
L 3138 2547 
z
" transform="scale(0.015625)"/>
      <path id="DejaVuSans-Bold-67" d="M 2919 594 
Q 2688 288 2409 144 
Q 2131 0 1766 0 
Q 1125 0 706 504 
Q 288 1009 288 1791 
Q 288 2575 706 3076 
Q 1125 3578 1766 3578 
Q 2131 3578 2409 3434 
Q 2688 3291 2919 2981 
L 2919 3500 
L 4044 3500 
L 4044 353 
Q 4044 -491 3511 -936 
Q 2978 -1381 1966 -1381 
Q 1638 -1381 1331 -1331 
Q 1025 -1281 716 -1178 
L 716 -306 
Q 1009 -475 1290 -558 
Q 1572 -641 1856 -641 
Q 2406 -641 2662 -400 
Q 2919 -159 2919 353 
L 2919 594 
z
M 2181 2772 
Q 1834 2772 1640 2515 
Q 1447 2259 1447 1791 
Q 1447 1309 1634 1061 
Q 1822 813 2181 813 
Q 2531 813 2725 1069 
Q 2919 1325 2919 1791 
Q 2919 2259 2725 2515 
Q 2531 2772 2181 2772 
z
" transform="scale(0.015625)"/>
     </defs>
     <use xlink:href="#DejaVuSans-Bold-52"/>
     <use xlink:href="#DejaVuSans-Bold-65" transform="translate(77.001953 0)"/>
     <use xlink:href="#DejaVuSans-Bold-73" transform="translate(144.824219 0)"/>
     <use xlink:href="#DejaVuSans-Bold-4e" transform="translate(204.345703 0)"/>
     <use xlink:href="#DejaVuSans-Bold-65" transform="translate(288.037109 0)"/>
     <use xlink:href="#DejaVuSans-Bold-74" transform="translate(355.859375 0)"/>
     <use xlink:href="#DejaVuSans-Bold-3a" transform="translate(403.662109 0)"/>
     <use xlink:href="#DejaVuSans-Bold-20" transform="translate(443.652344 0)"/>
     <use xlink:href="#DejaVuSans-Bold-52" transform="translate(478.466797 0)"/>
     <use xlink:href="#DejaVuSans-Bold-65" transform="translate(555.46875 0)"/>
     <use xlink:href="#DejaVuSans-Bold-73" transform="translate(623.291016 0)"/>
     <use xlink:href="#DejaVuSans-Bold-69" transform="translate(682.8125 0)"/>
     <use xlink:href="#DejaVuSans-Bold-64" transform="translate(717.089844 0)"/>
     <use xlink:href="#DejaVuSans-Bold-75" transform="translate(788.671875 0)"/>
     <use xlink:href="#DejaVuSans-Bold-61" transform="translate(859.863281 0)"/>
     <use xlink:href="#DejaVuSans-Bold-6c" transform="translate(927.34375 0)"/>
     <use xlink:href="#DejaVuSans-Bold-20" transform="translate(961.621094 0)"/>
     <use xlink:href="#DejaVuSans-Bold-4c" transform="translate(996.435547 0)"/>
     <use xlink:href="#DejaVuSans-Bold-65" transform="translate(1060.15625 0)"/>
     <use xlink:href="#DejaVuSans-Bold-61" transform="translate(1127.978516 0)"/>
     <use xlink:href="#DejaVuSans-Bold-72" transform="translate(1195.458984 0)"/>
     <use xlink:href="#DejaVuSans-Bold-6e" transform="translate(1244.775391 0)"/>
     <use xlink:href="#DejaVuSans-Bold-69" transform="translate(1315.966797 0)"/>
     <use xlink:href="#DejaVuSans-Bold-6e" transform="translate(1350.244141 0)"/>
     <use xlink:href="#DejaVuSans-Bold-67" transform="translate(1421.435547 0)"/>
     <use xlink:href="#DejaVuSans-Bold-20" transform="translate(1493.017578 0)"/>
     <use xlink:href="#DejaVuSans-Bold-42" transform="translate(1527.832031 0)"/>
     <use xlink:href="#DejaVuSans-Bold-6c" transform="translate(1604.052734 0)"/>
     <use xlink:href="#DejaVuSans-Bold-6f" transform="translate(1638.330078 0)"/>
     <use xlink:href="#DejaVuSans-Bold-63" transform="translate(1707.03125 0)"/>
     <use xlink:href="#DejaVuSans-Bold-6b" transform="translate(1766.308594 0)"/>
    </g>
   </g>
  </g>
 </g>
 <defs>
  <clipPath id="pe0337c9528">
   <rect x="7.2" y="27.837812" width="558" height="277.2"/>
  </clipPath>
 </defs>
</svg>
