<?xml version="1.0" encoding="utf-8" standalone="no"?>
<!DOCTYPE svg PUBLIC "-//W3C//DTD SVG 1.1//EN"
  "http://www.w3.org/Graphics/SVG/1.1/DTD/svg11.dtd">
<svg xmlns:xlink="http://www.w3.org/1999/xlink" width="684pt" height="423.117812pt" viewBox="0 0 684 423.117812" xmlns="http://www.w3.org/2000/svg" version="1.1">
 <metadata>
  <rdf:RDF xmlns:dc="http://purl.org/dc/elements/1.1/" xmlns:cc="http://creativecommons.org/ns#" xmlns:rdf="http://www.w3.org/1999/02/22-rdf-syntax-ns#">
   <cc:Work>
    <dc:type rdf:resource="http://purl.org/dc/dcmitype/StillImage"/>
    <dc:date>2026-05-26T08:38:46.889834</dc:date>
    <dc:format>image/svg+xml</dc:format>
    <dc:creator>
     <cc:Agent>
      <dc:title>Matplotlib v3.10.9, https://matplotlib.org/</dc:title>
     </cc:Agent>
    </dc:creator>
   </cc:Work>
  </rdf:RDF>
 </metadata>
 <defs>
  <style type="text/css">*{stroke-linejoin: round; stroke-linecap: butt}</style>
 </defs>
 <g id="figure_1">
  <g id="patch_1">
   <path d="M 0 423.117812 
L 684 423.117812 
L 684 0 
L 0 0 
z
" style="fill: #1a1a2e"/>
  </g>
  <g id="axes_1">
   <g id="patch_2">
    <path d="M 49.3848 203.249972 
L 199.3752 203.249972 
Q 209.4192 203.249972 209.4192 197.428772 
L 209.4192 176.472452 
Q 209.4192 170.651252 199.3752 170.651252 
L 49.3848 170.651252 
Q 39.3408 170.651252 39.3408 176.472452 
L 39.3408 197.428772 
Q 39.3408 203.249972 49.3848 203.249972 
z
" clip-path="url(#pd74d969e74)" style="fill: #1565c0; stroke: #555555; stroke-width: 1.5; stroke-linejoin: miter"/>
   </g>
   <g id="patch_3">
    <path d="M 49.3848 261.461973 
L 199.3752 261.461973 
Q 209.4192 261.461973 209.4192 255.640772 
L 209.4192 238.565252 
Q 209.4192 232.744052 199.3752 232.744052 
L 49.3848 232.744052 
Q 39.3408 232.744052 39.3408 238.565252 
L 39.3408 255.640772 
Q 39.3408 261.461973 49.3848 261.461973 
z
" clip-path="url(#pd74d969e74)" style="fill: #6a1b9a; stroke: #555555; stroke-width: 1.5; stroke-linejoin: miter"/>
   </g>
   <g id="patch_4">
    <path d="M 283.7448 269.223572 
L 433.7352 269.223572 
Q 443.7792 269.223572 443.7792 263.402372 
L 443.7792 242.446052 
Q 443.7792 236.624852 433.7352 236.624852 
L 283.7448 236.624852 
Q 273.7008 236.624852 273.7008 242.446052 
L 273.7008 263.402372 
Q 273.7008 269.223572 283.7448 269.223572 
z
" clip-path="url(#pd74d969e74)" style="fill: #ff8a65; stroke: #555555; stroke-width: 1.5; stroke-linejoin: miter"/>
   </g>
   <g id="patch_5">
    <path d="M 283.7448 331.316372 
L 433.7352 331.316372 
Q 443.7792 331.316372 443.7792 325.495172 
L 443.7792 308.419652 
Q 443.7792 302.598452 433.7352 302.598452 
L 283.7448 302.598452 
Q 273.7008 302.598452 273.7008 308.419652 
L 273.7008 325.495172 
Q 273.7008 331.316372 283.7448 331.316372 
z
" clip-path="url(#pd74d969e74)" style="fill: #c62828; stroke: #555555; stroke-width: 1.5; stroke-linejoin: miter"/>
   </g>
   <g id="patch_6">
    <path d="M 283.7448 385.647572 
L 433.7352 385.647572 
Q 443.7792 385.647572 443.7792 379.826372 
L 443.7792 366.631652 
Q 443.7792 360.810452 433.7352 360.810452 
L 283.7448 360.810452 
Q 273.7008 360.810452 273.7008 366.631652 
L 273.7008 379.826372 
Q 273.7008 385.647572 283.7448 385.647572 
z
" clip-path="url(#pd74d969e74)" style="fill: #2e7d32; stroke: #555555; stroke-width: 1.5; stroke-linejoin: miter"/>
   </g>
   <g id="patch_7">
    <path d="M 49.3848 385.647572 
L 199.3752 385.647572 
Q 209.4192 385.647572 209.4192 379.826372 
L 209.4192 366.631652 
Q 209.4192 360.810452 199.3752 360.810452 
L 49.3848 360.810452 
Q 39.3408 360.810452 39.3408 366.631652 
L 39.3408 379.826372 
Q 39.3408 385.647572 49.3848 385.647572 
z
" clip-path="url(#pd74d969e74)" style="fill: #455a64; stroke: #555555; stroke-width: 1.5; stroke-linejoin: miter"/>
   </g>
   <g id="patch_8">
    <path d="M 518.1048 393.409172 
L 668.0952 393.409172 
Q 678.1392 393.409172 678.1392 387.587972 
L 678.1392 362.750852 
Q 678.1392 356.929652 668.0952 356.929652 
L 518.1048 356.929652 
Q 508.0608 356.929652 508.0608 362.750852 
L 508.0608 387.587972 
Q 508.0608 393.409172 518.1048 393.409172 
z
" clip-path="url(#pd74d969e74)" style="fill: #2e7d32; stroke: #555555; stroke-width: 1.5; stroke-linejoin: miter"/>
   </g>
   <g id="text_1">
    <!-- SFT Model -->
    <g style="fill: #eaeaea" transform="translate(98.043047 184.395034) scale(0.09 -0.09)">
     <defs>
      <path id="DejaVuSans-Bold-53" d="M 3834 4519 
L 3834 3531 
Q 3450 3703 3084 3790 
Q 2719 3878 2394 3878 
Q 1963 3878 1756 3759 
Q 1550 3641 1550 3391 
Q 1550 3203 1689 3098 
Q 1828 2994 2194 2919 
L 2706 2816 
Q 3484 2659 3812 2340 
Q 4141 2022 4141 1434 
Q 4141 663 3683 286 
Q 3225 -91 2284 -91 
Q 1841 -91 1394 -6 
Q 947 78 500 244 
L 500 1259 
Q 947 1022 1364 901 
Q 1781 781 2169 781 
Q 2563 781 2772 912 
Q 2981 1044 2981 1288 
Q 2981 1506 2839 1625 
Q 2697 1744 2272 1838 
L 1806 1941 
Q 1106 2091 782 2419 
Q 459 2747 459 3303 
Q 459 4000 909 4375 
Q 1359 4750 2203 4750 
Q 2588 4750 2994 4692 
Q 3400 4634 3834 4519 
z
" transform="scale(0.015625)"/>
      <path id="DejaVuSans-Bold-46" d="M 588 4666 
L 3834 4666 
L 3834 3756 
L 1791 3756 
L 1791 2888 
L 3713 2888 
L 3713 1978 
L 1791 1978 
L 1791 0 
L 588 0 
L 588 4666 
z
" transform="scale(0.015625)"/>
      <path id="DejaVuSans-Bold-54" d="M 31 4666 
L 4331 4666 
L 4331 3756 
L 2784 3756 
L 2784 0 
L 1581 0 
L 1581 3756 
L 31 3756 
L 31 4666 
z
" transform="scale(0.015625)"/>
      <path id="DejaVuSans-Bold-20" transform="scale(0.015625)"/>
      <path id="DejaVuSans-Bold-4d" d="M 588 4666 
L 2119 4666 
L 3181 2169 
L 4250 4666 
L 5778 4666 
L 5778 0 
L 4641 0 
L 4641 3413 
L 3566 897 
L 2803 897 
L 1728 3413 
L 1728 0 
L 588 0 
L 588 4666 
z
" transform="scale(0.015625)"/>
      <path id="DejaVuSans-Bold-6f" d="M 2203 2784 
Q 1831 2784 1636 2517 
Q 1441 2250 1441 1747 
Q 1441 1244 1636 976 
Q 1831 709 2203 709 
Q 2569 709 2762 976 
Q 2956 1244 2956 1747 
Q 2956 2250 2762 2517 
Q 2569 2784 2203 2784 
z
M 2203 3584 
Q 3106 3584 3614 3096 
Q 4122 2609 4122 1747 
Q 4122 884 3614 396 
Q 3106 -91 2203 -91 
Q 1297 -91 786 396 
Q 275 884 275 1747 
Q 275 2609 786 3096 
Q 1297 3584 2203 3584 
z
" transform="scale(0.015625)"/>
      <path id="DejaVuSans-Bold-64" d="M 2919 2988 
L 2919 4863 
L 4044 4863 
L 4044 0 
L 2919 0 
L 2919 506 
Q 2688 197 2409 53 
Q 2131 -91 1766 -91 
Q 1119 -91 703 423 
Q 288 938 288 1747 
Q 288 2556 703 3070 
Q 1119 3584 1766 3584 
Q 2128 3584 2408 3439 
Q 2688 3294 2919 2988 
z
M 2181 722 
Q 2541 722 2730 984 
Q 2919 1247 2919 1747 
Q 2919 2247 2730 2509 
Q 2541 2772 2181 2772 
Q 1825 2772 1636 2509 
Q 1447 2247 1447 1747 
Q 1447 1247 1636 984 
Q 1825 722 2181 722 
z
" transform="scale(0.015625)"/>
      <path id="DejaVuSans-Bold-65" d="M 4031 1759 
L 4031 1441 
L 1416 1441 
Q 1456 1047 1700 850 
Q 1944 653 2381 653 
Q 2734 653 3104 758 
Q 3475 863 3866 1075 
L 3866 213 
Q 3469 63 3072 -14 
Q 2675 -91 2278 -91 
Q 1328 -91 801 392 
Q 275 875 275 1747 
Q 275 2603 792 3093 
Q 1309 3584 2216 3584 
Q 3041 3584 3536 3087 
Q 4031 2591 4031 1759 
z
M 2881 2131 
Q 2881 2450 2695 2645 
Q 2509 2841 2209 2841 
Q 1884 2841 1681 2658 
Q 1478 2475 1428 2131 
L 2881 2131 
z
" transform="scale(0.015625)"/>
      <path id="DejaVuSans-Bold-6c" d="M 538 4863 
L 1656 4863 
L 1656 0 
L 538 0 
L 538 4863 
z
" transform="scale(0.015625)"/>
     </defs>
     <use xlink:href="#DejaVuSans-Bold-53"/>
     <use xlink:href="#DejaVuSans-Bold-46" transform="translate(72.021484 0)"/>
     <use xlink:href="#DejaVuSans-Bold-54" transform="translate(140.332031 0)"/>
     <use xlink:href="#DejaVuSans-Bold-20" transform="translate(208.544922 0)"/>
     <use xlink:href="#DejaVuSans-Bold-4d" transform="translate(243.359375 0)"/>
     <use xlink:href="#DejaVuSans-Bold-6f" transform="translate(342.871094 0)"/>
     <use xlink:href="#DejaVuSans-Bold-64" transform="translate(411.572266 0)"/>
     <use xlink:href="#DejaVuSans-Bold-65" transform="translate(483.154297 0)"/>
     <use xlink:href="#DejaVuSans-Bold-6c" transform="translate(550.976562 0)"/>
    </g>
    <!-- (Supervised) -->
    <g style="fill: #eaeaea" transform="translate(91.902656 194.473066) scale(0.09 -0.09)">
     <defs>
      <path id="DejaVuSans-Bold-28" d="M 2413 -844 
L 1484 -844 
Q 1006 -72 778 623 
Q 550 1319 550 2003 
Q 550 2688 779 3389 
Q 1009 4091 1484 4856 
L 2413 4856 
Q 2013 4116 1813 3408 
Q 1613 2700 1613 2009 
Q 1613 1319 1811 609 
Q 2009 -100 2413 -844 
z
" transform="scale(0.015625)"/>
      <path id="DejaVuSans-Bold-75" d="M 500 1363 
L 500 3500 
L 1625 3500 
L 1625 3150 
Q 1625 2866 1622 2436 
Q 1619 2006 1619 1863 
Q 1619 1441 1641 1255 
Q 1663 1069 1716 984 
Q 1784 875 1895 815 
Q 2006 756 2150 756 
Q 2500 756 2700 1025 
Q 2900 1294 2900 1772 
L 2900 3500 
L 4019 3500 
L 4019 0 
L 2900 0 
L 2900 506 
Q 2647 200 2364 54 
Q 2081 -91 1741 -91 
Q 1134 -91 817 281 
Q 500 653 500 1363 
z
" transform="scale(0.015625)"/>
      <path id="DejaVuSans-Bold-70" d="M 1656 506 
L 1656 -1331 
L 538 -1331 
L 538 3500 
L 1656 3500 
L 1656 2988 
Q 1888 3294 2169 3439 
Q 2450 3584 2816 3584 
Q 3463 3584 3878 3070 
Q 4294 2556 4294 1747 
Q 4294 938 3878 423 
Q 3463 -91 2816 -91 
Q 2450 -91 2169 54 
Q 1888 200 1656 506 
z
M 2400 2772 
Q 2041 2772 1848 2508 
Q 1656 2244 1656 1747 
Q 1656 1250 1848 986 
Q 2041 722 2400 722 
Q 2759 722 2948 984 
Q 3138 1247 3138 1747 
Q 3138 2247 2948 2509 
Q 2759 2772 2400 2772 
z
" transform="scale(0.015625)"/>
      <path id="DejaVuSans-Bold-72" d="M 3138 2547 
Q 2991 2616 2845 2648 
Q 2700 2681 2553 2681 
Q 2122 2681 1889 2404 
Q 1656 2128 1656 1613 
L 1656 0 
L 538 0 
L 538 3500 
L 1656 3500 
L 1656 2925 
Q 1872 3269 2151 3426 
Q 2431 3584 2822 3584 
Q 2878 3584 2943 3579 
Q 3009 3575 3134 3559 
L 3138 2547 
z
" transform="scale(0.015625)"/>
      <path id="DejaVuSans-Bold-76" d="M 97 3500 
L 1216 3500 
L 2088 1081 
L 2956 3500 
L 4078 3500 
L 2700 0 
L 1472 0 
L 97 3500 
z
" transform="scale(0.015625)"/>
      <path id="DejaVuSans-Bold-69" d="M 538 3500 
L 1656 3500 
L 1656 0 
L 538 0 
L 538 3500 
z
M 538 4863 
L 1656 4863 
L 1656 3950 
L 538 3950 
L 538 4863 
z
" transform="scale(0.015625)"/>
      <path id="DejaVuSans-Bold-73" d="M 3272 3391 
L 3272 2541 
Q 2913 2691 2578 2766 
Q 2244 2841 1947 2841 
Q 1628 2841 1473 2761 
Q 1319 2681 1319 2516 
Q 1319 2381 1436 2309 
Q 1553 2238 1856 2203 
L 2053 2175 
Q 2913 2066 3209 1816 
Q 3506 1566 3506 1031 
Q 3506 472 3093 190 
Q 2681 -91 1863 -91 
Q 1516 -91 1145 -36 
Q 775 19 384 128 
L 384 978 
Q 719 816 1070 734 
Q 1422 653 1784 653 
Q 2113 653 2278 743 
Q 2444 834 2444 1013 
Q 2444 1163 2330 1236 
Q 2216 1309 1875 1350 
L 1678 1375 
Q 931 1469 631 1722 
Q 331 1975 331 2491 
Q 331 3047 712 3315 
Q 1094 3584 1881 3584 
Q 2191 3584 2531 3537 
Q 2872 3491 3272 3391 
z
" transform="scale(0.015625)"/>
      <path id="DejaVuSans-Bold-29" d="M 513 -844 
Q 913 -100 1113 609 
Q 1313 1319 1313 2009 
Q 1313 2700 1113 3408 
Q 913 4116 513 4856 
L 1441 4856 
Q 1916 4091 2145 3389 
Q 2375 2688 2375 2003 
Q 2375 1319 2147 623 
Q 1919 -72 1441 -844 
L 513 -844 
z
" transform="scale(0.015625)"/>
     </defs>
     <use xlink:href="#DejaVuSans-Bold-28"/>
     <use xlink:href="#DejaVuSans-Bold-53" transform="translate(45.703125 0)"/>
     <use xlink:href="#DejaVuSans-Bold-75" transform="translate(117.724609 0)"/>
     <use xlink:href="#DejaVuSans-Bold-70" transform="translate(188.916016 0)"/>
     <use xlink:href="#DejaVuSans-Bold-65" transform="translate(260.498047 0)"/>
     <use xlink:href="#DejaVuSans-Bold-72" transform="translate(328.320312 0)"/>
     <use xlink:href="#DejaVuSans-Bold-76" transform="translate(377.636719 0)"/>
     <use xlink:href="#DejaVuSans-Bold-69" transform="translate(442.822266 0)"/>
     <use xlink:href="#DejaVuSans-Bold-73" transform="translate(477.099609 0)"/>
     <use xlink:href="#DejaVuSans-Bold-65" transform="translate(536.621094 0)"/>
     <use xlink:href="#DejaVuSans-Bold-64" transform="translate(604.443359 0)"/>
     <use xlink:href="#DejaVuSans-Bold-29" transform="translate(676.025391 0)"/>
    </g>
   </g>
   <g id="patch_9">
    <path d="M 124.38 204.473429 
Q 124.38 216.056478 124.38 225.962477 
" style="fill: none; stroke: #00d4aa; stroke-width: 1.5; stroke-linecap: round"/>
    <path d="M 126.38 221.962477 
L 124.38 225.962477 
L 122.38 221.962477 
" style="fill: none; stroke: #00d4aa; stroke-width: 1.5; stroke-linecap: round"/>
   </g>
   <g id="text_2">
    <!-- Generate Responses -->
    <g style="fill: #eaeaea" transform="translate(72.232734 249.58645) scale(0.09 -0.09)">
     <defs>
      <path id="DejaVuSans-Bold-47" d="M 4781 347 
Q 4331 128 3847 18 
Q 3363 -91 2847 -91 
Q 1681 -91 1000 561 
Q 319 1213 319 2328 
Q 319 3456 1012 4103 
Q 1706 4750 2913 4750 
Q 3378 4750 3804 4662 
Q 4231 4575 4609 4403 
L 4609 3438 
Q 4219 3659 3833 3768 
Q 3447 3878 3059 3878 
Q 2341 3878 1952 3476 
Q 1563 3075 1563 2328 
Q 1563 1588 1938 1184 
Q 2313 781 3003 781 
Q 3191 781 3352 804 
Q 3513 828 3641 878 
L 3641 1784 
L 2906 1784 
L 2906 2591 
L 4781 2591 
L 4781 347 
z
" transform="scale(0.015625)"/>
      <path id="DejaVuSans-Bold-6e" d="M 4056 2131 
L 4056 0 
L 2931 0 
L 2931 347 
L 2931 1631 
Q 2931 2084 2911 2256 
Q 2891 2428 2841 2509 
Q 2775 2619 2662 2680 
Q 2550 2741 2406 2741 
Q 2056 2741 1856 2470 
Q 1656 2200 1656 1722 
L 1656 0 
L 538 0 
L 538 3500 
L 1656 3500 
L 1656 2988 
Q 1909 3294 2193 3439 
Q 2478 3584 2822 3584 
Q 3428 3584 3742 3212 
Q 4056 2841 4056 2131 
z
" transform="scale(0.015625)"/>
      <path id="DejaVuSans-Bold-61" d="M 2106 1575 
Q 1756 1575 1579 1456 
Q 1403 1338 1403 1106 
Q 1403 894 1545 773 
Q 1688 653 1941 653 
Q 2256 653 2472 879 
Q 2688 1106 2688 1447 
L 2688 1575 
L 2106 1575 
z
M 3816 1997 
L 3816 0 
L 2688 0 
L 2688 519 
Q 2463 200 2181 54 
Q 1900 -91 1497 -91 
Q 953 -91 614 226 
Q 275 544 275 1050 
Q 275 1666 698 1953 
Q 1122 2241 2028 2241 
L 2688 2241 
L 2688 2328 
Q 2688 2594 2478 2717 
Q 2269 2841 1825 2841 
Q 1466 2841 1156 2769 
Q 847 2697 581 2553 
L 581 3406 
Q 941 3494 1303 3539 
Q 1666 3584 2028 3584 
Q 2975 3584 3395 3211 
Q 3816 2838 3816 1997 
z
" transform="scale(0.015625)"/>
      <path id="DejaVuSans-Bold-74" d="M 1759 4494 
L 1759 3500 
L 2913 3500 
L 2913 2700 
L 1759 2700 
L 1759 1216 
Q 1759 972 1856 886 
Q 1953 800 2241 800 
L 2816 800 
L 2816 0 
L 1856 0 
Q 1194 0 917 276 
Q 641 553 641 1216 
L 641 2700 
L 84 2700 
L 84 3500 
L 641 3500 
L 641 4494 
L 1759 4494 
z
" transform="scale(0.015625)"/>
      <path id="DejaVuSans-Bold-52" d="M 2297 2597 
Q 2675 2597 2839 2737 
Q 3003 2878 3003 3200 
Q 3003 3519 2839 3656 
Q 2675 3794 2297 3794 
L 1791 3794 
L 1791 2597 
L 2297 2597 
z
M 1791 1766 
L 1791 0 
L 588 0 
L 588 4666 
L 2425 4666 
Q 3347 4666 3776 4356 
Q 4206 4047 4206 3378 
Q 4206 2916 3982 2619 
Q 3759 2322 3309 2181 
Q 3556 2125 3751 1926 
Q 3947 1728 4147 1325 
L 4800 0 
L 3519 0 
L 2950 1159 
Q 2778 1509 2601 1637 
Q 2425 1766 2131 1766 
L 1791 1766 
z
" transform="scale(0.015625)"/>
     </defs>
     <use xlink:href="#DejaVuSans-Bold-47"/>
     <use xlink:href="#DejaVuSans-Bold-65" transform="translate(82.080078 0)"/>
     <use xlink:href="#DejaVuSans-Bold-6e" transform="translate(149.902344 0)"/>
     <use xlink:href="#DejaVuSans-Bold-65" transform="translate(221.09375 0)"/>
     <use xlink:href="#DejaVuSans-Bold-72" transform="translate(288.916016 0)"/>
     <use xlink:href="#DejaVuSans-Bold-61" transform="translate(338.232422 0)"/>
     <use xlink:href="#DejaVuSans-Bold-74" transform="translate(405.712891 0)"/>
     <use xlink:href="#DejaVuSans-Bold-65" transform="translate(453.515625 0)"/>
     <use xlink:href="#DejaVuSans-Bold-20" transform="translate(521.337891 0)"/>
     <use xlink:href="#DejaVuSans-Bold-52" transform="translate(556.152344 0)"/>
     <use xlink:href="#DejaVuSans-Bold-65" transform="translate(633.154297 0)"/>
     <use xlink:href="#DejaVuSans-Bold-73" transform="translate(700.976562 0)"/>
     <use xlink:href="#DejaVuSans-Bold-70" transform="translate(760.498047 0)"/>
     <use xlink:href="#DejaVuSans-Bold-6f" transform="translate(832.080078 0)"/>
     <use xlink:href="#DejaVuSans-Bold-6e" transform="translate(900.78125 0)"/>
     <use xlink:href="#DejaVuSans-Bold-73" transform="translate(971.972656 0)"/>
     <use xlink:href="#DejaVuSans-Bold-65" transform="translate(1031.494141 0)"/>
     <use xlink:href="#DejaVuSans-Bold-73" transform="translate(1099.316406 0)"/>
    </g>
   </g>
   <g id="patch_10">
    <path d="M 210.078501 249.043412 
Q 241.558104 249.043412 271.360657 249.043412 
" style="fill: none; stroke: #00d4aa; stroke-width: 1.5; stroke-linecap: round"/>
    <path d="M 267.360657 247.043412 
L 271.360657 249.043412 
L 267.360657 251.043412 
" style="fill: none; stroke: #00d4aa; stroke-width: 1.5; stroke-linecap: round"/>
   </g>
   <g id="text_3">
    <!-- Human Ranking -->
    <g style="fill: #eaeaea" transform="translate(318.609844 250.208322) scale(0.09 -0.09)">
     <defs>
      <path id="DejaVuSans-Bold-48" d="M 588 4666 
L 1791 4666 
L 1791 2888 
L 3566 2888 
L 3566 4666 
L 4769 4666 
L 4769 0 
L 3566 0 
L 3566 1978 
L 1791 1978 
L 1791 0 
L 588 0 
L 588 4666 
z
" transform="scale(0.015625)"/>
      <path id="DejaVuSans-Bold-6d" d="M 3781 2919 
Q 3994 3244 4286 3414 
Q 4578 3584 4928 3584 
Q 5531 3584 5847 3212 
Q 6163 2841 6163 2131 
L 6163 0 
L 5038 0 
L 5038 1825 
Q 5041 1866 5042 1909 
Q 5044 1953 5044 2034 
Q 5044 2406 4934 2573 
Q 4825 2741 4581 2741 
Q 4263 2741 4089 2478 
Q 3916 2216 3909 1719 
L 3909 0 
L 2784 0 
L 2784 1825 
Q 2784 2406 2684 2573 
Q 2584 2741 2328 2741 
Q 2006 2741 1831 2477 
Q 1656 2213 1656 1722 
L 1656 0 
L 531 0 
L 531 3500 
L 1656 3500 
L 1656 2988 
Q 1863 3284 2130 3434 
Q 2397 3584 2719 3584 
Q 3081 3584 3359 3409 
Q 3638 3234 3781 2919 
z
" transform="scale(0.015625)"/>
      <path id="DejaVuSans-Bold-6b" d="M 538 4863 
L 1656 4863 
L 1656 2216 
L 2944 3500 
L 4244 3500 
L 2534 1894 
L 4378 0 
L 3022 0 
L 1656 1459 
L 1656 0 
L 538 0 
L 538 4863 
z
" transform="scale(0.015625)"/>
      <path id="DejaVuSans-Bold-67" d="M 2919 594 
Q 2688 288 2409 144 
Q 2131 0 1766 0 
Q 1125 0 706 504 
Q 288 1009 288 1791 
Q 288 2575 706 3076 
Q 1125 3578 1766 3578 
Q 2131 3578 2409 3434 
Q 2688 3291 2919 2981 
L 2919 3500 
L 4044 3500 
L 4044 353 
Q 4044 -491 3511 -936 
Q 2978 -1381 1966 -1381 
Q 1638 -1381 1331 -1331 
Q 1025 -1281 716 -1178 
L 716 -306 
Q 1009 -475 1290 -558 
Q 1572 -641 1856 -641 
Q 2406 -641 2662 -400 
Q 2919 -159 2919 353 
L 2919 594 
z
M 2181 2772 
Q 1834 2772 1640 2515 
Q 1447 2259 1447 1791 
Q 1447 1309 1634 1061 
Q 1822 813 2181 813 
Q 2531 813 2725 1069 
Q 2919 1325 2919 1791 
Q 2919 2259 2725 2515 
Q 2531 2772 2181 2772 
z
" transform="scale(0.015625)"/>
     </defs>
     <use xlink:href="#DejaVuSans-Bold-48"/>
     <use xlink:href="#DejaVuSans-Bold-75" transform="translate(83.691406 0)"/>
     <use xlink:href="#DejaVuSans-Bold-6d" transform="translate(154.882812 0)"/>
     <use xlink:href="#DejaVuSans-Bold-61" transform="translate(259.082031 0)"/>
     <use xlink:href="#DejaVuSans-Bold-6e" transform="translate(326.5625 0)"/>
     <use xlink:href="#DejaVuSans-Bold-20" transform="translate(397.753906 0)"/>
     <use xlink:href="#DejaVuSans-Bold-52" transform="translate(432.568359 0)"/>
     <use xlink:href="#DejaVuSans-Bold-61" transform="translate(509.570312 0)"/>
     <use xlink:href="#DejaVuSans-Bold-6e" transform="translate(577.050781 0)"/>
     <use xlink:href="#DejaVuSans-Bold-6b" transform="translate(648.242188 0)"/>
     <use xlink:href="#DejaVuSans-Bold-69" transform="translate(714.746094 0)"/>
     <use xlink:href="#DejaVuSans-Bold-6e" transform="translate(749.023438 0)"/>
     <use xlink:href="#DejaVuSans-Bold-67" transform="translate(820.214844 0)"/>
    </g>
    <!-- (y_w &gt; y_l) -->
    <g style="fill: #eaeaea" transform="translate(331.655625 260.356666) scale(0.09 -0.09)">
     <defs>
      <path id="DejaVuSans-Bold-79" d="M 78 3500 
L 1197 3500 
L 2138 1125 
L 2938 3500 
L 4056 3500 
L 2584 -331 
Q 2363 -916 2067 -1148 
Q 1772 -1381 1288 -1381 
L 641 -1381 
L 641 -647 
L 991 -647 
Q 1275 -647 1404 -556 
Q 1534 -466 1606 -231 
L 1638 -134 
L 78 3500 
z
" transform="scale(0.015625)"/>
      <path id="DejaVuSans-Bold-5f" d="M 3200 -916 
L 3200 -1509 
L 0 -1509 
L 0 -916 
L 3200 -916 
z
" transform="scale(0.015625)"/>
      <path id="DejaVuSans-Bold-77" d="M 225 3500 
L 1313 3500 
L 1900 1088 
L 2491 3500 
L 3425 3500 
L 4013 1113 
L 4603 3500 
L 5691 3500 
L 4769 0 
L 3547 0 
L 2956 2406 
L 2369 0 
L 1147 0 
L 225 3500 
z
" transform="scale(0.015625)"/>
      <path id="DejaVuSans-Bold-3e" d="M 678 3041 
L 678 3822 
L 4684 2375 
L 4684 1638 
L 678 191 
L 678 972 
L 3694 2003 
L 678 3041 
z
" transform="scale(0.015625)"/>
     </defs>
     <use xlink:href="#DejaVuSans-Bold-28"/>
     <use xlink:href="#DejaVuSans-Bold-79" transform="translate(45.703125 0)"/>
     <use xlink:href="#DejaVuSans-Bold-5f" transform="translate(110.888672 0)"/>
     <use xlink:href="#DejaVuSans-Bold-77" transform="translate(160.888672 0)"/>
     <use xlink:href="#DejaVuSans-Bold-20" transform="translate(253.271484 0)"/>
     <use xlink:href="#DejaVuSans-Bold-3e" transform="translate(288.085938 0)"/>
     <use xlink:href="#DejaVuSans-Bold-20" transform="translate(371.875 0)"/>
     <use xlink:href="#DejaVuSans-Bold-79" transform="translate(406.689453 0)"/>
     <use xlink:href="#DejaVuSans-Bold-5f" transform="translate(471.875 0)"/>
     <use xlink:href="#DejaVuSans-Bold-6c" transform="translate(521.875 0)"/>
     <use xlink:href="#DejaVuSans-Bold-29" transform="translate(556.152344 0)"/>
    </g>
   </g>
   <g id="patch_11">
    <path d="M 358.74 270.44466 
Q 358.74 283.96748 358.74 295.813249 
" style="fill: none; stroke: #00d4aa; stroke-width: 1.5; stroke-linecap: round"/>
    <path d="M 360.74 291.813249 
L 358.74 295.813249 
L 356.74 291.813249 
" style="fill: none; stroke: #00d4aa; stroke-width: 1.5; stroke-linecap: round"/>
   </g>
   <g id="text_4">
    <!-- Reward Model -->
    <g style="fill: #eaeaea" transform="translate(322.635938 314.234491) scale(0.09 -0.09)">
     <use xlink:href="#DejaVuSans-Bold-52"/>
     <use xlink:href="#DejaVuSans-Bold-65" transform="translate(77.001953 0)"/>
     <use xlink:href="#DejaVuSans-Bold-77" transform="translate(144.824219 0)"/>
     <use xlink:href="#DejaVuSans-Bold-61" transform="translate(237.207031 0)"/>
     <use xlink:href="#DejaVuSans-Bold-72" transform="translate(304.6875 0)"/>
     <use xlink:href="#DejaVuSans-Bold-64" transform="translate(354.003906 0)"/>
     <use xlink:href="#DejaVuSans-Bold-20" transform="translate(425.585938 0)"/>
     <use xlink:href="#DejaVuSans-Bold-4d" transform="translate(460.400391 0)"/>
     <use xlink:href="#DejaVuSans-Bold-6f" transform="translate(559.912109 0)"/>
     <use xlink:href="#DejaVuSans-Bold-64" transform="translate(628.613281 0)"/>
     <use xlink:href="#DejaVuSans-Bold-65" transform="translate(700.195312 0)"/>
     <use xlink:href="#DejaVuSans-Bold-6c" transform="translate(768.017578 0)"/>
    </g>
    <!-- r_θ(x,y) -->
    <g style="fill: #eaeaea" transform="translate(339.520781 324.396897) scale(0.09 -0.09)">
     <defs>
      <path id="DejaVuSans-Bold-3b8" d="M 1447 2081 
Q 1469 1444 1638 1181 
Q 1922 728 2197 725 
Q 2475 722 2763 1181 
Q 2931 1453 2953 2081 
L 1447 2081 
z
M 2950 2881 
Q 2913 3394 2759 3688 
Q 2522 4144 2200 4144 
Q 1875 4144 1641 3688 
Q 1484 3384 1450 2881 
L 2950 2881 
z
M 2200 4913 
Q 3247 4913 3686 4231 
Q 4125 3550 4125 2403 
Q 4125 1256 3673 592 
Q 3222 -72 2200 -72 
Q 1178 -72 726 592 
Q 275 1256 275 2403 
Q 275 3550 714 4231 
Q 1153 4913 2200 4913 
z
" transform="scale(0.015625)"/>
      <path id="DejaVuSans-Bold-78" d="M 1422 1791 
L 159 3500 
L 1344 3500 
L 2059 2463 
L 2784 3500 
L 3969 3500 
L 2706 1797 
L 4031 0 
L 2847 0 
L 2059 1106 
L 1281 0 
L 97 0 
L 1422 1791 
z
" transform="scale(0.015625)"/>
      <path id="DejaVuSans-Bold-2c" d="M 653 1209 
L 1778 1209 
L 1778 256 
L 1006 -909 
L 341 -909 
L 653 256 
L 653 1209 
z
" transform="scale(0.015625)"/>
     </defs>
     <use xlink:href="#DejaVuSans-Bold-72"/>
     <use xlink:href="#DejaVuSans-Bold-5f" transform="translate(49.316406 0)"/>
     <use xlink:href="#DejaVuSans-Bold-3b8" transform="translate(99.316406 0)"/>
     <use xlink:href="#DejaVuSans-Bold-28" transform="translate(168.017578 0)"/>
     <use xlink:href="#DejaVuSans-Bold-78" transform="translate(213.720703 0)"/>
     <use xlink:href="#DejaVuSans-Bold-2c" transform="translate(278.222656 0)"/>
     <use xlink:href="#DejaVuSans-Bold-79" transform="translate(316.210938 0)"/>
     <use xlink:href="#DejaVuSans-Bold-29" transform="translate(381.396484 0)"/>
    </g>
   </g>
   <g id="patch_12">
    <path d="M 358.74 332.539829 
Q 358.74 344.122878 358.74 354.028877 
" style="fill: none; stroke: #00d4aa; stroke-width: 1.5; stroke-linecap: round"/>
    <path d="M 360.74 350.028877 
L 358.74 354.028877 
L 356.74 350.028877 
" style="fill: none; stroke: #00d4aa; stroke-width: 1.5; stroke-linecap: round"/>
   </g>
   <g id="text_5">
    <!-- PPO Optimization -->
    <g style="fill: #eaeaea" transform="translate(314.134453 375.71245) scale(0.09 -0.09)">
     <defs>
      <path id="DejaVuSans-Bold-50" d="M 588 4666 
L 2584 4666 
Q 3475 4666 3951 4270 
Q 4428 3875 4428 3144 
Q 4428 2409 3951 2014 
Q 3475 1619 2584 1619 
L 1791 1619 
L 1791 0 
L 588 0 
L 588 4666 
z
M 1791 3794 
L 1791 2491 
L 2456 2491 
Q 2806 2491 2997 2661 
Q 3188 2831 3188 3144 
Q 3188 3456 2997 3625 
Q 2806 3794 2456 3794 
L 1791 3794 
z
" transform="scale(0.015625)"/>
      <path id="DejaVuSans-Bold-4f" d="M 2719 3878 
Q 2169 3878 1866 3472 
Q 1563 3066 1563 2328 
Q 1563 1594 1866 1187 
Q 2169 781 2719 781 
Q 3272 781 3575 1187 
Q 3878 1594 3878 2328 
Q 3878 3066 3575 3472 
Q 3272 3878 2719 3878 
z
M 2719 4750 
Q 3844 4750 4481 4106 
Q 5119 3463 5119 2328 
Q 5119 1197 4481 553 
Q 3844 -91 2719 -91 
Q 1597 -91 958 553 
Q 319 1197 319 2328 
Q 319 3463 958 4106 
Q 1597 4750 2719 4750 
z
" transform="scale(0.015625)"/>
      <path id="DejaVuSans-Bold-7a" d="M 366 3500 
L 3419 3500 
L 3419 2719 
L 1575 800 
L 3419 800 
L 3419 0 
L 288 0 
L 288 781 
L 2131 2700 
L 366 2700 
L 366 3500 
z
" transform="scale(0.015625)"/>
     </defs>
     <use xlink:href="#DejaVuSans-Bold-50"/>
     <use xlink:href="#DejaVuSans-Bold-50" transform="translate(73.291016 0)"/>
     <use xlink:href="#DejaVuSans-Bold-4f" transform="translate(146.582031 0)"/>
     <use xlink:href="#DejaVuSans-Bold-20" transform="translate(231.591797 0)"/>
     <use xlink:href="#DejaVuSans-Bold-4f" transform="translate(266.40625 0)"/>
     <use xlink:href="#DejaVuSans-Bold-70" transform="translate(351.416016 0)"/>
     <use xlink:href="#DejaVuSans-Bold-74" transform="translate(422.998047 0)"/>
     <use xlink:href="#DejaVuSans-Bold-69" transform="translate(470.800781 0)"/>
     <use xlink:href="#DejaVuSans-Bold-6d" transform="translate(505.078125 0)"/>
     <use xlink:href="#DejaVuSans-Bold-69" transform="translate(609.277344 0)"/>
     <use xlink:href="#DejaVuSans-Bold-7a" transform="translate(643.554688 0)"/>
     <use xlink:href="#DejaVuSans-Bold-61" transform="translate(701.757812 0)"/>
     <use xlink:href="#DejaVuSans-Bold-74" transform="translate(769.238281 0)"/>
     <use xlink:href="#DejaVuSans-Bold-69" transform="translate(817.041016 0)"/>
     <use xlink:href="#DejaVuSans-Bold-6f" transform="translate(851.318359 0)"/>
     <use xlink:href="#DejaVuSans-Bold-6e" transform="translate(920.019531 0)"/>
    </g>
   </g>
   <g id="text_6">
    <!-- SFT Policy -->
    <g style="fill: #eaeaea" transform="translate(98.352422 370.638278) scale(0.09 -0.09)">
     <defs>
      <path id="DejaVuSans-Bold-63" d="M 3366 3391 
L 3366 2478 
Q 3138 2634 2908 2709 
Q 2678 2784 2431 2784 
Q 1963 2784 1702 2511 
Q 1441 2238 1441 1747 
Q 1441 1256 1702 982 
Q 1963 709 2431 709 
Q 2694 709 2930 787 
Q 3166 866 3366 1019 
L 3366 103 
Q 3103 6 2833 -42 
Q 2563 -91 2291 -91 
Q 1344 -91 809 395 
Q 275 881 275 1747 
Q 275 2613 809 3098 
Q 1344 3584 2291 3584 
Q 2566 3584 2833 3536 
Q 3100 3488 3366 3391 
z
" transform="scale(0.015625)"/>
     </defs>
     <use xlink:href="#DejaVuSans-Bold-53"/>
     <use xlink:href="#DejaVuSans-Bold-46" transform="translate(72.021484 0)"/>
     <use xlink:href="#DejaVuSans-Bold-54" transform="translate(140.332031 0)"/>
     <use xlink:href="#DejaVuSans-Bold-20" transform="translate(208.544922 0)"/>
     <use xlink:href="#DejaVuSans-Bold-50" transform="translate(243.359375 0)"/>
     <use xlink:href="#DejaVuSans-Bold-6f" transform="translate(316.650391 0)"/>
     <use xlink:href="#DejaVuSans-Bold-6c" transform="translate(385.351562 0)"/>
     <use xlink:href="#DejaVuSans-Bold-69" transform="translate(419.628906 0)"/>
     <use xlink:href="#DejaVuSans-Bold-63" transform="translate(453.90625 0)"/>
     <use xlink:href="#DejaVuSans-Bold-79" transform="translate(513.183594 0)"/>
    </g>
    <!-- (Reference) -->
    <g style="fill: #eaeaea" transform="translate(94.545 380.786622) scale(0.09 -0.09)">
     <defs>
      <path id="DejaVuSans-Bold-66" d="M 2841 4863 
L 2841 4128 
L 2222 4128 
Q 1984 4128 1890 4042 
Q 1797 3956 1797 3744 
L 1797 3500 
L 2753 3500 
L 2753 2700 
L 1797 2700 
L 1797 0 
L 678 0 
L 678 2700 
L 122 2700 
L 122 3500 
L 678 3500 
L 678 3744 
Q 678 4316 997 4589 
Q 1316 4863 1984 4863 
L 2841 4863 
z
" transform="scale(0.015625)"/>
     </defs>
     <use xlink:href="#DejaVuSans-Bold-28"/>
     <use xlink:href="#DejaVuSans-Bold-52" transform="translate(45.703125 0)"/>
     <use xlink:href="#DejaVuSans-Bold-65" transform="translate(122.705078 0)"/>
     <use xlink:href="#DejaVuSans-Bold-66" transform="translate(190.527344 0)"/>
     <use xlink:href="#DejaVuSans-Bold-65" transform="translate(234.033203 0)"/>
     <use xlink:href="#DejaVuSans-Bold-72" transform="translate(301.855469 0)"/>
     <use xlink:href="#DejaVuSans-Bold-65" transform="translate(351.171875 0)"/>
     <use xlink:href="#DejaVuSans-Bold-6e" transform="translate(418.994141 0)"/>
     <use xlink:href="#DejaVuSans-Bold-63" transform="translate(490.185547 0)"/>
     <use xlink:href="#DejaVuSans-Bold-65" transform="translate(549.462891 0)"/>
     <use xlink:href="#DejaVuSans-Bold-29" transform="translate(617.285156 0)"/>
    </g>
   </g>
   <g id="patch_13">
    <path d="M 210.078501 373.229012 
Q 241.558104 373.229012 271.360657 373.229012 
" style="fill: none; stroke: #00d4aa; stroke-width: 1.5; stroke-linecap: round"/>
    <path d="M 267.360657 371.229012 
L 271.360657 373.229012 
L 267.360657 375.229012 
" style="fill: none; stroke: #00d4aa; stroke-width: 1.5; stroke-linecap: round"/>
   </g>
   <g id="text_7">
    <!-- KL -->
    <g style="fill: #888888" transform="translate(236.101641 364.07005) scale(0.09 -0.09)">
     <defs>
      <path id="DejaVuSans-4b" d="M 628 4666 
L 1259 4666 
L 1259 2694 
L 3353 4666 
L 4166 4666 
L 1850 2491 
L 4331 0 
L 3500 0 
L 1259 2247 
L 1259 0 
L 628 0 
L 628 4666 
z
" transform="scale(0.015625)"/>
      <path id="DejaVuSans-4c" d="M 628 4666 
L 1259 4666 
L 1259 531 
L 3531 531 
L 3531 0 
L 628 0 
L 628 4666 
z
" transform="scale(0.015625)"/>
     </defs>
     <use xlink:href="#DejaVuSans-4b"/>
     <use xlink:href="#DejaVuSans-4c" transform="translate(65.576172 0)"/>
    </g>
   </g>
   <g id="patch_14">
    <path d="M 444.438501 373.229012 
Q 475.918104 373.229012 505.720657 373.229012 
" style="fill: none; stroke: #00d4aa; stroke-width: 1.5; stroke-linecap: round"/>
    <path d="M 501.720657 371.229012 
L 505.720657 373.229012 
L 501.720657 375.229012 
" style="fill: none; stroke: #00d4aa; stroke-width: 1.5; stroke-linecap: round"/>
   </g>
   <g id="text_8">
    <!-- Aligned Policy -->
    <g style="fill: #eaeaea" transform="translate(557.191406 372.453522) scale(0.09 -0.09)">
     <defs>
      <path id="DejaVuSans-Bold-41" d="M 3419 850 
L 1538 850 
L 1241 0 
L 31 0 
L 1759 4666 
L 3194 4666 
L 4922 0 
L 3713 0 
L 3419 850 
z
M 1838 1716 
L 3116 1716 
L 2478 3572 
L 1838 1716 
z
" transform="scale(0.015625)"/>
     </defs>
     <use xlink:href="#DejaVuSans-Bold-41"/>
     <use xlink:href="#DejaVuSans-Bold-6c" transform="translate(77.392578 0)"/>
     <use xlink:href="#DejaVuSans-Bold-69" transform="translate(111.669922 0)"/>
     <use xlink:href="#DejaVuSans-Bold-67" transform="translate(145.947266 0)"/>
     <use xlink:href="#DejaVuSans-Bold-6e" transform="translate(217.529297 0)"/>
     <use xlink:href="#DejaVuSans-Bold-65" transform="translate(288.720703 0)"/>
     <use xlink:href="#DejaVuSans-Bold-64" transform="translate(356.542969 0)"/>
     <use xlink:href="#DejaVuSans-Bold-20" transform="translate(428.125 0)"/>
     <use xlink:href="#DejaVuSans-Bold-50" transform="translate(462.939453 0)"/>
     <use xlink:href="#DejaVuSans-Bold-6f" transform="translate(536.230469 0)"/>
     <use xlink:href="#DejaVuSans-Bold-6c" transform="translate(604.931641 0)"/>
     <use xlink:href="#DejaVuSans-Bold-69" transform="translate(639.208984 0)"/>
     <use xlink:href="#DejaVuSans-Bold-63" transform="translate(673.486328 0)"/>
     <use xlink:href="#DejaVuSans-Bold-79" transform="translate(732.763672 0)"/>
    </g>
    <!-- π_RL -->
    <g style="fill: #eaeaea" transform="translate(580.957734 382.601866) scale(0.09 -0.09)">
     <defs>
      <path id="DejaVuSans-Bold-3c0" d="M 269 3500 
L 4684 3500 
L 4684 2700 
L 4072 2700 
L 4072 1131 
Q 4072 728 4148 629 
Q 4225 531 4400 531 
Q 4578 531 4678 544 
L 4678 -44 
Q 4484 -122 3822 -122 
Q 3613 -122 3409 -63 
Q 3084 34 2994 319 
Q 2953 453 2953 728 
L 2953 2700 
L 2000 2700 
L 2000 0 
L 881 0 
L 881 2700 
L 269 2700 
L 269 3500 
z
" transform="scale(0.015625)"/>
      <path id="DejaVuSans-Bold-4c" d="M 588 4666 
L 1791 4666 
L 1791 909 
L 3903 909 
L 3903 0 
L 588 0 
L 588 4666 
z
" transform="scale(0.015625)"/>
     </defs>
     <use xlink:href="#DejaVuSans-Bold-3c0"/>
     <use xlink:href="#DejaVuSans-Bold-5f" transform="translate(79.101562 0)"/>
     <use xlink:href="#DejaVuSans-Bold-52" transform="translate(129.101562 0)"/>
     <use xlink:href="#DejaVuSans-Bold-4c" transform="translate(206.103516 0)"/>
    </g>
   </g>
   <g id="text_9">
    <!-- RLHF: Reinforcement Learning from Human Feedback -->
    <g style="fill: #00d4aa" transform="translate(130.065156 17.837812) scale(0.14 -0.14)">
     <defs>
      <path id="DejaVuSans-Bold-3a" d="M 716 3500 
L 1844 3500 
L 1844 2291 
L 716 2291 
L 716 3500 
z
M 716 1209 
L 1844 1209 
L 1844 0 
L 716 0 
L 716 1209 
z
" transform="scale(0.015625)"/>
      <path id="DejaVuSans-Bold-62" d="M 2400 722 
Q 2759 722 2948 984 
Q 3138 1247 3138 1747 
Q 3138 2247 2948 2509 
Q 2759 2772 2400 2772 
Q 2041 2772 1848 2508 
Q 1656 2244 1656 1747 
Q 1656 1250 1848 986 
Q 2041 722 2400 722 
z
M 1656 2988 
Q 1888 3294 2169 3439 
Q 2450 3584 2816 3584 
Q 3463 3584 3878 3070 
Q 4294 2556 4294 1747 
Q 4294 938 3878 423 
Q 3463 -91 2816 -91 
Q 2450 -91 2169 54 
Q 1888 200 1656 506 
L 1656 0 
L 538 0 
L 538 4863 
L 1656 4863 
L 1656 2988 
z
" transform="scale(0.015625)"/>
     </defs>
     <use xlink:href="#DejaVuSans-Bold-52"/>
     <use xlink:href="#DejaVuSans-Bold-4c" transform="translate(77.001953 0)"/>
     <use xlink:href="#DejaVuSans-Bold-48" transform="translate(140.722656 0)"/>
     <use xlink:href="#DejaVuSans-Bold-46" transform="translate(224.414062 0)"/>
     <use xlink:href="#DejaVuSans-Bold-3a" transform="translate(287.224609 0)"/>
     <use xlink:href="#DejaVuSans-Bold-20" transform="translate(327.214844 0)"/>
     <use xlink:href="#DejaVuSans-Bold-52" transform="translate(362.029297 0)"/>
     <use xlink:href="#DejaVuSans-Bold-65" transform="translate(439.03125 0)"/>
     <use xlink:href="#DejaVuSans-Bold-69" transform="translate(506.853516 0)"/>
     <use xlink:href="#DejaVuSans-Bold-6e" transform="translate(541.130859 0)"/>
     <use xlink:href="#DejaVuSans-Bold-66" transform="translate(612.322266 0)"/>
     <use xlink:href="#DejaVuSans-Bold-6f" transform="translate(655.828125 0)"/>
     <use xlink:href="#DejaVuSans-Bold-72" transform="translate(724.529297 0)"/>
     <use xlink:href="#DejaVuSans-Bold-63" transform="translate(773.845703 0)"/>
     <use xlink:href="#DejaVuSans-Bold-65" transform="translate(833.123047 0)"/>
     <use xlink:href="#DejaVuSans-Bold-6d" transform="translate(900.945312 0)"/>
     <use xlink:href="#DejaVuSans-Bold-65" transform="translate(1005.144531 0)"/>
     <use xlink:href="#DejaVuSans-Bold-6e" transform="translate(1072.966797 0)"/>
     <use xlink:href="#DejaVuSans-Bold-74" transform="translate(1144.158203 0)"/>
     <use xlink:href="#DejaVuSans-Bold-20" transform="translate(1191.960938 0)"/>
     <use xlink:href="#DejaVuSans-Bold-4c" transform="translate(1226.775391 0)"/>
     <use xlink:href="#DejaVuSans-Bold-65" transform="translate(1290.496094 0)"/>
     <use xlink:href="#DejaVuSans-Bold-61" transform="translate(1358.318359 0)"/>
     <use xlink:href="#DejaVuSans-Bold-72" transform="translate(1425.798828 0)"/>
     <use xlink:href="#DejaVuSans-Bold-6e" transform="translate(1475.115234 0)"/>
     <use xlink:href="#DejaVuSans-Bold-69" transform="translate(1546.306641 0)"/>
     <use xlink:href="#DejaVuSans-Bold-6e" transform="translate(1580.583984 0)"/>
     <use xlink:href="#DejaVuSans-Bold-67" transform="translate(1651.775391 0)"/>
     <use xlink:href="#DejaVuSans-Bold-20" transform="translate(1723.357422 0)"/>
     <use xlink:href="#DejaVuSans-Bold-66" transform="translate(1758.171875 0)"/>
     <use xlink:href="#DejaVuSans-Bold-72" transform="translate(1801.677734 0)"/>
     <use xlink:href="#DejaVuSans-Bold-6f" transform="translate(1850.994141 0)"/>
     <use xlink:href="#DejaVuSans-Bold-6d" transform="translate(1919.695312 0)"/>
     <use xlink:href="#DejaVuSans-Bold-20" transform="translate(2023.894531 0)"/>
     <use xlink:href="#DejaVuSans-Bold-48" transform="translate(2058.708984 0)"/>
     <use xlink:href="#DejaVuSans-Bold-75" transform="translate(2142.400391 0)"/>
     <use xlink:href="#DejaVuSans-Bold-6d" transform="translate(2213.591797 0)"/>
     <use xlink:href="#DejaVuSans-Bold-61" transform="translate(2317.791016 0)"/>
     <use xlink:href="#DejaVuSans-Bold-6e" transform="translate(2385.271484 0)"/>
     <use xlink:href="#DejaVuSans-Bold-20" transform="translate(2456.462891 0)"/>
     <use xlink:href="#DejaVuSans-Bold-46" transform="translate(2491.277344 0)"/>
     <use xlink:href="#DejaVuSans-Bold-65" transform="translate(2555.587891 0)"/>
     <use xlink:href="#DejaVuSans-Bold-65" transform="translate(2623.410156 0)"/>
     <use xlink:href="#DejaVuSans-Bold-64" transform="translate(2691.232422 0)"/>
     <use xlink:href="#DejaVuSans-Bold-62" transform="translate(2762.814453 0)"/>
     <use xlink:href="#DejaVuSans-Bold-61" transform="translate(2834.396484 0)"/>
     <use xlink:href="#DejaVuSans-Bold-63" transform="translate(2901.876953 0)"/>
     <use xlink:href="#DejaVuSans-Bold-6b" transform="translate(2961.154297 0)"/>
    </g>
   </g>
  </g>
 </g>
 <defs>
  <clipPath id="pd74d969e74">
   <rect x="7.2" y="27.837812" width="669.6" height="388.08"/>
  </clipPath>
 </defs>
</svg>
