<?xml version="1.0" encoding="utf-8" standalone="no"?>
<!DOCTYPE svg PUBLIC "-//W3C//DTD SVG 1.1//EN"
  "http://www.w3.org/Graphics/SVG/1.1/DTD/svg11.dtd">
<svg xmlns:xlink="http://www.w3.org/1999/xlink" width="572.4pt" height="478.557812pt" viewBox="0 0 572.4 478.557812" xmlns="http://www.w3.org/2000/svg" version="1.1">
 <metadata>
  <rdf:RDF xmlns:dc="http://purl.org/dc/elements/1.1/" xmlns:cc="http://creativecommons.org/ns#" xmlns:rdf="http://www.w3.org/1999/02/22-rdf-syntax-ns#">
   <cc:Work>
    <dc:type rdf:resource="http://purl.org/dc/dcmitype/StillImage"/>
    <dc:date>2026-05-26T08:38:46.016251</dc:date>
    <dc:format>image/svg+xml</dc:format>
    <dc:creator>
     <cc:Agent>
      <dc:title>Matplotlib v3.10.9, https://matplotlib.org/</dc:title>
     </cc:Agent>
    </dc:creator>
   </cc:Work>
  </rdf:RDF>
 </metadata>
 <defs>
  <style type="text/css">*{stroke-linejoin: round; stroke-linecap: butt}</style>
 </defs>
 <g id="figure_1">
  <g id="patch_1">
   <path d="M 0 478.557812 
L 572.4 478.557812 
L 572.4 0 
L 0 0 
z
" style="fill: #1a1a2e"/>
  </g>
  <g id="axes_1">
   <g id="patch_2">
    <path d="M 42.354 183.956852 
L 139.446 183.956852 
Q 147.816 183.956852 147.816 177.304052 
L 147.816 153.353972 
Q 147.816 146.701172 139.446 146.701172 
L 42.354 146.701172 
Q 33.984 146.701172 33.984 153.353972 
L 33.984 177.304052 
Q 33.984 183.956852 42.354 183.956852 
z
" clip-path="url(#pf613e94bf6)" style="fill: #1565c0; stroke: #555555; stroke-width: 1.5; stroke-linejoin: miter"/>
   </g>
   <g id="patch_3">
    <path d="M 42.354 241.614452 
L 139.446 241.614452 
Q 147.816 241.614452 147.816 234.961652 
L 147.816 211.011572 
Q 147.816 204.358772 139.446 204.358772 
L 42.354 204.358772 
Q 33.984 204.358772 33.984 211.011572 
L 33.984 234.961652 
Q 33.984 241.614452 42.354 241.614452 
z
" clip-path="url(#pf613e94bf6)" style="fill: #1565c0; stroke: #555555; stroke-width: 1.5; stroke-linejoin: miter"/>
   </g>
   <g id="patch_4">
    <path d="M 42.354 299.272052 
L 139.446 299.272052 
Q 147.816 299.272052 147.816 292.619252 
L 147.816 268.669172 
Q 147.816 262.016372 139.446 262.016372 
L 42.354 262.016372 
Q 33.984 262.016372 33.984 268.669172 
L 33.984 292.619252 
Q 33.984 299.272052 42.354 299.272052 
z
" clip-path="url(#pf613e94bf6)" style="fill: #1565c0; stroke: #555555; stroke-width: 1.5; stroke-linejoin: miter"/>
   </g>
   <g id="patch_5">
    <path d="M 209.754 241.614452 
L 334.746 241.614452 
Q 343.116 241.614452 343.116 234.961652 
L 343.116 206.576372 
Q 343.116 199.923572 334.746 199.923572 
L 209.754 199.923572 
Q 201.384 199.923572 201.384 206.576372 
L 201.384 234.961652 
Q 201.384 241.614452 209.754 241.614452 
z
" clip-path="url(#pf613e94bf6)" style="fill: #6a1b9a; stroke: #555555; stroke-width: 1.5; stroke-linejoin: miter"/>
   </g>
   <g id="patch_6">
    <path d="M 209.754 303.707252 
L 334.746 303.707252 
Q 343.116 303.707252 343.116 297.054452 
L 343.116 281.974772 
Q 343.116 275.321972 334.746 275.321972 
L 209.754 275.321972 
Q 201.384 275.321972 201.384 281.974772 
L 201.384 297.054452 
Q 201.384 303.707252 209.754 303.707252 
z
" clip-path="url(#pf613e94bf6)" style="fill: #6a1b9a; stroke: #555555; stroke-width: 1.5; stroke-linejoin: miter"/>
   </g>
   <g id="patch_7">
    <path d="M 209.754 361.364852 
L 334.746 361.364852 
Q 343.116 361.364852 343.116 354.712052 
L 343.116 339.632372 
Q 343.116 332.979572 334.746 332.979572 
L 209.754 332.979572 
Q 201.384 332.979572 201.384 339.632372 
L 201.384 354.712052 
Q 201.384 361.364852 209.754 361.364852 
z
" clip-path="url(#pf613e94bf6)" style="fill: #6a1b9a; stroke: #555555; stroke-width: 1.5; stroke-linejoin: miter"/>
   </g>
   <g id="patch_8">
    <path d="M 209.754 427.892852 
L 334.746 427.892852 
Q 343.116 427.892852 343.116 421.240052 
L 343.116 401.725172 
Q 343.116 395.072372 334.746 395.072372 
L 209.754 395.072372 
Q 201.384 395.072372 201.384 401.725172 
L 201.384 421.240052 
Q 201.384 427.892852 209.754 427.892852 
z
" clip-path="url(#pf613e94bf6)" style="fill: #2e7d32; stroke: #555555; stroke-width: 1.5; stroke-linejoin: miter"/>
   </g>
   <g id="patch_9">
    <path d="M 31.194 361.364852 
L 100.386 361.364852 
Q 108.756 361.364852 108.756 354.712052 
L 108.756 344.067572 
Q 108.756 337.414772 100.386 337.414772 
L 31.194 337.414772 
Q 22.824 337.414772 22.824 344.067572 
L 22.824 354.712052 
Q 22.824 361.364852 31.194 361.364852 
z
" clip-path="url(#pf613e94bf6)" style="fill: #455a64; stroke: #555555; stroke-width: 1.5; stroke-linejoin: miter"/>
   </g>
   <g id="text_1">
    <!-- Q (Queries) -->
    <g style="fill: #eaeaea" transform="translate(61.820859 167.81245) scale(0.09 -0.09)">
     <defs>
      <path id="DejaVuSans-Bold-51" d="M 2847 -84 
L 2753 -84 
Q 1600 -84 959 553 
Q 319 1191 319 2328 
Q 319 3463 958 4106 
Q 1597 4750 2719 4750 
Q 3853 4750 4486 4112 
Q 5119 3475 5119 2328 
Q 5119 1541 4783 972 
Q 4447 403 3816 116 
L 4756 -934 
L 3609 -934 
L 2847 -84 
z
M 2719 3878 
Q 2169 3878 1866 3472 
Q 1563 3066 1563 2328 
Q 1563 1578 1859 1179 
Q 2156 781 2719 781 
Q 3272 781 3575 1187 
Q 3878 1594 3878 2328 
Q 3878 3066 3575 3472 
Q 3272 3878 2719 3878 
z
" transform="scale(0.015625)"/>
      <path id="DejaVuSans-Bold-20" transform="scale(0.015625)"/>
      <path id="DejaVuSans-Bold-28" d="M 2413 -844 
L 1484 -844 
Q 1006 -72 778 623 
Q 550 1319 550 2003 
Q 550 2688 779 3389 
Q 1009 4091 1484 4856 
L 2413 4856 
Q 2013 4116 1813 3408 
Q 1613 2700 1613 2009 
Q 1613 1319 1811 609 
Q 2009 -100 2413 -844 
z
" transform="scale(0.015625)"/>
      <path id="DejaVuSans-Bold-75" d="M 500 1363 
L 500 3500 
L 1625 3500 
L 1625 3150 
Q 1625 2866 1622 2436 
Q 1619 2006 1619 1863 
Q 1619 1441 1641 1255 
Q 1663 1069 1716 984 
Q 1784 875 1895 815 
Q 2006 756 2150 756 
Q 2500 756 2700 1025 
Q 2900 1294 2900 1772 
L 2900 3500 
L 4019 3500 
L 4019 0 
L 2900 0 
L 2900 506 
Q 2647 200 2364 54 
Q 2081 -91 1741 -91 
Q 1134 -91 817 281 
Q 500 653 500 1363 
z
" transform="scale(0.015625)"/>
      <path id="DejaVuSans-Bold-65" d="M 4031 1759 
L 4031 1441 
L 1416 1441 
Q 1456 1047 1700 850 
Q 1944 653 2381 653 
Q 2734 653 3104 758 
Q 3475 863 3866 1075 
L 3866 213 
Q 3469 63 3072 -14 
Q 2675 -91 2278 -91 
Q 1328 -91 801 392 
Q 275 875 275 1747 
Q 275 2603 792 3093 
Q 1309 3584 2216 3584 
Q 3041 3584 3536 3087 
Q 4031 2591 4031 1759 
z
M 2881 2131 
Q 2881 2450 2695 2645 
Q 2509 2841 2209 2841 
Q 1884 2841 1681 2658 
Q 1478 2475 1428 2131 
L 2881 2131 
z
" transform="scale(0.015625)"/>
      <path id="DejaVuSans-Bold-72" d="M 3138 2547 
Q 2991 2616 2845 2648 
Q 2700 2681 2553 2681 
Q 2122 2681 1889 2404 
Q 1656 2128 1656 1613 
L 1656 0 
L 538 0 
L 538 3500 
L 1656 3500 
L 1656 2925 
Q 1872 3269 2151 3426 
Q 2431 3584 2822 3584 
Q 2878 3584 2943 3579 
Q 3009 3575 3134 3559 
L 3138 2547 
z
" transform="scale(0.015625)"/>
      <path id="DejaVuSans-Bold-69" d="M 538 3500 
L 1656 3500 
L 1656 0 
L 538 0 
L 538 3500 
z
M 538 4863 
L 1656 4863 
L 1656 3950 
L 538 3950 
L 538 4863 
z
" transform="scale(0.015625)"/>
      <path id="DejaVuSans-Bold-73" d="M 3272 3391 
L 3272 2541 
Q 2913 2691 2578 2766 
Q 2244 2841 1947 2841 
Q 1628 2841 1473 2761 
Q 1319 2681 1319 2516 
Q 1319 2381 1436 2309 
Q 1553 2238 1856 2203 
L 2053 2175 
Q 2913 2066 3209 1816 
Q 3506 1566 3506 1031 
Q 3506 472 3093 190 
Q 2681 -91 1863 -91 
Q 1516 -91 1145 -36 
Q 775 19 384 128 
L 384 978 
Q 719 816 1070 734 
Q 1422 653 1784 653 
Q 2113 653 2278 743 
Q 2444 834 2444 1013 
Q 2444 1163 2330 1236 
Q 2216 1309 1875 1350 
L 1678 1375 
Q 931 1469 631 1722 
Q 331 1975 331 2491 
Q 331 3047 712 3315 
Q 1094 3584 1881 3584 
Q 2191 3584 2531 3537 
Q 2872 3491 3272 3391 
z
" transform="scale(0.015625)"/>
      <path id="DejaVuSans-Bold-29" d="M 513 -844 
Q 913 -100 1113 609 
Q 1313 1319 1313 2009 
Q 1313 2700 1113 3408 
Q 913 4116 513 4856 
L 1441 4856 
Q 1916 4091 2145 3389 
Q 2375 2688 2375 2003 
Q 2375 1319 2147 623 
Q 1919 -72 1441 -844 
L 513 -844 
z
" transform="scale(0.015625)"/>
     </defs>
     <use xlink:href="#DejaVuSans-Bold-51"/>
     <use xlink:href="#DejaVuSans-Bold-20" transform="translate(85.009766 0)"/>
     <use xlink:href="#DejaVuSans-Bold-28" transform="translate(119.824219 0)"/>
     <use xlink:href="#DejaVuSans-Bold-51" transform="translate(165.527344 0)"/>
     <use xlink:href="#DejaVuSans-Bold-75" transform="translate(250.537109 0)"/>
     <use xlink:href="#DejaVuSans-Bold-65" transform="translate(321.728516 0)"/>
     <use xlink:href="#DejaVuSans-Bold-72" transform="translate(389.550781 0)"/>
     <use xlink:href="#DejaVuSans-Bold-69" transform="translate(438.867188 0)"/>
     <use xlink:href="#DejaVuSans-Bold-65" transform="translate(473.144531 0)"/>
     <use xlink:href="#DejaVuSans-Bold-73" transform="translate(540.966797 0)"/>
     <use xlink:href="#DejaVuSans-Bold-29" transform="translate(600.488281 0)"/>
    </g>
   </g>
   <g id="text_2">
    <!-- K (Keys) -->
    <g style="fill: #eaeaea" transform="translate(69.661406 225.429972) scale(0.09 -0.09)">
     <defs>
      <path id="DejaVuSans-Bold-4b" d="M 588 4666 
L 1791 4666 
L 1791 2963 
L 3525 4666 
L 4922 4666 
L 2675 2456 
L 5153 0 
L 3647 0 
L 1791 1838 
L 1791 0 
L 588 0 
L 588 4666 
z
" transform="scale(0.015625)"/>
      <path id="DejaVuSans-Bold-79" d="M 78 3500 
L 1197 3500 
L 2138 1125 
L 2938 3500 
L 4056 3500 
L 2584 -331 
Q 2363 -916 2067 -1148 
Q 1772 -1381 1288 -1381 
L 641 -1381 
L 641 -647 
L 991 -647 
Q 1275 -647 1404 -556 
Q 1534 -466 1606 -231 
L 1638 -134 
L 78 3500 
z
" transform="scale(0.015625)"/>
     </defs>
     <use xlink:href="#DejaVuSans-Bold-4b"/>
     <use xlink:href="#DejaVuSans-Bold-20" transform="translate(77.490234 0)"/>
     <use xlink:href="#DejaVuSans-Bold-28" transform="translate(112.304688 0)"/>
     <use xlink:href="#DejaVuSans-Bold-4b" transform="translate(158.007812 0)"/>
     <use xlink:href="#DejaVuSans-Bold-65" transform="translate(233.748047 0)"/>
     <use xlink:href="#DejaVuSans-Bold-79" transform="translate(301.570312 0)"/>
     <use xlink:href="#DejaVuSans-Bold-73" transform="translate(366.755859 0)"/>
     <use xlink:href="#DejaVuSans-Bold-29" transform="translate(426.277344 0)"/>
    </g>
   </g>
   <g id="text_3">
    <!-- V (Values) -->
    <g style="fill: #eaeaea" transform="translate(64.989141 283.12765) scale(0.09 -0.09)">
     <defs>
      <path id="DejaVuSans-Bold-56" d="M 31 4666 
L 1241 4666 
L 2478 1222 
L 3713 4666 
L 4922 4666 
L 3194 0 
L 1759 0 
L 31 4666 
z
" transform="scale(0.015625)"/>
      <path id="DejaVuSans-Bold-61" d="M 2106 1575 
Q 1756 1575 1579 1456 
Q 1403 1338 1403 1106 
Q 1403 894 1545 773 
Q 1688 653 1941 653 
Q 2256 653 2472 879 
Q 2688 1106 2688 1447 
L 2688 1575 
L 2106 1575 
z
M 3816 1997 
L 3816 0 
L 2688 0 
L 2688 519 
Q 2463 200 2181 54 
Q 1900 -91 1497 -91 
Q 953 -91 614 226 
Q 275 544 275 1050 
Q 275 1666 698 1953 
Q 1122 2241 2028 2241 
L 2688 2241 
L 2688 2328 
Q 2688 2594 2478 2717 
Q 2269 2841 1825 2841 
Q 1466 2841 1156 2769 
Q 847 2697 581 2553 
L 581 3406 
Q 941 3494 1303 3539 
Q 1666 3584 2028 3584 
Q 2975 3584 3395 3211 
Q 3816 2838 3816 1997 
z
" transform="scale(0.015625)"/>
      <path id="DejaVuSans-Bold-6c" d="M 538 4863 
L 1656 4863 
L 1656 0 
L 538 0 
L 538 4863 
z
" transform="scale(0.015625)"/>
     </defs>
     <use xlink:href="#DejaVuSans-Bold-56"/>
     <use xlink:href="#DejaVuSans-Bold-20" transform="translate(77.392578 0)"/>
     <use xlink:href="#DejaVuSans-Bold-28" transform="translate(112.207031 0)"/>
     <use xlink:href="#DejaVuSans-Bold-56" transform="translate(157.910156 0)"/>
     <use xlink:href="#DejaVuSans-Bold-61" transform="translate(229.802734 0)"/>
     <use xlink:href="#DejaVuSans-Bold-6c" transform="translate(297.283203 0)"/>
     <use xlink:href="#DejaVuSans-Bold-75" transform="translate(331.560547 0)"/>
     <use xlink:href="#DejaVuSans-Bold-65" transform="translate(402.751953 0)"/>
     <use xlink:href="#DejaVuSans-Bold-73" transform="translate(470.574219 0)"/>
     <use xlink:href="#DejaVuSans-Bold-29" transform="translate(530.095703 0)"/>
    </g>
   </g>
   <g id="patch_10">
    <path d="M 92.824255 183.605128 
Q 146.699854 198.592972 198.959758 213.13134 
" style="fill: none; stroke: #00d4aa; stroke-width: 1.5; stroke-linecap: round"/>
    <path d="M 195.642131 210.132448 
L 198.959758 213.13134 
L 194.570068 213.986106 
" style="fill: none; stroke: #00d4aa; stroke-width: 1.5; stroke-linecap: round"/>
   </g>
   <g id="patch_11">
    <path d="M 92.899182 223.066064 
Q 146.701183 225.20426 198.827455 227.275858 
" style="fill: none; stroke: #00d4aa; stroke-width: 1.5; stroke-linecap: round"/>
    <path d="M 194.910031 225.118594 
L 198.827455 227.275858 
L 194.751189 229.115439 
" style="fill: none; stroke: #00d4aa; stroke-width: 1.5; stroke-linecap: round"/>
   </g>
   <g id="text_4">
    <!-- QK^T / sqrt(d_k) -->
    <g style="fill: #eaeaea" transform="translate(230.473828 223.127294) scale(0.09 -0.09)">
     <defs>
      <path id="DejaVuSans-Bold-5e" d="M 3066 4666 
L 4716 2925 
L 3963 2925 
L 2681 3866 
L 1403 2925 
L 647 2925 
L 2297 4666 
L 3066 4666 
z
" transform="scale(0.015625)"/>
      <path id="DejaVuSans-Bold-54" d="M 31 4666 
L 4331 4666 
L 4331 3756 
L 2784 3756 
L 2784 0 
L 1581 0 
L 1581 3756 
L 31 3756 
L 31 4666 
z
" transform="scale(0.015625)"/>
      <path id="DejaVuSans-Bold-2f" d="M 1644 4666 
L 2338 4666 
L 691 -594 
L 0 -594 
L 1644 4666 
z
" transform="scale(0.015625)"/>
      <path id="DejaVuSans-Bold-71" d="M 2181 2772 
Q 1825 2772 1636 2509 
Q 1447 2247 1447 1747 
Q 1447 1247 1636 984 
Q 1825 722 2181 722 
Q 2541 722 2730 984 
Q 2919 1247 2919 1747 
Q 2919 2247 2730 2509 
Q 2541 2772 2181 2772 
z
M 2919 506 
Q 2688 197 2409 53 
Q 2131 -91 1766 -91 
Q 1119 -91 703 423 
Q 288 938 288 1747 
Q 288 2556 703 3067 
Q 1119 3578 1766 3578 
Q 2131 3578 2409 3434 
Q 2688 3291 2919 2981 
L 2919 3500 
L 4044 3500 
L 4044 -1331 
L 2919 -1331 
L 2919 506 
z
" transform="scale(0.015625)"/>
      <path id="DejaVuSans-Bold-74" d="M 1759 4494 
L 1759 3500 
L 2913 3500 
L 2913 2700 
L 1759 2700 
L 1759 1216 
Q 1759 972 1856 886 
Q 1953 800 2241 800 
L 2816 800 
L 2816 0 
L 1856 0 
Q 1194 0 917 276 
Q 641 553 641 1216 
L 641 2700 
L 84 2700 
L 84 3500 
L 641 3500 
L 641 4494 
L 1759 4494 
z
" transform="scale(0.015625)"/>
      <path id="DejaVuSans-Bold-64" d="M 2919 2988 
L 2919 4863 
L 4044 4863 
L 4044 0 
L 2919 0 
L 2919 506 
Q 2688 197 2409 53 
Q 2131 -91 1766 -91 
Q 1119 -91 703 423 
Q 288 938 288 1747 
Q 288 2556 703 3070 
Q 1119 3584 1766 3584 
Q 2128 3584 2408 3439 
Q 2688 3294 2919 2988 
z
M 2181 722 
Q 2541 722 2730 984 
Q 2919 1247 2919 1747 
Q 2919 2247 2730 2509 
Q 2541 2772 2181 2772 
Q 1825 2772 1636 2509 
Q 1447 2247 1447 1747 
Q 1447 1247 1636 984 
Q 1825 722 2181 722 
z
" transform="scale(0.015625)"/>
      <path id="DejaVuSans-Bold-5f" d="M 3200 -916 
L 3200 -1509 
L 0 -1509 
L 0 -916 
L 3200 -916 
z
" transform="scale(0.015625)"/>
      <path id="DejaVuSans-Bold-6b" d="M 538 4863 
L 1656 4863 
L 1656 2216 
L 2944 3500 
L 4244 3500 
L 2534 1894 
L 4378 0 
L 3022 0 
L 1656 1459 
L 1656 0 
L 538 0 
L 538 4863 
z
" transform="scale(0.015625)"/>
     </defs>
     <use xlink:href="#DejaVuSans-Bold-51"/>
     <use xlink:href="#DejaVuSans-Bold-4b" transform="translate(85.009766 0)"/>
     <use xlink:href="#DejaVuSans-Bold-5e" transform="translate(162.5 0)"/>
     <use xlink:href="#DejaVuSans-Bold-54" transform="translate(246.289062 0)"/>
     <use xlink:href="#DejaVuSans-Bold-20" transform="translate(314.501953 0)"/>
     <use xlink:href="#DejaVuSans-Bold-2f" transform="translate(349.316406 0)"/>
     <use xlink:href="#DejaVuSans-Bold-20" transform="translate(385.839844 0)"/>
     <use xlink:href="#DejaVuSans-Bold-73" transform="translate(420.654297 0)"/>
     <use xlink:href="#DejaVuSans-Bold-71" transform="translate(480.175781 0)"/>
     <use xlink:href="#DejaVuSans-Bold-72" transform="translate(551.757812 0)"/>
     <use xlink:href="#DejaVuSans-Bold-74" transform="translate(601.074219 0)"/>
     <use xlink:href="#DejaVuSans-Bold-28" transform="translate(648.876953 0)"/>
     <use xlink:href="#DejaVuSans-Bold-64" transform="translate(694.580078 0)"/>
     <use xlink:href="#DejaVuSans-Bold-5f" transform="translate(766.162109 0)"/>
     <use xlink:href="#DejaVuSans-Bold-6b" transform="translate(816.162109 0)"/>
     <use xlink:href="#DejaVuSans-Bold-29" transform="translate(882.666016 0)"/>
    </g>
   </g>
   <g id="patch_12">
    <path d="M 272.25 242.72466 
Q 272.25 256.24748 272.25 268.093249 
" style="fill: none; stroke: #00d4aa; stroke-width: 1.5; stroke-linecap: round"/>
    <path d="M 274.25 264.093249 
L 272.25 268.093249 
L 270.25 264.093249 
" style="fill: none; stroke: #00d4aa; stroke-width: 1.5; stroke-linecap: round"/>
   </g>
   <g id="text_5">
    <!-- Softmax -->
    <g style="fill: #eaeaea" transform="translate(251.180859 291.99805) scale(0.09 -0.09)">
     <defs>
      <path id="DejaVuSans-Bold-53" d="M 3834 4519 
L 3834 3531 
Q 3450 3703 3084 3790 
Q 2719 3878 2394 3878 
Q 1963 3878 1756 3759 
Q 1550 3641 1550 3391 
Q 1550 3203 1689 3098 
Q 1828 2994 2194 2919 
L 2706 2816 
Q 3484 2659 3812 2340 
Q 4141 2022 4141 1434 
Q 4141 663 3683 286 
Q 3225 -91 2284 -91 
Q 1841 -91 1394 -6 
Q 947 78 500 244 
L 500 1259 
Q 947 1022 1364 901 
Q 1781 781 2169 781 
Q 2563 781 2772 912 
Q 2981 1044 2981 1288 
Q 2981 1506 2839 1625 
Q 2697 1744 2272 1838 
L 1806 1941 
Q 1106 2091 782 2419 
Q 459 2747 459 3303 
Q 459 4000 909 4375 
Q 1359 4750 2203 4750 
Q 2588 4750 2994 4692 
Q 3400 4634 3834 4519 
z
" transform="scale(0.015625)"/>
      <path id="DejaVuSans-Bold-6f" d="M 2203 2784 
Q 1831 2784 1636 2517 
Q 1441 2250 1441 1747 
Q 1441 1244 1636 976 
Q 1831 709 2203 709 
Q 2569 709 2762 976 
Q 2956 1244 2956 1747 
Q 2956 2250 2762 2517 
Q 2569 2784 2203 2784 
z
M 2203 3584 
Q 3106 3584 3614 3096 
Q 4122 2609 4122 1747 
Q 4122 884 3614 396 
Q 3106 -91 2203 -91 
Q 1297 -91 786 396 
Q 275 884 275 1747 
Q 275 2609 786 3096 
Q 1297 3584 2203 3584 
z
" transform="scale(0.015625)"/>
      <path id="DejaVuSans-Bold-66" d="M 2841 4863 
L 2841 4128 
L 2222 4128 
Q 1984 4128 1890 4042 
Q 1797 3956 1797 3744 
L 1797 3500 
L 2753 3500 
L 2753 2700 
L 1797 2700 
L 1797 0 
L 678 0 
L 678 2700 
L 122 2700 
L 122 3500 
L 678 3500 
L 678 3744 
Q 678 4316 997 4589 
Q 1316 4863 1984 4863 
L 2841 4863 
z
" transform="scale(0.015625)"/>
      <path id="DejaVuSans-Bold-6d" d="M 3781 2919 
Q 3994 3244 4286 3414 
Q 4578 3584 4928 3584 
Q 5531 3584 5847 3212 
Q 6163 2841 6163 2131 
L 6163 0 
L 5038 0 
L 5038 1825 
Q 5041 1866 5042 1909 
Q 5044 1953 5044 2034 
Q 5044 2406 4934 2573 
Q 4825 2741 4581 2741 
Q 4263 2741 4089 2478 
Q 3916 2216 3909 1719 
L 3909 0 
L 2784 0 
L 2784 1825 
Q 2784 2406 2684 2573 
Q 2584 2741 2328 2741 
Q 2006 2741 1831 2477 
Q 1656 2213 1656 1722 
L 1656 0 
L 531 0 
L 531 3500 
L 1656 3500 
L 1656 2988 
Q 1863 3284 2130 3434 
Q 2397 3584 2719 3584 
Q 3081 3584 3359 3409 
Q 3638 3234 3781 2919 
z
" transform="scale(0.015625)"/>
      <path id="DejaVuSans-Bold-78" d="M 1422 1791 
L 159 3500 
L 1344 3500 
L 2059 2463 
L 2784 3500 
L 3969 3500 
L 2706 1797 
L 4031 0 
L 2847 0 
L 2059 1106 
L 1281 0 
L 97 0 
L 1422 1791 
z
" transform="scale(0.015625)"/>
     </defs>
     <use xlink:href="#DejaVuSans-Bold-53"/>
     <use xlink:href="#DejaVuSans-Bold-6f" transform="translate(72.021484 0)"/>
     <use xlink:href="#DejaVuSans-Bold-66" transform="translate(140.722656 0)"/>
     <use xlink:href="#DejaVuSans-Bold-74" transform="translate(184.228516 0)"/>
     <use xlink:href="#DejaVuSans-Bold-6d" transform="translate(232.03125 0)"/>
     <use xlink:href="#DejaVuSans-Bold-61" transform="translate(336.230469 0)"/>
     <use xlink:href="#DejaVuSans-Bold-78" transform="translate(403.710938 0)"/>
    </g>
   </g>
   <g id="patch_13">
    <path d="M 272.25 304.818002 
Q 272.25 316.125689 272.25 325.756325 
" style="fill: none; stroke: #00d4aa; stroke-width: 1.5; stroke-linecap: round"/>
    <path d="M 274.25 321.756325 
L 272.25 325.756325 
L 270.25 321.756325 
" style="fill: none; stroke: #00d4aa; stroke-width: 1.5; stroke-linecap: round"/>
   </g>
   <g id="text_6">
    <!-- x V -->
    <g style="fill: #eaeaea" transform="translate(264.298359 349.65565) scale(0.09 -0.09)">
     <use xlink:href="#DejaVuSans-Bold-78"/>
     <use xlink:href="#DejaVuSans-Bold-20" transform="translate(64.501953 0)"/>
     <use xlink:href="#DejaVuSans-Bold-56" transform="translate(99.316406 0)"/>
    </g>
   </g>
   <g id="patch_14">
    <path d="M 92.647156 281.616307 
Q 146.700267 311.690761 199.287889 340.949835 
" style="fill: none; stroke: #00d4aa; stroke-width: 1.5; stroke-linecap: round"/>
    <path d="M 196.76489 337.257346 
L 199.287889 340.949835 
L 194.820098 340.75274 
" style="fill: none; stroke: #00d4aa; stroke-width: 1.5; stroke-linecap: round"/>
   </g>
   <g id="patch_15">
    <path d="M 272.25 362.47506 
Q 272.25 375.99788 272.25 387.843649 
" style="fill: none; stroke: #00d4aa; stroke-width: 1.5; stroke-linecap: round"/>
    <path d="M 274.25 383.843649 
L 272.25 387.843649 
L 270.25 383.843649 
" style="fill: none; stroke: #00d4aa; stroke-width: 1.5; stroke-linecap: round"/>
   </g>
   <g id="text_7">
    <!-- Attention Output -->
    <g style="fill: #eaeaea" transform="translate(228.899531 413.96605) scale(0.09 -0.09)">
     <defs>
      <path id="DejaVuSans-Bold-41" d="M 3419 850 
L 1538 850 
L 1241 0 
L 31 0 
L 1759 4666 
L 3194 4666 
L 4922 0 
L 3713 0 
L 3419 850 
z
M 1838 1716 
L 3116 1716 
L 2478 3572 
L 1838 1716 
z
" transform="scale(0.015625)"/>
      <path id="DejaVuSans-Bold-6e" d="M 4056 2131 
L 4056 0 
L 2931 0 
L 2931 347 
L 2931 1631 
Q 2931 2084 2911 2256 
Q 2891 2428 2841 2509 
Q 2775 2619 2662 2680 
Q 2550 2741 2406 2741 
Q 2056 2741 1856 2470 
Q 1656 2200 1656 1722 
L 1656 0 
L 538 0 
L 538 3500 
L 1656 3500 
L 1656 2988 
Q 1909 3294 2193 3439 
Q 2478 3584 2822 3584 
Q 3428 3584 3742 3212 
Q 4056 2841 4056 2131 
z
" transform="scale(0.015625)"/>
      <path id="DejaVuSans-Bold-4f" d="M 2719 3878 
Q 2169 3878 1866 3472 
Q 1563 3066 1563 2328 
Q 1563 1594 1866 1187 
Q 2169 781 2719 781 
Q 3272 781 3575 1187 
Q 3878 1594 3878 2328 
Q 3878 3066 3575 3472 
Q 3272 3878 2719 3878 
z
M 2719 4750 
Q 3844 4750 4481 4106 
Q 5119 3463 5119 2328 
Q 5119 1197 4481 553 
Q 3844 -91 2719 -91 
Q 1597 -91 958 553 
Q 319 1197 319 2328 
Q 319 3463 958 4106 
Q 1597 4750 2719 4750 
z
" transform="scale(0.015625)"/>
      <path id="DejaVuSans-Bold-70" d="M 1656 506 
L 1656 -1331 
L 538 -1331 
L 538 3500 
L 1656 3500 
L 1656 2988 
Q 1888 3294 2169 3439 
Q 2450 3584 2816 3584 
Q 3463 3584 3878 3070 
Q 4294 2556 4294 1747 
Q 4294 938 3878 423 
Q 3463 -91 2816 -91 
Q 2450 -91 2169 54 
Q 1888 200 1656 506 
z
M 2400 2772 
Q 2041 2772 1848 2508 
Q 1656 2244 1656 1747 
Q 1656 1250 1848 986 
Q 2041 722 2400 722 
Q 2759 722 2948 984 
Q 3138 1247 3138 1747 
Q 3138 2247 2948 2509 
Q 2759 2772 2400 2772 
z
" transform="scale(0.015625)"/>
     </defs>
     <use xlink:href="#DejaVuSans-Bold-41"/>
     <use xlink:href="#DejaVuSans-Bold-74" transform="translate(77.392578 0)"/>
     <use xlink:href="#DejaVuSans-Bold-74" transform="translate(125.195312 0)"/>
     <use xlink:href="#DejaVuSans-Bold-65" transform="translate(172.998047 0)"/>
     <use xlink:href="#DejaVuSans-Bold-6e" transform="translate(240.820312 0)"/>
     <use xlink:href="#DejaVuSans-Bold-74" transform="translate(312.011719 0)"/>
     <use xlink:href="#DejaVuSans-Bold-69" transform="translate(359.814453 0)"/>
     <use xlink:href="#DejaVuSans-Bold-6f" transform="translate(394.091797 0)"/>
     <use xlink:href="#DejaVuSans-Bold-6e" transform="translate(462.792969 0)"/>
     <use xlink:href="#DejaVuSans-Bold-20" transform="translate(533.984375 0)"/>
     <use xlink:href="#DejaVuSans-Bold-4f" transform="translate(568.798828 0)"/>
     <use xlink:href="#DejaVuSans-Bold-75" transform="translate(653.808594 0)"/>
     <use xlink:href="#DejaVuSans-Bold-74" transform="translate(725 0)"/>
     <use xlink:href="#DejaVuSans-Bold-70" transform="translate(772.802734 0)"/>
     <use xlink:href="#DejaVuSans-Bold-75" transform="translate(844.384766 0)"/>
     <use xlink:href="#DejaVuSans-Bold-74" transform="translate(915.576172 0)"/>
    </g>
   </g>
   <g id="text_8">
    <!-- Mask (opt) -->
    <g style="fill: #eaeaea" transform="translate(41.4975 351.597312) scale(0.08 -0.08)">
     <defs>
      <path id="DejaVuSans-Bold-4d" d="M 588 4666 
L 2119 4666 
L 3181 2169 
L 4250 4666 
L 5778 4666 
L 5778 0 
L 4641 0 
L 4641 3413 
L 3566 897 
L 2803 897 
L 1728 3413 
L 1728 0 
L 588 0 
L 588 4666 
z
" transform="scale(0.015625)"/>
     </defs>
     <use xlink:href="#DejaVuSans-Bold-4d"/>
     <use xlink:href="#DejaVuSans-Bold-61" transform="translate(99.511719 0)"/>
     <use xlink:href="#DejaVuSans-Bold-73" transform="translate(166.992188 0)"/>
     <use xlink:href="#DejaVuSans-Bold-6b" transform="translate(226.513672 0)"/>
     <use xlink:href="#DejaVuSans-Bold-20" transform="translate(293.017578 0)"/>
     <use xlink:href="#DejaVuSans-Bold-28" transform="translate(327.832031 0)"/>
     <use xlink:href="#DejaVuSans-Bold-6f" transform="translate(373.535156 0)"/>
     <use xlink:href="#DejaVuSans-Bold-70" transform="translate(442.236328 0)"/>
     <use xlink:href="#DejaVuSans-Bold-74" transform="translate(513.818359 0)"/>
     <use xlink:href="#DejaVuSans-Bold-29" transform="translate(561.621094 0)"/>
    </g>
   </g>
   <g id="patch_16">
    <path d="M 67.763383 337.981706 
Q 134.142795 327.21417 198.866794 316.715162 
" style="fill: none; stroke: #00d4aa; stroke-width: 1.5; stroke-linecap: round"/>
    <path d="M 194.598165 315.381443 
L 198.866794 316.715162 
L 195.238641 319.329834 
" style="fill: none; stroke: #00d4aa; stroke-width: 1.5; stroke-linecap: round"/>
   </g>
   <g id="text_9">
    <!-- Scaled Dot-Product Attention -->
    <g style="fill: #00d4aa" transform="translate(170.123594 17.837812) scale(0.14 -0.14)">
     <defs>
      <path id="DejaVuSans-Bold-63" d="M 3366 3391 
L 3366 2478 
Q 3138 2634 2908 2709 
Q 2678 2784 2431 2784 
Q 1963 2784 1702 2511 
Q 1441 2238 1441 1747 
Q 1441 1256 1702 982 
Q 1963 709 2431 709 
Q 2694 709 2930 787 
Q 3166 866 3366 1019 
L 3366 103 
Q 3103 6 2833 -42 
Q 2563 -91 2291 -91 
Q 1344 -91 809 395 
Q 275 881 275 1747 
Q 275 2613 809 3098 
Q 1344 3584 2291 3584 
Q 2566 3584 2833 3536 
Q 3100 3488 3366 3391 
z
" transform="scale(0.015625)"/>
      <path id="DejaVuSans-Bold-44" d="M 1791 3756 
L 1791 909 
L 2222 909 
Q 2959 909 3348 1275 
Q 3738 1641 3738 2338 
Q 3738 3031 3350 3393 
Q 2963 3756 2222 3756 
L 1791 3756 
z
M 588 4666 
L 1856 4666 
Q 2919 4666 3439 4514 
Q 3959 4363 4331 4000 
Q 4659 3684 4818 3271 
Q 4978 2859 4978 2338 
Q 4978 1809 4818 1395 
Q 4659 981 4331 666 
Q 3956 303 3431 151 
Q 2906 0 1856 0 
L 588 0 
L 588 4666 
z
" transform="scale(0.015625)"/>
      <path id="DejaVuSans-Bold-2d" d="M 347 2297 
L 2309 2297 
L 2309 1388 
L 347 1388 
L 347 2297 
z
" transform="scale(0.015625)"/>
      <path id="DejaVuSans-Bold-50" d="M 588 4666 
L 2584 4666 
Q 3475 4666 3951 4270 
Q 4428 3875 4428 3144 
Q 4428 2409 3951 2014 
Q 3475 1619 2584 1619 
L 1791 1619 
L 1791 0 
L 588 0 
L 588 4666 
z
M 1791 3794 
L 1791 2491 
L 2456 2491 
Q 2806 2491 2997 2661 
Q 3188 2831 3188 3144 
Q 3188 3456 2997 3625 
Q 2806 3794 2456 3794 
L 1791 3794 
z
" transform="scale(0.015625)"/>
     </defs>
     <use xlink:href="#DejaVuSans-Bold-53"/>
     <use xlink:href="#DejaVuSans-Bold-63" transform="translate(72.021484 0)"/>
     <use xlink:href="#DejaVuSans-Bold-61" transform="translate(131.298828 0)"/>
     <use xlink:href="#DejaVuSans-Bold-6c" transform="translate(198.779297 0)"/>
     <use xlink:href="#DejaVuSans-Bold-65" transform="translate(233.056641 0)"/>
     <use xlink:href="#DejaVuSans-Bold-64" transform="translate(300.878906 0)"/>
     <use xlink:href="#DejaVuSans-Bold-20" transform="translate(372.460938 0)"/>
     <use xlink:href="#DejaVuSans-Bold-44" transform="translate(407.275391 0)"/>
     <use xlink:href="#DejaVuSans-Bold-6f" transform="translate(490.283203 0)"/>
     <use xlink:href="#DejaVuSans-Bold-74" transform="translate(558.984375 0)"/>
     <use xlink:href="#DejaVuSans-Bold-2d" transform="translate(606.787109 0)"/>
     <use xlink:href="#DejaVuSans-Bold-50" transform="translate(648.291016 0)"/>
     <use xlink:href="#DejaVuSans-Bold-72" transform="translate(721.582031 0)"/>
     <use xlink:href="#DejaVuSans-Bold-6f" transform="translate(770.898438 0)"/>
     <use xlink:href="#DejaVuSans-Bold-64" transform="translate(839.599609 0)"/>
     <use xlink:href="#DejaVuSans-Bold-75" transform="translate(911.181641 0)"/>
     <use xlink:href="#DejaVuSans-Bold-63" transform="translate(982.373047 0)"/>
     <use xlink:href="#DejaVuSans-Bold-74" transform="translate(1041.650391 0)"/>
     <use xlink:href="#DejaVuSans-Bold-20" transform="translate(1089.453125 0)"/>
     <use xlink:href="#DejaVuSans-Bold-41" transform="translate(1124.267578 0)"/>
     <use xlink:href="#DejaVuSans-Bold-74" transform="translate(1201.660156 0)"/>
     <use xlink:href="#DejaVuSans-Bold-74" transform="translate(1249.462891 0)"/>
     <use xlink:href="#DejaVuSans-Bold-65" transform="translate(1297.265625 0)"/>
     <use xlink:href="#DejaVuSans-Bold-6e" transform="translate(1365.087891 0)"/>
     <use xlink:href="#DejaVuSans-Bold-74" transform="translate(1436.279297 0)"/>
     <use xlink:href="#DejaVuSans-Bold-69" transform="translate(1484.082031 0)"/>
     <use xlink:href="#DejaVuSans-Bold-6f" transform="translate(1518.359375 0)"/>
     <use xlink:href="#DejaVuSans-Bold-6e" transform="translate(1587.060547 0)"/>
    </g>
   </g>
  </g>
 </g>
 <defs>
  <clipPath id="pf613e94bf6">
   <rect x="7.2" y="27.837812" width="558" height="443.52"/>
  </clipPath>
 </defs>
</svg>
