<?xml version="1.0" encoding="utf-8" standalone="no"?>
<!DOCTYPE svg PUBLIC "-//W3C//DTD SVG 1.1//EN"
  "http://www.w3.org/Graphics/SVG/1.1/DTD/svg11.dtd">
<svg xmlns:xlink="http://www.w3.org/1999/xlink" width="657.823359pt" height="478.557812pt" viewBox="0 0 657.823359 478.557812" xmlns="http://www.w3.org/2000/svg" version="1.1">
 <metadata>
  <rdf:RDF xmlns:dc="http://purl.org/dc/elements/1.1/" xmlns:cc="http://creativecommons.org/ns#" xmlns:rdf="http://www.w3.org/1999/02/22-rdf-syntax-ns#">
   <cc:Work>
    <dc:type rdf:resource="http://purl.org/dc/dcmitype/StillImage"/>
    <dc:date>2026-05-26T08:38:46.745126</dc:date>
    <dc:format>image/svg+xml</dc:format>
    <dc:creator>
     <cc:Agent>
      <dc:title>Matplotlib v3.10.9, https://matplotlib.org/</dc:title>
     </cc:Agent>
    </dc:creator>
   </cc:Work>
  </rdf:RDF>
 </metadata>
 <defs>
  <style type="text/css">*{stroke-linejoin: round; stroke-linecap: butt}</style>
 </defs>
 <g id="figure_1">
  <g id="patch_1">
   <path d="M 0 478.557812 
L 657.823359 478.557812 
L 657.823359 0 
L 0 0 
z
" style="fill: #1a1a2e"/>
  </g>
  <g id="axes_1">
   <g id="patch_2">
    <path d="M 42.354 161.780852 
L 167.346 161.780852 
Q 175.716 161.780852 175.716 155.128052 
L 175.716 135.613172 
Q 175.716 128.960372 167.346 128.960372 
L 42.354 128.960372 
Q 33.984 128.960372 33.984 135.613172 
L 33.984 155.128052 
Q 33.984 161.780852 42.354 161.780852 
z
" clip-path="url(#pe07b569f7e)" style="fill: #1565c0; stroke: #555555; stroke-width: 1.5; stroke-linejoin: miter"/>
   </g>
   <g id="patch_3">
    <path d="M 42.354 228.308852 
L 167.346 228.308852 
Q 175.716 228.308852 175.716 221.656052 
L 175.716 202.141172 
Q 175.716 195.488372 167.346 195.488372 
L 42.354 195.488372 
Q 33.984 195.488372 33.984 202.141172 
L 33.984 221.656052 
Q 33.984 228.308852 42.354 228.308852 
z
" clip-path="url(#pe07b569f7e)" style="fill: #c62828; stroke: #555555; stroke-width: 1.5; stroke-linejoin: miter"/>
   </g>
   <g id="patch_4">
    <path d="M 42.354 294.836852 
L 167.346 294.836852 
Q 175.716 294.836852 175.716 288.184052 
L 175.716 268.669172 
Q 175.716 262.016372 167.346 262.016372 
L 42.354 262.016372 
Q 33.984 262.016372 33.984 268.669172 
L 33.984 288.184052 
Q 33.984 294.836852 42.354 294.836852 
z
" clip-path="url(#pe07b569f7e)" style="fill: #6a1b9a; stroke: #555555; stroke-width: 1.5; stroke-linejoin: miter"/>
   </g>
   <g id="patch_5">
    <path d="M 265.554 317.012852 
L 418.446 317.012852 
Q 426.816 317.012852 426.816 310.360052 
L 426.816 268.669172 
Q 426.816 262.016372 418.446 262.016372 
L 265.554 262.016372 
Q 257.184 262.016372 257.184 268.669172 
L 257.184 310.360052 
Q 257.184 317.012852 265.554 317.012852 
z
" clip-path="url(#pe07b569f7e)" style="fill: #c62828; stroke: #555555; stroke-width: 1.5; stroke-linejoin: miter"/>
   </g>
   <g id="patch_6">
    <path d="M 237.654 183.956852 
L 334.746 183.956852 
Q 343.116 183.956852 343.116 177.304052 
L 343.116 162.224372 
Q 343.116 155.571572 334.746 155.571572 
L 237.654 155.571572 
Q 229.284 155.571572 229.284 162.224372 
L 229.284 177.304052 
Q 229.284 183.956852 237.654 183.956852 
z
" clip-path="url(#pe07b569f7e)" style="fill: #1565c0; stroke: #555555; stroke-width: 1.5; stroke-linejoin: miter"/>
   </g>
   <g id="patch_7">
    <path d="M 265.554 383.540852 
L 418.446 383.540852 
Q 426.816 383.540852 426.816 376.888052 
L 426.816 361.808372 
Q 426.816 355.155572 418.446 355.155572 
L 265.554 355.155572 
Q 257.184 355.155572 257.184 361.808372 
L 257.184 376.888052 
Q 257.184 383.540852 265.554 383.540852 
z
" clip-path="url(#pe07b569f7e)" style="fill: #ef6c00; stroke: #555555; stroke-width: 1.5; stroke-linejoin: miter"/>
   </g>
   <g id="patch_8">
    <path d="M 265.554 450.068852 
L 418.446 450.068852 
Q 426.816 450.068852 426.816 443.416052 
L 426.816 423.901172 
Q 426.816 417.248372 418.446 417.248372 
L 265.554 417.248372 
Q 257.184 417.248372 257.184 423.901172 
L 257.184 443.416052 
Q 257.184 450.068852 265.554 450.068852 
z
" clip-path="url(#pe07b569f7e)" style="fill: #2e7d32; stroke: #555555; stroke-width: 1.5; stroke-linejoin: miter"/>
   </g>
   <g id="patch_9">
    <path d="M 488.754 458.939252 
L 557.946 458.939252 
Q 566.316 458.939252 566.316 452.286452 
L 566.316 419.465972 
Q 566.316 412.813172 557.946 412.813172 
L 488.754 412.813172 
Q 480.384 412.813172 480.384 419.465972 
L 480.384 452.286452 
Q 480.384 458.939252 488.754 458.939252 
z
" clip-path="url(#pe07b569f7e)" style="fill: #6a1b9a; stroke: #555555; stroke-width: 1.5; stroke-linejoin: miter"/>
   </g>
   <g id="patch_10">
    <path d="M 600.354 458.939252 
L 669.546 458.939252 
Q 677.916 458.939252 677.916 452.286452 
L 677.916 419.465972 
Q 677.916 412.813172 669.546 412.813172 
L 600.354 412.813172 
Q 591.984 412.813172 591.984 419.465972 
L 591.984 452.286452 
Q 591.984 458.939252 600.354 458.939252 
z
" clip-path="url(#pe07b569f7e)" style="fill: #2e7d32; stroke: #555555; stroke-width: 1.5; stroke-linejoin: miter"/>
   </g>
   <g id="text_1">
    <!-- Text Prompt -->
    <g style="fill: #eaeaea" transform="translate(74.034141 147.85405) scale(0.09 -0.09)">
     <defs>
      <path id="DejaVuSans-Bold-54" d="M 31 4666 
L 4331 4666 
L 4331 3756 
L 2784 3756 
L 2784 0 
L 1581 0 
L 1581 3756 
L 31 3756 
L 31 4666 
z
" transform="scale(0.015625)"/>
      <path id="DejaVuSans-Bold-65" d="M 4031 1759 
L 4031 1441 
L 1416 1441 
Q 1456 1047 1700 850 
Q 1944 653 2381 653 
Q 2734 653 3104 758 
Q 3475 863 3866 1075 
L 3866 213 
Q 3469 63 3072 -14 
Q 2675 -91 2278 -91 
Q 1328 -91 801 392 
Q 275 875 275 1747 
Q 275 2603 792 3093 
Q 1309 3584 2216 3584 
Q 3041 3584 3536 3087 
Q 4031 2591 4031 1759 
z
M 2881 2131 
Q 2881 2450 2695 2645 
Q 2509 2841 2209 2841 
Q 1884 2841 1681 2658 
Q 1478 2475 1428 2131 
L 2881 2131 
z
" transform="scale(0.015625)"/>
      <path id="DejaVuSans-Bold-78" d="M 1422 1791 
L 159 3500 
L 1344 3500 
L 2059 2463 
L 2784 3500 
L 3969 3500 
L 2706 1797 
L 4031 0 
L 2847 0 
L 2059 1106 
L 1281 0 
L 97 0 
L 1422 1791 
z
" transform="scale(0.015625)"/>
      <path id="DejaVuSans-Bold-74" d="M 1759 4494 
L 1759 3500 
L 2913 3500 
L 2913 2700 
L 1759 2700 
L 1759 1216 
Q 1759 972 1856 886 
Q 1953 800 2241 800 
L 2816 800 
L 2816 0 
L 1856 0 
Q 1194 0 917 276 
Q 641 553 641 1216 
L 641 2700 
L 84 2700 
L 84 3500 
L 641 3500 
L 641 4494 
L 1759 4494 
z
" transform="scale(0.015625)"/>
      <path id="DejaVuSans-Bold-20" transform="scale(0.015625)"/>
      <path id="DejaVuSans-Bold-50" d="M 588 4666 
L 2584 4666 
Q 3475 4666 3951 4270 
Q 4428 3875 4428 3144 
Q 4428 2409 3951 2014 
Q 3475 1619 2584 1619 
L 1791 1619 
L 1791 0 
L 588 0 
L 588 4666 
z
M 1791 3794 
L 1791 2491 
L 2456 2491 
Q 2806 2491 2997 2661 
Q 3188 2831 3188 3144 
Q 3188 3456 2997 3625 
Q 2806 3794 2456 3794 
L 1791 3794 
z
" transform="scale(0.015625)"/>
      <path id="DejaVuSans-Bold-72" d="M 3138 2547 
Q 2991 2616 2845 2648 
Q 2700 2681 2553 2681 
Q 2122 2681 1889 2404 
Q 1656 2128 1656 1613 
L 1656 0 
L 538 0 
L 538 3500 
L 1656 3500 
L 1656 2925 
Q 1872 3269 2151 3426 
Q 2431 3584 2822 3584 
Q 2878 3584 2943 3579 
Q 3009 3575 3134 3559 
L 3138 2547 
z
" transform="scale(0.015625)"/>
      <path id="DejaVuSans-Bold-6f" d="M 2203 2784 
Q 1831 2784 1636 2517 
Q 1441 2250 1441 1747 
Q 1441 1244 1636 976 
Q 1831 709 2203 709 
Q 2569 709 2762 976 
Q 2956 1244 2956 1747 
Q 2956 2250 2762 2517 
Q 2569 2784 2203 2784 
z
M 2203 3584 
Q 3106 3584 3614 3096 
Q 4122 2609 4122 1747 
Q 4122 884 3614 396 
Q 3106 -91 2203 -91 
Q 1297 -91 786 396 
Q 275 884 275 1747 
Q 275 2609 786 3096 
Q 1297 3584 2203 3584 
z
" transform="scale(0.015625)"/>
      <path id="DejaVuSans-Bold-6d" d="M 3781 2919 
Q 3994 3244 4286 3414 
Q 4578 3584 4928 3584 
Q 5531 3584 5847 3212 
Q 6163 2841 6163 2131 
L 6163 0 
L 5038 0 
L 5038 1825 
Q 5041 1866 5042 1909 
Q 5044 1953 5044 2034 
Q 5044 2406 4934 2573 
Q 4825 2741 4581 2741 
Q 4263 2741 4089 2478 
Q 3916 2216 3909 1719 
L 3909 0 
L 2784 0 
L 2784 1825 
Q 2784 2406 2684 2573 
Q 2584 2741 2328 2741 
Q 2006 2741 1831 2477 
Q 1656 2213 1656 1722 
L 1656 0 
L 531 0 
L 531 3500 
L 1656 3500 
L 1656 2988 
Q 1863 3284 2130 3434 
Q 2397 3584 2719 3584 
Q 3081 3584 3359 3409 
Q 3638 3234 3781 2919 
z
" transform="scale(0.015625)"/>
      <path id="DejaVuSans-Bold-70" d="M 1656 506 
L 1656 -1331 
L 538 -1331 
L 538 3500 
L 1656 3500 
L 1656 2988 
Q 1888 3294 2169 3439 
Q 2450 3584 2816 3584 
Q 3463 3584 3878 3070 
Q 4294 2556 4294 1747 
Q 4294 938 3878 423 
Q 3463 -91 2816 -91 
Q 2450 -91 2169 54 
Q 1888 200 1656 506 
z
M 2400 2772 
Q 2041 2772 1848 2508 
Q 1656 2244 1656 1747 
Q 1656 1250 1848 986 
Q 2041 722 2400 722 
Q 2759 722 2948 984 
Q 3138 1247 3138 1747 
Q 3138 2247 2948 2509 
Q 2759 2772 2400 2772 
z
" transform="scale(0.015625)"/>
     </defs>
     <use xlink:href="#DejaVuSans-Bold-54"/>
     <use xlink:href="#DejaVuSans-Bold-65" transform="translate(54.962891 0)"/>
     <use xlink:href="#DejaVuSans-Bold-78" transform="translate(122.785156 0)"/>
     <use xlink:href="#DejaVuSans-Bold-74" transform="translate(187.287109 0)"/>
     <use xlink:href="#DejaVuSans-Bold-20" transform="translate(235.089844 0)"/>
     <use xlink:href="#DejaVuSans-Bold-50" transform="translate(269.904297 0)"/>
     <use xlink:href="#DejaVuSans-Bold-72" transform="translate(343.195312 0)"/>
     <use xlink:href="#DejaVuSans-Bold-6f" transform="translate(392.511719 0)"/>
     <use xlink:href="#DejaVuSans-Bold-6d" transform="translate(461.212891 0)"/>
     <use xlink:href="#DejaVuSans-Bold-70" transform="translate(565.412109 0)"/>
     <use xlink:href="#DejaVuSans-Bold-74" transform="translate(636.994141 0)"/>
    </g>
   </g>
   <g id="patch_11">
    <path d="M 104.85 162.89106 
Q 104.85 176.41388 104.85 188.259649 
" style="fill: none; stroke: #00d4aa; stroke-width: 1.5; stroke-linecap: round"/>
    <path d="M 106.85 184.259649 
L 104.85 188.259649 
L 102.85 184.259649 
" style="fill: none; stroke: #00d4aa; stroke-width: 1.5; stroke-linecap: round"/>
   </g>
   <g id="text_2">
    <!-- CLIP Text Encoder -->
    <g style="fill: #eaeaea" transform="translate(59.466094 214.38205) scale(0.09 -0.09)">
     <defs>
      <path id="DejaVuSans-Bold-43" d="M 4288 256 
Q 3956 84 3597 -3 
Q 3238 -91 2847 -91 
Q 1681 -91 1000 561 
Q 319 1213 319 2328 
Q 319 3447 1000 4098 
Q 1681 4750 2847 4750 
Q 3238 4750 3597 4662 
Q 3956 4575 4288 4403 
L 4288 3438 
Q 3953 3666 3628 3772 
Q 3303 3878 2944 3878 
Q 2300 3878 1931 3465 
Q 1563 3053 1563 2328 
Q 1563 1606 1931 1193 
Q 2300 781 2944 781 
Q 3303 781 3628 887 
Q 3953 994 4288 1222 
L 4288 256 
z
" transform="scale(0.015625)"/>
      <path id="DejaVuSans-Bold-4c" d="M 588 4666 
L 1791 4666 
L 1791 909 
L 3903 909 
L 3903 0 
L 588 0 
L 588 4666 
z
" transform="scale(0.015625)"/>
      <path id="DejaVuSans-Bold-49" d="M 588 4666 
L 1791 4666 
L 1791 0 
L 588 0 
L 588 4666 
z
" transform="scale(0.015625)"/>
      <path id="DejaVuSans-Bold-45" d="M 588 4666 
L 3834 4666 
L 3834 3756 
L 1791 3756 
L 1791 2888 
L 3713 2888 
L 3713 1978 
L 1791 1978 
L 1791 909 
L 3903 909 
L 3903 0 
L 588 0 
L 588 4666 
z
" transform="scale(0.015625)"/>
      <path id="DejaVuSans-Bold-6e" d="M 4056 2131 
L 4056 0 
L 2931 0 
L 2931 347 
L 2931 1631 
Q 2931 2084 2911 2256 
Q 2891 2428 2841 2509 
Q 2775 2619 2662 2680 
Q 2550 2741 2406 2741 
Q 2056 2741 1856 2470 
Q 1656 2200 1656 1722 
L 1656 0 
L 538 0 
L 538 3500 
L 1656 3500 
L 1656 2988 
Q 1909 3294 2193 3439 
Q 2478 3584 2822 3584 
Q 3428 3584 3742 3212 
Q 4056 2841 4056 2131 
z
" transform="scale(0.015625)"/>
      <path id="DejaVuSans-Bold-63" d="M 3366 3391 
L 3366 2478 
Q 3138 2634 2908 2709 
Q 2678 2784 2431 2784 
Q 1963 2784 1702 2511 
Q 1441 2238 1441 1747 
Q 1441 1256 1702 982 
Q 1963 709 2431 709 
Q 2694 709 2930 787 
Q 3166 866 3366 1019 
L 3366 103 
Q 3103 6 2833 -42 
Q 2563 -91 2291 -91 
Q 1344 -91 809 395 
Q 275 881 275 1747 
Q 275 2613 809 3098 
Q 1344 3584 2291 3584 
Q 2566 3584 2833 3536 
Q 3100 3488 3366 3391 
z
" transform="scale(0.015625)"/>
      <path id="DejaVuSans-Bold-64" d="M 2919 2988 
L 2919 4863 
L 4044 4863 
L 4044 0 
L 2919 0 
L 2919 506 
Q 2688 197 2409 53 
Q 2131 -91 1766 -91 
Q 1119 -91 703 423 
Q 288 938 288 1747 
Q 288 2556 703 3070 
Q 1119 3584 1766 3584 
Q 2128 3584 2408 3439 
Q 2688 3294 2919 2988 
z
M 2181 722 
Q 2541 722 2730 984 
Q 2919 1247 2919 1747 
Q 2919 2247 2730 2509 
Q 2541 2772 2181 2772 
Q 1825 2772 1636 2509 
Q 1447 2247 1447 1747 
Q 1447 1247 1636 984 
Q 1825 722 2181 722 
z
" transform="scale(0.015625)"/>
     </defs>
     <use xlink:href="#DejaVuSans-Bold-43"/>
     <use xlink:href="#DejaVuSans-Bold-4c" transform="translate(73.388672 0)"/>
     <use xlink:href="#DejaVuSans-Bold-49" transform="translate(137.109375 0)"/>
     <use xlink:href="#DejaVuSans-Bold-50" transform="translate(174.316406 0)"/>
     <use xlink:href="#DejaVuSans-Bold-20" transform="translate(247.607422 0)"/>
     <use xlink:href="#DejaVuSans-Bold-54" transform="translate(282.421875 0)"/>
     <use xlink:href="#DejaVuSans-Bold-65" transform="translate(337.384766 0)"/>
     <use xlink:href="#DejaVuSans-Bold-78" transform="translate(405.207031 0)"/>
     <use xlink:href="#DejaVuSans-Bold-74" transform="translate(469.708984 0)"/>
     <use xlink:href="#DejaVuSans-Bold-20" transform="translate(517.511719 0)"/>
     <use xlink:href="#DejaVuSans-Bold-45" transform="translate(552.326172 0)"/>
     <use xlink:href="#DejaVuSans-Bold-6e" transform="translate(620.636719 0)"/>
     <use xlink:href="#DejaVuSans-Bold-63" transform="translate(691.828125 0)"/>
     <use xlink:href="#DejaVuSans-Bold-6f" transform="translate(751.105469 0)"/>
     <use xlink:href="#DejaVuSans-Bold-64" transform="translate(819.806641 0)"/>
     <use xlink:href="#DejaVuSans-Bold-65" transform="translate(891.388672 0)"/>
     <use xlink:href="#DejaVuSans-Bold-72" transform="translate(959.210938 0)"/>
    </g>
   </g>
   <g id="patch_12">
    <path d="M 104.85 229.41906 
Q 104.85 242.94188 104.85 254.787649 
" style="fill: none; stroke: #00d4aa; stroke-width: 1.5; stroke-linecap: round"/>
    <path d="M 106.85 250.787649 
L 104.85 254.787649 
L 102.85 250.787649 
" style="fill: none; stroke: #00d4aa; stroke-width: 1.5; stroke-linecap: round"/>
   </g>
   <g id="text_3">
    <!-- Text Embeddings -->
    <g style="fill: #eaeaea" transform="translate(61.580391 280.874894) scale(0.09 -0.09)">
     <defs>
      <path id="DejaVuSans-Bold-62" d="M 2400 722 
Q 2759 722 2948 984 
Q 3138 1247 3138 1747 
Q 3138 2247 2948 2509 
Q 2759 2772 2400 2772 
Q 2041 2772 1848 2508 
Q 1656 2244 1656 1747 
Q 1656 1250 1848 986 
Q 2041 722 2400 722 
z
M 1656 2988 
Q 1888 3294 2169 3439 
Q 2450 3584 2816 3584 
Q 3463 3584 3878 3070 
Q 4294 2556 4294 1747 
Q 4294 938 3878 423 
Q 3463 -91 2816 -91 
Q 2450 -91 2169 54 
Q 1888 200 1656 506 
L 1656 0 
L 538 0 
L 538 4863 
L 1656 4863 
L 1656 2988 
z
" transform="scale(0.015625)"/>
      <path id="DejaVuSans-Bold-69" d="M 538 3500 
L 1656 3500 
L 1656 0 
L 538 0 
L 538 3500 
z
M 538 4863 
L 1656 4863 
L 1656 3950 
L 538 3950 
L 538 4863 
z
" transform="scale(0.015625)"/>
      <path id="DejaVuSans-Bold-67" d="M 2919 594 
Q 2688 288 2409 144 
Q 2131 0 1766 0 
Q 1125 0 706 504 
Q 288 1009 288 1791 
Q 288 2575 706 3076 
Q 1125 3578 1766 3578 
Q 2131 3578 2409 3434 
Q 2688 3291 2919 2981 
L 2919 3500 
L 4044 3500 
L 4044 353 
Q 4044 -491 3511 -936 
Q 2978 -1381 1966 -1381 
Q 1638 -1381 1331 -1331 
Q 1025 -1281 716 -1178 
L 716 -306 
Q 1009 -475 1290 -558 
Q 1572 -641 1856 -641 
Q 2406 -641 2662 -400 
Q 2919 -159 2919 353 
L 2919 594 
z
M 2181 2772 
Q 1834 2772 1640 2515 
Q 1447 2259 1447 1791 
Q 1447 1309 1634 1061 
Q 1822 813 2181 813 
Q 2531 813 2725 1069 
Q 2919 1325 2919 1791 
Q 2919 2259 2725 2515 
Q 2531 2772 2181 2772 
z
" transform="scale(0.015625)"/>
      <path id="DejaVuSans-Bold-73" d="M 3272 3391 
L 3272 2541 
Q 2913 2691 2578 2766 
Q 2244 2841 1947 2841 
Q 1628 2841 1473 2761 
Q 1319 2681 1319 2516 
Q 1319 2381 1436 2309 
Q 1553 2238 1856 2203 
L 2053 2175 
Q 2913 2066 3209 1816 
Q 3506 1566 3506 1031 
Q 3506 472 3093 190 
Q 2681 -91 1863 -91 
Q 1516 -91 1145 -36 
Q 775 19 384 128 
L 384 978 
Q 719 816 1070 734 
Q 1422 653 1784 653 
Q 2113 653 2278 743 
Q 2444 834 2444 1013 
Q 2444 1163 2330 1236 
Q 2216 1309 1875 1350 
L 1678 1375 
Q 931 1469 631 1722 
Q 331 1975 331 2491 
Q 331 3047 712 3315 
Q 1094 3584 1881 3584 
Q 2191 3584 2531 3537 
Q 2872 3491 3272 3391 
z
" transform="scale(0.015625)"/>
     </defs>
     <use xlink:href="#DejaVuSans-Bold-54"/>
     <use xlink:href="#DejaVuSans-Bold-65" transform="translate(54.962891 0)"/>
     <use xlink:href="#DejaVuSans-Bold-78" transform="translate(122.785156 0)"/>
     <use xlink:href="#DejaVuSans-Bold-74" transform="translate(187.287109 0)"/>
     <use xlink:href="#DejaVuSans-Bold-20" transform="translate(235.089844 0)"/>
     <use xlink:href="#DejaVuSans-Bold-45" transform="translate(269.904297 0)"/>
     <use xlink:href="#DejaVuSans-Bold-6d" transform="translate(338.214844 0)"/>
     <use xlink:href="#DejaVuSans-Bold-62" transform="translate(442.414062 0)"/>
     <use xlink:href="#DejaVuSans-Bold-65" transform="translate(513.996094 0)"/>
     <use xlink:href="#DejaVuSans-Bold-64" transform="translate(581.818359 0)"/>
     <use xlink:href="#DejaVuSans-Bold-64" transform="translate(653.400391 0)"/>
     <use xlink:href="#DejaVuSans-Bold-69" transform="translate(724.982422 0)"/>
     <use xlink:href="#DejaVuSans-Bold-6e" transform="translate(759.259766 0)"/>
     <use xlink:href="#DejaVuSans-Bold-67" transform="translate(830.451172 0)"/>
     <use xlink:href="#DejaVuSans-Bold-73" transform="translate(902.033203 0)"/>
    </g>
   </g>
   <g id="patch_13">
    <path d="M 176.600034 280.644212 
Q 216.450209 280.644212 254.623334 280.644212 
" style="fill: none; stroke: #00d4aa; stroke-width: 1.5; stroke-linecap: round"/>
    <path d="M 250.623334 278.644212 
L 254.623334 280.644212 
L 250.623334 282.644212 
" style="fill: none; stroke: #00d4aa; stroke-width: 1.5; stroke-linecap: round"/>
   </g>
   <g id="text_4">
    <!-- U-Net -->
    <g style="fill: #eaeaea" transform="translate(327.509297 286.959034) scale(0.09 -0.09)">
     <defs>
      <path id="DejaVuSans-Bold-55" d="M 588 4666 
L 1791 4666 
L 1791 1869 
Q 1791 1291 1980 1042 
Q 2169 794 2597 794 
Q 3028 794 3217 1042 
Q 3406 1291 3406 1869 
L 3406 4666 
L 4609 4666 
L 4609 1869 
Q 4609 878 4112 393 
Q 3616 -91 2597 -91 
Q 1581 -91 1084 393 
Q 588 878 588 1869 
L 588 4666 
z
" transform="scale(0.015625)"/>
      <path id="DejaVuSans-Bold-2d" d="M 347 2297 
L 2309 2297 
L 2309 1388 
L 347 1388 
L 347 2297 
z
" transform="scale(0.015625)"/>
      <path id="DejaVuSans-Bold-4e" d="M 588 4666 
L 1931 4666 
L 3628 1466 
L 3628 4666 
L 4769 4666 
L 4769 0 
L 3425 0 
L 1728 3200 
L 1728 0 
L 588 0 
L 588 4666 
z
" transform="scale(0.015625)"/>
     </defs>
     <use xlink:href="#DejaVuSans-Bold-55"/>
     <use xlink:href="#DejaVuSans-Bold-2d" transform="translate(81.201172 0)"/>
     <use xlink:href="#DejaVuSans-Bold-4e" transform="translate(122.705078 0)"/>
     <use xlink:href="#DejaVuSans-Bold-65" transform="translate(206.396484 0)"/>
     <use xlink:href="#DejaVuSans-Bold-74" transform="translate(274.21875 0)"/>
    </g>
    <!-- (Cross-Attention + ResBlocks) -->
    <g style="fill: #eaeaea" transform="translate(265.518984 297.037066) scale(0.09 -0.09)">
     <defs>
      <path id="DejaVuSans-Bold-28" d="M 2413 -844 
L 1484 -844 
Q 1006 -72 778 623 
Q 550 1319 550 2003 
Q 550 2688 779 3389 
Q 1009 4091 1484 4856 
L 2413 4856 
Q 2013 4116 1813 3408 
Q 1613 2700 1613 2009 
Q 1613 1319 1811 609 
Q 2009 -100 2413 -844 
z
" transform="scale(0.015625)"/>
      <path id="DejaVuSans-Bold-41" d="M 3419 850 
L 1538 850 
L 1241 0 
L 31 0 
L 1759 4666 
L 3194 4666 
L 4922 0 
L 3713 0 
L 3419 850 
z
M 1838 1716 
L 3116 1716 
L 2478 3572 
L 1838 1716 
z
" transform="scale(0.015625)"/>
      <path id="DejaVuSans-Bold-2b" d="M 3053 4013 
L 3053 2375 
L 4684 2375 
L 4684 1638 
L 3053 1638 
L 3053 0 
L 2309 0 
L 2309 1638 
L 678 1638 
L 678 2375 
L 2309 2375 
L 2309 4013 
L 3053 4013 
z
" transform="scale(0.015625)"/>
      <path id="DejaVuSans-Bold-52" d="M 2297 2597 
Q 2675 2597 2839 2737 
Q 3003 2878 3003 3200 
Q 3003 3519 2839 3656 
Q 2675 3794 2297 3794 
L 1791 3794 
L 1791 2597 
L 2297 2597 
z
M 1791 1766 
L 1791 0 
L 588 0 
L 588 4666 
L 2425 4666 
Q 3347 4666 3776 4356 
Q 4206 4047 4206 3378 
Q 4206 2916 3982 2619 
Q 3759 2322 3309 2181 
Q 3556 2125 3751 1926 
Q 3947 1728 4147 1325 
L 4800 0 
L 3519 0 
L 2950 1159 
Q 2778 1509 2601 1637 
Q 2425 1766 2131 1766 
L 1791 1766 
z
" transform="scale(0.015625)"/>
      <path id="DejaVuSans-Bold-42" d="M 2456 2859 
Q 2741 2859 2887 2984 
Q 3034 3109 3034 3353 
Q 3034 3594 2887 3720 
Q 2741 3847 2456 3847 
L 1791 3847 
L 1791 2859 
L 2456 2859 
z
M 2497 819 
Q 2859 819 3042 972 
Q 3225 1125 3225 1434 
Q 3225 1738 3044 1889 
Q 2863 2041 2497 2041 
L 1791 2041 
L 1791 819 
L 2497 819 
z
M 3616 2497 
Q 4003 2384 4215 2081 
Q 4428 1778 4428 1338 
Q 4428 663 3972 331 
Q 3516 0 2584 0 
L 588 0 
L 588 4666 
L 2394 4666 
Q 3366 4666 3802 4372 
Q 4238 4078 4238 3431 
Q 4238 3091 4078 2852 
Q 3919 2613 3616 2497 
z
" transform="scale(0.015625)"/>
      <path id="DejaVuSans-Bold-6c" d="M 538 4863 
L 1656 4863 
L 1656 0 
L 538 0 
L 538 4863 
z
" transform="scale(0.015625)"/>
      <path id="DejaVuSans-Bold-6b" d="M 538 4863 
L 1656 4863 
L 1656 2216 
L 2944 3500 
L 4244 3500 
L 2534 1894 
L 4378 0 
L 3022 0 
L 1656 1459 
L 1656 0 
L 538 0 
L 538 4863 
z
" transform="scale(0.015625)"/>
      <path id="DejaVuSans-Bold-29" d="M 513 -844 
Q 913 -100 1113 609 
Q 1313 1319 1313 2009 
Q 1313 2700 1113 3408 
Q 913 4116 513 4856 
L 1441 4856 
Q 1916 4091 2145 3389 
Q 2375 2688 2375 2003 
Q 2375 1319 2147 623 
Q 1919 -72 1441 -844 
L 513 -844 
z
" transform="scale(0.015625)"/>
     </defs>
     <use xlink:href="#DejaVuSans-Bold-28"/>
     <use xlink:href="#DejaVuSans-Bold-43" transform="translate(45.703125 0)"/>
     <use xlink:href="#DejaVuSans-Bold-72" transform="translate(119.091797 0)"/>
     <use xlink:href="#DejaVuSans-Bold-6f" transform="translate(168.408203 0)"/>
     <use xlink:href="#DejaVuSans-Bold-73" transform="translate(237.109375 0)"/>
     <use xlink:href="#DejaVuSans-Bold-73" transform="translate(296.630859 0)"/>
     <use xlink:href="#DejaVuSans-Bold-2d" transform="translate(356.152344 0)"/>
     <use xlink:href="#DejaVuSans-Bold-41" transform="translate(397.65625 0)"/>
     <use xlink:href="#DejaVuSans-Bold-74" transform="translate(475.048828 0)"/>
     <use xlink:href="#DejaVuSans-Bold-74" transform="translate(522.851562 0)"/>
     <use xlink:href="#DejaVuSans-Bold-65" transform="translate(570.654297 0)"/>
     <use xlink:href="#DejaVuSans-Bold-6e" transform="translate(638.476562 0)"/>
     <use xlink:href="#DejaVuSans-Bold-74" transform="translate(709.667969 0)"/>
     <use xlink:href="#DejaVuSans-Bold-69" transform="translate(757.470703 0)"/>
     <use xlink:href="#DejaVuSans-Bold-6f" transform="translate(791.748047 0)"/>
     <use xlink:href="#DejaVuSans-Bold-6e" transform="translate(860.449219 0)"/>
     <use xlink:href="#DejaVuSans-Bold-20" transform="translate(931.640625 0)"/>
     <use xlink:href="#DejaVuSans-Bold-2b" transform="translate(966.455078 0)"/>
     <use xlink:href="#DejaVuSans-Bold-20" transform="translate(1050.244141 0)"/>
     <use xlink:href="#DejaVuSans-Bold-52" transform="translate(1085.058594 0)"/>
     <use xlink:href="#DejaVuSans-Bold-65" transform="translate(1162.060547 0)"/>
     <use xlink:href="#DejaVuSans-Bold-73" transform="translate(1229.882812 0)"/>
     <use xlink:href="#DejaVuSans-Bold-42" transform="translate(1289.404297 0)"/>
     <use xlink:href="#DejaVuSans-Bold-6c" transform="translate(1365.625 0)"/>
     <use xlink:href="#DejaVuSans-Bold-6f" transform="translate(1399.902344 0)"/>
     <use xlink:href="#DejaVuSans-Bold-63" transform="translate(1468.603516 0)"/>
     <use xlink:href="#DejaVuSans-Bold-6b" transform="translate(1527.880859 0)"/>
     <use xlink:href="#DejaVuSans-Bold-73" transform="translate(1594.384766 0)"/>
     <use xlink:href="#DejaVuSans-Bold-29" transform="translate(1653.90625 0)"/>
    </g>
   </g>
   <g id="patch_14">
    <path d="M 256.299966 293.949812 
Q 216.449791 293.949812 178.276666 293.949812 
" style="fill: none; stroke: #00d4aa; stroke-width: 1.5; stroke-linecap: round"/>
    <path d="M 182.276666 295.949812 
L 178.276666 293.949812 
L 182.276666 291.949812 
" style="fill: none; stroke: #00d4aa; stroke-width: 1.5; stroke-linecap: round"/>
   </g>
   <g id="text_5">
    <!-- Random Noise z_T -->
    <g style="fill: #eaeaea" transform="translate(240.290156 172.122494) scale(0.09 -0.09)">
     <defs>
      <path id="DejaVuSans-Bold-61" d="M 2106 1575 
Q 1756 1575 1579 1456 
Q 1403 1338 1403 1106 
Q 1403 894 1545 773 
Q 1688 653 1941 653 
Q 2256 653 2472 879 
Q 2688 1106 2688 1447 
L 2688 1575 
L 2106 1575 
z
M 3816 1997 
L 3816 0 
L 2688 0 
L 2688 519 
Q 2463 200 2181 54 
Q 1900 -91 1497 -91 
Q 953 -91 614 226 
Q 275 544 275 1050 
Q 275 1666 698 1953 
Q 1122 2241 2028 2241 
L 2688 2241 
L 2688 2328 
Q 2688 2594 2478 2717 
Q 2269 2841 1825 2841 
Q 1466 2841 1156 2769 
Q 847 2697 581 2553 
L 581 3406 
Q 941 3494 1303 3539 
Q 1666 3584 2028 3584 
Q 2975 3584 3395 3211 
Q 3816 2838 3816 1997 
z
" transform="scale(0.015625)"/>
      <path id="DejaVuSans-Bold-7a" d="M 366 3500 
L 3419 3500 
L 3419 2719 
L 1575 800 
L 3419 800 
L 3419 0 
L 288 0 
L 288 781 
L 2131 2700 
L 366 2700 
L 366 3500 
z
" transform="scale(0.015625)"/>
      <path id="DejaVuSans-Bold-5f" d="M 3200 -916 
L 3200 -1509 
L 0 -1509 
L 0 -916 
L 3200 -916 
z
" transform="scale(0.015625)"/>
     </defs>
     <use xlink:href="#DejaVuSans-Bold-52"/>
     <use xlink:href="#DejaVuSans-Bold-61" transform="translate(77.001953 0)"/>
     <use xlink:href="#DejaVuSans-Bold-6e" transform="translate(144.482422 0)"/>
     <use xlink:href="#DejaVuSans-Bold-64" transform="translate(215.673828 0)"/>
     <use xlink:href="#DejaVuSans-Bold-6f" transform="translate(287.255859 0)"/>
     <use xlink:href="#DejaVuSans-Bold-6d" transform="translate(355.957031 0)"/>
     <use xlink:href="#DejaVuSans-Bold-20" transform="translate(460.15625 0)"/>
     <use xlink:href="#DejaVuSans-Bold-4e" transform="translate(494.970703 0)"/>
     <use xlink:href="#DejaVuSans-Bold-6f" transform="translate(578.662109 0)"/>
     <use xlink:href="#DejaVuSans-Bold-69" transform="translate(647.363281 0)"/>
     <use xlink:href="#DejaVuSans-Bold-73" transform="translate(681.640625 0)"/>
     <use xlink:href="#DejaVuSans-Bold-65" transform="translate(741.162109 0)"/>
     <use xlink:href="#DejaVuSans-Bold-20" transform="translate(808.984375 0)"/>
     <use xlink:href="#DejaVuSans-Bold-7a" transform="translate(843.798828 0)"/>
     <use xlink:href="#DejaVuSans-Bold-5f" transform="translate(902.001953 0)"/>
     <use xlink:href="#DejaVuSans-Bold-54" transform="translate(952.001953 0)"/>
    </g>
   </g>
   <g id="patch_15">
    <path d="M 286.859866 184.957967 
Q 300.150322 222.987533 312.8875 259.433942 
" style="fill: none; stroke: #00d4aa; stroke-width: 1.5; stroke-linecap: round"/>
    <path d="M 313.455883 254.998072 
L 312.8875 259.433942 
L 309.679834 256.317714 
" style="fill: none; stroke: #00d4aa; stroke-width: 1.5; stroke-linecap: round"/>
   </g>
   <g id="text_6">
    <!-- Denoising (T steps) -->
    <g style="fill: #eaeaea" transform="translate(292.632187 371.796494) scale(0.09 -0.09)">
     <defs>
      <path id="DejaVuSans-Bold-44" d="M 1791 3756 
L 1791 909 
L 2222 909 
Q 2959 909 3348 1275 
Q 3738 1641 3738 2338 
Q 3738 3031 3350 3393 
Q 2963 3756 2222 3756 
L 1791 3756 
z
M 588 4666 
L 1856 4666 
Q 2919 4666 3439 4514 
Q 3959 4363 4331 4000 
Q 4659 3684 4818 3271 
Q 4978 2859 4978 2338 
Q 4978 1809 4818 1395 
Q 4659 981 4331 666 
Q 3956 303 3431 151 
Q 2906 0 1856 0 
L 588 0 
L 588 4666 
z
" transform="scale(0.015625)"/>
     </defs>
     <use xlink:href="#DejaVuSans-Bold-44"/>
     <use xlink:href="#DejaVuSans-Bold-65" transform="translate(83.007812 0)"/>
     <use xlink:href="#DejaVuSans-Bold-6e" transform="translate(150.830078 0)"/>
     <use xlink:href="#DejaVuSans-Bold-6f" transform="translate(222.021484 0)"/>
     <use xlink:href="#DejaVuSans-Bold-69" transform="translate(290.722656 0)"/>
     <use xlink:href="#DejaVuSans-Bold-73" transform="translate(325 0)"/>
     <use xlink:href="#DejaVuSans-Bold-69" transform="translate(384.521484 0)"/>
     <use xlink:href="#DejaVuSans-Bold-6e" transform="translate(418.798828 0)"/>
     <use xlink:href="#DejaVuSans-Bold-67" transform="translate(489.990234 0)"/>
     <use xlink:href="#DejaVuSans-Bold-20" transform="translate(561.572266 0)"/>
     <use xlink:href="#DejaVuSans-Bold-28" transform="translate(596.386719 0)"/>
     <use xlink:href="#DejaVuSans-Bold-54" transform="translate(642.089844 0)"/>
     <use xlink:href="#DejaVuSans-Bold-20" transform="translate(710.302734 0)"/>
     <use xlink:href="#DejaVuSans-Bold-73" transform="translate(745.117188 0)"/>
     <use xlink:href="#DejaVuSans-Bold-74" transform="translate(804.638672 0)"/>
     <use xlink:href="#DejaVuSans-Bold-65" transform="translate(852.441406 0)"/>
     <use xlink:href="#DejaVuSans-Bold-70" transform="translate(920.263672 0)"/>
     <use xlink:href="#DejaVuSans-Bold-73" transform="translate(991.845703 0)"/>
     <use xlink:href="#DejaVuSans-Bold-29" transform="translate(1051.367188 0)"/>
    </g>
   </g>
   <g id="patch_16">
    <path d="M 342 318.128474 
Q 342 336.08354 342 352.361555 
" style="fill: none; stroke: #00d4aa; stroke-width: 1.5; stroke-linecap: round"/>
    <path d="M 344 348.361555 
L 342 352.361555 
L 340 348.361555 
" style="fill: none; stroke: #00d4aa; stroke-width: 1.5; stroke-linecap: round"/>
   </g>
   <g id="patch_17">
    <path d="M 342 384.65106 
Q 342 398.17388 342 410.019649 
" style="fill: none; stroke: #00d4aa; stroke-width: 1.5; stroke-linecap: round"/>
    <path d="M 344 406.019649 
L 342 410.019649 
L 340 406.019649 
" style="fill: none; stroke: #00d4aa; stroke-width: 1.5; stroke-linecap: round"/>
   </g>
   <g id="text_7">
    <!-- Latent z_0 -->
    <g style="fill: #eaeaea" transform="translate(315.971719 435.937441) scale(0.09 -0.09)">
     <defs>
      <path id="DejaVuSans-Bold-30" d="M 2944 2338 
Q 2944 3213 2780 3570 
Q 2616 3928 2228 3928 
Q 1841 3928 1675 3570 
Q 1509 3213 1509 2338 
Q 1509 1453 1675 1090 
Q 1841 728 2228 728 
Q 2613 728 2778 1090 
Q 2944 1453 2944 2338 
z
M 4147 2328 
Q 4147 1169 3647 539 
Q 3147 -91 2228 -91 
Q 1306 -91 806 539 
Q 306 1169 306 2328 
Q 306 3491 806 4120 
Q 1306 4750 2228 4750 
Q 3147 4750 3647 4120 
Q 4147 3491 4147 2328 
z
" transform="scale(0.015625)"/>
     </defs>
     <use xlink:href="#DejaVuSans-Bold-4c"/>
     <use xlink:href="#DejaVuSans-Bold-61" transform="translate(63.720703 0)"/>
     <use xlink:href="#DejaVuSans-Bold-74" transform="translate(131.201172 0)"/>
     <use xlink:href="#DejaVuSans-Bold-65" transform="translate(179.003906 0)"/>
     <use xlink:href="#DejaVuSans-Bold-6e" transform="translate(246.826172 0)"/>
     <use xlink:href="#DejaVuSans-Bold-74" transform="translate(318.017578 0)"/>
     <use xlink:href="#DejaVuSans-Bold-20" transform="translate(365.820312 0)"/>
     <use xlink:href="#DejaVuSans-Bold-7a" transform="translate(400.634766 0)"/>
     <use xlink:href="#DejaVuSans-Bold-5f" transform="translate(458.837891 0)"/>
     <use xlink:href="#DejaVuSans-Bold-30" transform="translate(508.837891 0)"/>
    </g>
   </g>
   <g id="patch_18">
    <path d="M 427.699182 431.441012 
Q 453.599692 431.441012 477.823151 431.441012 
" style="fill: none; stroke: #00d4aa; stroke-width: 1.5; stroke-linecap: round"/>
    <path d="M 473.823151 429.441012 
L 477.823151 431.441012 
L 473.823151 433.441012 
" style="fill: none; stroke: #00d4aa; stroke-width: 1.5; stroke-linecap: round"/>
   </g>
   <g id="text_8">
    <!-- VAE -->
    <g style="fill: #eaeaea" transform="translate(513.614531 433.320634) scale(0.09 -0.09)">
     <defs>
      <path id="DejaVuSans-Bold-56" d="M 31 4666 
L 1241 4666 
L 2478 1222 
L 3713 4666 
L 4922 4666 
L 3194 0 
L 1759 0 
L 31 4666 
z
" transform="scale(0.015625)"/>
     </defs>
     <use xlink:href="#DejaVuSans-Bold-56"/>
     <use xlink:href="#DejaVuSans-Bold-41" transform="translate(70.642578 0)"/>
     <use xlink:href="#DejaVuSans-Bold-45" transform="translate(148.035156 0)"/>
    </g>
    <!-- Decoder -->
    <g style="fill: #eaeaea" transform="translate(502.310391 443.398666) scale(0.09 -0.09)">
     <use xlink:href="#DejaVuSans-Bold-44"/>
     <use xlink:href="#DejaVuSans-Bold-65" transform="translate(83.007812 0)"/>
     <use xlink:href="#DejaVuSans-Bold-63" transform="translate(150.830078 0)"/>
     <use xlink:href="#DejaVuSans-Bold-6f" transform="translate(210.107422 0)"/>
     <use xlink:href="#DejaVuSans-Bold-64" transform="translate(278.808594 0)"/>
     <use xlink:href="#DejaVuSans-Bold-65" transform="translate(350.390625 0)"/>
     <use xlink:href="#DejaVuSans-Bold-72" transform="translate(418.212891 0)"/>
    </g>
   </g>
   <g id="text_9">
    <!-- Image -->
    <g style="fill: #eaeaea" transform="translate(619.276641 438.289337) scale(0.09 -0.09)">
     <use xlink:href="#DejaVuSans-Bold-49"/>
     <use xlink:href="#DejaVuSans-Bold-6d" transform="translate(37.207031 0)"/>
     <use xlink:href="#DejaVuSans-Bold-61" transform="translate(141.40625 0)"/>
     <use xlink:href="#DejaVuSans-Bold-67" transform="translate(208.886719 0)"/>
     <use xlink:href="#DejaVuSans-Bold-65" transform="translate(280.46875 0)"/>
    </g>
   </g>
   <g id="text_10">
    <!-- Latent Diffusion Model (Stable Diffusion) -->
    <g style="fill: #00d4aa" transform="translate(123.960781 17.837812) scale(0.14 -0.14)">
     <defs>
      <path id="DejaVuSans-Bold-66" d="M 2841 4863 
L 2841 4128 
L 2222 4128 
Q 1984 4128 1890 4042 
Q 1797 3956 1797 3744 
L 1797 3500 
L 2753 3500 
L 2753 2700 
L 1797 2700 
L 1797 0 
L 678 0 
L 678 2700 
L 122 2700 
L 122 3500 
L 678 3500 
L 678 3744 
Q 678 4316 997 4589 
Q 1316 4863 1984 4863 
L 2841 4863 
z
" transform="scale(0.015625)"/>
      <path id="DejaVuSans-Bold-75" d="M 500 1363 
L 500 3500 
L 1625 3500 
L 1625 3150 
Q 1625 2866 1622 2436 
Q 1619 2006 1619 1863 
Q 1619 1441 1641 1255 
Q 1663 1069 1716 984 
Q 1784 875 1895 815 
Q 2006 756 2150 756 
Q 2500 756 2700 1025 
Q 2900 1294 2900 1772 
L 2900 3500 
L 4019 3500 
L 4019 0 
L 2900 0 
L 2900 506 
Q 2647 200 2364 54 
Q 2081 -91 1741 -91 
Q 1134 -91 817 281 
Q 500 653 500 1363 
z
" transform="scale(0.015625)"/>
      <path id="DejaVuSans-Bold-4d" d="M 588 4666 
L 2119 4666 
L 3181 2169 
L 4250 4666 
L 5778 4666 
L 5778 0 
L 4641 0 
L 4641 3413 
L 3566 897 
L 2803 897 
L 1728 3413 
L 1728 0 
L 588 0 
L 588 4666 
z
" transform="scale(0.015625)"/>
      <path id="DejaVuSans-Bold-53" d="M 3834 4519 
L 3834 3531 
Q 3450 3703 3084 3790 
Q 2719 3878 2394 3878 
Q 1963 3878 1756 3759 
Q 1550 3641 1550 3391 
Q 1550 3203 1689 3098 
Q 1828 2994 2194 2919 
L 2706 2816 
Q 3484 2659 3812 2340 
Q 4141 2022 4141 1434 
Q 4141 663 3683 286 
Q 3225 -91 2284 -91 
Q 1841 -91 1394 -6 
Q 947 78 500 244 
L 500 1259 
Q 947 1022 1364 901 
Q 1781 781 2169 781 
Q 2563 781 2772 912 
Q 2981 1044 2981 1288 
Q 2981 1506 2839 1625 
Q 2697 1744 2272 1838 
L 1806 1941 
Q 1106 2091 782 2419 
Q 459 2747 459 3303 
Q 459 4000 909 4375 
Q 1359 4750 2203 4750 
Q 2588 4750 2994 4692 
Q 3400 4634 3834 4519 
z
" transform="scale(0.015625)"/>
     </defs>
     <use xlink:href="#DejaVuSans-Bold-4c"/>
     <use xlink:href="#DejaVuSans-Bold-61" transform="translate(63.720703 0)"/>
     <use xlink:href="#DejaVuSans-Bold-74" transform="translate(131.201172 0)"/>
     <use xlink:href="#DejaVuSans-Bold-65" transform="translate(179.003906 0)"/>
     <use xlink:href="#DejaVuSans-Bold-6e" transform="translate(246.826172 0)"/>
     <use xlink:href="#DejaVuSans-Bold-74" transform="translate(318.017578 0)"/>
     <use xlink:href="#DejaVuSans-Bold-20" transform="translate(365.820312 0)"/>
     <use xlink:href="#DejaVuSans-Bold-44" transform="translate(400.634766 0)"/>
     <use xlink:href="#DejaVuSans-Bold-69" transform="translate(483.642578 0)"/>
     <use xlink:href="#DejaVuSans-Bold-66" transform="translate(517.919922 0)"/>
     <use xlink:href="#DejaVuSans-Bold-66" transform="translate(561.425781 0)"/>
     <use xlink:href="#DejaVuSans-Bold-75" transform="translate(604.931641 0)"/>
     <use xlink:href="#DejaVuSans-Bold-73" transform="translate(676.123047 0)"/>
     <use xlink:href="#DejaVuSans-Bold-69" transform="translate(735.644531 0)"/>
     <use xlink:href="#DejaVuSans-Bold-6f" transform="translate(769.921875 0)"/>
     <use xlink:href="#DejaVuSans-Bold-6e" transform="translate(838.623047 0)"/>
     <use xlink:href="#DejaVuSans-Bold-20" transform="translate(909.814453 0)"/>
     <use xlink:href="#DejaVuSans-Bold-4d" transform="translate(944.628906 0)"/>
     <use xlink:href="#DejaVuSans-Bold-6f" transform="translate(1044.140625 0)"/>
     <use xlink:href="#DejaVuSans-Bold-64" transform="translate(1112.841797 0)"/>
     <use xlink:href="#DejaVuSans-Bold-65" transform="translate(1184.423828 0)"/>
     <use xlink:href="#DejaVuSans-Bold-6c" transform="translate(1252.246094 0)"/>
     <use xlink:href="#DejaVuSans-Bold-20" transform="translate(1286.523438 0)"/>
     <use xlink:href="#DejaVuSans-Bold-28" transform="translate(1321.337891 0)"/>
     <use xlink:href="#DejaVuSans-Bold-53" transform="translate(1367.041016 0)"/>
     <use xlink:href="#DejaVuSans-Bold-74" transform="translate(1439.0625 0)"/>
     <use xlink:href="#DejaVuSans-Bold-61" transform="translate(1486.865234 0)"/>
     <use xlink:href="#DejaVuSans-Bold-62" transform="translate(1554.345703 0)"/>
     <use xlink:href="#DejaVuSans-Bold-6c" transform="translate(1625.927734 0)"/>
     <use xlink:href="#DejaVuSans-Bold-65" transform="translate(1660.205078 0)"/>
     <use xlink:href="#DejaVuSans-Bold-20" transform="translate(1728.027344 0)"/>
     <use xlink:href="#DejaVuSans-Bold-44" transform="translate(1762.841797 0)"/>
     <use xlink:href="#DejaVuSans-Bold-69" transform="translate(1845.849609 0)"/>
     <use xlink:href="#DejaVuSans-Bold-66" transform="translate(1880.126953 0)"/>
     <use xlink:href="#DejaVuSans-Bold-66" transform="translate(1923.632812 0)"/>
     <use xlink:href="#DejaVuSans-Bold-75" transform="translate(1967.138672 0)"/>
     <use xlink:href="#DejaVuSans-Bold-73" transform="translate(2038.330078 0)"/>
     <use xlink:href="#DejaVuSans-Bold-69" transform="translate(2097.851562 0)"/>
     <use xlink:href="#DejaVuSans-Bold-6f" transform="translate(2132.128906 0)"/>
     <use xlink:href="#DejaVuSans-Bold-6e" transform="translate(2200.830078 0)"/>
     <use xlink:href="#DejaVuSans-Bold-29" transform="translate(2272.021484 0)"/>
    </g>
   </g>
  </g>
 </g>
 <defs>
  <clipPath id="pe07b569f7e">
   <rect x="7.2" y="27.837812" width="558" height="443.52"/>
  </clipPath>
 </defs>
</svg>
