<?xml version="1.0" encoding="utf-8" standalone="no"?>
<!DOCTYPE svg PUBLIC "-//W3C//DTD SVG 1.1//EN"
  "http://www.w3.org/Graphics/SVG/1.1/DTD/svg11.dtd">
<svg xmlns:xlink="http://www.w3.org/1999/xlink" width="572.4pt" height="811.197812pt" viewBox="0 0 572.4 811.197812" xmlns="http://www.w3.org/2000/svg" version="1.1">
 <metadata>
  <rdf:RDF xmlns:dc="http://purl.org/dc/elements/1.1/" xmlns:cc="http://creativecommons.org/ns#" xmlns:rdf="http://www.w3.org/1999/02/22-rdf-syntax-ns#">
   <cc:Work>
    <dc:type rdf:resource="http://purl.org/dc/dcmitype/StillImage"/>
    <dc:date>2026-05-26T08:38:45.919003</dc:date>
    <dc:format>image/svg+xml</dc:format>
    <dc:creator>
     <cc:Agent>
      <dc:title>Matplotlib v3.10.9, https://matplotlib.org/</dc:title>
     </cc:Agent>
    </dc:creator>
   </cc:Work>
  </rdf:RDF>
 </metadata>
 <defs>
  <style type="text/css">*{stroke-linejoin: round; stroke-linecap: butt}</style>
 </defs>
 <g id="figure_1">
  <g id="patch_1">
   <path d="M 0 811.197812 
L 572.4 811.197812 
L 572.4 0 
L 0 0 
z
" style="fill: #1a1a2e"/>
  </g>
  <g id="axes_1">
   <g id="patch_2">
    <path d="M 98.154 145.814132 
L 251.046 145.814132 
Q 259.416 145.814132 259.416 134.171732 
L 259.416 92.259092 
Q 259.416 80.616692 251.046 80.616692 
L 98.154 80.616692 
Q 89.784 80.616692 89.784 92.259092 
L 89.784 134.171732 
Q 89.784 145.814132 98.154 145.814132 
z
" clip-path="url(#pb38578fc16)" style="fill: #1565c0; stroke: #555555; stroke-width: 1.5; stroke-linejoin: miter"/>
   </g>
   <g id="patch_3">
    <path d="M 98.154 223.430132 
L 251.046 223.430132 
Q 259.416 223.430132 259.416 211.787732 
L 259.416 185.398292 
Q 259.416 173.755892 251.046 173.755892 
L 98.154 173.755892 
Q 89.784 173.755892 89.784 185.398292 
L 89.784 211.787732 
Q 89.784 223.430132 98.154 223.430132 
z
" clip-path="url(#pb38578fc16)" style="fill: #455a64; stroke: #555555; stroke-width: 1.5; stroke-linejoin: miter"/>
   </g>
   <g id="patch_4">
    <path d="M 98.154 254.476532 
L 251.046 254.476532 
Q 259.416 254.476532 259.416 242.834132 
L 259.416 208.683092 
Q 259.416 197.040692 251.046 197.040692 
L 98.154 197.040692 
Q 89.784 197.040692 89.784 208.683092 
L 89.784 242.834132 
Q 89.784 254.476532 98.154 254.476532 
z
" clip-path="url(#pb38578fc16)" style="fill: #c62828; stroke: #555555; stroke-width: 1.5; stroke-linejoin: miter"/>
   </g>
   <g id="patch_5">
    <path d="M 165.114 293.284532 
L 195.246 293.284532 
Q 203.616 293.284532 203.616 281.642132 
L 203.616 274.656692 
Q 203.616 263.014292 195.246 263.014292 
L 165.114 263.014292 
Q 156.744 263.014292 156.744 274.656692 
L 156.744 281.642132 
Q 156.744 293.284532 165.114 293.284532 
z
" clip-path="url(#pb38578fc16)" style="fill: #455a64; stroke: #555555; stroke-width: 1.5; stroke-linejoin: miter"/>
   </g>
   <g id="patch_6">
    <path d="M 98.154 324.330932 
L 251.046 324.330932 
Q 259.416 324.330932 259.416 312.688532 
L 259.416 278.537492 
Q 259.416 266.895092 251.046 266.895092 
L 98.154 266.895092 
Q 89.784 266.895092 89.784 278.537492 
L 89.784 312.688532 
Q 89.784 324.330932 98.154 324.330932 
z
" clip-path="url(#pb38578fc16)" style="fill: #ef6c00; stroke: #555555; stroke-width: 1.5; stroke-linejoin: miter"/>
   </g>
   <g id="patch_7">
    <path d="M 165.114 363.138932 
L 195.246 363.138932 
Q 203.616 363.138932 203.616 351.496532 
L 203.616 344.511092 
Q 203.616 332.868692 195.246 332.868692 
L 165.114 332.868692 
Q 156.744 332.868692 156.744 344.511092 
L 156.744 351.496532 
Q 156.744 363.138932 165.114 363.138932 
z
" clip-path="url(#pb38578fc16)" style="fill: #455a64; stroke: #555555; stroke-width: 1.5; stroke-linejoin: miter"/>
   </g>
   <g id="patch_8">
    <path d="M 98.154 394.185332 
L 251.046 394.185332 
Q 259.416 394.185332 259.416 382.542932 
L 259.416 348.391892 
Q 259.416 336.749492 251.046 336.749492 
L 98.154 336.749492 
Q 89.784 336.749492 89.784 348.391892 
L 89.784 382.542932 
Q 89.784 394.185332 98.154 394.185332 
z
" clip-path="url(#pb38578fc16)" style="fill: #c62828; stroke: #555555; stroke-width: 1.5; stroke-linejoin: miter"/>
   </g>
   <g id="patch_9">
    <path d="M 165.114 432.993332 
L 195.246 432.993332 
Q 203.616 432.993332 203.616 421.350932 
L 203.616 414.365492 
Q 203.616 402.723092 195.246 402.723092 
L 165.114 402.723092 
Q 156.744 402.723092 156.744 414.365492 
L 156.744 421.350932 
Q 156.744 432.993332 165.114 432.993332 
z
" clip-path="url(#pb38578fc16)" style="fill: #455a64; stroke: #555555; stroke-width: 1.5; stroke-linejoin: miter"/>
   </g>
   <g id="patch_10">
    <path d="M 98.154 464.039732 
L 251.046 464.039732 
Q 259.416 464.039732 259.416 452.397332 
L 259.416 418.246292 
Q 259.416 406.603892 251.046 406.603892 
L 98.154 406.603892 
Q 89.784 406.603892 89.784 418.246292 
L 89.784 452.397332 
Q 89.784 464.039732 98.154 464.039732 
z
" clip-path="url(#pb38578fc16)" style="fill: #ef6c00; stroke: #555555; stroke-width: 1.5; stroke-linejoin: miter"/>
   </g>
   <g id="patch_11">
    <path d="M 165.114 502.847732 
L 195.246 502.847732 
Q 203.616 502.847732 203.616 491.205332 
L 203.616 484.219892 
Q 203.616 472.577492 195.246 472.577492 
L 165.114 472.577492 
Q 156.744 472.577492 156.744 484.219892 
L 156.744 491.205332 
Q 156.744 502.847732 165.114 502.847732 
z
" clip-path="url(#pb38578fc16)" style="fill: #455a64; stroke: #555555; stroke-width: 1.5; stroke-linejoin: miter"/>
   </g>
   <g id="patch_12">
    <path d="M 98.154 533.894132 
L 251.046 533.894132 
Q 259.416 533.894132 259.416 522.251732 
L 259.416 488.100692 
Q 259.416 476.458292 251.046 476.458292 
L 98.154 476.458292 
Q 89.784 476.458292 89.784 488.100692 
L 89.784 522.251732 
Q 89.784 533.894132 98.154 533.894132 
z
" clip-path="url(#pb38578fc16)" style="fill: #c62828; stroke: #555555; stroke-width: 1.5; stroke-linejoin: miter"/>
   </g>
   <g id="patch_13">
    <path d="M 165.114 572.702132 
L 195.246 572.702132 
Q 203.616 572.702132 203.616 561.059732 
L 203.616 554.074292 
Q 203.616 542.431892 195.246 542.431892 
L 165.114 542.431892 
Q 156.744 542.431892 156.744 554.074292 
L 156.744 561.059732 
Q 156.744 572.702132 165.114 572.702132 
z
" clip-path="url(#pb38578fc16)" style="fill: #455a64; stroke: #555555; stroke-width: 1.5; stroke-linejoin: miter"/>
   </g>
   <g id="patch_14">
    <path d="M 98.154 603.748532 
L 251.046 603.748532 
Q 259.416 603.748532 259.416 592.106132 
L 259.416 557.955092 
Q 259.416 546.312692 251.046 546.312692 
L 98.154 546.312692 
Q 89.784 546.312692 89.784 557.955092 
L 89.784 592.106132 
Q 89.784 603.748532 98.154 603.748532 
z
" clip-path="url(#pb38578fc16)" style="fill: #ef6c00; stroke: #555555; stroke-width: 1.5; stroke-linejoin: miter"/>
   </g>
   <g id="patch_15">
    <path d="M 165.114 642.556532 
L 195.246 642.556532 
Q 203.616 642.556532 203.616 630.914132 
L 203.616 623.928692 
Q 203.616 612.286292 195.246 612.286292 
L 165.114 612.286292 
Q 156.744 612.286292 156.744 623.928692 
L 156.744 630.914132 
Q 156.744 642.556532 165.114 642.556532 
z
" clip-path="url(#pb38578fc16)" style="fill: #455a64; stroke: #555555; stroke-width: 1.5; stroke-linejoin: miter"/>
   </g>
   <g id="patch_16">
    <path d="M 321.354 145.814132 
L 474.246 145.814132 
Q 482.616 145.814132 482.616 134.171732 
L 482.616 92.259092 
Q 482.616 80.616692 474.246 80.616692 
L 321.354 80.616692 
Q 312.984 80.616692 312.984 92.259092 
L 312.984 134.171732 
Q 312.984 145.814132 321.354 145.814132 
z
" clip-path="url(#pb38578fc16)" style="fill: #1565c0; stroke: #555555; stroke-width: 1.5; stroke-linejoin: miter"/>
   </g>
   <g id="patch_17">
    <path d="M 321.354 223.430132 
L 474.246 223.430132 
Q 482.616 223.430132 482.616 211.787732 
L 482.616 185.398292 
Q 482.616 173.755892 474.246 173.755892 
L 321.354 173.755892 
Q 312.984 173.755892 312.984 185.398292 
L 312.984 211.787732 
Q 312.984 223.430132 321.354 223.430132 
z
" clip-path="url(#pb38578fc16)" style="fill: #455a64; stroke: #555555; stroke-width: 1.5; stroke-linejoin: miter"/>
   </g>
   <g id="patch_18">
    <path d="M 321.354 254.476532 
L 474.246 254.476532 
Q 482.616 254.476532 482.616 242.834132 
L 482.616 208.683092 
Q 482.616 197.040692 474.246 197.040692 
L 321.354 197.040692 
Q 312.984 197.040692 312.984 208.683092 
L 312.984 242.834132 
Q 312.984 254.476532 321.354 254.476532 
z
" clip-path="url(#pb38578fc16)" style="fill: #c62828; stroke: #555555; stroke-width: 1.5; stroke-linejoin: miter"/>
   </g>
   <g id="patch_19">
    <path d="M 388.314 293.284532 
L 418.446 293.284532 
Q 426.816 293.284532 426.816 281.642132 
L 426.816 274.656692 
Q 426.816 263.014292 418.446 263.014292 
L 388.314 263.014292 
Q 379.944 263.014292 379.944 274.656692 
L 379.944 281.642132 
Q 379.944 293.284532 388.314 293.284532 
z
" clip-path="url(#pb38578fc16)" style="fill: #455a64; stroke: #555555; stroke-width: 1.5; stroke-linejoin: miter"/>
   </g>
   <g id="patch_20">
    <path d="M 321.354 324.330932 
L 474.246 324.330932 
Q 482.616 324.330932 482.616 312.688532 
L 482.616 278.537492 
Q 482.616 266.895092 474.246 266.895092 
L 321.354 266.895092 
Q 312.984 266.895092 312.984 278.537492 
L 312.984 312.688532 
Q 312.984 324.330932 321.354 324.330932 
z
" clip-path="url(#pb38578fc16)" style="fill: #c62828; stroke: #555555; stroke-width: 1.5; stroke-linejoin: miter"/>
   </g>
   <g id="patch_21">
    <path d="M 388.314 363.138932 
L 418.446 363.138932 
Q 426.816 363.138932 426.816 351.496532 
L 426.816 344.511092 
Q 426.816 332.868692 418.446 332.868692 
L 388.314 332.868692 
Q 379.944 332.868692 379.944 344.511092 
L 379.944 351.496532 
Q 379.944 363.138932 388.314 363.138932 
z
" clip-path="url(#pb38578fc16)" style="fill: #455a64; stroke: #555555; stroke-width: 1.5; stroke-linejoin: miter"/>
   </g>
   <g id="patch_22">
    <path d="M 321.354 417.470132 
L 474.246 417.470132 
Q 482.616 417.470132 482.616 405.827732 
L 482.616 371.676692 
Q 482.616 360.034292 474.246 360.034292 
L 321.354 360.034292 
Q 312.984 360.034292 312.984 371.676692 
L 312.984 405.827732 
Q 312.984 417.470132 321.354 417.470132 
z
" clip-path="url(#pb38578fc16)" style="fill: #ef6c00; stroke: #555555; stroke-width: 1.5; stroke-linejoin: miter"/>
   </g>
   <g id="patch_23">
    <path d="M 321.354 394.185332 
L 474.246 394.185332 
Q 482.616 394.185332 482.616 382.542932 
L 482.616 348.391892 
Q 482.616 336.749492 474.246 336.749492 
L 321.354 336.749492 
Q 312.984 336.749492 312.984 348.391892 
L 312.984 382.542932 
Q 312.984 394.185332 321.354 394.185332 
z
" clip-path="url(#pb38578fc16)" style="fill: #c62828; stroke: #555555; stroke-width: 1.5; stroke-linejoin: miter"/>
   </g>
   <g id="patch_24">
    <path d="M 388.314 432.993332 
L 418.446 432.993332 
Q 426.816 432.993332 426.816 421.350932 
L 426.816 414.365492 
Q 426.816 402.723092 418.446 402.723092 
L 388.314 402.723092 
Q 379.944 402.723092 379.944 414.365492 
L 379.944 421.350932 
Q 379.944 432.993332 388.314 432.993332 
z
" clip-path="url(#pb38578fc16)" style="fill: #455a64; stroke: #555555; stroke-width: 1.5; stroke-linejoin: miter"/>
   </g>
   <g id="patch_25">
    <path d="M 321.354 464.039732 
L 474.246 464.039732 
Q 482.616 464.039732 482.616 452.397332 
L 482.616 418.246292 
Q 482.616 406.603892 474.246 406.603892 
L 321.354 406.603892 
Q 312.984 406.603892 312.984 418.246292 
L 312.984 452.397332 
Q 312.984 464.039732 321.354 464.039732 
z
" clip-path="url(#pb38578fc16)" style="fill: #c62828; stroke: #555555; stroke-width: 1.5; stroke-linejoin: miter"/>
   </g>
   <g id="patch_26">
    <path d="M 388.314 502.847732 
L 418.446 502.847732 
Q 426.816 502.847732 426.816 491.205332 
L 426.816 484.219892 
Q 426.816 472.577492 418.446 472.577492 
L 388.314 472.577492 
Q 379.944 472.577492 379.944 484.219892 
L 379.944 491.205332 
Q 379.944 502.847732 388.314 502.847732 
z
" clip-path="url(#pb38578fc16)" style="fill: #455a64; stroke: #555555; stroke-width: 1.5; stroke-linejoin: miter"/>
   </g>
   <g id="patch_27">
    <path d="M 321.354 557.178932 
L 474.246 557.178932 
Q 482.616 557.178932 482.616 545.536532 
L 482.616 511.385492 
Q 482.616 499.743092 474.246 499.743092 
L 321.354 499.743092 
Q 312.984 499.743092 312.984 511.385492 
L 312.984 545.536532 
Q 312.984 557.178932 321.354 557.178932 
z
" clip-path="url(#pb38578fc16)" style="fill: #ef6c00; stroke: #555555; stroke-width: 1.5; stroke-linejoin: miter"/>
   </g>
   <g id="patch_28">
    <path d="M 321.354 533.894132 
L 474.246 533.894132 
Q 482.616 533.894132 482.616 522.251732 
L 482.616 488.100692 
Q 482.616 476.458292 474.246 476.458292 
L 321.354 476.458292 
Q 312.984 476.458292 312.984 488.100692 
L 312.984 522.251732 
Q 312.984 533.894132 321.354 533.894132 
z
" clip-path="url(#pb38578fc16)" style="fill: #c62828; stroke: #555555; stroke-width: 1.5; stroke-linejoin: miter"/>
   </g>
   <g id="patch_29">
    <path d="M 388.314 572.702132 
L 418.446 572.702132 
Q 426.816 572.702132 426.816 561.059732 
L 426.816 554.074292 
Q 426.816 542.431892 418.446 542.431892 
L 388.314 542.431892 
Q 379.944 542.431892 379.944 554.074292 
L 379.944 561.059732 
Q 379.944 572.702132 388.314 572.702132 
z
" clip-path="url(#pb38578fc16)" style="fill: #455a64; stroke: #555555; stroke-width: 1.5; stroke-linejoin: miter"/>
   </g>
   <g id="patch_30">
    <path d="M 321.354 603.748532 
L 474.246 603.748532 
Q 482.616 603.748532 482.616 592.106132 
L 482.616 557.955092 
Q 482.616 546.312692 474.246 546.312692 
L 321.354 546.312692 
Q 312.984 546.312692 312.984 557.955092 
L 312.984 592.106132 
Q 312.984 603.748532 321.354 603.748532 
z
" clip-path="url(#pb38578fc16)" style="fill: #c62828; stroke: #555555; stroke-width: 1.5; stroke-linejoin: miter"/>
   </g>
   <g id="patch_31">
    <path d="M 388.314 642.556532 
L 418.446 642.556532 
Q 426.816 642.556532 426.816 630.914132 
L 426.816 623.928692 
Q 426.816 612.286292 418.446 612.286292 
L 388.314 612.286292 
Q 379.944 612.286292 379.944 623.928692 
L 379.944 630.914132 
Q 379.944 642.556532 388.314 642.556532 
z
" clip-path="url(#pb38578fc16)" style="fill: #455a64; stroke: #555555; stroke-width: 1.5; stroke-linejoin: miter"/>
   </g>
   <g id="patch_32">
    <path d="M 321.354 696.887732 
L 474.246 696.887732 
Q 482.616 696.887732 482.616 685.245332 
L 482.616 651.094292 
Q 482.616 639.451892 474.246 639.451892 
L 321.354 639.451892 
Q 312.984 639.451892 312.984 651.094292 
L 312.984 685.245332 
Q 312.984 696.887732 321.354 696.887732 
z
" clip-path="url(#pb38578fc16)" style="fill: #ef6c00; stroke: #555555; stroke-width: 1.5; stroke-linejoin: miter"/>
   </g>
   <g id="patch_33">
    <path d="M 321.354 782.265332 
L 474.246 782.265332 
Q 482.616 782.265332 482.616 770.622932 
L 482.616 744.233492 
Q 482.616 732.591092 474.246 732.591092 
L 321.354 732.591092 
Q 312.984 732.591092 312.984 744.233492 
L 312.984 770.622932 
Q 312.984 782.265332 321.354 782.265332 
z
" clip-path="url(#pb38578fc16)" style="fill: #2e7d32; stroke: #555555; stroke-width: 1.5; stroke-linejoin: miter"/>
   </g>
   <g id="patch_34">
    <path d="M 321.354 689.126132 
L 474.246 689.126132 
Q 482.616 689.126132 482.616 677.483732 
L 482.616 651.094292 
Q 482.616 639.451892 474.246 639.451892 
L 321.354 639.451892 
Q 312.984 639.451892 312.984 651.094292 
L 312.984 677.483732 
Q 312.984 689.126132 321.354 689.126132 
z
" clip-path="url(#pb38578fc16)" style="fill: #2e7d32; stroke: #555555; stroke-width: 1.5; stroke-linejoin: miter"/>
   </g>
   <g id="text_1">
    <!-- Input Embedding -->
    <g style="fill: #eaeaea" transform="translate(131.134922 115.663694) scale(0.09 -0.09)">
     <defs>
      <path id="DejaVuSans-Bold-49" d="M 588 4666 
L 1791 4666 
L 1791 0 
L 588 0 
L 588 4666 
z
" transform="scale(0.015625)"/>
      <path id="DejaVuSans-Bold-6e" d="M 4056 2131 
L 4056 0 
L 2931 0 
L 2931 347 
L 2931 1631 
Q 2931 2084 2911 2256 
Q 2891 2428 2841 2509 
Q 2775 2619 2662 2680 
Q 2550 2741 2406 2741 
Q 2056 2741 1856 2470 
Q 1656 2200 1656 1722 
L 1656 0 
L 538 0 
L 538 3500 
L 1656 3500 
L 1656 2988 
Q 1909 3294 2193 3439 
Q 2478 3584 2822 3584 
Q 3428 3584 3742 3212 
Q 4056 2841 4056 2131 
z
" transform="scale(0.015625)"/>
      <path id="DejaVuSans-Bold-70" d="M 1656 506 
L 1656 -1331 
L 538 -1331 
L 538 3500 
L 1656 3500 
L 1656 2988 
Q 1888 3294 2169 3439 
Q 2450 3584 2816 3584 
Q 3463 3584 3878 3070 
Q 4294 2556 4294 1747 
Q 4294 938 3878 423 
Q 3463 -91 2816 -91 
Q 2450 -91 2169 54 
Q 1888 200 1656 506 
z
M 2400 2772 
Q 2041 2772 1848 2508 
Q 1656 2244 1656 1747 
Q 1656 1250 1848 986 
Q 2041 722 2400 722 
Q 2759 722 2948 984 
Q 3138 1247 3138 1747 
Q 3138 2247 2948 2509 
Q 2759 2772 2400 2772 
z
" transform="scale(0.015625)"/>
      <path id="DejaVuSans-Bold-75" d="M 500 1363 
L 500 3500 
L 1625 3500 
L 1625 3150 
Q 1625 2866 1622 2436 
Q 1619 2006 1619 1863 
Q 1619 1441 1641 1255 
Q 1663 1069 1716 984 
Q 1784 875 1895 815 
Q 2006 756 2150 756 
Q 2500 756 2700 1025 
Q 2900 1294 2900 1772 
L 2900 3500 
L 4019 3500 
L 4019 0 
L 2900 0 
L 2900 506 
Q 2647 200 2364 54 
Q 2081 -91 1741 -91 
Q 1134 -91 817 281 
Q 500 653 500 1363 
z
" transform="scale(0.015625)"/>
      <path id="DejaVuSans-Bold-74" d="M 1759 4494 
L 1759 3500 
L 2913 3500 
L 2913 2700 
L 1759 2700 
L 1759 1216 
Q 1759 972 1856 886 
Q 1953 800 2241 800 
L 2816 800 
L 2816 0 
L 1856 0 
Q 1194 0 917 276 
Q 641 553 641 1216 
L 641 2700 
L 84 2700 
L 84 3500 
L 641 3500 
L 641 4494 
L 1759 4494 
z
" transform="scale(0.015625)"/>
      <path id="DejaVuSans-Bold-20" transform="scale(0.015625)"/>
      <path id="DejaVuSans-Bold-45" d="M 588 4666 
L 3834 4666 
L 3834 3756 
L 1791 3756 
L 1791 2888 
L 3713 2888 
L 3713 1978 
L 1791 1978 
L 1791 909 
L 3903 909 
L 3903 0 
L 588 0 
L 588 4666 
z
" transform="scale(0.015625)"/>
      <path id="DejaVuSans-Bold-6d" d="M 3781 2919 
Q 3994 3244 4286 3414 
Q 4578 3584 4928 3584 
Q 5531 3584 5847 3212 
Q 6163 2841 6163 2131 
L 6163 0 
L 5038 0 
L 5038 1825 
Q 5041 1866 5042 1909 
Q 5044 1953 5044 2034 
Q 5044 2406 4934 2573 
Q 4825 2741 4581 2741 
Q 4263 2741 4089 2478 
Q 3916 2216 3909 1719 
L 3909 0 
L 2784 0 
L 2784 1825 
Q 2784 2406 2684 2573 
Q 2584 2741 2328 2741 
Q 2006 2741 1831 2477 
Q 1656 2213 1656 1722 
L 1656 0 
L 531 0 
L 531 3500 
L 1656 3500 
L 1656 2988 
Q 1863 3284 2130 3434 
Q 2397 3584 2719 3584 
Q 3081 3584 3359 3409 
Q 3638 3234 3781 2919 
z
" transform="scale(0.015625)"/>
      <path id="DejaVuSans-Bold-62" d="M 2400 722 
Q 2759 722 2948 984 
Q 3138 1247 3138 1747 
Q 3138 2247 2948 2509 
Q 2759 2772 2400 2772 
Q 2041 2772 1848 2508 
Q 1656 2244 1656 1747 
Q 1656 1250 1848 986 
Q 2041 722 2400 722 
z
M 1656 2988 
Q 1888 3294 2169 3439 
Q 2450 3584 2816 3584 
Q 3463 3584 3878 3070 
Q 4294 2556 4294 1747 
Q 4294 938 3878 423 
Q 3463 -91 2816 -91 
Q 2450 -91 2169 54 
Q 1888 200 1656 506 
L 1656 0 
L 538 0 
L 538 4863 
L 1656 4863 
L 1656 2988 
z
" transform="scale(0.015625)"/>
      <path id="DejaVuSans-Bold-65" d="M 4031 1759 
L 4031 1441 
L 1416 1441 
Q 1456 1047 1700 850 
Q 1944 653 2381 653 
Q 2734 653 3104 758 
Q 3475 863 3866 1075 
L 3866 213 
Q 3469 63 3072 -14 
Q 2675 -91 2278 -91 
Q 1328 -91 801 392 
Q 275 875 275 1747 
Q 275 2603 792 3093 
Q 1309 3584 2216 3584 
Q 3041 3584 3536 3087 
Q 4031 2591 4031 1759 
z
M 2881 2131 
Q 2881 2450 2695 2645 
Q 2509 2841 2209 2841 
Q 1884 2841 1681 2658 
Q 1478 2475 1428 2131 
L 2881 2131 
z
" transform="scale(0.015625)"/>
      <path id="DejaVuSans-Bold-64" d="M 2919 2988 
L 2919 4863 
L 4044 4863 
L 4044 0 
L 2919 0 
L 2919 506 
Q 2688 197 2409 53 
Q 2131 -91 1766 -91 
Q 1119 -91 703 423 
Q 288 938 288 1747 
Q 288 2556 703 3070 
Q 1119 3584 1766 3584 
Q 2128 3584 2408 3439 
Q 2688 3294 2919 2988 
z
M 2181 722 
Q 2541 722 2730 984 
Q 2919 1247 2919 1747 
Q 2919 2247 2730 2509 
Q 2541 2772 2181 2772 
Q 1825 2772 1636 2509 
Q 1447 2247 1447 1747 
Q 1447 1247 1636 984 
Q 1825 722 2181 722 
z
" transform="scale(0.015625)"/>
      <path id="DejaVuSans-Bold-69" d="M 538 3500 
L 1656 3500 
L 1656 0 
L 538 0 
L 538 3500 
z
M 538 4863 
L 1656 4863 
L 1656 3950 
L 538 3950 
L 538 4863 
z
" transform="scale(0.015625)"/>
      <path id="DejaVuSans-Bold-67" d="M 2919 594 
Q 2688 288 2409 144 
Q 2131 0 1766 0 
Q 1125 0 706 504 
Q 288 1009 288 1791 
Q 288 2575 706 3076 
Q 1125 3578 1766 3578 
Q 2131 3578 2409 3434 
Q 2688 3291 2919 2981 
L 2919 3500 
L 4044 3500 
L 4044 353 
Q 4044 -491 3511 -936 
Q 2978 -1381 1966 -1381 
Q 1638 -1381 1331 -1331 
Q 1025 -1281 716 -1178 
L 716 -306 
Q 1009 -475 1290 -558 
Q 1572 -641 1856 -641 
Q 2406 -641 2662 -400 
Q 2919 -159 2919 353 
L 2919 594 
z
M 2181 2772 
Q 1834 2772 1640 2515 
Q 1447 2259 1447 1791 
Q 1447 1309 1634 1061 
Q 1822 813 2181 813 
Q 2531 813 2725 1069 
Q 2919 1325 2919 1791 
Q 2919 2259 2725 2515 
Q 2531 2772 2181 2772 
z
" transform="scale(0.015625)"/>
     </defs>
     <use xlink:href="#DejaVuSans-Bold-49"/>
     <use xlink:href="#DejaVuSans-Bold-6e" transform="translate(37.207031 0)"/>
     <use xlink:href="#DejaVuSans-Bold-70" transform="translate(108.398438 0)"/>
     <use xlink:href="#DejaVuSans-Bold-75" transform="translate(179.980469 0)"/>
     <use xlink:href="#DejaVuSans-Bold-74" transform="translate(251.171875 0)"/>
     <use xlink:href="#DejaVuSans-Bold-20" transform="translate(298.974609 0)"/>
     <use xlink:href="#DejaVuSans-Bold-45" transform="translate(333.789062 0)"/>
     <use xlink:href="#DejaVuSans-Bold-6d" transform="translate(402.099609 0)"/>
     <use xlink:href="#DejaVuSans-Bold-62" transform="translate(506.298828 0)"/>
     <use xlink:href="#DejaVuSans-Bold-65" transform="translate(577.880859 0)"/>
     <use xlink:href="#DejaVuSans-Bold-64" transform="translate(645.703125 0)"/>
     <use xlink:href="#DejaVuSans-Bold-64" transform="translate(717.285156 0)"/>
     <use xlink:href="#DejaVuSans-Bold-69" transform="translate(788.867188 0)"/>
     <use xlink:href="#DejaVuSans-Bold-6e" transform="translate(823.144531 0)"/>
     <use xlink:href="#DejaVuSans-Bold-67" transform="translate(894.335938 0)"/>
    </g>
   </g>
   <g id="text_2">
    <!-- + Positional Encoding -->
    <g style="fill: #eaeaea" transform="translate(125.4375 200.769262) scale(0.08 -0.08)">
     <defs>
      <path id="DejaVuSans-Bold-2b" d="M 3053 4013 
L 3053 2375 
L 4684 2375 
L 4684 1638 
L 3053 1638 
L 3053 0 
L 2309 0 
L 2309 1638 
L 678 1638 
L 678 2375 
L 2309 2375 
L 2309 4013 
L 3053 4013 
z
" transform="scale(0.015625)"/>
      <path id="DejaVuSans-Bold-50" d="M 588 4666 
L 2584 4666 
Q 3475 4666 3951 4270 
Q 4428 3875 4428 3144 
Q 4428 2409 3951 2014 
Q 3475 1619 2584 1619 
L 1791 1619 
L 1791 0 
L 588 0 
L 588 4666 
z
M 1791 3794 
L 1791 2491 
L 2456 2491 
Q 2806 2491 2997 2661 
Q 3188 2831 3188 3144 
Q 3188 3456 2997 3625 
Q 2806 3794 2456 3794 
L 1791 3794 
z
" transform="scale(0.015625)"/>
      <path id="DejaVuSans-Bold-6f" d="M 2203 2784 
Q 1831 2784 1636 2517 
Q 1441 2250 1441 1747 
Q 1441 1244 1636 976 
Q 1831 709 2203 709 
Q 2569 709 2762 976 
Q 2956 1244 2956 1747 
Q 2956 2250 2762 2517 
Q 2569 2784 2203 2784 
z
M 2203 3584 
Q 3106 3584 3614 3096 
Q 4122 2609 4122 1747 
Q 4122 884 3614 396 
Q 3106 -91 2203 -91 
Q 1297 -91 786 396 
Q 275 884 275 1747 
Q 275 2609 786 3096 
Q 1297 3584 2203 3584 
z
" transform="scale(0.015625)"/>
      <path id="DejaVuSans-Bold-73" d="M 3272 3391 
L 3272 2541 
Q 2913 2691 2578 2766 
Q 2244 2841 1947 2841 
Q 1628 2841 1473 2761 
Q 1319 2681 1319 2516 
Q 1319 2381 1436 2309 
Q 1553 2238 1856 2203 
L 2053 2175 
Q 2913 2066 3209 1816 
Q 3506 1566 3506 1031 
Q 3506 472 3093 190 
Q 2681 -91 1863 -91 
Q 1516 -91 1145 -36 
Q 775 19 384 128 
L 384 978 
Q 719 816 1070 734 
Q 1422 653 1784 653 
Q 2113 653 2278 743 
Q 2444 834 2444 1013 
Q 2444 1163 2330 1236 
Q 2216 1309 1875 1350 
L 1678 1375 
Q 931 1469 631 1722 
Q 331 1975 331 2491 
Q 331 3047 712 3315 
Q 1094 3584 1881 3584 
Q 2191 3584 2531 3537 
Q 2872 3491 3272 3391 
z
" transform="scale(0.015625)"/>
      <path id="DejaVuSans-Bold-61" d="M 2106 1575 
Q 1756 1575 1579 1456 
Q 1403 1338 1403 1106 
Q 1403 894 1545 773 
Q 1688 653 1941 653 
Q 2256 653 2472 879 
Q 2688 1106 2688 1447 
L 2688 1575 
L 2106 1575 
z
M 3816 1997 
L 3816 0 
L 2688 0 
L 2688 519 
Q 2463 200 2181 54 
Q 1900 -91 1497 -91 
Q 953 -91 614 226 
Q 275 544 275 1050 
Q 275 1666 698 1953 
Q 1122 2241 2028 2241 
L 2688 2241 
L 2688 2328 
Q 2688 2594 2478 2717 
Q 2269 2841 1825 2841 
Q 1466 2841 1156 2769 
Q 847 2697 581 2553 
L 581 3406 
Q 941 3494 1303 3539 
Q 1666 3584 2028 3584 
Q 2975 3584 3395 3211 
Q 3816 2838 3816 1997 
z
" transform="scale(0.015625)"/>
      <path id="DejaVuSans-Bold-6c" d="M 538 4863 
L 1656 4863 
L 1656 0 
L 538 0 
L 538 4863 
z
" transform="scale(0.015625)"/>
      <path id="DejaVuSans-Bold-63" d="M 3366 3391 
L 3366 2478 
Q 3138 2634 2908 2709 
Q 2678 2784 2431 2784 
Q 1963 2784 1702 2511 
Q 1441 2238 1441 1747 
Q 1441 1256 1702 982 
Q 1963 709 2431 709 
Q 2694 709 2930 787 
Q 3166 866 3366 1019 
L 3366 103 
Q 3103 6 2833 -42 
Q 2563 -91 2291 -91 
Q 1344 -91 809 395 
Q 275 881 275 1747 
Q 275 2613 809 3098 
Q 1344 3584 2291 3584 
Q 2566 3584 2833 3536 
Q 3100 3488 3366 3391 
z
" transform="scale(0.015625)"/>
     </defs>
     <use xlink:href="#DejaVuSans-Bold-2b"/>
     <use xlink:href="#DejaVuSans-Bold-20" transform="translate(83.789062 0)"/>
     <use xlink:href="#DejaVuSans-Bold-50" transform="translate(118.603516 0)"/>
     <use xlink:href="#DejaVuSans-Bold-6f" transform="translate(191.894531 0)"/>
     <use xlink:href="#DejaVuSans-Bold-73" transform="translate(260.595703 0)"/>
     <use xlink:href="#DejaVuSans-Bold-69" transform="translate(320.117188 0)"/>
     <use xlink:href="#DejaVuSans-Bold-74" transform="translate(354.394531 0)"/>
     <use xlink:href="#DejaVuSans-Bold-69" transform="translate(402.197266 0)"/>
     <use xlink:href="#DejaVuSans-Bold-6f" transform="translate(436.474609 0)"/>
     <use xlink:href="#DejaVuSans-Bold-6e" transform="translate(505.175781 0)"/>
     <use xlink:href="#DejaVuSans-Bold-61" transform="translate(576.367188 0)"/>
     <use xlink:href="#DejaVuSans-Bold-6c" transform="translate(643.847656 0)"/>
     <use xlink:href="#DejaVuSans-Bold-20" transform="translate(678.125 0)"/>
     <use xlink:href="#DejaVuSans-Bold-45" transform="translate(712.939453 0)"/>
     <use xlink:href="#DejaVuSans-Bold-6e" transform="translate(781.25 0)"/>
     <use xlink:href="#DejaVuSans-Bold-63" transform="translate(852.441406 0)"/>
     <use xlink:href="#DejaVuSans-Bold-6f" transform="translate(911.71875 0)"/>
     <use xlink:href="#DejaVuSans-Bold-64" transform="translate(980.419922 0)"/>
     <use xlink:href="#DejaVuSans-Bold-69" transform="translate(1052.001953 0)"/>
     <use xlink:href="#DejaVuSans-Bold-6e" transform="translate(1086.279297 0)"/>
     <use xlink:href="#DejaVuSans-Bold-67" transform="translate(1157.470703 0)"/>
    </g>
   </g>
   <g id="text_3">
    <!-- Multi-Head Attention -->
    <g style="fill: #eaeaea" transform="translate(121.143516 228.24205) scale(0.09 -0.09)">
     <defs>
      <path id="DejaVuSans-Bold-4d" d="M 588 4666 
L 2119 4666 
L 3181 2169 
L 4250 4666 
L 5778 4666 
L 5778 0 
L 4641 0 
L 4641 3413 
L 3566 897 
L 2803 897 
L 1728 3413 
L 1728 0 
L 588 0 
L 588 4666 
z
" transform="scale(0.015625)"/>
      <path id="DejaVuSans-Bold-2d" d="M 347 2297 
L 2309 2297 
L 2309 1388 
L 347 1388 
L 347 2297 
z
" transform="scale(0.015625)"/>
      <path id="DejaVuSans-Bold-48" d="M 588 4666 
L 1791 4666 
L 1791 2888 
L 3566 2888 
L 3566 4666 
L 4769 4666 
L 4769 0 
L 3566 0 
L 3566 1978 
L 1791 1978 
L 1791 0 
L 588 0 
L 588 4666 
z
" transform="scale(0.015625)"/>
      <path id="DejaVuSans-Bold-41" d="M 3419 850 
L 1538 850 
L 1241 0 
L 31 0 
L 1759 4666 
L 3194 4666 
L 4922 0 
L 3713 0 
L 3419 850 
z
M 1838 1716 
L 3116 1716 
L 2478 3572 
L 1838 1716 
z
" transform="scale(0.015625)"/>
     </defs>
     <use xlink:href="#DejaVuSans-Bold-4d"/>
     <use xlink:href="#DejaVuSans-Bold-75" transform="translate(99.511719 0)"/>
     <use xlink:href="#DejaVuSans-Bold-6c" transform="translate(170.703125 0)"/>
     <use xlink:href="#DejaVuSans-Bold-74" transform="translate(204.980469 0)"/>
     <use xlink:href="#DejaVuSans-Bold-69" transform="translate(252.783203 0)"/>
     <use xlink:href="#DejaVuSans-Bold-2d" transform="translate(287.060547 0)"/>
     <use xlink:href="#DejaVuSans-Bold-48" transform="translate(328.564453 0)"/>
     <use xlink:href="#DejaVuSans-Bold-65" transform="translate(412.255859 0)"/>
     <use xlink:href="#DejaVuSans-Bold-61" transform="translate(480.078125 0)"/>
     <use xlink:href="#DejaVuSans-Bold-64" transform="translate(547.558594 0)"/>
     <use xlink:href="#DejaVuSans-Bold-20" transform="translate(619.140625 0)"/>
     <use xlink:href="#DejaVuSans-Bold-41" transform="translate(653.955078 0)"/>
     <use xlink:href="#DejaVuSans-Bold-74" transform="translate(731.347656 0)"/>
     <use xlink:href="#DejaVuSans-Bold-74" transform="translate(779.150391 0)"/>
     <use xlink:href="#DejaVuSans-Bold-65" transform="translate(826.953125 0)"/>
     <use xlink:href="#DejaVuSans-Bold-6e" transform="translate(894.775391 0)"/>
     <use xlink:href="#DejaVuSans-Bold-74" transform="translate(965.966797 0)"/>
     <use xlink:href="#DejaVuSans-Bold-69" transform="translate(1013.769531 0)"/>
     <use xlink:href="#DejaVuSans-Bold-6f" transform="translate(1048.046875 0)"/>
     <use xlink:href="#DejaVuSans-Bold-6e" transform="translate(1116.748047 0)"/>
    </g>
   </g>
   <g id="text_4">
    <!-- Add &amp; Norm -->
    <g style="fill: #eaeaea" transform="translate(156.265156 280.080975) scale(0.07 -0.07)">
     <defs>
      <path id="DejaVuSans-Bold-26" d="M 2497 3097 
L 3775 1691 
Q 3941 1909 4027 2181 
Q 4113 2453 4128 2797 
L 5100 2797 
Q 5053 2228 4879 1784 
Q 4706 1341 4397 1006 
L 5313 0 
L 3988 0 
L 3681 341 
Q 3353 122 2990 15 
Q 2628 -91 2222 -91 
Q 1400 -91 892 342 
Q 384 775 384 1459 
Q 384 1916 607 2267 
Q 831 2619 1338 2950 
Q 1206 3116 1143 3281 
Q 1081 3447 1081 3628 
Q 1081 4138 1478 4444 
Q 1875 4750 2534 4750 
Q 2819 4750 3126 4704 
Q 3434 4659 3769 4569 
L 3769 3700 
Q 3475 3850 3212 3922 
Q 2950 3994 2700 3994 
Q 2459 3994 2326 3901 
Q 2194 3809 2194 3641 
Q 2194 3534 2270 3398 
Q 2347 3263 2497 3097 
z
M 1875 2322 
Q 1672 2175 1569 1989 
Q 1466 1803 1466 1581 
Q 1466 1222 1731 969 
Q 1997 716 2369 716 
Q 2578 716 2759 780 
Q 2941 844 3097 972 
L 1875 2322 
z
" transform="scale(0.015625)"/>
      <path id="DejaVuSans-Bold-4e" d="M 588 4666 
L 1931 4666 
L 3628 1466 
L 3628 4666 
L 4769 4666 
L 4769 0 
L 3425 0 
L 1728 3200 
L 1728 0 
L 588 0 
L 588 4666 
z
" transform="scale(0.015625)"/>
      <path id="DejaVuSans-Bold-72" d="M 3138 2547 
Q 2991 2616 2845 2648 
Q 2700 2681 2553 2681 
Q 2122 2681 1889 2404 
Q 1656 2128 1656 1613 
L 1656 0 
L 538 0 
L 538 3500 
L 1656 3500 
L 1656 2925 
Q 1872 3269 2151 3426 
Q 2431 3584 2822 3584 
Q 2878 3584 2943 3579 
Q 3009 3575 3134 3559 
L 3138 2547 
z
" transform="scale(0.015625)"/>
     </defs>
     <use xlink:href="#DejaVuSans-Bold-41"/>
     <use xlink:href="#DejaVuSans-Bold-64" transform="translate(77.392578 0)"/>
     <use xlink:href="#DejaVuSans-Bold-64" transform="translate(148.974609 0)"/>
     <use xlink:href="#DejaVuSans-Bold-20" transform="translate(220.556641 0)"/>
     <use xlink:href="#DejaVuSans-Bold-26" transform="translate(255.371094 0)"/>
     <use xlink:href="#DejaVuSans-Bold-20" transform="translate(342.578125 0)"/>
     <use xlink:href="#DejaVuSans-Bold-4e" transform="translate(377.392578 0)"/>
     <use xlink:href="#DejaVuSans-Bold-6f" transform="translate(461.083984 0)"/>
     <use xlink:href="#DejaVuSans-Bold-72" transform="translate(529.785156 0)"/>
     <use xlink:href="#DejaVuSans-Bold-6d" transform="translate(579.101562 0)"/>
    </g>
   </g>
   <g id="text_5">
    <!-- Feed Forward -->
    <g style="fill: #eaeaea" transform="translate(139.974609 298.09645) scale(0.09 -0.09)">
     <defs>
      <path id="DejaVuSans-Bold-46" d="M 588 4666 
L 3834 4666 
L 3834 3756 
L 1791 3756 
L 1791 2888 
L 3713 2888 
L 3713 1978 
L 1791 1978 
L 1791 0 
L 588 0 
L 588 4666 
z
" transform="scale(0.015625)"/>
      <path id="DejaVuSans-Bold-77" d="M 225 3500 
L 1313 3500 
L 1900 1088 
L 2491 3500 
L 3425 3500 
L 4013 1113 
L 4603 3500 
L 5691 3500 
L 4769 0 
L 3547 0 
L 2956 2406 
L 2369 0 
L 1147 0 
L 225 3500 
z
" transform="scale(0.015625)"/>
     </defs>
     <use xlink:href="#DejaVuSans-Bold-46"/>
     <use xlink:href="#DejaVuSans-Bold-65" transform="translate(64.310547 0)"/>
     <use xlink:href="#DejaVuSans-Bold-65" transform="translate(132.132812 0)"/>
     <use xlink:href="#DejaVuSans-Bold-64" transform="translate(199.955078 0)"/>
     <use xlink:href="#DejaVuSans-Bold-20" transform="translate(271.537109 0)"/>
     <use xlink:href="#DejaVuSans-Bold-46" transform="translate(306.351562 0)"/>
     <use xlink:href="#DejaVuSans-Bold-6f" transform="translate(370.662109 0)"/>
     <use xlink:href="#DejaVuSans-Bold-72" transform="translate(439.363281 0)"/>
     <use xlink:href="#DejaVuSans-Bold-77" transform="translate(488.679688 0)"/>
     <use xlink:href="#DejaVuSans-Bold-61" transform="translate(581.0625 0)"/>
     <use xlink:href="#DejaVuSans-Bold-72" transform="translate(648.542969 0)"/>
     <use xlink:href="#DejaVuSans-Bold-64" transform="translate(697.859375 0)"/>
    </g>
   </g>
   <g id="text_6">
    <!-- Add &amp; Norm -->
    <g style="fill: #eaeaea" transform="translate(156.265156 349.935375) scale(0.07 -0.07)">
     <use xlink:href="#DejaVuSans-Bold-41"/>
     <use xlink:href="#DejaVuSans-Bold-64" transform="translate(77.392578 0)"/>
     <use xlink:href="#DejaVuSans-Bold-64" transform="translate(148.974609 0)"/>
     <use xlink:href="#DejaVuSans-Bold-20" transform="translate(220.556641 0)"/>
     <use xlink:href="#DejaVuSans-Bold-26" transform="translate(255.371094 0)"/>
     <use xlink:href="#DejaVuSans-Bold-20" transform="translate(342.578125 0)"/>
     <use xlink:href="#DejaVuSans-Bold-4e" transform="translate(377.392578 0)"/>
     <use xlink:href="#DejaVuSans-Bold-6f" transform="translate(461.083984 0)"/>
     <use xlink:href="#DejaVuSans-Bold-72" transform="translate(529.785156 0)"/>
     <use xlink:href="#DejaVuSans-Bold-6d" transform="translate(579.101562 0)"/>
    </g>
   </g>
   <g id="patch_35">
    <path d="M 174.6 359.588181 
Q 174.6 276.210193 174.6 194.509257 
" style="fill: none; stroke: #00d4aa; stroke-width: 1.5; stroke-linecap: round"/>
    <path d="M 172.6 198.509257 
L 174.6 194.509257 
L 176.6 198.509257 
" style="fill: none; stroke: #00d4aa; stroke-width: 1.5; stroke-linecap: round"/>
   </g>
   <g id="text_7">
    <!-- Multi-Head Attention -->
    <g style="fill: #eaeaea" transform="translate(121.143516 367.95085) scale(0.09 -0.09)">
     <use xlink:href="#DejaVuSans-Bold-4d"/>
     <use xlink:href="#DejaVuSans-Bold-75" transform="translate(99.511719 0)"/>
     <use xlink:href="#DejaVuSans-Bold-6c" transform="translate(170.703125 0)"/>
     <use xlink:href="#DejaVuSans-Bold-74" transform="translate(204.980469 0)"/>
     <use xlink:href="#DejaVuSans-Bold-69" transform="translate(252.783203 0)"/>
     <use xlink:href="#DejaVuSans-Bold-2d" transform="translate(287.060547 0)"/>
     <use xlink:href="#DejaVuSans-Bold-48" transform="translate(328.564453 0)"/>
     <use xlink:href="#DejaVuSans-Bold-65" transform="translate(412.255859 0)"/>
     <use xlink:href="#DejaVuSans-Bold-61" transform="translate(480.078125 0)"/>
     <use xlink:href="#DejaVuSans-Bold-64" transform="translate(547.558594 0)"/>
     <use xlink:href="#DejaVuSans-Bold-20" transform="translate(619.140625 0)"/>
     <use xlink:href="#DejaVuSans-Bold-41" transform="translate(653.955078 0)"/>
     <use xlink:href="#DejaVuSans-Bold-74" transform="translate(731.347656 0)"/>
     <use xlink:href="#DejaVuSans-Bold-74" transform="translate(779.150391 0)"/>
     <use xlink:href="#DejaVuSans-Bold-65" transform="translate(826.953125 0)"/>
     <use xlink:href="#DejaVuSans-Bold-6e" transform="translate(894.775391 0)"/>
     <use xlink:href="#DejaVuSans-Bold-74" transform="translate(965.966797 0)"/>
     <use xlink:href="#DejaVuSans-Bold-69" transform="translate(1013.769531 0)"/>
     <use xlink:href="#DejaVuSans-Bold-6f" transform="translate(1048.046875 0)"/>
     <use xlink:href="#DejaVuSans-Bold-6e" transform="translate(1116.748047 0)"/>
    </g>
   </g>
   <g id="text_8">
    <!-- Add &amp; Norm -->
    <g style="fill: #eaeaea" transform="translate(156.265156 419.789775) scale(0.07 -0.07)">
     <use xlink:href="#DejaVuSans-Bold-41"/>
     <use xlink:href="#DejaVuSans-Bold-64" transform="translate(77.392578 0)"/>
     <use xlink:href="#DejaVuSans-Bold-64" transform="translate(148.974609 0)"/>
     <use xlink:href="#DejaVuSans-Bold-20" transform="translate(220.556641 0)"/>
     <use xlink:href="#DejaVuSans-Bold-26" transform="translate(255.371094 0)"/>
     <use xlink:href="#DejaVuSans-Bold-20" transform="translate(342.578125 0)"/>
     <use xlink:href="#DejaVuSans-Bold-4e" transform="translate(377.392578 0)"/>
     <use xlink:href="#DejaVuSans-Bold-6f" transform="translate(461.083984 0)"/>
     <use xlink:href="#DejaVuSans-Bold-72" transform="translate(529.785156 0)"/>
     <use xlink:href="#DejaVuSans-Bold-6d" transform="translate(579.101562 0)"/>
    </g>
   </g>
   <g id="text_9">
    <!-- Feed Forward -->
    <g style="fill: #eaeaea" transform="translate(139.974609 437.80525) scale(0.09 -0.09)">
     <use xlink:href="#DejaVuSans-Bold-46"/>
     <use xlink:href="#DejaVuSans-Bold-65" transform="translate(64.310547 0)"/>
     <use xlink:href="#DejaVuSans-Bold-65" transform="translate(132.132812 0)"/>
     <use xlink:href="#DejaVuSans-Bold-64" transform="translate(199.955078 0)"/>
     <use xlink:href="#DejaVuSans-Bold-20" transform="translate(271.537109 0)"/>
     <use xlink:href="#DejaVuSans-Bold-46" transform="translate(306.351562 0)"/>
     <use xlink:href="#DejaVuSans-Bold-6f" transform="translate(370.662109 0)"/>
     <use xlink:href="#DejaVuSans-Bold-72" transform="translate(439.363281 0)"/>
     <use xlink:href="#DejaVuSans-Bold-77" transform="translate(488.679688 0)"/>
     <use xlink:href="#DejaVuSans-Bold-61" transform="translate(581.0625 0)"/>
     <use xlink:href="#DejaVuSans-Bold-72" transform="translate(648.542969 0)"/>
     <use xlink:href="#DejaVuSans-Bold-64" transform="translate(697.859375 0)"/>
    </g>
   </g>
   <g id="text_10">
    <!-- Add &amp; Norm -->
    <g style="fill: #eaeaea" transform="translate(156.265156 489.644175) scale(0.07 -0.07)">
     <use xlink:href="#DejaVuSans-Bold-41"/>
     <use xlink:href="#DejaVuSans-Bold-64" transform="translate(77.392578 0)"/>
     <use xlink:href="#DejaVuSans-Bold-64" transform="translate(148.974609 0)"/>
     <use xlink:href="#DejaVuSans-Bold-20" transform="translate(220.556641 0)"/>
     <use xlink:href="#DejaVuSans-Bold-26" transform="translate(255.371094 0)"/>
     <use xlink:href="#DejaVuSans-Bold-20" transform="translate(342.578125 0)"/>
     <use xlink:href="#DejaVuSans-Bold-4e" transform="translate(377.392578 0)"/>
     <use xlink:href="#DejaVuSans-Bold-6f" transform="translate(461.083984 0)"/>
     <use xlink:href="#DejaVuSans-Bold-72" transform="translate(529.785156 0)"/>
     <use xlink:href="#DejaVuSans-Bold-6d" transform="translate(579.101562 0)"/>
    </g>
   </g>
   <g id="patch_36">
    <path d="M 174.6 499.296981 
Q 174.6 415.918993 174.6 334.218057 
" style="fill: none; stroke: #00d4aa; stroke-width: 1.5; stroke-linecap: round"/>
    <path d="M 172.6 338.218057 
L 174.6 334.218057 
L 176.6 338.218057 
" style="fill: none; stroke: #00d4aa; stroke-width: 1.5; stroke-linecap: round"/>
   </g>
   <g id="text_11">
    <!-- Multi-Head Attention -->
    <g style="fill: #eaeaea" transform="translate(121.143516 507.65965) scale(0.09 -0.09)">
     <use xlink:href="#DejaVuSans-Bold-4d"/>
     <use xlink:href="#DejaVuSans-Bold-75" transform="translate(99.511719 0)"/>
     <use xlink:href="#DejaVuSans-Bold-6c" transform="translate(170.703125 0)"/>
     <use xlink:href="#DejaVuSans-Bold-74" transform="translate(204.980469 0)"/>
     <use xlink:href="#DejaVuSans-Bold-69" transform="translate(252.783203 0)"/>
     <use xlink:href="#DejaVuSans-Bold-2d" transform="translate(287.060547 0)"/>
     <use xlink:href="#DejaVuSans-Bold-48" transform="translate(328.564453 0)"/>
     <use xlink:href="#DejaVuSans-Bold-65" transform="translate(412.255859 0)"/>
     <use xlink:href="#DejaVuSans-Bold-61" transform="translate(480.078125 0)"/>
     <use xlink:href="#DejaVuSans-Bold-64" transform="translate(547.558594 0)"/>
     <use xlink:href="#DejaVuSans-Bold-20" transform="translate(619.140625 0)"/>
     <use xlink:href="#DejaVuSans-Bold-41" transform="translate(653.955078 0)"/>
     <use xlink:href="#DejaVuSans-Bold-74" transform="translate(731.347656 0)"/>
     <use xlink:href="#DejaVuSans-Bold-74" transform="translate(779.150391 0)"/>
     <use xlink:href="#DejaVuSans-Bold-65" transform="translate(826.953125 0)"/>
     <use xlink:href="#DejaVuSans-Bold-6e" transform="translate(894.775391 0)"/>
     <use xlink:href="#DejaVuSans-Bold-74" transform="translate(965.966797 0)"/>
     <use xlink:href="#DejaVuSans-Bold-69" transform="translate(1013.769531 0)"/>
     <use xlink:href="#DejaVuSans-Bold-6f" transform="translate(1048.046875 0)"/>
     <use xlink:href="#DejaVuSans-Bold-6e" transform="translate(1116.748047 0)"/>
    </g>
   </g>
   <g id="text_12">
    <!-- Add &amp; Norm -->
    <g style="fill: #eaeaea" transform="translate(156.265156 559.498575) scale(0.07 -0.07)">
     <use xlink:href="#DejaVuSans-Bold-41"/>
     <use xlink:href="#DejaVuSans-Bold-64" transform="translate(77.392578 0)"/>
     <use xlink:href="#DejaVuSans-Bold-64" transform="translate(148.974609 0)"/>
     <use xlink:href="#DejaVuSans-Bold-20" transform="translate(220.556641 0)"/>
     <use xlink:href="#DejaVuSans-Bold-26" transform="translate(255.371094 0)"/>
     <use xlink:href="#DejaVuSans-Bold-20" transform="translate(342.578125 0)"/>
     <use xlink:href="#DejaVuSans-Bold-4e" transform="translate(377.392578 0)"/>
     <use xlink:href="#DejaVuSans-Bold-6f" transform="translate(461.083984 0)"/>
     <use xlink:href="#DejaVuSans-Bold-72" transform="translate(529.785156 0)"/>
     <use xlink:href="#DejaVuSans-Bold-6d" transform="translate(579.101562 0)"/>
    </g>
   </g>
   <g id="text_13">
    <!-- Feed Forward -->
    <g style="fill: #eaeaea" transform="translate(139.974609 577.51405) scale(0.09 -0.09)">
     <use xlink:href="#DejaVuSans-Bold-46"/>
     <use xlink:href="#DejaVuSans-Bold-65" transform="translate(64.310547 0)"/>
     <use xlink:href="#DejaVuSans-Bold-65" transform="translate(132.132812 0)"/>
     <use xlink:href="#DejaVuSans-Bold-64" transform="translate(199.955078 0)"/>
     <use xlink:href="#DejaVuSans-Bold-20" transform="translate(271.537109 0)"/>
     <use xlink:href="#DejaVuSans-Bold-46" transform="translate(306.351562 0)"/>
     <use xlink:href="#DejaVuSans-Bold-6f" transform="translate(370.662109 0)"/>
     <use xlink:href="#DejaVuSans-Bold-72" transform="translate(439.363281 0)"/>
     <use xlink:href="#DejaVuSans-Bold-77" transform="translate(488.679688 0)"/>
     <use xlink:href="#DejaVuSans-Bold-61" transform="translate(581.0625 0)"/>
     <use xlink:href="#DejaVuSans-Bold-72" transform="translate(648.542969 0)"/>
     <use xlink:href="#DejaVuSans-Bold-64" transform="translate(697.859375 0)"/>
    </g>
   </g>
   <g id="text_14">
    <!-- Add &amp; Norm -->
    <g style="fill: #eaeaea" transform="translate(156.265156 629.352975) scale(0.07 -0.07)">
     <use xlink:href="#DejaVuSans-Bold-41"/>
     <use xlink:href="#DejaVuSans-Bold-64" transform="translate(77.392578 0)"/>
     <use xlink:href="#DejaVuSans-Bold-64" transform="translate(148.974609 0)"/>
     <use xlink:href="#DejaVuSans-Bold-20" transform="translate(220.556641 0)"/>
     <use xlink:href="#DejaVuSans-Bold-26" transform="translate(255.371094 0)"/>
     <use xlink:href="#DejaVuSans-Bold-20" transform="translate(342.578125 0)"/>
     <use xlink:href="#DejaVuSans-Bold-4e" transform="translate(377.392578 0)"/>
     <use xlink:href="#DejaVuSans-Bold-6f" transform="translate(461.083984 0)"/>
     <use xlink:href="#DejaVuSans-Bold-72" transform="translate(529.785156 0)"/>
     <use xlink:href="#DejaVuSans-Bold-6d" transform="translate(579.101562 0)"/>
    </g>
   </g>
   <g id="text_15">
    <!-- Nx -->
    <g style="fill: #888888" transform="translate(166.56 380.421062) scale(0.12 -0.12)">
     <defs>
      <path id="DejaVuSans-Oblique-4e" d="M 1081 4666 
L 1931 4666 
L 3219 666 
L 4000 4666 
L 4616 4666 
L 3706 0 
L 2853 0 
L 1569 4025 
L 788 0 
L 172 0 
L 1081 4666 
z
" transform="scale(0.015625)"/>
      <path id="DejaVuSans-Oblique-78" d="M 3841 3500 
L 2234 1784 
L 3219 0 
L 2559 0 
L 1819 1388 
L 531 0 
L -166 0 
L 1556 1844 
L 641 3500 
L 1300 3500 
L 1972 2234 
L 3144 3500 
L 3841 3500 
z
" transform="scale(0.015625)"/>
     </defs>
     <use xlink:href="#DejaVuSans-Oblique-4e"/>
     <use xlink:href="#DejaVuSans-Oblique-78" transform="translate(74.804688 0)"/>
    </g>
   </g>
   <g id="text_16">
    <!-- Output Embedding -->
    <g style="fill: #eaeaea" transform="translate(350.0325 115.663694) scale(0.09 -0.09)">
     <defs>
      <path id="DejaVuSans-Bold-4f" d="M 2719 3878 
Q 2169 3878 1866 3472 
Q 1563 3066 1563 2328 
Q 1563 1594 1866 1187 
Q 2169 781 2719 781 
Q 3272 781 3575 1187 
Q 3878 1594 3878 2328 
Q 3878 3066 3575 3472 
Q 3272 3878 2719 3878 
z
M 2719 4750 
Q 3844 4750 4481 4106 
Q 5119 3463 5119 2328 
Q 5119 1197 4481 553 
Q 3844 -91 2719 -91 
Q 1597 -91 958 553 
Q 319 1197 319 2328 
Q 319 3463 958 4106 
Q 1597 4750 2719 4750 
z
" transform="scale(0.015625)"/>
     </defs>
     <use xlink:href="#DejaVuSans-Bold-4f"/>
     <use xlink:href="#DejaVuSans-Bold-75" transform="translate(85.009766 0)"/>
     <use xlink:href="#DejaVuSans-Bold-74" transform="translate(156.201172 0)"/>
     <use xlink:href="#DejaVuSans-Bold-70" transform="translate(204.003906 0)"/>
     <use xlink:href="#DejaVuSans-Bold-75" transform="translate(275.585938 0)"/>
     <use xlink:href="#DejaVuSans-Bold-74" transform="translate(346.777344 0)"/>
     <use xlink:href="#DejaVuSans-Bold-20" transform="translate(394.580078 0)"/>
     <use xlink:href="#DejaVuSans-Bold-45" transform="translate(429.394531 0)"/>
     <use xlink:href="#DejaVuSans-Bold-6d" transform="translate(497.705078 0)"/>
     <use xlink:href="#DejaVuSans-Bold-62" transform="translate(601.904297 0)"/>
     <use xlink:href="#DejaVuSans-Bold-65" transform="translate(673.486328 0)"/>
     <use xlink:href="#DejaVuSans-Bold-64" transform="translate(741.308594 0)"/>
     <use xlink:href="#DejaVuSans-Bold-64" transform="translate(812.890625 0)"/>
     <use xlink:href="#DejaVuSans-Bold-69" transform="translate(884.472656 0)"/>
     <use xlink:href="#DejaVuSans-Bold-6e" transform="translate(918.75 0)"/>
     <use xlink:href="#DejaVuSans-Bold-67" transform="translate(989.941406 0)"/>
    </g>
   </g>
   <g id="text_17">
    <!-- + Positional Encoding -->
    <g style="fill: #eaeaea" transform="translate(348.6375 200.769262) scale(0.08 -0.08)">
     <use xlink:href="#DejaVuSans-Bold-2b"/>
     <use xlink:href="#DejaVuSans-Bold-20" transform="translate(83.789062 0)"/>
     <use xlink:href="#DejaVuSans-Bold-50" transform="translate(118.603516 0)"/>
     <use xlink:href="#DejaVuSans-Bold-6f" transform="translate(191.894531 0)"/>
     <use xlink:href="#DejaVuSans-Bold-73" transform="translate(260.595703 0)"/>
     <use xlink:href="#DejaVuSans-Bold-69" transform="translate(320.117188 0)"/>
     <use xlink:href="#DejaVuSans-Bold-74" transform="translate(354.394531 0)"/>
     <use xlink:href="#DejaVuSans-Bold-69" transform="translate(402.197266 0)"/>
     <use xlink:href="#DejaVuSans-Bold-6f" transform="translate(436.474609 0)"/>
     <use xlink:href="#DejaVuSans-Bold-6e" transform="translate(505.175781 0)"/>
     <use xlink:href="#DejaVuSans-Bold-61" transform="translate(576.367188 0)"/>
     <use xlink:href="#DejaVuSans-Bold-6c" transform="translate(643.847656 0)"/>
     <use xlink:href="#DejaVuSans-Bold-20" transform="translate(678.125 0)"/>
     <use xlink:href="#DejaVuSans-Bold-45" transform="translate(712.939453 0)"/>
     <use xlink:href="#DejaVuSans-Bold-6e" transform="translate(781.25 0)"/>
     <use xlink:href="#DejaVuSans-Bold-63" transform="translate(852.441406 0)"/>
     <use xlink:href="#DejaVuSans-Bold-6f" transform="translate(911.71875 0)"/>
     <use xlink:href="#DejaVuSans-Bold-64" transform="translate(980.419922 0)"/>
     <use xlink:href="#DejaVuSans-Bold-69" transform="translate(1052.001953 0)"/>
     <use xlink:href="#DejaVuSans-Bold-6e" transform="translate(1086.279297 0)"/>
     <use xlink:href="#DejaVuSans-Bold-67" transform="translate(1157.470703 0)"/>
    </g>
   </g>
   <g id="text_18">
    <!-- Masked Multi-Head Attention -->
    <g style="fill: #eaeaea" transform="translate(323.436094 228.24205) scale(0.09 -0.09)">
     <defs>
      <path id="DejaVuSans-Bold-6b" d="M 538 4863 
L 1656 4863 
L 1656 2216 
L 2944 3500 
L 4244 3500 
L 2534 1894 
L 4378 0 
L 3022 0 
L 1656 1459 
L 1656 0 
L 538 0 
L 538 4863 
z
" transform="scale(0.015625)"/>
     </defs>
     <use xlink:href="#DejaVuSans-Bold-4d"/>
     <use xlink:href="#DejaVuSans-Bold-61" transform="translate(99.511719 0)"/>
     <use xlink:href="#DejaVuSans-Bold-73" transform="translate(166.992188 0)"/>
     <use xlink:href="#DejaVuSans-Bold-6b" transform="translate(226.513672 0)"/>
     <use xlink:href="#DejaVuSans-Bold-65" transform="translate(290.392578 0)"/>
     <use xlink:href="#DejaVuSans-Bold-64" transform="translate(358.214844 0)"/>
     <use xlink:href="#DejaVuSans-Bold-20" transform="translate(429.796875 0)"/>
     <use xlink:href="#DejaVuSans-Bold-4d" transform="translate(464.611328 0)"/>
     <use xlink:href="#DejaVuSans-Bold-75" transform="translate(564.123047 0)"/>
     <use xlink:href="#DejaVuSans-Bold-6c" transform="translate(635.314453 0)"/>
     <use xlink:href="#DejaVuSans-Bold-74" transform="translate(669.591797 0)"/>
     <use xlink:href="#DejaVuSans-Bold-69" transform="translate(717.394531 0)"/>
     <use xlink:href="#DejaVuSans-Bold-2d" transform="translate(751.671875 0)"/>
     <use xlink:href="#DejaVuSans-Bold-48" transform="translate(793.175781 0)"/>
     <use xlink:href="#DejaVuSans-Bold-65" transform="translate(876.867188 0)"/>
     <use xlink:href="#DejaVuSans-Bold-61" transform="translate(944.689453 0)"/>
     <use xlink:href="#DejaVuSans-Bold-64" transform="translate(1012.169922 0)"/>
     <use xlink:href="#DejaVuSans-Bold-20" transform="translate(1083.751953 0)"/>
     <use xlink:href="#DejaVuSans-Bold-41" transform="translate(1118.566406 0)"/>
     <use xlink:href="#DejaVuSans-Bold-74" transform="translate(1195.958984 0)"/>
     <use xlink:href="#DejaVuSans-Bold-74" transform="translate(1243.761719 0)"/>
     <use xlink:href="#DejaVuSans-Bold-65" transform="translate(1291.564453 0)"/>
     <use xlink:href="#DejaVuSans-Bold-6e" transform="translate(1359.386719 0)"/>
     <use xlink:href="#DejaVuSans-Bold-74" transform="translate(1430.578125 0)"/>
     <use xlink:href="#DejaVuSans-Bold-69" transform="translate(1478.380859 0)"/>
     <use xlink:href="#DejaVuSans-Bold-6f" transform="translate(1512.658203 0)"/>
     <use xlink:href="#DejaVuSans-Bold-6e" transform="translate(1581.359375 0)"/>
    </g>
   </g>
   <g id="text_19">
    <!-- Add &amp; Norm -->
    <g style="fill: #eaeaea" transform="translate(379.465156 280.080975) scale(0.07 -0.07)">
     <use xlink:href="#DejaVuSans-Bold-41"/>
     <use xlink:href="#DejaVuSans-Bold-64" transform="translate(77.392578 0)"/>
     <use xlink:href="#DejaVuSans-Bold-64" transform="translate(148.974609 0)"/>
     <use xlink:href="#DejaVuSans-Bold-20" transform="translate(220.556641 0)"/>
     <use xlink:href="#DejaVuSans-Bold-26" transform="translate(255.371094 0)"/>
     <use xlink:href="#DejaVuSans-Bold-20" transform="translate(342.578125 0)"/>
     <use xlink:href="#DejaVuSans-Bold-4e" transform="translate(377.392578 0)"/>
     <use xlink:href="#DejaVuSans-Bold-6f" transform="translate(461.083984 0)"/>
     <use xlink:href="#DejaVuSans-Bold-72" transform="translate(529.785156 0)"/>
     <use xlink:href="#DejaVuSans-Bold-6d" transform="translate(579.101562 0)"/>
    </g>
   </g>
   <g id="text_20">
    <!-- Multi-Head Attention -->
    <g style="fill: #eaeaea" transform="translate(344.343516 298.09645) scale(0.09 -0.09)">
     <use xlink:href="#DejaVuSans-Bold-4d"/>
     <use xlink:href="#DejaVuSans-Bold-75" transform="translate(99.511719 0)"/>
     <use xlink:href="#DejaVuSans-Bold-6c" transform="translate(170.703125 0)"/>
     <use xlink:href="#DejaVuSans-Bold-74" transform="translate(204.980469 0)"/>
     <use xlink:href="#DejaVuSans-Bold-69" transform="translate(252.783203 0)"/>
     <use xlink:href="#DejaVuSans-Bold-2d" transform="translate(287.060547 0)"/>
     <use xlink:href="#DejaVuSans-Bold-48" transform="translate(328.564453 0)"/>
     <use xlink:href="#DejaVuSans-Bold-65" transform="translate(412.255859 0)"/>
     <use xlink:href="#DejaVuSans-Bold-61" transform="translate(480.078125 0)"/>
     <use xlink:href="#DejaVuSans-Bold-64" transform="translate(547.558594 0)"/>
     <use xlink:href="#DejaVuSans-Bold-20" transform="translate(619.140625 0)"/>
     <use xlink:href="#DejaVuSans-Bold-41" transform="translate(653.955078 0)"/>
     <use xlink:href="#DejaVuSans-Bold-74" transform="translate(731.347656 0)"/>
     <use xlink:href="#DejaVuSans-Bold-74" transform="translate(779.150391 0)"/>
     <use xlink:href="#DejaVuSans-Bold-65" transform="translate(826.953125 0)"/>
     <use xlink:href="#DejaVuSans-Bold-6e" transform="translate(894.775391 0)"/>
     <use xlink:href="#DejaVuSans-Bold-74" transform="translate(965.966797 0)"/>
     <use xlink:href="#DejaVuSans-Bold-69" transform="translate(1013.769531 0)"/>
     <use xlink:href="#DejaVuSans-Bold-6f" transform="translate(1048.046875 0)"/>
     <use xlink:href="#DejaVuSans-Bold-6e" transform="translate(1116.748047 0)"/>
    </g>
   </g>
   <g id="text_21">
    <!-- Add &amp; Norm -->
    <g style="fill: #eaeaea" transform="translate(379.465156 349.935375) scale(0.07 -0.07)">
     <use xlink:href="#DejaVuSans-Bold-41"/>
     <use xlink:href="#DejaVuSans-Bold-64" transform="translate(77.392578 0)"/>
     <use xlink:href="#DejaVuSans-Bold-64" transform="translate(148.974609 0)"/>
     <use xlink:href="#DejaVuSans-Bold-20" transform="translate(220.556641 0)"/>
     <use xlink:href="#DejaVuSans-Bold-26" transform="translate(255.371094 0)"/>
     <use xlink:href="#DejaVuSans-Bold-20" transform="translate(342.578125 0)"/>
     <use xlink:href="#DejaVuSans-Bold-4e" transform="translate(377.392578 0)"/>
     <use xlink:href="#DejaVuSans-Bold-6f" transform="translate(461.083984 0)"/>
     <use xlink:href="#DejaVuSans-Bold-72" transform="translate(529.785156 0)"/>
     <use xlink:href="#DejaVuSans-Bold-6d" transform="translate(579.101562 0)"/>
    </g>
   </g>
   <g id="text_22">
    <!-- Feed Forward -->
    <g style="fill: #eaeaea" transform="translate(363.174609 391.23565) scale(0.09 -0.09)">
     <use xlink:href="#DejaVuSans-Bold-46"/>
     <use xlink:href="#DejaVuSans-Bold-65" transform="translate(64.310547 0)"/>
     <use xlink:href="#DejaVuSans-Bold-65" transform="translate(132.132812 0)"/>
     <use xlink:href="#DejaVuSans-Bold-64" transform="translate(199.955078 0)"/>
     <use xlink:href="#DejaVuSans-Bold-20" transform="translate(271.537109 0)"/>
     <use xlink:href="#DejaVuSans-Bold-46" transform="translate(306.351562 0)"/>
     <use xlink:href="#DejaVuSans-Bold-6f" transform="translate(370.662109 0)"/>
     <use xlink:href="#DejaVuSans-Bold-72" transform="translate(439.363281 0)"/>
     <use xlink:href="#DejaVuSans-Bold-77" transform="translate(488.679688 0)"/>
     <use xlink:href="#DejaVuSans-Bold-61" transform="translate(581.0625 0)"/>
     <use xlink:href="#DejaVuSans-Bold-72" transform="translate(648.542969 0)"/>
     <use xlink:href="#DejaVuSans-Bold-64" transform="translate(697.859375 0)"/>
    </g>
   </g>
   <g id="patch_37">
    <path d="M 397.8 413.915472 
Q 397.8 303.372514 397.8 194.506607 
" style="fill: none; stroke: #00d4aa; stroke-width: 1.5; stroke-linecap: round"/>
    <path d="M 395.8 198.506607 
L 397.8 194.506607 
L 399.8 198.506607 
" style="fill: none; stroke: #00d4aa; stroke-width: 1.5; stroke-linecap: round"/>
   </g>
   <g id="text_23">
    <!-- Masked Multi-Head Attention -->
    <g style="fill: #eaeaea" transform="translate(323.436094 367.95085) scale(0.09 -0.09)">
     <use xlink:href="#DejaVuSans-Bold-4d"/>
     <use xlink:href="#DejaVuSans-Bold-61" transform="translate(99.511719 0)"/>
     <use xlink:href="#DejaVuSans-Bold-73" transform="translate(166.992188 0)"/>
     <use xlink:href="#DejaVuSans-Bold-6b" transform="translate(226.513672 0)"/>
     <use xlink:href="#DejaVuSans-Bold-65" transform="translate(290.392578 0)"/>
     <use xlink:href="#DejaVuSans-Bold-64" transform="translate(358.214844 0)"/>
     <use xlink:href="#DejaVuSans-Bold-20" transform="translate(429.796875 0)"/>
     <use xlink:href="#DejaVuSans-Bold-4d" transform="translate(464.611328 0)"/>
     <use xlink:href="#DejaVuSans-Bold-75" transform="translate(564.123047 0)"/>
     <use xlink:href="#DejaVuSans-Bold-6c" transform="translate(635.314453 0)"/>
     <use xlink:href="#DejaVuSans-Bold-74" transform="translate(669.591797 0)"/>
     <use xlink:href="#DejaVuSans-Bold-69" transform="translate(717.394531 0)"/>
     <use xlink:href="#DejaVuSans-Bold-2d" transform="translate(751.671875 0)"/>
     <use xlink:href="#DejaVuSans-Bold-48" transform="translate(793.175781 0)"/>
     <use xlink:href="#DejaVuSans-Bold-65" transform="translate(876.867188 0)"/>
     <use xlink:href="#DejaVuSans-Bold-61" transform="translate(944.689453 0)"/>
     <use xlink:href="#DejaVuSans-Bold-64" transform="translate(1012.169922 0)"/>
     <use xlink:href="#DejaVuSans-Bold-20" transform="translate(1083.751953 0)"/>
     <use xlink:href="#DejaVuSans-Bold-41" transform="translate(1118.566406 0)"/>
     <use xlink:href="#DejaVuSans-Bold-74" transform="translate(1195.958984 0)"/>
     <use xlink:href="#DejaVuSans-Bold-74" transform="translate(1243.761719 0)"/>
     <use xlink:href="#DejaVuSans-Bold-65" transform="translate(1291.564453 0)"/>
     <use xlink:href="#DejaVuSans-Bold-6e" transform="translate(1359.386719 0)"/>
     <use xlink:href="#DejaVuSans-Bold-74" transform="translate(1430.578125 0)"/>
     <use xlink:href="#DejaVuSans-Bold-69" transform="translate(1478.380859 0)"/>
     <use xlink:href="#DejaVuSans-Bold-6f" transform="translate(1512.658203 0)"/>
     <use xlink:href="#DejaVuSans-Bold-6e" transform="translate(1581.359375 0)"/>
    </g>
   </g>
   <g id="text_24">
    <!-- Add &amp; Norm -->
    <g style="fill: #eaeaea" transform="translate(379.465156 419.789775) scale(0.07 -0.07)">
     <use xlink:href="#DejaVuSans-Bold-41"/>
     <use xlink:href="#DejaVuSans-Bold-64" transform="translate(77.392578 0)"/>
     <use xlink:href="#DejaVuSans-Bold-64" transform="translate(148.974609 0)"/>
     <use xlink:href="#DejaVuSans-Bold-20" transform="translate(220.556641 0)"/>
     <use xlink:href="#DejaVuSans-Bold-26" transform="translate(255.371094 0)"/>
     <use xlink:href="#DejaVuSans-Bold-20" transform="translate(342.578125 0)"/>
     <use xlink:href="#DejaVuSans-Bold-4e" transform="translate(377.392578 0)"/>
     <use xlink:href="#DejaVuSans-Bold-6f" transform="translate(461.083984 0)"/>
     <use xlink:href="#DejaVuSans-Bold-72" transform="translate(529.785156 0)"/>
     <use xlink:href="#DejaVuSans-Bold-6d" transform="translate(579.101562 0)"/>
    </g>
   </g>
   <g id="text_25">
    <!-- Multi-Head Attention -->
    <g style="fill: #eaeaea" transform="translate(344.343516 437.80525) scale(0.09 -0.09)">
     <use xlink:href="#DejaVuSans-Bold-4d"/>
     <use xlink:href="#DejaVuSans-Bold-75" transform="translate(99.511719 0)"/>
     <use xlink:href="#DejaVuSans-Bold-6c" transform="translate(170.703125 0)"/>
     <use xlink:href="#DejaVuSans-Bold-74" transform="translate(204.980469 0)"/>
     <use xlink:href="#DejaVuSans-Bold-69" transform="translate(252.783203 0)"/>
     <use xlink:href="#DejaVuSans-Bold-2d" transform="translate(287.060547 0)"/>
     <use xlink:href="#DejaVuSans-Bold-48" transform="translate(328.564453 0)"/>
     <use xlink:href="#DejaVuSans-Bold-65" transform="translate(412.255859 0)"/>
     <use xlink:href="#DejaVuSans-Bold-61" transform="translate(480.078125 0)"/>
     <use xlink:href="#DejaVuSans-Bold-64" transform="translate(547.558594 0)"/>
     <use xlink:href="#DejaVuSans-Bold-20" transform="translate(619.140625 0)"/>
     <use xlink:href="#DejaVuSans-Bold-41" transform="translate(653.955078 0)"/>
     <use xlink:href="#DejaVuSans-Bold-74" transform="translate(731.347656 0)"/>
     <use xlink:href="#DejaVuSans-Bold-74" transform="translate(779.150391 0)"/>
     <use xlink:href="#DejaVuSans-Bold-65" transform="translate(826.953125 0)"/>
     <use xlink:href="#DejaVuSans-Bold-6e" transform="translate(894.775391 0)"/>
     <use xlink:href="#DejaVuSans-Bold-74" transform="translate(965.966797 0)"/>
     <use xlink:href="#DejaVuSans-Bold-69" transform="translate(1013.769531 0)"/>
     <use xlink:href="#DejaVuSans-Bold-6f" transform="translate(1048.046875 0)"/>
     <use xlink:href="#DejaVuSans-Bold-6e" transform="translate(1116.748047 0)"/>
    </g>
   </g>
   <g id="text_26">
    <!-- Add &amp; Norm -->
    <g style="fill: #eaeaea" transform="translate(379.465156 489.644175) scale(0.07 -0.07)">
     <use xlink:href="#DejaVuSans-Bold-41"/>
     <use xlink:href="#DejaVuSans-Bold-64" transform="translate(77.392578 0)"/>
     <use xlink:href="#DejaVuSans-Bold-64" transform="translate(148.974609 0)"/>
     <use xlink:href="#DejaVuSans-Bold-20" transform="translate(220.556641 0)"/>
     <use xlink:href="#DejaVuSans-Bold-26" transform="translate(255.371094 0)"/>
     <use xlink:href="#DejaVuSans-Bold-20" transform="translate(342.578125 0)"/>
     <use xlink:href="#DejaVuSans-Bold-4e" transform="translate(377.392578 0)"/>
     <use xlink:href="#DejaVuSans-Bold-6f" transform="translate(461.083984 0)"/>
     <use xlink:href="#DejaVuSans-Bold-72" transform="translate(529.785156 0)"/>
     <use xlink:href="#DejaVuSans-Bold-6d" transform="translate(579.101562 0)"/>
    </g>
   </g>
   <g id="text_27">
    <!-- Feed Forward -->
    <g style="fill: #eaeaea" transform="translate(363.174609 530.94445) scale(0.09 -0.09)">
     <use xlink:href="#DejaVuSans-Bold-46"/>
     <use xlink:href="#DejaVuSans-Bold-65" transform="translate(64.310547 0)"/>
     <use xlink:href="#DejaVuSans-Bold-65" transform="translate(132.132812 0)"/>
     <use xlink:href="#DejaVuSans-Bold-64" transform="translate(199.955078 0)"/>
     <use xlink:href="#DejaVuSans-Bold-20" transform="translate(271.537109 0)"/>
     <use xlink:href="#DejaVuSans-Bold-46" transform="translate(306.351562 0)"/>
     <use xlink:href="#DejaVuSans-Bold-6f" transform="translate(370.662109 0)"/>
     <use xlink:href="#DejaVuSans-Bold-72" transform="translate(439.363281 0)"/>
     <use xlink:href="#DejaVuSans-Bold-77" transform="translate(488.679688 0)"/>
     <use xlink:href="#DejaVuSans-Bold-61" transform="translate(581.0625 0)"/>
     <use xlink:href="#DejaVuSans-Bold-72" transform="translate(648.542969 0)"/>
     <use xlink:href="#DejaVuSans-Bold-64" transform="translate(697.859375 0)"/>
    </g>
   </g>
   <g id="patch_38">
    <path d="M 397.8 553.624272 
Q 397.8 443.081314 397.8 334.215407 
" style="fill: none; stroke: #00d4aa; stroke-width: 1.5; stroke-linecap: round"/>
    <path d="M 395.8 338.215407 
L 397.8 334.215407 
L 399.8 338.215407 
" style="fill: none; stroke: #00d4aa; stroke-width: 1.5; stroke-linecap: round"/>
   </g>
   <g id="text_28">
    <!-- Masked Multi-Head Attention -->
    <g style="fill: #eaeaea" transform="translate(323.436094 507.65965) scale(0.09 -0.09)">
     <use xlink:href="#DejaVuSans-Bold-4d"/>
     <use xlink:href="#DejaVuSans-Bold-61" transform="translate(99.511719 0)"/>
     <use xlink:href="#DejaVuSans-Bold-73" transform="translate(166.992188 0)"/>
     <use xlink:href="#DejaVuSans-Bold-6b" transform="translate(226.513672 0)"/>
     <use xlink:href="#DejaVuSans-Bold-65" transform="translate(290.392578 0)"/>
     <use xlink:href="#DejaVuSans-Bold-64" transform="translate(358.214844 0)"/>
     <use xlink:href="#DejaVuSans-Bold-20" transform="translate(429.796875 0)"/>
     <use xlink:href="#DejaVuSans-Bold-4d" transform="translate(464.611328 0)"/>
     <use xlink:href="#DejaVuSans-Bold-75" transform="translate(564.123047 0)"/>
     <use xlink:href="#DejaVuSans-Bold-6c" transform="translate(635.314453 0)"/>
     <use xlink:href="#DejaVuSans-Bold-74" transform="translate(669.591797 0)"/>
     <use xlink:href="#DejaVuSans-Bold-69" transform="translate(717.394531 0)"/>
     <use xlink:href="#DejaVuSans-Bold-2d" transform="translate(751.671875 0)"/>
     <use xlink:href="#DejaVuSans-Bold-48" transform="translate(793.175781 0)"/>
     <use xlink:href="#DejaVuSans-Bold-65" transform="translate(876.867188 0)"/>
     <use xlink:href="#DejaVuSans-Bold-61" transform="translate(944.689453 0)"/>
     <use xlink:href="#DejaVuSans-Bold-64" transform="translate(1012.169922 0)"/>
     <use xlink:href="#DejaVuSans-Bold-20" transform="translate(1083.751953 0)"/>
     <use xlink:href="#DejaVuSans-Bold-41" transform="translate(1118.566406 0)"/>
     <use xlink:href="#DejaVuSans-Bold-74" transform="translate(1195.958984 0)"/>
     <use xlink:href="#DejaVuSans-Bold-74" transform="translate(1243.761719 0)"/>
     <use xlink:href="#DejaVuSans-Bold-65" transform="translate(1291.564453 0)"/>
     <use xlink:href="#DejaVuSans-Bold-6e" transform="translate(1359.386719 0)"/>
     <use xlink:href="#DejaVuSans-Bold-74" transform="translate(1430.578125 0)"/>
     <use xlink:href="#DejaVuSans-Bold-69" transform="translate(1478.380859 0)"/>
     <use xlink:href="#DejaVuSans-Bold-6f" transform="translate(1512.658203 0)"/>
     <use xlink:href="#DejaVuSans-Bold-6e" transform="translate(1581.359375 0)"/>
    </g>
   </g>
   <g id="text_29">
    <!-- Add &amp; Norm -->
    <g style="fill: #eaeaea" transform="translate(379.465156 559.498575) scale(0.07 -0.07)">
     <use xlink:href="#DejaVuSans-Bold-41"/>
     <use xlink:href="#DejaVuSans-Bold-64" transform="translate(77.392578 0)"/>
     <use xlink:href="#DejaVuSans-Bold-64" transform="translate(148.974609 0)"/>
     <use xlink:href="#DejaVuSans-Bold-20" transform="translate(220.556641 0)"/>
     <use xlink:href="#DejaVuSans-Bold-26" transform="translate(255.371094 0)"/>
     <use xlink:href="#DejaVuSans-Bold-20" transform="translate(342.578125 0)"/>
     <use xlink:href="#DejaVuSans-Bold-4e" transform="translate(377.392578 0)"/>
     <use xlink:href="#DejaVuSans-Bold-6f" transform="translate(461.083984 0)"/>
     <use xlink:href="#DejaVuSans-Bold-72" transform="translate(529.785156 0)"/>
     <use xlink:href="#DejaVuSans-Bold-6d" transform="translate(579.101562 0)"/>
    </g>
   </g>
   <g id="text_30">
    <!-- Multi-Head Attention -->
    <g style="fill: #eaeaea" transform="translate(344.343516 577.51405) scale(0.09 -0.09)">
     <use xlink:href="#DejaVuSans-Bold-4d"/>
     <use xlink:href="#DejaVuSans-Bold-75" transform="translate(99.511719 0)"/>
     <use xlink:href="#DejaVuSans-Bold-6c" transform="translate(170.703125 0)"/>
     <use xlink:href="#DejaVuSans-Bold-74" transform="translate(204.980469 0)"/>
     <use xlink:href="#DejaVuSans-Bold-69" transform="translate(252.783203 0)"/>
     <use xlink:href="#DejaVuSans-Bold-2d" transform="translate(287.060547 0)"/>
     <use xlink:href="#DejaVuSans-Bold-48" transform="translate(328.564453 0)"/>
     <use xlink:href="#DejaVuSans-Bold-65" transform="translate(412.255859 0)"/>
     <use xlink:href="#DejaVuSans-Bold-61" transform="translate(480.078125 0)"/>
     <use xlink:href="#DejaVuSans-Bold-64" transform="translate(547.558594 0)"/>
     <use xlink:href="#DejaVuSans-Bold-20" transform="translate(619.140625 0)"/>
     <use xlink:href="#DejaVuSans-Bold-41" transform="translate(653.955078 0)"/>
     <use xlink:href="#DejaVuSans-Bold-74" transform="translate(731.347656 0)"/>
     <use xlink:href="#DejaVuSans-Bold-74" transform="translate(779.150391 0)"/>
     <use xlink:href="#DejaVuSans-Bold-65" transform="translate(826.953125 0)"/>
     <use xlink:href="#DejaVuSans-Bold-6e" transform="translate(894.775391 0)"/>
     <use xlink:href="#DejaVuSans-Bold-74" transform="translate(965.966797 0)"/>
     <use xlink:href="#DejaVuSans-Bold-69" transform="translate(1013.769531 0)"/>
     <use xlink:href="#DejaVuSans-Bold-6f" transform="translate(1048.046875 0)"/>
     <use xlink:href="#DejaVuSans-Bold-6e" transform="translate(1116.748047 0)"/>
    </g>
   </g>
   <g id="text_31">
    <!-- Add &amp; Norm -->
    <g style="fill: #eaeaea" transform="translate(379.465156 629.352975) scale(0.07 -0.07)">
     <use xlink:href="#DejaVuSans-Bold-41"/>
     <use xlink:href="#DejaVuSans-Bold-64" transform="translate(77.392578 0)"/>
     <use xlink:href="#DejaVuSans-Bold-64" transform="translate(148.974609 0)"/>
     <use xlink:href="#DejaVuSans-Bold-20" transform="translate(220.556641 0)"/>
     <use xlink:href="#DejaVuSans-Bold-26" transform="translate(255.371094 0)"/>
     <use xlink:href="#DejaVuSans-Bold-20" transform="translate(342.578125 0)"/>
     <use xlink:href="#DejaVuSans-Bold-4e" transform="translate(377.392578 0)"/>
     <use xlink:href="#DejaVuSans-Bold-6f" transform="translate(461.083984 0)"/>
     <use xlink:href="#DejaVuSans-Bold-72" transform="translate(529.785156 0)"/>
     <use xlink:href="#DejaVuSans-Bold-6d" transform="translate(579.101562 0)"/>
    </g>
   </g>
   <g id="text_32">
    <!-- Feed Forward -->
    <g style="fill: #eaeaea" transform="translate(363.174609 670.65325) scale(0.09 -0.09)">
     <use xlink:href="#DejaVuSans-Bold-46"/>
     <use xlink:href="#DejaVuSans-Bold-65" transform="translate(64.310547 0)"/>
     <use xlink:href="#DejaVuSans-Bold-65" transform="translate(132.132812 0)"/>
     <use xlink:href="#DejaVuSans-Bold-64" transform="translate(199.955078 0)"/>
     <use xlink:href="#DejaVuSans-Bold-20" transform="translate(271.537109 0)"/>
     <use xlink:href="#DejaVuSans-Bold-46" transform="translate(306.351562 0)"/>
     <use xlink:href="#DejaVuSans-Bold-6f" transform="translate(370.662109 0)"/>
     <use xlink:href="#DejaVuSans-Bold-72" transform="translate(439.363281 0)"/>
     <use xlink:href="#DejaVuSans-Bold-77" transform="translate(488.679688 0)"/>
     <use xlink:href="#DejaVuSans-Bold-61" transform="translate(581.0625 0)"/>
     <use xlink:href="#DejaVuSans-Bold-72" transform="translate(648.542969 0)"/>
     <use xlink:href="#DejaVuSans-Bold-64" transform="translate(697.859375 0)"/>
    </g>
   </g>
   <g id="text_33">
    <!-- Nx -->
    <g style="fill: #888888" transform="translate(389.76 380.421062) scale(0.12 -0.12)">
     <use xlink:href="#DejaVuSans-Oblique-4e"/>
     <use xlink:href="#DejaVuSans-Oblique-78" transform="translate(74.804688 0)"/>
    </g>
   </g>
   <g id="patch_39">
    <path d="M 260.265125 393.012196 
Q 286.201745 397.834153 310.489574 393.31812 
" style="fill: none; stroke: #4fc3f7; stroke-width: 1.5; stroke-linecap: round"/>
    <path d="M 306.191367 392.083042 
L 310.489574 393.31812 
L 306.922587 396.015638 
" style="fill: none; stroke: #4fc3f7; stroke-width: 1.5; stroke-linecap: round"/>
   </g>
   <g id="patch_40">
    <path d="M 260.265125 532.720996 
Q 286.201745 537.542953 310.489574 533.02692 
" style="fill: none; stroke: #4fc3f7; stroke-width: 1.5; stroke-linecap: round"/>
    <path d="M 306.191367 531.791842 
L 310.489574 533.02692 
L 306.922587 535.724438 
" style="fill: none; stroke: #4fc3f7; stroke-width: 1.5; stroke-linecap: round"/>
   </g>
   <g id="text_34">
    <!-- Linear + Softmax -->
    <g style="fill: #eaeaea" transform="translate(353.905313 759.91165) scale(0.09 -0.09)">
     <defs>
      <path id="DejaVuSans-Bold-4c" d="M 588 4666 
L 1791 4666 
L 1791 909 
L 3903 909 
L 3903 0 
L 588 0 
L 588 4666 
z
" transform="scale(0.015625)"/>
      <path id="DejaVuSans-Bold-53" d="M 3834 4519 
L 3834 3531 
Q 3450 3703 3084 3790 
Q 2719 3878 2394 3878 
Q 1963 3878 1756 3759 
Q 1550 3641 1550 3391 
Q 1550 3203 1689 3098 
Q 1828 2994 2194 2919 
L 2706 2816 
Q 3484 2659 3812 2340 
Q 4141 2022 4141 1434 
Q 4141 663 3683 286 
Q 3225 -91 2284 -91 
Q 1841 -91 1394 -6 
Q 947 78 500 244 
L 500 1259 
Q 947 1022 1364 901 
Q 1781 781 2169 781 
Q 2563 781 2772 912 
Q 2981 1044 2981 1288 
Q 2981 1506 2839 1625 
Q 2697 1744 2272 1838 
L 1806 1941 
Q 1106 2091 782 2419 
Q 459 2747 459 3303 
Q 459 4000 909 4375 
Q 1359 4750 2203 4750 
Q 2588 4750 2994 4692 
Q 3400 4634 3834 4519 
z
" transform="scale(0.015625)"/>
      <path id="DejaVuSans-Bold-66" d="M 2841 4863 
L 2841 4128 
L 2222 4128 
Q 1984 4128 1890 4042 
Q 1797 3956 1797 3744 
L 1797 3500 
L 2753 3500 
L 2753 2700 
L 1797 2700 
L 1797 0 
L 678 0 
L 678 2700 
L 122 2700 
L 122 3500 
L 678 3500 
L 678 3744 
Q 678 4316 997 4589 
Q 1316 4863 1984 4863 
L 2841 4863 
z
" transform="scale(0.015625)"/>
      <path id="DejaVuSans-Bold-78" d="M 1422 1791 
L 159 3500 
L 1344 3500 
L 2059 2463 
L 2784 3500 
L 3969 3500 
L 2706 1797 
L 4031 0 
L 2847 0 
L 2059 1106 
L 1281 0 
L 97 0 
L 1422 1791 
z
" transform="scale(0.015625)"/>
     </defs>
     <use xlink:href="#DejaVuSans-Bold-4c"/>
     <use xlink:href="#DejaVuSans-Bold-69" transform="translate(63.720703 0)"/>
     <use xlink:href="#DejaVuSans-Bold-6e" transform="translate(97.998047 0)"/>
     <use xlink:href="#DejaVuSans-Bold-65" transform="translate(169.189453 0)"/>
     <use xlink:href="#DejaVuSans-Bold-61" transform="translate(237.011719 0)"/>
     <use xlink:href="#DejaVuSans-Bold-72" transform="translate(304.492188 0)"/>
     <use xlink:href="#DejaVuSans-Bold-20" transform="translate(353.808594 0)"/>
     <use xlink:href="#DejaVuSans-Bold-2b" transform="translate(388.623047 0)"/>
     <use xlink:href="#DejaVuSans-Bold-20" transform="translate(472.412109 0)"/>
     <use xlink:href="#DejaVuSans-Bold-53" transform="translate(507.226562 0)"/>
     <use xlink:href="#DejaVuSans-Bold-6f" transform="translate(579.248047 0)"/>
     <use xlink:href="#DejaVuSans-Bold-66" transform="translate(647.949219 0)"/>
     <use xlink:href="#DejaVuSans-Bold-74" transform="translate(691.455078 0)"/>
     <use xlink:href="#DejaVuSans-Bold-6d" transform="translate(739.257812 0)"/>
     <use xlink:href="#DejaVuSans-Bold-61" transform="translate(843.457031 0)"/>
     <use xlink:href="#DejaVuSans-Bold-78" transform="translate(910.9375 0)"/>
    </g>
   </g>
   <g id="patch_41">
    <path d="M 397.8 732.145217 
Q 397.8 710.85927 397.8 691.250374 
" style="fill: none; stroke: #00d4aa; stroke-width: 1.5; stroke-linecap: round"/>
    <path d="M 395.8 695.250374 
L 397.8 691.250374 
L 399.8 695.250374 
" style="fill: none; stroke: #00d4aa; stroke-width: 1.5; stroke-linecap: round"/>
   </g>
   <g id="text_35">
    <!-- Output Probabilities -->
    <g style="fill: #eaeaea" transform="translate(346.338281 666.77245) scale(0.09 -0.09)">
     <use xlink:href="#DejaVuSans-Bold-4f"/>
     <use xlink:href="#DejaVuSans-Bold-75" transform="translate(85.009766 0)"/>
     <use xlink:href="#DejaVuSans-Bold-74" transform="translate(156.201172 0)"/>
     <use xlink:href="#DejaVuSans-Bold-70" transform="translate(204.003906 0)"/>
     <use xlink:href="#DejaVuSans-Bold-75" transform="translate(275.585938 0)"/>
     <use xlink:href="#DejaVuSans-Bold-74" transform="translate(346.777344 0)"/>
     <use xlink:href="#DejaVuSans-Bold-20" transform="translate(394.580078 0)"/>
     <use xlink:href="#DejaVuSans-Bold-50" transform="translate(429.394531 0)"/>
     <use xlink:href="#DejaVuSans-Bold-72" transform="translate(502.685547 0)"/>
     <use xlink:href="#DejaVuSans-Bold-6f" transform="translate(552.001953 0)"/>
     <use xlink:href="#DejaVuSans-Bold-62" transform="translate(620.703125 0)"/>
     <use xlink:href="#DejaVuSans-Bold-61" transform="translate(692.285156 0)"/>
     <use xlink:href="#DejaVuSans-Bold-62" transform="translate(759.765625 0)"/>
     <use xlink:href="#DejaVuSans-Bold-69" transform="translate(831.347656 0)"/>
     <use xlink:href="#DejaVuSans-Bold-6c" transform="translate(865.625 0)"/>
     <use xlink:href="#DejaVuSans-Bold-69" transform="translate(899.902344 0)"/>
     <use xlink:href="#DejaVuSans-Bold-74" transform="translate(934.179688 0)"/>
     <use xlink:href="#DejaVuSans-Bold-69" transform="translate(981.982422 0)"/>
     <use xlink:href="#DejaVuSans-Bold-65" transform="translate(1016.259766 0)"/>
     <use xlink:href="#DejaVuSans-Bold-73" transform="translate(1084.082031 0)"/>
    </g>
   </g>
   <g id="text_36">
    <!-- ENCODER -->
    <g style="fill: #4fc3f7" transform="translate(144.969609 54.157925) scale(0.11 -0.11)">
     <defs>
      <path id="DejaVuSans-Bold-43" d="M 4288 256 
Q 3956 84 3597 -3 
Q 3238 -91 2847 -91 
Q 1681 -91 1000 561 
Q 319 1213 319 2328 
Q 319 3447 1000 4098 
Q 1681 4750 2847 4750 
Q 3238 4750 3597 4662 
Q 3956 4575 4288 4403 
L 4288 3438 
Q 3953 3666 3628 3772 
Q 3303 3878 2944 3878 
Q 2300 3878 1931 3465 
Q 1563 3053 1563 2328 
Q 1563 1606 1931 1193 
Q 2300 781 2944 781 
Q 3303 781 3628 887 
Q 3953 994 4288 1222 
L 4288 256 
z
" transform="scale(0.015625)"/>
      <path id="DejaVuSans-Bold-44" d="M 1791 3756 
L 1791 909 
L 2222 909 
Q 2959 909 3348 1275 
Q 3738 1641 3738 2338 
Q 3738 3031 3350 3393 
Q 2963 3756 2222 3756 
L 1791 3756 
z
M 588 4666 
L 1856 4666 
Q 2919 4666 3439 4514 
Q 3959 4363 4331 4000 
Q 4659 3684 4818 3271 
Q 4978 2859 4978 2338 
Q 4978 1809 4818 1395 
Q 4659 981 4331 666 
Q 3956 303 3431 151 
Q 2906 0 1856 0 
L 588 0 
L 588 4666 
z
" transform="scale(0.015625)"/>
      <path id="DejaVuSans-Bold-52" d="M 2297 2597 
Q 2675 2597 2839 2737 
Q 3003 2878 3003 3200 
Q 3003 3519 2839 3656 
Q 2675 3794 2297 3794 
L 1791 3794 
L 1791 2597 
L 2297 2597 
z
M 1791 1766 
L 1791 0 
L 588 0 
L 588 4666 
L 2425 4666 
Q 3347 4666 3776 4356 
Q 4206 4047 4206 3378 
Q 4206 2916 3982 2619 
Q 3759 2322 3309 2181 
Q 3556 2125 3751 1926 
Q 3947 1728 4147 1325 
L 4800 0 
L 3519 0 
L 2950 1159 
Q 2778 1509 2601 1637 
Q 2425 1766 2131 1766 
L 1791 1766 
z
" transform="scale(0.015625)"/>
     </defs>
     <use xlink:href="#DejaVuSans-Bold-45"/>
     <use xlink:href="#DejaVuSans-Bold-4e" transform="translate(68.310547 0)"/>
     <use xlink:href="#DejaVuSans-Bold-43" transform="translate(152.001953 0)"/>
     <use xlink:href="#DejaVuSans-Bold-4f" transform="translate(225.390625 0)"/>
     <use xlink:href="#DejaVuSans-Bold-44" transform="translate(310.400391 0)"/>
     <use xlink:href="#DejaVuSans-Bold-45" transform="translate(393.408203 0)"/>
     <use xlink:href="#DejaVuSans-Bold-52" transform="translate(461.71875 0)"/>
    </g>
   </g>
   <g id="text_37">
    <!-- DECODER -->
    <g style="fill: #ff8a65" transform="translate(368.206563 54.157925) scale(0.11 -0.11)">
     <use xlink:href="#DejaVuSans-Bold-44"/>
     <use xlink:href="#DejaVuSans-Bold-45" transform="translate(83.007812 0)"/>
     <use xlink:href="#DejaVuSans-Bold-43" transform="translate(151.318359 0)"/>
     <use xlink:href="#DejaVuSans-Bold-4f" transform="translate(224.707031 0)"/>
     <use xlink:href="#DejaVuSans-Bold-44" transform="translate(309.716797 0)"/>
     <use xlink:href="#DejaVuSans-Bold-45" transform="translate(392.724609 0)"/>
     <use xlink:href="#DejaVuSans-Bold-52" transform="translate(461.035156 0)"/>
    </g>
   </g>
   <g id="text_38">
    <!-- Transformer Architecture (Vaswani et al., 2017) -->
    <g style="fill: #00d4aa" transform="translate(97.799375 17.837812) scale(0.14 -0.14)">
     <defs>
      <path id="DejaVuSans-Bold-54" d="M 31 4666 
L 4331 4666 
L 4331 3756 
L 2784 3756 
L 2784 0 
L 1581 0 
L 1581 3756 
L 31 3756 
L 31 4666 
z
" transform="scale(0.015625)"/>
      <path id="DejaVuSans-Bold-68" d="M 4056 2131 
L 4056 0 
L 2931 0 
L 2931 347 
L 2931 1625 
Q 2931 2084 2911 2256 
Q 2891 2428 2841 2509 
Q 2775 2619 2662 2680 
Q 2550 2741 2406 2741 
Q 2056 2741 1856 2470 
Q 1656 2200 1656 1722 
L 1656 0 
L 538 0 
L 538 4863 
L 1656 4863 
L 1656 2988 
Q 1909 3294 2193 3439 
Q 2478 3584 2822 3584 
Q 3428 3584 3742 3212 
Q 4056 2841 4056 2131 
z
" transform="scale(0.015625)"/>
      <path id="DejaVuSans-Bold-28" d="M 2413 -844 
L 1484 -844 
Q 1006 -72 778 623 
Q 550 1319 550 2003 
Q 550 2688 779 3389 
Q 1009 4091 1484 4856 
L 2413 4856 
Q 2013 4116 1813 3408 
Q 1613 2700 1613 2009 
Q 1613 1319 1811 609 
Q 2009 -100 2413 -844 
z
" transform="scale(0.015625)"/>
      <path id="DejaVuSans-Bold-56" d="M 31 4666 
L 1241 4666 
L 2478 1222 
L 3713 4666 
L 4922 4666 
L 3194 0 
L 1759 0 
L 31 4666 
z
" transform="scale(0.015625)"/>
      <path id="DejaVuSans-Bold-2e" d="M 653 1209 
L 1778 1209 
L 1778 0 
L 653 0 
L 653 1209 
z
" transform="scale(0.015625)"/>
      <path id="DejaVuSans-Bold-2c" d="M 653 1209 
L 1778 1209 
L 1778 256 
L 1006 -909 
L 341 -909 
L 653 256 
L 653 1209 
z
" transform="scale(0.015625)"/>
      <path id="DejaVuSans-Bold-32" d="M 1844 884 
L 3897 884 
L 3897 0 
L 506 0 
L 506 884 
L 2209 2388 
Q 2438 2594 2547 2791 
Q 2656 2988 2656 3200 
Q 2656 3528 2436 3728 
Q 2216 3928 1850 3928 
Q 1569 3928 1234 3808 
Q 900 3688 519 3450 
L 519 4475 
Q 925 4609 1322 4679 
Q 1719 4750 2100 4750 
Q 2938 4750 3402 4381 
Q 3866 4013 3866 3353 
Q 3866 2972 3669 2642 
Q 3472 2313 2841 1759 
L 1844 884 
z
" transform="scale(0.015625)"/>
      <path id="DejaVuSans-Bold-30" d="M 2944 2338 
Q 2944 3213 2780 3570 
Q 2616 3928 2228 3928 
Q 1841 3928 1675 3570 
Q 1509 3213 1509 2338 
Q 1509 1453 1675 1090 
Q 1841 728 2228 728 
Q 2613 728 2778 1090 
Q 2944 1453 2944 2338 
z
M 4147 2328 
Q 4147 1169 3647 539 
Q 3147 -91 2228 -91 
Q 1306 -91 806 539 
Q 306 1169 306 2328 
Q 306 3491 806 4120 
Q 1306 4750 2228 4750 
Q 3147 4750 3647 4120 
Q 4147 3491 4147 2328 
z
" transform="scale(0.015625)"/>
      <path id="DejaVuSans-Bold-31" d="M 750 831 
L 1813 831 
L 1813 3847 
L 722 3622 
L 722 4441 
L 1806 4666 
L 2950 4666 
L 2950 831 
L 4013 831 
L 4013 0 
L 750 0 
L 750 831 
z
" transform="scale(0.015625)"/>
      <path id="DejaVuSans-Bold-37" d="M 428 4666 
L 3944 4666 
L 3944 3988 
L 2125 0 
L 953 0 
L 2675 3781 
L 428 3781 
L 428 4666 
z
" transform="scale(0.015625)"/>
      <path id="DejaVuSans-Bold-29" d="M 513 -844 
Q 913 -100 1113 609 
Q 1313 1319 1313 2009 
Q 1313 2700 1113 3408 
Q 913 4116 513 4856 
L 1441 4856 
Q 1916 4091 2145 3389 
Q 2375 2688 2375 2003 
Q 2375 1319 2147 623 
Q 1919 -72 1441 -844 
L 513 -844 
z
" transform="scale(0.015625)"/>
     </defs>
     <use xlink:href="#DejaVuSans-Bold-54"/>
     <use xlink:href="#DejaVuSans-Bold-72" transform="translate(57.212891 0)"/>
     <use xlink:href="#DejaVuSans-Bold-61" transform="translate(106.529297 0)"/>
     <use xlink:href="#DejaVuSans-Bold-6e" transform="translate(174.009766 0)"/>
     <use xlink:href="#DejaVuSans-Bold-73" transform="translate(245.201172 0)"/>
     <use xlink:href="#DejaVuSans-Bold-66" transform="translate(304.722656 0)"/>
     <use xlink:href="#DejaVuSans-Bold-6f" transform="translate(348.228516 0)"/>
     <use xlink:href="#DejaVuSans-Bold-72" transform="translate(416.929688 0)"/>
     <use xlink:href="#DejaVuSans-Bold-6d" transform="translate(466.246094 0)"/>
     <use xlink:href="#DejaVuSans-Bold-65" transform="translate(570.445312 0)"/>
     <use xlink:href="#DejaVuSans-Bold-72" transform="translate(638.267578 0)"/>
     <use xlink:href="#DejaVuSans-Bold-20" transform="translate(687.583984 0)"/>
     <use xlink:href="#DejaVuSans-Bold-41" transform="translate(722.398438 0)"/>
     <use xlink:href="#DejaVuSans-Bold-72" transform="translate(799.791016 0)"/>
     <use xlink:href="#DejaVuSans-Bold-63" transform="translate(849.107422 0)"/>
     <use xlink:href="#DejaVuSans-Bold-68" transform="translate(908.384766 0)"/>
     <use xlink:href="#DejaVuSans-Bold-69" transform="translate(979.576172 0)"/>
     <use xlink:href="#DejaVuSans-Bold-74" transform="translate(1013.853516 0)"/>
     <use xlink:href="#DejaVuSans-Bold-65" transform="translate(1061.65625 0)"/>
     <use xlink:href="#DejaVuSans-Bold-63" transform="translate(1129.478516 0)"/>
     <use xlink:href="#DejaVuSans-Bold-74" transform="translate(1188.755859 0)"/>
     <use xlink:href="#DejaVuSans-Bold-75" transform="translate(1236.558594 0)"/>
     <use xlink:href="#DejaVuSans-Bold-72" transform="translate(1307.75 0)"/>
     <use xlink:href="#DejaVuSans-Bold-65" transform="translate(1357.066406 0)"/>
     <use xlink:href="#DejaVuSans-Bold-20" transform="translate(1424.888672 0)"/>
     <use xlink:href="#DejaVuSans-Bold-28" transform="translate(1459.703125 0)"/>
     <use xlink:href="#DejaVuSans-Bold-56" transform="translate(1505.40625 0)"/>
     <use xlink:href="#DejaVuSans-Bold-61" transform="translate(1577.298828 0)"/>
     <use xlink:href="#DejaVuSans-Bold-73" transform="translate(1644.779297 0)"/>
     <use xlink:href="#DejaVuSans-Bold-77" transform="translate(1704.300781 0)"/>
     <use xlink:href="#DejaVuSans-Bold-61" transform="translate(1796.683594 0)"/>
     <use xlink:href="#DejaVuSans-Bold-6e" transform="translate(1864.164062 0)"/>
     <use xlink:href="#DejaVuSans-Bold-69" transform="translate(1935.355469 0)"/>
     <use xlink:href="#DejaVuSans-Bold-20" transform="translate(1969.632812 0)"/>
     <use xlink:href="#DejaVuSans-Bold-65" transform="translate(2004.447266 0)"/>
     <use xlink:href="#DejaVuSans-Bold-74" transform="translate(2072.269531 0)"/>
     <use xlink:href="#DejaVuSans-Bold-20" transform="translate(2120.072266 0)"/>
     <use xlink:href="#DejaVuSans-Bold-61" transform="translate(2154.886719 0)"/>
     <use xlink:href="#DejaVuSans-Bold-6c" transform="translate(2222.367188 0)"/>
     <use xlink:href="#DejaVuSans-Bold-2e" transform="translate(2256.644531 0)"/>
     <use xlink:href="#DejaVuSans-Bold-2c" transform="translate(2294.632812 0)"/>
     <use xlink:href="#DejaVuSans-Bold-20" transform="translate(2332.621094 0)"/>
     <use xlink:href="#DejaVuSans-Bold-32" transform="translate(2367.435547 0)"/>
     <use xlink:href="#DejaVuSans-Bold-30" transform="translate(2437.015625 0)"/>
     <use xlink:href="#DejaVuSans-Bold-31" transform="translate(2506.595703 0)"/>
     <use xlink:href="#DejaVuSans-Bold-37" transform="translate(2576.175781 0)"/>
     <use xlink:href="#DejaVuSans-Bold-29" transform="translate(2645.755859 0)"/>
    </g>
   </g>
  </g>
 </g>
 <defs>
  <clipPath id="pb38578fc16">
   <rect x="7.2" y="27.837812" width="558" height="776.16"/>
  </clipPath>
 </defs>
</svg>
