<?xml version="1.0" encoding="utf-8" standalone="no"?>
<!DOCTYPE svg PUBLIC "-//W3C//DTD SVG 1.1//EN"
  "http://www.w3.org/Graphics/SVG/1.1/DTD/svg11.dtd">
<svg xmlns:xlink="http://www.w3.org/1999/xlink" width="572.4pt" height="367.677813pt" viewBox="0 0 572.4 367.677813" xmlns="http://www.w3.org/2000/svg" version="1.1">
 <metadata>
  <rdf:RDF xmlns:dc="http://purl.org/dc/elements/1.1/" xmlns:cc="http://creativecommons.org/ns#" xmlns:rdf="http://www.w3.org/1999/02/22-rdf-syntax-ns#">
   <cc:Work>
    <dc:type rdf:resource="http://purl.org/dc/dcmitype/StillImage"/>
    <dc:date>2026-05-26T08:38:47.374945</dc:date>
    <dc:format>image/svg+xml</dc:format>
    <dc:creator>
     <cc:Agent>
      <dc:title>Matplotlib v3.10.9, https://matplotlib.org/</dc:title>
     </cc:Agent>
    </dc:creator>
   </cc:Work>
  </rdf:RDF>
 </metadata>
 <defs>
  <style type="text/css">*{stroke-linejoin: round; stroke-linecap: butt}</style>
 </defs>
 <g id="figure_1">
  <g id="patch_1">
   <path d="M 0 367.677813 
L 572.4 367.677813 
L 572.4 0 
L 0 0 
z
" style="fill: #1a1a2e"/>
  </g>
  <g id="axes_1">
   <g id="patch_2">
    <path d="M 42.354 211.455093 
L 139.446 211.455093 
Q 147.816 211.455093 147.816 206.465492 
L 147.816 191.829332 
Q 147.816 186.839732 139.446 186.839732 
L 42.354 186.839732 
Q 33.984 186.839732 33.984 191.829332 
L 33.984 206.465492 
Q 33.984 211.455093 42.354 211.455093 
z
" clip-path="url(#pc3fe480de6)" style="fill: #1565c0; stroke: #555555; stroke-width: 1.5; stroke-linejoin: miter"/>
   </g>
   <g id="patch_3">
    <path d="M 42.354 261.351093 
L 139.446 261.351093 
Q 147.816 261.351093 147.816 256.361493 
L 147.816 241.725333 
Q 147.816 236.735733 139.446 236.735733 
L 42.354 236.735733 
Q 33.984 236.735733 33.984 241.725333 
L 33.984 256.361493 
Q 33.984 261.351093 42.354 261.351093 
z
" clip-path="url(#pc3fe480de6)" style="fill: #c62828; stroke: #555555; stroke-width: 1.5; stroke-linejoin: miter"/>
   </g>
   <g id="patch_4">
    <path d="M 31.194 311.247093 
L 83.646 311.247093 
Q 92.016 311.247093 92.016 306.257493 
L 92.016 294.947733 
Q 92.016 289.958133 83.646 289.958133 
L 31.194 289.958133 
Q 22.824 289.958133 22.824 294.947733 
L 22.824 306.257493 
Q 22.824 311.247093 31.194 311.247093 
z
" clip-path="url(#pc3fe480de6)" style="fill: #6a1b9a; stroke: #555555; stroke-width: 1.5; stroke-linejoin: miter"/>
   </g>
   <g id="patch_5">
    <path d="M 109.314 311.247093 
L 161.766 311.247093 
Q 170.136 311.247093 170.136 306.257493 
L 170.136 294.947733 
Q 170.136 289.958133 161.766 289.958133 
L 109.314 289.958133 
Q 100.944 289.958133 100.944 294.947733 
L 100.944 306.257493 
Q 100.944 311.247093 109.314 311.247093 
z
" clip-path="url(#pc3fe480de6)" style="fill: #6a1b9a; stroke: #555555; stroke-width: 1.5; stroke-linejoin: miter"/>
   </g>
   <g id="patch_6">
    <path d="M 42.354 354.490293 
L 139.446 354.490293 
Q 147.816 354.490293 147.816 349.500693 
L 147.816 341.517333 
Q 147.816 336.527733 139.446 336.527733 
L 42.354 336.527733 
Q 33.984 336.527733 33.984 341.517333 
L 33.984 349.500693 
Q 33.984 354.490293 42.354 354.490293 
z
" clip-path="url(#pc3fe480de6)" style="fill: #6a1b9a; stroke: #555555; stroke-width: 1.5; stroke-linejoin: miter"/>
   </g>
   <g id="patch_7">
    <path d="M 209.754 261.351093 
L 306.846 261.351093 
Q 315.216 261.351093 315.216 256.361493 
L 315.216 241.725333 
Q 315.216 236.735733 306.846 236.735733 
L 209.754 236.735733 
Q 201.384 236.735733 201.384 241.725333 
L 201.384 256.361493 
Q 201.384 261.351093 209.754 261.351093 
z
" clip-path="url(#pc3fe480de6)" style="fill: #c62828; stroke: #555555; stroke-width: 1.5; stroke-linejoin: miter"/>
   </g>
   <g id="patch_8">
    <path d="M 209.754 311.247093 
L 306.846 311.247093 
Q 315.216 311.247093 315.216 306.257493 
L 315.216 291.621332 
Q 315.216 286.631732 306.846 286.631732 
L 209.754 286.631732 
Q 201.384 286.631732 201.384 291.621332 
L 201.384 306.257493 
Q 201.384 311.247093 209.754 311.247093 
z
" clip-path="url(#pc3fe480de6)" style="fill: #2e7d32; stroke: #555555; stroke-width: 1.5; stroke-linejoin: miter"/>
   </g>
   <g id="patch_9">
    <path d="M 377.154 317.899893 
L 502.146 317.899893 
Q 510.516 317.899893 510.516 312.910293 
L 510.516 291.621332 
Q 510.516 286.631732 502.146 286.631732 
L 377.154 286.631732 
Q 368.784 286.631732 368.784 291.621332 
L 368.784 312.910293 
Q 368.784 317.899893 377.154 317.899893 
z
" clip-path="url(#pc3fe480de6)" style="fill: #ff8a65; stroke: #555555; stroke-width: 1.5; stroke-linejoin: miter"/>
   </g>
   <g id="text_1">
    <!-- Input x -->
    <g style="fill: #eaeaea" transform="translate(72.978047 201.63085) scale(0.09 -0.09)">
     <defs>
      <path id="DejaVuSans-Bold-49" d="M 588 4666 
L 1791 4666 
L 1791 0 
L 588 0 
L 588 4666 
z
" transform="scale(0.015625)"/>
      <path id="DejaVuSans-Bold-6e" d="M 4056 2131 
L 4056 0 
L 2931 0 
L 2931 347 
L 2931 1631 
Q 2931 2084 2911 2256 
Q 2891 2428 2841 2509 
Q 2775 2619 2662 2680 
Q 2550 2741 2406 2741 
Q 2056 2741 1856 2470 
Q 1656 2200 1656 1722 
L 1656 0 
L 538 0 
L 538 3500 
L 1656 3500 
L 1656 2988 
Q 1909 3294 2193 3439 
Q 2478 3584 2822 3584 
Q 3428 3584 3742 3212 
Q 4056 2841 4056 2131 
z
" transform="scale(0.015625)"/>
      <path id="DejaVuSans-Bold-70" d="M 1656 506 
L 1656 -1331 
L 538 -1331 
L 538 3500 
L 1656 3500 
L 1656 2988 
Q 1888 3294 2169 3439 
Q 2450 3584 2816 3584 
Q 3463 3584 3878 3070 
Q 4294 2556 4294 1747 
Q 4294 938 3878 423 
Q 3463 -91 2816 -91 
Q 2450 -91 2169 54 
Q 1888 200 1656 506 
z
M 2400 2772 
Q 2041 2772 1848 2508 
Q 1656 2244 1656 1747 
Q 1656 1250 1848 986 
Q 2041 722 2400 722 
Q 2759 722 2948 984 
Q 3138 1247 3138 1747 
Q 3138 2247 2948 2509 
Q 2759 2772 2400 2772 
z
" transform="scale(0.015625)"/>
      <path id="DejaVuSans-Bold-75" d="M 500 1363 
L 500 3500 
L 1625 3500 
L 1625 3150 
Q 1625 2866 1622 2436 
Q 1619 2006 1619 1863 
Q 1619 1441 1641 1255 
Q 1663 1069 1716 984 
Q 1784 875 1895 815 
Q 2006 756 2150 756 
Q 2500 756 2700 1025 
Q 2900 1294 2900 1772 
L 2900 3500 
L 4019 3500 
L 4019 0 
L 2900 0 
L 2900 506 
Q 2647 200 2364 54 
Q 2081 -91 1741 -91 
Q 1134 -91 817 281 
Q 500 653 500 1363 
z
" transform="scale(0.015625)"/>
      <path id="DejaVuSans-Bold-74" d="M 1759 4494 
L 1759 3500 
L 2913 3500 
L 2913 2700 
L 1759 2700 
L 1759 1216 
Q 1759 972 1856 886 
Q 1953 800 2241 800 
L 2816 800 
L 2816 0 
L 1856 0 
Q 1194 0 917 276 
Q 641 553 641 1216 
L 641 2700 
L 84 2700 
L 84 3500 
L 641 3500 
L 641 4494 
L 1759 4494 
z
" transform="scale(0.015625)"/>
      <path id="DejaVuSans-Bold-20" transform="scale(0.015625)"/>
      <path id="DejaVuSans-Bold-78" d="M 1422 1791 
L 159 3500 
L 1344 3500 
L 2059 2463 
L 2784 3500 
L 3969 3500 
L 2706 1797 
L 4031 0 
L 2847 0 
L 2059 1106 
L 1281 0 
L 97 0 
L 1422 1791 
z
" transform="scale(0.015625)"/>
     </defs>
     <use xlink:href="#DejaVuSans-Bold-49"/>
     <use xlink:href="#DejaVuSans-Bold-6e" transform="translate(37.207031 0)"/>
     <use xlink:href="#DejaVuSans-Bold-70" transform="translate(108.398438 0)"/>
     <use xlink:href="#DejaVuSans-Bold-75" transform="translate(179.980469 0)"/>
     <use xlink:href="#DejaVuSans-Bold-74" transform="translate(251.171875 0)"/>
     <use xlink:href="#DejaVuSans-Bold-20" transform="translate(298.974609 0)"/>
     <use xlink:href="#DejaVuSans-Bold-78" transform="translate(333.789062 0)"/>
    </g>
   </g>
   <g id="patch_10">
    <path d="M 90.9 212.788008 
Q 90.9 222.432201 90.9 230.399344 
" style="fill: none; stroke: #00d4aa; stroke-width: 1.5; stroke-linecap: round"/>
    <path d="M 92.9 226.399344 
L 90.9 230.399344 
L 88.9 226.399344 
" style="fill: none; stroke: #00d4aa; stroke-width: 1.5; stroke-linecap: round"/>
   </g>
   <g id="text_2">
    <!-- Encoder -->
    <g style="fill: #eaeaea" transform="translate(70.370859 251.52685) scale(0.09 -0.09)">
     <defs>
      <path id="DejaVuSans-Bold-45" d="M 588 4666 
L 3834 4666 
L 3834 3756 
L 1791 3756 
L 1791 2888 
L 3713 2888 
L 3713 1978 
L 1791 1978 
L 1791 909 
L 3903 909 
L 3903 0 
L 588 0 
L 588 4666 
z
" transform="scale(0.015625)"/>
      <path id="DejaVuSans-Bold-63" d="M 3366 3391 
L 3366 2478 
Q 3138 2634 2908 2709 
Q 2678 2784 2431 2784 
Q 1963 2784 1702 2511 
Q 1441 2238 1441 1747 
Q 1441 1256 1702 982 
Q 1963 709 2431 709 
Q 2694 709 2930 787 
Q 3166 866 3366 1019 
L 3366 103 
Q 3103 6 2833 -42 
Q 2563 -91 2291 -91 
Q 1344 -91 809 395 
Q 275 881 275 1747 
Q 275 2613 809 3098 
Q 1344 3584 2291 3584 
Q 2566 3584 2833 3536 
Q 3100 3488 3366 3391 
z
" transform="scale(0.015625)"/>
      <path id="DejaVuSans-Bold-6f" d="M 2203 2784 
Q 1831 2784 1636 2517 
Q 1441 2250 1441 1747 
Q 1441 1244 1636 976 
Q 1831 709 2203 709 
Q 2569 709 2762 976 
Q 2956 1244 2956 1747 
Q 2956 2250 2762 2517 
Q 2569 2784 2203 2784 
z
M 2203 3584 
Q 3106 3584 3614 3096 
Q 4122 2609 4122 1747 
Q 4122 884 3614 396 
Q 3106 -91 2203 -91 
Q 1297 -91 786 396 
Q 275 884 275 1747 
Q 275 2609 786 3096 
Q 1297 3584 2203 3584 
z
" transform="scale(0.015625)"/>
      <path id="DejaVuSans-Bold-64" d="M 2919 2988 
L 2919 4863 
L 4044 4863 
L 4044 0 
L 2919 0 
L 2919 506 
Q 2688 197 2409 53 
Q 2131 -91 1766 -91 
Q 1119 -91 703 423 
Q 288 938 288 1747 
Q 288 2556 703 3070 
Q 1119 3584 1766 3584 
Q 2128 3584 2408 3439 
Q 2688 3294 2919 2988 
z
M 2181 722 
Q 2541 722 2730 984 
Q 2919 1247 2919 1747 
Q 2919 2247 2730 2509 
Q 2541 2772 2181 2772 
Q 1825 2772 1636 2509 
Q 1447 2247 1447 1747 
Q 1447 1247 1636 984 
Q 1825 722 2181 722 
z
" transform="scale(0.015625)"/>
      <path id="DejaVuSans-Bold-65" d="M 4031 1759 
L 4031 1441 
L 1416 1441 
Q 1456 1047 1700 850 
Q 1944 653 2381 653 
Q 2734 653 3104 758 
Q 3475 863 3866 1075 
L 3866 213 
Q 3469 63 3072 -14 
Q 2675 -91 2278 -91 
Q 1328 -91 801 392 
Q 275 875 275 1747 
Q 275 2603 792 3093 
Q 1309 3584 2216 3584 
Q 3041 3584 3536 3087 
Q 4031 2591 4031 1759 
z
M 2881 2131 
Q 2881 2450 2695 2645 
Q 2509 2841 2209 2841 
Q 1884 2841 1681 2658 
Q 1478 2475 1428 2131 
L 2881 2131 
z
" transform="scale(0.015625)"/>
      <path id="DejaVuSans-Bold-72" d="M 3138 2547 
Q 2991 2616 2845 2648 
Q 2700 2681 2553 2681 
Q 2122 2681 1889 2404 
Q 1656 2128 1656 1613 
L 1656 0 
L 538 0 
L 538 3500 
L 1656 3500 
L 1656 2925 
Q 1872 3269 2151 3426 
Q 2431 3584 2822 3584 
Q 2878 3584 2943 3579 
Q 3009 3575 3134 3559 
L 3138 2547 
z
" transform="scale(0.015625)"/>
     </defs>
     <use xlink:href="#DejaVuSans-Bold-45"/>
     <use xlink:href="#DejaVuSans-Bold-6e" transform="translate(68.310547 0)"/>
     <use xlink:href="#DejaVuSans-Bold-63" transform="translate(139.501953 0)"/>
     <use xlink:href="#DejaVuSans-Bold-6f" transform="translate(198.779297 0)"/>
     <use xlink:href="#DejaVuSans-Bold-64" transform="translate(267.480469 0)"/>
     <use xlink:href="#DejaVuSans-Bold-65" transform="translate(339.0625 0)"/>
     <use xlink:href="#DejaVuSans-Bold-72" transform="translate(406.884766 0)"/>
    </g>
   </g>
   <g id="patch_11">
    <path d="M 90.9 262.684008 
Q 90.9 272.328201 90.9 280.295344 
" style="fill: none; stroke: #00d4aa; stroke-width: 1.5; stroke-linecap: round"/>
    <path d="M 92.9 276.295344 
L 90.9 280.295344 
L 88.9 276.295344 
" style="fill: none; stroke: #00d4aa; stroke-width: 1.5; stroke-linecap: round"/>
   </g>
   <g id="text_3">
    <!-- μ -->
    <g style="fill: #eaeaea" transform="translate(53.741094 303.35105) scale(0.1 -0.1)">
     <defs>
      <path id="DejaVuSans-Bold-3bc" d="M 544 -1338 
L 544 3500 
L 1672 3500 
L 1672 1466 
Q 1672 1103 1828 926 
Q 1984 750 2303 750 
Q 2625 750 2781 926 
Q 2938 1103 2938 1466 
L 2938 3500 
L 4063 3500 
L 4063 1159 
Q 4063 938 4114 850 
Q 4166 763 4288 763 
Q 4344 763 4395 778 
Q 4447 794 4506 831 
L 4506 50 
Q 4341 -22 4195 -56 
Q 4050 -91 3909 -91 
Q 3631 -91 3454 26 
Q 3278 144 3169 403 
Q 3022 156 2811 32 
Q 2600 -91 2322 -91 
Q 2091 -91 1928 -17 
Q 1766 56 1672 206 
L 1672 -1338 
L 544 -1338 
z
" transform="scale(0.015625)"/>
     </defs>
     <use xlink:href="#DejaVuSans-Bold-3bc"/>
    </g>
   </g>
   <g id="text_4">
    <!-- σ -->
    <g style="fill: #eaeaea" transform="translate(131.64625 303.361987) scale(0.1 -0.1)">
     <defs>
      <path id="DejaVuSans-Bold-3c3" d="M 2200 2784 
Q 1831 2784 1636 2517 
Q 1441 2250 1441 1747 
Q 1441 1244 1636 976 
Q 1831 709 2200 709 
Q 2569 709 2762 976 
Q 2956 1244 2956 1747 
Q 2956 2250 2762 2517 
Q 2569 2784 2200 2784 
z
M 4650 2700 
L 3916 2700 
Q 4122 2291 4122 1747 
Q 4122 884 3614 396 
Q 3106 -91 2203 -91 
Q 1297 -91 786 396 
Q 275 884 275 1747 
Q 275 2609 788 3097 
Q 1209 3500 2203 3500 
L 4650 3500 
L 4650 2700 
z
" transform="scale(0.015625)"/>
     </defs>
     <use xlink:href="#DejaVuSans-Bold-3c3"/>
    </g>
   </g>
   <g id="patch_12">
    <path d="M 90.9 312.580008 
Q 90.9 322.224201 90.9 330.191344 
" style="fill: none; stroke: #00d4aa; stroke-width: 1.5; stroke-linecap: round"/>
    <path d="M 92.9 326.191344 
L 90.9 330.191344 
L 88.9 326.191344 
" style="fill: none; stroke: #00d4aa; stroke-width: 1.5; stroke-linecap: round"/>
   </g>
   <g id="text_5">
    <!-- z = μ + σ⊙ε -->
    <g style="fill: #eaeaea" transform="translate(61.381406 347.982606) scale(0.09 -0.09)">
     <defs>
      <path id="DejaVuSans-Bold-7a" d="M 366 3500 
L 3419 3500 
L 3419 2719 
L 1575 800 
L 3419 800 
L 3419 0 
L 288 0 
L 288 781 
L 2131 2700 
L 366 2700 
L 366 3500 
z
" transform="scale(0.015625)"/>
      <path id="DejaVuSans-Bold-3d" d="M 678 3084 
L 4684 3084 
L 4684 2350 
L 678 2350 
L 678 3084 
z
M 678 1663 
L 4684 1663 
L 4684 922 
L 678 922 
L 678 1663 
z
" transform="scale(0.015625)"/>
      <path id="DejaVuSans-Bold-2b" d="M 3053 4013 
L 3053 2375 
L 4684 2375 
L 4684 1638 
L 3053 1638 
L 3053 0 
L 2309 0 
L 2309 1638 
L 678 1638 
L 678 2375 
L 2309 2375 
L 2309 4013 
L 3053 4013 
z
" transform="scale(0.015625)"/>
      <path id="DejaVuSans-Bold-2299" d="M 2119 2616 
L 3244 2616 
L 3244 1406 
L 2119 1406 
L 2119 2616 
z
M 3247 3378 
Q 2984 3488 2681 3488 
Q 2378 3488 2116 3378 
Q 1856 3269 1641 3053 
Q 1422 2834 1315 2575 
Q 1209 2316 1209 2006 
Q 1209 1706 1315 1447 
Q 1422 1188 1641 969 
Q 1856 753 2116 644 
Q 2378 534 2681 534 
Q 2984 534 3247 644 
Q 3506 753 3722 969 
Q 3941 1188 4047 1447 
Q 4153 1706 4153 2006 
Q 4153 2316 4047 2575 
Q 3941 2834 3722 3053 
Q 3506 3269 3247 3378 
z
M 1878 3956 
Q 2250 4113 2681 4113 
Q 3113 4113 3484 3956 
Q 3856 3800 4163 3494 
Q 4472 3184 4625 2813 
Q 4778 2444 4778 2006 
Q 4778 1578 4625 1206 
Q 4472 838 4163 528 
Q 3856 222 3484 65 
Q 3113 -91 2681 -91 
Q 2250 -91 1878 65 
Q 1506 222 1200 528 
Q 891 838 738 1206 
Q 584 1578 584 2006 
Q 584 2444 738 2813 
Q 891 3184 1200 3494 
Q 1506 3800 1878 3956 
z
" transform="scale(0.015625)"/>
      <path id="DejaVuSans-Bold-3b5" d="M 1116 1888 
Q 778 1966 606 2163 
Q 431 2363 431 2666 
Q 431 3138 794 3359 
Q 1156 3584 1881 3584 
Q 2153 3584 2431 3547 
Q 2713 3509 2997 3434 
L 2997 2688 
Q 2809 2772 2543 2822 
Q 2278 2872 2094 2872 
Q 1797 2872 1625 2763 
Q 1450 2650 1450 2519 
Q 1450 2381 1628 2275 
Q 1784 2181 2150 2181 
L 2538 2181 
L 2538 1481 
L 2169 1481 
Q 1766 1481 1572 1366 
Q 1363 1244 1363 1056 
Q 1363 875 1569 750 
Q 1772 628 2134 628 
Q 2375 628 2641 691 
Q 2934 759 3156 872 
L 3156 84 
Q 2875 -3 2588 -47 
Q 2297 -91 2009 -91 
Q 1194 -91 769 181 
Q 344 453 344 994 
Q 344 1344 541 1569 
Q 738 1794 1116 1888 
z
" transform="scale(0.015625)"/>
     </defs>
     <use xlink:href="#DejaVuSans-Bold-7a"/>
     <use xlink:href="#DejaVuSans-Bold-20" transform="translate(58.203125 0)"/>
     <use xlink:href="#DejaVuSans-Bold-3d" transform="translate(93.017578 0)"/>
     <use xlink:href="#DejaVuSans-Bold-20" transform="translate(176.806641 0)"/>
     <use xlink:href="#DejaVuSans-Bold-3bc" transform="translate(211.621094 0)"/>
     <use xlink:href="#DejaVuSans-Bold-20" transform="translate(285.205078 0)"/>
     <use xlink:href="#DejaVuSans-Bold-2b" transform="translate(320.019531 0)"/>
     <use xlink:href="#DejaVuSans-Bold-20" transform="translate(403.808594 0)"/>
     <use xlink:href="#DejaVuSans-Bold-3c3" transform="translate(438.623047 0)"/>
     <use xlink:href="#DejaVuSans-Bold-2299" transform="translate(516.503906 0)"/>
     <use xlink:href="#DejaVuSans-Bold-3b5" transform="translate(600.292969 0)"/>
    </g>
   </g>
   <g id="patch_13">
    <path d="M 148.699182 345.509013 
Q 174.599692 345.509013 198.823151 345.509013 
" style="fill: none; stroke: #00d4aa; stroke-width: 1.5; stroke-linecap: round"/>
    <path d="M 194.823151 343.509013 
L 198.823151 345.509013 
L 194.823151 347.509013 
" style="fill: none; stroke: #00d4aa; stroke-width: 1.5; stroke-linecap: round"/>
   </g>
   <g id="text_6">
    <!-- Decoder -->
    <g style="fill: #eaeaea" transform="translate(237.260391 251.52685) scale(0.09 -0.09)">
     <defs>
      <path id="DejaVuSans-Bold-44" d="M 1791 3756 
L 1791 909 
L 2222 909 
Q 2959 909 3348 1275 
Q 3738 1641 3738 2338 
Q 3738 3031 3350 3393 
Q 2963 3756 2222 3756 
L 1791 3756 
z
M 588 4666 
L 1856 4666 
Q 2919 4666 3439 4514 
Q 3959 4363 4331 4000 
Q 4659 3684 4818 3271 
Q 4978 2859 4978 2338 
Q 4978 1809 4818 1395 
Q 4659 981 4331 666 
Q 3956 303 3431 151 
Q 2906 0 1856 0 
L 588 0 
L 588 4666 
z
" transform="scale(0.015625)"/>
     </defs>
     <use xlink:href="#DejaVuSans-Bold-44"/>
     <use xlink:href="#DejaVuSans-Bold-65" transform="translate(83.007812 0)"/>
     <use xlink:href="#DejaVuSans-Bold-63" transform="translate(150.830078 0)"/>
     <use xlink:href="#DejaVuSans-Bold-6f" transform="translate(210.107422 0)"/>
     <use xlink:href="#DejaVuSans-Bold-64" transform="translate(278.808594 0)"/>
     <use xlink:href="#DejaVuSans-Bold-65" transform="translate(350.390625 0)"/>
     <use xlink:href="#DejaVuSans-Bold-72" transform="translate(418.212891 0)"/>
    </g>
   </g>
   <g id="patch_14">
    <path d="M 203.325897 343.68735 
Q 216.450657 314.738364 228.882929 287.316781 
" style="fill: none; stroke: #00d4aa; stroke-width: 1.5; stroke-linecap: round"/>
    <path d="M 225.409716 290.134012 
L 228.882929 287.316781 
L 229.052786 291.78569 
" style="fill: none; stroke: #00d4aa; stroke-width: 1.5; stroke-linecap: round"/>
   </g>
   <g id="patch_15">
    <path d="M 258.3 262.684008 
Q 258.3 272.328201 258.3 280.295344 
" style="fill: none; stroke: #00d4aa; stroke-width: 1.5; stroke-linecap: round"/>
    <path d="M 260.3 276.295344 
L 258.3 280.295344 
L 256.3 276.295344 
" style="fill: none; stroke: #00d4aa; stroke-width: 1.5; stroke-linecap: round"/>
   </g>
   <g id="text_7">
    <!-- Reconstruct x̂ -->
    <g style="fill: #eaeaea" transform="translate(223.280859 301.42285) scale(0.09 -0.09)">
     <defs>
      <path id="DejaVuSans-Bold-52" d="M 2297 2597 
Q 2675 2597 2839 2737 
Q 3003 2878 3003 3200 
Q 3003 3519 2839 3656 
Q 2675 3794 2297 3794 
L 1791 3794 
L 1791 2597 
L 2297 2597 
z
M 1791 1766 
L 1791 0 
L 588 0 
L 588 4666 
L 2425 4666 
Q 3347 4666 3776 4356 
Q 4206 4047 4206 3378 
Q 4206 2916 3982 2619 
Q 3759 2322 3309 2181 
Q 3556 2125 3751 1926 
Q 3947 1728 4147 1325 
L 4800 0 
L 3519 0 
L 2950 1159 
Q 2778 1509 2601 1637 
Q 2425 1766 2131 1766 
L 1791 1766 
z
" transform="scale(0.015625)"/>
      <path id="DejaVuSans-Bold-73" d="M 3272 3391 
L 3272 2541 
Q 2913 2691 2578 2766 
Q 2244 2841 1947 2841 
Q 1628 2841 1473 2761 
Q 1319 2681 1319 2516 
Q 1319 2381 1436 2309 
Q 1553 2238 1856 2203 
L 2053 2175 
Q 2913 2066 3209 1816 
Q 3506 1566 3506 1031 
Q 3506 472 3093 190 
Q 2681 -91 1863 -91 
Q 1516 -91 1145 -36 
Q 775 19 384 128 
L 384 978 
Q 719 816 1070 734 
Q 1422 653 1784 653 
Q 2113 653 2278 743 
Q 2444 834 2444 1013 
Q 2444 1163 2330 1236 
Q 2216 1309 1875 1350 
L 1678 1375 
Q 931 1469 631 1722 
Q 331 1975 331 2491 
Q 331 3047 712 3315 
Q 1094 3584 1881 3584 
Q 2191 3584 2531 3537 
Q 2872 3491 3272 3391 
z
" transform="scale(0.015625)"/>
      <path id="DejaVuSans-Bold-302" d="M -1986 5119 
L -1230 5119 
L -430 3944 
L -986 3944 
L -1608 4647 
L -2230 3944 
L -2786 3944 
L -1986 5119 
z
" transform="scale(0.015625)"/>
     </defs>
     <use xlink:href="#DejaVuSans-Bold-52"/>
     <use xlink:href="#DejaVuSans-Bold-65" transform="translate(77.001953 0)"/>
     <use xlink:href="#DejaVuSans-Bold-63" transform="translate(144.824219 0)"/>
     <use xlink:href="#DejaVuSans-Bold-6f" transform="translate(204.101562 0)"/>
     <use xlink:href="#DejaVuSans-Bold-6e" transform="translate(272.802734 0)"/>
     <use xlink:href="#DejaVuSans-Bold-73" transform="translate(343.994141 0)"/>
     <use xlink:href="#DejaVuSans-Bold-74" transform="translate(403.515625 0)"/>
     <use xlink:href="#DejaVuSans-Bold-72" transform="translate(451.318359 0)"/>
     <use xlink:href="#DejaVuSans-Bold-75" transform="translate(500.634766 0)"/>
     <use xlink:href="#DejaVuSans-Bold-63" transform="translate(571.826172 0)"/>
     <use xlink:href="#DejaVuSans-Bold-74" transform="translate(631.103516 0)"/>
     <use xlink:href="#DejaVuSans-Bold-20" transform="translate(678.90625 0)"/>
     <use xlink:href="#DejaVuSans-Bold-78" transform="translate(713.720703 0)"/>
     <use xlink:href="#DejaVuSans-Bold-302" transform="translate(778.222656 0)"/>
    </g>
   </g>
   <g id="patch_16">
    <path d="M 316.099182 298.939413 
Q 341.999692 298.939413 366.223151 298.939413 
" style="fill: none; stroke: #00d4aa; stroke-width: 1.5; stroke-linecap: round"/>
    <path d="M 362.223151 296.939413 
L 366.223151 298.939413 
L 362.223151 300.939413 
" style="fill: none; stroke: #00d4aa; stroke-width: 1.5; stroke-linecap: round"/>
   </g>
   <g id="text_8">
    <!-- Reconstruction -->
    <g style="fill: #eaeaea" transform="translate(401.262188 299.675078) scale(0.09 -0.09)">
     <defs>
      <path id="DejaVuSans-Bold-69" d="M 538 3500 
L 1656 3500 
L 1656 0 
L 538 0 
L 538 3500 
z
M 538 4863 
L 1656 4863 
L 1656 3950 
L 538 3950 
L 538 4863 
z
" transform="scale(0.015625)"/>
     </defs>
     <use xlink:href="#DejaVuSans-Bold-52"/>
     <use xlink:href="#DejaVuSans-Bold-65" transform="translate(77.001953 0)"/>
     <use xlink:href="#DejaVuSans-Bold-63" transform="translate(144.824219 0)"/>
     <use xlink:href="#DejaVuSans-Bold-6f" transform="translate(204.101562 0)"/>
     <use xlink:href="#DejaVuSans-Bold-6e" transform="translate(272.802734 0)"/>
     <use xlink:href="#DejaVuSans-Bold-73" transform="translate(343.994141 0)"/>
     <use xlink:href="#DejaVuSans-Bold-74" transform="translate(403.515625 0)"/>
     <use xlink:href="#DejaVuSans-Bold-72" transform="translate(451.318359 0)"/>
     <use xlink:href="#DejaVuSans-Bold-75" transform="translate(500.634766 0)"/>
     <use xlink:href="#DejaVuSans-Bold-63" transform="translate(571.826172 0)"/>
     <use xlink:href="#DejaVuSans-Bold-74" transform="translate(631.103516 0)"/>
     <use xlink:href="#DejaVuSans-Bold-69" transform="translate(678.90625 0)"/>
     <use xlink:href="#DejaVuSans-Bold-6f" transform="translate(713.183594 0)"/>
     <use xlink:href="#DejaVuSans-Bold-6e" transform="translate(781.884766 0)"/>
    </g>
    <!-- + KL Divergence -->
    <g style="fill: #eaeaea" transform="translate(397.712109 309.753109) scale(0.09 -0.09)">
     <defs>
      <path id="DejaVuSans-Bold-4b" d="M 588 4666 
L 1791 4666 
L 1791 2963 
L 3525 4666 
L 4922 4666 
L 2675 2456 
L 5153 0 
L 3647 0 
L 1791 1838 
L 1791 0 
L 588 0 
L 588 4666 
z
" transform="scale(0.015625)"/>
      <path id="DejaVuSans-Bold-4c" d="M 588 4666 
L 1791 4666 
L 1791 909 
L 3903 909 
L 3903 0 
L 588 0 
L 588 4666 
z
" transform="scale(0.015625)"/>
      <path id="DejaVuSans-Bold-76" d="M 97 3500 
L 1216 3500 
L 2088 1081 
L 2956 3500 
L 4078 3500 
L 2700 0 
L 1472 0 
L 97 3500 
z
" transform="scale(0.015625)"/>
      <path id="DejaVuSans-Bold-67" d="M 2919 594 
Q 2688 288 2409 144 
Q 2131 0 1766 0 
Q 1125 0 706 504 
Q 288 1009 288 1791 
Q 288 2575 706 3076 
Q 1125 3578 1766 3578 
Q 2131 3578 2409 3434 
Q 2688 3291 2919 2981 
L 2919 3500 
L 4044 3500 
L 4044 353 
Q 4044 -491 3511 -936 
Q 2978 -1381 1966 -1381 
Q 1638 -1381 1331 -1331 
Q 1025 -1281 716 -1178 
L 716 -306 
Q 1009 -475 1290 -558 
Q 1572 -641 1856 -641 
Q 2406 -641 2662 -400 
Q 2919 -159 2919 353 
L 2919 594 
z
M 2181 2772 
Q 1834 2772 1640 2515 
Q 1447 2259 1447 1791 
Q 1447 1309 1634 1061 
Q 1822 813 2181 813 
Q 2531 813 2725 1069 
Q 2919 1325 2919 1791 
Q 2919 2259 2725 2515 
Q 2531 2772 2181 2772 
z
" transform="scale(0.015625)"/>
     </defs>
     <use xlink:href="#DejaVuSans-Bold-2b"/>
     <use xlink:href="#DejaVuSans-Bold-20" transform="translate(83.789062 0)"/>
     <use xlink:href="#DejaVuSans-Bold-4b" transform="translate(118.603516 0)"/>
     <use xlink:href="#DejaVuSans-Bold-4c" transform="translate(196.09375 0)"/>
     <use xlink:href="#DejaVuSans-Bold-20" transform="translate(259.814453 0)"/>
     <use xlink:href="#DejaVuSans-Bold-44" transform="translate(294.628906 0)"/>
     <use xlink:href="#DejaVuSans-Bold-69" transform="translate(377.636719 0)"/>
     <use xlink:href="#DejaVuSans-Bold-76" transform="translate(411.914062 0)"/>
     <use xlink:href="#DejaVuSans-Bold-65" transform="translate(477.099609 0)"/>
     <use xlink:href="#DejaVuSans-Bold-72" transform="translate(544.921875 0)"/>
     <use xlink:href="#DejaVuSans-Bold-67" transform="translate(594.238281 0)"/>
     <use xlink:href="#DejaVuSans-Bold-65" transform="translate(665.820312 0)"/>
     <use xlink:href="#DejaVuSans-Bold-6e" transform="translate(733.642578 0)"/>
     <use xlink:href="#DejaVuSans-Bold-63" transform="translate(804.833984 0)"/>
     <use xlink:href="#DejaVuSans-Bold-65" transform="translate(864.111328 0)"/>
    </g>
   </g>
   <g id="text_9">
    <!-- VAE: Variational Autoencoder -->
    <g style="fill: #00d4aa" transform="translate(169.934375 17.837812) scale(0.14 -0.14)">
     <defs>
      <path id="DejaVuSans-Bold-56" d="M 31 4666 
L 1241 4666 
L 2478 1222 
L 3713 4666 
L 4922 4666 
L 3194 0 
L 1759 0 
L 31 4666 
z
" transform="scale(0.015625)"/>
      <path id="DejaVuSans-Bold-41" d="M 3419 850 
L 1538 850 
L 1241 0 
L 31 0 
L 1759 4666 
L 3194 4666 
L 4922 0 
L 3713 0 
L 3419 850 
z
M 1838 1716 
L 3116 1716 
L 2478 3572 
L 1838 1716 
z
" transform="scale(0.015625)"/>
      <path id="DejaVuSans-Bold-3a" d="M 716 3500 
L 1844 3500 
L 1844 2291 
L 716 2291 
L 716 3500 
z
M 716 1209 
L 1844 1209 
L 1844 0 
L 716 0 
L 716 1209 
z
" transform="scale(0.015625)"/>
      <path id="DejaVuSans-Bold-61" d="M 2106 1575 
Q 1756 1575 1579 1456 
Q 1403 1338 1403 1106 
Q 1403 894 1545 773 
Q 1688 653 1941 653 
Q 2256 653 2472 879 
Q 2688 1106 2688 1447 
L 2688 1575 
L 2106 1575 
z
M 3816 1997 
L 3816 0 
L 2688 0 
L 2688 519 
Q 2463 200 2181 54 
Q 1900 -91 1497 -91 
Q 953 -91 614 226 
Q 275 544 275 1050 
Q 275 1666 698 1953 
Q 1122 2241 2028 2241 
L 2688 2241 
L 2688 2328 
Q 2688 2594 2478 2717 
Q 2269 2841 1825 2841 
Q 1466 2841 1156 2769 
Q 847 2697 581 2553 
L 581 3406 
Q 941 3494 1303 3539 
Q 1666 3584 2028 3584 
Q 2975 3584 3395 3211 
Q 3816 2838 3816 1997 
z
" transform="scale(0.015625)"/>
      <path id="DejaVuSans-Bold-6c" d="M 538 4863 
L 1656 4863 
L 1656 0 
L 538 0 
L 538 4863 
z
" transform="scale(0.015625)"/>
     </defs>
     <use xlink:href="#DejaVuSans-Bold-56"/>
     <use xlink:href="#DejaVuSans-Bold-41" transform="translate(70.642578 0)"/>
     <use xlink:href="#DejaVuSans-Bold-45" transform="translate(148.035156 0)"/>
     <use xlink:href="#DejaVuSans-Bold-3a" transform="translate(216.345703 0)"/>
     <use xlink:href="#DejaVuSans-Bold-20" transform="translate(256.335938 0)"/>
     <use xlink:href="#DejaVuSans-Bold-56" transform="translate(291.150391 0)"/>
     <use xlink:href="#DejaVuSans-Bold-61" transform="translate(363.042969 0)"/>
     <use xlink:href="#DejaVuSans-Bold-72" transform="translate(430.523438 0)"/>
     <use xlink:href="#DejaVuSans-Bold-69" transform="translate(479.839844 0)"/>
     <use xlink:href="#DejaVuSans-Bold-61" transform="translate(514.117188 0)"/>
     <use xlink:href="#DejaVuSans-Bold-74" transform="translate(581.597656 0)"/>
     <use xlink:href="#DejaVuSans-Bold-69" transform="translate(629.400391 0)"/>
     <use xlink:href="#DejaVuSans-Bold-6f" transform="translate(663.677734 0)"/>
     <use xlink:href="#DejaVuSans-Bold-6e" transform="translate(732.378906 0)"/>
     <use xlink:href="#DejaVuSans-Bold-61" transform="translate(803.570312 0)"/>
     <use xlink:href="#DejaVuSans-Bold-6c" transform="translate(871.050781 0)"/>
     <use xlink:href="#DejaVuSans-Bold-20" transform="translate(905.328125 0)"/>
     <use xlink:href="#DejaVuSans-Bold-41" transform="translate(940.142578 0)"/>
     <use xlink:href="#DejaVuSans-Bold-75" transform="translate(1017.535156 0)"/>
     <use xlink:href="#DejaVuSans-Bold-74" transform="translate(1088.726562 0)"/>
     <use xlink:href="#DejaVuSans-Bold-6f" transform="translate(1136.529297 0)"/>
     <use xlink:href="#DejaVuSans-Bold-65" transform="translate(1205.230469 0)"/>
     <use xlink:href="#DejaVuSans-Bold-6e" transform="translate(1273.052734 0)"/>
     <use xlink:href="#DejaVuSans-Bold-63" transform="translate(1344.244141 0)"/>
     <use xlink:href="#DejaVuSans-Bold-6f" transform="translate(1403.521484 0)"/>
     <use xlink:href="#DejaVuSans-Bold-64" transform="translate(1472.222656 0)"/>
     <use xlink:href="#DejaVuSans-Bold-65" transform="translate(1543.804688 0)"/>
     <use xlink:href="#DejaVuSans-Bold-72" transform="translate(1611.626953 0)"/>
    </g>
   </g>
  </g>
 </g>
 <defs>
  <clipPath id="pc3fe480de6">
   <rect x="7.2" y="27.837812" width="558" height="332.64"/>
  </clipPath>
 </defs>
</svg>
